<svg xmlns="http://www.w3.org/2000/svg" viewBox="0 0 50 50"><defs><style>.cls-1{fill:#1f2e7a;stroke:#1dc9a4;stroke-miterlimit:10;stroke-width:2px;}.cls-2{fill:#fff;}</style></defs><g id="Layer_2" data-name="Layer 2"><g id="Content"><circle class="cls-1" cx="25" cy="25" r="24"/><path class="cls-2" d="M22,31.33H19.29V23.89l0-1.22.05-1.33c-.46.45-.77.74-.94.88l-1.48,1.19-1.31-1.64,4.14-3.29H22Z"/><path class="cls-2" d="M34.65,24.9a8.94,8.94,0,0,1-1.1,5,3.83,3.83,0,0,1-3.4,1.61,3.76,3.76,0,0,1-3.35-1.67,8.83,8.83,0,0,1-1.13-4.93,9.05,9.05,0,0,1,1.1-5,3.79,3.79,0,0,1,3.38-1.61A3.78,3.78,0,0,1,33.51,20,8.87,8.87,0,0,1,34.65,24.9Zm-6.28,0a9.79,9.79,0,0,0,.41,3.39,1.42,1.42,0,0,0,2.74,0A9.49,9.49,0,0,0,32,24.9a9.76,9.76,0,0,0-.43-3.39,1.42,1.42,0,0,0-2.74,0A10.12,10.12,0,0,0,28.37,24.9Z"/></g></g></svg>