<svg xmlns="http://www.w3.org/2000/svg" viewBox="0 0 50 50"><defs><style>.cls-1{fill:#1f2e7a;stroke:#1dc9a4;stroke-miterlimit:10;stroke-width:2px;}.cls-2{fill:#fff;}</style></defs><g id="Layer_2" data-name="Layer 2"><g id="Content"><circle class="cls-1" cx="25" cy="25" r="24"/><path class="cls-2" d="M21.16,31.33H18.44V23.89l0-1.22,0-1.33a12.49,12.49,0,0,1-.94.88L16.1,23.41l-1.31-1.64,4.14-3.29h2.23Z"/><path class="cls-2" d="M33.88,31.33h-9V29.44l3.23-3.26c.95-1,1.57-1.66,1.87-2a4.29,4.29,0,0,0,.63-1.05,2.62,2.62,0,0,0,.19-1,1.47,1.47,0,0,0-.42-1.15,1.69,1.69,0,0,0-1.14-.38,3.39,3.39,0,0,0-1.45.34,7.65,7.65,0,0,0-1.47,1l-1.48-1.75A9.51,9.51,0,0,1,26.44,19a5.81,5.81,0,0,1,1.36-.52,7,7,0,0,1,1.65-.18,4.94,4.94,0,0,1,2.13.44A3.52,3.52,0,0,1,33,20a3.29,3.29,0,0,1,.51,1.81,4.39,4.39,0,0,1-.31,1.67,6.46,6.46,0,0,1-1,1.6,22.66,22.66,0,0,1-2.3,2.32l-1.66,1.56V29h5.6Z"/></g></g></svg>