<svg xmlns="http://www.w3.org/2000/svg" viewBox="0 0 50 50"><defs><style>.cls-1{fill:#1f2e7a;stroke:#1dc9a4;stroke-miterlimit:10;stroke-width:2px;}.cls-2{fill:#fff;}</style></defs><g id="Layer_2" data-name="Layer 2"><g id="Content"><circle class="cls-1" cx="25" cy="25" r="24"/><path class="cls-2" d="M21.17,31.33H18.45V23.89l0-1.22,0-1.33a12.49,12.49,0,0,1-.94.88l-1.47,1.19L14.8,21.77l4.14-3.29h2.23Z"/><path class="cls-2" d="M33.39,21.35a3,3,0,0,1-.73,2,3.77,3.77,0,0,1-2,1.16v.05a4.11,4.11,0,0,1,2.36.95,2.64,2.64,0,0,1,.8,2,3.43,3.43,0,0,1-1.35,2.89,6.16,6.16,0,0,1-3.84,1,9.4,9.4,0,0,1-3.71-.69V28.5a8,8,0,0,0,1.65.61,6.85,6.85,0,0,0,1.77.24,3.42,3.42,0,0,0,2-.46,1.66,1.66,0,0,0,.64-1.46,1.33,1.33,0,0,0-.74-1.29,5.47,5.47,0,0,0-2.35-.37h-1V23.68h1A4.63,4.63,0,0,0,30,23.29,1.41,1.41,0,0,0,30.72,22c0-1-.61-1.46-1.83-1.46a4.24,4.24,0,0,0-1.29.21,6.55,6.55,0,0,0-1.45.73l-1.26-1.87a7,7,0,0,1,4.19-1.27,5.46,5.46,0,0,1,3.16.81A2.59,2.59,0,0,1,33.39,21.35Z"/></g></g></svg>