<svg xmlns="http://www.w3.org/2000/svg" viewBox="0 0 50 50"><defs><style>.cls-1{fill:#1f2e7a;stroke:#1dc9a4;stroke-miterlimit:10;stroke-width:2px;}.cls-2{fill:#fff;}</style></defs><g id="Layer_2" data-name="Layer 2"><g id="Content"><circle class="cls-1" cx="25" cy="25" r="24"/><path class="cls-2" d="M21.24,31.33H18.52V23.89l0-1.22,0-1.33a12.49,12.49,0,0,1-.94.88l-1.47,1.19-1.31-1.64L19,18.48h2.23Z"/><path class="cls-2" d="M34.25,28.67H32.71v2.66H30.05V28.67H24.57V26.78l5.63-8.3h2.51v8.08h1.54Zm-4.2-2.11V24.38c0-.37,0-.89,0-1.59s.06-1.09.08-1.2h-.08A8.92,8.92,0,0,1,29.31,23L27,26.56Z"/></g></g></svg>