<svg xmlns="http://www.w3.org/2000/svg" viewBox="0 0 50 50"><defs><style>.cls-1{fill:#1f2e7a;stroke:#1dc9a4;stroke-miterlimit:10;stroke-width:2px;}.cls-2{fill:#fff;}</style></defs><g id="Layer_2" data-name="Layer 2"><g id="Content"><circle class="cls-1" cx="25" cy="25" r="24"/><path class="cls-2" d="M21.24,31.33H18.52V23.89l0-1.22,0-1.33a12.49,12.49,0,0,1-.94.88l-1.47,1.19-1.31-1.64L19,18.48h2.23Z"/><path class="cls-2" d="M29.66,23.12a4.1,4.1,0,0,1,3,1.05A3.73,3.73,0,0,1,33.73,27a4.16,4.16,0,0,1-1.33,3.31,5.57,5.57,0,0,1-3.8,1.16,7.47,7.47,0,0,1-3.46-.69V28.46a7.11,7.11,0,0,0,1.62.61,7.31,7.31,0,0,0,1.74.23q2.49,0,2.49-2c0-1.3-.86-1.94-2.57-1.94a6.53,6.53,0,0,0-1,.09,7.4,7.4,0,0,0-.92.2L25.39,25l.49-6.55h7v2.3H28.26L28,23.3l.31-.06A6.23,6.23,0,0,1,29.66,23.12Z"/></g></g></svg>