<svg xmlns="http://www.w3.org/2000/svg" viewBox="0 0 50 50"><defs><style>.cls-1{fill:#1f2e7a;stroke:#1dc9a4;stroke-miterlimit:10;stroke-width:2px;}.cls-2{fill:#fff;}</style></defs><g id="Layer_2" data-name="Layer 2"><g id="Content"><circle class="cls-1" cx="25" cy="25" r="24"/><path class="cls-2" d="M21.72,31.33H19V23.89l0-1.22,0-1.33a12.49,12.49,0,0,1-.94.88l-1.48,1.19-1.3-1.64,4.13-3.29h2.24Z"/><path class="cls-2" d="M25.37,25.87q0-3.81,1.61-5.68a6.06,6.06,0,0,1,4.83-1.86,8.57,8.57,0,0,1,1.72.13v2.17A7.41,7.41,0,0,0,32,20.46a5.34,5.34,0,0,0-2.28.42,2.88,2.88,0,0,0-1.33,1.25,5.73,5.73,0,0,0-.51,2.34H28A3,3,0,0,1,30.77,23a3.44,3.44,0,0,1,2.69,1.08,4.31,4.31,0,0,1,1,3,4.49,4.49,0,0,1-1.16,3.25,4.27,4.27,0,0,1-3.22,1.2,4.68,4.68,0,0,1-2.48-.65,4.34,4.34,0,0,1-1.64-1.93A7.38,7.38,0,0,1,25.37,25.87ZM30,29.33a1.61,1.61,0,0,0,1.34-.58,2.63,2.63,0,0,0,.46-1.67,2.31,2.31,0,0,0-.43-1.48,1.59,1.59,0,0,0-1.32-.54,2,2,0,0,0-1.41.54,1.64,1.64,0,0,0-.58,1.25,2.8,2.8,0,0,0,.55,1.76A1.67,1.67,0,0,0,30,29.33Z"/></g></g></svg>