<svg xmlns="http://www.w3.org/2000/svg" viewBox="0 0 50 50"><defs><style>.cls-1{fill:#1f2e7a;stroke:#1dc9a4;stroke-miterlimit:10;stroke-width:2px;}.cls-2{fill:#fff;}</style></defs><g id="Layer_2" data-name="Layer 2"><g id="Content"><circle class="cls-1" cx="25" cy="25" r="24"/><path class="cls-2" d="M29.49,31.33h-9V29.44l3.23-3.26c.95-1,1.58-1.66,1.87-2a4,4,0,0,0,.63-1.05,2.62,2.62,0,0,0,.2-1A1.44,1.44,0,0,0,26,20.94a1.65,1.65,0,0,0-1.14-.38,3.39,3.39,0,0,0-1.45.34,7.65,7.65,0,0,0-1.47,1l-1.47-1.75A9.51,9.51,0,0,1,22,19a6,6,0,0,1,1.36-.52,7.1,7.1,0,0,1,1.66-.18,4.9,4.9,0,0,1,2.12.44A3.49,3.49,0,0,1,28.62,20a3.29,3.29,0,0,1,.51,1.81,4.4,4.4,0,0,1-.32,1.67,6.4,6.4,0,0,1-1,1.6,24.17,24.17,0,0,1-2.31,2.32l-1.65,1.56V29h5.6Z"/></g></g></svg>