<svg xmlns="http://www.w3.org/2000/svg" viewBox="0 0 50 50"><defs><style>.cls-1{fill:#1f2e7a;stroke:#1dc9a4;stroke-miterlimit:10;stroke-width:2px;}.cls-2{fill:#fff;}</style></defs><g id="Layer_2" data-name="Layer 2"><g id="Content"><circle class="cls-1" cx="25" cy="25" r="24"/><path class="cls-2" d="M29.06,21.35a3,3,0,0,1-.72,2,3.81,3.81,0,0,1-2.05,1.16v.05a4.1,4.1,0,0,1,2.35.95,2.61,2.61,0,0,1,.8,2,3.45,3.45,0,0,1-1.34,2.89,6.2,6.2,0,0,1-3.84,1,9.37,9.37,0,0,1-3.71-.69V28.5a8,8,0,0,0,1.64.61,6.87,6.87,0,0,0,1.78.24,3.38,3.38,0,0,0,2-.46,1.66,1.66,0,0,0,.65-1.46,1.34,1.34,0,0,0-.74-1.29,5.56,5.56,0,0,0-2.36-.37h-1V23.68h1a4.6,4.6,0,0,0,2.18-.39A1.41,1.41,0,0,0,26.39,22c0-1-.61-1.46-1.83-1.46a4.13,4.13,0,0,0-1.28.21,6.6,6.6,0,0,0-1.46.73l-1.25-1.87a7,7,0,0,1,4.19-1.27,5.4,5.4,0,0,1,3.15.81A2.59,2.59,0,0,1,29.06,21.35Z"/></g></g></svg>