<svg xmlns="http://www.w3.org/2000/svg" viewBox="0 0 50 50"><defs><style>.cls-1{fill:#1f2e7a;stroke:#1dc9a4;stroke-miterlimit:10;stroke-width:2px;}.cls-2{fill:#fff;}</style></defs><g id="Layer_2" data-name="Layer 2"><g id="Content"><circle class="cls-1" cx="25" cy="25" r="24"/><path class="cls-2" d="M25.19,23.12a4.14,4.14,0,0,1,3,1.05A3.76,3.76,0,0,1,29.26,27a4.13,4.13,0,0,1-1.33,3.31,5.56,5.56,0,0,1-3.8,1.16,7.47,7.47,0,0,1-3.46-.69V28.46a7.11,7.11,0,0,0,1.62.61A7.39,7.39,0,0,0,24,29.3q2.49,0,2.49-2c0-1.3-.86-1.94-2.58-1.94a6.63,6.63,0,0,0-1,.09,7.19,7.19,0,0,0-.91.2L20.93,25l.48-6.55h7v2.3H23.79l-.24,2.52.31-.06A6.23,6.23,0,0,1,25.19,23.12Z"/></g></g></svg>