<svg xmlns="http://www.w3.org/2000/svg" viewBox="0 0 50 50"><defs><style>.cls-1{fill:#1f2e7a;stroke:#1dc9a4;stroke-miterlimit:10;stroke-width:2px;}.cls-2{fill:#fff;}</style></defs><g id="Layer_2" data-name="Layer 2"><g id="Content"><circle class="cls-1" cx="25" cy="25" r="24"/><path class="cls-2" d="M20.43,25.87c0-2.54.53-4.43,1.61-5.68a6,6,0,0,1,4.83-1.86,8.64,8.64,0,0,1,1.72.13v2.17A7.51,7.51,0,0,0,27,20.46a5.34,5.34,0,0,0-2.28.42,2.81,2.81,0,0,0-1.32,1.25,5.71,5.71,0,0,0-.52,2.34H23A3,3,0,0,1,25.82,23a3.45,3.45,0,0,1,2.7,1.08,4.31,4.31,0,0,1,1,3,4.49,4.49,0,0,1-1.16,3.25,4.28,4.28,0,0,1-3.22,1.2,4.65,4.65,0,0,1-2.48-.65A4.28,4.28,0,0,1,21,28.92,7.38,7.38,0,0,1,20.43,25.87Zm4.64,3.46a1.59,1.59,0,0,0,1.33-.58,2.63,2.63,0,0,0,.47-1.67,2.31,2.31,0,0,0-.44-1.48,1.59,1.59,0,0,0-1.31-.54,2,2,0,0,0-1.41.54,1.65,1.65,0,0,0-.59,1.25,2.86,2.86,0,0,0,.55,1.76A1.69,1.69,0,0,0,25.07,29.33Z"/></g></g></svg>