<svg xmlns="http://www.w3.org/2000/svg" viewBox="0 0 50 50"><defs><style>.cls-1{fill:#1f2e7a;stroke:#1dc9a4;stroke-miterlimit:10;stroke-width:2px;}.cls-2{fill:#fff;}</style></defs><g id="Layer_2" data-name="Layer 2"><g id="Content"><circle class="cls-1" cx="25" cy="25" r="24"/><path class="cls-2" d="M25,18.31a4.87,4.87,0,0,1,3,.84,2.69,2.69,0,0,1,1.13,2.26,2.92,2.92,0,0,1-.55,1.76,4.59,4.59,0,0,1-1.76,1.37,6.1,6.1,0,0,1,2.07,1.62A3,3,0,0,1,29.51,28a3.05,3.05,0,0,1-1.24,2.54,5.16,5.16,0,0,1-3.26,1,5.42,5.42,0,0,1-3.31-.89,3,3,0,0,1-1.2-2.54,3.37,3.37,0,0,1,.58-1.95A4.94,4.94,0,0,1,23,24.61a4.78,4.78,0,0,1-1.59-1.48,3.29,3.29,0,0,1-.48-1.73A2.68,2.68,0,0,1,22,19.16,4.94,4.94,0,0,1,25,18.31Zm-2,9.6a1.41,1.41,0,0,0,.53,1.18,2.24,2.24,0,0,0,1.44.42,2.25,2.25,0,0,0,1.51-.44,1.45,1.45,0,0,0,.5-1.14,1.55,1.55,0,0,0-.5-1.11,6.39,6.39,0,0,0-1.61-1.09C23.63,26.3,23,27,23,27.91Zm2-7.61a1.75,1.75,0,0,0-1.13.35,1.2,1.2,0,0,0-.42,1,1.43,1.43,0,0,0,.34.94,3.58,3.58,0,0,0,1.22.86,3.45,3.45,0,0,0,1.21-.83,1.47,1.47,0,0,0,.34-1,1.16,1.16,0,0,0-.44-1A1.76,1.76,0,0,0,25,20.3Z"/></g></g></svg>