<svg xmlns="http://www.w3.org/2000/svg" viewBox="0 0 50 50"><defs><style>.cls-1{fill:#1f2e7a;stroke:#1dc9a4;stroke-miterlimit:10;stroke-width:2px;}.cls-2{fill:#fff;}</style></defs><g id="Layer_2" data-name="Layer 2"><g id="Content"><circle class="cls-1" cx="25" cy="25" r="24"/><path class="cls-2" d="M29.44,24q0,3.79-1.6,5.67A6,6,0,0,1,23,31.5a9.3,9.3,0,0,1-1.73-.12V29.2a6.51,6.51,0,0,0,1.55.19,5.58,5.58,0,0,0,2.24-.4,2.87,2.87,0,0,0,1.34-1.26,5.59,5.59,0,0,0,.54-2.36h-.11a3,3,0,0,1-1.18,1.16,3.73,3.73,0,0,1-1.67.33,3.39,3.39,0,0,1-2.64-1.07,4.31,4.31,0,0,1-1-3,4.44,4.44,0,0,1,1.18-3.26,4.24,4.24,0,0,1,3.19-1.2,4.55,4.55,0,0,1,2.49.67,4.26,4.26,0,0,1,1.64,1.94A7.3,7.3,0,0,1,29.44,24Zm-4.65-3.45a1.58,1.58,0,0,0-1.31.58A2.56,2.56,0,0,0,23,22.76a2.33,2.33,0,0,0,.43,1.48,1.57,1.57,0,0,0,1.31.54,2,2,0,0,0,1.42-.54A1.64,1.64,0,0,0,26.74,23a2.87,2.87,0,0,0-.54-1.77A1.71,1.71,0,0,0,24.79,20.51Z"/></g></g></svg>