<!-- Generator: Adobe Illustrator 24.2.3, SVG Export Plug-In  -->
<svg version="1.1" xmlns="http://www.w3.org/2000/svg" xmlns:xlink="http://www.w3.org/1999/xlink" x="0px" y="0px" width="258.2px"
	 height="277.7px" viewBox="0 0 258.2 277.7" style="overflow:visible;enable-background:new 0 0 258.2 277.7;"
	 xml:space="preserve">
<style type="text/css">
	.st0{fill:#2E45B8;}
	.st1{fill:#C91D42;}
	.st2{fill:#141F52;}
	.st3{fill:none;stroke:#FFFFFF;stroke-width:0.4236;stroke-miterlimit:10;}
	.st4{fill:#D6DBF5;}
	.st5{fill:#FFFFFF;}
	.st6{fill:none;stroke:#D9D9D9;stroke-width:3.4273;stroke-miterlimit:10;}
	.st7{fill:none;stroke:#595959;stroke-width:0.8346;stroke-miterlimit:10;}
	.st8{fill:#D9D9D9;}
	.st9{clip-path:url(#SVGID_3_);fill:#E2365B;}
	.st10{clip-path:url(#SVGID_3_);fill:#FFFFFF;}
	.st11{clip-path:url(#SVGID_3_);fill:#475ED1;}
	.st12{fill:#0D0D0D;}
	.st13{fill:none;stroke:#0D0D0D;stroke-width:0.3781;stroke-miterlimit:10;}
	.st14{clip-path:url(#SVGID_4_);fill:#E2365B;}
	.st15{clip-path:url(#SVGID_4_);fill:#F9C21F;}
	.st16{clip-path:url(#SVGID_6_);fill:#E2365B;}
	.st17{clip-path:url(#SVGID_6_);fill:#FFFFFF;}
	.st18{clip-path:url(#SVGID_6_);fill:#475ED1;}
	.st19{clip-path:url(#SVGID_8_);fill:#E2365B;}
	.st20{clip-path:url(#SVGID_8_);fill:#F9C21F;}
</style>
<defs>
</defs>
<g id="Layer_2_1_">
	<g>
		<g id="Scene_9_2_">
			<path id="Doc_2_2_" class="st0" d="M34.5,12.5c66.3,2.3,133-1.3,199.4-11.7c5.4,88.7,10.9,177.8,16.3,267.7
				c-66.4,3.4-132.9,6.3-199.3,9.3C45.4,189.7,40,101.3,34.5,12.5z"/>
			<g id="Report_2_">
				<path class="st1" d="M256.2,153.8c-5.1,3.2-10.2,6.4-15.3,9.5c0.3-19.6,0.6-39.2,0.9-58.9c5,2.8,10,5.6,15,8.4
					C256.6,126.6,256.4,140.2,256.2,153.8z"/>
				<path class="st0" d="M256.9,108.1c-5.1,3.3-10.2,6.6-15.2,9.9c0.3-19.6,0.6-39.3,0.9-58.9c5,2.7,10,5.4,15,8.1
					C257.3,80.8,257.1,94.4,256.9,108.1z"/>
				<path class="st2" d="M46.7,3.9c66.4,6.6,133.3,6.8,199.7,0.7c-1.5,90-2.9,179.7-4.4,269.3c-66.5-1.7-133.1-3.4-199.6-5.5
					C43.8,180.1,45.2,91.9,46.7,3.9z"/>
				<path class="st2" d="M257.6,62.7c-5.1,3.4-10.2,6.8-15.2,10.2c0.3-19.6,0.6-39.3,0.9-58.9c5,2.6,10,5.2,14.9,7.8
					C258,35.4,257.8,49,257.6,62.7z"/>
				<path class="st3" d="M244.9,63c0.2-14,0.4-28,0.7-42"/>
			</g>
			<g id="Doc_1_2_">
				<path class="st4" d="M49.6,6.8c65.4,5.4,131.3,4.5,196.8-2.4c-0.1,88.4-0.2,176.8-0.3,265.2c-65.6-0.6-131.1-1.4-196.7-2.5
					C49.4,180.3,49.5,93.5,49.6,6.8z"/>
				<path class="st5" d="M50.9,8.5c65.4,5.2,131.3,4.4,196.7-2.7c-0.1,88.5-0.2,176.9-0.3,265.4c-65.6-0.6-131.1-1.5-196.7-2.5
					C50.8,181.9,50.9,95.2,50.9,8.5z"/>
				<path class="st6" d="M73.4,75.5c34,1.6,68.1,1.9,102.1,1"/>
				<path class="st6" d="M119.7,56.9c19.6,0.3,39.3,0.1,58.9-0.6"/>
				<path class="st6" d="M85.7,235.3c15.2,0.3,30.4,0.5,45.7,0.7"/>
				<path class="st6" d="M164.4,236.2c15.2,0.1,30.4,0.1,45.7,0.1"/>
				<path class="st6" d="M119.7,49.4c19.6,0.3,39.3,0.1,58.9-0.6"/>
				<path class="st6" d="M73.4,115.4c49.6,2,99.3,1.8,148.9-0.5"/>
				<path class="st6" d="M73.4,123.1c49.6,1.9,99.3,1.8,148.9-0.3"/>
				<path class="st6" d="M73.4,130.9c49.6,1.9,99.3,1.8,148.9-0.2"/>
				<path class="st6" d="M73.4,138.6c49.6,1.8,99.3,1.7,148.9-0.1"/>
				<path class="st6" d="M73.4,146.4c49.6,1.7,99.3,1.7,148.9,0"/>
				<path class="st6" d="M73.4,200.1c49.6,1.3,99.3,1.5,148.9,0.8"/>
				<path class="st6" d="M73.4,207.9c49.6,1.2,99.2,1.5,148.8,0.9"/>
				<path class="st6" d="M73.4,215.6c49.6,1.1,99.2,1.5,148.8,1"/>
				<path class="st6" d="M73.4,161.3c34,1.1,68,1.5,102.1,1.1"/>
				<path class="st6" d="M73.4,169c49.6,1.5,99.3,1.6,148.9,0.3"/>
				<path class="st6" d="M73.4,176.8c49.6,1.5,99.3,1.6,148.9,0.4"/>
				<path class="st6" d="M73.4,184.5c22.5,0.6,45,1,67.6,1.2"/>
				<path class="st6" d="M73.4,83.8c49.1,2.2,98.4,2,147.5-0.8"/>
				<path class="st6" d="M73.4,92c49.1,2.2,98.4,1.9,147.5-0.7"/>
				<path class="st6" d="M73.4,100.3c22.5,1,45,1.4,67.6,1.4"/>
				<path class="st7" d="M203.4,8c0-1,0-2,0-3c0.1-2.4,2.1-4.4,4.5-4.5c0,0,0,0,0,0c2.4-0.1,4.3,1.8,4.3,4.2c0,0,0,0,0,0
					c-0.3,10-0.6,20.1-0.9,30.1c-0.1,2-1.8,3.7-3.8,3.8c0,0,0,0,0,0l0,0c-2,0.1-3.6-1.5-3.6-3.6c0,0,0,0,0,0
					c0.3-9.4,0.6-18.7,0.9-28.1"/>
			</g>
		</g>
	</g>
</g>
<g>
	<path class="st8" d="M176.5,204.1l-3.1,2.1l-3.1,2.1l9.5,17.4c0,0,6.5,0.4,12.6,9.2c0.2-0.1,0.5-0.3,0.5-0.3s0.3-0.2,0.5-0.3
		c-6-8.8-4-15.1-4-15.1L176.5,204.1z"/>
	<g>
		<defs>
			<path id="SVGID_2_" d="M98.9,87.2c-1.8-2.5-5.3-3.1-7.8-1.4l0,0c-2.6,1.7-3.2,5.2-1.6,7.8l37.2,56.9l40.3,57.4
				c0.5,0.7,1.3,1,2.1,0.8c0.9-0.2,2.3-0.8,4.4-2.2c2.1-1.4,3.2-2.5,3.7-3.3c0.5-0.7,0.4-1.6,0-2.3l-38.8-58.4L98.9,87.2z"/>
		</defs>
		<use xlink:href="#SVGID_2_"  style="overflow:visible;fill:#1F2E7A;"/>
		<clipPath id="SVGID_3_">
			<use xlink:href="#SVGID_2_"  style="overflow:visible;"/>
		</clipPath>
		<path class="st9" d="M95.8,92.6c2.9-2,6-3.5,9.1-4.3l-7-10.2L81.5,89.3l7,10.2C90.4,97,92.8,94.6,95.8,92.6z"/>
		
			<rect x="127.7" y="147.2" transform="matrix(0.8254 -0.5645 0.5645 0.8254 -61.8018 103.2748)" class="st10" width="16.8" height="8.7"/>
		
			<rect x="154.6" y="188.9" transform="matrix(0.8254 -0.5645 0.5645 0.8254 -79.3874 125.4229)" class="st11" width="17.1" height="4.4"/>
		
			<rect x="159" y="195.3" transform="matrix(0.8254 -0.5645 0.5645 0.8254 -82.2516 129.0302)" class="st11" width="17.1" height="4.4"/>
	</g>
	<circle class="st12" cx="181.8" cy="218.5" r="1.2"/>
	<line class="st13" x1="182.5" y1="219.5" x2="192.9" y2="234.7"/>
</g>
<g>
	<path class="st8" d="M95.1,204.1l-3.1,2.1l-3.1,2.1l9.5,17.4c0,0,6.5,0.4,12.6,9.2c0.2-0.1,0.5-0.3,0.5-0.3s0.3-0.2,0.5-0.3
		c-6-8.8-4-15.1-4-15.1L95.1,204.1z"/>
	<g>
		<defs>
			<path id="SVGID_1_" d="M17.5,87.2c-1.8-2.5-5.3-3.1-7.8-1.4l0,0c-2.6,1.7-3.2,5.2-1.6,7.8l37.2,56.9l40.3,57.4
				c0.5,0.7,1.3,1,2.1,0.8c0.9-0.2,2.3-0.8,4.4-2.2c2.1-1.4,3.2-2.5,3.7-3.3c0.5-0.7,0.4-1.6,0-2.3L57,142.5L17.5,87.2z"/>
		</defs>
		<use xlink:href="#SVGID_1_"  style="overflow:visible;fill:#C91D42;"/>
		<clipPath id="SVGID_4_">
			<use xlink:href="#SVGID_1_"  style="overflow:visible;"/>
		</clipPath>
		<path class="st14" d="M14.3,92.6c2.9-2,6-3.5,9.1-4.3l-7-10.2L0,89.3l7,10.2C8.9,97,11.4,94.6,14.3,92.6z"/>
		
			<rect x="46.2" y="147.2" transform="matrix(0.8254 -0.5645 0.5645 0.8254 -76.0224 57.2882)" class="st15" width="16.8" height="8.7"/>
		
			<rect x="73.1" y="188.9" transform="matrix(0.8254 -0.5645 0.5645 0.8254 -93.608 79.4363)" class="st14" width="17.1" height="4.4"/>
		
			<rect x="77.5" y="195.3" transform="matrix(0.8254 -0.5645 0.5645 0.8254 -96.4723 83.0436)" class="st14" width="17.1" height="4.4"/>
	</g>
	<circle class="st12" cx="100.4" cy="218.5" r="1.2"/>
	<line class="st13" x1="101" y1="219.5" x2="111.4" y2="234.7"/>
</g>
</svg>
