<!-- Generator: Adobe Illustrator 24.2.3, SVG Export Plug-In  -->
<svg version="1.1" xmlns="http://www.w3.org/2000/svg" xmlns:xlink="http://www.w3.org/1999/xlink" x="0px" y="0px" width="357.7px"
	 height="387.5px" viewBox="0 0 357.7 387.5" style="overflow:visible;enable-background:new 0 0 357.7 387.5;"
	 xml:space="preserve">
<style type="text/css">
	.st0{fill:#F5F4EF;}
	.st1{fill:#D9D9D9;}
	.st2{fill:#F2F2F2;}
	.st3{fill:#FFFFFF;}
	.st4{fill:none;stroke:#141F52;stroke-width:3.3773;stroke-linecap:round;stroke-linejoin:round;stroke-miterlimit:10;}
	.st5{fill:#2E45B8;}
	.st6{fill:none;stroke:#141F52;stroke-width:0.8443;stroke-linecap:round;stroke-linejoin:round;stroke-miterlimit:10;}
	.st7{fill:#1F2E7A;}
	.st8{opacity:0.5;fill:#1F2E7A;}
	.st9{fill:none;stroke:#1F2E7A;stroke-width:5.2193;stroke-miterlimit:10;}
	.st10{fill:#141F52;}
	.st11{fill:#C91D42;}
	.st12{fill:#E2365B;}
	.st13{fill:none;stroke:#C91D42;stroke-width:5.2193;stroke-miterlimit:10;}
	.st14{opacity:0.5;fill:#C91D42;}
</style>
<defs>
</defs>
<g>
	<g>
		<g>
			<polygon class="st0" points="148.9,118.5 134.2,50 153.7,117.4 			"/>
		</g>
		<g>
			<polygon class="st0" points="47.3,146 0,115.3 49.9,141.8 			"/>
		</g>
		<g>
			<polygon class="st0" points="205.9,118.6 221.9,75.8 210.6,120.2 			"/>
		</g>
		<g>
			<polygon class="st0" points="231.7,127.4 276.4,72.3 235.6,130.5 			"/>
		</g>
		<g>
			<polygon class="st0" points="254.9,147.4 288.8,122.1 258,151.3 			"/>
		</g>
		<g>
			<polygon class="st0" points="178.3,126.5 179.6,84.1 183.2,126.5 			"/>
		</g>
		<g>
			<polygon class="st0" points="277.9,197.1 334.1,191.4 278.5,202 			"/>
		</g>
		<g>
			<polygon class="st0" points="282.3,166.6 334.4,144.9 284.3,171.1 			"/>
		</g>
		<g>
			<polygon class="st0" points="254.6,276.2 302.7,315.9 251.5,280 			"/>
		</g>
		<g>
			<polygon class="st0" points="281.1,256.9 331.5,282.3 278.9,261.4 			"/>
		</g>
		<g>
			<polygon class="st0" points="308.8,232 357.7,238.3 308.2,237.9 			"/>
		</g>
		<g>
			<polygon class="st0" points="60.3,225.9 3.8,226.8 60.1,221 			"/>
		</g>
		<g>
			<polygon class="st0" points="118.4,293.5 76,339.5 114.7,290.1 			"/>
		</g>
		<g>
			<polygon class="st0" points="90,250.6 36.6,268.8 88.3,246 			"/>
		</g>
		<g>
			<polygon class="st0" points="72.5,198.1 19.1,180 74,193.4 			"/>
		</g>
		<g>
			<polygon class="st0" points="136,304.4 110.2,364.9 131.5,302.5 			"/>
		</g>
		<g>
			<polygon class="st0" points="163.1,305.4 152.7,360.8 158.2,304.6 			"/>
		</g>
		<g>
			<polygon class="st0" points="137.9,150.2 118.4,97.2 142.5,148.4 			"/>
		</g>
		<g>
			<polygon class="st0" points="90.1,140.8 51,94.3 93.9,137.6 			"/>
		</g>
		<g>
			<polygon class="st0" points="96.5,274.9 36.9,311.2 93.2,269.9 			"/>
		</g>
		<g>
			<polygon class="st0" points="189.6,310.8 195.6,387.5 183.7,311.4 			"/>
		</g>
		<g>
			<polygon class="st0" points="240.8,300.8 280.5,358.1 236,304.3 			"/>
		</g>
	</g>
	<g>
		<circle class="st1" cx="88.9" cy="160.7" r="28.4"/>
		<circle class="st1" cx="107.7" cy="152.7" r="28.4"/>
		<circle class="st1" cx="136.9" cy="154.9" r="28.4"/>
		<circle class="st1" cx="69.1" cy="220.2" r="24.2"/>
		<circle class="st1" cx="96.9" cy="265.5" r="24.2"/>
		<circle class="st1" cx="152.9" cy="288.5" r="30.2"/>
		<circle class="st1" cx="193.5" cy="285.6" r="30.2"/>
		<circle class="st1" cx="296.3" cy="230.7" r="16.1"/>
		<circle class="st1" cx="62.1" cy="171.3" r="16.1"/>
		<circle class="st1" cx="68.8" cy="192.4" r="16.1"/>
		<circle class="st1" cx="76.9" cy="241.2" r="16.1"/>
		<circle class="st1" cx="123.1" cy="281.2" r="16.1"/>
		<circle class="st1" cx="228.4" cy="293.5" r="16.1"/>
		<circle class="st1" cx="240.2" cy="273.5" r="16.1"/>
		<circle class="st1" cx="225" cy="133.3" r="16.1"/>
		<circle class="st1" cx="244.3" cy="139.8" r="16.1"/>
		<circle class="st1" cx="264.1" cy="152.7" r="16.1"/>
		<circle class="st1" cx="148.5" cy="129.2" r="16.1"/>
		<circle class="st1" cx="164.4" cy="128.6" r="16.1"/>
		<circle class="st1" cx="269.8" cy="254" r="30.2"/>
		<circle class="st1" cx="279.9" cy="173.8" r="30.2"/>
		<circle class="st1" cx="274.4" cy="213.1" r="30.2"/>
		<circle class="st1" cx="194.5" cy="140.4" r="30.2"/>
	</g>
	<g>
		<circle class="st2" cx="181.9" cy="271.1" r="36.7"/>
		<circle class="st2" cx="221" cy="251.9" r="36.7"/>
		<circle class="st2" cx="139.9" cy="262.4" r="31.2"/>
		<circle class="st2" cx="111.5" cy="225.3" r="36.3"/>
		<circle class="st2" cx="266" cy="260.5" r="16.4"/>
		<circle class="st2" cx="280.8" cy="257" r="12.5"/>
		<circle class="st2" cx="283.7" cy="168.4" r="16.4"/>
		<circle class="st2" cx="270.3" cy="165.1" r="16.4"/>
		<circle class="st2" cx="281.2" cy="185.4" r="16.4"/>
		<circle class="st2" cx="262.6" cy="188" r="16.4"/>
		<circle class="st2" cx="159" cy="294.8" r="16.4"/>
		<circle class="st2" cx="90.4" cy="162.2" r="16.4"/>
		<circle class="st2" cx="94.7" cy="205" r="26.9"/>
		<circle class="st2" cx="93.2" cy="171" r="22.5"/>
		<circle class="st2" cx="113.5" cy="160.8" r="27.1"/>
		<circle class="st2" cx="187.6" cy="159.1" r="36.7"/>
		<circle class="st2" cx="153.3" cy="175.2" r="36.7"/>
		<circle class="st2" cx="236.6" cy="162.2" r="32"/>
		<circle class="st2" cx="265.4" cy="230.1" r="33"/>
	</g>
	<g>
		<circle class="st3" cx="185.4" cy="259.3" r="20.8"/>
		<circle class="st3" cx="121" cy="168" r="13.3"/>
		<circle class="st3" cx="132.3" cy="169.1" r="12.9"/>
		<circle class="st3" cx="203.7" cy="250.3" r="20.8"/>
		<circle class="st3" cx="224.6" cy="243.1" r="20.8"/>
		<circle class="st3" cx="167.1" cy="171.9" r="20.8"/>
		<circle class="st3" cx="114" cy="209" r="20.8"/>
		<circle class="st3" cx="138" cy="251.8" r="14"/>
		<circle class="st3" cx="129.4" cy="231.9" r="17.1"/>
		<circle class="st3" cx="229.9" cy="178" r="20.1"/>
		<circle class="st3" cx="216" cy="167.9" r="20.1"/>
		<circle class="st3" cx="255.3" cy="238.2" r="11.5"/>
		<circle class="st3" cx="249" cy="244.8" r="16"/>
		<circle class="st3" cx="145.7" cy="167" r="11.5"/>
		<circle class="st3" cx="103.4" cy="189.6" r="11.5"/>
		<circle class="st3" cx="151.4" cy="257.1" r="11.5"/>
		<circle class="st3" cx="164.4" cy="255.1" r="11.5"/>
		<circle class="st3" cx="105.9" cy="179" r="11.5"/>
		<circle class="st3" cx="183.5" cy="163" r="11.5"/>
		<circle class="st3" cx="198.3" cy="156.2" r="11.5"/>
		<circle class="st3" cx="261.2" cy="228.8" r="11.5"/>
		<circle class="st3" cx="254.9" cy="214.8" r="11.5"/>
		<circle class="st3" cx="245.7" cy="199.6" r="11.5"/>
		<circle class="st3" cx="245.5" cy="188.7" r="11.5"/>
		<path class="st3" d="M107.5,165l-0.8,23.9c0,0,21.5,44.9,22.3,45.5c0.8,0.6,17.5,18.9,17.5,18.9l52.3,4.4l56.2-26.6l-0.5-13.7
			l-19.8-38.5l-37.7-18.1L155.5,173L107.5,165z"/>
	</g>
	<path class="st2" d="M214.3,253c-1,7.3-4.7,12.5-11.7,14.8c-7,2.3-12.9-0.5-17.9-5.5c-0.2,1.1,2.1,4.2,3.5,5.3
		c6.4,4.8,13.3,5.3,19.9,0.9C213.4,265,215.4,259.5,214.3,253z"/>
	<path class="st2" d="M120.8,184.1c-0.7-7.3,1.7-13.3,8-17.1c6.3-3.8,12.6-2.4,18.7,1.2c-0.1-1.1-3-3.6-4.6-4.3
		c-7.4-3.2-14.1-2.1-19.6,3.7C119,172.3,118.2,178.1,120.8,184.1z"/>
	<path class="st2" d="M206.6,172.6c6-4.2,12.4-5.1,18.8-1.5c6.5,3.6,8.3,9.8,8.2,16.9c0.9-0.6,1.7-4.4,1.5-6.1
		c-0.9-8-5.1-13.3-12.8-15.2C216,165.2,210.6,167.4,206.6,172.6z"/>
</g>
<g>
	<g>
		<g>
			<path class="st4" d="M248.2,120.3c-0.4,3.7,2.3,7.1,6.1,7.5c3.7,0.4,7.1-2.3,7.5-6.1c0.4-3.7-2.3-7.1-6.1-7.5l1.6-15.2"/>
			<path class="st5" d="M258.9,111.5l-5.9-0.6c-0.6-0.1-1-0.6-0.9-1.1l0.6-5.9c0.1-0.6,0.6-1,1.1-0.9l5.9,0.6c0.6,0.1,1,0.6,0.9,1.1
				l-0.6,5.9C260,111.2,259.5,111.6,258.9,111.5z"/>
			<polyline class="st6" points="203,156.6 254.4,126.4 298.5,166.8 			"/>
		</g>
		<g>
			<polygon class="st7" points="328,241.5 324,244 178.8,229.6 173.4,222 			"/>
			<polygon class="st7" points="165.9,152.7 160.2,155.2 158.4,180 160,197.1 170.1,197.1 			"/>
			<polygon class="st5" points="328,241.5 158.4,223.5 166.3,191.4 164.9,179.1 165.9,152.7 335.5,170.7 			"/>
			
				<rect x="158.6" y="219.8" transform="matrix(0.9944 0.1055 -0.1055 0.9944 25.2252 -24.4654)" class="st8" width="170.5" height="12.7"/>
			<g>
				<polyline class="st9" points="174.4,158.6 174.9,192.8 167.9,219.6 				"/>
				<polyline class="st9" points="186,159.8 187.8,191.4 179.6,220.8 				"/>
				<polyline class="st9" points="197.7,161 199,193.9 191.2,222 				"/>
				<polyline class="st9" points="209.4,162.3 208.2,197.1 202.9,223.3 				"/>
				<line class="st9" x1="221" y1="163.5" x2="214.6" y2="224.5"/>
				<line class="st9" x1="232.7" y1="164.8" x2="226.2" y2="225.8"/>
				<line class="st9" x1="244.4" y1="166" x2="237.9" y2="227"/>
				<line class="st9" x1="256" y1="167.2" x2="249.6" y2="228.2"/>
				<line class="st9" x1="267.7" y1="168.5" x2="261.2" y2="229.5"/>
				<line class="st9" x1="279.4" y1="169.7" x2="272.9" y2="230.7"/>
				<line class="st9" x1="291" y1="170.9" x2="284.6" y2="231.9"/>
				<line class="st9" x1="302.7" y1="172.2" x2="296.2" y2="233.2"/>
				<line class="st9" x1="314.4" y1="173.4" x2="307.9" y2="234.4"/>
				<line class="st9" x1="326" y1="174.7" x2="319.6" y2="235.7"/>
			</g>
		</g>
	</g>
	<g>
		<line class="st6" x1="247.3" y1="84.7" x2="256.1" y2="0.4"/>
		<line class="st6" x1="270.6" y1="87.2" x2="279.3" y2="2.9"/>
		<g>
			<g>
				<polygon class="st10" points="274.2,96.9 257,101.3 241.9,93.5 242.8,84.3 275.2,87.8 				"/>
			</g>
		</g>
	</g>
</g>
<g>
	<g>
		<g>
			<path class="st4" d="M100.4,159.7c0.6,3.7-2,7.2-5.7,7.8c-3.7,0.6-7.2-2-7.8-5.7c-0.6-3.7,2-7.2,5.7-7.8l-2.3-15.1"/>
			<path class="st11" d="M89.2,151.4l5.8-0.9c0.6-0.1,1-0.6,0.9-1.2l-0.9-5.8c-0.1-0.6-0.6-1-1.2-0.9l-5.8,0.9
				c-0.6,0.1-1,0.6-0.9,1.2l0.9,5.8C88.1,151.1,88.6,151.5,89.2,151.4z"/>
			<polyline class="st6" points="147.1,193.9 94.4,166.1 52.2,208.3 			"/>
		</g>
		<g>
			<polygon class="st11" points="15.4,213.9 9.5,212.7 20.8,283.3 26.1,284.4 			"/>
			<polygon class="st11" points="9.5,212.7 154.2,189.1 161.8,190.5 166.3,189.1 173.4,189.6 181.9,189.3 180.2,193.5 17,219.6 			
				"/>
			<polygon class="st12" points="26.1,284.4 179.3,261.1 184,260.4 187.7,259.8 190,259.5 194.7,258.8 189.3,231.8 182.2,222 
				181.9,189.3 174.7,192.7 167.3,190.8 161.8,194.2 156.9,192.4 15.4,213.9 			"/>
			<g>
				<polyline class="st13" points="175.8,194.6 176,225.4 185,255.2 				"/>
				<polyline class="st13" points="164.2,196.3 164.2,227.6 173.4,257 				"/>
				<polyline class="st13" points="152.6,198.1 154.6,221.7 161.8,258.7 				"/>
				<line class="st13" x1="141" y1="199.8" x2="150.2" y2="260.5"/>
				<line class="st13" x1="129.4" y1="201.6" x2="138.6" y2="262.3"/>
				<line class="st13" x1="117.8" y1="203.4" x2="127" y2="264"/>
				<line class="st13" x1="106.2" y1="205.1" x2="115.4" y2="265.8"/>
				<line class="st13" x1="94.6" y1="206.9" x2="103.8" y2="267.5"/>
				<line class="st13" x1="83" y1="208.7" x2="92.2" y2="269.3"/>
				<line class="st13" x1="71.4" y1="210.4" x2="80.6" y2="271.1"/>
				<line class="st13" x1="59.8" y1="212.2" x2="69" y2="272.8"/>
				<line class="st13" x1="48.2" y1="214" x2="57.4" y2="274.6"/>
				<line class="st13" x1="36.6" y1="215.7" x2="45.8" y2="276.4"/>
				<line class="st13" x1="25" y1="217.5" x2="34.2" y2="278.1"/>
			</g>
			<polygon class="st14" points="26.1,284.4 194.7,258.8 191.9,244.8 23.8,269.3 			"/>
		</g>
	</g>
	<g>
		<line class="st6" x1="99.6" y1="124.1" x2="80.9" y2="0.4"/>
		<line class="st6" x1="76.4" y1="127.6" x2="57.7" y2="3.9"/>
		<g>
			<g>
				<polygon class="st10" points="73.2,137.5 90.7,141 105.4,132.6 104,123.5 71.9,128.4 				"/>
			</g>
		</g>
	</g>
</g>
</svg>
