<!-- Generator: Adobe Illustrator 24.2.3, SVG Export Plug-In  -->
<svg version="1.1" xmlns="http://www.w3.org/2000/svg" xmlns:xlink="http://www.w3.org/1999/xlink" x="0px" y="0px" width="352.1px"
	 height="268.2px" viewBox="0 0 352.1 268.2" style="overflow:visible;enable-background:new 0 0 352.1 268.2;"
	 xml:space="preserve">
<style type="text/css">
	.st0{fill:#F5F4EF;}
	.st1{fill:none;stroke:#000000;stroke-width:4.9581;stroke-linecap:round;stroke-miterlimit:10;}
	.st2{fill:#FFFFFF;}
	.st3{fill:#C91D42;}
	.st4{fill:#1F2E7A;}
	.st5{fill:#141F52;}
	.st6{fill:#082135;}
	.st7{fill:#475ED1;}
	.st8{fill:none;stroke:#141F52;stroke-width:0.4929;stroke-miterlimit:10;}
	.st9{fill:#141F52;stroke:#141F52;stroke-width:0.4929;stroke-miterlimit:10;}
</style>
<defs>
</defs>
<g>
	<g>
		<path class="st0" d="M0,112.3c8.7-13.1,31.2-13.8,45-10.9c3.6-21,32.7-30.5,34.8-3.6c7.3-3.6,16.7-4.4,19.6,4.4
			c9.4-2.9,18,3.3,25.2,9.8C83,112,0,112.3,0,112.3z"/>
	</g>
	<g>
		<path class="st0" d="M178.1,41.3c8.3-8.7,23.9-7,34.8-7.4l0,0c3-8.7,9.6-17,18.7-19.1c7-1.7,17.8-1.3,19.6,7.4
			c0,0-0.7-22.2,21.6-22.2c22.3,0,17.5,24.3,17.5,24.3c10.9-8.3,23.5-9.1,31.7,3c2.2,3,0.9,4.3,4.3,5.2c1.7,0.9,6.5-0.4,9.1,0
			c5.7,0.9,16.5,8.7,16.5,8.7H178.1z"/>
	</g>
	<g>
		<path class="st0" d="M168.5,58c-14-10.1-24-18.5-41.9-13.4c-2.2-20.7-23-20.2-37-7.3C96.8,6.5,53.6-9.8,31.8,7
			c-26.9,20.2-10,41.9,3.4,44.9c-6.7,0-12.2,3.2-12.1,6.1C73.5,58,168.5,58,168.5,58z"/>
	</g>
	<path class="st0" d="M322.1,116.7c-1.9-4.6-6.4-7.9-11.7-7.9c-1.8,0-3.6,0.4-5.1,1.1c1-2.3,1.6-4.9,1.6-7.5c0-10.5-8.5-19-19-19
		c-2,0-4,0.3-5.8,0.9c-5.6-7.8-14.8-12.9-25.2-12.9c-17.1,0-31.1,13.9-31.1,31.1c0,0.2,0,0.4,0,0.6c0,0,0,0,0,0
		c-7.1,0-12.8,5.7-12.8,12.8c0,0.3,0,0.6,0,0.9H322.1z"/>
</g>
<g>
	<path class="st1" d="M62.7,46.7c18.9,58,37.9,116,56.8,174"/>
	<g>
		<path id="_x35_9_2_" class="st2" d="M115.6,44.5c26.2-2.6,53.6-1.5,73.6-22.5c8.7,26,17.3,52.1,26,78.1
			c-20.1,20.7-47.6,19.2-73.9,21.6C132.8,95.9,124.2,70.2,115.6,44.5z"/>
		<path id="_x35_8_2_" class="st3" d="M115.6,44.5c26.2-2.6,53.6-1.5,73.6-22.5c0.7,2,1.3,4,2,6c-20,21-47.5,19.8-73.6,22.4
			C117,48.4,116.3,46.4,115.6,44.5z"/>
		<path id="_x35_7_2_" class="st3" d="M119.6,56.3c26.2-2.6,53.6-1.4,73.6-22.3c0.7,2,1.3,4,2,6c-20.1,20.9-47.5,19.7-73.7,22.3
			C120.9,60.3,120.3,58.3,119.6,56.3z"/>
		<path id="_x35_6_2_" class="st3" d="M123.5,68.2c26.2-2.5,53.6-1.3,73.7-22.2c0.7,2,1.3,4,2,6c-20.1,20.9-47.5,19.6-73.7,22.1
			C124.9,72.2,124.2,70.2,123.5,68.2z"/>
		<path id="_x35_5_2_" class="st3" d="M127.5,80.1c26.2-2.5,53.7-1.2,73.7-22.1c0.7,2,1.3,4,2,6c-20.1,20.8-47.6,19.5-73.8,22
			C128.8,84,128.2,82.1,127.5,80.1z"/>
		<path id="_x35_4_2_" class="st3" d="M131.5,92c26.2-2.4,53.7-1.1,73.8-21.9c0.7,2,1.3,4,2,6c-20.1,20.8-47.6,19.4-73.8,21.8
			C132.8,95.9,132.1,93.9,131.5,92z"/>
		<path id="_x35_3_2_" class="st3" d="M135.4,103.8c26.2-2.4,53.7-1,73.8-21.8c0.7,2,1.3,4,2,6c-20.1,20.7-47.6,19.3-73.9,21.7
			C136.7,107.8,136.1,105.8,135.4,103.8z"/>
		<path id="_x35_2_2_" class="st3" d="M139.4,115.7c26.2-2.4,53.8-0.9,73.9-21.6c0.7,2,1.3,4,2,6c-20.1,20.7-47.6,19.2-73.9,21.6
			C140.7,119.7,140,117.7,139.4,115.7z"/>
		<path d="M151.9,40.9c7,21.5,14.1,43.1,21.1,64.6c-9.4,6-19.4,10.5-29.1,15.5c-0.9,0.1-1.8,0.1-2.8,0.2
			C132.7,95.6,124.3,70,116,44.4C128,43.3,140.2,43,151.9,40.9z"/>
		<path d="M167.7,103.4c-8.7,6.5-17.8,11.9-26.6,17.9c-1.7-5.1-3.3-10.2-5-15.3C146.6,105,157.3,104.7,167.7,103.4z"/>
	</g>
	<g>
		<path id="_x35_9_1_" class="st2" d="M64.3,45.3c21.8-18.7,50.9-15.6,77.6-19.5c8.6,25.8,17.2,51.7,25.8,77.5
			c-26.8,3.6-56,0.2-77.9,18.6C81.3,96.4,72.8,70.9,64.3,45.3z"/>
		<path id="_x35_8_1_" class="st3" d="M64.3,45.3c21.8-18.7,50.9-15.6,77.6-19.5c0.7,2,1.3,4,2,6c-26.7,3.9-55.8,0.8-77.6,19.5
			C65.6,49.3,64.9,47.3,64.3,45.3z"/>
		<path id="_x35_7_1_" class="st3" d="M68.2,57.1c21.8-18.7,50.9-15.5,77.6-19.4c0.7,2,1.3,4,2,6C121.1,47.6,92,44.4,70.2,63
			C69.5,61,68.9,59.1,68.2,57.1z"/>
		<path id="_x35_6_1_" class="st3" d="M72.1,68.9c21.8-18.6,50.9-15.4,77.7-19.2c0.7,2,1.3,4,2,6c-26.8,3.8-55.9,0.6-77.7,19.2
			C73.4,72.8,72.8,70.9,72.1,68.9z"/>
		<path id="_x35_5_1_" class="st3" d="M76.1,80.7c21.8-18.6,51-15.3,77.7-19.1c0.7,2,1.3,4,2,6C129,71.3,99.9,68,78,86.6
			C77.4,84.6,76.7,82.6,76.1,80.7z"/>
		<path id="_x35_4_1_" class="st3" d="M80,92.5c21.9-18.5,51-15.2,77.8-18.9c0.7,2,1.3,4,2,6c-26.8,3.7-55.9,0.4-77.8,18.9
			C81.3,96.4,80.6,94.4,80,92.5z"/>
		<path id="_x35_3_1_" class="st3" d="M83.9,104.2c21.9-18.5,51-15.1,77.8-18.8c0.7,2,1.3,4,2,6c-26.8,3.7-56,0.3-77.9,18.7
			C85.2,108.2,84.6,106.2,83.9,104.2z"/>
		<path id="_x35_2_1_" class="st3" d="M87.8,116c21.9-18.4,51.1-15,77.9-18.7c0.7,2,1.3,4,2,6c-26.8,3.6-56,0.2-77.9,18.6
			C89.1,120,88.5,118,87.8,116z"/>
		<path id="_x35_1_1_" class="st4" d="M64.3,45.3c16.9-14.5,38.2-15.9,59.4-17.6c4.6,13.9,9.2,27.8,13.9,41.6
			C116.3,71,95,72.2,78,86.6C73.4,72.8,68.9,59.1,64.3,45.3z"/>
		<path id="_x35_0_1_" class="st2" d="M67.8,46.7c0.5,0,1.1,0,1.6,0.1c0,0.7,0,1.3,0.1,2c0.3-0.6,0.6-1.3,0.9-1.9
			c0.5,0,1.1,0.1,1.6,0.1c-0.3-0.4-0.7-0.9-1-1.3c0.3-0.6,0.6-1.2,0.9-1.8c-0.5,0.3-1.1,0.7-1.6,1c-0.3-0.4-0.7-0.9-1-1.3
			c0,0.7,0,1.3,0.1,2C68.8,45.9,68.3,46.3,67.8,46.7z"/>
		<path id="_x34_9_1_" class="st2" d="M76.7,41.1c0.6,0.1,1.1,0.2,1.7,0.3c0,0.6,0,1.3,0,1.9c0.3-0.6,0.7-1.1,1-1.7
			c0.6,0.1,1.1,0.3,1.7,0.4c-0.4-0.5-0.7-0.9-1.1-1.4c0.3-0.5,0.7-1.1,1-1.6c-0.6,0.2-1.1,0.5-1.7,0.7c-0.4-0.5-0.7-0.9-1.1-1.4
			c0,0.6,0,1.2,0,1.9C77.8,40.5,77.3,40.8,76.7,41.1z"/>
		<path id="_x34_8_1_" class="st2" d="M86.3,37.1c0.6,0.2,1.2,0.4,1.7,0.6c0,0.6,0,1.2,0,1.8c0.4-0.5,0.7-1,1.1-1.4
			c0.6,0.2,1.2,0.4,1.8,0.6c-0.4-0.5-0.7-1-1.1-1.5c0.4-0.5,0.7-0.9,1.1-1.4c-0.6,0.2-1.2,0.3-1.8,0.5c-0.4-0.5-0.7-1-1.1-1.5
			c0,0.6,0,1.2,0,1.8C87.4,36.7,86.8,36.9,86.3,37.1z"/>
		<path id="_x34_7_1_" class="st2" d="M96.2,34.5c0.6,0.2,1.2,0.5,1.8,0.7c0,0.6,0,1.2,0,1.7c0.4-0.4,0.7-0.9,1.1-1.3
			c0.6,0.2,1.2,0.5,1.8,0.8c-0.4-0.5-0.7-1-1.1-1.5c0.4-0.4,0.8-0.8,1.1-1.3c-0.6,0.1-1.2,0.2-1.8,0.3c-0.4-0.5-0.7-1-1.1-1.5
			c0,0.6,0,1.2,0,1.7C97.4,34.3,96.8,34.4,96.2,34.5z"/>
		<path id="_x34_6_1_" class="st2" d="M106.5,32.8c0.6,0.3,1.2,0.6,1.8,0.8c0,0.6,0,1.1,0,1.7c0.4-0.4,0.8-0.8,1.2-1.2
			c0.6,0.3,1.2,0.6,1.8,0.8c-0.4-0.5-0.7-1.1-1.1-1.6c0.4-0.4,0.8-0.8,1.2-1.2c-0.6,0.1-1.2,0.1-1.9,0.2c-0.4-0.5-0.7-1.1-1.1-1.6
			c0,0.6,0,1.1,0,1.7C107.7,32.7,107.1,32.8,106.5,32.8z"/>
		<path id="_x34_5_1_" class="st2" d="M116.9,31.7c0.6,0.3,1.2,0.6,1.9,0.9c0,0.6,0,1.1,0,1.7c0.4-0.4,0.8-0.8,1.2-1.1
			c0.6,0.3,1.2,0.6,1.9,0.9c-0.4-0.5-0.7-1.1-1.1-1.6c0.4-0.4,0.8-0.8,1.2-1.1c-0.6,0.1-1.2,0.1-1.9,0.2c-0.4-0.5-0.8-1.1-1.1-1.6
			c0,0.6,0,1.1,0,1.7C118.2,31.6,117.5,31.7,116.9,31.7z"/>
		<path id="_x34_4_1_" class="st2" d="M73.6,47.8c0.5,0.1,1.1,0.1,1.6,0.2c0,0.6,0,1.3,0,1.9c0.3-0.6,0.6-1.2,1-1.8
			c0.5,0.1,1.1,0.2,1.6,0.3c-0.3-0.5-0.7-0.9-1-1.4c0.3-0.6,0.7-1.1,1-1.7c-0.5,0.3-1.1,0.6-1.6,0.9c-0.3-0.5-0.7-0.9-1-1.4
			c0,0.6,0,1.3,0,1.9C74.6,47.1,74.1,47.5,73.6,47.8z"/>
		<path id="_x34_3_1_" class="st2" d="M82.8,43.1c0.6,0.1,1.1,0.3,1.7,0.5c0,0.6,0,1.2,0,1.8c0.3-0.5,0.7-1,1-1.5
			c0.6,0.2,1.1,0.3,1.7,0.5c-0.4-0.5-0.7-1-1.1-1.4c0.4-0.5,0.7-1,1.1-1.5c-0.6,0.2-1.1,0.4-1.7,0.6c-0.4-0.5-0.7-1-1.1-1.4
			c0,0.6,0,1.2,0,1.8C83.9,42.6,83.4,42.8,82.8,43.1z"/>
		<path id="_x34_2_1_" class="st2" d="M92.6,39.8c0.6,0.2,1.2,0.4,1.8,0.7c0,0.6,0,1.2,0,1.8c0.4-0.5,0.7-0.9,1.1-1.4
			c0.6,0.2,1.2,0.5,1.8,0.7c-0.4-0.5-0.7-1-1.1-1.5c0.4-0.4,0.7-0.9,1.1-1.3c-0.6,0.1-1.2,0.3-1.8,0.4c-0.4-0.5-0.7-1-1.1-1.5
			c0,0.6,0,1.2,0,1.8C93.7,39.5,93.2,39.7,92.6,39.8z"/>
		<path id="_x34_1_1_" class="st2" d="M102.7,37.7c0.6,0.3,1.2,0.5,1.8,0.8c0,0.6,0,1.1,0,1.7c0.4-0.4,0.8-0.8,1.1-1.2
			c0.6,0.3,1.2,0.5,1.8,0.8c-0.4-0.5-0.7-1-1.1-1.6c0.4-0.4,0.8-0.8,1.2-1.2c-0.6,0.1-1.2,0.2-1.8,0.2c-0.4-0.5-0.7-1-1.1-1.6
			c0,0.6,0,1.1,0,1.7C103.9,37.5,103.3,37.6,102.7,37.7z"/>
		<path id="_x34_0_1_" class="st2" d="M113.1,36.4c0.6,0.3,1.2,0.6,1.8,0.9c0,0.6,0,1.1,0,1.7c0.4-0.4,0.8-0.8,1.2-1.2
			c0.6,0.3,1.2,0.6,1.8,0.9c-0.4-0.5-0.7-1.1-1.1-1.6c0.4-0.4,0.8-0.8,1.2-1.1c-0.6,0.1-1.2,0.1-1.9,0.2c-0.4-0.5-0.7-1.1-1.1-1.6
			c0,0.6,0,1.1,0,1.7C114.3,36.3,113.7,36.3,113.1,36.4z"/>
		<path id="_x33_9_1_" class="st2" d="M70.6,55c0.5,0,1.1,0,1.6,0.1c0,0.7,0,1.3,0.1,2c0.3-0.6,0.6-1.3,0.9-1.9
			c0.5,0,1.1,0.1,1.6,0.1c-0.3-0.4-0.7-0.9-1-1.3c0.3-0.6,0.6-1.2,0.9-1.8c-0.5,0.3-1.1,0.7-1.6,1c-0.3-0.4-0.7-0.9-1-1.3
			c0,0.7,0,1.3,0.1,2C71.6,54.2,71.1,54.6,70.6,55z"/>
		<path id="_x33_8_1_" class="st2" d="M79.5,49.4c0.6,0.1,1.1,0.2,1.7,0.3c0,0.6,0,1.3,0,1.9c0.3-0.6,0.7-1.1,1-1.6
			c0.6,0.1,1.1,0.3,1.7,0.4c-0.4-0.5-0.7-0.9-1.1-1.4c0.3-0.5,0.7-1.1,1-1.6c-0.6,0.2-1.1,0.5-1.7,0.7c-0.4-0.5-0.7-0.9-1.1-1.4
			c0,0.6,0,1.2,0,1.9C80.6,48.8,80.1,49.1,79.5,49.4z"/>
		<path id="_x33_7_1_" class="st2" d="M89,45.4c0.6,0.2,1.2,0.4,1.7,0.6c0,0.6,0,1.2,0,1.8c0.4-0.5,0.7-1,1.1-1.4
			c0.6,0.2,1.2,0.4,1.8,0.6c-0.4-0.5-0.7-1-1.1-1.5c0.4-0.5,0.7-0.9,1.1-1.4c-0.6,0.2-1.2,0.3-1.8,0.5c-0.4-0.5-0.7-1-1.1-1.5
			c0,0.6,0,1.2,0,1.8C90.2,45.1,89.6,45.2,89,45.4z"/>
		<path id="_x33_6_1_" class="st2" d="M99,42.8c0.6,0.2,1.2,0.5,1.8,0.7c0,0.6,0,1.2,0,1.7c0.4-0.4,0.7-0.9,1.1-1.3
			c0.6,0.2,1.2,0.5,1.8,0.8c-0.4-0.5-0.7-1-1.1-1.5c0.4-0.4,0.8-0.8,1.1-1.3c-0.6,0.1-1.2,0.2-1.8,0.3c-0.4-0.5-0.7-1-1.1-1.5
			c0,0.6,0,1.2,0,1.7C100.2,42.6,99.6,42.7,99,42.8z"/>
		<path id="_x33_5_1_" class="st2" d="M109.2,41.2c0.6,0.3,1.2,0.6,1.8,0.8c0,0.6,0,1.1,0,1.7c0.4-0.4,0.8-0.8,1.2-1.2
			c0.6,0.3,1.2,0.6,1.8,0.9c-0.4-0.5-0.7-1.1-1.1-1.6c0.4-0.4,0.8-0.8,1.2-1.2c-0.6,0.1-1.2,0.1-1.9,0.2c-0.4-0.5-0.7-1.1-1.1-1.6
			c0,0.6,0,1.1,0,1.7C110.5,41,109.9,41.1,109.2,41.2z"/>
		<path id="_x33_4_1_" class="st2" d="M119.7,40.1c0.6,0.3,1.2,0.6,1.9,0.9c0,0.6,0,1.1,0,1.7c0.4-0.4,0.8-0.8,1.2-1.1
			c0.6,0.3,1.2,0.6,1.9,0.9c-0.4-0.5-0.7-1.1-1.1-1.6c0.4-0.4,0.8-0.8,1.2-1.1c-0.6,0-1.2,0.1-1.9,0.2c-0.4-0.5-0.8-1.1-1.1-1.6
			c0,0.6,0,1.1,0,1.7C120.9,40,120.3,40,119.7,40.1z"/>
		<path id="_x33_3_1_" class="st2" d="M76.5,56c0.5,0.1,1.1,0.1,1.6,0.2c0,0.6,0,1.3,0,1.9c0.3-0.6,0.6-1.2,1-1.8
			c0.5,0.1,1.1,0.2,1.7,0.3c-0.3-0.5-0.7-0.9-1-1.4c0.3-0.6,0.7-1.1,1-1.7c-0.5,0.3-1.1,0.6-1.6,0.9c-0.3-0.5-0.7-0.9-1-1.4
			c0,0.6,0,1.3,0,1.9C77.5,55.4,77,55.7,76.5,56z"/>
		<path id="_x33_2_1_" class="st2" d="M85.7,51.3c0.6,0.2,1.1,0.3,1.7,0.5c0,0.6,0,1.2,0,1.8c0.3-0.5,0.7-1,1-1.5
			c0.6,0.2,1.1,0.3,1.7,0.5c-0.4-0.5-0.7-1-1.1-1.5c0.4-0.5,0.7-1,1.1-1.5c-0.6,0.2-1.2,0.4-1.7,0.6c-0.4-0.5-0.7-1-1.1-1.4
			c0,0.6,0,1.2,0,1.8C86.8,50.9,86.3,51.1,85.7,51.3z"/>
		<path id="_x33_1_1_" class="st2" d="M95.5,48.1c0.6,0.2,1.2,0.4,1.8,0.7c0,0.6,0,1.2,0,1.8c0.4-0.5,0.7-0.9,1.1-1.4
			c0.6,0.2,1.2,0.5,1.8,0.7c-0.4-0.5-0.7-1-1.1-1.5c0.4-0.4,0.7-0.9,1.1-1.3c-0.6,0.1-1.2,0.3-1.8,0.4c-0.4-0.5-0.7-1-1.1-1.5
			c0,0.6,0,1.2,0,1.8C96.6,47.8,96,48,95.5,48.1z"/>
		<path id="_x33_0_1_" class="st2" d="M105.6,46c0.6,0.3,1.2,0.5,1.8,0.8c0,0.6,0,1.1,0,1.7c0.4-0.4,0.8-0.8,1.1-1.2
			c0.6,0.3,1.2,0.5,1.8,0.8c-0.4-0.5-0.7-1-1.1-1.6c0.4-0.4,0.8-0.8,1.2-1.2c-0.6,0.1-1.2,0.2-1.8,0.2c-0.4-0.5-0.7-1-1.1-1.6
			c0,0.6,0,1.1,0,1.7C106.8,45.9,106.2,45.9,105.6,46z"/>
		<path id="_x32_9_1_" class="st2" d="M116,44.7c0.6,0.3,1.2,0.6,1.8,0.9c0,0.6,0,1.1,0,1.7c0.4-0.4,0.8-0.8,1.2-1.2
			c0.6,0.3,1.2,0.6,1.8,0.9c-0.4-0.5-0.8-1.1-1.1-1.6c0.4-0.4,0.8-0.8,1.2-1.1c-0.6,0.1-1.2,0.1-1.9,0.2c-0.4-0.5-0.7-1.1-1.1-1.6
			c0,0.6,0,1.1,0,1.7C117.2,44.6,116.6,44.7,116,44.7z"/>
		<path id="_x32_8_1_" class="st2" d="M73.4,63.1c0.5,0,1.1,0.1,1.6,0.1c0,0.7,0,1.3,0.1,2c0.3-0.6,0.6-1.3,0.9-1.9
			c0.5,0,1.1,0.1,1.6,0.2c-0.3-0.4-0.7-0.9-1-1.3c0.3-0.6,0.6-1.2,0.9-1.8c-0.5,0.3-1.1,0.7-1.6,1c-0.3-0.4-0.7-0.9-1-1.3
			c0,0.7,0,1.3,0.1,2C74.5,62.4,74,62.8,73.4,63.1z"/>
		<path id="_x32_7_1_" class="st2" d="M82.4,57.6c0.6,0.1,1.1,0.2,1.7,0.4c0,0.6,0,1.3,0,1.9c0.3-0.6,0.7-1.1,1-1.6
			c0.6,0.1,1.1,0.3,1.7,0.4c-0.4-0.5-0.7-0.9-1.1-1.4c0.3-0.5,0.7-1.1,1-1.6c-0.6,0.2-1.1,0.5-1.7,0.7c-0.4-0.5-0.7-0.9-1.1-1.4
			c0,0.6,0,1.2,0,1.9C83.5,57,83,57.3,82.4,57.6z"/>
		<path id="_x32_6_1_" class="st2" d="M91.9,53.7c0.6,0.2,1.2,0.4,1.7,0.6c0,0.6,0,1.2,0,1.8c0.4-0.5,0.7-1,1.1-1.4
			c0.6,0.2,1.2,0.4,1.8,0.6c-0.4-0.5-0.7-1-1.1-1.5c0.4-0.5,0.7-0.9,1.1-1.4c-0.6,0.2-1.2,0.3-1.8,0.5c-0.4-0.5-0.7-1-1.1-1.5
			c0,0.6,0,1.2,0,1.8C93.1,53.3,92.5,53.5,91.9,53.7z"/>
		<path id="_x32_5_1_" class="st2" d="M101.9,51.1c0.6,0.2,1.2,0.5,1.8,0.7c0,0.6,0,1.2,0,1.7c0.4-0.4,0.7-0.9,1.1-1.3
			c0.6,0.2,1.2,0.5,1.8,0.8c-0.4-0.5-0.7-1-1.1-1.5c0.4-0.4,0.8-0.8,1.1-1.3c-0.6,0.1-1.2,0.2-1.8,0.3c-0.4-0.5-0.7-1-1.1-1.5
			c0,0.6,0,1.2,0,1.7C103.1,50.8,102.5,51,101.9,51.1z"/>
		<path id="_x32_4_1_" class="st2" d="M112.2,49.4c0.6,0.3,1.2,0.6,1.8,0.8c0,0.6,0,1.1,0,1.7c0.4-0.4,0.8-0.8,1.2-1.2
			c0.6,0.3,1.2,0.6,1.8,0.9c-0.4-0.5-0.7-1.1-1.1-1.6c0.4-0.4,0.8-0.8,1.2-1.2c-0.6,0.1-1.2,0.1-1.9,0.2c-0.4-0.5-0.7-1.1-1.1-1.6
			c0,0.6,0,1.1,0,1.7C113.4,49.3,112.8,49.4,112.2,49.4z"/>
		<path id="_x32_3_1_" class="st2" d="M122.6,48.4c0.6,0.3,1.2,0.6,1.9,0.9c0,0.6,0,1.1,0,1.7c0.4-0.4,0.8-0.8,1.2-1.1
			c0.6,0.3,1.2,0.6,1.9,0.9c-0.4-0.5-0.8-1.1-1.1-1.6c0.4-0.4,0.8-0.8,1.2-1.1c-0.6,0-1.2,0.1-1.9,0.1c-0.4-0.5-0.8-1.1-1.1-1.6
			c0,0.6,0,1.1,0,1.7C123.9,48.3,123.3,48.3,122.6,48.4z"/>
		<path id="_x32_2_1_" class="st2" d="M76.2,71.2c0.5,0,1.1,0.1,1.6,0.1c0,0.7,0,1.3,0.1,2c0.3-0.6,0.6-1.3,0.9-1.9
			c0.5,0,1.1,0.1,1.6,0.2c-0.3-0.4-0.7-0.9-1-1.3c0.3-0.6,0.6-1.2,0.9-1.8c-0.5,0.3-1.1,0.7-1.6,1c-0.3-0.4-0.7-0.9-1-1.3
			c0,0.7,0,1.3,0.1,2C77.3,70.5,76.8,70.8,76.2,71.2z"/>
		<path id="_x32_1_1_" class="st2" d="M85.2,65.7c0.6,0.1,1.1,0.2,1.7,0.4c0,0.6,0,1.3,0,1.9c0.3-0.6,0.7-1.1,1-1.6
			c0.6,0.1,1.1,0.3,1.7,0.4c-0.4-0.5-0.7-0.9-1.1-1.4c0.3-0.5,0.7-1.1,1-1.6c-0.6,0.2-1.1,0.5-1.7,0.7c-0.4-0.5-0.7-0.9-1.1-1.4
			c0,0.6,0,1.2,0,1.9C86.3,65.1,85.8,65.4,85.2,65.7z"/>
		<path id="_x32_0_1_" class="st2" d="M94.7,61.8c0.6,0.2,1.2,0.4,1.7,0.6c0,0.6,0,1.2,0,1.8c0.4-0.5,0.7-1,1.1-1.4
			c0.6,0.2,1.2,0.4,1.8,0.6c-0.4-0.5-0.7-1-1.1-1.5c0.4-0.5,0.7-0.9,1.1-1.4c-0.6,0.2-1.2,0.3-1.8,0.5c-0.4-0.5-0.7-1-1.1-1.5
			c0,0.6,0,1.2,0,1.8C95.9,61.4,95.3,61.6,94.7,61.8z"/>
		<path id="_x31_9_1_" class="st2" d="M104.7,59.2c0.6,0.2,1.2,0.5,1.8,0.7c0,0.6,0,1.2,0,1.7c0.4-0.4,0.8-0.9,1.1-1.3
			c0.6,0.3,1.2,0.5,1.8,0.8c-0.4-0.5-0.7-1-1.1-1.5c0.4-0.4,0.8-0.8,1.1-1.3c-0.6,0.1-1.2,0.2-1.8,0.3c-0.4-0.5-0.7-1-1.1-1.5
			c0,0.6,0,1.2,0,1.7C105.9,59,105.3,59.1,104.7,59.2z"/>
		<path id="_x31_8_1_" class="st2" d="M115,57.6c0.6,0.3,1.2,0.6,1.8,0.8c0,0.6,0,1.1,0,1.7c0.4-0.4,0.8-0.8,1.2-1.2
			c0.6,0.3,1.2,0.6,1.8,0.9c-0.4-0.5-0.7-1.1-1.1-1.6c0.4-0.4,0.8-0.8,1.2-1.2c-0.6,0.1-1.2,0.1-1.9,0.2c-0.4-0.5-0.7-1.1-1.1-1.6
			c0,0.6,0,1.1,0,1.7C116.2,57.5,115.6,57.6,115,57.6z"/>
		<path id="_x31_7_1_" class="st2" d="M125.5,56.6c0.6,0.3,1.2,0.6,1.9,0.9c0,0.6,0,1.1,0,1.7c0.4-0.4,0.8-0.8,1.2-1.1
			c0.6,0.3,1.2,0.6,1.9,0.9c-0.4-0.5-0.8-1.1-1.1-1.6c0.4-0.4,0.8-0.8,1.2-1.1c-0.6,0-1.2,0.1-1.9,0.1c-0.4-0.5-0.8-1.1-1.1-1.6
			c0,0.6,0,1.1,0,1.7C126.7,56.5,126.1,56.5,125.5,56.6z"/>
		<path id="_x31_6_1_" class="st2" d="M78.9,79.6c0.5,0,1.1,0.1,1.6,0.1c0,0.7,0,1.3,0.1,2c0.3-0.6,0.6-1.3,0.9-1.9
			c0.5,0,1.1,0.1,1.6,0.2c-0.3-0.4-0.7-0.9-1-1.3c0.3-0.6,0.6-1.2,0.9-1.8c-0.5,0.3-1.1,0.7-1.6,1c-0.3-0.4-0.7-0.9-1-1.3
			c0,0.7,0,1.3,0.1,2C79.9,78.8,79.4,79.2,78.9,79.6z"/>
		<path id="_x31_5_1_" class="st2" d="M87.8,74c0.6,0.1,1.1,0.2,1.7,0.4c0,0.6,0,1.3,0,1.9c0.3-0.6,0.7-1.1,1-1.6
			c0.6,0.1,1.1,0.3,1.7,0.4c-0.4-0.5-0.7-0.9-1.1-1.4c0.3-0.5,0.7-1.1,1-1.6c-0.6,0.2-1.1,0.5-1.7,0.7c-0.4-0.5-0.7-0.9-1.1-1.4
			c0,0.6,0,1.2,0,1.9C88.9,73.4,88.4,73.7,87.8,74z"/>
		<path id="_x31_4_1_" class="st2" d="M97.4,70.1c0.6,0.2,1.2,0.4,1.7,0.6c0,0.6,0,1.2,0,1.8c0.4-0.5,0.7-1,1.1-1.4
			c0.6,0.2,1.2,0.4,1.8,0.6c-0.4-0.5-0.7-1-1.1-1.5c0.4-0.5,0.7-0.9,1.1-1.4c-0.6,0.2-1.2,0.3-1.8,0.5c-0.4-0.5-0.7-1-1.1-1.5
			c0,0.6,0,1.2,0,1.8C98.5,69.7,98,69.9,97.4,70.1z"/>
		<path id="_x31_3_1_" class="st2" d="M107.3,67.5c0.6,0.2,1.2,0.5,1.8,0.7c0,0.6,0,1.2,0,1.7c0.4-0.4,0.8-0.9,1.1-1.3
			c0.6,0.3,1.2,0.5,1.8,0.8c-0.4-0.5-0.7-1-1.1-1.5c0.4-0.4,0.8-0.8,1.1-1.3c-0.6,0.1-1.2,0.2-1.8,0.3c-0.4-0.5-0.7-1-1.1-1.5
			c0,0.6,0,1.2,0,1.7C108.5,67.3,107.9,67.4,107.3,67.5z"/>
		<path id="_x31_2_1_" class="st2" d="M117.6,65.9c0.6,0.3,1.2,0.6,1.8,0.8c0,0.6,0,1.1,0,1.7c0.4-0.4,0.8-0.8,1.2-1.2
			c0.6,0.3,1.2,0.6,1.8,0.9c-0.4-0.5-0.7-1.1-1.1-1.6c0.4-0.4,0.8-0.8,1.2-1.2c-0.6,0.1-1.2,0.1-1.9,0.2c-0.4-0.5-0.7-1.1-1.1-1.6
			c0,0.6,0,1.1,0,1.7C118.9,65.8,118.2,65.9,117.6,65.9z"/>
		<path id="_x31_1_1_" class="st2" d="M128.1,64.9c0.6,0.3,1.2,0.6,1.9,0.9c0,0.6,0,1.1,0,1.7c0.4-0.4,0.8-0.8,1.2-1.1
			c0.6,0.3,1.2,0.6,1.9,0.9c-0.4-0.5-0.8-1.1-1.1-1.6c0.4-0.4,0.8-0.8,1.2-1.1c-0.6,0-1.2,0.1-1.9,0.1c-0.4-0.5-0.8-1.1-1.1-1.6
			c0,0.6,0,1.1,0,1.7C129.4,64.8,128.7,64.9,128.1,64.9z"/>
		<path id="_x31_0_1_" class="st2" d="M79.2,64.2c0.5,0.1,1.1,0.1,1.6,0.2c0,0.6,0,1.3,0,1.9c0.3-0.6,0.6-1.2,1-1.8
			c0.5,0.1,1.1,0.2,1.7,0.3c-0.3-0.5-0.7-0.9-1-1.4c0.3-0.6,0.7-1.1,1-1.7c-0.5,0.3-1.1,0.6-1.6,0.9c-0.3-0.5-0.7-0.9-1-1.4
			c0,0.6,0,1.3,0,1.9C80.3,63.5,79.7,63.8,79.2,64.2z"/>
		<path id="_x39__1_" class="st2" d="M88.4,59.5c0.6,0.2,1.1,0.3,1.7,0.5c0,0.6,0,1.2,0,1.8c0.3-0.5,0.7-1,1-1.5
			c0.6,0.2,1.1,0.3,1.7,0.5c-0.4-0.5-0.7-1-1.1-1.5c0.4-0.5,0.7-1,1.1-1.5c-0.6,0.2-1.2,0.4-1.7,0.6c-0.4-0.5-0.7-1-1.1-1.4
			c0,0.6,0,1.2,0,1.8C89.6,59,89,59.2,88.4,59.5z"/>
		<path id="_x38__1_" class="st2" d="M98.2,56.3c0.6,0.2,1.2,0.4,1.8,0.7c0,0.6,0,1.2,0,1.8c0.4-0.5,0.7-0.9,1.1-1.4
			c0.6,0.2,1.2,0.5,1.8,0.7c-0.4-0.5-0.7-1-1.1-1.5c0.4-0.4,0.7-0.9,1.1-1.3c-0.6,0.1-1.2,0.3-1.8,0.4c-0.4-0.5-0.7-1-1.1-1.5
			c0,0.6,0,1.2,0,1.8C99.4,56,98.8,56.1,98.2,56.3z"/>
		<path id="_x37__1_" class="st2" d="M108.3,54.2c0.6,0.3,1.2,0.5,1.8,0.8c0,0.6,0,1.1,0,1.7c0.4-0.4,0.8-0.8,1.1-1.2
			c0.6,0.3,1.2,0.5,1.8,0.8c-0.4-0.5-0.7-1-1.1-1.6c0.4-0.4,0.8-0.8,1.2-1.2c-0.6,0.1-1.2,0.2-1.8,0.2c-0.4-0.5-0.7-1-1.1-1.6
			c0,0.6,0,1.1,0,1.7C109.6,54,109,54.1,108.3,54.2z"/>
		<path id="_x36__1_" class="st2" d="M118.7,52.9c0.6,0.3,1.2,0.6,1.8,0.9c0,0.6,0,1.1,0,1.7c0.4-0.4,0.8-0.8,1.2-1.2
			c0.6,0.3,1.2,0.6,1.8,0.9c-0.4-0.5-0.7-1.1-1.1-1.6c0.4-0.4,0.8-0.8,1.2-1.1c-0.6,0.1-1.2,0.1-1.9,0.2c-0.4-0.5-0.7-1.1-1.1-1.6
			c0,0.6,0,1.1,0,1.7C120,52.8,119.4,52.9,118.7,52.9z"/>
		<path id="_x35__1_" class="st2" d="M81.9,72.4c0.5,0.1,1.1,0.1,1.6,0.2c0,0.6,0,1.3,0,1.9c0.3-0.6,0.6-1.2,1-1.8
			c0.5,0.1,1.1,0.2,1.7,0.3c-0.3-0.5-0.7-0.9-1-1.4c0.3-0.6,0.7-1.1,1-1.7c-0.5,0.3-1.1,0.6-1.6,0.9c-0.3-0.5-0.7-0.9-1-1.4
			c0,0.6,0,1.3,0,1.9C83,71.8,82.4,72.1,81.9,72.4z"/>
		<path id="_x34__1_" class="st2" d="M91.2,67.7c0.6,0.2,1.1,0.3,1.7,0.5c0,0.6,0,1.2,0,1.8c0.3-0.5,0.7-1,1-1.5
			c0.6,0.2,1.1,0.3,1.7,0.5c-0.4-0.5-0.7-1-1.1-1.5c0.4-0.5,0.7-1,1.1-1.5c-0.6,0.2-1.2,0.4-1.7,0.6c-0.4-0.5-0.7-1-1.1-1.4
			c0,0.6,0,1.2,0,1.8C92.3,67.3,91.7,67.5,91.2,67.7z"/>
		<path id="_x33__1_" class="st2" d="M100.9,64.5c0.6,0.2,1.2,0.4,1.8,0.7c0,0.6,0,1.2,0,1.8c0.4-0.5,0.7-0.9,1.1-1.4
			c0.6,0.2,1.2,0.5,1.8,0.7c-0.4-0.5-0.7-1-1.1-1.5c0.4-0.4,0.7-0.9,1.1-1.3c-0.6,0.1-1.2,0.2-1.8,0.4c-0.4-0.5-0.7-1-1.1-1.5
			c0,0.6,0,1.2,0,1.8C102.1,64.2,101.5,64.4,100.9,64.5z"/>
		<path id="_x32__1_" class="st2" d="M111.1,62.5c0.6,0.3,1.2,0.5,1.8,0.8c0,0.6,0,1.1,0,1.7c0.4-0.4,0.8-0.8,1.1-1.2
			c0.6,0.3,1.2,0.5,1.8,0.8c-0.4-0.5-0.7-1-1.1-1.6c0.4-0.4,0.8-0.8,1.2-1.2c-0.6,0.1-1.2,0.2-1.8,0.2c-0.4-0.5-0.7-1-1.1-1.6
			c0,0.6,0,1.1,0,1.7C112.3,62.3,111.7,62.4,111.1,62.5z"/>
		<path id="_x31__1_" class="st2" d="M121.5,61.2c0.6,0.3,1.2,0.6,1.8,0.9c0,0.6,0,1.1,0,1.7c0.4-0.4,0.8-0.8,1.2-1.2
			c0.6,0.3,1.2,0.6,1.9,0.9c-0.4-0.5-0.8-1.1-1.1-1.6c0.4-0.4,0.8-0.8,1.2-1.1c-0.6,0.1-1.2,0.1-1.9,0.2c-0.4-0.5-0.8-1.1-1.1-1.6
			c0,0.6,0,1.1,0,1.7C122.7,61.1,122.1,61.2,121.5,61.2z"/>
	</g>
</g>
<g>
	<path class="st4" d="M314.4,219.8V146l7.4-3v-9.9L272,93.6l-23.9,13.5l-37.3-24.9l-98.1,42v10.1l9.3,2.3v60.8l-35.8,7.4v1.8
		l-1.2,0.2l-12.1-1.5L30,214.2v3.8v16.2l-4.2,0.5v3.5v15.3v9.6v5.2h223.9h74V263v-3.7V255v-25.8v-8L314.4,219.8z"/>
	<polygon class="st5" points="211.4,93 211.4,218 249.5,214.5 248.5,109.7 	"/>
	<polygon class="st4" points="249.7,268.2 25.8,268.2 25.8,263 249.7,256.9 	"/>
	<polygon class="st5" points="72.9,205.3 30,214.2 30,218 72.9,210 	"/>
	<polygon class="st4" points="84.9,206.9 84.9,230.3 124.7,226 124.7,199.2 	"/>
	<polygon class="st5" points="122,197.4 86.2,204.8 86.2,208.6 122,202 	"/>
	<rect x="72.9" y="208.5" class="st5" width="15" height="22.8"/>
	<polygon class="st6" points="72.9,205.3 87.9,207.3 87.9,211.7 72.9,210 	"/>
	<polygon class="st4" points="30,218 30,234.2 72.9,229.5 72.9,210 	"/>
	<polygon class="st5" points="249.7,253.4 25.8,253.4 25.8,234.6 249.7,210 	"/>
	<polygon class="st4" points="249.7,256.9 25.8,263 25.8,238.1 249.7,218 	"/>
	<polygon class="st5" points="266.2,215.4 314.4,224.1 314.4,133.5 266.2,101.2 	"/>
	<polygon class="st4" points="272,210 248.5,206.5 248.5,112.6 272,102.3 	"/>
	<g>
		<polygon class="st7" points="272,129.7 249.9,139.2 249.9,128.3 272,117.5 		"/>
		<polygon class="st4" points="281.9,135.6 272,129.7 272,117.5 281.9,123.4 		"/>
	</g>
	<g>
		<polygon class="st7" points="272,150.1 249.9,158.1 249.9,146.7 272,137.9 		"/>
		<polygon class="st4" points="281.9,156 272,150.1 272,137.9 281.9,143.8 		"/>
	</g>
	<g>
		<polygon class="st7" points="272,171 249.9,177.6 249.9,166.1 272,158.8 		"/>
		<polygon class="st4" points="281.9,176.9 272,171 272,158.8 281.9,164.6 		"/>
	</g>
	<g>
		<polygon class="st7" points="272,193 249.9,197.3 249.9,186 272,180.7 		"/>
		<polygon class="st4" points="281.9,198.9 272,193 272,180.7 281.9,186.6 		"/>
	</g>
	<polygon class="st6" points="323.7,255 249.7,255 249.7,210 323.7,221.2 	"/>
	<polygon class="st5" points="323.7,263 249.7,263 249.7,218 323.7,229.2 	"/>
	<polygon class="st5" points="323.7,268.2 249.7,268.2 249.7,256.9 323.7,259.2 	"/>
	<polygon class="st5" points="112.7,124.1 112.7,134.2 211.2,95.9 248.5,118.1 272,105.9 321.7,143 321.7,133.1 272,93.6 
		248.1,107.1 210.8,82.1 	"/>
	<polygon class="st6" points="112.7,134.2 122,136.5 122,133.2 211.4,99.1 248.5,120.8 248.5,118.1 211.2,95.9 	"/>
	<polygon class="st4" points="211.4,99.1 211.4,214.2 122,224.1 122,133.2 	"/>
	<polygon class="st6" points="248.5,118.1 248.5,120.8 272,108.6 314.4,140.1 314.4,146 321.7,143 272,105.9 	"/>
	<g>
		<polygon class="st7" points="225.8,122.5 219,118.8 219,107.1 225.8,111 		"/>
		<polygon class="st7" points="225.3,149.1 219,146.5 219,134.8 225.3,137.5 		"/>
		<polygon class="st7" points="225.8,175.8 219,174.2 219,162.4 225.8,164.2 		"/>
		<polygon class="st7" points="225.8,204.5 219,204.3 219,191.7 225.8,192.6 		"/>
	</g>
	<g>
		<polygon class="st7" points="238.7,128.3 232.5,124.9 232.5,113.9 238.7,117.5 		"/>
		<polygon class="st7" points="238.3,153.1 232.5,150.7 232.5,139.7 238.3,142.3 		"/>
		<polygon class="st7" points="238.7,178 232.5,176.6 232.5,165.6 238.7,167.2 		"/>
		<polygon class="st7" points="238.7,204.8 232.5,204.6 232.5,192.9 238.7,193.7 		"/>
	</g>
	<polyline class="st5" points="249.7,210 285.2,215.4 285.2,208.1 249.7,200 	"/>
	<polyline class="st4" points="249.7,200 218.4,204.1 218.4,213.4 249.7,210 	"/>
	<rect x="119.7" y="200" class="st5" width="2.4" height="26.2"/>
	<g>
		<path class="st3" d="M104.9,171c-4,4.9-7.9-0.9-11.9,4c0-2.4,0-4.8,0-7.2c4-5.1,7.9,0.4,11.9-4.8
			C104.9,165.7,104.9,168.3,104.9,171z"/>
		<line class="st8" x1="93" y1="204.5" x2="93" y2="166.3"/>
		<ellipse class="st9" cx="93" cy="166.3" rx="0.7" ry="0.3"/>
	</g>
	<g>
		<path class="st3" d="M75.8,178.8c-3.4,4.3-6.9-0.8-10.3,3.5c0-2.1,0-4.2,0-6.2c3.4-4.5,6.9,0.4,10.3-4.1
			C75.8,174.2,75.8,176.5,75.8,178.8z"/>
		<line class="st8" x1="65.5" y1="208" x2="65.5" y2="174.8"/>
		<ellipse class="st9" cx="65.5" cy="174.8" rx="0.6" ry="0.3"/>
	</g>
	<g>
		<path class="st3" d="M50.6,185.4c-3.2,4-6.3-0.7-9.5,3.2c0-1.9,0-3.8,0-5.7c3.2-4.1,6.3,0.3,9.5-3.8
			C50.6,181.1,50.6,183.2,50.6,185.4z"/>
		<line class="st8" x1="41.1" y1="212.2" x2="41.1" y2="181.6"/>
		<ellipse class="st9" cx="41.1" cy="181.6" rx="0.5" ry="0.2"/>
	</g>
	<g>
		<polygon class="st7" points="142.6,146.6 142.6,157.6 155.9,153.7 155.9,142 		"/>
		<polygon class="st7" points="161,140.8 161,152.1 175,148.1 175,135.6 		"/>
		<polygon class="st7" points="143.1,171.7 143.1,183.3 155.9,180.1 155.9,168 		"/>
		<polygon class="st7" points="161,166.8 161,179.4 175.6,175.7 175.6,163.3 		"/>
	</g>
</g>
</svg>
