<!-- Generator: Adobe Illustrator 24.2.3, SVG Export Plug-In  -->
<svg version="1.1" xmlns="http://www.w3.org/2000/svg" xmlns:xlink="http://www.w3.org/1999/xlink" x="0px" y="0px" width="76.9px"
	 height="93.3px" viewBox="0 0 76.9 93.3" style="overflow:visible;enable-background:new 0 0 76.9 93.3;" xml:space="preserve">
<style type="text/css">
	.st0{fill:#F2F2F2;}
	.st1{fill:#C91D42;}
	.st2{fill:#1E3476;}
	.st3{fill:#FFFFFF;}
	.st4{fill:#595959;}
	.st5{fill:#1F2E7A;}
	.st6{fill:#1A1A1A;}
	.st7{fill:#D9D9D9;}
	.st8{fill:#B3B3B3;}
	.st9{fill:#333333;}
	.st10{fill:#2E45B8;}
	.st11{fill:#141F52;}
</style>
<defs>
</defs>
<g>
	<path class="st0" d="M35.8,0c-1.5,2.2-0.4,3.2,0.6,4.2c2.3,2.4,2.4,2.8,0.8,5.7c-0.6,1.1-1.1,2.1-1.7,3.3c2.2,1.1,3.4-0.2,4.5-1.2
		c1.6-1.5,3.5-2.4,5.6-2.6c2.8-0.3,4.1,0.6,5.1,3.3c0.3,0.8,1,1.7,1.7,2c2,0.8,3.7,1.7,3.6,4.2c-0.1,2.7-0.7,5.2-3.3,6.6
		c-1.4,0.8-3,1.3-4.4,2.1c-2.1,1.2-4.4,2.4-6.2,4c-4.1,3.6-11.6,4.2-15.9,0.9c-1.4-1.1-3.4-1-4.4,0.2c-0.9,1.1-0.3,2.7,1.3,3.8
		c2,1.4,4.1,2.8,6,4.3c2.6,2,5.2,1.6,7.6-0.6c0.9-0.9,2.5-1.3,3.8-1.4c3.2-0.1,5.4-1,6.1-4.4c0.2-0.8,1.1-1.7,1.9-1.9
		c2.6-1,5.2-1.9,7.9-2.4c2.1-0.4,4.4-0.2,6.6,0c2.8,0.2,3.4,1,3.9,3.8c0.2,1,1,2,1.8,2.6c1.3,0.9,2.9,1.4,4.3,2.2
		c2.9,1.6,4,3.7,3.2,6.9c-1.4,5.7-5.4,8.9-10.6,10.7c-2.1,0.7-4.3,0.9-6.5,1.3c-1.6,0.3-2.9,0.8-3.2,2.7c-0.2,1.7-1.5,2.4-3,2.5
		c-3.2,0.2-6.5,0.5-9.7,0.4c-3.2-0.1-6-1-7.2-4.6c-0.5-1.5-1.7-2.2-3.3-2.4c-3.8-0.4-7.5-1.2-11-3c-2.9-1.5-6.9,0-8.6,2.7
		c-1.3,2-1.2,4.5,0.3,6.1c1.3,1.5,3.8,2,5.8,0.7c2-1.3,4.1-2.6,6.3-1.3c2.4,1.3,4.7,3,6.6,5c0.8,0.8,0.5,2.7,0.4,4
		c-0.2,2.4,0.2,3.2,2.6,3.5c2.2,0.2,4.4,0,6.6-0.1c3.3-0.1,4.5,1.6,3.5,4.7c-0.7,2.2-2.4,3.6-4.2,4.9c-1.3,0.9-2.6,1.9-1.6,3.9
		c-1.6-0.8-1.9-2-1.3-3.6c0.3-0.7,0.8-1.3,1.2-2c0.8-1.6,0.4-2.3-1.3-2.5c-1.6-0.2-3.3-0.2-4.8-0.5c-4.2-0.8-5.7-2.7-5.5-6.9
		c0.1-3.3-0.4-3.9-3.6-4.8c-2.8-0.8-5.5-0.1-8.1,0.8c-2.7,0.9-5.4,2-8.4,1.3c-2.3-0.6-4.1-1.4-4.9-3.9c-0.4-1.1-1.2-2-1.7-3
		c-1.2-2.1-1.5-4.3-1-6.6c1.9-7.7,11.3-11.9,18.1-8.1c1.8,1,3.7,2.1,5.5,3c2.6,1.3,5.4,1.9,8.3,1.7c2.6-0.1,5,0.4,7,2.1
		c0.3,0.2,0.6,0.5,1,0.6c7.1,2.2,14,2.2,20.4-2.1c3.1-2.1,4.1-6.3,2.8-9.8c-1-2.7-3.2-4-6-4.1c-6-0.3-11.6,1.1-16.7,4.3
		c-0.9,0.6-1.8,1.1-2.6,1.8c-2.6,2.2-5.2,3.2-8.7,1.7c-1.8-0.8-4.1-0.8-6.2-0.8c-1.5,0-2.5-0.6-3.2-1.9C17.6,40,14,38,9.2,37.9
		c-1.6,0-3.3-0.2-4.9-0.3c-1.7,0-2.7-1-2.9-2.6c-0.1-1.4-0.1-2.9,0.4-4.2c3-8.7,14.6-13,22.5-8.3c0.9,0.5,1.5,1.6,2.1,2.5
		c0.5,0.6,0.6,1.5,1.2,1.9c3.4,2.2,7.2,3.4,11.1,3.4c2.8,0,3.8-2.6,4.5-4.9c0.8-2.5,0-4.8-1.9-6.1c-2.3-1.6-4.8-1.8-7.4-0.7
		c-1.1,0.4-2.1,0.9-3.1,1.4c-1.3,0.6-2.4,0.4-3.3-0.8c-0.9-1.2-1-2.2,0.1-3.6c1.6-2,3.1-4,5.6-5.1c2.4-1.1,2.4-2.8,0.9-5.6
		C33,2.5,33,2.2,35.8,0z"/>
	<g>
		<path class="st1" d="M65.1,16.9c-5.2-3.5-12.3-2.1-15.8,3.2c-1.7,2.6-1,6.2,1.6,7.9c2.6,1.7,6.2,1,7.9-1.6
			c1.7-2.6,5.3-3.3,7.9-1.6c2.6,1.7,3.3,5.3,1.6,7.9C71.8,27.5,70.3,20.4,65.1,16.9"/>
		<path class="st2" d="M49.3,20.1c-1.7,2.6-1,6.2,1.6,7.9c2.6,1.7,6.2,1,7.9-1.6c1.7-2.6,5.3-3.3,7.9-1.6c2.6,1.7,3.3,5.3,1.6,7.9
			c-3.5,5.2-10.6,6.6-15.8,3.2C47.2,32.4,45.8,25.3,49.3,20.1"/>
	</g>
	<g>
		<path class="st3" d="M17.8,15c6.3,0,11.4,5.1,11.4,11.4s-5.1,11.4-11.4,11.4S6.4,32.7,6.4,26.4S11.5,15,17.8,15"/>
		<polygon class="st1" points="17.8,15.4 20.3,23 28.3,23 21.8,27.7 24.3,35.3 17.8,30.6 11.3,35.3 13.8,27.7 7.3,23 15.4,23 		"/>
	</g>
	<g>
		
			<rect x="42.9" y="54.1" transform="matrix(-1 -5.996460e-11 5.996460e-11 -1 89.8639 113.334)" class="st4" width="4" height="5.1"/>
		<rect x="29.7" y="54.1" class="st5" width="4" height="5.1"/>
		<path class="st6" d="M25.9,36.7l0.9,7.1l1.3,4.2L27,48.2l-2.4,0.2l-1.6-1.8c0,0-0.6-2.5,0-4C23.5,41.1,24.5,37.4,25.9,36.7z"/>
		<path class="st6" d="M50.7,36.7l-0.9,7.1l-1.3,4.2l1.1,0.3l2.4,0.2l1.6-1.8c0,0,0.6-2.5,0-4C53.2,41.1,52.2,37.4,50.7,36.7z"/>
		<path class="st7" d="M27.6,42.6L27.6,42.6c-0.8,0-1.5-0.7-1.5-1.5v-1.7c0-0.8,0.7-1.5,1.5-1.5h0c0.8,0,1.5,0.7,1.5,1.5v1.7
			C29.1,42,28.4,42.6,27.6,42.6z"/>
		<path class="st7" d="M26.4,36.7l0.7,8.3c0,1,0.8,2.2,1.3,3.1l1.4,2.6l0.9,0.7l4.9,1.3l2.6,0.3V34.9l-10.4,0.9L26.4,36.7z"/>
		<path class="st7" d="M50.2,36.7L49.5,45c0,1-0.8,2.2-1.3,3.1l-1.4,2.6l-0.9,0.7l-4.9,1.3l-2.6,0.3V34.9l10.4,0.9L50.2,36.7z"/>
		<path class="st8" d="M26.4,40.7c0,0,1.2-4,11.9-4c0-1.8,0-2.4,0-2.4l-10.4,1.5l-2,0.9L26.4,40.7z"/>
		<path class="st8" d="M50.2,40.7c0,0-1.2-4-11.9-4c0-1.8,0-2.4,0-2.4l10.4,1.5l2,0.9L50.2,40.7z"/>
		<rect x="31" y="50.1" class="st7" width="14.5" height="12.6"/>
		<path class="st8" d="M31,52.4c0,0,2.4,3.2,7.3,3.2s7.3-3.2,7.3-3.2v-0.9l-6.5,1.2h-2.4L31,51.2L31,52.4z"/>
		<g>
			<path class="st9" d="M26.8,37.1c0,1.9,0.2,3.8,0.5,5.7c0.3,1.9,0.7,3.7,1.4,5.4c0.7,1.6,2.2,2.8,3.9,3.4c1.7,0.6,3.6,0.7,5.5,0.8
				v0.9c-1.9,0-3.9-0.1-5.9-0.7c-1.9-0.6-3.7-2-4.6-3.9c-0.9-1.8-1.3-3.8-1.6-5.7c-0.3-1.9-0.5-3.9-0.6-5.8L26.8,37.1z"/>
		</g>
		<path class="st10" d="M38.3,20.5c0,0-6-0.2-9.9,3.7c-1.9,1.8-4.7,6.8-4.7,15c0.7-1,2.2-2.6,2.2-2.6l4.8-1.5l7.6-0.1V20.5z"/>
		<g>
			<path class="st9" d="M51.2,37.2c-0.1,2-0.3,3.9-0.6,5.8c-0.3,1.9-0.8,3.8-1.7,5.6c-0.9,1.9-2.7,3.2-4.6,3.8
				c-1.9,0.6-3.9,0.7-5.8,0.7v-0.9c1.9,0,3.8-0.2,5.5-0.8c1.7-0.6,3.2-1.8,3.9-3.3c0.8-1.6,1.2-3.5,1.5-5.3c0.3-1.9,0.4-3.8,0.5-5.6
				L51.2,37.2z"/>
		</g>
		<path class="st8" d="M38.3,20.5c0,0,6-0.2,9.9,3.7c1.9,1.8,4.7,6.8,4.7,15c-0.7-1-2.2-2.6-2.2-2.6l-4.8-1.5l-7.6-0.1V20.5z"/>
		<path class="st5" d="M38.3,62.1c-4.3-1.3-7.5-4.7-8.6-8L27.2,58c0,0-11.8,3.4-17.8,7.2c-1.5,1-2.6,2.4-3.3,4
			c-0.9,2.3-2.3,9.9-3.4,19.6h35.5L38.3,62.1z"/>
		<rect x="36.4" y="62.1" class="st11" width="1.9" height="26.7"/>
		<path class="st5" d="M38.3,35.9c0,0-5,0-8.1,0.5s-4.7,0.8-5.8,3.8c-1.1,3-1.3,5-1.2,6.2c0.2,1.1,1.3,2.3,4.1,1.6
			c0,0.1,0.1,0.2,0.1,0.2s-1.7,0.6-3.2,0.4c-1.5-0.2-1.9-1.2-2-2.2c-0.1-1.1,0.1-4.8,1.3-8.2c0.3-0.9,1.5-3.2,4.6-3.7
			c3.1-0.5,4-0.7,10-0.8C38.3,34.2,38.3,35.9,38.3,35.9z"/>
		<path class="st4" d="M38.3,35.9c0,0,5,0,8.1,0.5c3.1,0.4,4.7,0.8,5.8,3.8c1.1,3,1.3,5,1.2,6.2c-0.1,1.1-1.3,2.3-4.1,1.6
			c0,0.1-0.1,0.2-0.1,0.2s1.7,0.6,3.2,0.4c1.5-0.2,1.9-1.2,2-2.2c0.1-1.1-0.1-4.8-1.3-8.2c-0.3-0.9-1.5-3.2-4.6-3.7
			c-3.1-0.5-4-0.7-10-0.8C38.3,34.2,38.3,35.9,38.3,35.9z"/>
		<g>
			<path class="st6" d="M40.7,53.9c-1.6,0.2-3.2,0.2-4.8,0c-0.7-0.1-1.2-0.7-1.1-1.4c0-0.1,0-0.2,0.1-0.4c0-0.2,0.2-0.4,0.5-0.3
				c2,0.3,4,0.3,6,0c0.2,0,0.4,0.1,0.5,0.3c0,0.1,0,0.2,0.1,0.4C42,53.2,41.5,53.8,40.7,53.9z"/>
		</g>
		<path class="st10" d="M27.2,58c0,0,2.1,6.9,5.9,9.9c1.2-1.8,3-4.2,5.3-5.8c0,0-4.9-2.2-8.6-8C29.4,54.6,27.2,58,27.2,58z"/>
		<path class="st4" d="M38.3,62.1c4.3-1.3,7.3-5.1,8.6-8l2.5,3.9c0,0,11.8,3.4,17.8,7.2c1.5,1,2.6,2.4,3.3,4
			c0.9,2.3,2.3,9.9,3.4,19.6H38.3L38.3,62.1z"/>
		<rect x="38.3" y="62.1" class="st9" width="1.9" height="26.7"/>
		<path class="st8" d="M49.5,58c0,0-2.1,6.9-5.9,9.9c-1.2-1.8-3-4.2-5.3-5.8c0,0,4.5-2,8.6-8C47.2,54.6,49.5,58,49.5,58z"/>
		<g>
			<path class="st11" d="M30.7,73.1H18.6c-0.3,0-0.5,0.2-0.5,0.5v9.7c0,0.1,0.1,0.3,0.1,0.4l1.1,1.1c0.1,0.1,0.2,0.1,0.4,0.1h9.9
				c0.1,0,0.3-0.1,0.4-0.1l1.1-1.1c0.1-0.1,0.1-0.2,0.1-0.4v-9.7C31.2,73.3,31,73.1,30.7,73.1z"/>
			<g>
				<path class="st11" d="M19.7,77.6c-0.2,0-0.3-0.1-0.5-0.2l-1.1-1.1c-0.1-0.1-0.2-0.3-0.2-0.5v-2.2c0-0.4,0.3-0.7,0.7-0.7h12.1
					c0.4,0,0.7,0.3,0.7,0.7v2.2c0,0.2-0.1,0.3-0.2,0.5L30,77.4c-0.1,0.1-0.3,0.2-0.5,0.2H19.7z"/>
				<path class="st5" d="M30.7,73.1c0.3,0,0.5,0.2,0.5,0.5v2.2c0,0.1-0.1,0.3-0.1,0.4l-1.1,1.1c-0.1,0.1-0.2,0.1-0.4,0.1h-9.9
					c-0.1,0-0.3-0.1-0.4-0.1l-1.1-1.1c-0.1-0.1-0.1-0.2-0.1-0.4v-2.2c0-0.3,0.2-0.5,0.5-0.5H30.7 M30.7,72.8H18.6
					c-0.4,0-0.8,0.4-0.8,0.8v2.2c0,0.2,0.1,0.4,0.2,0.6l1.1,1.1c0.1,0.1,0.4,0.2,0.6,0.2h9.9c0.2,0,0.4-0.1,0.6-0.2l1.1-1.1
					c0.2-0.2,0.2-0.4,0.2-0.6v-2.2C31.5,73.1,31.1,72.8,30.7,72.8L30.7,72.8z"/>
			</g>
		</g>
		<g>
			<path class="st9" d="M58,73.1H45.9c-0.3,0-0.5,0.2-0.5,0.5v9.7c0,0.1,0.1,0.3,0.1,0.4l1.1,1.1c0.1,0.1,0.2,0.1,0.4,0.1h9.9
				c0.1,0,0.3-0.1,0.4-0.1l1.1-1.1c0.1-0.1,0.1-0.2,0.1-0.4v-9.7C58.5,73.3,58.3,73.1,58,73.1z"/>
			<g>
				<path class="st9" d="M47,77.6c-0.2,0-0.3-0.1-0.5-0.2l-1.1-1.1c-0.1-0.1-0.2-0.3-0.2-0.5v-2.2c0-0.4,0.3-0.7,0.7-0.7H58
					c0.4,0,0.7,0.3,0.7,0.7v2.2c0,0.2-0.1,0.3-0.2,0.5l-1.1,1.1c-0.1,0.1-0.3,0.2-0.5,0.2H47z"/>
				<path class="st4" d="M58,73.1c0.3,0,0.5,0.2,0.5,0.5v2.2c0,0.1-0.1,0.3-0.1,0.4l-1.1,1.1c-0.1,0.1-0.2,0.1-0.4,0.1H47
					c-0.1,0-0.3-0.1-0.4-0.1l-1.1-1.1c-0.1-0.1-0.1-0.2-0.1-0.4v-2.2c0-0.3,0.2-0.5,0.5-0.5H58 M58,72.8H45.9
					c-0.4,0-0.8,0.4-0.8,0.8v2.2c0,0.2,0.1,0.4,0.2,0.6l1.1,1.1c0.2,0.2,0.4,0.2,0.6,0.2h9.9c0.2,0,0.4-0.1,0.6-0.2l1.1-1.1
					c0.2-0.2,0.2-0.4,0.2-0.6v-2.2C58.8,73.1,58.5,72.8,58,72.8L58,72.8z"/>
			</g>
		</g>
		<rect x="2.8" y="88.8" class="st3" width="71" height="4.5"/>
	</g>
</g>
</svg>
