<!-- Generator: Adobe Illustrator 24.2.3, SVG Export Plug-In  -->
<svg version="1.1" xmlns="http://www.w3.org/2000/svg" xmlns:xlink="http://www.w3.org/1999/xlink" x="0px" y="0px" width="333.7px"
	 height="325.5px" viewBox="0 0 333.7 325.5" style="overflow:visible;enable-background:new 0 0 333.7 325.5;"
	 xml:space="preserve">
<style type="text/css">
	.st0{fill:none;}
	.st1{fill:#EBE9E0;}
	.st2{fill:#1F2E7A;}
	.st3{fill:#F6423C;}
	.st4{fill:#E3120B;}
	.st5{fill:#475ED1;}
	.st6{fill:none;stroke:#000000;stroke-width:4.0305;stroke-linecap:round;stroke-miterlimit:10;}
	.st7{fill:#C91D42;}
	.st8{fill:#F9C21F;}
</style>
<defs>
</defs>
<g>
	<circle class="st0" cx="170.9" cy="162.8" r="162.8"/>
	<path class="st1" d="M276.2,114.5c-3.9-8.5-8.9-16.4-14.7-23.7L275.5,63l-42.6-31l-22.6,21.8c-8.7-3.2-17.7-5.4-26.9-6.4
		c-3.3-9.7-6.6-19.3-9.9-28.9v-0.4l-51.6,8.2c0,2,0,25.4,0,31c-8.6,3.9-16.6,9-23.9,14.9L70.5,59.4L39.1,102l0.8,0.7l21.2,21
		c-3.2,8.9-5.2,18.1-6.2,27.5c-5.4,2-24.6,8.2-28.9,9.6h-0.7l8.2,51.7c1.6,0,26.5,0,31.8,0c3.8,8,8.5,15.5,13.9,22.4
		c-1.6,4.2-9.3,20.3-13.3,28.6c0,0.2,0,0.4,0,0.6l42.4,30.4l22.8-22.6l0,0c8.7,3.1,17.8,5.2,27,6.2c0.3,0.4,0.4,0.8,0.6,1.2
		c3.1,9.2,6.2,18.3,9.4,27.5c0,0.2,0,0.3,0,0.5l51.9-8.2c0-10.4,0-20.7,0-31.2c8.3-4,16.1-8.9,23.3-14.7c9.3,4.7,18.7,9.2,28.1,13.8
		h0.5l30.4-42.4l-22.2-22.2l0,0c3.1-8.5,5.1-17.3,6.1-26.2c0.3-0.2,0.6-0.3,0.9-0.4l28.2-9.2h1.1l-8.2-51.8L276.2,114.5z
		 M178.8,212.9c-27.9,4.6-54.2-14.3-58.8-42.2s14.3-54.2,42.2-58.8c27.9-4.6,54.2,14.3,58.8,42.2
		C225.5,181.9,206.6,208.2,178.8,212.9L178.8,212.9z"/>
	<path class="st2" d="M21.5,157.5c0,0,0.2-0.6,0.2-0.7s-0.2-0.7,0-0.9c0.2-0.1,0.3-0.2,0.4-0.4c0.1-0.2-0.2,0,0.1-0.2
		c0.3-0.3,0.5-0.5,0.5-0.5s-0.2-0.3,0-0.4c0.2-0.1,0.3-0.4,0.3-0.4s0.1-0.5,0.1-0.5c0-0.1,0.1-0.3,0.2-0.4c0-0.1,0.1-0.3,0.2-0.4
		s0.3-0.4,0.4-0.5c0.1,0,0.4-0.2,0.4-0.2s0.4-0.2,0.7,0c0.2,0.2,0.3,0.1,0.5,0.2c0.1,0.1,0.7,0.2,0.7,0.2s-0.2,0.1,0.2-0.1
		c0.5-0.3,0.9-0.7,1.1-0.9c0.2-0.2,0.5-0.3,0.7-0.4c0.2-0.1,0.3-0.2,0.4-0.2c0.2,0,0.3,0,0.4,0c0.1,0,0.5,0.1,0.5,0.2
		c0.1,0,0.1,0.1,0.2,0.1c0.1,0,0.3,0,0.5,0c0.1,0,0.4-0.3,0.4-0.3s0.4,0.1,0.5,0c0.1-0.1,0.2-0.1,0.2,0c0.1,0.1,0.3,0.2,0.3,0.2
		s0.3,0,0.4,0.4c0.1,0.4,0.4,0.6,0.4,0.6s0,0,0.1,0.1s0.3,0.1,0.4,0.1c0.1,0,0.1-0.1,0.3-0.2c0.2,0,0.3-0.2,0.4-0.2
		c0.1,0,0.2-0.1,0.3,0c0.1,0.1,0.1,0.2,0.3,0.3c0.2,0.1,0.6,0.2,0.7,0.2c0.1,0,0.1-0.1,0.4-0.1c0.2-0.1,0.2-0.1,0.5-0.2
		c0.2-0.1,0.4-0.5,0.6-0.6c0.2-0.1,0.5-0.6,0.7-0.7c0.2-0.1,0.6-0.8,0.8-0.9c0.2-0.1,0.5-0.5,0.7-0.6s0.3-0.2,0.5-0.2
		c0.3,0,0.3,0.1,0.5,0.2c0.2,0.1,0.2,0.2,0.5,0.3c0.3,0.1,0.4,0.1,0.6,0.1c0.1,0,0.3,0,0.7,0c0.4,0,0.7,0,0.7,0s1-0.1,1.2-0.1
		c0.1,0,0.5,0,0.7,0c0.2,0,0.3,0.1,0.6,0.1s0.4,0,0.5-0.1c0.1-0.1,0.2-0.5,0.3-0.5c0.1,0,0.1-0.1,0.3-0.3c0.2-0.2,0.6-0.8,0.9-1
		c0.3-0.2,0.8-0.5,1-0.6c0.2,0,0.7-0.2,0.9-0.2c0.2,0,0.5,0,0.7-0.1c0.2,0,0.5-0.1,0.9-0.2c0.4-0.1,1.3-0.4,1.4-0.4s0.6-0.2,0.8-0.2
		c0.2,0,0.3-0.1,0.5-0.2s0.2-0.2,0.5-0.2c0.2,0,0.4-0.1,0.5-0.1c0.1,0,0.3-0.1,0.4-0.2c0.1,0,0.3-0.1,0.5-0.1c0.2,0,0.1,0,0.5-0.1
		c0.4-0.1,0.5,0,0.5-0.2c0-0.2-0.1-0.5,0-0.7c0.1-0.1,0.1-0.4,0.1-0.5c0-0.1-0.2-1.2-0.1-1.4c0-0.2,0-0.6,0.1-0.8
		c0.2-0.2,0.2-0.4,0.5-0.4c0.2,0,0.5-0.2,0.5-0.2s0.2-0.1,0.2-0.3c0-0.2-0.1-0.3,0-0.6c0.1-0.3,0.7-0.6,1-0.7c0.2,0,0.5-0.2,0.6-0.3
		c0-0.1,0-0.2,0-0.4s0.2-0.2,0-0.6c-0.2-0.3-0.2-0.4-0.2-0.6c0-0.1,0-0.3,0-0.5c0-0.2,0-1.1,0-1.3c0-0.2,0-0.7,0-0.8
		c0-0.1-0.4-0.4-0.5-0.6c0-0.2-0.1-0.3-0.1-0.5c0-0.1-0.1-0.5,0-0.6c0-0.2,0-0.5,0-0.7c0-0.2,0-0.5,0-0.5c0-0.1,0.1-0.3,0.2-0.5
		c0.1-0.2,0.1,0,0.3-0.7c0.1-0.7,0.1-0.7-0.1-0.8s-0.3,0-0.6-0.3c-0.3-0.3-0.5-0.4-0.6-0.5c-0.1,0-0.5-0.2-0.5-0.3
		c0-0.1-0.1-0.3,0-0.4c0.1-0.1,0.5-0.5,0.7-0.5c0.2,0,0,0,0.5,0c0.4,0,1.5,0,1.6,0c0.1-0.1,0.1-0.2,0.4-0.2c0.2,0,0.4-0.1,0.6,0
		c0.2,0.1,0.4-0.1,0.6,0c0.2,0.1,0.2,0.1,0.5,0.1c0.3,0,0.7-0.2,0.9-0.3c0.2-0.1,0.5-0.4,0.5-0.4s0.4-0.2,0.6-0.2
		c0.1,0,0.9,0.1,1,0.2c0.1,0.1,0.4,0.3,0.5,0.5c0,0.2,0.2,0.4,0.3,0.4s0.2-0.1,0.5-0.1s1.3,0.1,1.4,0.1c0.1,0,0.4,0.1,0.4,0.1
		s-0.2,0.1,0.2,0.2c0.4,0,0.6,0,0.7-0.1c0.1-0.1,0.1-0.5,0.1-0.6c0-0.1,0-0.4,0-0.4s-0.1-0.1-0.1-0.2c0-0.1-0.3-0.4-0.4-0.6
		c0-0.2-0.4-0.5-0.4-0.7c0-0.2,0.2-0.3,0.3-0.5c0.1-0.2,0.3-0.8,0.5-1c0.1-0.2,0.3-0.7,0.4-1c0.2-0.3,0.4-1.1,0.6-1.5
		c0.2-0.3,0.4-0.7,0.6-1c0.1-0.3,0.1-0.4,0.3-0.7c0.2-0.3,0.3-0.7,0.4-0.9c0.1-0.2,0.4-1.2,0.5-1.4c0.1-0.1,0.3-0.8,0.4-0.9
		c0.1-0.1,0.1-0.6,0.4-0.5c0.3,0.1,0.5,0.3,0.6,0.4c0.1,0.1,0.8,0.6,0.9,0.7c0.1,0.1,0.9,0.4,1.2,0.5s0.3,0.1,0.6,0.1
		c0.3,0,0.5,0,0.8,0.1c0.3,0.1,1.1,0.2,1.4,0.3s0.5,0.1,0.7,0.2c0.3,0.1,0.3,0.2,0.8,0.3c0.4,0.1,0.4,0,0.7,0s0.5,0,0.7-0.2
		c0.1-0.1,0-0.1,0.5-0.3c0.4-0.2,1.7-0.7,1.8-0.8c0.1-0.1,0.3-0.4,0.4-0.7c0.1-0.3-0.3-1.7-0.2-2.1c0.1-0.4,0-1.3,0-1.5
		c0-0.2-0.1-0.2,0-0.5c0.1-0.3,0-0.4,0.1-0.5s0.2-0.3,0.3-0.5c0.1-0.2,0.5-0.9,0.5-0.9c0-0.1-0.1-0.4,0.2-0.5
		c0.3-0.1,0.5-0.1,0.8-0.1c0.3,0,0.4,0.1,0.7,0.1c0.3,0,0.8-0.4,0.9-0.5c0.1-0.1,0.3-0.1,0.5-0.2c0.1,0,0.4-0.1,0.5-0.1
		c0.1-0.1,0.1-0.4,0.3-0.5c0.1-0.1,0.5-0.8,0.5-0.8s0-0.3,0-0.5c0-0.2-0.2-0.2-0.1-0.6c0.1-0.3,0.1-0.5,0.1-0.5l0.4-0.2
		c0,0,0.7-0.1,0.8-0.1c0.1,0,0.4-0.3,0.6-0.2c0.2,0,0.4-0.1,0.7,0c0.3,0.1,0.5,0,0.8,0.2c0.2,0.2,0.5,0.2,0.7,0.3
		c0.1,0.1,0.4,0.1,0.5,0.2c0.1,0.1,0.2,0.3,0.1,0.5c-0.1,0.2-0.2,0.5-0.2,0.6c0,0.1,0.1,0.2,0.2,0.3c0.1,0.1,0.4,0.2,0.6,0.2
		c0.1,0,0.4,0,0.3,0.2s-0.2,0.4-0.2,0.6c0,0.2,0.1,0.4,0.2,0.5s0.9,0.5,1,0.6c0.1,0,0.5,0.2,0.6,0.4c0.1,0.2,0.3,0.1,0.4,0.3
		s0,0.2,0.1,0.5c0.1,0.3,0.3,0.5,0.4,0.6c0.2,0.1,0.6,0.4,0.6,0.4c0.1,0,0.2,0.1,0.3,0.2s0.3,0.1,0.4,0.2c0.1,0.1,0.1,0.2,0.2,0.2
		c0.1,0,0.1,0,0.4,0c0.3,0,0.6-0.3,0.7-0.4c0.1-0.1,0.3-0.3,0.4-0.3c0.1,0,0.2,0.1,0.4,0.3c0.2,0.1,0.9,0.6,1,0.8
		c0.1,0.2,0.5,0.5,0.6,0.5s0-0.2,0.4,0s0.5,0.1,0.6,0.3c0.1,0.1,0.4,0.5,0.8,0.7c0.3,0.3,0.5,0.1,0.7,0.7c0.2,0.6,0.1,0.4,0.2,0.8
		c0.1,0.4,0.3,0.3,0.4,0.8c0.1,0.4,0.1,0.6,0.4,0.9c0.3,0.3,0.4,0.5,0.5,0.6s0.3,0.3,0.4,0.5c0.1,0.3,0.5,1,0.5,1s0,0.2,0,0.5
		c0,0.3,0,0.9,0,0.9s0.2,0.4,0,0.5s-0.3,0.2-0.3,0.4c0,0.2,0,0.4,0.1,0.5c0,0.1,0.3,0.4,0.3,0.5c0,0.1,0,0.4,0,0.5
		c0,0.1-0.4,0.6-0.4,0.7c-0.1,0.1-0.5,0.9-0.5,0.9s-0.2,0.2-0.2,0.4c0,0.1-0.2,0.2-0.1,0.6c0.1,0.4,0.6,1.4,0.6,1.4s0,0.1,0.2,0.3
		c0.1,0.2,0.1,0.3,0.4,0.4s0.6,0.3,0.9,0.3s1.1,0.1,1.5,0.3c0.4,0.2,0.7,0.3,0.9,0.3c0.3,0,0.8,0.1,1,0.1c0.3,0,0.5,0.1,0.9,0.1
		c0.3,0,1.1,0,1.4-0.1c0.3-0.1,0.6-0.1,1-0.1c0.4,0,2.1,0.1,2.3,0.1c0.2,0,1.5,0.2,1.8,0.4c0.3,0.2,1.4,0.8,1.6,0.9
		c0.1,0.1,1.5,0.9,1.6,0.9s0.9,0.7,1.3,0.8c0.3,0.1,0.3,0.2,0.6,0.4c0.4,0.2,0.5,0.4,0.7,0.4c0.3,0,0.5,0.1,0.8,0.1
		c0.3,0,0.8,0.1,0.9,0c0.1-0.1,0.5-0.2,0.5-0.2s0.2,0.1,0.3,0.5c0,0.3-0.3,0.4,0,0.8c0.3,0.3,0.5,0.6,0.5,0.6s0.4-0.1,0.5,0.2
		c0.1,0.3-0.2,0.4,0,0.6c0.2,0.1,0.4,0.6,0.4,0.7c0,0.1,0.4,0.8,0.6,0.9c0.1,0.2,0.6,0.7,0.7,0.8c0.1,0.2-0.2,0.3,0,0.5
		c0.2,0.2,0.4,0.6,0.7,0.8c0.3,0.1,0.3,0.2,0.4,0.3c0.1,0.1,0.1,0.3,0.3,0.5c0.2,0.2,0.4,0.3,0.6,0.4c0.1,0.1,0.2,0,0.3,0.3
		c0.1,0.3,0.3,0.8,0.6,0.9c0.3,0.1,0.4,0.2,0.7,0.1c0.3-0.1,0.1-0.4,0.8-0.5c0.7-0.1,1.7,0,2.2,0c0.5,0,2.4,0,3,0
		c0.6,0,5.1,0.3,5.3,0.3c0.1,0,1.8-0.2,2.1-0.3c0.3-0.1,1.3-0.7,1.6-0.8c0.3-0.1,1.6-0.3,2.2-0.4c0.5,0,2.4,0.1,3.3,0
		c0.9-0.1,2.8,0.2,3,0.2c0.1,0-0.3-0.4,0.4,0c0.8,0.4,1.4,0.9,1.5,1c0.1,0.1,0.6,0.4,0.8,0.4c0.3,0,0.5,0.1,0.9,0
		c0.4-0.1,0.5-0.1,0.7-0.2c0.2-0.1,0.8-0.3,0.9-0.3c0.1,0,0.1-0.1,0.4,0c0.3,0.1,0.4,0.4,0.9,0.5c0.4,0.1,0.6,0.1,0.9,0.2
		c0.3,0.1,1.5,0.7,2.3,0.7c0.8,0,2.2,0,2.4,0c0.3-0.1,0.5-0.1,0.8-0.3c0.3-0.1,0.5-0.3,0.7-0.4c0.2-0.1,0.5-0.3,0.6,0
		c0.1,0.3-0.1,0.5,0,0.7c0.1,0.2-0.1,0.4,0.3,0.5s0.6,0.1,1.1,0.1s0.5,0.1,0.9-0.1c0.4-0.1,0.6-0.4,0.8-0.5c0.1-0.2,0.4-0.6,0.8-0.9
		c0.4-0.3,3.5-2.4,3.8-2.6c0.3-0.2,1.8-1.3,2.2-1.4c0.4-0.1,1.4-0.7,1.7-0.9c0.3-0.1,0.6-0.2,0.8-0.4s0.3-0.3,0.4-0.4
		c0.1-0.1,0.3-0.2,0.4-0.2c0.2,0,0.2,0.3,0.3,0.3c0.1,0,0.4,0.1,0.7,0c0.3-0.1,0.5-0.3,0.6-0.4c0.1-0.1,0.3-0.2,0.9-0.5
		c0.6-0.3,0.8-0.3,1.2-0.3s0.9-0.1,1.4-0.1c0.5,0,1.9-0.6,2-0.6c0.1,0,0.4-0.1,0.9-0.1c0.5,0,0.6-0.1,0.8-0.2
		c0.3-0.1,0.9-0.6,1.2-0.7c0.2-0.1,0.4-0.5,0.6-0.7c0.2-0.2,0.7-0.3,0.9-0.4c0.2-0.1,0.3-0.1,0.5-0.3s0.5-0.6,0.6-0.7
		c0.1-0.1,1-2,1.2-2.2c0.1-0.3,0.6-1.2,0.6-1.2s-0.5-0.3,0-0.5c0.5-0.2,0.5-0.1,0.8-0.3c0.3-0.2,0.4-0.4,0.7-0.6
		c0.3-0.2,0.3-0.4,0.5-0.5c0.2-0.1,0.3-0.3,0.5-0.5c0.1-0.1,0.1-0.1,0.4-0.4c0.3-0.3,0.4-0.4,0.4-0.6c0.1-0.2,0.2-0.5,0.2-0.7
		c0-0.1-0.4-0.5-0.4-0.7c-0.1-0.1-0.7-0.6-1.1-1c-0.4-0.4-0.7-0.3-0.9-0.8c-0.2-0.5-0.4-0.7-0.4-0.9c0-0.2-0.1-0.6,0-1.1
		s0.1-0.8,0.1-1s0-0.5,0.1-0.8c0.1-0.3,0.2-0.8,0.2-0.8s0.7-0.8,1-0.8c0.3,0,1.3-0.1,1.6-0.2c0.3,0,0.4,0,0.5,0c0.2,0,0.1,0,0.4,0.2
		s0.5,0.3,0.9,0.3c0.4,0,0.8,0.1,1.4,0c0.6-0.1,1-0.1,1-0.1s0.1,0.1,0.6,0c0.5-0.1,0.7-0.2,1-0.4c0.3-0.1,1.9-2.5,2.1-2.7
		c0.2-0.1,0.9-1.5,0.9-1.5s0-0.5,0.2-0.7c0.2-0.1,0.2-0.2,0.7-0.3c0.5,0,0.4,0,0.8,0s2.3-0.8,2.7-1.1c0.4-0.3,0.6-0.7,0.8-0.8
		c0.2-0.1,0.7-0.7,0.7-0.9c0-0.1-0.1-0.5,0-0.6c0.1-0.1,0.1-0.3,0-0.5c-0.1-0.3-0.2-0.4-0.2-0.7s-0.2-0.4,0-0.7
		c0.1-0.3,0.1-0.8,0.3-1c0.1-0.1,0.3-0.5,0.3-0.5s0.8-0.9,1-1c0.2-0.1,0.3-0.3,0.8-0.3c0.5,0,0.7,0,1-0.2c0.3-0.1,0.4-0.4,0.5-0.6
		c0-0.2-0.1-0.3,0-0.4c0.1-0.1,0.5-0.3,0.7-0.4c0.2,0,0.3,0,0.5,0c0.3,0,0.7-1.2,0.9-1.4c0.2-0.2,0.3-0.4,0.6-0.5
		c0.3-0.1,0.2-0.1,0.5-0.2c0.3-0.1,0.2,0.2,0.6,0c0.4-0.2,0.9-0.4,1.1-0.5s0.3-0.3,0.4-0.3c0.1,0,0.4-0.1,0.6,0
		c0.2,0.1-0.2,0.3,0.7,0.1c0.9-0.2,1.5-0.4,1.7-0.5c0.2-0.1,0.3-0.1,0.5-0.2c0.2-0.1,0.4-0.3,0.4-0.5c0-0.2-0.1-0.3,0-0.5
		s0.4-0.2,0-0.5c-0.4-0.3-1.5-0.9-1.9-1.2c-0.4-0.2-1.1-0.7-1.5-0.9c-0.4-0.3-0.8-0.4-1-0.6c-0.3-0.1-0.4-0.2-0.5-0.3
		c-0.1-0.1-0.3-0.2-0.6-0.2s-0.9,0-1.1,0c-0.1,0-0.3-0.1-0.5-0.3c-0.2-0.2-0.4-0.3-0.5-0.3s-0.5-0.2-0.6-0.3c-0.1,0-0.2,0-0.5,0
		c-0.3,0-0.8,0.2-1,0.4c-0.1,0.1-0.8,0.6-1,0.7c-0.1,0.1-0.4,0.4-0.5,0.8c-0.2,0.3-0.4,0.7-0.6,0.9c-0.1,0.2-0.3,0.4-0.4,0.4
		c-0.1,0,0,0.3-0.3,0c-0.3-0.2-1.4-0.7-1.4-0.7s-0.2,0-0.6,0.1c-0.4,0-1.6,0.2-1.8,0.4c-0.3,0.2-0.6,0.7-0.8,0.8
		c-0.2,0.1-0.8,0.5-0.9,0.6c-0.1,0.1-0.3,0.2-0.4,0.2c-0.1,0-0.1,0.2-0.4,0c-0.3-0.2-0.4-0.3-0.6-0.5c-0.2-0.2-0.5-0.4-0.5-0.5
		S209,96.2,209,96s0-0.2,0.1-0.4c0.1-0.3,0.3-0.7,0.3-0.7s0-0.3-0.1-0.5c-0.1-0.2-0.5-0.4-0.5-0.7c0-0.3-0.3-0.1,0-0.9
		c0.3-0.8,0.2-1.8,0.2-2s0-0.7,0-1.3c0-0.6-0.1-0.8,0.1-1.2c0.2-0.4,0.3-1.1,0.3-1.4s-0.1-0.5-0.1-0.8c0-0.3,0-0.5,0-0.5
		s-0.1-0.3,0.1-0.4c0.3-0.1,0.4-0.5,1.6-0.2c1.2,0.3,2.6-0.1,2.7-0.1c0.1,0,0.2-0.1,0.5-0.2c0.4-0.1,0.4,0.1,0.7-0.5
		c0.3-0.5,0.4-0.8,0.6-1.3c0.2-0.4,0-0.6,0.3-0.8c0.3-0.2,0.3-0.3,0.7-0.5s0.5-0.5,0.9-0.6c0.4-0.1,0.3,0,0.8-0.3
		c0.5-0.4,0.6-0.8,0.6-0.9c0-0.1-0.1-0.7-0.3-0.8c-0.2-0.1-0.4-0.1-0.5-0.3c-0.1-0.2-0.5-8-0.3-8.3c0.2-0.3,0.3-1.1,0.7-1.4
		c0.4-0.3,0.7-0.7,0.8-0.9c0.1-0.3,0.2-0.5,0.1-0.7c-0.1-0.2-0.3-0.5-0.5-0.8s-0.3-0.4-0.4-0.6c-0.1-0.2-0.2-0.2-0.3-0.5
		c-0.1-0.3-0.1-0.8-0.2-0.9c-0.1-0.1-0.1-0.2-0.4-0.2s-0.7-0.1-1,0c-0.3,0.1-0.6,0.4-0.8,0.4s-0.4,0.3-0.6-0.2
		c-0.1-0.5-0.5-0.4-0.2-0.8s0.4-0.5,0.6-0.9c0.1-0.4,0.8-2.1,0.9-2.2c0.1-0.1,0.7-0.7,1-0.8c0.3-0.1,0.9-0.5,1.2-0.8
		c0.3-0.4,0.3-0.4,0.7-0.8c0.3-0.4,0.4-0.5,0.7-0.6c0.3-0.1,0.8-0.1,1-0.3c0.2-0.1,0.3-0.3,0.5-0.4c0.3-0.1,0.4-0.2,0.7-0.3
		c0.3-0.1,0.1,0.1,0.6-0.3c0.5-0.4,1-0.9,1.2-1c0.3-0.1,0.3-0.1,0.7-0.3c0.5-0.1,1.5-0.3,1.8-0.3s0.6-0.3,1,0c0.4,0.3,0.4,0.3,1,0.5
		c0.5,0.1,0.5,0.4,0.9,0.1c0.4-0.3,0.8-0.6,1-0.7c0.2-0.1,1-0.6,1.2-0.6c0.2,0,1.8-0.3,2.2,0c0.4,0.3,0.5,0.5,0.5,0.5
		s0.3,0.1,0.5,0.1c0.2,0-0.1-0.3,0.2,0c0.3,0.3,0.4,0.3,0.4,0.5c0,0.3,0.1,0.5,0.4,0.6c0.4,0.1,0.6,0.2,0.8,0.3
		c0.1,0,0.3,0.2,0.7,0.5c0.4,0.4,0.5,0.6,1.1,1.1c0.6,0.4,0.7,0.7,0.9,0.9c0.3,0.2,1,0.6,1.1,0.6c0.1,0,0.5,0.1,0.7,0.3
		c0.2,0.1,1,1.2,1,1.2l0.7,0.5c0,0-0.1,0,0,0.2c0.1,0.2,0.3,0.3,0.6,0.5c0.3,0.2,0-0.1,0.3,0.2c0.3,0.4,0.8,0.7,1,0.8
		c0.2,0,0.4,0.1,0.7,0.3c0.3,0.1,0.7,0.6,0.8,0.7c0.1,0.1,0.2,0.2,0.4,0.5c0.2,0.3,0.5,0.4,0.7,0.7c0.1,0.3,0.4,0.7,0.4,0.7l0.5,0.5
		c0.3,0.2,0.5,0.4,0.5,0.6c0,0.2,0.5,0.5,0.7,0.6c0.1,0,0.3,0,0.4,0.1c0.1,0.2,0.4,0.6,0.5,0.7c0.1,0,0.4,0.2,0.4,0.2s0,0,0.3,0
		s1,0,1.3-0.1c0.3-0.1,0.3-0.2,0.5-0.3c0.2-0.1,0.4-0.2,0.5-0.4c0.1-0.1,0.2-0.4,0.3-0.5c0.1-0.1,1.1-0.3,1.1-0.3s0.3,0.1,0.4,0.3
		c0.1,0.1,0.9,0.3,1.1,0.3c0.2,0,0.1-0.1,0.3-0.2c0.2-0.1,0.4-0.1,0.5-0.3c0.1-0.1,0.3-0.3,0.4-0.4c0.1-0.1,0.8-0.3,0.9,0
		c0.2,0.3,0.9,0.4,1.1,0.4s0.7,0.2,0.8,0.3c0.1,0,0.3,0.1,0.5,0.1s0.2,0,0.4,0.2c0.2,0.1,0.4,0.2,0.6,0.2s0.3-0.1,0.5-0.1
		c0.3,0,0.5,0,0.7-0.2c0.2-0.2,1.1-0.4,1.2-0.2c0,0.2-0.3,0.2,0,0.7c0.3,0.5,0.2,0.6,0.5,0.7c0.3,0.1,0.9,0.2,1.1,0.2
		c0.1,0,0.3,0,0.3,0.3s0,0.3,0,0.7c0,0.4,0.2,0.4,0.3,0.8c0,0.4,0.1,0.5,0.4,0.6c0.2,0.1,0.4,0,0.8,0c0.4,0,0.9-0.1,0.9,0.2
		c0,0.3,0.3,0.7,0.3,0.7s0.1,0.3,0.4,0.3c0.3,0,0.5-0.3,0.5-0.4c0-0.1,0.1-0.3,0.4-0.5c0.2-0.1,0.5-0.1,0.8-0.2c0.3,0,0.1,0.2,0.3,0
		c0.2-0.2,0.3-0.5,0.5-0.6c0.3-0.1,0-0.1,0.6-0.2c0.6-0.1,0.9-0.1,1-0.3c0.1-0.1,0.1-0.5,0.3-0.7c0.1-0.3-0.1-0.4,0.3-0.5
		c0.4,0,0.4,0,0.4,0s0.4-0.8,0.4-1.1c0-0.3-0.1-0.4,0-0.8c0.1-0.4,0.1-0.7,0.3-0.9s0.2-0.5,0.4-0.6c0.2-0.1,0.5-0.2,0.7-0.3
		c0.2-0.1,0.5-0.1,0.6-0.4c0.1-0.3,0-0.9,0-0.9s0.1,0.6,0.3,0.2c0.1-0.4,0.2-0.7,0.4-0.8c0.1-0.2,0.3-0.3,0.4-0.5
		c0.1-0.3,0-0.3,0.2-0.4c0.2-0.2,0.1-0.3,0.4-0.4c0.3-0.1,0.5-0.3,0.7-0.4c0.2-0.1,0.2-0.3,0.8-0.3c0.6,0.1,0.8,0,0.8,0.1
		c0.1,0.1,0.1,0.3,0.3,0.6s0,0.9,0.6,1.1c0.6,0.2,0.3,0,0.6,0.2c0.3,0.3,0.6,0.4,0.7,0.5c0.1,0.2,0.3,0.4,0.2,0.8
		c-0.1,0.4-0.3,0.8-0.3,0.8s-0.1,0.1-0.2,0.4s-0.3,0.4-0.3,0.9c0,0.4,0.1,1,0.1,1s0.3,0,0.4,0.2c0.1,0.1,0.3,0.5,0.2,0.8
		c0,0.4-0.2,0.4,0,0.8c0.2,0.3,0.2,0.4,0.4,0.6c0.1,0.2,0.1,0.2,0.2,0.6c0.1,0.4,0.1,0.7,0.2,0.9c0,0.2,0,0.4,0.2,0.6
		c0.2,0.2,0.1,0,0.4,0.5c0.3,0.4,0.5,1,0.5,1.2c0,0.1,0.1,0.5,0,0.7c-0.1,0.3-0.1,0.8,0,0.9c0.1,0.1,0,0.2,0,0.7s-0.1,0.8,0.1,0.9
		c0.1,0.1,0,0.4,0,0.4s0.1,0.5,0.1,0.6c-0.1,0.1,0.1,0.4,0,0.6c-0.1,0.2-0.2,0.4-0.1,0.6c0.1,0.2,0.3,0.6,0.4,0.7
		c0.2,0.1,0.4,0.6,0.4,0.7c0,0.1,0.1,0.6,0,0.7c-0.1,0.1-0.4,0.6-0.4,0.6s-0.5,0.2-0.8,0.2c-0.3,0-1.1,0.1-1.6,0.1
		c-0.5,0.1-1.5,0.3-1.9,0.3c-0.4,0-0.7,0-0.8,0.3c-0.1,0.3-0.3,0.3-0.3,0.8c0,0.6,0.1,1.1,0.1,1.4c0,0.2-0.1,0.5-0.1,0.5
		s-0.4,0.2-0.6,0.4c-0.2,0.2-0.8,0.5-0.9,0.7c0,0.1,0,0.5,0.1,0.6c0.1,0.1,0.6,0.4,0.8,0.5c0.2,0,0.3,0,0.6,0.3
		c0.3,0.3,0.9,0.7,1.2,1c0.2,0.3,0.8,1.1,1,1.2s0.2,0.5,0.3,0.7c0.1,0.3,0.2,0.7,0.4,0.8c0.1,0.1,0-0.1,0.4,0.4c0.3,0.5,0.8,1,0.8,1
		s0.2,0,0.3,0.3c0.1,0.3,0.1,0.3,0.3,0.6c0.1,0.4,0.3,0.8,0.2,1.1c0,0.3,0,0.7,0,0.7l0.3,0.4c0,0,0.2,0.1,0.2,0.3
		c0,0.3-0.1,0.5-0.3,0.7c-0.1,0.2-0.3,0.3-0.5,0.5c-0.2,0.1-0.6,0.3-0.7,0.4c-0.1,0.1-0.3,0.2-0.3,0.4s0.1,0.5,0.1,0.5l0.3,0.4
		c0,0,0.2,0,0.3,0.1c0.1,0.1,0.4,0.4,0.4,0.4s0.5,0.3,0.1,0.3c-0.4,0-0.3,0-0.6,0c-0.3,0-0.4,0.1-0.5-0.1c-0.1-0.1-0.3-0.1-0.4-0.3
		c-0.1-0.1-0.3-0.2-0.3-0.2s-0.3-0.3-0.4-0.4c-0.2-0.1,0,0-0.2-0.1c-0.2-0.2-0.5-0.4-0.7-0.4s-0.5-0.1-0.6,0c-0.1,0-0.3,0.1-0.3,0.3
		c0,0.2-0.2,0.2-0.2,0.5c0,0.4-0.1,0.7,0,0.8c0.1,0.1,0.3,0.4,0.4,0.5c0.1,0.1,0.2,0,0.3,0.4c0,0.3,0.1,0.6,0.1,0.6s0,0.3-0.1,0.5
		c-0.1,0.2-0.5,0.5-0.6,0.6c-0.1,0.1-0.7,0.2-0.7,0.2s-0.2,0.3-0.2,0.4c0,0.1-0.1,0.3-0.1,0.5c0,0.2,0,0.3,0,0.7
		c0,0.3-0.1,0.7-0.3,0.9c-0.2,0.3-0.4,0.6-0.6,0.7c-0.1,0.1-0.8,0.6-0.8,0.6s-0.2,0.3-0.3,0.3c-0.1,0-0.1,0-0.3,0
		c-0.2,0.1-0.4-0.1-0.5,0.2c-0.2,0.3-0.5,0.3-0.4,0.7c0,0.4,0,0.5,0.1,0.7c0.1,0.2,0.1,0.3,0.3,0.4c0.1,0.1,0.3,0.1,0.5,0.1
		s0.3,0,0.5,0.2c0.2,0.1,0.3,0,0.3,0.3c0.1,0.3-0.1,0.5-0.1,0.8c0,0.3-0.1,0.5-0.3,0.6c-0.2,0.1-0.6,0.3-0.8,0.3
		c-0.3,0.1-0.6,0.4-0.8,0.4c-0.2,0.1-0.7,0.1-1.1,0.3c-0.5,0.1-0.1,0.1-0.8,0.3c-0.7,0.2-1.1,0.1-1.1,0.1s-0.2-0.1-0.2-0.2
		c0-0.1-0.2-0.4-0.3-0.4c-0.1-0.1-0.8-0.2-0.8-0.2l-0.7,0.4c0,0-0.1,0.1-0.2,0.4c-0.1,0.3-0.1,0.4-0.1,0.7c0,0.3,0.1,0.7,0.1,0.7
		s0.2,0.3,0.2,0.4c0,0.1,0,0.4-0.1,0.6c-0.2,0.1-0.4,0.2-0.4,0.4c-0.1,0.3-0.4,0.7-0.4,1.1c0,0.4-0.2,1.3-0.2,1.3s0,0.4-0.1,0.5
		c-0.1,0.1-0.5,0.4-0.6,0.6c-0.1,0.2-0.7,0.8-0.8,1c-0.1,0.2-0.2,0.4-0.3,0.6c-0.1,0.2-0.3,0.3-0.4,0.5c-0.1,0.3-0.7,0.8-0.8,1
		c-0.1,0.3-0.3,0.6-0.4,0.7c-0.1,0.1-0.4,0.1-0.4,0.5c0,0.4,0,0.7-0.1,0.9c-0.1,0.2-0.4,0.3-0.5,0.5c-0.1,0.3-0.2,0.6-0.2,0.9
		c0,0.3-0.3,0.6-0.4,1c-0.1,0.4-0.2,0.5-0.2,0.8c0,0.2-0.4,0.4-0.7,0.5c-0.4,0.1-0.6,0.5-0.7,0.5c-0.1,0-0.5,0-0.7,0
		c-0.1,0-0.4,0.2-0.6,0.4c-0.2,0.2-0.8,0.8-1,1c-0.3,0.2-0.5,0.5-0.7,0.8c-0.1,0.3-0.4,0.6-0.5,0.8c-0.1,0.3-0.5,0.6-0.5,0.8
		c0,0.1-0.2,0.5-0.3,0.6c-0.1,0.1-0.4,0.3-0.5,0.4c-0.1,0.1-0.6,0.3-0.6,0.5c0,0.2-0.1,0.4-0.1,0.7c-0.1,0.4-0.3,0.4-0.2,0.7
		c0,0.3,0.2,0.4,0,0.6c-0.2,0.3-0.6,0.4-0.9,0.6c-0.3,0.3-1.1,0.6-1.2,0.9s-0.2,0.4-0.4,0.7s-0.7,0.5-0.8,0.6s-0.6,0-0.3-0.4
		c0.3-0.4,0.5-0.6,0.7-0.8c0.1-0.1,0.1-0.3,0.3-0.4s0.1-0.3,0.2-0.5c0-0.2-0.1-0.4-0.1-0.5c0-0.1,0-0.2,0.2-0.4
		c0.2-0.1,0.3-0.4,0.3-0.4s0.1-0.3,0-0.3c-0.1,0-0.3-0.1-0.4-0.1c-0.1,0-0.1,0.2-0.4,0.3c-0.2,0.1-0.4,0.1-0.4,0.1l-0.3-0.4
		c0,0,0.2-0.1-0.3,0c-0.5,0.1-0.8,0-0.8,0s-0.2-0.4,0.1-0.6c0.3-0.2,0.4-0.3,0.5-0.4c0.1-0.1,0.2-0.1,0.1-0.3
		c-0.1-0.1-0.4-0.3-0.4-0.3s-0.2,0-0.1-0.3c0.1-0.3,0.3-0.5,0.4-0.5c0.1,0,0.1,0.1,0.3-0.1s0.4-0.5,0.4-0.6c0-0.1,0-0.5,0-0.7
		c0-0.1,0-0.1,0-0.1l0.2-0.4c0,0,0-0.6,0.1-0.7c0.1-0.1,0,0,0.2-0.3c0.2-0.3,0.4-0.5,0.4-0.6c0-0.1,0.1-0.3,0-0.5s-0.9-1.3-0.9-1.3
		s-0.3-0.5-0.5-0.4c-0.2,0.1-0.8,0.5-0.8,0.5l-0.4-0.3l-0.3-0.3c0,0-0.4-0.2-0.5-0.2c-0.1,0-0.3,0.3-0.3,0.5
		c-0.1,0.1-0.1,0.3-0.3,0.3c-0.3,0-0.2,0-0.5,0c-0.3,0-0.8,0-0.8,0l-0.7,0.1c0,0-0.5,0.3-0.7,0.7c-0.2,0.4-0.5,0.5-0.5,0.9
		c0,0.4,0,1.2,0,1.2l0.1,0.5c0,0-0.1,0.4-0.3,0.7c-0.1,0.3-0.3,0.8-0.3,1.1c0,0.2-0.3,0.8-0.5,1c-0.1,0.2-1.1,1-1.2,1.2
		c-0.1,0.2-0.6,0.7-0.7,0.8s-0.3,0.1-0.4,0.4s-0.4,0.6-0.4,0.6s-0.1,0.3-0.2,0.4c-0.1,0.1-0.3-0.2-0.3,0.5c0,0.7-0.3,1-0.3,1
		s0,0.7,0.1,1.1c0,0.3,0,0.9-0.1,1.1c0,0.2,0.4,0.7-0.6,0.8c-1,0.1-1.4,0.1-1.4,0.1s-0.3,0.3-0.3,0.4c0,0.1-0.7,0.8-0.7,0.8
		s-0.1,0-0.3,0c-0.2,0-0.2,0.1-0.4-0.1c-0.2-0.3-0.7-0.5-0.7-0.5l-0.4,0.2l-0.4,0.3c0,0-0.3,0.2-0.3,0.4s-0.2,0.4-0.2,0.4
		s-0.2,0-0.2,0.2s0.1,0.5,0.1,0.5v0.4c0,0-0.1,0.6,0,0.9c0,0.3,0,0.5,0,0.7c0,0.3,0.1,0.6,0.2,0.7c0.1,0.1,0.1,0.3,0.4,0.4
		c0.3,0.2,0.4,0.3,0.6,0.4s0.3,0.2,0.7,0.3s0.7,0.1,0.8,0.1c0.1,0,0.4,0,0.7,0c0.3,0,0.3-0.1,0.7-0.1c0.4,0,0.6,0.1,0.7,0
		s0-0.1,0.5-0.1c0.5,0,0.8-0.3,1-0.4c0.2-0.1,0-0.3,0.7-0.3c0.7,0,0.3-0.4,0.7,0s0.6,0.4,0.6,0.4l0.2,0.3c0,0,0.1,0.3,0.2,0.4
		c0.1,0.1,0.2,0.2,0.2,0.4c0,0.2,0,0.5,0,0.6c0.1,0.1,0,0.3,0,0.5c0,0.2-0.1,0.3,0.1,0.6c0.1,0.3,0.3,0.5,0.5,0.8
		c0.3,0.3,0.3,0.3,0.5,0.4c0.3,0.1,0.3,0.1,0.7,0.2c0.5,0,0.5,0.1,0.7,0c0.3,0,0.4-0.1,0.5-0.2c0.2-0.1,0.3-0.2,0.4-0.4
		c0.1-0.2,0.4-0.1,0.7-0.2c0.3-0.1-0.1,0.1,0.3-0.1c0.3-0.2,0.4-0.3,0.5-0.4c0-0.2,0.1-0.3,0-0.4s-0.2-0.1-0.2-0.3
		c0-0.1,0-0.3,0.2-0.4c0.2-0.1,0.4-0.3,0.4-0.4c0-0.1,0.3-0.3,0.4-0.7s0.3-0.3,0.4-0.6c0.1-0.3,0.1-0.3,0.1-0.4
		c0.1-0.1,0-0.3,0.3-0.6c0.3-0.3,0.2-0.4,0.5-0.6c0.3-0.2-0.1,0,0.3-0.2c0.3-0.2,0,0.1,0.3-0.2c0.3-0.3,0.5-0.5,0.7-0.4
		c0.1,0,0.6,0.2,0.7,0.2c0.1,0-0.2,0,0.4,0.1c0.6,0.1,0.5,0,0.6,0.1s0.8,0.5,0.9,0.5c0.1,0,0,0.2,0.5,0c0.4-0.2,0.3-0.5,0.8-0.4
		c0.6,0.1,1,0.4,1.1,0.2c0.1-0.2-0.2-0.3,0.3-0.4s0.5-0.2,0.5-0.2s-0.1-0.1,0.2-0.3c0.4-0.1,0.5-0.2,0.8-0.1s0.6,0.1,0.7-0.1
		c0.1-0.2-0.1-0.3,0.3-0.3c0.5,0,0.3,0,0.5,0s0-0.3,0.5,0.1c0.5,0.3,0.8,1,0.8,1s0.3,0.1,0,0.4c-0.3,0.3-0.3,0.6-0.3,0.6l0.3,0.2
		c0,0,0.2,0,0.3,0.1c0.1,0.1,0.1,0.7,0,0.8c-0.1,0.1-0.6,0.3-0.6,0.3l-0.5,0.3c0,0-0.1,0-0.2-0.2c-0.1-0.2-0.3-0.3-0.3-0.3
		s-0.3,0.1-0.3,0.3c0,0.1,0.3,0.1,0,0.1c-0.3,0-0.4-0.1-0.4-0.1l-0.4,0.1l-0.1,0.4c0,0-0.3,0.1-0.4,0.3c-0.1,0.1-0.3,0.5-0.3,0.5
		s0,0.3-0.1,0.5s-0.2,0.3-0.4,0.4c-0.2,0-0.5,0.2-0.5,0.2s-0.1,0.4-0.4,0.4c-0.3,0-0.7,0.1-0.7,0.2c-0.1,0.1-0.4,0.3-0.4,0.4
		c0,0.1-0.2,0.4-0.2,0.4l-0.4,0.3l0.1,0.4l0,0.2l-0.5,0.3l-0.1,0.3c0,0,0,0.2,0,0.4c0,0.1-0.3,0,0.1,0.4c0.4,0.4,0.6,0.7,0.5,0.8
		c-0.1,0.1-0.1,0.3-0.4,0.4c-0.3,0.1-0.5,0.1-0.8,0.1c-0.3,0-0.7-0.1-0.7-0.2s-0.3-0.3-0.3-0.4s-0.3-0.1-0.3,0c0,0.1,0,0.4,0,0.5
		c0,0.1-0.1,0.2-0.2,0.2c-0.1,0-0.2-0.1-0.3,0c-0.1,0.1-0.1,0.2,0,0.4c0.1,0.1,0.1,0.2,0.3,0.2c0.2,0,0,0,0.3,0.1
		c0.3,0-0.1,0.2,0.1,0.3c0.2,0.1,0.5,0.2,0.4,0.4c0,0.2-0.2,0.2-0.3,0.3c0,0.1-0.2,0.1-0.3,0.4c0,0.3,0,0.4,0,0.6
		c0,0.2,0,0.4-0.1,0.5c-0.1,0.1-0.2,0.2-0.2,0.3c0,0.1-0.1,0.3-0.2,0.3c0,0.1-0.4,0.2-0.5,0.3c-0.1,0.1-0.3,0-0.4,0.2
		c-0.1,0.2-0.3,0.4-0.3,0.6s0,0.4-0.1,0.6c0,0.3,0,0.3-0.1,0.9s-0.2,0.8-0.2,0.9s0,0.6-0.1,0.6c-0.1,0.1-0.4,0.2-0.4,0.4
		c0,0.2-0.2,0.3-0.1,0.6c0,0.3-0.1,0.4,0.1,0.6c0.2,0.2,0.2,0.5,0.4,0.4c0.2-0.1,0.2-0.2,0.4-0.3c0.2-0.1,0.1-0.1,0.3-0.1
		c0.2,0,0.2,0.1,0.4,0.1c0.2,0,0.5,0,0.6,0s-0.2-0.1,0.1,0c0.3,0.1,0,0.1,0.5,0.1c0.5,0,0.5,0,0.6-0.1c0.2-0.1,0.2-0.2,0.4-0.1
		c0.1,0.1,0.4,0.1,0.5,0.1c0.1,0-0.1-0.1,0.2-0.1c0.3,0,0.4-0.1,0.5,0s0.3,0.2,0.5,0.2c0.1,0-0.1-0.1,0.4-0.1c0.5,0,0.6-0.2,0.7,0
		c0.1,0.2-0.2,0,0.3,0.5c0.4,0.5,1.1,1.5,1.1,1.6c0.1,0.1,1.4,1.7,1.7,2s1.6,1.7,2,2c0.4,0.3,1,0.9,1.1,1c0.1,0.1,0.4,0.3,0.4,0.5
		c0,0.2-0.1,0.4,0,0.6c0.1,0.2,0,0.8,0.3,0.9c0.2,0.1,0.2,0.2,0.4,0.2c0.3,0,0.5,0.1,0.7,0.1s0.3,0,0.6,0c0.2,0,0.2,0,0.5,0
		c0.3,0,0.4-0.1,0.8,0c0.4,0.1,0.5,0.6,0.5,0.7c0,0.1,0,0.3,0.1,0.4c0.1,0.1,0,0.1,0.6,0.2c0.6,0.1,0.5,0.1,0.9,0.2
		c0.5,0,0.9,0.3,1,0.3c0.1,0,0.7,0.2,0.9,0.5c0.1,0.2,0.1,0.4,0.1,0.5c0,0.1,0,0.1,0,0.3c0,0.1-0.2,0.4-0.2,0.4s-0.2,0.1-0.2,0.1
		c-0.1,0-0.5,0.1-0.5,0.2s0.1,0.3,0.1,0.3s-0.1,0,0.3,0c0.4,0,0.3,0,0.3,0h0.3c0,0,0.1-0.1,0.4,0.2c0.3,0.3,0.2,0.5,0.2,0.5
		l-0.1,0.2v0.1c0,0-0.1,0,0.1,0.1c0.2,0.1,0.2,0.1,0.2,0.1h-0.6v0.7l0.4,0.4c0,0,0.1-0.1,0.7,0.4c0.6,0.5,0.6,0.5,0.6,0.5l-0.1,0.6
		c0,0-0.6,0.4-0.8,0.4s-0.7,0-0.7,0l-0.6,1.2l-0.6,0.6l-0.3,0.4l-0.4,0.4l-0.3,0.5c0,0,0.1-0.1,0,0.4c-0.1,0.6-0.1,0.6-0.1,0.6h-0.4
		h-0.9c0,0,0-0.1-0.4,0.4c-0.4,0.5-0.2,1-0.2,1l0.5,0.4h0.8h0.6l1.5-1.7l0.4-0.4h0.8c0,0,0.4-0.2,0.6,0.1c0.2,0.3-0.3,0,0.2,0.3
		c0.5,0.3,1.2,0.4,1.2,0.4h0.7l0.4-0.1c-0.2-0.6-0.2-0.6-0.2-0.6l0.4-0.5h0.4l0.9-0.3c0,0,0.4,0.1,0.6,0.3c0.2,0.2,0.7,0.5,0.7,0.5
		s0,0.4-0.2,0.5c-0.2,0.1-0.9-0.1-0.9-0.1v0.4c0,0,0.7,0.2,0.4,0.5c-0.3,0.3-0.3,0.3-0.3,0.3s0.1,0.2,0.1,0.5s0,0.3,0,0.3h-0.7h-1.1
		l-0.1,0.4l-0.1,0.4h-0.4l-0.4,0.7l0.2,0.5h0.6l0.3-0.5c0,0,0.5-0.1,0.7-0.1s0.2,0,0.2,0l-0.5-0.9l0.9-0.1l0.1,0.5l0.3,1l0.4,0.7
		l-0.1,0.7H278l-0.2-0.9h-0.5v0.4c-0.2,0.4-0.4,0.9-0.5,0.4c-0.1-0.5-0.1-0.5-0.1-0.5l-0.4,0.4l-0.1,0.3c0,0-0.3,0.5-0.1,0.6
		c0.2,0.1,0.2-0.1,0.6,0c0.4,0.1,0.8,0,0.8,0s0.4,0.3,0.5,0.4c0.1,0,0.2,0.3,0.2,0.3c0,0-0.1,0.1-0.2,0.1c0,0-0.2,0-0.2,0.1
		c0,0.1,0,0.3,0.2,0.3c0.1,0,0.1,0.1,0.2,0.1c0.1,0,0.2,0.1,0.2,0.1c0,0.1-0.1,0.2-0.2,0.2c-0.1,0-0.2,0.1-0.3,0.1
		c0,0-0.1,0-0.2,0.2s-0.1,0.5,0.1,0.7c0.2,0.2,0.3,0.3,0.5,0.2c0.1,0,0,0,0.2-0.1c0.1,0,0.2,0,0.2,0.1s-0.1,0.1-0.1,0.2
		c0,0,0.1,0.1,0.1,0.1c0.1,0,0.1,0,0.2,0.1c0.1,0,0.2,0.3,0.3,0.4c0,0.1,0,0.4,0,0.4c0,0-0.1,0.4-0.1,0.4s0,0.1-0.1,0.1
		c0,0-0.3,0.1-0.4,0.1c-0.1,0-0.3-0.1-0.4-0.1c-0.1,0-0.2,0-0.2,0.1c0,0.1-0.1,0.2,0,0.3c0,0.1,0.1,0.1,0.1,0.2c0,0.1,0,0.4-0.1,0.4
		c-0.1,0-0.2,0.1-0.2,0.2c0,0-0.1,0.1-0.1,0.2c0,0.1-0.3,0.4-0.3,0.2c0-0.1-0.5-0.2-0.5-0.5c0-0.4-0.1-0.4-0.1-0.6
		c-0.1-0.2-0.1-0.3-0.3-0.3s-0.4,0.4-0.4,0.5c0,0.2-0.2,0.2-0.1,0.5c0.1,0.4,0.1,0.7,0.1,0.7s-0.3,0.3-0.4,0.4
		c-0.1,0.2-0.3,0.5-0.3,0.5s0,0.3,0,0.5c0,0.2,0,0.4,0,0.5c0,0.1,0.1,0.4-0.1,0.6c-0.2,0.2-0.2,0.8-0.2,0.8s0,0,0,0.3
		c0.1,0.4,0.4,0.3,0.4,0.4c0,0.1-0.1,0.6-0.1,0.6s-0.1,0-0.3,0.2c-0.1,0.1-0.1,0.5-0.1,0.5s0.1,0.3,0.1,0.4c0,0.1,0.1,0.4-0.2,0.5
		c-0.3,0.1-0.6,0.2-0.6,0.3c0,0.1-0.2,0.4-0.2,0.4l0,0.3c0,0,0.2-0.3,0.3,0c0.1,0.3,0.4,0.5,0.1,0.7c-0.3,0.1-0.6,0.2-0.6,0.2
		l-0.1,0.3c0,0-0.5-0.1-0.3,0.3c0.1,0.5,0.1,0.5,0.1,0.5s0.2,0.1,0.2,0.4c0,0.3-0.3,0.5-0.3,0.5h-0.3l-0.2,0.2c0,0-0.2,0.3-0.2,0.4
		c0,0.1,0,0.3-0.1,0.4c0,0.1-0.2,0.5-0.2,0.5s0.1-0.1,0.3,0c0.1,0.1,0.3,0.1,0.4,0.3c0.1,0.3,0,0.5-0.2,0.5c-0.1,0-0.5,0.2-0.5,0.2
		s-0.1,0.3-0.1,0.4c0,0.1,0,0.6,0,0.6s0.2,0.1,0.2,0.2c0,0.1-0.2,0.1-0.2,0.4c0,0.3,0.2,0.5,0.2,0.5s-0.1,0.1-0.1,0.3
		s0.2,0.6,0.2,0.6s0.1,0.2,0.1,0.3s-0.2,0-0.2,0.3c0,0.3-0.1,0.4,0,0.5c0.1,0.1-0.3-0.2,0.1,0.1c0.4,0.3,0.7,0.3,0.7,0.3
		s0.2,0,0.2-0.2c0-0.2-0.2-0.3,0-0.5c0.1-0.2,0.8-0.3,0.9-0.2c0.1,0.1,0.3,0.1,0.3,0.4c0,0.3,0,0.3-0.3,0.7
		c-0.3,0.4-0.3,0.6-0.3,0.6s0,0.2-0.3,0.2c-0.3,0-0.8,0-0.9,0c-0.1,0-0.2,0-0.3,0c-0.1,0-0.3,0-0.3,0l-0.4-0.3c0,0-0.4-0.1-0.5,0
		c0,0.1,0.1,0.3,0,0.3c-0.1,0.1-0.5,0.1-0.5,0.2s0.3,0.4,0.5,0.4s0.2-0.1,0.4,0s0.2,0.4,0.2,0.4s-0.1,0.3-0.1,0.4
		c0,0.1,0,0.3-0.1,0.4c0,0.1-0.3,0-0.3,0.3c0,0.3-0.3,0-0.3,0.3s0,0.5-0.2,0.4c-0.2-0.1-0.2-0.2-0.3-0.3c0-0.1-0.5-0.4-0.5-0.4
		s-0.2-0.2-0.2,0.1c0,0.4-0.1,0.4,0,0.6c0.1,0.2,0.3,0,0.4,0.2c0.1,0.2,0.1,0.3,0.1,0.5c0,0.2,0.1,0.5,0,0.6
		c-0.1,0.1-0.3,0.1-0.5,0.2c-0.2,0.1-0.5,0-0.5,0s-0.3,0.2-0.3,0.4s-0.1,0.4,0,0.5c0.1,0.1,0.3,0.2,0.2,0.4
		c-0.1,0.1-0.4,0.3-0.4,0.4c0,0.1,0.3,0.2,0.1,0.4c-0.3,0.2-0.5,0.1-0.7,0c-0.2-0.1-0.3-0.4-0.5-0.3c-0.2,0-0.2,0.2-0.3,0.4
		c-0.1,0.3-0.5,0.8-0.7,0.7c-0.1-0.1-0.1-0.5-0.3-0.2c-0.2,0.3-0.3,0.5-0.2,0.8c0.1,0.3,0.3,0.4,0.4,0.5c0.1,0.1,0,0.4-0.1,0.6
		c-0.1,0.1-0.4,0.1-0.5,0.6c-0.1,0.5-0.2,0.7-0.4,1s-0.5,0.5-0.5,0.8s-0.3,0.7-0.3,0.7s-0.4,0.1-0.5,0.3c-0.1,0.1-0.4,0.3-0.4,0.5
		c0.1,0.2,0,0.2,0,0.4c0,0.2-0.1,0.4-0.3,0.6c-0.2,0.3-0.5,0-0.5,0c0,0,0-0.2,0-0.3s0-0.3-0.2-0.3c-0.1,0-0.3,0.1-0.4,0.2
		c0,0.1-0.1,0.4-0.2,0.5c-0.1,0.1-0.3,0.2-0.5,0.4c-0.1,0.1-0.4,0-0.4,0.3s0.1,0.4,0.3,0.4c0.1,0,0.3,0,0.4,0.2
		c0.1,0.2-0.1,0.4-0.3,0.4c-0.3,0-0.4,0-0.5,0c-0.1,0-0.4,0.2-0.4,0.2l-0.3,0.3c0,0,0.2,0.3,0,0.4c-0.2,0.1-0.5,0-0.5,0l-0.1,0.5
		c0,0,0,0.1,0,0.2c0,0.1,0-0.2-0.1,0.2c-0.1,0.4-0.2,0.4-0.1,0.6c0.1,0.2,0.1,0.4,0.1,0.5c0,0.1,0.1,0.2-0.1,0.5
		c-0.1,0.2-0.3,0.4-0.3,0.4s-0.1-0.1-0.3,0c-0.2,0.1-0.9,0.1-1,0.1c-0.1,0.1-0.4,0.1-0.5,0.2c-0.1,0.1-0.3,0.3-0.4,0.4
		c-0.1,0.1-0.2,0.3-0.5,0.5c-0.2,0.1-0.7,0.4-0.7,0.5c-0.1,0.1-0.3,0.2-0.3,0.2s-0.2,0.1-0.3,0c-0.1-0.1-0.2-0.3-0.2-0.4
		c0-0.1-0.1-0.1-0.3-0.1c-0.2,0-0.3,0-0.4,0.1c-0.1,0.1-0.3,0.2-0.3,0.4c0.1,0.2,0.2,0.4,0.2,0.5c0.1,0.1,0,0.4-0.1,0.5
		s-0.3,0.1-0.5,0c-0.1-0.1-0.4-0.2-0.4-0.3s-0.6-0.5-0.6-0.5c-0.1,0-0.4-0.1-0.6,0.1c-0.2,0.2-0.5,0.4-0.5,0.4s-0.5,0.3-0.6,0.5
		c-0.1,0.2-0.2,0.5-0.2,0.6c0,0.1-0.2,0.2-0.3,0.4c-0.1,0.2,0,0.4-0.2,0.6c-0.2,0.1-0.7,0-0.7,0s-0.4,0.1-0.4,0.3
		c0,0.1,0,0.2-0.1,0.4c-0.1,0.2-0.1,0.2-0.2,0.3c-0.1,0,0.2-0.1-0.5,0c-0.6,0.1-0.7,0.2-0.9,0.3c-0.1,0.1-0.3-0.1-0.4-0.1
		c-0.1,0-0.3,0.2-0.4,0.3c-0.1,0.1-0.5,0.3-0.5,0.7s-0.1,0.5-0.1,0.7c0,0.1-0.1,0.3-0.2,0.3c-0.1,0.1-0.3,0.1-0.5,0.1
		c-0.2,0-0.3,0.1-0.3,0c0-0.1-0.1-0.2,0-0.3c0.1-0.1,0.1-0.2,0.1-0.2s-0.1-0.1-0.2-0.5c-0.1-0.3-0.3-0.6-0.3-0.6s-0.2-0.1-0.3-0.2
		c-0.1-0.1-0.3-0.3-0.3-0.3c0-0.1-0.7-0.4-0.7-0.4s-0.1-0.2-0.3,0c-0.2,0.1-0.4,0.3-0.3,0.5c0.1,0.2,0.1,0.2,0.2,0.4
		c0.1,0.2,0.2,0.3,0.4,0.4c0.1,0.2,0.2,0.5,0,0.7c-0.2,0.1-0.1,0.5-0.3,0.7c-0.2,0.1-0.4,0.4-0.4,0.5s-0.2,0.3-0.3,0.3
		c-0.1,0-0.3,0.1-0.3,0.2c0,0.1,0.2,0.2-0.1,0.4c-0.3,0.2-0.6,0.3-0.7,0.3c-0.1,0-0.5-0.2-0.5-0.2s-0.4-0.2-0.5,0
		c-0.1,0.2-0.1,0.4-0.1,0.5c0,0.1,0,0.3,0,0.5c0,0.2,0,0.4-0.1,0.5c-0.1,0.1-0.3,0.2-0.4,0.2c-0.1,0-0.4-0.1-0.4-0.1l-0.4,0.1
		c0,0,0,0.1-0.2,0.2c-0.1,0.1-0.2,0.1-0.3,0.2c-0.1,0.1-0.1,0.1-0.1,0.2c-0.1,0.1-0.2,0.1-0.4,0.3c-0.1,0.2-0.3,0.2-0.3,0.1
		c-0.1,0-0.4-0.2-0.4-0.2c0-0.1-0.3-0.4-0.4-0.4c-0.1,0-0.8,0-0.5,0.2c0.3,0.2,0.2-0.1,0.3,0.2c0.1,0.3,0.1,0.4,0,0.5
		c-0.1,0.1,0.1,0-0.1,0.1c-0.1,0.1-0.3,0.2-0.3,0.2s-0.1,0.1-0.2,0c-0.1-0.1-0.1-0.1-0.1-0.1l-0.3-0.2l-0.6-0.1c0,0-0.2,0.2-0.2,0.2
		c0,0.1-0.3-0.1-0.4,0.2c-0.1,0.2-0.2,0.4-0.2,0.4s0.1,0,0,0.2c-0.1,0.2-0.3,0.2-0.3,0.2c-0.1,0-0.2,0-0.3,0.1
		c0,0.1-0.3,0.5-0.3,0.5s-0.5,0.4-0.7,0.6c-0.2,0.2-0.6,0.3-0.7,0.4c-0.1,0.1-0.2,0.2-0.3,0.3c-0.1,0.1-0.3,0.2-0.4,0.3
		c-0.1,0.1-0.3,0.1-0.3,0.2c-0.1,0.1-0.5-0.1-0.5,0c-0.1,0.1-0.3,0.2-0.4,0.3c-0.1,0.1-0.3,0.1-0.4,0.2c-0.1,0.1-0.3,0.1-0.4,0.1
		c-0.1,0.1-0.3,0.1-0.5,0.2c-0.1,0.1-0.3,0.1-0.3,0.1c-0.1,0-0.3,0-0.5,0.2c-0.1,0.2-0.1,0.2-0.3,0.2c-0.1,0.1-0.3,0.1-0.3,0.2
		c0,0.1-0.2,0.3-0.2,0.5s0.1,0.2,0,0.3c0,0.1-0.1,0.3-0.3,0.3s-0.3,0.1-0.4,0.1c-0.1,0.1-0.4,0-0.4,0.1c0,0.2,0.1,0.3,0,0.5
		c-0.1,0.2-0.5,0.2-0.6,0.3c-0.1,0.2-0.5,0.1-0.5,0.3c0,0.2,0.5,0.9,0.9,1c0.4,0.1,0.4,0.2,0.6,0.4c0.2,0.2,0.1,0.2,0.3,0.4
		s0.1,0.3,0.2,0.5c0.1,0.2,0.2,0.2,0.2,0.4c0,0.2-0.3,0.4-0.4,0.5c-0.1,0.1-0.4,0-0.4,0.3c0,0.3-1,0.6-1.3,0.6
		c-0.3,0-1.1-0.3-1.2-0.5c-0.1-0.1-0.3-0.9-0.4-1c0-0.1-0.6-0.5-0.7-0.6c0-0.1-0.1-0.2-0.1-0.4c0-0.1-0.1-0.3-0.3-0.7
		c-0.1-0.4-0.6-1.4-0.5-1.5c0-0.1,0.2-0.4,0.3-0.5c0.1-0.1,0.1-0.2,0.2-0.5c0.1-0.3,0.1-0.5,0.1-0.6c0-0.1,0.1-0.1-0.2-0.1
		c-0.3-0.1-0.7-0.2-0.7-0.2s-0.4-0.4-0.5-0.4c-0.1,0-0.5-0.3-0.5-0.1c-0.1,0.1-0.2,0.2-0.2,0.4c-0.1,0.2-0.2,0.4-0.4,0.4
		c-0.1,0-0.2,0-0.5,0c-0.3,0-0.8-0.1-0.9-0.1c-0.1,0-0.6-0.2-0.6-0.2s-0.1-0.1-0.2-0.1c0-0.1-0.2-0.1-0.5-0.2
		c-0.3-0.1-0.6-0.2-0.7-0.2c-0.1,0.1-0.2,0.2-0.3,0.2c-0.1,0-0.3-0.1-0.3-0.1s-0.3-0.1-0.4,0c-0.1,0.1-0.2,0.2-0.3,0.2
		c-0.1,0-0.7-0.1-0.7-0.1s-0.2,0.1-0.1,0.3c0.1,0.2,0.1,0.3,0,0.4s-0.1,0.2-0.5,0.3c-0.3,0.2-0.6,0.3-0.7,0.3c-0.2,0.1-0.5,0-0.5,0
		c-0.1,0,0-0.1-0.3,0c-0.3,0.1-0.6,0.3-0.7,0.5c-0.1,0.1-0.4,0.3-0.5,0.4c-0.1,0.1-0.4,0.1-0.4,0.2c-0.1,0.1-0.3,0.3-0.3,0.3
		c-0.1,0.1-0.2,0.1-0.3,0.2c-0.1,0.1-0.4,0.1-0.5,0.2c-0.1,0.1-0.2-0.1-0.3,0.2c-0.1,0.3-1.2,0.1-1.2,0.1l-1.1-0.1
		c0,0-0.1,0-0.3-0.2c-0.2-0.1-0.6-0.3-0.6-0.3s-0.2-0.1-0.4-0.3c-0.2-0.2-0.9-0.4-1-0.5c-0.1,0-0.4-0.1-0.5-0.2
		c-0.1-0.1-0.5-0.7-0.7-0.8c-0.2-0.1,0,0.2-0.2-0.1c-0.1-0.3-0.1-0.7-0.2-0.9c0-0.2-0.4-0.6-0.5-0.8c0-0.2-0.2-0.5-0.2-0.7
		c0-0.1-0.4-0.8-0.4-0.8s0.4-0.6,0.5-0.8c0.1-0.2,0.2-0.4,0.2-0.4l0-0.7c0,0-0.3,0.2-0.4-0.1c-0.1-0.4-0.2-0.7-0.4-0.7s-0.9,0-0.9,0
		l-0.1,0.4c0,0-0.4,0.4-0.6,0.4c-0.1,0-0.5-0.1-0.5-0.1l-0.5-0.5c0,0-0.1-0.2-0.3-0.2s-0.6,0.3-0.6,0.3l-0.2,0.3
		c0,0-0.6,0.1-0.7,0.1c-0.1,0-0.8-0.2-0.8-0.2l-0.5-0.1l-0.5-0.1c0,0-0.1,0.1-0.3-0.1s-0.7-0.6-0.7-0.6L194,250l-0.4-0.4
		c0,0-0.1-0.1-0.3-0.1c-0.2,0-0.5,0.4-0.5,0.4s0,0.1-0.1,0.3c-0.1,0.1-0.4,0.3-0.4,0.3s-0.5,0.1-0.6,0.1c-0.1,0-0.4,0.2-0.4,0.2
		l-0.2,0.3c0,0,0,0.4,0,0.6c0,0.1-0.1,0.3-0.2,0.5c-0.1,0.2-0.3,0.5-0.5,0.6c-0.2,0.1-1.1,0.3-1.1,0.3s-0.1,0-0.2,0.2
		s-0.1,0.2-0.3,0.3c-0.2,0-0.6,0-0.6,0l-0.5-0.3c0,0-0.3-0.1-0.5-0.1c-0.1,0-0.4,0.1-0.5,0.3c-0.1,0.1-0.2,0.2-0.2,0.4
		c0,0.2-0.2,0.3-0.2,0.5c0,0.1,0.1,0.4-0.1,0.6c-0.3,0.1-0.5,0.1-0.5,0.1s-0.3-0.2-0.4-0.3c-0.1-0.1-0.7-0.6-0.7-0.6
		s-0.2-0.1-0.3-0.1c-0.1,0,0-0.3-0.1,0c-0.2,0.4-0.3,0.6-0.3,0.6l-0.2,0.1l-0.3-0.1l-0.6-0.4l-0.5,0.2c0,0-0.1,0.2-0.2,0.4
		s-0.4,0.7-0.4,0.7s-0.8,0.9-1,0.9c-0.1,0-0.5-0.2-0.6-0.3c0-0.1,0-0.2-0.1-0.3c-0.1-0.1-0.6-0.5-0.6-0.5l-0.5,0c0,0-0.1,0-0.4,0
		c-0.2,0-0.8-0.1-0.8-0.1l-0.4,0c0,0-0.2,0.3-0.4,0.4c-0.1,0.1-0.2,0.1-0.4,0.3c-0.1,0.2-0.3,0.4-0.3,0.5c0,0.1-0.1,0.3-0.2,0.5
		s-0.2,0.2-0.4,0.3c-0.2,0.1-0.4,0.1-0.5,0.1s-0.4,0-0.5,0.1c0,0.1-0.2,0.3-0.3,0.3c-0.1,0-0.2,0.1-0.3-0.1
		c-0.1-0.1-0.6-0.4-0.6-0.4s-0.3-0.1-0.4,0.1c0,0.2-0.3,0.3-0.4,0.5c-0.1,0.2-0.2,0.2-0.3,0.5c0,0.3-0.2,0.7-0.1,1.1
		c0.1,0.3,0.1,0.6,0.3,0.8c0.2,0.2,0.3,0.4,0.4,0.4c0.1,0.1,0.1,0.1,0.3,0.3c0.2,0.2,0.3,0.2,0.3,0.9s0,1,0,1.3
		c0,0.3-0.1,0.6-0.1,0.7c0,0.1,0.1,0.1,0.2,0.3c0.1,0.2,0.2,0.3,0.2,0.4c0,0.1,0.2,0.2-0.1,0.3c-0.3,0-0.6,0-0.9-0.1
		c-0.3-0.1-0.9,0-0.9,0s-0.3,0.3-0.5,0.4c-0.1,0.1-0.3,0-0.4,0c-0.1,0-0.4,0.2-0.3-0.3c0-0.5,0-0.5,0-0.7c0-0.2-0.2-0.5-0.3-0.7
		c-0.1-0.2-0.3-0.3-0.3-0.5c0-0.2-0.4-0.5-0.4-0.5s-0.9-0.3-1.1-0.2c-0.2,0.1-0.5,0.4-0.6,0.5c-0.1,0.1-0.6,0.6-0.6,0.7
		c0,0.1-0.4,0.3-0.5,0.4c-0.1,0-1,0.1-1,0.1l-0.3,0c0,0-0.1,0-0.3,0c-0.2,0.1-0.5,0.1-0.6,0.2s-0.5,0.1-0.5,0s-0.1-0.3-0.2-0.4
		c0-0.1-0.3-0.5-0.5-0.6c-0.1-0.1-0.7-0.2-0.7-0.4c0-0.1-0.2-0.1-0.2-0.4c0-0.3-0.1-0.8-0.2-0.9c-0.1-0.1-0.3-0.3-0.6-0.3
		s-0.8,0-1,0c-0.2,0-0.8,0-1.1,0s-1-0.1-1.2-0.1c-0.1,0-0.4,0-0.4,0c0,0-0.2-0.1-0.2-0.2c0-0.1,0.1-0.7,0.2-0.9
		c0.2-0.2,0.2-0.3,0.3-0.4c0.1-0.1,0.1-0.1,0.1-0.3c0-0.2,0-0.7,0-0.8c0-0.1,0-0.1,0-0.4c0-0.3-0.3-0.3,0.1-0.6
		c0.4-0.3,0.5-0.8,0.8-1s0.2-0.4,0.2-0.5c0-0.1-0.3-0.4-0.4-0.4c-0.1,0-0.8-0.1-1-0.1c-0.2,0-0.6,0.1-0.8,0.1
		c-0.2,0-0.6-0.1-0.7-0.2c-0.1-0.1-0.5-0.4-0.5-0.5c0-0.1-0.5-0.2-0.5-0.4s0-0.5,0-0.5s0,0.1-0.1-0.2s-0.4-0.4-0.3-0.6
		c0.1-0.2,0.1-0.2,0.1-0.4c0-0.2-0.1-0.3-0.2-0.5c-0.1-0.2-0.2-0.4-0.3-0.4c0-0.1-0.1,0-0.2-0.1s-0.2-0.3-0.2-0.4
		c0-0.1-0.1-0.1,0.1-0.3c0.2-0.1,0.4-0.4,0.4-0.4s0.1-0.5,0-0.6c0-0.1-0.1-0.3-0.3-0.4c-0.2,0,0-0.2-0.4,0c-0.4,0.1-0.9,0.2-0.9,0.2
		c-0.1,0-0.5,0.1-0.5,0.1h-0.4c0,0,0-0.1-0.2-0.1c-0.2,0-0.7,0.1-0.8,0.1c-0.1,0-0.3,0-0.5,0c-0.1,0-0.4-0.1-0.5,0s-0.7,0.4-0.7,0.4
		s-0.3,0.2-0.4,0.3s-0.5,0.4-0.7,0.5c-0.1,0.1-0.4,0.3-0.7,0.4c-0.3,0-0.7,0-0.7-0.2c0-0.1,0.3-0.3,0.4-0.5c0.1-0.2,0.2-0.6,0.2-0.8
		s-0.1-0.3-0.1-0.6c0-0.2-0.1-0.4-0.1-0.4s-0.3-0.2-0.5-0.3c-0.1-0.1-0.5-0.2-0.5-0.3c0-0.1-0.1-0.3-0.1-0.4c0-0.1-0.2-0.2,0-0.5
		c0.1-0.2,0.1-0.4,0.2-0.5s0-0.3,0.4-0.5c0.3-0.1,0.5-0.2,0.5-0.2c0.1-0.1,0.1,0,0.1-0.2c0-0.1,0-0.6,0-0.6s-0.6-1.1-0.2-1.3
		c0.4-0.2,0.6-0.4,0.7-0.4c0.1,0,0.3-0.1,0.6-0.2c0.3-0.1,0.5-0.1,0.6-0.4c0.1-0.3,0.1-0.5,0.2-0.7s-0.1-0.2,0-0.5
		c0.1-0.3,0.1-0.4,0.4-0.5c0.3-0.1,0.2,0,0.5-0.2c0.3-0.2,0.5-0.5,0.6-0.7c0.1-0.2,0.2-0.3,0.4-0.4s0,0,0.4-0.1
		c0.3,0,0.7-0.1,0.8-0.2c0-0.1,0.2-0.3,0-0.5c-0.1-0.2-0.3-0.1-0.5-0.4c-0.2-0.2-0.5-0.1-0.3-0.5c0.2-0.3,0.2-0.4,0.4-0.4
		s0,0.3,0.2-0.1s0.1-0.1,0.1-0.7s0-3,0-3.3c0-0.2-0.2-0.9-0.2-1.3c0-0.4-0.1-0.2-0.1-0.7c0-0.5-0.4-1.5-0.3-1.7
		c0-0.2-0.1-0.6-0.1-0.6s-0.3,0-0.4,0c-0.1,0-0.6-0.2-0.8-0.2c-0.1-0.1-0.5-0.1-0.6,0c0,0.1-0.3,0.4-0.5,0.4c-0.2,0-0.5-0.1-0.5-0.4
		c0-0.2-0.2-0.8-0.3-1c0-0.2-0.2-0.4-0.3-0.8c-0.1-0.3-0.3-0.4-0.4-0.8c-0.1-0.3,0-0.5-0.2-0.6s-0.8-0.4-0.9-0.4
		c-0.1-0.1-0.4-0.2-0.5-0.2c-0.1,0-0.5-0.1-0.6-0.1s-0.2-0.2-0.2-0.2l-0.1-0.3c0,0-0.3-0.1-0.4-0.1c-0.1,0-0.6,0.2-0.7,0.4
		c-0.1,0.2-0.3,0.5-0.4,0.7c-0.1,0.1,0.3,0.6-0.4,0.5c-0.7-0.1-0.9-0.1-0.9-0.2s-0.1-0.4-0.2-0.5c-0.1-0.1-0.8,0-0.9,0
		c-0.2,0-0.3,0.1-0.5,0.1c-0.2,0-0.8,0-0.8,0l-0.4-0.3c0,0-0.3-0.2-0.4-0.2s-0.2,0-0.3,0.1c-0.1,0.1-0.2,0.2-0.3,0.2
		c-0.1,0-0.3,0.1-0.4,0c-0.1,0-0.2-0.1-0.2-0.1l-0.1-0.4l0.5-0.5c0,0,0.2-0.2,0.3-0.3c0.1-0.1,0.2-0.6,0.2-0.9c0-0.2,0-0.2-0.1-0.4
		c-0.1-0.2-0.5-0.9-0.5-0.9l-0.5-0.2c0,0-0.2,0.4-0.4,0.4c-0.1,0-0.4,0.3-0.5,0.2s-0.3-0.2-0.3-0.4s0-0.3,0.2-0.6
		c0.2-0.2,0.3-0.4,0.2-0.6c-0.1-0.2-0.4-0.7-0.4-0.7s-0.3-0.2-0.3-0.3c0-0.1-0.2-0.2-0.2-0.2s0-0.1-0.4,0c-0.4,0.1-1,0.3-1,0.3
		s-0.4,0.4-0.5,0.5s-0.2,0.2-0.4,0.3c-0.2,0.1-0.6,0.1-0.7,0.3s-0.3,0.3-0.4,0.5c0,0.2,0.1,0.3-0.3,0.4c-0.4,0.1-1.2,0.1-1.2,0
		c-0.1-0.1-0.4-0.3-0.6-0.3c-0.2,0-0.6-0.1-0.9-0.1s-0.5-0.1-0.5-0.1s-0.5-0.4-0.6-0.4c-0.1-0.1-0.3-0.3-0.5-0.3
		c-0.2,0-0.7,0.1-0.9,0.2c-0.2,0.1-1.6,1.6-1.6,1.6s-0.5,0.1-0.5,0.2c-0.1,0.2-0.2,0.2-0.3,0.4c-0.1,0.2-0.2,0.4-0.4,0.6
		c-0.3,0.1-0.3,0.1-0.5,0.2c-0.1,0.1-0.1,0.1-0.5,0.3c-0.4,0.2-1,0.4-1.1,0.4s-0.7-0.1-0.9-0.1c-0.1,0-0.6,0.1-0.7,0.2
		s-0.3,0-0.4,0.3s-0.2,0.7-0.2,0.9c-0.1,0.2-0.8,0.8-1,1c-0.2,0.2-0.6,0.5-0.6,0.5c0,0.1-0.4,0.2-0.5,0.3c-0.1,0-0.3,0.1-0.4,0.2
		c-0.1,0.1-0.3,0.5-0.3,0.6c0,0.1-0.3,0.5-0.4,0.5c-0.1,0-0.3,0.1-0.3,0.1s-0.1,0.2-0.4,0.3s-0.6,0.1-0.7,0.1c-0.2,0-0.5,0-0.8,0.2
		c-0.3,0.1-0.7,0.2-0.9,0.3c-0.2,0-0.5,0.2-0.9,0.1c-0.4,0-0.7-0.1-1-0.3c-0.4-0.2-0.4,0-0.6-0.3c-0.1-0.3-0.6-0.5-0.7-0.6
		s-0.6-0.4-0.7-0.4c-0.1,0-0.7-0.1-0.9,0c-0.1,0.1-0.2,0.2-0.5,0.3c-0.3,0.1-0.6,0.3-0.9,0.1c-0.3-0.1-0.6-0.2-0.7-0.3
		c-0.1-0.1-0.4-0.1-0.7-0.1c-0.3,0-0.4,0-0.7,0c-0.3,0-0.9-0.2-1-0.4c-0.1-0.2-0.1-0.1-0.3-0.4c-0.2-0.3-0.5-0.6-0.9-0.6
		c-0.3,0-0.8,0.2-1,0.2c-0.2,0-0.9,0.1-1,0.2c-0.1,0.1-0.7,0.3-0.8,0.5c-0.1,0.1-0.8,0.7-1.1,1c-0.3,0.3-1.1,1-1.5,1.4
		c-0.3,0.4-1,0.9-1.1,1c-0.1,0.1-0.4,0.2-0.5,0.3c-0.1,0.1-0.5,0.3-0.6,0.4s-0.6,0.2-0.7,0c0-0.1-0.2-0.3-0.2-0.6
		c0-0.2-0.2-0.2,0.1-0.4s0.4-0.5,0.4-0.8c0-0.2-0.1-0.5-0.2-0.7c-0.1-0.2-0.2-0.1-0.2-0.4c0-0.3-0.1-0.6-0.2-0.7s-0.6-0.2-0.8-0.2
		c-0.1,0-0.4,0.1-0.6,0.3c-0.2,0.1-1.1,0.6-1.3,0.8c-0.2,0.1-0.7,0.3-1,0.3c-0.3,0-0.3,0-1.1,0s-1.8,0-1.8,0s-1.2-0.1-1.2-0.1
		s-0.8,0.1-1.2-0.1c-0.3-0.1-1-0.3-1.1-0.4c-0.1-0.1-0.9-0.5-1.2-0.7c-0.2-0.2-0.5-0.4-0.6-0.5c-0.1-0.1-0.4-0.2-0.4-0.2
		c-0.1,0-0.1,0.3-0.3,0.5s-0.3,0.5-0.7,0.6c-0.4,0.1-0.7,0.2-0.8,0c0-0.2-0.4-0.6-0.7-0.7c-0.3-0.1-0.5-0.3-0.8-0.2
		c-0.2,0.1-0.6,0.1-0.6,0.1c-0.1,0-0.6-0.3-0.7-0.4c-0.1-0.1-0.5-0.5-0.8-0.6c-0.3-0.1-1.5-0.3-1.6-0.3s-0.5,0-0.8-0.3
		c-0.2-0.3-0.6-0.5-0.6-0.7c0-0.2,0-0.6-0.4-0.7c-0.4-0.1-0.7-0.1-1.2-0.2s-1.4-0.1-1.4-0.1s-0.5-0.8-0.6-0.9
		c-0.1-0.2-0.4-0.4-0.7-0.6c-0.3-0.2-0.4-0.1-0.6-0.4c-0.2-0.3-0.3-0.3-0.3-0.5c0-0.2-0.3-0.9-0.3-1c0-0.1-0.3-0.4-0.4-0.5
		c-0.1,0-0.5-0.2-0.7-0.2s-0.4,0-0.5,0c-0.1,0.1-0.3,0.2-0.4,0.4c-0.1,0.1-0.5,0.4-0.7,0.4c-0.1-0.1-0.4,0-0.6-0.3
		c-0.2-0.3-0.2-0.5-0.3-0.7c-0.1-0.2-0.2-0.4-0.4-0.7c-0.1-0.3-0.1-0.3-0.3-0.5c-0.2-0.2-0.5-0.3-0.6-0.5c-0.1-0.1-0.1-0.2-0.3-0.4
		c-0.2-0.1-0.1-0.1-0.5-0.2c-0.3-0.1-0.4-0.2-0.4-0.2s0.1,0.3-0.5-0.2c-0.7-0.5-1.1-0.7-1.2-0.8c-0.1,0-1.1-0.6-1.2-0.8
		s-0.2-0.3-0.3-0.5c-0.1-0.2-0.4-0.6-0.7-0.7c-0.2-0.1-0.4-0.2-0.6-0.3c-0.2-0.1-0.4-0.4-0.5-0.5c0-0.1-0.1-0.2-0.3-0.4
		c-0.3-0.2-0.4-0.2-0.5-0.4c0-0.1-0.2-0.5-0.4-0.5c-0.2-0.1-0.4-0.3-0.9-0.2c-0.5,0.1-1.1,0.1-1.3,0.2c-0.1,0.1-0.3,0.1-0.4,0.4
		c0,0.2-0.1,0.4-0.1,0.6c0,0.1,0,0.6-0.1,0.7c-0.1,0.1-0.3,0.3-0.5,0.3s-0.4,0.3-0.7,0c-0.3-0.3-0.4-0.3-0.5-0.5
		c0-0.2-0.1-0.5-0.4-0.6c-0.2-0.1-0.5-0.4-0.9-0.7s-0.6-0.4-0.8-0.7c-0.2-0.2-0.5-0.3-0.6-0.5c-0.1-0.1-0.4-0.3-0.6-0.4
		c-0.1,0-0.7,0-0.9-0.1c-0.3-0.1-0.5-0.3-0.5-0.5c0-0.1,0-0.4-0.1-0.7c-0.1-0.3-0.3-0.4-0.5-0.6c-0.3-0.2-0.7-0.4-0.7-0.4l-0.3-0.4
		c0,0-0.5-0.3-0.8-0.3s-1-0.3-1-0.3s-0.1-0.1-0.1-0.3c0-0.1,0-0.2,0-0.5c0-0.2-0.4-0.5-0.5-0.6s-0.7-0.5-0.8-0.5
		c-0.1,0-0.3,0-0.3-0.1c0-0.2,0.1-0.2-0.1-0.4s-0.3-0.3-0.5-0.2c-0.2,0.1,0,0.2-0.5,0.2c-0.5,0-1,0.1-1-0.2c0-0.3-0.1-0.6,0-0.8
		c0.1-0.2,0.2-0.8,0.1-1.1s-0.3-0.3-0.2-0.5c0.1-0.2,0.2-0.3,0.2-0.5c0-0.2,0.2-0.2,0-0.5s-0.1-0.2-0.4-0.4
		c-0.3-0.2-0.7-0.7-0.8-0.9c0-0.2-0.2-0.3,0-0.6c0.2-0.3,0.3-0.6,0.3-0.6s0.1-0.1,0-0.5c-0.1-0.3-0.2-0.6,0-0.7
		c0.2-0.1,1-0.2,1.1-0.1c0.1,0.1,0.4,0.6,0.7,0.9c0.3,0.3,0.6,0.7,0.9,0.6c0.3-0.1,0.6-0.1,0.7-0.3c0.1-0.2,0.2-0.5,0.2-0.7
		c0-0.2,0.1-0.4,0.2-0.7s0.1-0.1,0.1-0.7s0-0.6,0-0.9c0.1-0.3,0.1-1.4,0-1.7c0-0.2-0.1-0.1-0.3-0.5c-0.3-0.4-0.6-0.6-0.6-0.8
		c0-0.2-0.1-0.4-0.2-0.7c-0.1-0.3-0.2-0.2-0.2-0.7c0-0.4,0-0.8,0-1.1c0-0.3-0.1-1,0.1-1.1c0.1-0.2,0.1-0.2,0.4-0.4
		c0.3-0.1,0.4-0.2,0.6-0.3c0.2-0.1,0.3-0.1,0.3-0.3c0-0.2,0.1-0.4,0-0.5c-0.1-0.1,0.2,0.2-0.3-0.3c-0.5-0.4-0.5-0.3-0.8-0.6
		c-0.2-0.3-0.8-0.5-1-0.6c-0.2-0.1-0.3,0-0.6-0.5c-0.3-0.4-0.7-0.4-0.8-0.7c-0.1-0.3-0.1-0.3-0.1-0.5c0-0.2-0.1-0.9-0.1-1
		s0-0.3-0.1-0.5c-0.1-0.2-0.2-0.2-0.4-0.4c-0.2-0.2-0.4-0.3-0.5-0.5c-0.1-0.2-0.2-0.2-0.2-0.5c0-0.2,0.1-0.5,0.1-0.7
		c0-0.2,0.1-0.3-0.1-0.4c-0.2-0.1-0.4-0.1-0.9-0.2c-0.5-0.1-0.9,0-1-0.2c-0.2-0.1-0.5-0.3-0.7-0.3c-0.1-0.1-0.4-0.1-0.7-0.3
		c-0.3-0.2-0.6-0.3-0.7-0.5c-0.1-0.2-0.1-0.3-0.5-0.4c-0.4-0.1-1-0.4-1-0.5s-0.2-0.4-0.4-0.6c-0.1-0.2-0.3-0.3-0.5-0.4
		c-0.2-0.1-0.6-0.1-0.8-0.2c-0.2,0-0.9-0.2-1-0.2c-0.1-0.1-0.8-0.2-0.9-0.6c-0.1-0.4,0.1-1.3,0.3-1.6c0.1-0.2,0.2-0.8,0.2-1
		c-0.1-0.2-0.2-0.6-0.3-0.9c-0.1-0.2-0.1-0.4-0.4-0.7c-0.3-0.3-0.4-0.3-0.9-0.6c-0.5-0.2-0.8-0.1-0.9-0.6c-0.1-0.4-0.1-0.5-0.2-0.6
		c-0.1-0.1-0.1-0.2-0.3-0.4c-0.2-0.2-0.3-0.3-0.7-0.3c-0.3,0-0.8,0-1-0.1c-0.2-0.1-0.9-0.4-1.5-0.8c-0.6-0.3-0.9-0.7-0.8-0.9
		c0.2-0.3,0.2-0.5,0.5-0.6c0.2,0,0.5-0.1,0.7,0.1c0.2,0.2,0.4,0.4,0.7,0.4c0.3,0,0.4,0.1,0.6,0.1c0.1,0,0.5,0,0.7-0.2
		c0.1-0.2,0.2-0.3,0.2-0.5c0-0.1,0.2-0.3-0.1-0.8c-0.3-0.5-0.4-0.8-0.3-1.2c0.1-0.4,0.3-0.8,0.2-1.2c-0.1-0.4-0.2-0.5-0.2-0.9
		c0.1-0.4,0.1-0.6,0.1-1c-0.1-0.4-0.2-0.5-0.1-0.7c0.1-0.2,0.2-0.3,0.1-0.5c-0.1-0.2-0.3-0.4-0.4-0.5c-0.1-0.1-0.5-0.4-0.6-0.5
		c-0.1-0.1-0.3-0.3-0.5-0.5c-0.2-0.1-1-0.4-1-0.3c-0.1,0-0.2,0-0.4,0.2c-0.2,0.2-0.1,0.4-0.4,0.4c-0.3,0-0.9-1-0.9-1.3
		c0-0.3-0.2-0.6-0.1-0.8c0.1-0.1,0-0.3,0-0.5C21.5,158.3,21.5,157.5,21.5,157.5z"/>
	<g>
		<path class="st3" d="M52.9,37.6c-0.1,0.1-0.1,0.3-0.2,0.4c-0.2,0.1-0.3,0.2-0.5,0.3c-4.2,2.4-8.3,4.8-12.5,7.2
			c-0.1,0.1-0.3,0.2-0.4,0.2c-0.5,0.2-0.6,0.2-0.9-0.2c-0.3-0.4-0.5-0.9-0.8-1.3c-0.8-1.4-1.6-2.8-2.4-4.2c-0.3-0.5-0.2-0.7,0.3-1
			c0.4-0.2,0.8-0.5,1.2-0.7c3.8-2.2,7.5-4.3,11.3-6.5c0.3-0.2,0.6-0.4,1-0.5c0.1,0,0.3,0,0.4,0.1c0.1,0.1,0.2,0.2,0.3,0.4
			c1,1.8,2.1,3.6,3.1,5.4C52.7,37.3,52.8,37.4,52.9,37.6z"/>
		<path class="st4" d="M22.2,128.2c-0.1,0.2-0.2,0.4-0.4,0.5c-1,1-2,1.9-3.1,2.8c-0.6,0.5-1.1,1-1.7,1.6c-0.3,0.3-0.6,0.2-0.8-0.1
			c-0.1-0.1-0.3-0.3-0.4-0.5c-3.2-3.5-6.4-7-9.6-10.5c-0.2-0.2-0.3-0.4-0.5-0.6c-0.1-0.1,0-0.3,0-0.4c0.1-0.1,0.1-0.2,0.2-0.2
			c1.6-1.4,3.1-2.9,4.7-4.3c0.5-0.4,0.6-0.4,1,0.1c1.4,1.5,2.7,3,4.1,4.4c2,2.2,4,4.3,6,6.5C21.8,127.8,22,128,22.2,128.2z"/>
		<path class="st5" d="M313,51.3c-0.1,0.1-0.1,0.3-0.2,0.4c-1.9,2.5-3.8,4.9-5.7,7.4c-0.3,0.4-0.5,0.5-0.9,0.2
			c-1.1-0.8-2.2-1.7-3.3-2.5c-0.3-0.2-0.3-0.5-0.1-0.8c0.5-0.7,1-1.3,1.5-2c1.4-1.8,2.7-3.5,4.1-5.3c0.6-0.7,0.6-0.7,1.3-0.1
			c1,0.7,2,1.5,3,2.3C312.9,50.9,313,51.1,313,51.3z"/>
		<path class="st5" d="M272.2,98.3c-0.3,0-0.4-0.1-0.5-0.4c-0.4-1.3-0.7-2.7-1-4c-0.1-0.5,0-0.7,0.6-0.9c1.8-0.5,3.7-1,5.5-1.5
			c1.1-0.3,2.2-0.6,3.3-0.9c0.6-0.1,0.7-0.1,0.9,0.5c0.3,1.2,0.7,2.5,1,3.7c0.2,0.6,0.1,0.7-0.5,0.9c-1.9,0.5-3.9,1-5.8,1.5
			c-1,0.3-2,0.5-3,0.8C272.5,98.3,272.3,98.3,272.2,98.3z"/>
		<path class="st2" d="M47.9,167c0.3,0,0.5,0.1,0.5,0.3c0.4,1.4,0.8,2.9,1.2,4.3c0.1,0.2,0,0.4-0.3,0.5c-0.2,0.1-0.5,0.2-0.7,0.2
			c-2.7,0.7-5.4,1.4-8.1,2.1c-0.1,0-0.3,0.1-0.5,0.1c-0.5,0.1-0.7,0-0.8-0.5c-0.3-1.2-0.7-2.4-0.9-3.6c-0.2-0.9-0.1-1,0.7-1.2
			c2.1-0.6,4.2-1.1,6.3-1.6C46.2,167.4,47.1,167.2,47.9,167z"/>
		<path class="st2" d="M87.5,60.7c0.3,0,0.5,0.1,0.5,0.3c0.4,1.4,0.8,2.9,1.2,4.3c0.1,0.2,0,0.4-0.3,0.5c-0.2,0.1-0.5,0.2-0.7,0.2
			c-2.7,0.7-5.4,1.4-8.1,2.1c-0.1,0-0.3,0.1-0.5,0.1c-0.5,0.1-0.7,0-0.8-0.5c-0.3-1.2-0.7-2.4-0.9-3.6c-0.2-0.9-0.1-1,0.7-1.2
			c2.1-0.6,4.2-1.1,6.3-1.6C85.8,61.1,86.7,60.9,87.5,60.7z"/>
		<path class="st2" d="M327.8,175.3c0,0.4-0.1,0.6-0.3,0.6c-0.1,0.1-0.3,0.1-0.4,0.1c-2.9,0.8-5.8,1.5-8.7,2.3
			c-0.6,0.2-0.8,0.1-0.9-0.5c-0.4-1.3-0.7-2.6-1-3.9c-0.1-0.5,0-0.6,0.5-0.8c1.8-0.5,3.7-1,5.5-1.5c1.1-0.3,2.3-0.6,3.4-0.9
			c0.3-0.1,0.6-0.1,0.8,0.3C327.1,172.6,327.5,174,327.8,175.3z"/>
		<path class="st4" d="M279,145.7c0,0.3-0.1,0.5-0.3,0.5c-1.4,0.4-2.9,0.7-4.4,1.1c-0.3,0.1-0.5-0.1-0.5-0.4
			c-0.3-1.2-0.6-2.5-0.9-3.8c-0.4-1.8-0.9-3.6-1.3-5.4c-0.1-0.5-0.1-0.6,0.5-0.8c1.3-0.3,2.7-0.7,4.1-1c0.3-0.1,0.5,0,0.6,0.3
			c0.1,0.2,0.1,0.4,0.2,0.6c0.7,2.8,1.4,5.6,2,8.4C278.9,145.4,279,145.5,279,145.7z"/>
		<path class="st5" d="M96.2,21.1c-0.1,0.1-0.2,0.3-0.3,0.5c-0.7,0.9-1.4,1.8-2.1,2.7c-1.1,1.5-2.3,3-3.4,4.4
			c-0.6,0.7-0.6,0.7-1.3,0.1c-1-0.8-2.1-1.6-3.1-2.4c-0.2-0.2-0.3-0.4-0.1-0.7c0.1-0.2,0.3-0.4,0.5-0.6c1.6-2.1,3.3-4.3,4.9-6.4
			c0.2-0.2,0.4-0.5,0.6-0.7c0.2-0.2,0.4-0.2,0.6-0.1c1.2,0.9,2.4,1.8,3.6,2.7C96.1,20.8,96.1,20.9,96.2,21.1z"/>
		<path class="st2" d="M316.4,107.3c-2.1,0-3.6-1.6-3.6-3.6c0-2.1,1.6-3.7,3.7-3.7c2,0,3.6,1.7,3.6,3.7
			C320.1,105.8,318.3,107.3,316.4,107.3z M318.9,103.6c-0.1-1.5-1.3-2.4-2.5-2.4c-1.4,0-2.4,1.2-2.4,2.5c0.1,1.3,1.1,2.3,2.4,2.3
			C317.8,106,318.9,104.9,318.9,103.6z"/>
		<path class="st5" d="M256.1,104.3c2,0,3.7,1.5,3.7,3.6c0.1,2-1.7,3.8-3.7,3.8c-2,0-3.7-1.7-3.7-3.7
			C252.4,106,254,104.3,256.1,104.3z M258.6,108c0-1.3-1.2-2.5-2.5-2.4c-1.3,0-2.5,1.2-2.4,2.5c0.1,1.3,1.2,2.4,2.4,2.4
			C257.4,110.5,258.6,109.3,258.6,108z"/>
		<path class="st2" d="M9,188.6c0,1.9-1.5,3.5-3.4,3.5c-1.9,0-3.4-1.5-3.5-3.4c0-1.9,1.5-3.5,3.4-3.5C7.4,185.2,9,186.7,9,188.6z
			 M5.5,186.4c-1.2,0-2.2,1.1-2.1,2.4c0.1,1.2,1.1,2.1,2.3,2.1c1.2,0,2.2-1.1,2.2-2.4C7.7,187.4,6.7,186.4,5.5,186.4z"/>
		<path class="st2" d="M47.9,84.8c0,1.9-1.5,3.5-3.4,3.5c-1.9,0-3.4-1.5-3.5-3.4c0-1.9,1.5-3.5,3.4-3.5
			C46.3,81.3,47.9,82.9,47.9,84.8z M44.4,82.6c-1.2,0-2.2,1.1-2.1,2.4c0.1,1.2,1.1,2.1,2.3,2.1c1.2,0,2.2-1.1,2.2-2.4
			C46.6,83.5,45.6,82.5,44.4,82.6z"/>
		<path class="st4" d="M72.9,150.7c-1.9,0-3.5-1.6-3.4-3.5c0-1.9,1.6-3.4,3.5-3.4c1.9,0,3.4,1.6,3.4,3.5
			C76.4,149.2,74.9,150.7,72.9,150.7z M73,145c-1.2,0-2.3,1-2.3,2.2c0,1.2,1,2.2,2.2,2.2c1.3,0,2.3-1,2.3-2.2
			C75.2,146,74.2,145.1,73,145z"/>
		<path class="st2" d="M6.9,74.4c0,1.9-1.5,3.4-3.5,3.4c-1.9,0-3.4-1.7-3.4-3.5c0-1.9,1.7-3.4,3.5-3.4C5.4,70.9,6.9,72.5,6.9,74.4z
			 M5.7,74.3c0-1.2-1-2.2-2.2-2.2c-1.2,0-2.3,1.1-2.3,2.3c0,1.2,1.1,2.3,2.3,2.2C4.7,76.5,5.7,75.5,5.7,74.3z"/>
		<path class="st3" d="M263,37.3c0-1.4,1.1-2.5,2.5-2.5c1.4,0,2.4,1.1,2.4,2.5c0,1.5-1.1,2.5-2.5,2.5C264,39.7,263,38.7,263,37.3z
			 M264.2,37.4c0,0.7,0.7,1.2,1.4,1.2c0.7-0.1,1.2-0.7,1.1-1.4c-0.1-0.6-0.6-1.1-1.3-1.1C264.8,36,264.2,36.7,264.2,37.4z"/>
		<path class="st3" d="M73,28.6c1.4,0,2.5,1.1,2.4,2.6c-0.1,1.4-1.1,2.4-2.5,2.4c-1.4,0-2.4-1.1-2.5-2.4
			C70.5,29.7,71.6,28.6,73,28.6z M74.2,31.1c0-0.7-0.6-1.3-1.2-1.3c-0.7,0-1.3,0.6-1.3,1.3c0,0.6,0.5,1.2,1.2,1.2
			C73.6,32.4,74.2,31.8,74.2,31.1z"/>
		<path class="st4" d="M312.1,137.2c-1.3,0-2.4-1.1-2.4-2.5c0-1.4,1.2-2.5,2.6-2.5c1.4,0,2.4,1.1,2.4,2.5
			C314.7,136.1,313.5,137.2,312.1,137.2z M312.1,133.4c-0.7,0-1.3,0.6-1.2,1.3c0,0.7,0.7,1.3,1.4,1.2c0.6-0.1,1.1-0.6,1.1-1.2
			C313.4,134,312.8,133.4,312.1,133.4z"/>
		<path class="st4" d="M43.9,127.2c0,1.3-1,2.5-2.4,2.5c-1.4,0.1-2.6-1-2.6-2.4c0-1.3,1-2.5,2.4-2.5
			C42.7,124.7,43.9,125.8,43.9,127.2z M42.7,127.2c0-0.7-0.7-1.2-1.4-1.2c-0.7,0-1.2,0.7-1.2,1.4c0.1,0.6,0.6,1.1,1.3,1.1
			C42.1,128.5,42.7,127.9,42.7,127.2z"/>
	</g>
	<g>
		<line class="st6" x1="95.6" y1="36.9" x2="151.1" y2="205.3"/>
		<g>
			<path class="st7" d="M241.8,87.9c-20.1,17-46.2,16.5-70.9,19.8c-8.1-24.6-16.2-49.2-24.3-73.8c24.7-3.6,50.6-3.4,70.5-20.9
				C225.4,37.9,233.6,62.9,241.8,87.9z"/>
			<path d="M180.7,29.2c6.8,20.7,13.7,41.4,20.5,62.1c-9,5.9-18.4,10.7-27.6,16c-0.9,0.1-1.8,0.2-2.6,0.3
				c-8.1-24.6-16.2-49.2-24.3-73.8C157.9,32.2,169.5,31.4,180.7,29.2z"/>
			<path class="st7" d="M196,89.3c-25.8,3.9-53.3,2.6-74.4,20.7c-8.1-24.5-16.1-49-24.2-73.5c21-18.2,48.5-17.1,74.1-21.4
				C179.7,39.9,187.8,64.6,196,89.3z"/>
			<g>
				<path class="st8" d="M120.9,35.7c1.8,2.3,3.5,4.7,5.3,7.1c2.8-0.9,5.7-1.7,8.6-2.4c-1.8,2.2-3.6,4.5-5.3,6.9
					c1.8,2.4,3.5,4.8,5.3,7.3c-2.9-1-5.7-1.9-8.5-2.7c-1.7,2.5-3.4,5.1-5.1,7.8c-0.1-3.1-0.1-6.2-0.1-9.2c-2.8-0.7-5.5-1.2-8.1-1.7
					c2.6-1.5,5.3-2.9,8.1-4C120.9,41.7,120.9,38.7,120.9,35.7z"/>
				<path class="st8" d="M142.1,26.2c0.2,0.9,0.5,1.8,0.7,2.7c1,0.2,2,0.4,2.9,0.6c-0.8,0.4-1.7,0.7-2.5,1.1
					c0.2,0.9,0.5,1.8,0.7,2.7c-0.7-0.7-1.5-1.3-2.2-2c-0.8,0.4-1.7,0.7-2.5,1.1c0.4-0.8,0.7-1.6,1.1-2.4c-0.7-0.7-1.5-1.3-2.2-2
					c1,0.2,1.9,0.3,2.9,0.5C141.4,27.8,141.8,27,142.1,26.2z"/>
				<path class="st8" d="M155.2,34.1c-0.2,0.8-0.4,1.7-0.6,2.5c0.9,0.6,1.7,1.1,2.6,1.7c-1-0.1-2-0.1-2.9-0.2
					c-0.2,0.8-0.4,1.7-0.6,2.5c-0.4-0.9-0.8-1.7-1.2-2.6c-1,0-2-0.1-2.9-0.1c0.7-0.5,1.5-1,2.2-1.5c-0.4-0.9-0.8-1.7-1.2-2.6
					c0.9,0.6,1.7,1.1,2.6,1.7C153.8,35.1,154.5,34.6,155.2,34.1z"/>
				<path class="st8" d="M155.9,45.8c0.6,0.8,1.1,1.6,1.7,2.4c0.9-0.1,1.9-0.2,2.8-0.3c-0.6,0.6-1.2,1.2-1.8,1.8
					c0.6,0.8,1.1,1.6,1.7,2.4c-0.9-0.4-1.9-0.9-2.8-1.3c-0.6,0.6-1.2,1.2-1.8,1.8c0-0.9,0-1.8,0-2.6c-0.9-0.4-1.9-0.8-2.8-1.3
					c0.9-0.1,1.9-0.3,2.8-0.4C155.8,47.5,155.8,46.6,155.9,45.8z"/>
				<path class="st8" d="M151.7,55.2c0.2,0.9,0.5,1.8,0.7,2.7c1,0.2,2,0.4,2.9,0.6c-0.8,0.4-1.7,0.7-2.5,1.1
					c0.2,0.9,0.5,1.8,0.7,2.7c-0.8-0.7-1.5-1.3-2.3-2c-0.8,0.4-1.7,0.7-2.5,1.1c0.4-0.8,0.7-1.6,1.1-2.4c-0.7-0.7-1.5-1.3-2.2-2
					c1,0.2,1.9,0.3,2.9,0.5C150.9,56.7,151.3,55.9,151.7,55.2z"/>
			</g>
			<path d="M196.1,89.3c-8.3,6.5-16.9,12.1-25.2,18.3c-1.6-4.9-3.2-9.8-4.9-14.7C176,91.6,186.2,90.8,196.1,89.3z"/>
		</g>
	</g>
</g>
</svg>
