<!-- Generator: Adobe Illustrator 24.2.3, SVG Export Plug-In  -->
<svg version="1.1" xmlns="http://www.w3.org/2000/svg" xmlns:xlink="http://www.w3.org/1999/xlink" x="0px" y="0px" width="368.8px"
	 height="279.9px" viewBox="0 0 368.8 279.9" style="overflow:visible;enable-background:new 0 0 368.8 279.9;"
	 xml:space="preserve">
<style type="text/css">
	.st0{fill:#F5F4EF;}
	.st1{fill:#141F52;}
	.st2{fill:#36E2BD;}
	.st3{clip-path:url(#SVGID_52_);fill:#1DC9A4;}
	.st4{clip-path:url(#SVGID_53_);fill:#1DC9A4;}
	.st5{fill:none;stroke:#475ED1;stroke-width:0.798;stroke-linecap:round;stroke-miterlimit:10;}
	.st6{fill:#FFFFFF;}
	.st7{clip-path:url(#SVGID_54_);fill:#1DC9A4;}
	.st8{clip-path:url(#SVGID_55_);fill:#1DC9A4;}
	.st9{clip-path:url(#SVGID_56_);fill:#1DC9A4;}
	.st10{clip-path:url(#SVGID_57_);fill:#1DC9A4;}
	.st11{clip-path:url(#SVGID_58_);fill:#1DC9A4;}
	.st12{clip-path:url(#SVGID_59_);fill:#1DC9A4;}
	.st13{clip-path:url(#SVGID_60_);fill:#1DC9A4;}
	.st14{clip-path:url(#SVGID_61_);fill:#1DC9A4;}
	.st15{clip-path:url(#SVGID_62_);fill:#1DC9A4;}
	.st16{clip-path:url(#SVGID_63_);fill:#1DC9A4;}
	.st17{clip-path:url(#SVGID_64_);fill:#1DC9A4;}
	.st18{clip-path:url(#SVGID_65_);fill:#1DC9A4;}
	.st19{clip-path:url(#SVGID_66_);fill:#1DC9A4;}
	.st20{clip-path:url(#SVGID_67_);fill:#1DC9A4;}
	.st21{clip-path:url(#SVGID_68_);fill:#1DC9A4;}
	.st22{clip-path:url(#SVGID_69_);fill:#1DC9A4;}
	.st23{clip-path:url(#SVGID_70_);fill:#1DC9A4;}
	.st24{clip-path:url(#SVGID_71_);fill:#1DC9A4;}
	.st25{clip-path:url(#SVGID_72_);fill:#1DC9A4;}
	.st26{clip-path:url(#SVGID_73_);fill:#1DC9A4;}
	.st27{clip-path:url(#SVGID_74_);fill:#1DC9A4;}
	.st28{clip-path:url(#SVGID_75_);fill:#1DC9A4;}
	.st29{clip-path:url(#SVGID_76_);fill:#1DC9A4;}
	.st30{clip-path:url(#SVGID_77_);fill:#1DC9A4;}
	.st31{clip-path:url(#SVGID_78_);fill:#1DC9A4;}
	.st32{clip-path:url(#SVGID_79_);fill:#1DC9A4;}
	.st33{clip-path:url(#SVGID_80_);fill:#1DC9A4;}
	.st34{clip-path:url(#SVGID_81_);fill:#1DC9A4;}
	.st35{clip-path:url(#SVGID_82_);fill:#1DC9A4;}
	.st36{clip-path:url(#SVGID_83_);fill:#1DC9A4;}
	.st37{clip-path:url(#SVGID_84_);fill:#1DC9A4;}
	.st38{clip-path:url(#SVGID_85_);fill:#1DC9A4;}
	.st39{clip-path:url(#SVGID_86_);fill:#1DC9A4;}
	.st40{clip-path:url(#SVGID_87_);fill:#1DC9A4;}
	.st41{clip-path:url(#SVGID_88_);fill:#1DC9A4;}
	.st42{clip-path:url(#SVGID_89_);fill:#1DC9A4;}
	.st43{clip-path:url(#SVGID_90_);fill:#1DC9A4;}
	.st44{clip-path:url(#SVGID_91_);fill:#1DC9A4;}
	.st45{clip-path:url(#SVGID_92_);fill:#1DC9A4;}
	.st46{clip-path:url(#SVGID_93_);fill:#1DC9A4;}
	.st47{clip-path:url(#SVGID_94_);fill:#1DC9A4;}
	.st48{clip-path:url(#SVGID_95_);fill:#1DC9A4;}
	.st49{clip-path:url(#SVGID_96_);fill:#1DC9A4;}
	.st50{clip-path:url(#SVGID_97_);fill:#1DC9A4;}
	.st51{clip-path:url(#SVGID_98_);fill:#1DC9A4;}
	.st52{clip-path:url(#SVGID_99_);fill:#1DC9A4;}
	.st53{fill:#2E45B8;}
	.st54{fill:#1F2E7A;}
	.st55{clip-path:url(#SVGID_100_);fill:#1DC9A4;}
	.st56{fill:#475ED1;}
	.st57{fill:#C91D42;}
	.st58{clip-path:url(#SVGID_101_);fill:#1DC9A4;}
	.st59{clip-path:url(#SVGID_102_);fill:#1DC9A4;}
	.st60{fill:none;stroke:#141F52;stroke-width:1.245;stroke-linecap:round;stroke-miterlimit:10;}
	.st61{clip-path:url(#SVGID_104_);fill:#1DC9A4;}
	.st62{clip-path:url(#SVGID_106_);fill:#1DC9A4;}
	.st63{clip-path:url(#SVGID_108_);fill:#1DC9A4;}
	.st64{clip-path:url(#SVGID_110_);fill:#1DC9A4;}
	.st65{clip-path:url(#SVGID_112_);fill:#1DC9A4;}
	.st66{clip-path:url(#SVGID_114_);fill:#1DC9A4;}
	.st67{clip-path:url(#SVGID_116_);fill:#1DC9A4;}
	.st68{clip-path:url(#SVGID_118_);fill:#1DC9A4;}
	.st69{clip-path:url(#SVGID_120_);fill:#1DC9A4;}
	.st70{clip-path:url(#SVGID_122_);fill:#1DC9A4;}
	.st71{clip-path:url(#SVGID_124_);fill:#1DC9A4;}
	.st72{clip-path:url(#SVGID_126_);fill:#1DC9A4;}
	.st73{clip-path:url(#SVGID_128_);fill:#1DC9A4;}
	.st74{clip-path:url(#SVGID_130_);fill:#1DC9A4;}
	.st75{clip-path:url(#SVGID_132_);fill:#1DC9A4;}
	.st76{clip-path:url(#SVGID_134_);fill:#1DC9A4;}
	.st77{clip-path:url(#SVGID_136_);fill:#1DC9A4;}
	.st78{clip-path:url(#SVGID_138_);fill:#1DC9A4;}
	.st79{clip-path:url(#SVGID_140_);fill:#1DC9A4;}
	.st80{clip-path:url(#SVGID_142_);fill:#1DC9A4;}
	.st81{clip-path:url(#SVGID_144_);fill:#1DC9A4;}
	.st82{clip-path:url(#SVGID_146_);fill:#1DC9A4;}
	.st83{clip-path:url(#SVGID_148_);fill:#1DC9A4;}
	.st84{clip-path:url(#SVGID_150_);fill:#1DC9A4;}
	.st85{clip-path:url(#SVGID_152_);fill:#1DC9A4;}
	.st86{clip-path:url(#SVGID_154_);fill:#1DC9A4;}
	.st87{clip-path:url(#SVGID_156_);fill:#1DC9A4;}
	.st88{clip-path:url(#SVGID_158_);fill:#1DC9A4;}
	.st89{clip-path:url(#SVGID_160_);fill:#1DC9A4;}
	.st90{clip-path:url(#SVGID_162_);fill:#1DC9A4;}
	.st91{clip-path:url(#SVGID_164_);fill:#1DC9A4;}
	.st92{clip-path:url(#SVGID_166_);fill:#1DC9A4;}
	.st93{clip-path:url(#SVGID_168_);fill:#1DC9A4;}
	.st94{clip-path:url(#SVGID_170_);fill:#1DC9A4;}
	.st95{clip-path:url(#SVGID_172_);fill:#1DC9A4;}
	.st96{clip-path:url(#SVGID_174_);fill:#1DC9A4;}
	.st97{clip-path:url(#SVGID_176_);fill:#1DC9A4;}
	.st98{clip-path:url(#SVGID_178_);fill:#1DC9A4;}
	.st99{clip-path:url(#SVGID_180_);fill:#1DC9A4;}
	.st100{clip-path:url(#SVGID_182_);fill:#1DC9A4;}
	.st101{clip-path:url(#SVGID_184_);fill:#1DC9A4;}
	.st102{clip-path:url(#SVGID_186_);fill:#1DC9A4;}
	.st103{clip-path:url(#SVGID_188_);fill:#1DC9A4;}
	.st104{clip-path:url(#SVGID_190_);fill:#1DC9A4;}
	.st105{clip-path:url(#SVGID_192_);fill:#1DC9A4;}
	.st106{clip-path:url(#SVGID_194_);fill:#1DC9A4;}
	.st107{clip-path:url(#SVGID_196_);fill:#1DC9A4;}
	.st108{clip-path:url(#SVGID_198_);fill:#1DC9A4;}
	.st109{clip-path:url(#SVGID_200_);fill:#1DC9A4;}
	.st110{clip-path:url(#SVGID_202_);fill:#1DC9A4;}
	.st111{clip-path:url(#SVGID_204_);fill:#1DC9A4;}
</style>
<defs>
</defs>
<g>
	<g>
		<path class="st0" d="M0,117.6c9.1-13.7,32.7-14.4,47.1-11.4c3.8-22,34.2-31.9,36.5-3.8c7.6-3.8,17.5-4.6,20.5,4.6
			c9.9-3,18.8,3.4,26.5,10.3C86.9,117.3,0,117.6,0,117.6z"/>
	</g>
	<g>
		<path class="st0" d="M186.6,43.3c8.7-9.1,25.1-7.3,36.4-7.7l0,0c3.2-9.1,10-17.8,19.6-20c7.3-1.8,18.7-1.4,20.5,7.7
			c0,0-0.7-23.2,22.6-23.2c23.4,0,18.4,25.5,18.4,25.5c11.4-8.7,24.6-9.6,33.3,3.2c2.3,3.2,0.9,4.6,4.6,5.5c1.8,0.9,6.8-0.5,9.6,0
			c5.9,0.9,17.3,9.1,17.3,9.1H186.6z"/>
	</g>
	<g>
		<path class="st0" d="M176.5,60.8c-14.7-10.6-25.1-19.4-43.9-14.1c-2.3-21.7-24.1-21.1-38.8-7.6c7.6-32.3-37.6-49.3-60.5-31.7
			c-28.2,21.1-10.4,43.9,3.5,47c-7,0-12.8,3.4-12.6,6.4C77,60.8,176.5,60.8,176.5,60.8z"/>
	</g>
	<path class="st0" d="M337.4,122.2c-1.9-4.8-6.7-8.3-12.2-8.3c-1.9,0-3.7,0.4-5.4,1.2c1-2.4,1.6-5.1,1.6-7.9
		c0-11-8.9-19.9-19.9-19.9c-2.1,0-4.2,0.3-6.1,1c-5.9-8.2-15.5-13.6-26.4-13.6c-18,0-32.5,14.6-32.5,32.5c0,0.2,0,0.4,0,0.7
		c0,0,0,0,0,0c-7.4,0-13.4,6-13.4,13.4c0,0.3,0,0.6,0,0.9H337.4z"/>
</g>
<g>
	<polygon class="st1" points="296.6,232.4 68.5,232.4 73.9,118.2 70.3,118.2 68.5,101.8 296.6,101.8 294.6,118.2 291.2,118.2 	"/>
	<rect x="100.7" y="144.6" class="st2" width="167.8" height="60.9"/>
	<g>
		<g>
			<defs>
				<path id="SVGID_51_" d="M185.5,175.5c0,0,15.7,11.3,12.5,41.4c-0.3,2.9-2.3,5.3-5.1,6.1c-6.4,1.9-18.8,3.7-32.5-3.2
					c-2.9-1.4-4.4-4.6-3.8-7.7c1.9-9.8,7.2-29.5,21.2-37.3L185.5,175.5z"/>
			</defs>
			<use xlink:href="#SVGID_51_"  style="overflow:visible;fill:#36E2BD;"/>
			<clipPath id="SVGID_52_">
				<use xlink:href="#SVGID_51_"  style="overflow:visible;"/>
			</clipPath>
			<path class="st3" d="M185.6,175.8c0,0,11.8,16,8.8,32c-1.5,7.7-9.2,9.2-18.6,9.9c-5,0.4-4.6,6.3-4.6,6.3l26.4,1.3l3.8-25.8
				l-8.2-21.9l-3.6-2.9L185.6,175.8z"/>
			<path class="st3" d="M178.8,175.1c0,0-11.8,7.5-15.8,25.3c-1.1,5.1,0.2,17.6,11.9,20.8c-7.1-1-20.3-3.4-20.3-3.4l3.9-21.9
				l11.5-20l6.2-1.3L178.8,175.1z"/>
		</g>
		<g>
			<defs>
				<path id="SVGID_50_" d="M190.2,168.6c0,0-2.9,4-4.6,7.2c-2.7-0.3-6.8-0.7-6.8-0.7s-2-5.5-3.9-8.7c2.3,0.3,3.4,0.3,3.4,0.3
					l3.6-0.7l4.2,1l2.6,1.2L190.2,168.6z"/>
			</defs>
			<use xlink:href="#SVGID_50_"  style="overflow:visible;fill:#36E2BD;"/>
			<clipPath id="SVGID_53_">
				<use xlink:href="#SVGID_50_"  style="overflow:visible;"/>
			</clipPath>
			<path class="st4" d="M190.2,168.6c0,0-4.3,6.1-4.6,7.2c-1.1-0.2-1.5-0.6-1.5-0.6l1.7-7.8l2.9,0.5L190.2,168.6z"/>
			<path class="st4" d="M177.4,167.4c0,0,1.8,5.1,1.9,7.8c-0.6-0.1-2.1-0.9-2.1-0.9l-2.8-8.1l1.9,0.3L177.4,167.4z"/>
		</g>
		<path class="st1" d="M190.2,168.6c0,0-0.5-1-2.7-1.7c-0.6-0.3-0.9-0.6-1.1-0.8c-0.2-0.1-1.1-0.8-2.5-0.9c-1.2-0.1-2.4,0-3.4,0.5
			c-0.9,0.5-1.5,0.6-2.1,0.5c-0.6-0.1-2.5-0.6-3.5,0.1c0.5,0.3,1.7,1.1,3,1c1.3-0.1,3-0.7,4.6-0.6s2.5,0.9,3.5,1.4
			C186.8,168.6,187.9,169.1,190.2,168.6z"/>
		<path class="st5" d="M185.9,175.6c-0.7,0.5-2.2,0.8-3.9,0.7c-1.8-0.2-3.3-0.8-3.8-1.5"/>
		<g>
			<path class="st6" d="M178.3,206.2c-0.1-0.1-0.1-0.2-0.1-0.4l0.1-1.5c-1.1-0.2-2-0.6-2.7-1c-0.7-0.5-1.3-1-1.6-1.7
				c-0.3-0.6-0.5-1.3-0.5-2c0-0.1,0.1-0.2,0.2-0.3c0.1-0.1,0.2-0.1,0.3-0.1l2.9,0.2c0.2,0,0.3,0.1,0.4,0.1c0.1,0.1,0.2,0.2,0.3,0.3
				c0.4,0.8,1.2,1.3,2.4,1.4c0.8,0.1,1.4,0,1.9-0.2s0.7-0.5,0.7-1c0-0.3-0.1-0.6-0.3-0.8c-0.2-0.2-0.6-0.4-1-0.6
				c-0.5-0.2-1.2-0.4-2.1-0.7c-1.7-0.5-3-1.1-3.9-1.9c-0.8-0.8-1.2-1.8-1.1-3.2c0.1-1.2,0.6-2.2,1.5-2.9c0.9-0.8,2.1-1.2,3.6-1.3
				l0.1-1.5c0-0.2,0.1-0.3,0.2-0.4c0.1-0.1,0.2-0.1,0.4-0.1l1.9,0.1c0.2,0,0.3,0.1,0.4,0.2c0.1,0.1,0.1,0.2,0.1,0.4l-0.1,1.6
				c1,0.2,1.8,0.6,2.4,1.1c0.7,0.5,1.2,1,1.5,1.7c0.3,0.6,0.5,1.2,0.5,1.7c0,0.1-0.1,0.2-0.2,0.3c-0.1,0.1-0.2,0.1-0.3,0.1l-3.1-0.2
				c-0.3,0-0.6-0.2-0.7-0.4c-0.1-0.3-0.3-0.6-0.6-0.8c-0.4-0.2-0.8-0.4-1.3-0.4c-0.6,0-1.1,0-1.5,0.2c-0.4,0.2-0.5,0.5-0.6,0.9
				s0.2,0.8,0.6,1c0.4,0.3,1.2,0.6,2.4,0.9c1.4,0.3,2.4,0.7,3.2,1.2c0.8,0.4,1.4,1,1.7,1.6c0.3,0.6,0.5,1.4,0.4,2.3
				c-0.1,1.3-0.6,2.3-1.6,3.1c-1,0.8-2.3,1.2-3.9,1.3l-0.1,1.5c0,0.2-0.1,0.3-0.2,0.4c-0.1,0.1-0.2,0.1-0.4,0.1l-1.9-0.1
				C178.6,206.4,178.4,206.3,178.3,206.2z"/>
		</g>
	</g>
	<g>
		<g>
			<defs>
				<path id="SVGID_49_" d="M94.4,156.1c0,0,18.8,4.6,27.2,33.6c0.8,2.8-0.1,5.7-2.4,7.5c-5.2,4.2-16.1,10.5-31.3,9.3
					c-3.2-0.2-5.8-2.6-6.4-5.7c-1.9-9.8-4.5-30,5.6-42.5L94.4,156.1z"/>
			</defs>
			<use xlink:href="#SVGID_49_"  style="overflow:visible;fill:#36E2BD;"/>
			<clipPath id="SVGID_54_">
				<use xlink:href="#SVGID_49_"  style="overflow:visible;"/>
			</clipPath>
			<path class="st7" d="M94.6,156.4c0,0,17,10.4,20.2,26.3c1.6,7.7-5,12-13.5,16.2c-4.5,2.2-1.9,7.6-1.9,7.6l24.9-8.8l-6.3-25.4
				l-15.9-17.2l-4.4-1.3L94.6,156.4z"/>
			<path class="st7" d="M88,158.4c0,0-8.1,11.4-5,29.4c0.9,5.2,6.8,16.3,18.8,14.8c-6.9,1.8-20.1,4.5-20.1,4.5l-4.6-21.8l3.1-22.8
				l5.2-3.6L88,158.4z"/>
		</g>
		<g>
			<defs>
				<path id="SVGID_48_" d="M96.1,148c0,0-1.1,4.8-1.5,8.4c-2.6,0.8-6.6,2-6.6,2s-3.9-4.3-6.9-6.6c2.3-0.6,3.3-1,3.3-1l3.1-2
					l4.3-0.7l2.9,0.2L96.1,148z"/>
			</defs>
			<use xlink:href="#SVGID_48_"  style="overflow:visible;fill:#36E2BD;"/>
			<clipPath id="SVGID_55_">
				<use xlink:href="#SVGID_48_"  style="overflow:visible;"/>
			</clipPath>
			<path class="st8" d="M96.1,148c0,0-1.6,7.3-1.5,8.4c-1.1,0.3-1.6,0-1.6,0l-1.4-7.9l2.9-0.6L96.1,148z"/>
			<path class="st8" d="M83.9,151.7c0,0,3.6,4.1,4.7,6.5c-0.6,0.1-2.3-0.1-2.3-0.1l-5.7-6.4l1.9-0.4L83.9,151.7z"/>
		</g>
		<path class="st1" d="M96.1,148c0,0-0.8-0.7-3.2-0.5c-0.7,0-1-0.3-1.3-0.3c-0.3,0-1.3-0.3-2.6,0.1c-1.1,0.4-2.2,0.9-2.9,1.7
			c-0.7,0.8-1.2,1.1-1.8,1.3c-0.6,0.2-2.5,0.4-3.2,1.5c0.6,0.1,2,0.4,3.1-0.2s2.5-1.8,4-2.3c1.6-0.5,2.7-0.1,3.8,0
			C93,149.3,94.2,149.3,96.1,148z"/>
		<path class="st5" d="M94.8,156.1c-0.4,0.8-1.7,1.6-3.4,2.1c-1.7,0.5-3.3,0.5-4.1,0"/>
	</g>
	<g>
		<g>
			<defs>
				<path id="SVGID_47_" d="M192.4,114.3c0,0-16,5.9-20.4,32.2c-0.4,2.5,0.7,5,2.9,6.4c5,3.1,15.1,7.6,28.4,5c2.8-0.5,4.8-2.9,5-5.7
					c0.7-8.8,0.9-26.8-9.2-36.7L192.4,114.3z"/>
			</defs>
			<use xlink:href="#SVGID_47_"  style="overflow:visible;fill:#36E2BD;"/>
			<clipPath id="SVGID_56_">
				<use xlink:href="#SVGID_47_"  style="overflow:visible;"/>
			</clipPath>
			<path class="st9" d="M192.3,114.6c0,0-13.8,10.8-15,25.1c-0.6,6.9,5.6,10,13.4,12.8c4.2,1.5,2.4,6.4,2.4,6.4l-22.7-5.2l2.9-22.9
				l12.2-16.7l3.8-1.6L192.3,114.6z"/>
			<path class="st9" d="M198.2,115.6c0,0,8.3,9.2,7.4,25.3c-1.1,11.2-12.1,12.4-22.7,12.4c4,0.5,12,4.9,18.3,6
				c3.6,0.6,7.6-1.7,7.6-1.7l1.8-19.5l-5.1-19.7l-4.9-2.6L198.2,115.6z"/>
		</g>
		<g>
			<defs>
				<path id="SVGID_46_" d="M190.1,107.4c0,0,1.5,4.1,2.2,7.2c2.4,0.4,5.9,1,5.9,1s3-4.2,5.4-6.5c-2-0.3-3-0.5-3-0.5l-2.9-1.4
					l-3.8-0.2l-2.5,0.4L190.1,107.4z"/>
			</defs>
			<use xlink:href="#SVGID_46_"  style="overflow:visible;fill:#36E2BD;"/>
			<clipPath id="SVGID_57_">
				<use xlink:href="#SVGID_46_"  style="overflow:visible;"/>
			</clipPath>
			<path class="st10" d="M190.1,107.4c0,0,2.2,6.2,2.2,7.2c1,0.1,1.4-0.2,1.4-0.2l0.4-7l-2.6-0.2L190.1,107.4z"/>
			<path class="st10" d="M201.2,109.4c0,0-2.8,3.9-3.5,6.2c0.5,0.1,2-0.3,2-0.3l4.3-6.2l-1.7-0.2L201.2,109.4z"/>
		</g>
		<path class="st1" d="M190.1,107.4c0,0,0.7-0.7,2.7-0.8c0.6-0.1,0.9-0.3,1.1-0.4c0.2-0.1,1.1-0.4,2.3-0.2c1,0.2,2.1,0.6,2.7,1.2
			s1.1,0.8,1.7,0.9s2.3,0.1,3,0.9c-0.5,0.1-1.7,0.5-2.8,0.1s-2.4-1.3-3.8-1.6c-1.4-0.2-2.3,0.2-3.3,0.4
			C193,108.2,191.9,108.3,190.1,107.4z"/>
		<path class="st5" d="M192.1,114.3c0.5,0.6,1.7,1.2,3.2,1.5c1.6,0.3,3,0.1,3.6-0.4"/>
		<g>
			<path class="st6" d="M189.8,145.4c-0.1-0.1-0.1-0.2-0.1-0.4l0.2-1.3c-0.9-0.3-1.7-0.7-2.3-1.1c-0.6-0.5-1-1-1.3-1.6
				c-0.2-0.6-0.3-1.2-0.2-1.8c0-0.1,0.1-0.2,0.2-0.3c0.1-0.1,0.2-0.1,0.3-0.1l2.5,0.4c0.2,0,0.3,0.1,0.4,0.1
				c0.1,0.1,0.2,0.2,0.3,0.3c0.3,0.8,0.9,1.2,2,1.4c0.7,0.1,1.2,0.1,1.7,0c0.4-0.1,0.7-0.4,0.7-0.8c0-0.3,0-0.5-0.2-0.7
				c-0.2-0.2-0.4-0.4-0.8-0.6c-0.4-0.2-1-0.5-1.7-0.8c-1.5-0.6-2.6-1.2-3.2-2c-0.7-0.8-0.9-1.7-0.7-2.9c0.2-1,0.7-1.8,1.6-2.4
				c0.9-0.6,2-0.9,3.3-0.8l0.2-1.3c0-0.1,0.1-0.2,0.2-0.3c0.1-0.1,0.2-0.1,0.4-0.1l1.7,0.3c0.1,0,0.2,0.1,0.3,0.2
				c0.1,0.1,0.1,0.2,0.1,0.4l-0.2,1.4c0.8,0.3,1.5,0.7,2,1.2c0.5,0.5,0.9,1,1.2,1.6c0.2,0.6,0.3,1.1,0.3,1.6c0,0.1-0.1,0.2-0.2,0.3
				c-0.1,0.1-0.2,0.1-0.3,0.1l-2.7-0.5c-0.3-0.1-0.5-0.2-0.6-0.5c0-0.3-0.2-0.5-0.5-0.8c-0.3-0.2-0.7-0.4-1.1-0.5
				c-0.5-0.1-1-0.1-1.3,0.1c-0.3,0.1-0.5,0.4-0.6,0.8s0.1,0.7,0.4,1c0.3,0.3,1,0.6,2,1c1.2,0.4,2.1,0.9,2.7,1.3
				c0.7,0.5,1.1,1,1.3,1.5c0.2,0.6,0.3,1.3,0.2,2c-0.2,1.1-0.8,2-1.7,2.6c-1,0.6-2.1,0.8-3.6,0.8l-0.2,1.3c0,0.1-0.1,0.2-0.2,0.3
				c-0.1,0.1-0.2,0.1-0.4,0.1l-1.7-0.3C190,145.6,189.9,145.5,189.8,145.4z"/>
		</g>
	</g>
	<g>
		<g>
			<g>
				<defs>
					<path id="SVGID_45_" d="M124,102c0,0,15.7,5.8,20,31.6c0.4,2.5-0.7,4.9-2.8,6.2c-4.9,3.1-14.9,7.4-27.9,4.9
						c-2.7-0.5-4.7-2.8-4.9-5.6c-0.7-8.6-0.8-26.3,9.1-36L124,102z"/>
				</defs>
				<use xlink:href="#SVGID_45_"  style="overflow:visible;fill:#36E2BD;"/>
				<clipPath id="SVGID_58_">
					<use xlink:href="#SVGID_45_"  style="overflow:visible;"/>
				</clipPath>
				<path class="st11" d="M124.1,102.3c0,0,13.5,10.6,14.7,24.6c0.6,6.7-5.5,9.8-13.2,12.6c-4.1,1.5-2.4,6.3-2.4,6.3l22.3-5.1
					l-2.9-22.4l-11.9-16.4l-3.7-1.6L124.1,102.3z"/>
				<path class="st11" d="M118.3,103.3c0,0-8.1,9-7.3,24.8c1,11,11.9,12.2,22.3,12.2c-3.9,0.5-11.7,4.8-17.9,5.9
					c-3.6,0.6-7.4-1.6-7.4-1.6l-1.8-19.2l5-19.3l4.8-2.6L118.3,103.3z"/>
			</g>
			<g>
				<defs>
					<path id="SVGID_44_" d="M126.3,95.2c0,0-1.5,4-2.2,7.1c-2.3,0.4-5.8,1-5.8,1s-2.9-4.1-5.3-6.4c2-0.3,2.9-0.5,2.9-0.5l2.9-1.4
						l3.7-0.2l2.4,0.4L126.3,95.2z"/>
				</defs>
				<use xlink:href="#SVGID_44_"  style="overflow:visible;fill:#36E2BD;"/>
				<clipPath id="SVGID_59_">
					<use xlink:href="#SVGID_44_"  style="overflow:visible;"/>
				</clipPath>
				<path class="st12" d="M126.3,95.2c0,0-2.1,6.1-2.2,7.1c-1,0.1-1.4-0.1-1.4-0.1l-0.4-6.9l2.5-0.2L126.3,95.2z"/>
				<path class="st12" d="M115.4,97.2c0,0,2.7,3.9,3.4,6.1c-0.5,0-2-0.3-2-0.3l-4.2-6.1l1.7-0.2L115.4,97.2z"/>
			</g>
			<path class="st1" d="M126.3,95.2c0,0-0.6-0.7-2.7-0.8c-0.6-0.1-0.9-0.3-1.1-0.4c-0.2-0.1-1.1-0.4-2.3-0.2c-1,0.2-2,0.6-2.7,1.2
				c-0.7,0.6-1.1,0.8-1.7,0.9c-0.5,0.1-2.2,0.1-2.9,0.9c0.5,0.1,1.6,0.5,2.7,0.1c1.1-0.4,2.3-1.3,3.7-1.5c1.4-0.2,2.3,0.2,3.3,0.4
				C123.4,96,124.4,96.1,126.3,95.2z"/>
			<path class="st5" d="M124.3,102c-0.4,0.6-1.6,1.2-3.1,1.5c-1.5,0.3-2.9,0.1-3.5-0.4"/>
			<g>
				<path class="st6" d="M126.9,130.9c-0.1-0.1-0.2-0.2-0.2-0.3l-0.3-1.3c-1,0.1-1.8,0-2.5-0.2s-1.3-0.6-1.7-1
					c-0.4-0.5-0.7-1-0.9-1.6c0-0.1,0-0.2,0.1-0.3c0.1-0.1,0.2-0.1,0.3-0.2l2.5-0.5c0.2,0,0.3,0,0.4,0c0.1,0,0.2,0.1,0.4,0.2
					c0.5,0.6,1.3,0.8,2.3,0.6c0.7-0.1,1.2-0.3,1.5-0.6s0.5-0.6,0.4-1c-0.1-0.3-0.2-0.5-0.4-0.6s-0.6-0.2-1-0.3
					c-0.4-0.1-1.1-0.1-1.9-0.1c-1.6,0-2.8-0.2-3.7-0.7c-0.9-0.5-1.4-1.3-1.6-2.4c-0.2-1,0-1.9,0.6-2.8s1.5-1.5,2.7-1.9l-0.3-1.3
					c0-0.1,0-0.3,0.1-0.4c0.1-0.1,0.2-0.2,0.3-0.2l1.6-0.3c0.1,0,0.3,0,0.4,0.1c0.1,0.1,0.2,0.2,0.2,0.3l0.3,1.3
					c0.9,0,1.6,0.1,2.3,0.4c0.7,0.3,1.2,0.6,1.6,1c0.4,0.4,0.7,0.9,0.8,1.3c0,0.1,0,0.2-0.1,0.3s-0.1,0.2-0.3,0.2l-2.6,0.5
					c-0.3,0.1-0.5,0-0.7-0.2c-0.1-0.2-0.4-0.4-0.7-0.5c-0.4-0.1-0.8-0.1-1.2,0c-0.5,0.1-0.9,0.3-1.2,0.5c-0.2,0.2-0.3,0.5-0.3,0.9
					c0.1,0.4,0.3,0.6,0.7,0.7c0.4,0.1,1.1,0.2,2.2,0.2c1.2,0,2.2,0.1,3,0.2s1.4,0.5,1.8,0.9c0.4,0.4,0.7,1,0.9,1.8
					c0.2,1.1,0,2.1-0.7,2.9c-0.7,0.9-1.7,1.5-3,2l0.3,1.3c0,0.1,0,0.3-0.1,0.4c-0.1,0.1-0.2,0.2-0.3,0.2l-1.6,0.3
					C127.1,131,127,131,126.9,130.9z"/>
			</g>
		</g>
		<g>
			<g>
				<defs>
					<path id="SVGID_43_" d="M143.3,113.6c0,0,15.7,5.8,20,31.6c0.4,2.5-0.7,4.9-2.8,6.2c-4.9,3.1-14.9,7.4-27.9,4.9
						c-2.7-0.5-4.7-2.8-4.9-5.6c-0.7-8.6-0.8-26.3,9.1-36L143.3,113.6z"/>
				</defs>
				<use xlink:href="#SVGID_43_"  style="overflow:visible;fill:#36E2BD;"/>
				<clipPath id="SVGID_60_">
					<use xlink:href="#SVGID_43_"  style="overflow:visible;"/>
				</clipPath>
				<path class="st13" d="M143.4,113.9c0,0,13.5,10.6,14.7,24.6c0.6,6.7-5.5,9.8-13.2,12.6c-4.1,1.5-2.4,6.3-2.4,6.3l22.3-5.1
					l-2.9-22.4L150,113.5l-3.7-1.6L143.4,113.9z"/>
				<path class="st13" d="M137.6,114.9c0,0-8.1,9-7.3,24.8c1,11,11.9,12.2,22.3,12.2c-3.9,0.5-11.7,4.8-17.9,5.9
					c-3.6,0.6-7.4-1.6-7.4-1.6l-1.8-19.2l5-19.3l4.8-2.6L137.6,114.9z"/>
			</g>
			<g>
				<defs>
					<path id="SVGID_42_" d="M145.6,106.8c0,0-1.5,4-2.2,7.1c-2.3,0.4-5.8,1-5.8,1s-2.9-4.1-5.3-6.4c2-0.3,2.9-0.5,2.9-0.5l2.9-1.4
						l3.7-0.2l2.4,0.4L145.6,106.8z"/>
				</defs>
				<use xlink:href="#SVGID_42_"  style="overflow:visible;fill:#36E2BD;"/>
				<clipPath id="SVGID_61_">
					<use xlink:href="#SVGID_42_"  style="overflow:visible;"/>
				</clipPath>
				<path class="st14" d="M145.6,106.8c0,0-2.1,6.1-2.2,7.1c-1,0.1-1.4-0.1-1.4-0.1l-0.4-6.9l2.5-0.2L145.6,106.8z"/>
				<path class="st14" d="M134.7,108.8c0,0,2.7,3.9,3.4,6.1c-0.5,0-2-0.3-2-0.3l-4.2-6.1l1.7-0.2L134.7,108.8z"/>
			</g>
			<path class="st1" d="M145.6,106.8c0,0-0.6-0.7-2.7-0.8c-0.6-0.1-0.9-0.3-1.1-0.4c-0.2-0.1-1.1-0.4-2.3-0.2c-1,0.2-2,0.6-2.7,1.2
				c-0.7,0.6-1.1,0.8-1.7,0.9c-0.5,0.1-2.2,0.1-2.9,0.9c0.5,0.1,1.6,0.5,2.7,0.1c1.1-0.4,2.3-1.3,3.7-1.5c1.4-0.2,2.3,0.2,3.3,0.4
				C142.7,107.6,143.7,107.7,145.6,106.8z"/>
			<path class="st5" d="M143.6,113.6c-0.4,0.6-1.6,1.2-3.1,1.5c-1.5,0.3-2.9,0.1-3.5-0.4"/>
			<g>
				<path class="st6" d="M146.1,142.5c-0.1-0.1-0.2-0.2-0.2-0.3l-0.3-1.3c-1,0.1-1.8,0-2.5-0.2c-0.7-0.2-1.3-0.6-1.7-1
					c-0.4-0.5-0.7-1-0.9-1.6c0-0.1,0-0.2,0.1-0.3s0.2-0.1,0.3-0.2l2.5-0.5c0.2,0,0.3,0,0.4,0c0.1,0,0.2,0.1,0.4,0.2
					c0.5,0.6,1.3,0.8,2.3,0.6c0.7-0.1,1.2-0.3,1.5-0.6c0.3-0.3,0.5-0.6,0.4-1c-0.1-0.3-0.2-0.5-0.4-0.6c-0.2-0.1-0.6-0.2-1-0.3
					c-0.4-0.1-1.1-0.1-1.9-0.1c-1.6,0-2.8-0.2-3.7-0.7c-0.9-0.5-1.4-1.3-1.6-2.4c-0.2-1,0-1.9,0.6-2.8c0.6-0.8,1.5-1.5,2.7-1.9
					l-0.3-1.3c0-0.1,0-0.3,0.1-0.4c0.1-0.1,0.2-0.2,0.3-0.2l1.6-0.3c0.1,0,0.3,0,0.4,0.1s0.2,0.2,0.2,0.3l0.3,1.3
					c0.9,0,1.6,0.1,2.3,0.4c0.7,0.3,1.2,0.6,1.6,1c0.4,0.4,0.7,0.9,0.8,1.3c0,0.1,0,0.2-0.1,0.3c-0.1,0.1-0.1,0.2-0.3,0.2l-2.6,0.5
					c-0.3,0.1-0.5,0-0.7-0.2c-0.1-0.2-0.4-0.4-0.7-0.5c-0.4-0.1-0.8-0.1-1.2,0c-0.5,0.1-0.9,0.3-1.2,0.5s-0.3,0.5-0.3,0.9
					s0.3,0.6,0.7,0.7s1.1,0.2,2.2,0.2c1.2,0,2.2,0.1,3,0.2c0.8,0.2,1.4,0.5,1.8,0.9c0.4,0.4,0.7,1,0.9,1.8c0.2,1.1,0,2.1-0.7,2.9
					c-0.7,0.9-1.7,1.5-3,2l0.3,1.3c0,0.1,0,0.3-0.1,0.4c-0.1,0.1-0.2,0.2-0.3,0.2l-1.6,0.3C146.4,142.6,146.2,142.6,146.1,142.5z"/>
			</g>
		</g>
		<g>
			<g>
				<defs>
					<path id="SVGID_41_" d="M150.3,141.3c0,0,12,11.9,5.1,37.4c-0.7,2.4-2.7,4.2-5.2,4.5c-5.8,0.8-16.8,0.6-27.6-7.2
						c-2.3-1.6-3.1-4.6-2.2-7.2c3-8.2,10.3-24.4,23.4-29.2L150.3,141.3z"/>
				</defs>
				<use xlink:href="#SVGID_41_"  style="overflow:visible;fill:#36E2BD;"/>
				<clipPath id="SVGID_62_">
					<use xlink:href="#SVGID_41_"  style="overflow:visible;"/>
				</clipPath>
				<path class="st15" d="M150.3,141.6c0,0,7.7,15.4,3.2,28.8c-4.3,12.6-12.5,13.2-12.5,13.2l12.8,2.3l6.8-21.8l-4.1-20l-2.7-3
					L150.3,141.6z"/>
				<path class="st15" d="M144.5,140.1c0,0-11.2,4.9-17.1,19.7c-1.7,4.3-4.3,16.5,0.2,19.4c-6-1.8-9.9-5.5-9.9-5.5l6.4-18.3
					l12.7-15.6l5.5-0.3L144.5,140.1z"/>
			</g>
			<g>
				<defs>
					<path id="SVGID_40_" d="M155.3,136.1c0,0-3,3.1-5,5.6c-2.3-0.6-5.8-1.5-5.8-1.5s-0.9-5-2.2-8c2,0.5,2.9,0.8,2.9,0.8l3.2-0.1
						l3.5,1.4l2.1,1.4L155.3,136.1z"/>
				</defs>
				<use xlink:href="#SVGID_40_"  style="overflow:visible;fill:#36E2BD;"/>
				<clipPath id="SVGID_63_">
					<use xlink:href="#SVGID_40_"  style="overflow:visible;"/>
				</clipPath>
				<path class="st16" d="M155.3,136.1c0,0-4.5,4.7-5,5.6c-0.9-0.3-1.2-0.7-1.2-0.7l2.5-6.5l2.4,0.8L155.3,136.1z"/>
				<path class="st16" d="M144.5,133.3c0,0,0.9,4.7,0.6,7c-0.5-0.2-1.7-1.1-1.7-1.1l-1.3-7.3l1.6,0.6L144.5,133.3z"/>
			</g>
			<path class="st1" d="M155.3,136.1c0,0-0.3-0.9-2.1-1.8c-0.5-0.3-0.7-0.7-0.8-0.8s-0.9-0.9-2-1.1c-1-0.2-2.1-0.3-3,0
				s-1.4,0.3-1.9,0.2c-0.5-0.1-2.1-0.8-3.1-0.4c0.4,0.3,1.3,1.2,2.4,1.3s2.7-0.2,4,0.1c1.4,0.4,2,1.1,2.8,1.7
				C152.3,135.6,153.2,136.1,155.3,136.1z"/>
			<path class="st5" d="M150.6,141.5c-0.7,0.4-2,0.4-3.5,0c-1.5-0.4-2.7-1.1-3.1-1.8"/>
			<g>
				<path class="st6" d="M139.4,167.6c-0.1-0.1-0.1-0.2-0.1-0.4l0.3-1.3c-0.9-0.4-1.6-0.8-2.2-1.3c-0.6-0.5-0.9-1.1-1.1-1.7
					c-0.2-0.6-0.2-1.2-0.1-1.8c0-0.1,0.1-0.2,0.2-0.2c0.1-0.1,0.2-0.1,0.3,0l2.5,0.7c0.2,0,0.3,0.1,0.4,0.2c0.1,0.1,0.1,0.2,0.2,0.3
					c0.2,0.8,0.8,1.3,1.8,1.6c0.7,0.2,1.2,0.2,1.6,0.1c0.4-0.1,0.7-0.3,0.8-0.7c0.1-0.3,0-0.5-0.1-0.7c-0.1-0.2-0.4-0.4-0.8-0.7
					c-0.4-0.2-0.9-0.5-1.7-0.9c-1.4-0.7-2.4-1.4-3-2.2c-0.6-0.8-0.7-1.8-0.4-2.9c0.3-1,0.8-1.8,1.8-2.3s2-0.7,3.3-0.5l0.3-1.3
					c0-0.1,0.1-0.2,0.2-0.3c0.1-0.1,0.2-0.1,0.4,0l1.6,0.4c0.1,0,0.2,0.1,0.3,0.2c0.1,0.1,0.1,0.2,0,0.4l-0.4,1.3
					c0.8,0.4,1.4,0.8,1.9,1.3c0.5,0.5,0.8,1.1,1,1.7c0.2,0.6,0.2,1.1,0.1,1.6c0,0.1-0.1,0.2-0.2,0.3c-0.1,0.1-0.2,0.1-0.3,0
					l-2.6-0.7c-0.3-0.1-0.5-0.2-0.5-0.5c0-0.3-0.1-0.6-0.4-0.8c-0.3-0.3-0.6-0.5-1.1-0.6c-0.5-0.1-0.9-0.2-1.3,0
					c-0.3,0.1-0.5,0.3-0.6,0.7c-0.1,0.4,0,0.7,0.3,1c0.3,0.3,0.9,0.7,1.9,1.2c1.1,0.5,2,1,2.6,1.5c0.6,0.5,1,1,1.2,1.6
					c0.2,0.6,0.2,1.3,0,2c-0.3,1.1-0.9,1.9-1.9,2.4c-1,0.5-2.2,0.7-3.6,0.5l-0.3,1.3c0,0.1-0.1,0.2-0.2,0.3c-0.1,0.1-0.2,0.1-0.4,0
					l-1.6-0.4C139.6,167.7,139.5,167.7,139.4,167.6z"/>
			</g>
		</g>
		<g>
			<g>
				<defs>
					<path id="SVGID_39_" d="M164.6,141.3c0,0-14,11.2-9.7,38.8c0.4,2.6,2.4,4.8,4.9,5.4c6,1.5,15.9,2,28.6-4.2
						c3.8-1.9,4.4-7.6,3.7-10.4c-2.2-9-7.2-24-20.5-30.5L164.6,141.3z"/>
				</defs>
				<use xlink:href="#SVGID_39_"  style="overflow:visible;fill:#36E2BD;"/>
				<clipPath id="SVGID_64_">
					<use xlink:href="#SVGID_39_"  style="overflow:visible;"/>
				</clipPath>
				<path class="st17" d="M164.6,141.6c0,0-10.2,15.3-6.7,29.9c1.7,7,8.9,8.1,17.6,8.3c4.6,0.1,4.5,5.6,4.5,5.6l-24.3,2.3l-4.6-23.7
					l6.6-20.6l3.2-2.8L164.6,141.6z"/>
				<path class="st17" d="M170.8,140.7c0,0,11.3,6.4,15.7,22.7c2.7,11.5-7.9,16.4-18.5,19.9c4.1-0.8,6.4,4.8,20.2,0
					c3.6-1.3,7-4.2,7-4.2l-4.6-20L179,141.1l-5.7-1L170.8,140.7z"/>
			</g>
			<g>
				<defs>
					<path id="SVGID_38_" d="M160,135.2c0,0,2.8,3.6,4.6,6.4c2.5-0.4,6.3-0.9,6.3-0.9s1.6-5.1,3.2-8.2c-2.1,0.3-3.1,0.5-3.1,0.5
						l-3.4-0.4l-3.8,1.1l-2.3,1.2L160,135.2z"/>
				</defs>
				<use xlink:href="#SVGID_38_"  style="overflow:visible;fill:#36E2BD;"/>
				<clipPath id="SVGID_65_">
					<use xlink:href="#SVGID_38_"  style="overflow:visible;"/>
				</clipPath>
				<path class="st18" d="M160,135.2c0,0,4.2,5.5,4.6,6.4c1-0.2,1.3-0.6,1.3-0.6l-1.9-7.1l-2.7,0.6L160,135.2z"/>
				<path class="st18" d="M171.7,133.5c0,0-1.5,4.8-1.4,7.3c0.5-0.1,1.9-1,1.9-1l2.3-7.6l-1.7,0.4L171.7,133.5z"/>
			</g>
			<path class="st1" d="M160,135.2c0,0,0.4-0.9,2.4-1.7c0.5-0.3,0.8-0.6,1-0.8c0.2-0.1,1-0.8,2.2-0.9c1.1-0.1,2.2-0.1,3.1,0.3
				c0.9,0.4,1.4,0.5,2,0.4s2.3-0.6,3.3,0c-0.5,0.3-1.5,1.1-2.7,1c-1.2-0.1-2.8-0.5-4.3-0.3c-1.5,0.2-2.3,1-3.2,1.5
				C163.1,135,162.1,135.5,160,135.2z"/>
			<path class="st5" d="M164.3,141.4c0.7,0.5,2.1,0.7,3.6,0.4c1.7-0.2,3-0.9,3.4-1.6"/>
			<g>
				<path class="st6" d="M172.3,173.2c-0.1-0.1-0.2-0.2-0.2-0.3l-0.2-1.4c-1,0-1.9-0.1-2.7-0.4c-0.8-0.3-1.4-0.7-1.8-1.2
					c-0.4-0.5-0.7-1.1-0.8-1.7c0-0.1,0-0.2,0.1-0.3c0.1-0.1,0.2-0.2,0.3-0.2l2.7-0.4c0.2,0,0.3,0,0.4,0c0.1,0,0.2,0.1,0.4,0.2
					c0.5,0.7,1.3,0.9,2.5,0.8c0.7-0.1,1.3-0.3,1.6-0.6c0.4-0.3,0.5-0.6,0.5-1c0-0.3-0.2-0.5-0.4-0.6c-0.2-0.2-0.6-0.3-1-0.3
					c-0.5-0.1-1.1-0.1-2-0.2c-1.7-0.1-3-0.4-3.9-0.9c-0.9-0.5-1.4-1.4-1.6-2.6c-0.2-1.1,0.1-2.1,0.8-2.9s1.7-1.5,3-1.9l-0.2-1.4
					c0-0.1,0-0.3,0.1-0.4c0.1-0.1,0.2-0.2,0.3-0.2l1.8-0.3c0.1,0,0.3,0,0.4,0.1c0.1,0.1,0.2,0.2,0.2,0.3l0.2,1.4
					c0.9,0,1.7,0.2,2.4,0.5c0.7,0.3,1.3,0.7,1.7,1.2c0.4,0.5,0.7,1,0.8,1.5c0,0.1,0,0.2-0.1,0.3s-0.2,0.2-0.3,0.2l-2.8,0.4
					c-0.3,0-0.6,0-0.7-0.3c-0.1-0.3-0.4-0.5-0.7-0.6c-0.4-0.1-0.8-0.2-1.3-0.1c-0.6,0.1-1,0.2-1.3,0.5c-0.3,0.2-0.4,0.6-0.3,1
					s0.3,0.7,0.7,0.8c0.4,0.2,1.2,0.3,2.3,0.3c1.3,0,2.3,0.2,3.1,0.4c0.8,0.2,1.4,0.6,1.8,1.1c0.4,0.5,0.7,1.2,0.8,2
					c0.2,1.2-0.1,2.2-0.9,3.1c-0.8,0.9-1.8,1.5-3.3,1.9l0.2,1.4c0,0.1,0,0.3-0.1,0.4s-0.2,0.2-0.3,0.2l-1.8,0.3
					C172.5,173.3,172.4,173.2,172.3,173.2z"/>
			</g>
		</g>
		<g>
			<g>
				<defs>
					<path id="SVGID_37_" d="M150,172.1c0,0-14,11.2-9.7,38.8c0.4,2.6,2.4,4.8,4.9,5.4c6,1.5,15.9,2,28.6-4.2
						c3.8-1.9,4.4-7.6,3.7-10.4c-2.2-9-7.2-24-20.5-30.5L150,172.1z"/>
				</defs>
				<use xlink:href="#SVGID_37_"  style="overflow:visible;fill:#36E2BD;"/>
				<clipPath id="SVGID_66_">
					<use xlink:href="#SVGID_37_"  style="overflow:visible;"/>
				</clipPath>
				<path class="st19" d="M150,172.4c0,0-10.2,15.3-6.7,29.9c1.7,7,8.9,8.1,17.6,8.3c4.6,0.1,4.5,5.6,4.5,5.6l-24.3,2.3l-4.6-23.7
					l6.6-20.6l3.2-2.8L150,172.4z"/>
				<path class="st19" d="M156.3,171.5c0,0,11.3,6.4,15.7,22.7c2.7,11.5-7.9,16.4-18.5,19.9c4.1-0.8,6.4,4.8,20.2,0
					c3.6-1.3,7-4.2,7-4.2l-4.6-20l-11.5-17.9l-5.7-1L156.3,171.5z"/>
			</g>
			<g>
				<defs>
					<path id="SVGID_36_" d="M145.4,166c0,0,2.8,3.6,4.6,6.4c2.5-0.4,6.3-0.9,6.3-0.9s1.6-5.1,3.2-8.2c-2.1,0.3-3.1,0.5-3.1,0.5
						l-3.4-0.4l-3.8,1.1l-2.3,1.2L145.4,166z"/>
				</defs>
				<use xlink:href="#SVGID_36_"  style="overflow:visible;fill:#36E2BD;"/>
				<clipPath id="SVGID_67_">
					<use xlink:href="#SVGID_36_"  style="overflow:visible;"/>
				</clipPath>
				<path class="st20" d="M145.4,166c0,0,4.2,5.5,4.6,6.4c1-0.2,1.3-0.6,1.3-0.6l-1.9-7.1l-2.7,0.6L145.4,166z"/>
				<path class="st20" d="M157.1,164.3c0,0-1.5,4.8-1.4,7.3c0.5-0.1,1.9-1,1.9-1l2.3-7.6l-1.7,0.4L157.1,164.3z"/>
			</g>
			<path class="st1" d="M145.4,166c0,0,0.4-0.9,2.4-1.7c0.5-0.3,0.8-0.6,1-0.8c0.2-0.1,1-0.8,2.2-0.9c1.1-0.1,2.2-0.1,3.1,0.3
				c0.9,0.4,1.4,0.5,2,0.4s2.3-0.6,3.3,0c-0.5,0.3-1.5,1.1-2.7,1c-1.2-0.1-2.8-0.5-4.3-0.3c-1.5,0.2-2.3,1-3.2,1.5
				C148.6,165.8,147.6,166.3,145.4,166z"/>
			<path class="st5" d="M149.7,172.2c0.7,0.5,2.1,0.7,3.6,0.4c1.7-0.2,3-0.9,3.4-1.6"/>
			<g>
				<path class="st6" d="M157.7,204c-0.1-0.1-0.2-0.2-0.2-0.3l-0.2-1.4c-1,0-1.9-0.1-2.7-0.4c-0.8-0.3-1.4-0.7-1.8-1.2
					c-0.4-0.5-0.7-1.1-0.8-1.7c0-0.1,0-0.2,0.1-0.3c0.1-0.1,0.2-0.2,0.3-0.2l2.7-0.4c0.2,0,0.3,0,0.4,0c0.1,0,0.2,0.1,0.4,0.2
					c0.5,0.7,1.3,0.9,2.5,0.8c0.7-0.1,1.3-0.3,1.6-0.6s0.5-0.6,0.5-1c0-0.3-0.2-0.5-0.4-0.6c-0.2-0.2-0.6-0.3-1-0.3s-1.1-0.1-2-0.2
					c-1.7-0.1-3-0.4-3.9-0.9s-1.4-1.4-1.6-2.6c-0.2-1.1,0.1-2.1,0.8-2.9s1.7-1.5,3-1.9l-0.2-1.4c0-0.1,0-0.3,0.1-0.4
					c0.1-0.1,0.2-0.2,0.3-0.2l1.8-0.3c0.1,0,0.3,0,0.4,0.1c0.1,0.1,0.2,0.2,0.2,0.3l0.2,1.4c0.9,0,1.7,0.2,2.4,0.5
					c0.7,0.3,1.3,0.7,1.7,1.2c0.4,0.5,0.7,1,0.8,1.5c0,0.1,0,0.2-0.1,0.3c-0.1,0.1-0.2,0.2-0.3,0.2l-2.8,0.4c-0.3,0-0.6,0-0.7-0.3
					c-0.1-0.3-0.4-0.5-0.7-0.6c-0.4-0.1-0.8-0.2-1.3-0.1c-0.6,0.1-1,0.2-1.3,0.5s-0.4,0.6-0.3,1c0.1,0.4,0.3,0.7,0.7,0.8
					c0.4,0.2,1.2,0.3,2.3,0.3c1.3,0,2.3,0.2,3.1,0.4c0.8,0.2,1.4,0.6,1.8,1.1c0.4,0.5,0.7,1.2,0.8,2c0.2,1.2-0.1,2.2-0.9,3.1
					s-1.8,1.5-3.3,1.9l0.2,1.4c0,0.1,0,0.3-0.1,0.4s-0.2,0.2-0.3,0.2l-1.8,0.3C157.9,204.1,157.8,204.1,157.7,204z"/>
			</g>
		</g>
		<g>
			<g>
				<defs>
					<path id="SVGID_35_" d="M128.3,176.8c0,0,19,3.8,28.6,32.4c0.9,2.7,0.1,5.7-2.1,7.6c-5,4.4-15.6,11.2-30.9,10.7
						c-3.2-0.1-5.9-2.4-6.6-5.5c-2.3-9.7-5.7-29.8,3.8-42.7L128.3,176.8z"/>
				</defs>
				<use xlink:href="#SVGID_35_"  style="overflow:visible;fill:#36E2BD;"/>
				<clipPath id="SVGID_68_">
					<use xlink:href="#SVGID_35_"  style="overflow:visible;"/>
				</clipPath>
				<path class="st21" d="M128.5,177c0,0,17.4,9.7,21.3,25.4c3.4,13.6-2.4,17.8-2.4,17.8L160,217l-7.3-25.1L136,175.4l-4.5-1.1
					L128.5,177z"/>
				<path class="st21" d="M122,179.3c0,0-7.6,11.8-3.8,29.6c1.1,5.1,4,16.7,10.1,16.6c-6.9,2.1-10.6,2.7-10.6,2.7l-5.5-21.5
					l2.2-22.9l5-3.8L122,179.3z"/>
			</g>
			<g>
				<defs>
					<path id="SVGID_34_" d="M129.7,168.6c0,0-0.9,4.9-1.2,8.5c-2.6,0.9-6.5,2.2-6.5,2.2s-4.1-4.2-7.2-6.3c2.2-0.7,3.2-1.1,3.2-1.1
						l3-2.1l4.2-0.9l2.9,0L129.7,168.6z"/>
				</defs>
				<use xlink:href="#SVGID_34_"  style="overflow:visible;fill:#36E2BD;"/>
				<clipPath id="SVGID_69_">
					<use xlink:href="#SVGID_34_"  style="overflow:visible;"/>
				</clipPath>
				<path class="st22" d="M129.7,168.6c0,0-1.3,7.4-1.2,8.5c-1.1,0.3-1.6,0.1-1.6,0.1l-1.7-7.8l2.9-0.7L129.7,168.6z"/>
				<path class="st22" d="M117.6,172.8c0,0,3.8,3.9,5,6.3c-0.6,0.2-2.3,0-2.3,0l-5.9-6.1l1.9-0.5L117.6,172.8z"/>
			</g>
			<path class="st1" d="M129.7,168.6c0,0-0.9-0.7-3.2-0.4c-0.7,0-1-0.2-1.3-0.2c-0.3,0-1.4-0.3-2.6,0.2c-1.1,0.4-2.2,1-2.8,1.8
				c-0.6,0.8-1.1,1.2-1.7,1.4c-0.6,0.2-2.5,0.5-3.2,1.6c0.6,0.1,2,0.3,3.1-0.4c1.2-0.7,2.4-1.9,3.9-2.4c1.5-0.5,2.7-0.2,3.8-0.2
				C126.6,170,127.8,169.9,129.7,168.6z"/>
			<path class="st5" d="M128.7,176.7c-0.4,0.8-1.7,1.7-3.3,2.2c-1.7,0.6-3.3,0.6-4.1,0.2"/>
			<g>
				<path class="st6" d="M136,210c-0.1-0.1-0.2-0.2-0.3-0.3l-0.6-1.4c-1.1,0.3-2,0.4-2.9,0.2c-0.9-0.1-1.6-0.4-2.2-0.8
					c-0.6-0.4-1-1-1.3-1.6c0-0.1,0-0.2,0-0.4c0.1-0.1,0.1-0.2,0.3-0.2l2.7-1.1c0.2-0.1,0.3-0.1,0.4-0.1s0.3,0.1,0.4,0.2
					c0.7,0.6,1.6,0.7,2.8,0.2c0.7-0.3,1.3-0.6,1.6-1c0.3-0.4,0.4-0.8,0.2-1.2c-0.1-0.3-0.3-0.5-0.6-0.6c-0.3-0.1-0.7-0.1-1.2-0.1
					c-0.5,0-1.2,0.1-2.1,0.3c-1.8,0.3-3.2,0.3-4.3-0.1c-1.1-0.4-1.9-1.1-2.3-2.4c-0.4-1.1-0.4-2.2,0.1-3.3c0.5-1.1,1.4-2,2.7-2.7
					l-0.6-1.4c-0.1-0.2-0.1-0.3,0-0.4c0.1-0.1,0.2-0.2,0.3-0.3l1.8-0.7c0.2-0.1,0.3-0.1,0.4,0s0.2,0.2,0.3,0.3l0.6,1.5
					c1-0.2,1.9-0.2,2.7,0c0.8,0.2,1.5,0.4,2.1,0.9c0.6,0.4,0.9,0.9,1.2,1.4c0,0.1,0,0.2,0,0.4c0,0.1-0.1,0.2-0.3,0.3l-2.9,1.1
					c-0.3,0.1-0.6,0.1-0.8-0.1c-0.2-0.3-0.5-0.4-0.9-0.5c-0.4-0.1-0.9,0-1.4,0.2c-0.6,0.2-1,0.5-1.2,0.8c-0.2,0.3-0.3,0.7-0.1,1.1
					c0.2,0.4,0.5,0.6,1,0.7s1.3,0,2.5-0.2c1.4-0.3,2.5-0.4,3.4-0.3c0.9,0.1,1.6,0.3,2.2,0.7c0.6,0.4,1,1,1.3,1.9
					c0.5,1.2,0.4,2.4-0.2,3.5c-0.6,1.1-1.6,2.1-3,2.8l0.6,1.4c0.1,0.2,0.1,0.3,0,0.4c-0.1,0.1-0.2,0.2-0.3,0.3l-1.8,0.7
					C136.3,210.1,136.2,210.1,136,210z"/>
			</g>
		</g>
	</g>
	<g>
		<g>
			<g>
				<defs>
					<path id="SVGID_33_" d="M108.2,118.8c0,0-15.7,5.8-20.1,31.6c-0.4,2.5,0.7,4.9,2.8,6.3c4.9,3.1,14.9,7.5,27.9,4.9
						c2.7-0.5,4.7-2.8,4.9-5.6c0.7-8.6,0.9-26.3-9.1-36L108.2,118.8z"/>
				</defs>
				<use xlink:href="#SVGID_33_"  style="overflow:visible;fill:#36E2BD;"/>
				<clipPath id="SVGID_70_">
					<use xlink:href="#SVGID_33_"  style="overflow:visible;"/>
				</clipPath>
				<path class="st23" d="M108.1,119.1c0,0-13.6,10.6-14.8,24.7c-0.6,6.7,5.5,9.8,13.2,12.6c4.1,1.5,2.4,6.3,2.4,6.3l-22.3-5.1
					l2.9-22.5l12-16.4l3.7-1.6L108.1,119.1z"/>
				<path class="st23" d="M113.9,120.1c0,0,8.1,9,7.3,24.8c-1,11-11.9,12.2-22.4,12.2c3.9,0.5,11.8,4.9,17.9,5.9
					c3.6,0.6,7.4-1.6,7.4-1.6l1.8-19.2l-5-19.3l-4.8-2.6L113.9,120.1z"/>
			</g>
			<g>
				<defs>
					<path id="SVGID_32_" d="M105.9,112c0,0,1.5,4,2.2,7.1c2.3,0.4,5.8,1,5.8,1s2.9-4.1,5.3-6.4c-2-0.3-2.9-0.5-2.9-0.5l-2.9-1.4
						l-3.7-0.2l-2.4,0.4L105.9,112z"/>
				</defs>
				<use xlink:href="#SVGID_32_"  style="overflow:visible;fill:#36E2BD;"/>
				<clipPath id="SVGID_71_">
					<use xlink:href="#SVGID_32_"  style="overflow:visible;"/>
				</clipPath>
				<path class="st24" d="M105.9,112c0,0,2.1,6.1,2.2,7.1c1,0.1,1.4-0.1,1.4-0.1l0.4-6.9l-2.5-0.2L105.9,112z"/>
				<path class="st24" d="M116.8,114c0,0-2.7,3.9-3.4,6.1c0.5,0,2-0.3,2-0.3l4.2-6.1l-1.7-0.2L116.8,114z"/>
			</g>
			<path class="st1" d="M105.9,112c0,0,0.6-0.7,2.7-0.8c0.6-0.1,0.9-0.3,1.1-0.4c0.2-0.1,1.1-0.4,2.3-0.2c1,0.2,2,0.6,2.7,1.2
				c0.7,0.6,1.1,0.8,1.7,0.9s2.2,0.1,2.9,0.9c-0.5,0.1-1.6,0.5-2.7,0.1c-1.1-0.4-2.3-1.3-3.7-1.5c-1.4-0.2-2.3,0.2-3.3,0.4
				C108.7,112.8,107.7,112.9,105.9,112z"/>
			<path class="st5" d="M107.8,118.8c0.4,0.6,1.6,1.2,3.1,1.5c1.5,0.3,2.9,0.1,3.5-0.4"/>
			<g>
				<path class="st6" d="M105.6,149.4c-0.1-0.1-0.1-0.2-0.1-0.4l0.2-1.3c-0.9-0.3-1.7-0.7-2.3-1.1c-0.6-0.5-1-1-1.3-1.6
					s-0.3-1.2-0.2-1.8c0-0.1,0.1-0.2,0.2-0.3c0.1-0.1,0.2-0.1,0.3-0.1l2.5,0.4c0.2,0,0.3,0.1,0.4,0.1c0.1,0.1,0.2,0.2,0.3,0.3
					c0.3,0.8,0.9,1.2,2,1.4c0.7,0.1,1.2,0.1,1.6,0c0.4-0.1,0.6-0.4,0.7-0.8c0-0.3,0-0.5-0.2-0.7c-0.2-0.2-0.4-0.4-0.8-0.6
					c-0.4-0.2-1-0.5-1.7-0.8c-1.5-0.6-2.5-1.2-3.2-2c-0.6-0.7-0.9-1.7-0.7-2.8c0.2-1,0.7-1.8,1.5-2.4c0.9-0.6,1.9-0.8,3.2-0.8
					l0.2-1.3c0-0.1,0.1-0.2,0.2-0.3c0.1-0.1,0.2-0.1,0.4-0.1l1.6,0.3c0.1,0,0.2,0.1,0.3,0.2c0.1,0.1,0.1,0.2,0.1,0.4l-0.2,1.4
					c0.8,0.3,1.5,0.7,2,1.2c0.5,0.5,0.9,1,1.2,1.6c0.2,0.6,0.3,1.1,0.3,1.5c0,0.1-0.1,0.2-0.2,0.3s-0.2,0.1-0.3,0.1L111,139
					c-0.3-0.1-0.5-0.2-0.6-0.5c0-0.3-0.2-0.5-0.5-0.8s-0.7-0.4-1.1-0.5c-0.5-0.1-0.9-0.1-1.3,0.1c-0.3,0.1-0.5,0.4-0.6,0.8
					c-0.1,0.4,0.1,0.7,0.4,1c0.3,0.3,1,0.6,2,1c1.1,0.4,2,0.9,2.7,1.3c0.6,0.4,1.1,0.9,1.3,1.5c0.2,0.6,0.3,1.2,0.2,2
					c-0.2,1.1-0.8,1.9-1.7,2.5c-0.9,0.6-2.1,0.8-3.5,0.8l-0.2,1.3c0,0.1-0.1,0.2-0.2,0.3c-0.1,0.1-0.2,0.1-0.4,0.1l-1.6-0.3
					C105.8,149.5,105.7,149.5,105.6,149.4z"/>
			</g>
		</g>
		<g>
			<g>
				<defs>
					<path id="SVGID_31_" d="M115.7,145.2c0,0-13.8,9.8-11.1,36.1c0.3,2.5,2,4.6,4.4,5.3c5.6,1.7,16.5,3.3,28.5-2.7
						c2.5-1.2,3.8-4,3.3-6.7c-1.7-8.6-6.2-25.8-18.4-32.7L115.7,145.2z"/>
				</defs>
				<use xlink:href="#SVGID_31_"  style="overflow:visible;fill:#36E2BD;"/>
				<clipPath id="SVGID_72_">
					<use xlink:href="#SVGID_31_"  style="overflow:visible;"/>
				</clipPath>
				<path class="st25" d="M115.7,145.5c0,0-10.1,13.9-7.8,27.9c2.2,13.2,10.2,15.1,10.2,15.1l-13.1,0.2l-3.2-22.6l7.3-19.1l3.2-2.5
					L115.7,145.5z"/>
				<path class="st25" d="M121.7,144.9c0,0,10.3,6.6,13.7,22.2c1,4.5,1.6,17-3.4,19.1c6.2-0.8,10.7-3.9,10.7-3.9l-3.3-19.2l-10-17.5
					l-5.4-1.2L121.7,144.9z"/>
			</g>
			<g>
				<defs>
					<path id="SVGID_30_" d="M111.7,139.2c0,0,2.5,3.5,4,6.3c2.4-0.2,6-0.6,6-0.6s1.7-4.8,3.5-7.6c-2,0.2-3,0.3-3,0.3L119,137
						l-3.7,0.8l-2.3,1.1L111.7,139.2z"/>
				</defs>
				<use xlink:href="#SVGID_30_"  style="overflow:visible;fill:#36E2BD;"/>
				<clipPath id="SVGID_73_">
					<use xlink:href="#SVGID_30_"  style="overflow:visible;"/>
				</clipPath>
				<path class="st26" d="M111.7,139.2c0,0,3.7,5.4,4,6.3c1-0.1,1.3-0.5,1.3-0.5l-1.5-6.8l-2.5,0.4L111.7,139.2z"/>
				<path class="st26" d="M122.8,138.2c0,0-1.6,4.5-1.7,6.8c0.5-0.1,1.8-0.8,1.8-0.8l2.5-7l-1.7,0.3L122.8,138.2z"/>
			</g>
			<path class="st1" d="M111.7,139.2c0,0,0.4-0.9,2.4-1.5c0.5-0.2,0.7-0.5,1-0.7s1-0.7,2.2-0.8c1,0,2.1,0,2.9,0.4
				c0.8,0.4,1.3,0.5,1.9,0.5c0.5-0.1,2.2-0.5,3.1,0.1c-0.4,0.3-1.5,1-2.6,0.8s-2.6-0.6-4-0.5c-1.4,0.1-2.2,0.8-3.1,1.2
				C114.7,139.2,113.7,139.5,111.7,139.2z"/>
			<path class="st5" d="M115.4,145.3c0.6,0.5,1.9,0.7,3.4,0.6c1.6-0.1,2.9-0.7,3.3-1.3"/>
			<g>
				<path class="st6" d="M121.4,175.7c-0.1-0.1-0.2-0.2-0.2-0.3l-0.1-1.3c-1,0-1.8-0.2-2.5-0.5c-0.7-0.3-1.2-0.7-1.6-1.2
					c-0.4-0.5-0.6-1.1-0.7-1.7c0-0.1,0-0.2,0.1-0.3c0.1-0.1,0.2-0.1,0.3-0.1l2.5-0.2c0.2,0,0.3,0,0.4,0c0.1,0,0.2,0.1,0.3,0.2
					c0.5,0.7,1.2,0.9,2.3,0.9c0.7-0.1,1.2-0.2,1.6-0.5c0.4-0.2,0.5-0.6,0.5-0.9c0-0.3-0.1-0.5-0.4-0.6c-0.2-0.2-0.5-0.3-1-0.4
					c-0.4-0.1-1.1-0.2-1.9-0.3c-1.6-0.2-2.8-0.5-3.6-1.1c-0.8-0.6-1.3-1.4-1.4-2.6c-0.1-1,0.2-1.9,0.9-2.7c0.7-0.8,1.6-1.3,2.9-1.6
					l-0.1-1.3c0-0.1,0-0.3,0.1-0.4c0.1-0.1,0.2-0.2,0.3-0.2l1.7-0.2c0.1,0,0.3,0,0.4,0.1c0.1,0.1,0.2,0.2,0.2,0.3l0.1,1.4
					c0.9,0.1,1.6,0.3,2.3,0.6c0.6,0.3,1.2,0.7,1.5,1.2c0.4,0.5,0.6,0.9,0.7,1.4c0,0.1,0,0.2-0.1,0.3c-0.1,0.1-0.2,0.1-0.3,0.2
					l-2.7,0.2c-0.3,0-0.5-0.1-0.7-0.3c-0.1-0.3-0.3-0.5-0.7-0.6s-0.7-0.2-1.2-0.2c-0.5,0-0.9,0.2-1.2,0.4s-0.4,0.5-0.4,0.9
					c0,0.4,0.3,0.6,0.7,0.8c0.4,0.2,1.1,0.3,2.2,0.4c1.2,0.1,2.2,0.3,2.9,0.5c0.7,0.3,1.3,0.6,1.7,1.1c0.4,0.5,0.6,1.1,0.7,1.9
					c0.1,1.1-0.2,2.1-1,2.9s-1.8,1.4-3.2,1.7l0.1,1.3c0,0.1,0,0.3-0.1,0.4c-0.1,0.1-0.2,0.2-0.3,0.2l-1.7,0.2
					C121.6,175.8,121.5,175.7,121.4,175.7z"/>
			</g>
		</g>
		<g>
			<g>
				<defs>
					<path id="SVGID_29_" d="M109.1,184.3c0,0-15.7,11.3-12.5,41.4c0.3,2.9,2.3,5.3,5.1,6.1c6.4,1.9,18.9,3.7,32.6-3.2
						c2.9-1.4,4.4-4.6,3.8-7.7c-2-9.8-7.2-29.5-21.3-37.3L109.1,184.3z"/>
				</defs>
				<use xlink:href="#SVGID_29_"  style="overflow:visible;fill:#36E2BD;"/>
				<clipPath id="SVGID_74_">
					<use xlink:href="#SVGID_29_"  style="overflow:visible;"/>
				</clipPath>
				<path class="st27" d="M109.1,184.7c0,0-11.8,16.1-8.8,32c1.5,7.7,9.2,9.2,18.6,9.9c5,0.4,4.6,6.3,4.6,6.3l-26.4,1.3l-3.8-25.9
					l8.2-22l3.6-2.9L109.1,184.7z"/>
				<path class="st27" d="M115.9,184c0,0,11.9,7.5,15.8,25.4c1.1,5.2-0.2,17.7-11.9,20.9c7.1-1,20.3-3.5,20.3-3.5l-3.9-21.9
					l-11.5-20l-6.2-1.3L115.9,184z"/>
			</g>
			<g>
				<defs>
					<path id="SVGID_28_" d="M104.4,177.5c0,0,2.9,4,4.6,7.2c2.7-0.3,6.8-0.7,6.8-0.7s2-5.5,3.9-8.7c-2.3,0.3-3.4,0.3-3.4,0.3
						l-3.6-0.7l-4.2,1l-2.6,1.2L104.4,177.5z"/>
				</defs>
				<use xlink:href="#SVGID_28_"  style="overflow:visible;fill:#36E2BD;"/>
				<clipPath id="SVGID_75_">
					<use xlink:href="#SVGID_28_"  style="overflow:visible;"/>
				</clipPath>
				<path class="st28" d="M104.4,177.5c0,0,4.3,6.1,4.6,7.2c1.1-0.2,1.5-0.6,1.5-0.6l-1.7-7.8l-2.9,0.5L104.4,177.5z"/>
				<path class="st28" d="M117.2,176.3c0,0-1.8,5.2-1.9,7.8c0.6-0.1,2.1-0.9,2.1-0.9l2.8-8.1l-1.9,0.3L117.2,176.3z"/>
			</g>
			<path class="st1" d="M104.4,177.5c0,0,0.5-1,2.7-1.7c0.6-0.3,0.9-0.6,1.1-0.8c0.2-0.1,1.1-0.8,2.5-0.9c1.2-0.1,2.4,0,3.4,0.5
				c0.9,0.5,1.5,0.6,2.1,0.5c0.6-0.1,2.5-0.6,3.5,0.1c-0.5,0.3-1.7,1.1-3,1c-1.3-0.1-3-0.7-4.6-0.6c-1.6,0.2-2.5,0.9-3.5,1.4
				C107.9,177.5,106.8,177.9,104.4,177.5z"/>
			<path class="st5" d="M108.7,184.5c0.7,0.5,2.2,0.8,3.9,0.7c1.8-0.2,3.3-0.8,3.8-1.5"/>
			<g>
				<path class="st6" d="M115.6,219.2c-0.1-0.1-0.2-0.2-0.2-0.4l-0.1-1.5c-1.1,0-2.1-0.2-2.9-0.5c-0.8-0.3-1.4-0.8-1.9-1.4
					s-0.7-1.2-0.8-1.9c0-0.1,0-0.2,0.1-0.3s0.2-0.2,0.3-0.2l2.9-0.3c0.2,0,0.3,0,0.4,0c0.1,0,0.2,0.1,0.4,0.3c0.5,0.8,1.4,1.1,2.6,1
					c0.8-0.1,1.4-0.3,1.8-0.5c0.4-0.3,0.6-0.6,0.5-1.1c0-0.3-0.2-0.5-0.4-0.7c-0.2-0.2-0.6-0.3-1.1-0.4c-0.5-0.1-1.2-0.2-2.1-0.3
					c-1.8-0.2-3.2-0.6-4.1-1.2c-0.9-0.6-1.5-1.6-1.6-2.9c-0.1-1.2,0.2-2.2,1-3.1c0.8-0.9,1.9-1.5,3.3-1.9l-0.1-1.5
					c0-0.2,0-0.3,0.1-0.4c0.1-0.1,0.2-0.2,0.4-0.2l1.9-0.2c0.2,0,0.3,0,0.4,0.1c0.1,0.1,0.2,0.2,0.2,0.4l0.2,1.6
					c1,0.1,1.8,0.3,2.6,0.7c0.7,0.4,1.3,0.8,1.8,1.4c0.4,0.5,0.7,1.1,0.8,1.6c0,0.1,0,0.2-0.1,0.4c-0.1,0.1-0.2,0.2-0.3,0.2
					l-3.1,0.3c-0.3,0-0.6-0.1-0.8-0.3c-0.1-0.3-0.4-0.5-0.8-0.7c-0.4-0.2-0.9-0.2-1.4-0.2c-0.6,0.1-1.1,0.2-1.4,0.5
					c-0.3,0.3-0.5,0.6-0.4,1c0,0.4,0.3,0.7,0.8,0.9c0.5,0.2,1.3,0.4,2.5,0.5c1.4,0.1,2.5,0.3,3.4,0.6c0.9,0.3,1.5,0.7,1.9,1.3
					c0.4,0.6,0.7,1.3,0.8,2.2c0.1,1.3-0.2,2.4-1.1,3.3c-0.9,0.9-2.1,1.6-3.7,1.9l0.2,1.5c0,0.2,0,0.3-0.1,0.4
					c-0.1,0.1-0.2,0.2-0.4,0.2l-1.9,0.2C115.9,219.3,115.7,219.3,115.6,219.2z"/>
			</g>
		</g>
		<g>
			<g>
				<defs>
					<path id="SVGID_27_" d="M140.3,184.2c0,0-19.4,0-34.4,26.2c-1.4,2.5-1.2,5.6,0.5,7.9c4.1,5.3,13.1,14,28.3,16.5
						c3.2,0.5,6.3-1.2,7.6-4.1c4.2-9.1,11.5-28.2,4.6-42.7L140.3,184.2z"/>
				</defs>
				<use xlink:href="#SVGID_27_"  style="overflow:visible;fill:#36E2BD;"/>
				<clipPath id="SVGID_76_">
					<use xlink:href="#SVGID_27_"  style="overflow:visible;"/>
				</clipPath>
				<path class="st29" d="M140.1,184.5c0,0-19,6.1-25.9,20.8c-5.9,12.7-1.1,17.9-1.1,17.9l-11.7-5.6l12.1-23.2l19.5-13l4.6-0.2
					L140.1,184.5z"/>
				<path class="st29" d="M146,187.9c0,0,5.2,13.1-2.1,29.8c-2.1,4.8-7.2,15.7-13.2,14.4c6.3,3.4,9.8,4.7,9.8,4.7l9.7-20.1l2.3-23
					l-4.2-4.7L146,187.9z"/>
			</g>
			<g>
				<defs>
					<path id="SVGID_26_" d="M140.6,175.9c0,0,0,5-0.5,8.5c2.4,1.4,5.9,3.5,5.9,3.5s4.8-3.3,8.3-4.8c-2-1.2-3-1.7-3-1.7l-2.5-2.6
						l-4-1.7l-2.8-0.5L140.6,175.9z"/>
				</defs>
				<use xlink:href="#SVGID_26_"  style="overflow:visible;fill:#36E2BD;"/>
				<clipPath id="SVGID_77_">
					<use xlink:href="#SVGID_26_"  style="overflow:visible;"/>
				</clipPath>
				<path class="st30" d="M140.6,175.9c0,0-0.1,7.5-0.5,8.5c1,0.5,1.5,0.4,1.5,0.4l3.2-7.3l-2.7-1.3L140.6,175.9z"/>
				<path class="st30" d="M151.6,182.4c0,0-4.5,3.1-6.1,5.2c0.5,0.3,2.3,0.5,2.3,0.5l7-4.9l-1.7-0.8L151.6,182.4z"/>
			</g>
			<path class="st1" d="M140.6,175.9c0,0,1-0.5,3.2,0.2c0.6,0.1,1.1,0,1.3,0c0.3,0,1.4,0,2.5,0.7c1,0.7,2,1.4,2.4,2.4
				c0.5,0.9,0.9,1.4,1.4,1.7c0.5,0.3,2.4,1,2.8,2.2c-0.6-0.1-2-0.1-3-1s-2-2.3-3.4-3.1c-1.4-0.8-2.6-0.7-3.7-0.9
				C143.4,177.9,142.2,177.6,140.6,175.9z"/>
			<path class="st5" d="M140,184.1c0.2,0.8,1.3,2,2.8,2.8c1.6,0.9,3.1,1.3,4,1"/>
			<g>
				<path class="st6" d="M125.2,216.3c0-0.1,0-0.3,0.1-0.4l0.8-1.3c-0.9-0.7-1.6-1.4-2-2.1c-0.5-0.8-0.7-1.5-0.7-2.2
					c0-0.7,0.1-1.4,0.4-2c0.1-0.1,0.2-0.2,0.3-0.2c0.1,0,0.2,0,0.4,0.1l2.5,1.5c0.2,0.1,0.3,0.2,0.3,0.3c0.1,0.1,0.1,0.3,0.1,0.4
					c0,0.9,0.5,1.7,1.6,2.3c0.7,0.4,1.3,0.6,1.8,0.6c0.5,0,0.9-0.2,1.1-0.5c0.2-0.3,0.2-0.5,0.1-0.8c-0.1-0.3-0.3-0.6-0.6-1
					c-0.3-0.4-0.9-0.9-1.6-1.5c-1.4-1.2-2.2-2.3-2.6-3.4c-0.4-1.1-0.3-2.2,0.4-3.3c0.6-1,1.5-1.7,2.6-2c1.2-0.3,2.4-0.1,3.8,0.4
					l0.8-1.3c0.1-0.1,0.2-0.2,0.3-0.3c0.1,0,0.3,0,0.4,0.1l1.7,1c0.1,0.1,0.2,0.2,0.3,0.3c0,0.1,0,0.3-0.1,0.4l-0.8,1.4
					c0.7,0.6,1.3,1.3,1.7,2.1c0.4,0.7,0.6,1.5,0.6,2.1c0,0.7-0.1,1.3-0.3,1.8c-0.1,0.1-0.2,0.2-0.3,0.2c-0.1,0-0.2,0-0.4,0l-2.7-1.6
					c-0.3-0.2-0.4-0.4-0.4-0.7c0.1-0.3,0-0.7-0.2-1c-0.2-0.4-0.6-0.7-1-1c-0.5-0.3-1-0.5-1.4-0.4c-0.4,0-0.7,0.2-0.9,0.6
					c-0.2,0.4-0.2,0.8,0.1,1.2c0.3,0.4,0.8,1.1,1.7,1.9c1.1,0.9,1.9,1.7,2.4,2.5c0.5,0.7,0.8,1.5,0.8,2.2c0,0.7-0.2,1.5-0.6,2.2
					c-0.7,1.1-1.6,1.8-2.8,2c-1.2,0.2-2.6,0.1-4.1-0.6l-0.8,1.3c-0.1,0.1-0.2,0.2-0.3,0.3c-0.1,0-0.3,0-0.4-0.1l-1.7-1
					C125.3,216.6,125.3,216.5,125.2,216.3z"/>
			</g>
		</g>
		<g>
			<g>
				<defs>
					<path id="SVGID_25_" d="M90.1,189.2c0,0-15.7,11.3-12.5,41.4c0.3,2.9,2.3,5.3,5.1,6.1c6.4,1.9,18.9,3.7,32.6-3.2
						c2.9-1.4,4.4-4.6,3.8-7.7c-2-9.8-7.2-29.5-21.3-37.3L90.1,189.2z"/>
				</defs>
				<use xlink:href="#SVGID_25_"  style="overflow:visible;fill:#36E2BD;"/>
				<clipPath id="SVGID_78_">
					<use xlink:href="#SVGID_25_"  style="overflow:visible;"/>
				</clipPath>
				<path class="st31" d="M90.1,189.5c0,0-11.8,16.1-8.8,32c1.5,7.7,9.2,9.2,18.6,9.9c5,0.4,4.6,6.3,4.6,6.3L78.1,239l-3.8-25.9
					l8.2-22l3.6-2.9L90.1,189.5z"/>
				<path class="st31" d="M96.9,188.8c0,0,11.9,7.5,15.8,25.4c1.1,5.2-0.2,17.7-11.9,20.9c7.1-1,20.3-3.5,20.3-3.5l-3.9-21.9
					l-11.5-20l-6.2-1.3L96.9,188.8z"/>
			</g>
			<g>
				<defs>
					<path id="SVGID_24_" d="M85.5,182.3c0,0,2.9,4,4.6,7.2c2.7-0.3,6.8-0.7,6.8-0.7s2-5.5,3.9-8.7c-2.3,0.3-3.4,0.3-3.4,0.3
						l-3.6-0.7l-4.2,1L87,182L85.5,182.3z"/>
				</defs>
				<use xlink:href="#SVGID_24_"  style="overflow:visible;fill:#36E2BD;"/>
				<clipPath id="SVGID_79_">
					<use xlink:href="#SVGID_24_"  style="overflow:visible;"/>
				</clipPath>
				<path class="st32" d="M85.5,182.3c0,0,4.3,6.1,4.6,7.2c1.1-0.2,1.5-0.6,1.5-0.6l-1.7-7.8l-2.9,0.5L85.5,182.3z"/>
				<path class="st32" d="M98.2,181.1c0,0-1.8,5.2-1.9,7.8c0.6-0.1,2.1-0.9,2.1-0.9l2.8-8.1l-1.9,0.3L98.2,181.1z"/>
			</g>
			<path class="st1" d="M85.5,182.3c0,0,0.5-1,2.7-1.7c0.6-0.3,0.9-0.6,1.1-0.8s1.1-0.8,2.5-0.9c1.2-0.1,2.4,0,3.4,0.5
				s1.5,0.6,2.1,0.5c0.6-0.1,2.5-0.6,3.5,0.1c-0.5,0.3-1.7,1.1-3,1c-1.3-0.1-3-0.7-4.6-0.6c-1.6,0.2-2.5,0.9-3.5,1.4
				C88.9,182.3,87.8,182.7,85.5,182.3z"/>
			<path class="st5" d="M89.8,189.3c0.7,0.5,2.2,0.8,3.9,0.7c1.8-0.2,3.3-0.8,3.8-1.5"/>
			<g>
				<path class="st6" d="M96.7,224c-0.1-0.1-0.2-0.2-0.2-0.4l-0.2-1.5c-1.1,0-2.1-0.2-2.9-0.5c-0.8-0.3-1.4-0.8-1.9-1.4
					c-0.4-0.6-0.7-1.2-0.8-1.9c0-0.1,0-0.2,0.1-0.3c0.1-0.1,0.2-0.2,0.3-0.2l2.9-0.3c0.2,0,0.3,0,0.4,0c0.1,0,0.2,0.1,0.4,0.3
					c0.5,0.8,1.4,1.1,2.6,1c0.8-0.1,1.4-0.3,1.8-0.5c0.4-0.3,0.6-0.6,0.5-1.1c0-0.3-0.2-0.5-0.4-0.7c-0.2-0.2-0.6-0.3-1.1-0.4
					c-0.5-0.1-1.2-0.2-2.1-0.3c-1.8-0.2-3.2-0.6-4.1-1.2c-0.9-0.6-1.5-1.6-1.6-2.9c-0.1-1.2,0.2-2.2,1-3.1c0.8-0.9,1.9-1.5,3.3-1.9
					l-0.2-1.5c0-0.2,0-0.3,0.1-0.4c0.1-0.1,0.2-0.2,0.4-0.2l1.9-0.2c0.2,0,0.3,0,0.4,0.1c0.1,0.1,0.2,0.2,0.2,0.4l0.2,1.6
					c1,0.1,1.8,0.3,2.6,0.7c0.7,0.4,1.3,0.8,1.8,1.4c0.4,0.5,0.7,1.1,0.8,1.6c0,0.1,0,0.2-0.1,0.4c-0.1,0.1-0.2,0.2-0.3,0.2
					l-3.1,0.3c-0.3,0-0.6-0.1-0.8-0.3c-0.1-0.3-0.4-0.5-0.8-0.7c-0.4-0.2-0.9-0.2-1.4-0.2c-0.6,0.1-1.1,0.2-1.4,0.5
					c-0.3,0.3-0.5,0.6-0.4,1c0,0.4,0.3,0.7,0.8,0.9s1.3,0.4,2.5,0.5c1.4,0.1,2.5,0.3,3.4,0.6c0.9,0.3,1.5,0.7,1.9,1.3
					c0.4,0.6,0.7,1.3,0.8,2.2c0.1,1.3-0.2,2.4-1.1,3.3c-0.9,0.9-2.1,1.6-3.7,1.9l0.2,1.5c0,0.2,0,0.3-0.1,0.4
					c-0.1,0.1-0.2,0.2-0.4,0.2l-1.9,0.2C96.9,224.1,96.8,224.1,96.7,224z"/>
			</g>
		</g>
	</g>
	<g>
		<g>
			<g>
				<defs>
					<path id="SVGID_23_" d="M200.1,141.1c0,0-14,10-11.3,36.7c0.3,2.5,2,4.7,4.5,5.4c5.7,1.7,16.7,3.4,29-2.7
						c2.5-1.3,3.9-4.1,3.4-6.9c-1.7-8.7-6.3-26.3-18.7-33.2L200.1,141.1z"/>
				</defs>
				<use xlink:href="#SVGID_23_"  style="overflow:visible;fill:#36E2BD;"/>
				<clipPath id="SVGID_80_">
					<use xlink:href="#SVGID_23_"  style="overflow:visible;"/>
				</clipPath>
				<path class="st33" d="M200,141.4c0,0-10.3,14.2-7.9,28.4c2.2,13.4,10.4,15.3,10.4,15.3l-13.3,0.2l-3.2-23l7.4-19.5l3.2-2.6
					L200,141.4z"/>
				<path class="st33" d="M206.1,140.8c0,0,10.5,6.7,13.9,22.6c1,4.6,1.6,17.3-3.4,19.4c6.3-0.8,10.9-3.9,10.9-3.9l-3.4-19.5
					l-10.2-17.8l-5.5-1.2L206.1,140.8z"/>
			</g>
			<g>
				<defs>
					<path id="SVGID_22_" d="M196,135c0,0,2.5,3.6,4.1,6.4c2.4-0.2,6.1-0.6,6.1-0.6s1.8-4.9,3.5-7.7c-2.1,0.2-3,0.3-3,0.3l-3.2-0.6
						l-3.7,0.8l-2.3,1.1L196,135z"/>
				</defs>
				<use xlink:href="#SVGID_22_"  style="overflow:visible;fill:#36E2BD;"/>
				<clipPath id="SVGID_81_">
					<use xlink:href="#SVGID_22_"  style="overflow:visible;"/>
				</clipPath>
				<path class="st34" d="M196,135c0,0,3.8,5.5,4.1,6.4c1-0.1,1.3-0.5,1.3-0.5l-1.5-7l-2.6,0.5L196,135z"/>
				<path class="st34" d="M207.3,134c0,0-1.7,4.6-1.7,7c0.5-0.1,1.9-0.8,1.9-0.8l2.6-7.2l-1.7,0.3L207.3,134z"/>
			</g>
			<path class="st1" d="M196,135c0,0,0.5-0.9,2.4-1.5c0.5-0.2,0.8-0.5,1-0.7c0.2-0.1,1-0.7,2.2-0.8c1.1,0,2.2,0,3,0.5
				s1.3,0.5,1.9,0.5c0.6-0.1,2.2-0.5,3.1,0.1c-0.5,0.3-1.5,1-2.7,0.9c-1.2-0.1-2.6-0.7-4.1-0.5c-1.4,0.1-2.2,0.8-3.1,1.2
				C199,135,198,135.4,196,135z"/>
			<path class="st5" d="M199.8,141.2c0.6,0.5,2,0.7,3.5,0.6c1.6-0.1,2.9-0.7,3.4-1.3"/>
			<g>
				<path class="st6" d="M205.8,172.1c-0.1-0.1-0.2-0.2-0.2-0.3l-0.1-1.4c-1,0-1.8-0.2-2.6-0.5c-0.7-0.3-1.3-0.7-1.7-1.2
					c-0.4-0.5-0.6-1.1-0.7-1.7c0-0.1,0-0.2,0.1-0.3s0.2-0.1,0.3-0.1l2.6-0.2c0.2,0,0.3,0,0.4,0c0.1,0,0.2,0.1,0.3,0.2
					c0.5,0.7,1.2,1,2.3,0.9c0.7-0.1,1.2-0.2,1.6-0.5c0.4-0.2,0.5-0.6,0.5-0.9c0-0.3-0.1-0.5-0.4-0.6s-0.5-0.3-1-0.4
					c-0.4-0.1-1.1-0.2-1.9-0.3c-1.6-0.2-2.8-0.5-3.7-1.1c-0.8-0.6-1.3-1.4-1.4-2.6c-0.1-1.1,0.2-2,0.9-2.8c0.7-0.8,1.7-1.4,3-1.7
					l-0.1-1.4c0-0.1,0-0.3,0.1-0.4c0.1-0.1,0.2-0.2,0.3-0.2l1.7-0.2c0.1,0,0.3,0,0.4,0.1c0.1,0.1,0.2,0.2,0.2,0.3l0.1,1.4
					c0.9,0.1,1.6,0.3,2.3,0.6c0.7,0.3,1.2,0.7,1.6,1.2c0.4,0.5,0.6,1,0.7,1.4c0,0.1,0,0.2-0.1,0.3c-0.1,0.1-0.2,0.1-0.3,0.2
					l-2.7,0.3c-0.3,0-0.5-0.1-0.7-0.3c-0.1-0.3-0.3-0.5-0.7-0.6c-0.3-0.2-0.8-0.2-1.2-0.2c-0.5,0-1,0.2-1.2,0.4
					c-0.3,0.2-0.4,0.5-0.4,0.9c0,0.4,0.3,0.7,0.7,0.8c0.4,0.2,1.2,0.3,2.2,0.5c1.2,0.1,2.2,0.3,3,0.6c0.8,0.3,1.3,0.6,1.7,1.1
					s0.6,1.1,0.7,2c0.1,1.1-0.2,2.1-1,2.9c-0.8,0.8-1.9,1.4-3.3,1.7l0.1,1.4c0,0.1,0,0.3-0.1,0.4c-0.1,0.1-0.2,0.2-0.3,0.2l-1.7,0.2
					C206.1,172.2,205.9,172.2,205.8,172.1z"/>
			</g>
		</g>
		<g>
			<g>
				<defs>
					<path id="SVGID_21_" d="M193.3,180.9c0,0-16,11.5-12.7,42.1c0.3,2.9,2.3,5.4,5.2,6.2c6.5,1.9,19.2,3.7,33.2-3.3
						c2.9-1.5,4.5-4.7,3.8-7.9c-2-10-7.3-30.1-21.6-38L193.3,180.9z"/>
				</defs>
				<use xlink:href="#SVGID_21_"  style="overflow:visible;fill:#36E2BD;"/>
				<clipPath id="SVGID_82_">
					<use xlink:href="#SVGID_21_"  style="overflow:visible;"/>
				</clipPath>
				<path class="st35" d="M193.3,181.3c0,0-12,16.3-8.9,32.6c1.5,7.8,9.4,9.4,18.9,10.1c5.1,0.4,4.7,6.4,4.7,6.4l-26.9,1.3
					l-3.8-26.3l8.4-22.3l3.7-2.9L193.3,181.3z"/>
				<path class="st35" d="M200.2,180.6c0,0,12.1,7.7,16.1,25.8c1.2,5.2-0.2,18-12.1,21.2c7.2-1,20.7-3.5,20.7-3.5l-4-22.3
					l-11.7-20.3l-6.3-1.4L200.2,180.6z"/>
			</g>
			<g>
				<defs>
					<path id="SVGID_20_" d="M188.6,174c0,0,2.9,4.1,4.7,7.3c2.8-0.3,6.9-0.7,6.9-0.7s2-5.6,4-8.9c-2.4,0.3-3.5,0.3-3.5,0.3
						l-3.7-0.7l-4.3,1l-2.6,1.2L188.6,174z"/>
				</defs>
				<use xlink:href="#SVGID_20_"  style="overflow:visible;fill:#36E2BD;"/>
				<clipPath id="SVGID_83_">
					<use xlink:href="#SVGID_20_"  style="overflow:visible;"/>
				</clipPath>
				<path class="st36" d="M188.6,174c0,0,4.3,6.3,4.7,7.3c1.1-0.2,1.5-0.6,1.5-0.6l-1.7-8l-3,0.5L188.6,174z"/>
				<path class="st36" d="M201.6,172.7c0,0-1.9,5.2-1.9,8c0.6-0.1,2.1-0.9,2.1-0.9l2.9-8.2l-1.9,0.3L201.6,172.7z"/>
			</g>
			<path class="st1" d="M188.6,174c0,0,0.5-1,2.8-1.7c0.6-0.3,0.9-0.6,1.1-0.8c0.2-0.2,1.1-0.8,2.5-0.9c1.2-0.1,2.5,0,3.4,0.5
				s1.5,0.6,2.2,0.5c0.6-0.1,2.5-0.6,3.6,0.1c-0.5,0.3-1.7,1.1-3,1s-3-0.7-4.7-0.6c-1.7,0.2-2.5,0.9-3.6,1.4
				C192.1,174,190.9,174.4,188.6,174z"/>
			<path class="st5" d="M193,181.1c0.7,0.6,2.2,0.8,4,0.7c1.8-0.2,3.3-0.8,3.9-1.5"/>
			<g>
				<path class="st6" d="M200,216.4c-0.1-0.1-0.2-0.2-0.2-0.4l-0.2-1.6c-1.1,0-2.1-0.2-2.9-0.6s-1.5-0.8-1.9-1.4
					c-0.5-0.6-0.7-1.2-0.8-1.9c0-0.1,0-0.3,0.1-0.3c0.1-0.1,0.2-0.2,0.3-0.2l3-0.3c0.2,0,0.3,0,0.5,0s0.2,0.1,0.4,0.3
					c0.5,0.8,1.4,1.1,2.7,1c0.8-0.1,1.4-0.3,1.8-0.5s0.6-0.6,0.6-1.1c0-0.3-0.2-0.6-0.4-0.7c-0.3-0.2-0.6-0.3-1.1-0.4
					c-0.5-0.1-1.2-0.2-2.2-0.3c-1.8-0.2-3.2-0.6-4.2-1.2c-1-0.6-1.5-1.6-1.6-3c-0.1-1.2,0.2-2.3,1-3.2c0.8-0.9,1.9-1.6,3.4-1.9
					l-0.2-1.6c0-0.2,0-0.3,0.1-0.4c0.1-0.1,0.2-0.2,0.4-0.2l1.9-0.2c0.2,0,0.3,0,0.4,0.1c0.1,0.1,0.2,0.2,0.2,0.4l0.2,1.6
					c1,0.1,1.9,0.3,2.6,0.7c0.8,0.4,1.4,0.9,1.8,1.4c0.4,0.6,0.7,1.1,0.8,1.6c0,0.1,0,0.3-0.1,0.4s-0.2,0.2-0.3,0.2l-3.1,0.3
					c-0.3,0-0.6-0.1-0.8-0.3c-0.1-0.3-0.4-0.5-0.8-0.7c-0.4-0.2-0.9-0.2-1.4-0.2c-0.6,0.1-1.1,0.2-1.4,0.5c-0.3,0.3-0.5,0.6-0.4,1
					s0.3,0.7,0.8,0.9c0.5,0.2,1.3,0.4,2.5,0.5c1.4,0.1,2.6,0.3,3.4,0.6s1.5,0.7,2,1.3c0.4,0.6,0.7,1.3,0.8,2.2
					c0.1,1.3-0.2,2.4-1.1,3.4c-0.9,0.9-2.1,1.6-3.7,2l0.2,1.6c0,0.2,0,0.3-0.1,0.4s-0.2,0.2-0.4,0.2l-1.9,0.2
					C200.2,216.5,200.1,216.5,200,216.4z"/>
			</g>
		</g>
		<g>
			<g>
				<defs>
					<path id="SVGID_19_" d="M223.8,180.8c0,0-19.7,0-35,26.7c-1.5,2.5-1.2,5.7,0.6,8c4.2,5.4,13.4,14.3,28.8,16.8
						c3.2,0.5,6.4-1.2,7.7-4.1c4.2-9.3,11.7-28.7,4.7-43.4L223.8,180.8z"/>
				</defs>
				<use xlink:href="#SVGID_19_"  style="overflow:visible;fill:#36E2BD;"/>
				<clipPath id="SVGID_84_">
					<use xlink:href="#SVGID_19_"  style="overflow:visible;"/>
				</clipPath>
				<path class="st37" d="M223.6,181.1c0,0-19.3,6.2-26.3,21.2c-6,12.9-1.1,18.2-1.1,18.2l-11.9-5.7l12.3-23.6l19.9-13.2l4.7-0.2
					L223.6,181.1z"/>
				<path class="st37" d="M229.6,184.6c0,0,5.3,13.3-2.1,30.3c-2.1,4.9-7.3,15.9-13.4,14.6c6.4,3.4,10,4.8,10,4.8l9.8-20.4l2.4-23.4
					l-4.3-4.8L229.6,184.6z"/>
			</g>
			<g>
				<defs>
					<path id="SVGID_18_" d="M224.1,172.4c0,0,0,5-0.5,8.7c2.4,1.4,6,3.5,6,3.5s4.9-3.3,8.4-4.9c-2.1-1.2-3-1.8-3-1.8l-2.6-2.7
						l-4-1.7l-2.9-0.5L224.1,172.4z"/>
				</defs>
				<use xlink:href="#SVGID_18_"  style="overflow:visible;fill:#36E2BD;"/>
				<clipPath id="SVGID_85_">
					<use xlink:href="#SVGID_18_"  style="overflow:visible;"/>
				</clipPath>
				<path class="st38" d="M224.1,172.4c0,0-0.1,7.6-0.5,8.7c1,0.5,1.6,0.4,1.6,0.4l3.3-7.5l-2.7-1.3L224.1,172.4z"/>
				<path class="st38" d="M235.3,179c0,0-4.6,3.2-6.2,5.3c0.6,0.3,2.3,0.5,2.3,0.5l7.1-5l-1.8-0.9L235.3,179z"/>
			</g>
			<path class="st1" d="M224.1,172.4c0,0,1-0.5,3.3,0.2c0.7,0.1,1.1,0,1.4,0c0.3,0,1.4,0,2.6,0.8c1,0.7,2,1.5,2.5,2.4
				c0.5,0.9,0.9,1.4,1.5,1.7c0.6,0.3,2.4,1,2.8,2.2c-0.6-0.1-2-0.1-3.1-1c-1-0.9-2-2.4-3.5-3.2c-1.4-0.8-2.6-0.7-3.7-0.9
				C226.9,174.4,225.8,174.1,224.1,172.4z"/>
			<path class="st5" d="M223.5,180.7c0.2,0.9,1.3,2,2.8,2.9c1.6,0.9,3.2,1.3,4,1"/>
			<g>
				<path class="st6" d="M208.4,213.5c0-0.1,0-0.3,0.1-0.4l0.8-1.4c-0.9-0.7-1.6-1.4-2-2.2s-0.7-1.5-0.7-2.3c0-0.7,0.1-1.4,0.5-2
					c0.1-0.1,0.2-0.2,0.3-0.2c0.1,0,0.3,0,0.4,0.1l2.6,1.5c0.2,0.1,0.3,0.2,0.3,0.3c0.1,0.1,0.1,0.3,0.2,0.5c0,0.9,0.5,1.7,1.6,2.4
					c0.7,0.4,1.3,0.6,1.8,0.6c0.5,0,0.9-0.2,1.1-0.5c0.2-0.3,0.2-0.6,0.1-0.8s-0.3-0.6-0.7-1c-0.3-0.4-0.9-0.9-1.6-1.5
					c-1.4-1.2-2.3-2.4-2.7-3.5c-0.4-1.1-0.3-2.2,0.4-3.4c0.6-1,1.5-1.7,2.7-2c1.2-0.3,2.5-0.1,3.9,0.4l0.8-1.4
					c0.1-0.1,0.2-0.2,0.3-0.3c0.1,0,0.3,0,0.4,0.1l1.7,1c0.1,0.1,0.2,0.2,0.3,0.3c0,0.1,0,0.3-0.1,0.4l-0.8,1.4
					c0.8,0.7,1.3,1.4,1.7,2.1c0.4,0.8,0.6,1.5,0.6,2.2c0,0.7-0.1,1.3-0.3,1.8c-0.1,0.1-0.2,0.2-0.3,0.2c-0.1,0-0.2,0-0.4,0l-2.7-1.6
					c-0.3-0.2-0.4-0.4-0.5-0.7c0.1-0.3,0-0.7-0.2-1c-0.2-0.4-0.6-0.7-1-1c-0.5-0.3-1-0.5-1.4-0.4c-0.4,0-0.7,0.2-0.9,0.6
					c-0.2,0.4-0.2,0.8,0.1,1.2s0.9,1.1,1.8,1.9c1.1,0.9,1.9,1.8,2.4,2.5c0.5,0.8,0.8,1.5,0.8,2.2c0,0.7-0.2,1.5-0.7,2.3
					c-0.7,1.1-1.6,1.8-2.9,2.1s-2.7,0.1-4.2-0.6l-0.8,1.4c-0.1,0.1-0.2,0.2-0.3,0.3c-0.1,0-0.3,0-0.4-0.1l-1.7-1
					C208.6,213.8,208.5,213.7,208.4,213.5z"/>
			</g>
		</g>
		<g>
			<g>
				<defs>
					<path id="SVGID_17_" d="M171.3,185.9c0,0-16,11.5-12.7,42.1c0.3,2.9,2.3,5.4,5.2,6.2c6.5,1.9,19.2,3.7,33.2-3.3
						c2.9-1.5,4.5-4.7,3.8-7.9c-2-10-7.3-30.1-21.6-38L171.3,185.9z"/>
				</defs>
				<use xlink:href="#SVGID_17_"  style="overflow:visible;fill:#36E2BD;"/>
				<clipPath id="SVGID_86_">
					<use xlink:href="#SVGID_17_"  style="overflow:visible;"/>
				</clipPath>
				<path class="st39" d="M171.3,186.2c0,0-12,16.3-8.9,32.6c1.5,7.8,9.4,9.4,18.9,10.1c5.1,0.4,4.7,6.4,4.7,6.4l-26.9,1.3
					l-3.8-26.3l8.4-22.3l3.7-2.9L171.3,186.2z"/>
				<path class="st39" d="M178.2,185.5c0,0,12.1,7.7,16.1,25.8c1.2,5.2-0.2,18-12.1,21.2c7.2-1,20.7-3.5,20.7-3.5l-4-22.3
					l-11.7-20.3l-6.3-1.4L178.2,185.5z"/>
			</g>
			<g>
				<defs>
					<path id="SVGID_16_" d="M166.6,178.9c0,0,2.9,4.1,4.7,7.3c2.8-0.3,6.9-0.7,6.9-0.7s2-5.6,4-8.9c-2.4,0.3-3.5,0.3-3.5,0.3
						l-3.7-0.7l-4.3,1l-2.6,1.2L166.6,178.9z"/>
				</defs>
				<use xlink:href="#SVGID_16_"  style="overflow:visible;fill:#36E2BD;"/>
				<clipPath id="SVGID_87_">
					<use xlink:href="#SVGID_16_"  style="overflow:visible;"/>
				</clipPath>
				<path class="st40" d="M166.6,178.9c0,0,4.3,6.3,4.7,7.3c1.1-0.2,1.5-0.6,1.5-0.6l-1.7-8l-3,0.5L166.6,178.9z"/>
				<path class="st40" d="M179.6,177.6c0,0-1.9,5.2-1.9,8c0.6-0.1,2.1-0.9,2.1-0.9l2.9-8.2l-1.9,0.3L179.6,177.6z"/>
			</g>
			<path class="st1" d="M166.6,178.9c0,0,0.5-1,2.8-1.7c0.6-0.3,0.9-0.6,1.1-0.8c0.2-0.2,1.1-0.8,2.5-0.9c1.2-0.1,2.5,0,3.4,0.5
				s1.5,0.6,2.2,0.5s2.5-0.6,3.6,0.1c-0.5,0.3-1.7,1.1-3,1s-3-0.7-4.7-0.6c-1.7,0.2-2.5,0.9-3.6,1.4
				C170.1,178.9,169,179.3,166.6,178.9z"/>
			<path class="st5" d="M171,186c0.7,0.6,2.2,0.8,4,0.7c1.8-0.2,3.3-0.8,3.9-1.5"/>
			<g>
				<path class="st6" d="M178,221.3c-0.1-0.1-0.2-0.2-0.2-0.4l-0.2-1.6c-1.1,0-2.1-0.2-2.9-0.6c-0.8-0.3-1.5-0.8-1.9-1.4
					c-0.5-0.6-0.7-1.2-0.8-1.9c0-0.1,0-0.3,0.1-0.3s0.2-0.2,0.3-0.2l3-0.3c0.2,0,0.3,0,0.5,0c0.1,0,0.2,0.1,0.4,0.3
					c0.5,0.8,1.4,1.1,2.7,1c0.8-0.1,1.4-0.3,1.8-0.5c0.4-0.3,0.6-0.6,0.6-1.1c0-0.3-0.2-0.6-0.4-0.7c-0.3-0.2-0.6-0.3-1.1-0.4
					c-0.5-0.1-1.2-0.2-2.2-0.3c-1.8-0.2-3.2-0.6-4.2-1.2c-1-0.6-1.5-1.6-1.6-3c-0.1-1.2,0.2-2.3,1-3.2c0.8-0.9,1.9-1.6,3.4-1.9
					l-0.2-1.6c0-0.2,0-0.3,0.1-0.4c0.1-0.1,0.2-0.2,0.4-0.2l1.9-0.2c0.2,0,0.3,0,0.4,0.1c0.1,0.1,0.2,0.2,0.2,0.4l0.2,1.6
					c1,0.1,1.9,0.3,2.6,0.7c0.8,0.4,1.4,0.9,1.8,1.4c0.4,0.5,0.7,1.1,0.8,1.6c0,0.1,0,0.3-0.1,0.4c-0.1,0.1-0.2,0.2-0.3,0.2
					l-3.1,0.3c-0.3,0-0.6-0.1-0.8-0.3c-0.1-0.3-0.4-0.5-0.8-0.7c-0.4-0.2-0.9-0.2-1.4-0.2c-0.6,0.1-1.1,0.2-1.4,0.5
					c-0.3,0.3-0.5,0.6-0.4,1c0,0.4,0.3,0.7,0.8,0.9c0.5,0.2,1.3,0.4,2.6,0.5c1.4,0.1,2.6,0.3,3.4,0.6c0.9,0.3,1.5,0.7,2,1.3
					c0.4,0.6,0.7,1.3,0.8,2.2c0.1,1.3-0.2,2.4-1.1,3.4c-0.9,0.9-2.1,1.6-3.7,2l0.2,1.6c0,0.2,0,0.3-0.1,0.4
					c-0.1,0.1-0.2,0.2-0.4,0.2l-1.9,0.2C178.2,221.4,178.1,221.4,178,221.3z"/>
			</g>
		</g>
	</g>
	<g>
		<g>
			<g>
				<defs>
					<path id="SVGID_15_" d="M243.5,104.4c0,0,17.8,6.5,22.6,35.7c0.5,2.8-0.8,5.6-3.2,7.1c-5.6,3.5-16.8,8.4-31.5,5.5
						c-3.1-0.6-5.3-3.2-5.6-6.3c-0.7-9.7-1-29.7,10.2-40.7L243.5,104.4z"/>
				</defs>
				<use xlink:href="#SVGID_15_"  style="overflow:visible;fill:#36E2BD;"/>
				<clipPath id="SVGID_88_">
					<use xlink:href="#SVGID_15_"  style="overflow:visible;"/>
				</clipPath>
				<path class="st41" d="M243.6,104.7c0,0,15.3,12,16.7,27.8c0.6,7.6-6.2,11.1-14.9,14.2c-4.6,1.7-2.7,7.1-2.7,7.1l25.2-5.7
					l-3.2-25.3l-13.5-18.5l-4.2-1.8L243.6,104.7z"/>
				<path class="st41" d="M237,105.8c0,0-9.2,10.2-8.2,28c1.2,12.5,13.4,13.8,25.2,13.8c-4.4,0.6-13.3,5.5-20.2,6.7
					c-4,0.7-8.4-1.8-8.4-1.8l-2-21.7l5.6-21.8l5.4-2.9L237,105.8z"/>
			</g>
			<g>
				<defs>
					<path id="SVGID_14_" d="M246.1,96.7c0,0-1.6,4.5-2.4,8c-2.6,0.5-6.6,1.2-6.6,1.2s-3.3-4.6-6-7.2c2.3-0.4,3.3-0.6,3.3-0.6
						l3.2-1.6l4.2-0.2l2.8,0.5L246.1,96.7z"/>
				</defs>
				<use xlink:href="#SVGID_14_"  style="overflow:visible;fill:#36E2BD;"/>
				<clipPath id="SVGID_89_">
					<use xlink:href="#SVGID_14_"  style="overflow:visible;"/>
				</clipPath>
				<path class="st42" d="M246.1,96.7c0,0-2.4,6.9-2.4,8c-1.1,0.1-1.5-0.2-1.5-0.2l-0.5-7.8l2.9-0.3L246.1,96.7z"/>
				<path class="st42" d="M233.8,98.9c0,0,3.1,4.4,3.9,6.9c-0.6,0.1-2.2-0.3-2.2-0.3l-4.8-6.9l1.9-0.2L233.8,98.9z"/>
			</g>
			<path class="st1" d="M246.1,96.7c0,0-0.7-0.8-3-0.9c-0.6-0.1-1-0.4-1.2-0.4c-0.3-0.1-1.3-0.5-2.6-0.2c-1.1,0.3-2.3,0.7-3,1.3
				s-1.3,0.9-1.9,1s-2.5,0.1-3.3,1c0.6,0.2,1.9,0.6,3.1,0.1s2.6-1.5,4.2-1.7s2.6,0.2,3.7,0.4C242.8,97.6,244,97.7,246.1,96.7z"/>
			<path class="st5" d="M243.9,104.4c-0.5,0.7-1.9,1.4-3.5,1.6c-1.7,0.3-3.3,0.1-4-0.4"/>
			<g>
				<path class="st6" d="M246.7,137c-0.1-0.1-0.2-0.2-0.2-0.3l-0.3-1.5c-1.1,0.1-2,0-2.8-0.3c-0.8-0.3-1.5-0.6-2-1.2
					c-0.5-0.5-0.8-1.1-1-1.8c0-0.1,0-0.2,0.1-0.3c0.1-0.1,0.2-0.2,0.3-0.2l2.8-0.6c0.2,0,0.3,0,0.4,0c0.1,0,0.2,0.1,0.4,0.2
					c0.6,0.7,1.5,0.9,2.6,0.7c0.8-0.1,1.3-0.4,1.7-0.7c0.4-0.3,0.5-0.7,0.4-1.1c-0.1-0.3-0.2-0.5-0.5-0.7c-0.3-0.1-0.6-0.2-1.1-0.3
					c-0.5-0.1-1.2-0.1-2.1-0.1c-1.8,0-3.1-0.3-4.1-0.8c-1-0.5-1.6-1.4-1.9-2.7c-0.2-1.1,0-2.2,0.7-3.1c0.7-1,1.7-1.7,3.1-2.2
					l-0.3-1.5c0-0.2,0-0.3,0.1-0.4c0.1-0.1,0.2-0.2,0.3-0.2l1.8-0.4c0.2,0,0.3,0,0.4,0.1c0.1,0.1,0.2,0.2,0.2,0.4l0.3,1.5
					c1,0,1.8,0.1,2.6,0.4s1.4,0.7,1.8,1.2c0.5,0.5,0.8,1,0.9,1.5c0,0.1,0,0.2-0.1,0.4c-0.1,0.1-0.2,0.2-0.3,0.2l-3,0.6
					c-0.3,0.1-0.6,0-0.8-0.2c-0.1-0.3-0.4-0.5-0.8-0.6c-0.4-0.1-0.9-0.2-1.4-0.1c-0.6,0.1-1,0.3-1.3,0.6c-0.3,0.3-0.4,0.6-0.3,1
					c0.1,0.4,0.4,0.7,0.8,0.8c0.5,0.1,1.3,0.2,2.5,0.2c1.4,0,2.5,0.1,3.3,0.3c0.9,0.2,1.5,0.6,2,1.1c0.5,0.5,0.8,1.2,1,2.1
					c0.2,1.2,0,2.3-0.8,3.3c-0.8,1-1.9,1.7-3.4,2.2l0.3,1.5c0,0.2,0,0.3-0.1,0.4c-0.1,0.1-0.2,0.2-0.4,0.2l-1.8,0.4
					C247,137.1,246.9,137.1,246.7,137z"/>
			</g>
		</g>
		<g>
			<g>
				<defs>
					<path id="SVGID_13_" d="M231.4,135.3c0,0,15.5,11.1,12.5,40.7c-0.3,2.8-2.2,5.2-5,6c-6.3,1.9-18.6,3.7-32.1-3
						c-2.8-1.4-4.3-4.5-3.7-7.6c1.9-9.7,7-29.1,20.8-36.8L231.4,135.3z"/>
				</defs>
				<use xlink:href="#SVGID_13_"  style="overflow:visible;fill:#36E2BD;"/>
				<clipPath id="SVGID_90_">
					<use xlink:href="#SVGID_13_"  style="overflow:visible;"/>
				</clipPath>
				<path class="st43" d="M231.4,135.6c0,0,11.4,15.7,8.8,31.5c-2.5,14.8-11.5,17-11.5,17l14.7,0.2l3.6-25.5l-8.2-21.6l-3.6-2.8
					L231.4,135.6z"/>
				<path class="st43" d="M224.7,135c0,0-11.6,7.5-15.4,25.1c-1.1,5.1-1.8,19.2,3.8,21.6c-7-0.9-12.1-4.4-12.1-4.4l3.8-21.6
					l11.3-19.7l6.1-1.4L224.7,135z"/>
			</g>
			<g>
				<defs>
					<path id="SVGID_12_" d="M235.9,128.5c0,0-2.8,4-4.5,7.1c-2.7-0.2-6.7-0.6-6.7-0.6s-2-5.4-3.9-8.6c2.3,0.2,3.4,0.3,3.4,0.3
						l3.6-0.7l4.2,0.9l2.6,1.2L235.9,128.5z"/>
				</defs>
				<use xlink:href="#SVGID_12_"  style="overflow:visible;fill:#36E2BD;"/>
				<clipPath id="SVGID_91_">
					<use xlink:href="#SVGID_12_"  style="overflow:visible;"/>
				</clipPath>
				<path class="st44" d="M235.9,128.5c0,0-4.2,6.1-4.5,7.1c-1.1-0.1-1.5-0.6-1.5-0.6l1.6-7.7l2.9,0.5L235.9,128.5z"/>
				<path class="st44" d="M223.4,127.4c0,0,1.8,5.1,1.9,7.7c-0.6-0.1-2.1-0.9-2.1-0.9l-2.8-7.9l1.9,0.3L223.4,127.4z"/>
			</g>
			<path class="st1" d="M235.9,128.5c0,0-0.5-1-2.7-1.6c-0.6-0.3-0.8-0.6-1.1-0.8s-1.1-0.8-2.4-0.8c-1.2,0-2.4,0-3.3,0.5
				s-1.5,0.6-2.1,0.5c-0.6-0.1-2.5-0.5-3.5,0.1c0.5,0.3,1.6,1.1,3,1c1.3-0.1,2.9-0.7,4.5-0.6s2.5,0.9,3.5,1.4
				C232.5,128.5,233.6,128.9,235.9,128.5z"/>
			<path class="st5" d="M231.7,135.4c-0.7,0.5-2.2,0.8-3.9,0.7c-1.8-0.2-3.2-0.8-3.7-1.5"/>
			<g>
				<path class="st6" d="M224,166.5c-0.1-0.1-0.1-0.2-0.1-0.4l0.1-1.5c-1.1-0.2-2-0.6-2.7-1.1s-1.2-1-1.6-1.7
					c-0.3-0.6-0.5-1.3-0.4-2c0-0.1,0.1-0.2,0.2-0.3c0.1-0.1,0.2-0.1,0.3-0.1l2.9,0.3c0.2,0,0.3,0.1,0.4,0.1c0.1,0.1,0.2,0.2,0.3,0.3
					c0.4,0.8,1.2,1.3,2.3,1.4c0.8,0.1,1.4,0,1.8-0.2c0.4-0.2,0.7-0.5,0.7-0.9c0-0.3-0.1-0.6-0.3-0.8c-0.2-0.2-0.5-0.4-1-0.6
					c-0.5-0.2-1.1-0.4-2-0.7c-1.7-0.5-3-1.2-3.8-2c-0.8-0.8-1.1-1.8-1-3.2c0.1-1.2,0.6-2.1,1.5-2.9c0.9-0.7,2.1-1.1,3.6-1.2l0.1-1.5
					c0-0.2,0.1-0.3,0.2-0.4c0.1-0.1,0.2-0.1,0.4-0.1l1.9,0.2c0.2,0,0.3,0.1,0.4,0.2c0.1,0.1,0.1,0.2,0.1,0.4l-0.2,1.6
					c0.9,0.3,1.7,0.6,2.4,1.2c0.6,0.5,1.1,1.1,1.4,1.7c0.3,0.6,0.5,1.2,0.4,1.7c0,0.1-0.1,0.2-0.2,0.3c-0.1,0.1-0.2,0.1-0.3,0.1
					l-3-0.3c-0.3,0-0.6-0.2-0.7-0.5c-0.1-0.3-0.3-0.6-0.6-0.8c-0.3-0.2-0.8-0.4-1.3-0.4c-0.6-0.1-1.1,0-1.4,0.2
					c-0.4,0.2-0.5,0.5-0.6,0.9s0.1,0.8,0.6,1s1.2,0.6,2.3,1c1.3,0.4,2.4,0.8,3.2,1.2c0.8,0.4,1.3,1,1.6,1.6c0.3,0.6,0.4,1.4,0.3,2.3
					c-0.1,1.3-0.7,2.3-1.7,3c-1,0.7-2.3,1.1-3.9,1.2l-0.1,1.5c0,0.2-0.1,0.3-0.2,0.4s-0.2,0.1-0.4,0.1l-1.9-0.2
					C224.2,166.6,224.1,166.6,224,166.5z"/>
			</g>
		</g>
		<g>
			<g>
				<defs>
					<path id="SVGID_11_" d="M250.5,136.8c0,0-15.8,12.6-10.9,43.8c0.5,3,2.7,5.4,5.6,6.1c6.8,1.7,17.9,2.2,32.3-4.8
						c4.3-2.1,4.9-8.5,4.1-11.8c-2.5-10.1-8.1-27.1-23.2-34.5L250.5,136.8z"/>
				</defs>
				<use xlink:href="#SVGID_11_"  style="overflow:visible;fill:#36E2BD;"/>
				<clipPath id="SVGID_92_">
					<use xlink:href="#SVGID_11_"  style="overflow:visible;"/>
				</clipPath>
				<path class="st45" d="M250.5,137.2c0,0-11.5,17.3-7.5,33.8c1.9,7.9,10,9.1,19.9,9.4c5.2,0.1,5.1,6.3,5.1,6.3l-27.5,2.7
					l-5.2-26.8l7.4-23.3l3.6-3.2L250.5,137.2z"/>
				<path class="st45" d="M257.6,136.1c0,0,12.7,7.3,17.7,25.6c3,13-8.9,18.5-20.9,22.4c4.7-0.9,7.3,5.4,22.8,0
					c4.1-1.4,7.9-4.7,7.9-4.7l-5.2-22.7l-13-20.2l-6.5-1.1L257.6,136.1z"/>
			</g>
			<g>
				<defs>
					<path id="SVGID_10_" d="M245.3,129.9c0,0,3.2,4.1,5.2,7.3c2.8-0.4,7.1-1,7.1-1s1.8-5.8,3.6-9.3c-2.4,0.4-3.5,0.5-3.5,0.5
						l-3.8-0.5l-4.3,1.2l-2.6,1.4L245.3,129.9z"/>
				</defs>
				<use xlink:href="#SVGID_10_"  style="overflow:visible;fill:#36E2BD;"/>
				<clipPath id="SVGID_93_">
					<use xlink:href="#SVGID_10_"  style="overflow:visible;"/>
				</clipPath>
				<path class="st46" d="M245.3,129.9c0,0,4.8,6.2,5.2,7.3c1.2-0.2,1.5-0.7,1.5-0.7l-2.2-8.1l-3,0.7L245.3,129.9z"/>
				<path class="st46" d="M258.5,128c0,0-1.7,5.5-1.6,8.3c0.6-0.1,2.2-1.1,2.2-1.1l2.5-8.6l-2,0.5L258.5,128z"/>
			</g>
			<path class="st1" d="M245.3,129.9c0,0,0.5-1.1,2.8-1.9c0.6-0.3,0.9-0.7,1.1-0.9c0.2-0.2,1.1-0.9,2.5-1c1.2-0.1,2.5-0.1,3.5,0.3
				c1,0.5,1.6,0.5,2.2,0.4c0.6-0.1,2.6-0.7,3.7,0c-0.5,0.3-1.7,1.2-3.1,1.2c-1.4-0.1-3.1-0.6-4.8-0.4c-1.7,0.2-2.6,1.1-3.6,1.6
				C248.9,129.7,247.8,130.2,245.3,129.9z"/>
			<path class="st5" d="M250.2,137c0.7,0.5,2.3,0.7,4.1,0.5c1.9-0.3,3.4-1,3.9-1.8"/>
			<g>
				<path class="st6" d="M259.2,172.8c-0.1-0.1-0.2-0.2-0.2-0.4l-0.2-1.6c-1.2,0-2.2-0.1-3-0.4c-0.9-0.3-1.5-0.8-2-1.3
					c-0.5-0.6-0.8-1.2-0.9-1.9c0-0.1,0-0.3,0.1-0.4s0.2-0.2,0.3-0.2l3-0.4c0.2,0,0.4,0,0.5,0c0.1,0,0.3,0.1,0.4,0.3
					c0.6,0.8,1.5,1.1,2.8,0.9c0.8-0.1,1.4-0.3,1.8-0.7c0.4-0.3,0.6-0.7,0.5-1.1c0-0.3-0.2-0.6-0.5-0.7c-0.3-0.2-0.7-0.3-1.2-0.4
					c-0.5-0.1-1.3-0.2-2.3-0.2c-1.9-0.1-3.3-0.4-4.4-1.1c-1-0.6-1.6-1.6-1.8-3c-0.2-1.2,0.1-2.3,0.9-3.3c0.8-1,1.9-1.7,3.4-2.1
					l-0.2-1.6c0-0.2,0-0.3,0.1-0.4c0.1-0.1,0.2-0.2,0.4-0.2l2-0.3c0.2,0,0.3,0,0.4,0.1c0.1,0.1,0.2,0.2,0.2,0.4l0.2,1.6
					c1,0,1.9,0.2,2.7,0.6c0.8,0.4,1.4,0.8,1.9,1.3c0.5,0.5,0.8,1.1,0.9,1.6c0,0.1,0,0.3-0.1,0.4c-0.1,0.1-0.2,0.2-0.3,0.2l-3.2,0.5
					c-0.3,0.1-0.6,0-0.8-0.3c-0.1-0.3-0.4-0.5-0.8-0.7c-0.4-0.2-0.9-0.2-1.4-0.1c-0.6,0.1-1.1,0.3-1.4,0.6c-0.3,0.3-0.4,0.6-0.4,1.1
					s0.3,0.8,0.8,0.9c0.5,0.2,1.4,0.3,2.6,0.4c1.5,0,2.6,0.2,3.6,0.5c0.9,0.3,1.6,0.7,2.1,1.2c0.5,0.6,0.8,1.3,0.9,2.2
					c0.2,1.3-0.1,2.5-1,3.5c-0.9,1-2.1,1.7-3.7,2.2l0.2,1.6c0,0.2,0,0.3-0.1,0.4c-0.1,0.1-0.2,0.2-0.4,0.2l-2,0.3
					C259.5,172.9,259.3,172.9,259.2,172.8z"/>
			</g>
		</g>
		<g>
			<g>
				<defs>
					<path id="SVGID_9_" d="M234.1,171.6c0,0-15.8,12.6-10.9,43.8c0.5,3,2.7,5.4,5.6,6.1c6.8,1.7,17.9,2.2,32.3-4.8
						c4.3-2.1,4.9-8.5,4.1-11.8c-2.5-10.1-8.1-27.1-23.2-34.5L234.1,171.6z"/>
				</defs>
				<use xlink:href="#SVGID_9_"  style="overflow:visible;fill:#36E2BD;"/>
				<clipPath id="SVGID_94_">
					<use xlink:href="#SVGID_9_"  style="overflow:visible;"/>
				</clipPath>
				<path class="st47" d="M234,172c0,0-11.5,17.3-7.5,33.8c1.9,7.9,10,9.1,19.9,9.4c5.2,0.1,5.1,6.3,5.1,6.3l-27.5,2.7l-5.2-26.8
					l7.4-23.3l3.6-3.2L234,172z"/>
				<path class="st47" d="M241.1,170.9c0,0,12.7,7.3,17.7,25.6c3,13-8.9,18.5-20.9,22.4c4.7-0.9,7.3,5.4,22.8,0
					c4.1-1.4,7.9-4.7,7.9-4.7l-5.2-22.7l-13-20.2l-6.5-1.1L241.1,170.9z"/>
			</g>
			<g>
				<defs>
					<path id="SVGID_8_" d="M228.9,164.7c0,0,3.2,4.1,5.2,7.3c2.8-0.4,7.1-1,7.1-1s1.8-5.8,3.6-9.3c-2.4,0.4-3.5,0.5-3.5,0.5
						l-3.8-0.5l-4.3,1.2l-2.6,1.4L228.9,164.7z"/>
				</defs>
				<use xlink:href="#SVGID_8_"  style="overflow:visible;fill:#36E2BD;"/>
				<clipPath id="SVGID_95_">
					<use xlink:href="#SVGID_8_"  style="overflow:visible;"/>
				</clipPath>
				<path class="st48" d="M228.9,164.7c0,0,4.8,6.2,5.2,7.3c1.2-0.2,1.5-0.7,1.5-0.7l-2.2-8.1l-3,0.7L228.9,164.7z"/>
				<path class="st48" d="M242.1,162.8c0,0-1.7,5.5-1.6,8.3c0.6-0.1,2.2-1.1,2.2-1.1l2.5-8.6l-2,0.5L242.1,162.8z"/>
			</g>
			<path class="st1" d="M228.9,164.7c0,0,0.5-1.1,2.8-1.9c0.6-0.3,0.9-0.7,1.1-0.9s1.1-0.9,2.5-1c1.2-0.1,2.5-0.1,3.5,0.3
				c1,0.5,1.6,0.5,2.2,0.4c0.6-0.1,2.6-0.7,3.7,0c-0.5,0.3-1.7,1.2-3.1,1.2c-1.4-0.1-3.1-0.6-4.8-0.4c-1.7,0.2-2.6,1.1-3.6,1.6
				C232.4,164.5,231.3,165,228.9,164.7z"/>
			<path class="st5" d="M233.7,171.8c0.7,0.5,2.3,0.7,4.1,0.5c1.9-0.3,3.4-1,3.9-1.8"/>
			<g>
				<path class="st6" d="M242.7,207.6c-0.1-0.1-0.2-0.2-0.2-0.4l-0.2-1.6c-1.2,0-2.2-0.1-3-0.4c-0.9-0.3-1.5-0.8-2-1.3
					c-0.5-0.6-0.8-1.2-0.9-1.9c0-0.1,0-0.3,0.1-0.4c0.1-0.1,0.2-0.2,0.3-0.2l3-0.4c0.2,0,0.4,0,0.5,0c0.1,0,0.3,0.1,0.4,0.3
					c0.6,0.8,1.5,1.1,2.8,0.9c0.8-0.1,1.4-0.3,1.8-0.7c0.4-0.3,0.6-0.7,0.5-1.1c0-0.3-0.2-0.6-0.5-0.7c-0.3-0.2-0.7-0.3-1.2-0.4
					c-0.5-0.1-1.3-0.2-2.3-0.2c-1.9-0.1-3.3-0.4-4.4-1.1c-1-0.6-1.6-1.6-1.8-3c-0.2-1.2,0.1-2.3,0.9-3.3c0.8-1,1.9-1.7,3.4-2.1
					l-0.2-1.6c0-0.2,0-0.3,0.1-0.4c0.1-0.1,0.2-0.2,0.4-0.2l2-0.3c0.2,0,0.3,0,0.4,0.1c0.1,0.1,0.2,0.2,0.2,0.4l0.2,1.6
					c1,0,1.9,0.2,2.7,0.6c0.8,0.4,1.4,0.8,1.9,1.3c0.5,0.5,0.8,1.1,0.9,1.6c0,0.1,0,0.3-0.1,0.4c-0.1,0.1-0.2,0.2-0.3,0.2l-3.2,0.5
					c-0.3,0.1-0.6,0-0.8-0.3c-0.1-0.3-0.4-0.5-0.8-0.7c-0.4-0.2-0.9-0.2-1.4-0.1c-0.6,0.1-1.1,0.3-1.4,0.6c-0.3,0.3-0.4,0.6-0.4,1.1
					s0.3,0.8,0.8,0.9c0.5,0.2,1.4,0.3,2.6,0.4c1.5,0,2.6,0.2,3.6,0.5c0.9,0.3,1.6,0.7,2.1,1.2s0.8,1.3,0.9,2.2
					c0.2,1.3-0.1,2.5-1,3.5s-2.1,1.7-3.7,2.2l0.2,1.6c0,0.2,0,0.3-0.1,0.4c-0.1,0.1-0.2,0.2-0.4,0.2l-2,0.3
					C243,207.8,242.9,207.7,242.7,207.6z"/>
			</g>
		</g>
		<g>
			<g>
				<defs>
					<path id="SVGID_7_" d="M209.6,176.9c0,0,21.5,4.2,32.3,36.6c1,3.1,0.1,6.5-2.3,8.6c-5.7,5-17.6,12.6-34.9,12
						c-3.6-0.1-6.7-2.7-7.5-6.2c-2.6-11-6.5-33.7,4.3-48.3L209.6,176.9z"/>
				</defs>
				<use xlink:href="#SVGID_7_"  style="overflow:visible;fill:#36E2BD;"/>
				<clipPath id="SVGID_96_">
					<use xlink:href="#SVGID_7_"  style="overflow:visible;"/>
				</clipPath>
				<path class="st49" d="M209.8,177.2c0,0,19.6,10.9,24.1,28.7c3.8,15.3-2.7,20.1-2.7,20.1l14.2-3.7L237,194l-18.7-18.7l-5.1-1.3
					L209.8,177.2z"/>
				<path class="st49" d="M202.4,179.7c0,0-8.6,13.3-4.3,33.4c1.3,5.8,4.5,18.9,11.4,18.8c-7.8,2.4-11.9,3.1-11.9,3.1l-6.3-24.3
					l2.5-25.9l5.7-4.3L202.4,179.7z"/>
			</g>
			<g>
				<defs>
					<path id="SVGID_6_" d="M211.1,167.6c0,0-1.1,5.5-1.3,9.5c-2.9,1-7.3,2.5-7.3,2.5s-4.6-4.7-8.1-7.1c2.5-0.8,3.7-1.3,3.7-1.3
						l3.4-2.4l4.8-1l3.2,0L211.1,167.6z"/>
				</defs>
				<use xlink:href="#SVGID_6_"  style="overflow:visible;fill:#36E2BD;"/>
				<clipPath id="SVGID_97_">
					<use xlink:href="#SVGID_6_"  style="overflow:visible;"/>
				</clipPath>
				<path class="st50" d="M211.1,167.6c0,0-1.5,8.3-1.3,9.5c-1.2,0.4-1.8,0.1-1.8,0.1l-1.9-8.8l3.2-0.8L211.1,167.6z"/>
				<path class="st50" d="M197.5,172.4c0,0,4.3,4.4,5.6,7.1c-0.7,0.2-2.6,0-2.6,0l-6.7-6.9l2.1-0.5L197.5,172.4z"/>
			</g>
			<path class="st1" d="M211.1,167.6c0,0-1-0.8-3.6-0.4c-0.7,0-1.2-0.2-1.5-0.3c-0.3,0-1.5-0.3-2.9,0.3c-1.2,0.5-2.5,1.2-3.2,2.1
				c-0.7,0.9-1.3,1.3-1.9,1.5c-0.7,0.2-2.8,0.6-3.6,1.8c0.7,0.1,2.2,0.4,3.5-0.4c1.3-0.8,2.7-2.1,4.5-2.7c1.7-0.6,3-0.2,4.3-0.2
				C207.6,169.3,208.9,169.2,211.1,167.6z"/>
			<path class="st5" d="M210,176.8c-0.5,0.9-1.9,1.9-3.7,2.5c-1.9,0.7-3.8,0.7-4.6,0.2"/>
			<g>
				<path class="st6" d="M218.3,214.5c-0.2-0.1-0.3-0.2-0.3-0.3l-0.6-1.6c-1.2,0.3-2.3,0.4-3.3,0.3c-1-0.1-1.8-0.4-2.5-0.9
					c-0.7-0.5-1.1-1.1-1.5-1.8c-0.1-0.1,0-0.3,0-0.4s0.2-0.2,0.3-0.3l3.1-1.2c0.2-0.1,0.4-0.1,0.5-0.1c0.1,0,0.3,0.1,0.5,0.2
					c0.8,0.7,1.9,0.7,3.1,0.2c0.8-0.3,1.4-0.7,1.8-1.1c0.4-0.4,0.4-0.9,0.3-1.3c-0.1-0.3-0.3-0.5-0.7-0.7c-0.3-0.1-0.8-0.2-1.3-0.1
					c-0.6,0-1.4,0.1-2.4,0.3c-2,0.4-3.6,0.3-4.9-0.1c-1.2-0.4-2.1-1.3-2.7-2.7c-0.5-1.3-0.5-2.5,0.1-3.7c0.6-1.2,1.6-2.2,3.1-3.1
					l-0.6-1.6c-0.1-0.2-0.1-0.3,0-0.5c0.1-0.2,0.2-0.3,0.3-0.3l2-0.8c0.2-0.1,0.3-0.1,0.5,0c0.2,0.1,0.3,0.2,0.3,0.4l0.6,1.7
					c1.1-0.2,2.1-0.2,3,0c0.9,0.2,1.7,0.5,2.3,1c0.6,0.5,1.1,1,1.3,1.5c0.1,0.1,0.1,0.3,0,0.4c-0.1,0.1-0.2,0.2-0.3,0.3l-3.2,1.3
					c-0.4,0.1-0.7,0.1-1-0.1c-0.2-0.3-0.6-0.5-1-0.5c-0.5-0.1-1,0-1.6,0.2c-0.6,0.3-1.1,0.6-1.4,0.9c-0.3,0.4-0.3,0.8-0.1,1.2
					s0.5,0.7,1.1,0.8c0.6,0.1,1.5,0,2.9-0.2c1.6-0.3,2.8-0.4,3.9-0.4s1.9,0.3,2.5,0.8c0.6,0.5,1.2,1.2,1.5,2.1
					c0.5,1.4,0.5,2.7-0.2,3.9c-0.7,1.3-1.8,2.3-3.4,3.2l0.6,1.6c0.1,0.2,0.1,0.3,0,0.5c-0.1,0.2-0.2,0.3-0.4,0.3l-2,0.8
					C218.6,214.5,218.4,214.5,218.3,214.5z"/>
			</g>
		</g>
		<g>
			<g>
				<defs>
					<path id="SVGID_5_" d="M263.3,184.9c0,0,17.7,12.8,14.1,46.7c-0.3,3.2-2.6,5.9-5.7,6.9c-7.3,2.2-21.3,4.2-36.8-3.6
						c-3.2-1.6-4.9-5.2-4.2-8.7c2.2-11.1,8.1-33.3,24-42.1L263.3,184.9z"/>
				</defs>
				<use xlink:href="#SVGID_5_"  style="overflow:visible;fill:#36E2BD;"/>
				<clipPath id="SVGID_98_">
					<use xlink:href="#SVGID_5_"  style="overflow:visible;"/>
				</clipPath>
				<path class="st51" d="M263.3,185.3c0,0,13.3,18.1,9.9,36.1c-1.6,8.7-10.4,10.4-21,11.2c-5.6,0.4-5.2,7.1-5.2,7.1l29.8,1.4
					l4.3-29.2l-9.3-24.8l-4.1-3.3L263.3,185.3z"/>
				<path class="st51" d="M255.6,184.5c0,0-13.4,8.5-17.8,28.6c-1.3,5.8,0.2,19.9,13.4,23.6c-8-1.1-23-3.9-23-3.9l4.4-24.7l13-22.5
					l7-1.5L255.6,184.5z"/>
			</g>
			<g>
				<defs>
					<path id="SVGID_4_" d="M268.5,177.2c0,0-3.2,4.6-5.2,8.1c-3.1-0.3-7.7-0.8-7.7-0.8s-2.2-6.2-4.4-9.8c2.6,0.3,3.8,0.4,3.8,0.4
						l4.1-0.7l4.8,1.1l2.9,1.4L268.5,177.2z"/>
				</defs>
				<use xlink:href="#SVGID_4_"  style="overflow:visible;fill:#36E2BD;"/>
				<clipPath id="SVGID_99_">
					<use xlink:href="#SVGID_4_"  style="overflow:visible;"/>
				</clipPath>
				<path class="st52" d="M268.5,177.2c0,0-4.8,6.9-5.2,8.1c-1.3-0.2-1.7-0.7-1.7-0.7l1.9-8.8l3.3,0.6L268.5,177.2z"/>
				<path class="st52" d="M254.1,175.8c0,0,2.1,5.8,2.2,8.8c-0.7-0.1-2.4-1-2.4-1l-3.2-9.1l2.2,0.4L254.1,175.8z"/>
			</g>
			<path class="st1" d="M268.5,177.2c0,0-0.6-1.1-3.1-1.9c-0.7-0.3-1-0.7-1.2-0.9c-0.3-0.2-1.3-0.9-2.8-1c-1.3-0.1-2.7,0-3.8,0.6
				s-1.7,0.7-2.4,0.6c-0.7-0.1-2.8-0.6-4,0.1c0.6,0.3,1.9,1.3,3.4,1.1c1.5-0.1,3.4-0.8,5.2-0.6c1.8,0.2,2.8,1.1,4,1.6
				C264.6,177.2,265.9,177.6,268.5,177.2z"/>
			<path class="st5" d="M263.7,185c-0.8,0.6-2.5,0.9-4.4,0.7c-2-0.2-3.7-0.9-4.3-1.7"/>
			<g>
				<path class="st6" d="M255.1,219.6c-0.1-0.1-0.2-0.3-0.2-0.5l0.1-1.7c-1.2-0.2-2.3-0.6-3.1-1.2c-0.8-0.5-1.4-1.2-1.8-1.9
					c-0.4-0.7-0.6-1.5-0.5-2.3c0-0.1,0.1-0.3,0.2-0.4c0.1-0.1,0.2-0.1,0.4-0.1l3.3,0.2c0.2,0,0.4,0.1,0.5,0.1
					c0.1,0.1,0.2,0.2,0.4,0.4c0.4,0.9,1.4,1.5,2.7,1.6c0.9,0.1,1.6,0,2.1-0.3c0.5-0.2,0.8-0.6,0.8-1.1c0-0.3-0.1-0.6-0.3-0.9
					c-0.2-0.2-0.6-0.5-1.1-0.7c-0.5-0.2-1.3-0.5-2.3-0.8c-2-0.5-3.4-1.3-4.4-2.1c-0.9-0.9-1.3-2.1-1.2-3.6c0.1-1.3,0.7-2.4,1.7-3.3
					c1-0.9,2.4-1.4,4.1-1.5l0.1-1.7c0-0.2,0.1-0.3,0.2-0.4c0.1-0.1,0.3-0.2,0.4-0.1l2.2,0.2c0.2,0,0.3,0.1,0.4,0.2
					c0.1,0.1,0.2,0.3,0.1,0.5l-0.1,1.8c1.1,0.3,2,0.7,2.8,1.3c0.8,0.6,1.3,1.2,1.7,1.9c0.4,0.7,0.6,1.3,0.5,1.9
					c0,0.1-0.1,0.3-0.2,0.4c-0.1,0.1-0.2,0.1-0.4,0.1l-3.5-0.3c-0.4,0-0.7-0.2-0.8-0.5c-0.1-0.4-0.3-0.7-0.7-0.9s-0.9-0.4-1.5-0.5
					c-0.7-0.1-1.2,0-1.6,0.3c-0.4,0.2-0.6,0.6-0.6,1c0,0.5,0.2,0.9,0.7,1.2c0.5,0.3,1.4,0.7,2.7,1c1.5,0.4,2.7,0.8,3.6,1.3
					c0.9,0.5,1.5,1.1,1.9,1.8c0.4,0.7,0.5,1.6,0.5,2.6c-0.1,1.5-0.7,2.6-1.9,3.5c-1.1,0.9-2.6,1.3-4.4,1.4l-0.1,1.7
					c0,0.2-0.1,0.3-0.2,0.4c-0.1,0.1-0.3,0.2-0.5,0.1l-2.2-0.2C255.4,219.8,255.2,219.8,255.1,219.6z"/>
			</g>
		</g>
	</g>
	<g>
		<rect x="72.1" y="101.8" class="st53" width="37.1" height="8.2"/>
		<rect x="76" y="110" class="st54" width="29.2" height="8.2"/>
		<rect x="255.9" y="101.8" class="st53" width="37.1" height="8.2"/>
		<rect x="259.9" y="110" class="st54" width="29.2" height="8.2"/>
		<rect x="194.6" y="101.8" class="st53" width="37.1" height="8.2"/>
		<rect x="198.6" y="110" class="st54" width="29.2" height="8.2"/>
		<rect x="133.4" y="101.8" class="st53" width="37.1" height="8.2"/>
		<rect x="137.3" y="110" class="st54" width="29.2" height="8.2"/>
	</g>
	<g>
		<g>
			<defs>
				<path id="SVGID_3_" d="M190.1,107.4c0,0,1.5,4.1,2.2,7.2c2.4,0.4,5.9,1,5.9,1s3-4.2,5.4-6.5c-2-0.3-3-0.5-3-0.5l-2.9-1.4
					l-3.8-0.2l-2.5,0.4L190.1,107.4z"/>
			</defs>
			<use xlink:href="#SVGID_3_"  style="overflow:visible;fill:#36E2BD;"/>
			<clipPath id="SVGID_100_">
				<use xlink:href="#SVGID_3_"  style="overflow:visible;"/>
			</clipPath>
			<path class="st55" d="M190.1,107.4c0,0,2.2,6.2,2.2,7.2c1,0.1,1.4-0.2,1.4-0.2l0.4-7l-2.6-0.2L190.1,107.4z"/>
			<path class="st55" d="M201.2,109.4c0,0-2.8,3.9-3.5,6.2c0.5,0.1,2-0.3,2-0.3l4.3-6.2l-1.7-0.2L201.2,109.4z"/>
		</g>
		<path class="st1" d="M190.1,107.4c0,0,0.7-0.7,2.7-0.8c0.6-0.1,0.9-0.3,1.1-0.4c0.2-0.1,1.1-0.4,2.3-0.2c1,0.2,2.1,0.6,2.7,1.2
			s1.1,0.8,1.7,0.9s2.3,0.1,3,0.9c-0.5,0.1-1.7,0.5-2.8,0.1s-2.4-1.3-3.8-1.6c-1.4-0.2-2.3,0.2-3.3,0.4
			C193,108.2,191.9,108.3,190.1,107.4z"/>
		<path class="st5" d="M192.1,114.3c0.5,0.6,1.7,1.2,3.2,1.5c1.6,0.3,3,0.1,3.6-0.4"/>
	</g>
	<g>
		<rect x="72.1" y="224.2" class="st53" width="37.1" height="8.2"/>
		<rect x="76" y="216" class="st54" width="29.2" height="8.2"/>
		<rect x="255.9" y="224.2" class="st53" width="37.1" height="8.2"/>
		<rect x="259.9" y="216" class="st54" width="29.2" height="8.2"/>
		<rect x="194.6" y="224.2" class="st53" width="37.1" height="8.2"/>
		<rect x="198.6" y="216" class="st54" width="29.2" height="8.2"/>
		<rect x="133.4" y="224.2" class="st53" width="37.1" height="8.2"/>
		<rect x="137.3" y="216" class="st54" width="29.2" height="8.2"/>
	</g>
	<polygon class="st56" points="104.5,216 76.8,216 81.1,118.2 100.2,118.2 	"/>
	<polygon class="st56" points="165.8,216 138.1,216 142.4,118.2 161.5,118.2 	"/>
	<polygon class="st56" points="227.8,216 200.1,216 204.5,118.2 223.5,118.2 	"/>
	<polygon class="st56" points="288.3,216 260.6,216 265,118.2 284,118.2 	"/>
	<rect x="64.2" y="96.1" class="st54" width="236.7" height="5.7"/>
	<rect x="60.3" y="86.6" class="st53" width="244.6" height="9.5"/>
	<rect x="59.1" y="232.4" class="st56" width="244.6" height="9.5"/>
	<rect x="50.7" y="241.9" class="st53" width="261.4" height="9.5"/>
	<rect x="39.5" y="251.4" class="st54" width="283.9" height="9.5"/>
	<rect x="27.2" y="260.9" class="st53" width="308.4" height="9.5"/>
	<rect x="15.7" y="270.4" class="st54" width="331.5" height="9.5"/>
	<polygon class="st56" points="72.7,86.6 182.6,45.9 292.4,86.6 	"/>
	<polygon class="st57" points="109,79.9 182.6,52.6 256.2,79.9 	"/>
	<g>
		<defs>
			<path id="SVGID_2_" d="M126.3,95.2c0,0-1.5,4-2.2,7.1c-2.3,0.4-5.8,1-5.8,1s-2.9-4.1-5.3-6.4c2-0.3,2.9-0.5,2.9-0.5l2.9-1.4
				l3.7-0.2l2.4,0.4L126.3,95.2z"/>
		</defs>
		<use xlink:href="#SVGID_2_"  style="overflow:visible;fill:#36E2BD;"/>
		<clipPath id="SVGID_101_">
			<use xlink:href="#SVGID_2_"  style="overflow:visible;"/>
		</clipPath>
		<path class="st58" d="M126.3,95.2c0,0-2.1,6.1-2.2,7.1c-1,0.1-1.4-0.1-1.4-0.1l-0.4-6.9l2.5-0.2L126.3,95.2z"/>
		<path class="st58" d="M115.4,97.2c0,0,2.7,3.9,3.4,6.1c-0.5,0-2-0.3-2-0.3l-4.2-6.1l1.7-0.2L115.4,97.2z"/>
	</g>
	<path class="st1" d="M126.3,95.2c0,0-0.6-0.7-2.7-0.8c-0.6-0.1-0.9-0.3-1.1-0.4c-0.2-0.1-1.1-0.4-2.3-0.2c-1,0.2-2,0.6-2.7,1.2
		c-0.7,0.6-1.1,0.8-1.7,0.9c-0.5,0.1-2.2,0.1-2.9,0.9c0.5,0.1,1.6,0.5,2.7,0.1c1.1-0.4,2.3-1.3,3.7-1.5c1.4-0.2,2.3,0.2,3.3,0.4
		C123.4,96,124.4,96.1,126.3,95.2z"/>
	<path class="st5" d="M124.3,102c-0.4,0.6-1.6,1.2-3.1,1.5c-1.5,0.3-2.9,0.1-3.5-0.4"/>
</g>
<g>
	<g>
		<defs>
			<path id="SVGID_1_" d="M246.1,96.7c0,0-1.6,4.5-2.4,8c-2.6,0.5-6.6,1.2-6.6,1.2s-3.3-4.6-6-7.2c2.3-0.4,3.3-0.6,3.3-0.6l3.2-1.6
				l4.2-0.2l2.8,0.5L246.1,96.7z"/>
		</defs>
		<use xlink:href="#SVGID_1_"  style="overflow:visible;fill:#36E2BD;"/>
		<clipPath id="SVGID_102_">
			<use xlink:href="#SVGID_1_"  style="overflow:visible;"/>
		</clipPath>
		<path class="st59" d="M246.1,96.7c0,0-2.4,6.9-2.4,8c-1.1,0.1-1.5-0.2-1.5-0.2l-0.5-7.8l2.9-0.3L246.1,96.7z"/>
		<path class="st59" d="M233.8,98.9c0,0,3.1,4.4,3.9,6.9c-0.6,0.1-2.2-0.3-2.2-0.3l-4.8-6.9l1.9-0.2L233.8,98.9z"/>
	</g>
	<path class="st1" d="M246.1,96.7c0,0-0.7-0.8-3-0.9c-0.6-0.1-1-0.4-1.2-0.4c-0.3-0.1-1.3-0.5-2.6-0.2c-1.1,0.3-2.3,0.7-3,1.3
		s-1.3,0.9-1.9,1s-2.5,0.1-3.3,1c0.6,0.2,1.9,0.6,3.1,0.1s2.6-1.5,4.2-1.7s2.6,0.2,3.7,0.4C242.8,97.6,244,97.7,246.1,96.7z"/>
	<path class="st60" d="M243.9,104.4c-0.5,0.7-1.9,1.4-3.5,1.6c-1.7,0.3-3.3,0.1-4-0.4"/>
</g>
</svg>
