<!-- Generator: Adobe Illustrator 24.2.3, SVG Export Plug-In  -->
<svg version="1.1" xmlns="http://www.w3.org/2000/svg" xmlns:xlink="http://www.w3.org/1999/xlink" x="0px" y="0px" width="375.4px"
	 height="261.3px" viewBox="0 0 375.4 261.3" style="overflow:visible;enable-background:new 0 0 375.4 261.3;"
	 xml:space="preserve">
<style type="text/css">
	.st0{fill:#595959;}
	.st1{fill:none;stroke:#B3B3B3;stroke-width:0.5307;stroke-miterlimit:10;}
	.st2{fill:none;stroke:#595959;stroke-width:1.0615;stroke-miterlimit:10;}
	.st3{fill:#333333;}
	.st4{fill:#1DC9A4;}
	.st5{fill:#B3B3B3;}
	.st6{clip-path:url(#SVGID_2_);}
	.st7{fill:#FFFFFF;}
	.st8{fill:#0D0D0D;}
	.st9{fill:#808080;}
	.st10{fill:#999999;}
	.st11{fill:#C91D42;}
	.st12{fill:#F9C21F;}
	.st13{fill:#2E45B8;}
	.st14{clip-path:url(#SVGID_4_);}
</style>
<defs>
</defs>
<g>
	<g>
		<rect x="51.6" y="134.7" class="st0" width="272.2" height="7.6"/>
		<g>
			<line class="st1" x1="11.3" y1="90.8" x2="11.3" y2="130.9"/>
			<line class="st1" x1="17.1" y1="90.8" x2="17.1" y2="130.9"/>
			<line class="st1" x1="22.9" y1="90.8" x2="22.9" y2="130.9"/>
			<line class="st1" x1="28.7" y1="90.8" x2="28.7" y2="130.9"/>
			<line class="st1" x1="34.5" y1="90.8" x2="34.5" y2="130.9"/>
			<line class="st1" x1="40.2" y1="90.8" x2="40.2" y2="130.9"/>
			<line class="st1" x1="46" y1="90.8" x2="46" y2="130.9"/>
			<line class="st1" x1="51.8" y1="90.8" x2="51.8" y2="130.9"/>
			<line class="st1" x1="57.6" y1="90.8" x2="57.6" y2="130.9"/>
			<line class="st1" x1="63.4" y1="90.8" x2="63.4" y2="130.9"/>
			<line class="st1" x1="69.2" y1="90.8" x2="69.2" y2="130.9"/>
			<line class="st1" x1="74.9" y1="90.8" x2="74.9" y2="130.9"/>
			<line class="st1" x1="80.7" y1="90.8" x2="80.7" y2="130.9"/>
			<line class="st1" x1="86.5" y1="90.8" x2="86.5" y2="130.9"/>
			<line class="st1" x1="92.3" y1="90.8" x2="92.3" y2="130.9"/>
			<line class="st1" x1="98.1" y1="90.8" x2="98.1" y2="130.9"/>
			<line class="st1" x1="103.9" y1="90.8" x2="103.9" y2="130.9"/>
			<line class="st1" x1="109.6" y1="90.8" x2="109.6" y2="130.9"/>
			<line class="st1" x1="115.4" y1="90.8" x2="115.4" y2="130.9"/>
			<line class="st1" x1="121.2" y1="90.8" x2="121.2" y2="130.9"/>
			<line class="st1" x1="127" y1="90.8" x2="127" y2="130.9"/>
			<line class="st1" x1="132.8" y1="90.8" x2="132.8" y2="130.9"/>
			<line class="st1" x1="138.6" y1="90.8" x2="138.6" y2="130.9"/>
			<line class="st1" x1="144.3" y1="90.8" x2="144.3" y2="130.9"/>
			<line class="st1" x1="150.1" y1="90.8" x2="150.1" y2="130.9"/>
			<line class="st1" x1="155.9" y1="90.8" x2="155.9" y2="130.9"/>
			<line class="st1" x1="161.7" y1="90.8" x2="161.7" y2="130.9"/>
			<line class="st1" x1="167.5" y1="90.8" x2="167.5" y2="130.9"/>
			<line class="st1" x1="173.3" y1="90.8" x2="173.3" y2="130.9"/>
			<line class="st1" x1="179" y1="90.8" x2="179" y2="130.9"/>
			<line class="st1" x1="184.8" y1="90.8" x2="184.8" y2="130.9"/>
			<line class="st1" x1="190.6" y1="90.8" x2="190.6" y2="130.9"/>
			<line class="st1" x1="196.4" y1="90.8" x2="196.4" y2="130.9"/>
			<line class="st1" x1="202.2" y1="90.8" x2="202.2" y2="130.9"/>
			<line class="st1" x1="208" y1="90.8" x2="208" y2="130.9"/>
			<line class="st1" x1="213.7" y1="90.8" x2="213.7" y2="130.9"/>
			<line class="st1" x1="219.5" y1="90.8" x2="219.5" y2="130.9"/>
			<line class="st1" x1="225.3" y1="90.8" x2="225.3" y2="130.9"/>
			<line class="st1" x1="231.1" y1="90.8" x2="231.1" y2="130.9"/>
			<line class="st1" x1="236.9" y1="90.8" x2="236.9" y2="130.9"/>
			<line class="st1" x1="242.7" y1="90.8" x2="242.7" y2="130.9"/>
			<line class="st1" x1="248.4" y1="90.8" x2="248.4" y2="130.9"/>
			<line class="st1" x1="254.2" y1="90.8" x2="254.2" y2="130.9"/>
			<line class="st1" x1="260" y1="90.8" x2="260" y2="130.9"/>
			<line class="st1" x1="265.8" y1="90.8" x2="265.8" y2="130.9"/>
			<line class="st1" x1="271.6" y1="90.8" x2="271.6" y2="130.9"/>
			<line class="st1" x1="277.4" y1="90.8" x2="277.4" y2="130.9"/>
			<line class="st1" x1="283.1" y1="90.8" x2="283.1" y2="130.9"/>
			<line class="st1" x1="288.9" y1="90.8" x2="288.9" y2="130.9"/>
			<line class="st1" x1="294.7" y1="90.8" x2="294.7" y2="130.9"/>
			<line class="st1" x1="300.5" y1="90.8" x2="300.5" y2="130.9"/>
			<line class="st1" x1="306.3" y1="90.8" x2="306.3" y2="130.9"/>
			<line class="st1" x1="312.1" y1="90.8" x2="312.1" y2="130.9"/>
			<line class="st1" x1="317.8" y1="90.8" x2="317.8" y2="130.9"/>
			<line class="st1" x1="323.6" y1="90.8" x2="323.6" y2="130.9"/>
			<line class="st1" x1="329.4" y1="90.8" x2="329.4" y2="130.9"/>
			<line class="st1" x1="335.2" y1="90.8" x2="335.2" y2="130.9"/>
			<line class="st1" x1="341" y1="90.8" x2="341" y2="130.9"/>
			<line class="st1" x1="346.8" y1="90.8" x2="346.8" y2="130.9"/>
			<line class="st1" x1="352.5" y1="90.8" x2="352.5" y2="130.9"/>
			<line class="st1" x1="358.3" y1="90.8" x2="358.3" y2="130.9"/>
			<line class="st1" x1="364.1" y1="90.8" x2="364.1" y2="130.9"/>
		</g>
		<g>
			<line class="st1" x1="364.1" y1="90.8" x2="11.3" y2="90.8"/>
			<line class="st1" x1="364.1" y1="95.8" x2="11.3" y2="95.8"/>
			<line class="st1" x1="364.1" y1="100.8" x2="11.3" y2="100.8"/>
			<line class="st1" x1="364.1" y1="105.8" x2="11.3" y2="105.8"/>
			<line class="st1" x1="364.1" y1="110.8" x2="11.3" y2="110.8"/>
			<line class="st1" x1="364.1" y1="115.8" x2="11.3" y2="115.8"/>
			<line class="st1" x1="364.1" y1="120.8" x2="11.3" y2="120.8"/>
			<line class="st1" x1="364.1" y1="125.8" x2="11.3" y2="125.8"/>
			<line class="st1" x1="364.1" y1="130.8" x2="11.3" y2="130.8"/>
		</g>
		<g>
			<line class="st2" x1="57.2" y1="157.2" x2="57.2" y2="140.3"/>
			<path class="st3" d="M6,87H1.7C1.3,87,1,86.8,1,86.4v-5.6c0-0.3,0.3-0.6,0.6-0.6H6c0.3,0,0.6,0.3,0.6,0.6v5.6
				C6.6,86.8,6.3,87,6,87z"/>
			<rect x="0" y="84.7" class="st4" width="11.3" height="46.2"/>
			<path class="st4" d="M61.9,135L5,138.6c-2.7,0.2-5-2-5-4.7v-3h61.8c1,0,1.8,0.8,1.8,1.8v0.5C63.6,134.1,62.8,134.9,61.9,135z"/>
			<path class="st4" d="M39.6,136.4c0,0,6.2,0,7,10.4c0.1,1.3,1.2,2.3,2.5,2.3h14.5v-3.3H53.3c-1.1,0-2.1-0.7-2.5-1.7
				c-0.8-2-1.8-5.5-0.1-8.4c-4.5,0-11.1,0-11.1,0V136.4z"/>
			<g>
				<path class="st3" d="M60.4,159.8H54c-0.2,0-0.3-0.2-0.3-0.3V158c0-0.2,0.2-0.3,0.3-0.3h6.4c0.2,0,0.3,0.2,0.3,0.3v1.5
					C60.8,159.7,60.6,159.8,60.4,159.8z"/>
				<path class="st3" d="M58.2,158.4h-2c-0.3,0-0.5-0.2-0.5-0.5v-1.4c0-0.3,0.2-0.5,0.5-0.5h2c0.3,0,0.5,0.2,0.5,0.5v1.4
					C58.7,158.2,58.4,158.4,58.2,158.4z"/>
			</g>
		</g>
		<g>
			<line class="st2" x1="318.2" y1="157.2" x2="318.2" y2="140.3"/>
			<path class="st3" d="M369.4,87h4.3c0.3,0,0.6-0.3,0.6-0.6v-5.6c0-0.3-0.3-0.6-0.6-0.6h-4.3c-0.3,0-0.6,0.3-0.6,0.6v5.6
				C368.8,86.8,369.1,87,369.4,87z"/>
			
				<rect x="364.1" y="84.7" transform="matrix(-1 -4.494417e-11 4.494417e-11 -1 739.4703 215.6065)" class="st4" width="11.3" height="46.2"/>
			<path class="st4" d="M313.5,135l56.9,3.6c2.7,0.2,5-2,5-4.7v-3h-61.8c-1,0-1.8,0.8-1.8,1.8v0.5
				C311.8,134.1,312.6,134.9,313.5,135z"/>
			<path class="st4" d="M335.8,136.4c0,0-6.2,0-7,10.4c-0.1,1.3-1.2,2.3-2.5,2.3h-14.5v-3.3h10.3c1.1,0,2.1-0.7,2.5-1.7
				c0.8-2,1.8-5.5,0.1-8.4c4.5,0,11.1,0,11.1,0V136.4z"/>
			<g>
				<path class="st3" d="M321.4,159.8H315c-0.2,0-0.3-0.2-0.3-0.3V158c0-0.2,0.2-0.3,0.3-0.3h6.4c0.2,0,0.3,0.2,0.3,0.3v1.5
					C321.8,159.7,321.6,159.8,321.4,159.8z"/>
				<path class="st3" d="M319.2,158.4h-2c-0.3,0-0.5-0.2-0.5-0.5v-1.4c0-0.3,0.2-0.5,0.5-0.5h2c0.3,0,0.5,0.2,0.5,0.5v1.4
					C319.7,158.2,319.5,158.4,319.2,158.4z"/>
			</g>
		</g>
		<rect x="11.3" y="84.7" class="st5" width="352.8" height="6.1"/>
	</g>
	<g>
		<g>
			<path class="st0" d="M224.9,53.4c-34.6-34.6-85.6-31-119.2,2.6C81.1,80.6,64.8,106.7,77,138.2l61.5,61.5
				c31.1,11.9,59.2-2.4,83.8-27.1C255.9,139,259.9,88.4,224.9,53.4z"/>
			<g>
				<defs>
					<path id="SVGID_1_" d="M222.9,55.4c-33.9-33.9-84.3-29.9-117.8,3.7C80.6,83.6,64.2,109.5,76,140.5l60.2,60.2
						c30.6,11.5,58.5-2.9,83.1-27.5C252.8,139.7,257.2,89.6,222.9,55.4z"/>
				</defs>
				<use xlink:href="#SVGID_1_"  style="overflow:visible;fill:#1F2E7A;"/>
				<clipPath id="SVGID_2_">
					<use xlink:href="#SVGID_1_"  style="overflow:visible;"/>
				</clipPath>
				<g class="st6">
					<polygon class="st7" points="161.7,1.3 159.3,6.1 163.1,9.8 157.9,9 155.4,13.7 154.6,8.5 149.4,7.6 154.1,5.2 153.3,0 
						157,3.7 					"/>
					<polygon class="st7" points="174.5,14.1 172.1,18.8 175.9,22.6 170.6,21.8 168.2,26.5 167.4,21.3 162.2,20.4 166.9,18 
						166.1,12.8 169.8,16.5 					"/>
					<polygon class="st7" points="187.3,26.9 184.9,31.6 188.7,35.4 183.4,34.6 181,39.3 180.2,34.1 175,33.2 179.7,30.8 
						178.9,25.6 182.6,29.3 					"/>
					<polygon class="st7" points="200.1,39.7 197.7,44.4 201.5,48.2 196.2,47.4 193.8,52.1 193,46.9 187.8,46 192.5,43.6 
						191.7,38.4 195.4,42.1 					"/>
					<polygon class="st7" points="212.9,52.5 210.5,57.2 214.2,61 209,60.2 206.6,64.9 205.8,59.6 200.6,58.8 205.3,56.4 
						204.4,51.2 208.2,54.9 					"/>
					<polygon class="st7" points="225.7,65.3 223.3,70 227,73.8 221.8,73 219.4,77.7 218.6,72.4 213.4,71.6 218.1,69.2 217.2,64 
						221,67.7 					"/>
					<polygon class="st7" points="238.5,78.1 236.1,82.8 239.8,86.6 234.6,85.8 232.2,90.5 231.4,85.2 226.1,84.4 230.9,82 
						230,76.8 233.8,80.5 					"/>
					<polygon class="st7" points="251.3,90.9 248.9,95.6 252.6,99.4 247.4,98.5 245,103.2 244.2,98 238.9,97.2 243.6,94.8 
						242.8,89.6 246.6,93.3 					"/>
					<polygon class="st7" points="264.1,103.7 261.7,108.4 265.4,112.2 260.2,111.3 257.8,116 257,110.8 251.7,110 256.4,107.6 
						255.6,102.4 259.4,106.1 					"/>
					<polygon class="st7" points="276.9,116.5 274.5,121.2 278.2,124.9 273,124.1 270.6,128.8 269.7,123.6 264.5,122.8 269.2,120.4 
						268.4,115.1 272.2,118.9 					"/>
				</g>
				<g class="st6">
					<polygon class="st7" points="141.8,8.8 139.4,13.5 143.2,17.3 137.9,16.5 135.5,21.2 134.7,16 129.5,15.1 134.2,12.7 
						133.4,7.5 137.1,11.2 					"/>
					<polygon class="st7" points="154.6,21.6 152.2,26.3 156,30.1 150.7,29.3 148.3,34 147.5,28.7 142.3,27.9 147,25.5 146.2,20.3 
						149.9,24 					"/>
					<polygon class="st7" points="167.4,34.4 165,39.1 168.7,42.9 163.5,42.1 161.1,46.8 160.3,41.5 155.1,40.7 159.8,38.3 
						158.9,33.1 162.7,36.8 					"/>
					<polygon class="st7" points="180.2,47.2 177.8,51.9 181.5,55.7 176.3,54.9 173.9,59.6 173.1,54.3 167.9,53.5 172.6,51.1 
						171.7,45.9 175.5,49.6 					"/>
					<polygon class="st7" points="193,60 190.6,64.7 194.3,68.5 189.1,67.6 186.7,72.4 185.9,67.1 180.6,66.3 185.4,63.9 
						184.5,58.7 188.3,62.4 					"/>
					<polygon class="st7" points="205.8,72.8 203.4,77.5 207.1,81.3 201.9,80.4 199.5,85.1 198.7,79.9 193.4,79.1 198.1,76.7 
						197.3,71.5 201.1,75.2 					"/>
					<polygon class="st7" points="218.6,85.6 216.2,90.3 219.9,94 214.7,93.2 212.3,97.9 211.5,92.7 206.2,91.9 210.9,89.5 
						210.1,84.2 213.9,88 					"/>
					<polygon class="st7" points="231.4,98.4 229,103.1 232.7,106.8 227.5,106 225.1,110.7 224.2,105.5 219,104.7 223.7,102.3 
						222.9,97 226.7,100.8 					"/>
					<polygon class="st7" points="244.2,111.2 241.8,115.9 245.5,119.6 240.3,118.8 237.9,123.5 237,118.3 231.8,117.5 236.5,115.1 
						235.7,109.8 239.5,113.6 					"/>
					<polygon class="st7" points="257,124 254.6,128.7 258.3,132.4 253.1,131.6 250.7,136.3 249.8,131.1 244.6,130.3 249.3,127.9 
						248.5,122.6 252.3,126.4 					"/>
				</g>
				<g class="st6">
					<polygon class="st7" points="134.3,28.7 131.9,33.5 135.7,37.2 130.5,36.4 128,41.1 127.2,35.9 122,35 126.7,32.6 125.9,27.4 
						129.6,31.1 					"/>
					<polygon class="st7" points="147.1,41.5 144.7,46.2 148.5,50 143.2,49.2 140.8,53.9 140,48.7 134.8,47.8 139.5,45.4 
						138.7,40.2 142.4,43.9 					"/>
					<polygon class="st7" points="159.9,54.3 157.5,59 161.3,62.8 156,62 153.6,66.7 152.8,61.5 147.6,60.6 152.3,58.2 151.5,53 
						155.2,56.7 					"/>
					<polygon class="st7" points="172.7,67.1 170.3,71.8 174.1,75.6 168.8,74.8 166.4,79.5 165.6,74.2 160.4,73.4 165.1,71 
						164.3,65.8 168,69.5 					"/>
					<polygon class="st7" points="185.5,79.9 183.1,84.6 186.9,88.4 181.6,87.6 179.2,92.3 178.4,87 173.2,86.2 177.9,83.8 
						177.1,78.6 180.8,82.3 					"/>
					<polygon class="st7" points="198.3,92.7 195.9,97.4 199.6,101.2 194.4,100.4 192,105.1 191.2,99.8 186,99 190.7,96.6 
						189.8,91.4 193.6,95.1 					"/>
					<polygon class="st7" points="211.1,105.5 208.7,110.2 212.4,114 207.2,113.1 204.8,117.9 204,112.6 198.8,111.8 203.5,109.4 
						202.6,104.2 206.4,107.9 					"/>
					<polygon class="st7" points="223.9,118.3 221.5,123 225.2,126.8 220,125.9 217.6,130.6 216.8,125.4 211.5,124.6 216.2,122.2 
						215.4,117 219.2,120.7 					"/>
					<polygon class="st7" points="236.7,131.1 234.3,135.8 238,139.5 232.8,138.7 230.4,143.4 229.6,138.2 224.3,137.4 229,135 
						228.2,129.7 232,133.5 					"/>
					<polygon class="st7" points="249.5,143.9 247.1,148.6 250.8,152.3 245.6,151.5 243.2,156.2 242.4,151 237.1,150.2 241.8,147.8 
						241,142.5 244.8,146.3 					"/>
				</g>
				<g class="st6">
					<polygon class="st7" points="114.4,36.2 112,40.9 115.8,44.7 110.5,43.9 108.1,48.6 107.3,43.4 102.1,42.5 106.8,40.1 
						106,34.9 109.7,38.6 					"/>
					<polygon class="st7" points="127.2,49 124.8,53.7 128.6,57.5 123.3,56.7 120.9,61.4 120.1,56.1 114.9,55.3 119.6,52.9 
						118.8,47.7 122.5,51.4 					"/>
					<polygon class="st7" points="140,61.8 137.6,66.5 141.4,70.3 136.1,69.5 133.7,74.2 132.9,68.9 127.7,68.1 132.4,65.7 
						131.6,60.5 135.3,64.2 					"/>
					<polygon class="st7" points="152.8,74.6 150.4,79.3 154.1,83.1 148.9,82.2 146.5,87 145.7,81.7 140.5,80.9 145.2,78.5 
						144.3,73.3 148.1,77 					"/>
					<polygon class="st7" points="165.6,87.4 163.2,92.1 166.9,95.9 161.7,95 159.3,99.7 158.5,94.5 153.3,93.7 158,91.3 
						157.1,86.1 160.9,89.8 					"/>
					<polygon class="st7" points="178.4,100.2 176,104.9 179.7,108.7 174.5,107.8 172.1,112.5 171.3,107.3 166,106.5 170.7,104.1 
						169.9,98.8 173.7,102.6 					"/>
					<polygon class="st7" points="191.2,113 188.8,117.7 192.5,121.4 187.3,120.6 184.9,125.3 184.1,120.1 178.8,119.3 183.5,116.9 
						182.7,111.6 186.5,115.4 					"/>
					<polygon class="st7" points="204,125.8 201.6,130.5 205.3,134.2 200.1,133.4 197.7,138.1 196.9,132.9 191.6,132.1 196.3,129.7 
						195.5,124.4 199.3,128.2 					"/>
					<polygon class="st7" points="216.8,138.6 214.4,143.3 218.1,147 212.9,146.2 210.5,150.9 209.6,145.7 204.4,144.9 209.1,142.5 
						208.3,137.2 212.1,141 					"/>
					<polygon class="st7" points="229.6,151.4 227.2,156.1 230.9,159.8 225.7,159 223.3,163.7 222.4,158.5 217.2,157.7 221.9,155.2 
						221.1,150 224.9,153.8 					"/>
				</g>
				<g class="st6">
					<polygon class="st7" points="106.9,56.1 104.6,60.8 108.3,64.6 103.1,63.8 100.6,68.5 99.8,63.3 94.6,62.4 99.3,60 98.5,54.8 
						102.2,58.5 					"/>
					<polygon class="st7" points="119.7,68.9 117.3,73.6 121.1,77.4 115.9,76.6 113.4,81.3 112.6,76.1 107.4,75.2 112.1,72.8 
						111.3,67.6 115,71.3 					"/>
					<polygon class="st7" points="132.5,81.7 130.1,86.4 133.9,90.2 128.6,89.4 126.2,94.1 125.4,88.9 120.2,88 124.9,85.6 
						124.1,80.4 127.8,84.1 					"/>
					<polygon class="st7" points="145.3,94.5 142.9,99.2 146.7,103 141.4,102.2 139,106.9 138.2,101.6 133,100.8 137.7,98.4 
						136.9,93.2 140.6,96.9 					"/>
					<polygon class="st7" points="158.1,107.3 155.7,112 159.5,115.8 154.2,115 151.8,119.7 151,114.4 145.8,113.6 150.5,111.2 
						149.7,106 153.4,109.7 					"/>
					<polygon class="st7" points="170.9,120.1 168.5,124.8 172.3,128.6 167,127.7 164.6,132.5 163.8,127.2 158.6,126.4 163.3,124 
						162.5,118.8 166.2,122.5 					"/>
					<polygon class="st7" points="183.7,132.9 181.3,137.6 185,141.4 179.8,140.5 177.4,145.2 176.6,140 171.4,139.2 176.1,136.8 
						175.2,131.6 179,135.3 					"/>
					<polygon class="st7" points="196.5,145.7 194.1,150.4 197.8,154.2 192.6,153.3 190.2,158 189.4,152.8 184.1,152 188.9,149.6 
						188,144.3 191.8,148.1 					"/>
					<polygon class="st7" points="209.3,158.5 206.9,163.2 210.6,166.9 205.4,166.1 203,170.8 202.2,165.6 196.9,164.8 201.6,162.4 
						200.8,157.1 204.6,160.9 					"/>
					<polygon class="st7" points="222.1,171.3 219.7,176 223.4,179.7 218.2,178.9 215.8,183.6 215,178.4 209.7,177.6 214.4,175.2 
						213.6,169.9 217.4,173.7 					"/>
				</g>
				<g class="st6">
					<polygon class="st7" points="86.7,63.3 84.3,68 88,71.7 82.8,70.9 80.4,75.6 79.5,70.4 74.3,69.6 79,67.1 78.2,61.9 82,65.7 
											"/>
					<polygon class="st7" points="99.5,76.1 97.1,80.8 100.8,84.5 95.6,83.7 93.2,88.4 92.3,83.2 87.1,82.3 91.8,79.9 91,74.7 
						94.8,78.4 					"/>
					<polygon class="st7" points="112.3,88.9 109.9,93.6 113.6,97.3 108.4,96.5 106,101.2 105.1,96 99.9,95.1 104.6,92.7 
						103.8,87.5 107.6,91.2 					"/>
					<polygon class="st7" points="125.1,101.6 122.7,106.4 126.4,110.1 121.2,109.3 118.8,114 117.9,108.8 112.7,107.9 117.4,105.5 
						116.6,100.3 120.3,104 					"/>
					<polygon class="st7" points="137.9,114.4 135.5,119.2 139.2,122.9 134,122.1 131.6,126.8 130.7,121.6 125.5,120.7 130.2,118.3 
						129.4,113.1 133.1,116.8 					"/>
					<polygon class="st7" points="150.6,127.2 148.3,131.9 152,135.7 146.8,134.9 144.4,139.6 143.5,134.4 138.3,133.5 143,131.1 
						142.2,125.9 145.9,129.6 					"/>
					<polygon class="st7" points="163.4,140 161.1,144.7 164.8,148.5 159.6,147.7 157.1,152.4 156.3,147.2 151.1,146.3 155.8,143.9 
						155,138.7 158.7,142.4 					"/>
					<polygon class="st7" points="176.2,152.8 173.8,157.5 177.6,161.3 172.4,160.5 169.9,165.2 169.1,160 163.9,159.1 168.6,156.7 
						167.8,151.5 171.5,155.2 					"/>
					<polygon class="st7" points="189,165.6 186.6,170.3 190.4,174.1 185.1,173.3 182.7,178 181.9,172.7 176.7,171.9 181.4,169.5 
						180.6,164.3 184.3,168 					"/>
					<polygon class="st7" points="201.8,178.4 199.4,183.1 203.2,186.9 197.9,186.1 195.5,190.8 194.7,185.5 189.5,184.7 
						194.2,182.3 193.4,177.1 197.1,180.8 					"/>
				</g>
				<g class="st6">
					<polygon class="st7" points="72.7,76.7 70.3,81.4 74.1,85.2 68.8,84.3 66.4,89 65.6,83.8 60.4,83 65.1,80.6 64.3,75.4 68,79.1 
											"/>
					<polygon class="st7" points="85.5,89.5 83.1,94.2 86.9,98 81.6,97.1 79.2,101.8 78.4,96.6 73.2,95.8 77.9,93.4 77,88.1 
						80.8,91.9 					"/>
					<polygon class="st7" points="98.3,102.3 95.9,107 99.6,110.7 94.4,109.9 92,114.6 91.2,109.4 86,108.6 90.7,106.2 89.8,100.9 
						93.6,104.7 					"/>
					<polygon class="st7" points="111.1,115.1 108.7,119.8 112.4,123.5 107.2,122.7 104.8,127.4 104,122.2 98.7,121.4 103.5,119 
						102.6,113.7 106.4,117.5 					"/>
					<polygon class="st7" points="123.9,127.9 121.5,132.6 125.2,136.3 120,135.5 117.6,140.2 116.8,135 111.5,134.2 116.2,131.8 
						115.4,126.5 119.2,130.3 					"/>
					<polygon class="st7" points="136.7,140.7 134.3,145.4 138,149.1 132.8,148.3 130.4,153 129.6,147.8 124.3,147 129,144.5 
						128.2,139.3 132,143.1 					"/>
					<polygon class="st7" points="149.5,153.5 147.1,158.2 150.8,161.9 145.6,161.1 143.2,165.8 142.3,160.6 137.1,159.8 
						141.8,157.3 141,152.1 144.8,155.8 					"/>
					<polygon class="st7" points="162.3,166.3 159.9,171 163.6,174.7 158.4,173.9 156,178.6 155.1,173.4 149.9,172.5 154.6,170.1 
						153.8,164.9 157.6,168.6 					"/>
					<polygon class="st7" points="175.1,179 172.7,183.8 176.4,187.5 171.2,186.7 168.8,191.4 167.9,186.2 162.7,185.3 167.4,182.9 
						166.6,177.7 170.4,181.4 					"/>
					<polygon class="st7" points="187.9,191.8 185.5,196.6 189.2,200.3 184,199.5 181.6,204.2 180.7,199 175.5,198.1 180.2,195.7 
						179.4,190.5 183.1,194.2 					"/>
				</g>
				<g class="st6">
					<polygon class="st7" points="65.3,96.7 62.9,101.4 66.6,105.1 61.4,104.3 59,109 58.2,103.8 52.9,103 57.6,100.5 56.8,95.3 
						60.6,99.1 					"/>
					<polygon class="st7" points="78.1,109.5 75.7,114.2 79.4,117.9 74.2,117.1 71.8,121.8 71,116.6 65.7,115.8 70.4,113.3 
						69.6,108.1 73.4,111.8 					"/>
					<polygon class="st7" points="90.9,122.3 88.5,127 92.2,130.7 87,129.9 84.6,134.6 83.7,129.4 78.5,128.5 83.2,126.1 
						82.4,120.9 86.2,124.6 					"/>
					<polygon class="st7" points="103.7,135 101.3,139.8 105,143.5 99.8,142.7 97.4,147.4 96.5,142.2 91.3,141.3 96,138.9 
						95.2,133.7 99,137.4 					"/>
					<polygon class="st7" points="116.5,147.8 114.1,152.6 117.8,156.3 112.6,155.5 110.2,160.2 109.3,155 104.1,154.1 108.8,151.7 
						108,146.5 111.7,150.2 					"/>
					<polygon class="st7" points="129.3,160.6 126.9,165.3 130.6,169.1 125.4,168.3 123,173 122.1,167.8 116.9,166.9 121.6,164.5 
						120.8,159.3 124.5,163 					"/>
					<polygon class="st7" points="142.1,173.4 139.7,178.1 143.4,181.9 138.2,181.1 135.8,185.8 134.9,180.6 129.7,179.7 
						134.4,177.3 133.6,172.1 137.3,175.8 					"/>
					<polygon class="st7" points="154.8,186.2 152.5,190.9 156.2,194.7 151,193.9 148.6,198.6 147.7,193.4 142.5,192.5 147.2,190.1 
						146.4,184.9 150.1,188.6 					"/>
					<polygon class="st7" points="167.6,199 165.3,203.7 169,207.5 163.8,206.7 161.3,211.4 160.5,206.1 155.3,205.3 160,202.9 
						159.2,197.7 162.9,201.4 					"/>
					<polygon class="st7" points="180.4,211.8 178,216.5 181.8,220.3 176.6,219.5 174.1,224.2 173.3,218.9 168.1,218.1 172.8,215.7 
						172,210.5 175.7,214.2 					"/>
				</g>
			</g>
			<path class="st8" d="M76,140.5c0,0,7.7,22.8-9.1,44.5c4.7-4.3,28-25.7,28-25.7L76,140.5z"/>
			<path class="st8" d="M136.2,200.7c0,0-22.8-7.7-44.5,9.1c4.3-4.7,25.7-28,25.7-28L136.2,200.7z"/>
			<path class="st5" d="M117.5,181.9l-11.3-11.3l-11.3-11.3l-71.9,66.2c-0.9,0.8-1.3,2.1-0.9,3.3c0.8,2.5,3.3,7.5,10.9,15
				c7.6,7.6,12.5,10.1,15,10.9c1.2,0.4,2.4,0,3.3-0.9L117.5,181.9z"/>
			<g>
				<g>
					<path class="st9" d="M103.9,172.9l9,9c0.5,0.5,0.5,1.2,0,1.7c-3.4,3.1-16.1,13.5-24.6,5L103.9,172.9z"/>
					<path class="st9" d="M92.2,199.3c0.8,0.8,0.8,2.1,0.1,2.9L50.3,249c-0.6,0.7-1.6,0.9-2.5,0.6c-2.1-0.8-6.4-3-12-8.6l49.1-49.1
						L92.2,199.3z"/>
				</g>
				<g>
					<path class="st10" d="M93.2,163.9c0.4-0.5,1.2-0.5,1.7,0l9,9l-15.7,15.7C79.7,180,90.1,167.3,93.2,163.9z"/>
					<path class="st10" d="M27.7,226.5l46.8-42.1c0.8-0.8,2.1-0.7,2.9,0.1l7.4,7.4L35.7,241c-5.6-5.6-7.8-9.9-8.6-12
						C26.8,228.1,27,227.1,27.7,226.5z"/>
				</g>
			</g>
		</g>
		<g>
			<path class="st0" d="M153,53.4c-34.4,34.4-30.8,85.3,2.9,118.9c24.6,24.6,50.7,41,82,28.8l61.2-61.2c11.8-31-2.6-59.1-27.2-83.7
				C238.3,22.7,187.8,18.6,153,53.4z"/>
			<path class="st11" d="M155,55.4c-33.9,33.9-29.9,84.3,3.7,117.8c24.6,24.6,50.5,40.9,81.4,29.1l60.2-60.2
				c11.5-30.6-2.9-58.5-27.5-83.1C239.3,25.5,189.3,21.2,155,55.4z"/>
			<g>
				<polygon class="st12" points="195,95.4 212.1,104 225.6,90.6 222.6,109.4 239.6,118.1 220.8,121.2 217.8,140 209,123 190.2,126 
					203.6,112.4 				"/>
			</g>
			<path class="st8" d="M240.1,202.3c0,0,22.8-7.7,44.5,9.1c-4.3-4.7-25.7-28-25.7-28L240.1,202.3z"/>
			<path class="st8" d="M300.3,142.1c0,0-7.7,22.8,9.1,44.5c-4.7-4.3-28-25.7-28-25.7L300.3,142.1z"/>
			<path class="st5" d="M281.5,160.9l-11.3,11.3l-11.3,11.3l66.2,71.9c0.8,0.9,2.1,1.3,3.3,0.9c2.5-0.8,7.5-3.3,15-10.9
				c7.6-7.6,10.1-12.5,10.9-15c0.4-1.2,0-2.4-0.9-3.3L281.5,160.9z"/>
			<g>
				<g>
					<path class="st9" d="M272.5,174.5l-9,9c-0.5,0.5-0.5,1.2,0,1.7c3.4,3.1,16.1,13.5,24.6,5L272.5,174.5z"/>
					<path class="st9" d="M284.1,200.9c-0.8,0.8-0.8,2.1-0.1,2.9l42.1,46.8c0.6,0.7,1.6,0.9,2.5,0.6c2.1-0.8,6.4-3,12-8.6
						l-49.1-49.1L284.1,200.9z"/>
				</g>
				<g>
					<path class="st10" d="M283.2,165.5c-0.4-0.5-1.2-0.5-1.7,0l-9,9l15.7,15.7C296.7,181.6,286.3,168.9,283.2,165.5z"/>
					<path class="st10" d="M348.6,228.1L301.8,186c-0.8-0.8-2.1-0.7-2.9,0.1l-7.4,7.4l49.1,49.1c5.6-5.6,7.8-9.9,8.6-12
						C349.6,229.7,349.3,228.7,348.6,228.1z"/>
				</g>
			</g>
		</g>
	</g>
	<circle class="st13" cx="188.2" cy="242.3" r="19.1"/>
</g>
</svg>
