<!-- Generator: Adobe Illustrator 24.2.3, SVG Export Plug-In  -->
<svg version="1.1" xmlns="http://www.w3.org/2000/svg" xmlns:xlink="http://www.w3.org/1999/xlink" x="0px" y="0px" width="362.8px"
	 height="314.3px" viewBox="0 0 362.8 314.3" style="overflow:visible;enable-background:new 0 0 362.8 314.3;"
	 xml:space="preserve">
<style type="text/css">
	.st0{fill:#F5F4EF;}
	.st1{fill:#D9D9D9;}
	.st2{fill:#F2F2F2;}
	.st3{fill:#FFFFFF;}
	.st4{fill:#141F52;}
	.st5{fill:#2E45B8;}
	.st6{clip-path:url(#SVGID_6_);fill:#C91D42;}
	.st7{clip-path:url(#SVGID_6_);fill:#141F52;}
	.st8{clip-path:url(#SVGID_7_);fill:#C91D42;}
	.st9{clip-path:url(#SVGID_7_);fill:#141F52;}
	.st10{clip-path:url(#SVGID_8_);fill:#141F52;}
	.st11{clip-path:url(#SVGID_8_);fill:#C91D42;}
	.st12{fill:#475ED1;}
	.st13{clip-path:url(#SVGID_9_);fill:#C91D42;}
	.st14{clip-path:url(#SVGID_9_);fill:#141F52;}
	.st15{fill:#C91D42;}
	.st16{clip-path:url(#SVGID_10_);fill:#C91D42;}
	.st17{clip-path:url(#SVGID_10_);fill:#141F52;}
	.st18{clip-path:url(#SVGID_12_);fill:#C91D42;}
	.st19{clip-path:url(#SVGID_12_);fill:#141F52;}
	.st20{clip-path:url(#SVGID_14_);fill:#C91D42;}
	.st21{clip-path:url(#SVGID_14_);fill:#141F52;}
	.st22{clip-path:url(#SVGID_16_);fill:#141F52;}
	.st23{clip-path:url(#SVGID_16_);fill:#C91D42;}
	.st24{clip-path:url(#SVGID_18_);fill:#C91D42;}
	.st25{clip-path:url(#SVGID_18_);fill:#141F52;}
	.st26{clip-path:url(#SVGID_20_);fill:#C91D42;}
	.st27{clip-path:url(#SVGID_20_);fill:#141F52;}
</style>
<defs>
</defs>
<g>
	<g>
		<g>
			<polygon class="st0" points="168.3,63.8 154.6,0 172.8,62.8 			"/>
		</g>
		<g>
			<polygon class="st0" points="73.7,89.4 29.6,60.8 76.2,85.5 			"/>
		</g>
		<g>
			<polygon class="st0" points="221.4,63.9 236.4,24 225.8,65.4 			"/>
		</g>
		<g>
			<polygon class="st0" points="245.5,72.1 287.1,20.7 249.1,74.9 			"/>
		</g>
		<g>
			<polygon class="st0" points="267.1,90.7 298.7,67.1 270,94.3 			"/>
		</g>
		<g>
			<polygon class="st0" points="195.7,71.2 196.9,31.8 200.3,71.2 			"/>
		</g>
		<g>
			<polygon class="st0" points="288.5,137 340.8,131.7 289.1,141.6 			"/>
		</g>
		<g>
			<polygon class="st0" points="292.6,108.6 341.2,88.4 294.5,112.8 			"/>
		</g>
		<g>
			<polygon class="st0" points="266.8,210.7 311.6,247.6 263.9,214.3 			"/>
		</g>
		<g>
			<polygon class="st0" points="291.5,192.7 338.4,216.3 289.5,196.9 			"/>
		</g>
		<g>
			<polygon class="st0" points="317.2,169.5 362.8,175.3 316.7,175 			"/>
		</g>
		<g>
			<polygon class="st0" points="85.8,163.8 33.2,164.6 85.6,159.2 			"/>
		</g>
		<g>
			<polygon class="st0" points="139.9,226.8 100.5,269.7 136.5,223.7 			"/>
		</g>
		<g>
			<polygon class="st0" points="113.5,186.8 63.7,203.8 111.9,182.5 			"/>
		</g>
		<g>
			<polygon class="st0" points="97.2,138 47.4,121.1 98.6,133.6 			"/>
		</g>
		<g>
			<polygon class="st0" points="156.4,236.9 132.2,293.3 152.1,235.1 			"/>
		</g>
		<g>
			<polygon class="st0" points="181.5,237.9 171.8,289.5 177,237.1 			"/>
		</g>
		<g>
			<polygon class="st0" points="158.1,93.3 139.9,43.9 162.4,91.6 			"/>
		</g>
		<g>
			<polygon class="st0" points="113.6,84.6 77.1,41.2 117.1,81.6 			"/>
		</g>
		<g>
			<polygon class="st0" points="119.5,209.5 64,243.2 116.5,204.9 			"/>
		</g>
		<g>
			<polygon class="st0" points="206.3,242.9 211.8,314.3 200.8,243.5 			"/>
		</g>
		<g>
			<polygon class="st0" points="253.9,233.6 290.9,286.9 249.5,236.9 			"/>
		</g>
	</g>
	<g>
		<circle class="st1" cx="112.5" cy="103.1" r="26.4"/>
		<circle class="st1" cx="130" cy="95.7" r="26.4"/>
		<circle class="st1" cx="157.1" cy="97.7" r="26.4"/>
		<circle class="st1" cx="94" cy="158.5" r="22.5"/>
		<circle class="st1" cx="119.9" cy="200.7" r="22.5"/>
		<circle class="st1" cx="172.1" cy="222.2" r="28.1"/>
		<circle class="st1" cx="209.9" cy="219.5" r="28.1"/>
		<circle class="st1" cx="305.6" cy="168.3" r="15"/>
		<circle class="st1" cx="87.5" cy="112.9" r="15"/>
		<circle class="st1" cx="93.7" cy="132.6" r="15"/>
		<circle class="st1" cx="101.3" cy="178.1" r="15"/>
		<circle class="st1" cx="144.3" cy="215.3" r="15"/>
		<circle class="st1" cx="242.4" cy="226.8" r="15"/>
		<circle class="st1" cx="253.4" cy="208.1" r="15"/>
		<circle class="st1" cx="239.2" cy="77.5" r="15"/>
		<circle class="st1" cx="257.2" cy="83.7" r="15"/>
		<circle class="st1" cx="275.7" cy="95.6" r="15"/>
		<circle class="st1" cx="167.9" cy="73.7" r="15"/>
		<circle class="st1" cx="182.8" cy="73.2" r="15"/>
		<circle class="st1" cx="281" cy="190" r="28.1"/>
		<circle class="st1" cx="290.3" cy="115.3" r="28.1"/>
		<circle class="st1" cx="285.3" cy="151.9" r="28.1"/>
		<circle class="st1" cx="210.8" cy="84.2" r="28.1"/>
	</g>
	<g>
		<circle class="st2" cx="199.1" cy="205.9" r="34.2"/>
		<circle class="st2" cx="235.5" cy="188" r="34.2"/>
		<circle class="st2" cx="160" cy="197.8" r="29"/>
		<circle class="st2" cx="133.5" cy="163.2" r="33.8"/>
		<circle class="st2" cx="277.4" cy="196" r="15.3"/>
		<circle class="st2" cx="291.2" cy="192.8" r="11.7"/>
		<circle class="st2" cx="293.9" cy="110.3" r="15.3"/>
		<circle class="st2" cx="281.4" cy="107.2" r="15.3"/>
		<circle class="st2" cx="291.6" cy="126.1" r="15.3"/>
		<circle class="st2" cx="274.3" cy="128.5" r="15.3"/>
		<circle class="st2" cx="177.7" cy="228" r="15.3"/>
		<circle class="st2" cx="113.9" cy="104.5" r="15.3"/>
		<circle class="st2" cx="117.9" cy="144.4" r="25.1"/>
		<circle class="st2" cx="116.5" cy="112.6" r="21"/>
		<circle class="st2" cx="135.4" cy="103.2" r="25.2"/>
		<circle class="st2" cx="204.4" cy="101.6" r="34.2"/>
		<circle class="st2" cx="172.4" cy="116.6" r="34.2"/>
		<circle class="st2" cx="250.1" cy="104.5" r="29.8"/>
		<circle class="st2" cx="276.9" cy="167.7" r="30.7"/>
	</g>
	<g>
		<circle class="st3" cx="202.3" cy="195" r="19.4"/>
		<circle class="st3" cx="142.4" cy="109.9" r="12.4"/>
		<circle class="st3" cx="152.9" cy="110.9" r="12"/>
		<circle class="st3" cx="219.4" cy="186.5" r="19.4"/>
		<circle class="st3" cx="238.9" cy="179.8" r="19.4"/>
		<circle class="st3" cx="185.3" cy="113.5" r="19.4"/>
		<circle class="st3" cx="135.8" cy="148" r="19.4"/>
		<circle class="st3" cx="158.2" cy="188" r="13.1"/>
		<circle class="st3" cx="150.1" cy="169.4" r="16"/>
		<circle class="st3" cx="243.8" cy="119.2" r="18.7"/>
		<circle class="st3" cx="230.9" cy="109.8" r="18.7"/>
		<circle class="st3" cx="267.4" cy="175.3" r="10.7"/>
		<circle class="st3" cx="261.5" cy="181.4" r="14.9"/>
		<circle class="st3" cx="165.3" cy="109" r="10.7"/>
		<circle class="st3" cx="125.9" cy="130" r="10.7"/>
		<circle class="st3" cx="170.6" cy="192.9" r="10.7"/>
		<circle class="st3" cx="182.8" cy="191" r="10.7"/>
		<circle class="st3" cx="128.3" cy="120.2" r="10.7"/>
		<circle class="st3" cx="200.6" cy="105.2" r="10.7"/>
		<circle class="st3" cx="214.3" cy="98.9" r="10.7"/>
		<circle class="st3" cx="273" cy="166.6" r="10.7"/>
		<circle class="st3" cx="267" cy="153.5" r="10.7"/>
		<circle class="st3" cx="258.5" cy="139.4" r="10.7"/>
		<circle class="st3" cx="258.3" cy="129.2" r="10.7"/>
		<path class="st3" d="M129.8,107.1l-0.8,22.3c0,0,20,41.8,20.8,42.4s16.3,17.6,16.3,17.6l48.7,4.1l52.4-24.8l-0.5-12.8l-18.5-35.9
			L213,103.1l-38.5,11.4L129.8,107.1z"/>
	</g>
	<path class="st2" d="M229.2,189.1c-0.9,6.8-4.4,11.7-10.9,13.8c-6.6,2.1-12-0.5-16.7-5.1c-0.2,1,1.9,3.9,3.2,4.9
		c6,4.5,12.4,4.9,18.5,0.8C228.4,200.2,230.3,195.2,229.2,189.1z"/>
	<path class="st2" d="M142.2,124.9c-0.7-6.8,1.6-12.4,7.5-15.9c5.9-3.6,11.8-2.2,17.4,1.1c-0.1-1-2.8-3.4-4.3-4
		c-6.9-3-13.2-2-18.2,3.4C140.5,113.9,139.8,119.3,142.2,124.9z"/>
	<path class="st2" d="M222.1,114.2c5.6-4,11.6-4.7,17.5-1.4c6,3.4,7.8,9.1,7.6,15.7c0.8-0.5,1.6-4.1,1.4-5.7
		c-0.8-7.4-4.8-12.4-12-14.2C230.9,107.3,225.8,109.3,222.1,114.2z"/>
</g>
<g>
	
		<ellipse transform="matrix(0.1068 -0.9943 0.9943 0.1068 42.909 445.5398)" class="st4" cx="269.4" cy="198.9" rx="15.7" ry="31.7"/>
	
		<ellipse transform="matrix(0.1068 -0.9943 0.9943 0.1068 46.3553 442.4438)" class="st5" cx="269.4" cy="195.4" rx="14.7" ry="29.5"/>
	<path class="st4" d="M317.3,120.8c0,0,1.9-0.1,2.9-0.7c-0.2,0.8-0.6,4.7-0.6,5.6s0.7,11.3,0.7,11.3s-1.4,0.7-3,0
		c0-0.5,0.7-10.8,0.6-11.3C317.9,125.3,317.5,121.5,317.3,120.8z"/>
	<path class="st4" d="M319.4,114.9c0,0,2.2-0.7,3.1-1.5c1.9-1.8,5.6-6.9,5.6-6.9s2.5,0.2,3.9,1.6c-0.7,0.8-7.4,6.3-7.9,6.8
		c-0.5,0.6-1.5,3.1-1.5,3.1L319.4,114.9z"/>
	<g>
		<g>
			<defs>
				<path id="SVGID_5_" d="M248.6,105.1c0,0,0.3-1.2,2.2-3c-0.3-1.1-0.6-1.4-0.5-2.1c0-0.7,0.8-2.3,3-2.5c2.2-0.1,10.1-0.5,26.2,2.4
					c6.4,1,13.1,2.4,15.7,2.6c2.6,0.2,17,1.3,20.2,5.9c0.3,0.8,0.5,2.1,0.1,2.7c1.1,0.6,6.2,3.6,10,8.4c0.4,0.6,0.1,1.2-0.6,1.4
					c-0.7,0.1-15.5,8-44.1-2.4C266.1,114.7,248.6,105.1,248.6,105.1z"/>
			</defs>
			<use xlink:href="#SVGID_5_"  style="overflow:visible;fill:#2E45B8;"/>
			<clipPath id="SVGID_6_">
				<use xlink:href="#SVGID_5_"  style="overflow:visible;"/>
			</clipPath>
			<path class="st6" d="M316.9,111.9c0,0-6.3,3.6-3.2,11.7c9.4-0.5,13.4-0.6,13.4-0.6l-0.6-11.5L316.9,111.9z"/>
			<path class="st7" d="M315.4,108.4c0,0-1.3-0.5-2.1,0.1c-0.9,0.6-1.2,2.6-1.3,4c0.1,0.6,0.2,0.6,0.5,0.2c0.3-0.4,1-2,3.1-1.7
				c1.1-0.1,1.4-0.1,1.4-0.1l-0.1-2.6L315.4,108.4z"/>
		</g>
	</g>
	<path class="st4" d="M218.5,122.9c0.8,0,30.1-17.8,30.1-17.8s26,1.5,37.9,8.6c2.5,1.8,3.4,5.2,0.7,5.2s-4-1-5.5,0.6
		c-1.6,1.6-14.3,15.3-14.3,15.3L218.5,122.9z"/>
	<path class="st4" d="M259.5,98.5C259.9,98.4,295,74,295,74s-0.5-3.1,2.4-2.5c3,0.5,13.2,1.5,21.3,5.9c1.7,0.8,1.8,3.1,0.4,3.3
		c-1.5,1.3-22.3,23-22.3,23L259.5,98.5z"/>
	<path class="st4" d="M284.8,148.5c0,0,1.9-0.1,2.9-0.7c-0.2,0.8-0.6,4.7-0.6,5.6s0.7,11.3,0.7,11.3s-1.4,0.7-3,0
		c0-0.5,0.7-10.8,0.6-11.3C285.4,153,285,149.3,284.8,148.5z"/>
	<path class="st4" d="M286.9,142.6c0,0,2.2-0.7,3.1-1.5c1.9-1.8,5.6-6.9,5.6-6.9s2.5,0.2,3.9,1.6c-0.7,0.8-7.4,6.3-7.9,6.8
		c-0.5,0.6-1.5,3.1-1.5,3.1L286.9,142.6z"/>
	<g>
		<g>
			<defs>
				<path id="SVGID_4_" d="M210.1,129.7l-2.3,0l0-1.2c0,0,2.7,0,4.9-1.8c-0.3-1.2-0.6-1.4-0.5-2.2c0.1-0.8,1-2.4,3.4-2.4
					s11.1-0.1,28.6,3.6c6.9,1.3,14.2,3,17.1,3.3c2.9,0.3,18.6,2,21.9,6.9c0.5,0.4,1.5,2.1,1.4,3.6c1.2,0.7,5.2,3.1,9.2,8.2
					c0.4,0.7,0,1.3-0.7,1.4c-0.7,0.1-17.4,7.5-48.3-4.4C228.8,140.3,210.1,129.7,210.1,129.7z"/>
			</defs>
			<use xlink:href="#SVGID_4_"  style="overflow:visible;fill:#2E45B8;"/>
			<clipPath id="SVGID_7_">
				<use xlink:href="#SVGID_4_"  style="overflow:visible;"/>
			</clipPath>
			<path class="st8" d="M284.7,139.6c0,0-7.1,3.4-4.1,11.9c10.3-0.1,14.8-0.1,14.8-0.1l-0.1-11.9L284.7,139.6z"/>
			<path class="st9" d="M283.2,136c0,0-1.4-0.6-2.4,0s-1.5,2.6-1.6,4.1c0,0.6,0.2,0.6,0.5,0.3c0.3-0.4,2.2-1.8,4.7-1.5
				c1.2,0,0.2,0,0.2,0l0-2.7L283.2,136z"/>
			<path class="st9" d="M209.3,126.3c0.7,0.6,34.6,7.1,58.3,16.5c4.1,6.6-2.9,5.2-2.9,5.2l-60.8-15.5L209.3,126.3z"/>
		</g>
	</g>
	<path class="st4" d="M281.2,146.9c0,0-0.6,2.7-3.1,4.5c-2.9,2-8.6,6.3-8.6,6.3c0.8,1.6,2,2.4,5.4,2.2l6.3-7.2c0,0,2.6-3.2,5.1-4
		C283.3,147.8,282,147.4,281.2,146.9z"/>
	<path class="st4" d="M287.8,141.9c0,0-1.9,0.1-2.9,0.7c0.2-0.8,0.6-4.7,0.6-5.6s-0.7-11.3-0.7-11.3s1.4-0.7,3,0
		c0,0.5-0.7,10.8-0.6,11.3S287.6,141.2,287.8,141.9z"/>
	<path class="st4" d="M313.7,119.2c0,0-0.6,2.7-3.1,4.5c-2.9,2-8.6,6.3-8.6,6.3c0.8,1.6,2,2.4,5.4,2.2l6.3-7.2c0,0,2.6-3.2,5.1-4
		C315.8,120.1,314.4,119.7,313.7,119.2z"/>
	<path class="st4" d="M320.3,114.2c0,0-1.9,0.1-2.9,0.7c0.2-0.8,0.6-4.7,0.6-5.6S317.3,98,317.3,98s1.4-0.7,3,0
		c0,0.5-0.7,10.8-0.6,11.3C319.7,109.7,320.1,113.5,320.3,114.2z"/>
	<path class="st4" d="M162.4,161.2c-1.5,5.9-22.5,22.9-38.7,37.1l50.7,9l40.5-25.3c0,0,3.3-1.4,4.9-1.4c1.6,0,2.2-0.2,2.2-0.8
		c0-0.7-0.1-2.8-5.3-4.4C211.6,173.8,189.9,162.4,162.4,161.2z"/>
	<g>
		<defs>
			<path id="SVGID_3_" d="M22.8,73.9c0,0-1.7,0.1-2.3,1.5s-0.1,2.4,0.4,2.8c0.5,0.4,10.8,11.5,18.2,16.6s49.7,36.5,77.3,49
				c28.1,12.8,141,49.3,141,49.3s40.8,16.2,69.9,16.5c8.5,0.5,20.9,0.8,23.5-5c2.6-5.8-6.1-17.7-19-27.9
				c-3.3-4.8-4.3-10.8-29.8-18.9c-25.4-8.1-77.9-25.1-77.9-25.1S79.7,89.7,79.1,89.7C78.5,89.7,37.6,78.2,22.8,73.9z"/>
		</defs>
		<use xlink:href="#SVGID_3_"  style="overflow:visible;fill:#2E45B8;"/>
		<clipPath id="SVGID_8_">
			<use xlink:href="#SVGID_3_"  style="overflow:visible;"/>
		</clipPath>
		<path class="st10" d="M69.8,119.3c0,0,76.1,34.8,213.4,70.8l3.1,0.6c0,0,25.1,6,42.7-1.4c14.9,3.1-6.8,21.7-6.8,21.7
			c0,0-77.4-15.1-173.1-49.6C123.5,151.9,83.5,131.9,69.8,119.3z"/>
		<path class="st11" d="M324.9,209.7c0,0-3.3-22,13.2-27.5c9-0.3,13.2,2.2,13.2,2.2l5.5,18.4l-8.6,12.2L324.9,209.7z"/>
	</g>
	<path class="st12" d="M307.1,182.3c3.1,0.2,6,0.2,8.5,0l1.7,5.6c-3.2,0.5-7.1,0.5-11.1,0.4L307.1,182.3z"/>
	<path class="st12" d="M316.9,182.3l1.7,5.4c3.4-0.5,6.4-1.5,8.8-3.2l-2.6-4.6C322.5,180.9,319.9,181.7,316.9,182.3z"/>
	<path class="st12" d="M326,179.3l2.6,4.5c1-0.8,1.9-1.6,2.5-2.5l-2.5-4.3C327.8,177.8,326.9,178.7,326,179.3z"/>
	<path class="st12" d="M329,173.5c0.1,0.9,0.1,1.8,0,2.5l2.7,4.3c0.1-1,0.1-2,0-2.7L329,173.5z"/>
	<path class="st12" d="M309.2,175.9c0,0-1.5,4.1-1.7,4.9c1.2,0.1,5,0.2,6.9,0l0.8-2C313,178.1,310.7,176.8,309.2,175.9z"/>
	<path class="st4" d="M191.7,219.8c0,0,2.5-0.7,3.4-1.6c2.1-2,6.1-7.6,6.1-7.6s2.7,0.2,4.3,1.8c-0.8,0.9-8.2,6.9-8.7,7.5
		s-1.6,3.4-1.6,3.4L191.7,219.8z"/>
	<path class="st4" d="M189.4,226.2c0,0,2-0.2,3.2-0.8c-0.2,0.9-0.7,5.1-0.7,6.2s0.7,12.5,0.7,12.5s-1.6,0.8-3.3,0
		c0-0.6,0.7-11.9,0.7-12.4S189.6,227,189.4,226.2z"/>
	<g>
		<defs>
			<path id="SVGID_2_" d="M116.9,204.6c0,0,0.4-1.3,2.5-3.1c-0.3-1.3-0.5-1.5-0.4-2.3s1-2.5,3.3-2.5c2.3,0,10.8,0,27.9,4
				c6.7,1.4,13.9,3.3,16.6,3.6c2.8,0.4,18.1,2.3,21.3,7.5c0.3,0.8,0.4,2.3,0,2.9c1.1,0.7,6.5,4.2,10.3,9.7c0.4,0.7,0,1.4-0.7,1.5
				s-16.9,7.9-47-5C135.1,216,116.9,204.6,116.9,204.6z"/>
		</defs>
		<use xlink:href="#SVGID_2_"  style="overflow:visible;fill:#2E45B8;"/>
		<clipPath id="SVGID_9_">
			<use xlink:href="#SVGID_2_"  style="overflow:visible;"/>
		</clipPath>
		<path class="st13" d="M189.5,215.6c0,0-6.9,3.6-4,12.6c10.1,0,14.4,0,14.4,0v-12.6H189.5z"/>
		<path class="st14" d="M188.1,211.7c0,0-1.4-0.6-2.3,0c-0.9,0.6-1.4,2.8-1.6,4.3c0,0.6,0.2,0.7,0.5,0.3s1.2-2.1,3.4-1.7
			c1.2,0,1.5,0,1.5,0v-2.8L188.1,211.7z"/>
	</g>
	<path class="st15" d="M76.2,67l20.1-16.3c0,0,9.1,0.5,10.8,4c-1.2,2.2-19.5,30.7-19.5,30.7l-10.1-7.7L76.2,67z"/>
	<path class="st4" d="M223.3,203.7c0,0,2-0.2,3.2-0.8c-0.2,0.9-0.7,5.1-0.7,6.2c0,1.1,0.7,12.5,0.7,12.5s-1.6,0.8-3.3,0
		c0-0.6,0.7-11.9,0.7-12.4C223.9,208.6,223.5,204.5,223.3,203.7z"/>
	<path class="st4" d="M225.6,197.2c0,0,2.5-0.7,3.4-1.6c2.1-2,6.1-7.6,6.1-7.6s2.7,0.2,4.3,1.8c-0.8,0.9-8.2,6.9-8.7,7.5
		s-1.6,3.4-1.6,3.4L225.6,197.2z"/>
	<g>
		<g>
			<defs>
				<path id="SVGID_1_" d="M143.1,181.6c0,0,0.4-1.4,2.8-3.4c-0.3-1.4-0.6-1.7-0.5-2.5c0.1-0.9,1.1-2.7,3.7-2.7s11.9,0,30.7,4.3
					c7.4,1.5,15.3,3.6,18.3,4c3.1,0.4,19.9,2.5,23.4,8.1c0.3,0.9,0.5,2.5,0,3.2c1.3,0.8,7.1,4.6,11.4,10.6c0.5,0.8,0,1.5-0.8,1.6
					c-0.8,0.1-18.6,8.6-51.8-5.4C163.1,194,143.1,181.6,143.1,181.6z"/>
			</defs>
			<use xlink:href="#SVGID_1_"  style="overflow:visible;fill:#2E45B8;"/>
			<clipPath id="SVGID_10_">
				<use xlink:href="#SVGID_1_"  style="overflow:visible;"/>
			</clipPath>
			<path class="st16" d="M223,193.6c0,0-7.6,3.9-4.5,13.7c11.1,0,15.8,0,15.8,0v-13.7H223z"/>
			<path class="st17" d="M221.5,189.4c0,0-1.5-0.7-2.5,0c-1,0.7-1.6,3-1.7,4.7c0,0.7,0.2,0.7,0.6,0.3s1.3-2.3,3.7-1.8
				c1.3,0,1.7,0,1.7,0v-3.1L221.5,189.4z"/>
		</g>
	</g>
	<path class="st4" d="M123.8,102.9c0,0-0.9,0.2-1.7,0.9c-4.4-1.2-59.2-13.1-78.5-22.2c1.2-7.6,6.6-40.1,6.6-40.1s1.6-12.8,10.6-12.2
		c2.2,0.2,4.7,1,7.4,8.9s10.8,31,14.1,36c2.9,4.5,7.2,13.7,24.3,21.4C110.4,97.7,115.8,100.1,123.8,102.9z"/>
	<path class="st4" d="M118.4,204.2c0,0,29,3.6,40.3,13.4c1.6,1.6,2.6,5-0.6,4.4c-3.2-0.6-6.2-1.9-6.2-1.9l-41.1,23.6
		c0,0-3.4,1.7-10.1,0c-6.7-1.7-21.5-6.5-21.5-6.5s-2.8-4.1,3.4-3.5c2.3-1.8,34.3-29.2,34.3-29.2L118.4,204.2z"/>
	<path class="st4" d="M143,181.5l1.8-0.3c0,0,32.6,5.3,44.8,15.7c1.7,1.6,2.7,5.2-0.9,4.4c-1.3-0.3-2.5-0.6-3.6-1l-0.7,0.6l-18-6
		l-21.6-11.5L143,181.5z"/>
	<path class="st4" d="M185.4,224.5c0,0-0.7,3-3.5,4.9c-3.2,2.2-9.5,6.9-9.5,6.9c0.8,1.8,2.2,2.6,5.9,2.4l7-8c0,0,2.9-3.5,5.6-4.4
		C187.7,225.5,186.2,225,185.4,224.5z"/>
	<path class="st4" d="M192.6,219c0,0-2,0.2-3.2,0.8c0.2-0.9,0.7-5.1,0.7-6.2c0-1.1-0.7-12.5-0.7-12.5s1.6-0.8,3.3,0
		c0,0.6-0.7,11.9-0.7,12.4S192.5,218.2,192.6,219z"/>
	<path class="st4" d="M219.3,202c0,0-0.7,3-3.5,4.9c-3.2,2.2-9.5,6.9-9.5,6.9c0.8,1.8,2.2,2.6,5.9,2.4l7-8c0,0,2.9-3.5,5.6-4.4
		C221.6,203,220.1,202.5,219.3,202z"/>
	<path class="st4" d="M226.5,196.5c0,0-2,0.2-3.2,0.8c0.2-0.9,0.7-5.1,0.7-6.2s-0.7-12.5-0.7-12.5s1.6-0.8,3.3,0
		c0,0.6-0.7,11.9-0.7,12.4S226.4,195.7,226.5,196.5z"/>
	<path class="st15" d="M42.6,89L0,112.9c0,0,6.7,3.5,10.6,4.2c2.8-0.6,54.9-15.3,54.9-15.3s3.1,0.4,3.5,0.4s1.6-0.1,2-0.6
		c0.4-0.5-0.9-1.9-2.4-2.6C67.1,98.2,47.4,89.5,42.6,89z"/>
</g>
</svg>
