<!-- Generator: Adobe Illustrator 24.2.3, SVG Export Plug-In  -->
<svg version="1.1" xmlns="http://www.w3.org/2000/svg" xmlns:xlink="http://www.w3.org/1999/xlink" x="0px" y="0px" width="331.1px"
	 height="331.1px" viewBox="0 0 331.1 331.1" style="overflow:visible;enable-background:new 0 0 331.1 331.1;"
	 xml:space="preserve">
<style type="text/css">
	.st0{clip-path:url(#SVGID_2_);fill:none;}
	.st1{fill:#F5F4EF;}
	.st2{fill:none;}
	.st3{fill:#C91D42;}
	.st4{fill:#1E3476;}
	.st5{fill:#FFFFFF;}
	.st6{fill:#595959;}
	.st7{fill:#1F2E7A;}
	.st8{fill:#0D0D0D;}
	.st9{fill:#D9D9D9;}
	.st10{fill:#333333;}
	.st11{fill:#2E45B8;}
	.st12{fill:#B3B3B3;}
	.st13{fill:#141F52;}
	.st14{fill:#1A1A1A;}
	.st15{clip-path:url(#SVGID_4_);fill:none;}
</style>
<defs>
</defs>
<g>
	<g>
		<defs>
			<circle id="SVGID_1_" cx="165.5" cy="165.5" r="165.5"/>
		</defs>
		<clipPath id="SVGID_2_">
			<use xlink:href="#SVGID_1_"  style="overflow:visible;"/>
		</clipPath>
		<rect x="165.5" y="0" class="st0" width="165.5" height="331.1"/>
	</g>
	<path class="st1" d="M157.6,10.8c-5.2,7.5-1.5,10.9,2.1,14.5c8,8.1,8.1,9.6,2.9,19.6c-1.9,3.6-3.8,7.3-5.9,11.4
		c7.5,3.8,11.7-0.7,15.6-4.2c5.6-5.1,11.9-8.1,19.3-8.9c9.7-1,14.2,2.1,17.7,11.3c1,2.7,3.4,5.8,6,6.9c6.7,2.9,12.8,5.7,12.5,14.4
		c-0.4,9.2-2.4,17.8-11.4,22.6c-4.9,2.6-10.3,4.3-15.1,7.1c-7.3,4.2-14.9,8.3-21.2,13.8c-14,12.4-39.8,14.4-54.4,3.3
		c-4.9-3.7-11.8-3.4-15.1,0.7c-3.1,3.9-1.1,9.2,4.6,13.1c7,4.8,14,9.5,20.7,14.6c8.8,6.7,18,5.5,26.1-2.1c3.1-3,8.7-4.6,13.2-4.6
		c10.8-0.2,18.4-3.4,21-15c0.6-2.6,3.8-5.7,6.6-6.7c8.9-3.3,17.9-6.6,27.1-8.2c7.3-1.3,15.1-0.5,22.6,0c9.7,0.6,11.7,3.4,13.3,13.1
		c0.6,3.3,3.4,7,6.3,9c4.5,3.2,10,4.9,14.9,7.6c10.1,5.4,13.8,12.5,11.1,23.7c-4.7,19.4-18.6,30.4-36.5,36.8
		c-7,2.5-14.7,3.2-22.2,4.5c-5.6,1-10.1,2.7-10.8,9.3c-0.7,6-5,8.2-10.4,8.5c-11.1,0.6-22.3,1.7-33.5,1.4
		c-11-0.2-20.7-3.5-24.7-15.8c-1.6-5.1-5.8-7.6-11.3-8.2c-13.1-1.4-25.6-4.1-37.7-10.5c-10.1-5.3-23.5,0-29.5,9.3
		c-4.5,6.9-4.1,15.4,0.9,21.1c4.5,5.1,13,6.8,19.9,2.5c6.9-4.3,14-8.8,21.7-4.5c8.2,4.6,16,10.3,22.5,17c2.6,2.6,1.9,9.2,1.5,13.9
		c-0.6,8.3,0.6,11.1,8.8,11.9c7.5,0.7,15.1,0,22.6-0.2c11.2-0.4,15.5,5.5,11.9,16.2c-2.6,7.7-8.2,12.5-14.6,16.8
		c-4.5,3.1-8.8,6.5-5.4,13.2c-5.6-2.6-6.7-6.9-4.6-12.3c1-2.4,2.8-4.4,4-6.8c2.7-5.4,1.4-7.9-4.6-8.6c-5.5-0.7-11.2-0.6-16.6-1.7
		c-14.4-2.8-19.4-9.4-18.9-23.8c0.5-11.5-1.2-13.5-12.2-16.5c-9.8-2.6-18.8-0.2-28,2.9c-9.3,3.1-18.4,7-28.7,4.4
		c-7.8-2-14-4.9-16.9-13.2c-1.3-3.6-4-6.8-6-10.2c-4.1-7.1-5.3-14.6-3.3-22.8c6.4-26.5,38.8-41,62.3-27.9c6.3,3.5,12.6,7.1,19,10.4
		c9,4.6,18.5,6.4,28.6,5.9c8.8-0.5,17,1.3,23.9,7.3c1,0.9,2.1,1.7,3.3,2.1c24.3,7.5,48.1,7.6,69.9-7.1c10.6-7.1,14-21.8,9.5-33.8
		c-3.6-9.4-11-13.6-20.7-14.1c-20.6-0.9-39.8,3.8-57.3,14.9c-3.1,1.9-6.1,3.9-8.9,6.2c-8.9,7.5-17.9,11-29.8,5.8
		c-6.3-2.8-14.1-2.6-21.3-2.9c-5.3-0.2-8.6-1.9-11.1-6.5c-7.9-14.7-20.6-21.5-37-21.9c-5.6-0.1-11.2-0.8-16.7-1
		c-6-0.2-9.4-3.4-9.8-8.9c-0.4-4.8-0.3-10,1.2-14.4C51.1,86.7,90.8,72,118,88c3.1,1.8,5.1,5.5,7.3,8.5c1.6,2,2.2,5.2,4.2,6.5
		c11.5,7.6,24.6,11.5,38.1,11.5c9.5,0,13.1-8.9,15.6-17c2.7-8.7,0.1-16.5-6.5-21.1c-7.9-5.6-16.5-6.1-25.3-2.5
		c-3.6,1.5-7.2,3.2-10.7,4.9c-4.5,2.2-8.2,1.4-11.2-2.8c-3-4.2-3.5-7.7,0.3-12.3c5.6-6.9,10.6-13.7,19.2-17.7
		c8.1-3.8,8.4-9.6,3.1-19.2C147.8,19.5,148.1,18.5,157.6,10.8z"/>
	<g>
		<circle class="st2" cx="165.5" cy="165.5" r="108.6"/>
		<line class="st2" x1="57" y1="165.5" x2="75.8" y2="165.5"/>
		<line class="st2" x1="255.3" y1="165.5" x2="274.1" y2="165.5"/>
		<line class="st2" x1="165.5" y1="57" x2="165.5" y2="75.8"/>
		<line class="st2" x1="165.5" y1="255.3" x2="165.5" y2="274.1"/>
	</g>
	<g>
		<path class="st3" d="M258.2,69c-18-12-42.2-7.1-54.2,10.8c-6,9-3.6,21.1,5.4,27.1c9,6,21.1,3.6,27.1-5.4c6-9,18.1-11.4,27.1-5.4
			c9,6,11.4,18.1,5.4,27.1C281,105.2,276.2,81,258.2,69"/>
		<path class="st4" d="M204,79.8c-6,9-3.6,21.1,5.4,27.1c9,6,21.1,3.6,27.1-5.4c6-9,18.1-11.4,27.1-5.4c9,6,11.4,18.1,5.4,27.1
			c-12,18-36.2,22.8-54.2,10.8S192,97.8,204,79.8"/>
	</g>
	<g>
		<path class="st5" d="M95.9,62.4c21.6,0,39.1,17.5,39.1,39.1s-17.5,39.1-39.1,39.1s-39.1-17.5-39.1-39.1S74.3,62.4,95.9,62.4"/>
		<polygon class="st3" points="95.9,63.6 104.4,89.8 131.9,89.8 109.7,106 118.1,132.1 95.9,116 73.6,132.1 82.1,106 59.9,89.8 
			87.4,89.8 		"/>
	</g>
	<g>
		
			<rect x="182.1" y="196.6" transform="matrix(-1 -6.252655e-11 6.252655e-11 -1 377.8492 410.7072)" class="st6" width="13.7" height="17.6"/>
		<rect x="136.7" y="196.6" class="st7" width="13.7" height="17.6"/>
		<path class="st8" d="M123.7,136.8l3,24.3l4.3,14.3l-3.8,1.1l-8.3,0.7l-5.6-6c0,0-1.9-8.7,0-13.9S118.7,139.1,123.7,136.8z"/>
		<path class="st8" d="M208.8,136.8l-3,24.3l-4.3,14.3l3.8,1.1l8.3,0.7l5.6-6c0,0,1.9-8.7,0-13.9S213.8,139.1,208.8,136.8z"/>
		<path class="st9" d="M129.5,157.2L129.5,157.2c-2.8,0-5.1-2.3-5.1-5.1v-5.8c0-2.8,2.3-5.1,5.1-5.1l0,0c2.8,0,5.1,2.3,5.1,5.1v5.8
			C134.6,154.9,132.3,157.2,129.5,157.2z"/>
		<path class="st9" d="M125.4,136.9l2.6,28.5c0.1,3.6,2.9,7.7,4.6,10.8l4.9,8.9l3,2.5l16.9,4.4l9,1.1v-62.7l-35.8,3.2L125.4,136.9z"
			/>
		<path class="st9" d="M207,136.9l-2.6,28.5c-0.1,3.6-2.9,7.7-4.6,10.8l-4.9,8.9l-3,2.5l-16.9,4.4l-9,1.1v-62.7l35.8,3.2L207,136.9z
			"/>
		<path class="st6" d="M125.4,150.5c0,0,4.3-13.7,40.8-13.7c0-6.3,0-8.1,0-8.1l-35.8,5.1l-6.7,3.1L125.4,150.5z"/>
		<path class="st6" d="M206.9,150.5c0,0-4.3-13.7-40.8-13.7c0-6.3,0-8.1,0-8.1l35.8,5.1l6.7,3.1L206.9,150.5z"/>
		<rect x="141.3" y="182.9" class="st9" width="49.9" height="43.1"/>
		<path class="st6" d="M141.3,190.6c0,0,8.1,10.9,24.9,10.9s25-10.9,25-10.9v-3l-22.3,4.3h-8.4l-19.3-5.4L141.3,190.6z"/>
		<g>
			<path class="st10" d="M126.6,138.3c0.1,6.4,0.7,13,1.6,19.4c0.5,3.2,1.1,6.4,1.9,9.5c0.8,3.1,1.8,6.2,3.1,9
				c0.7,1.4,1.4,2.7,2.3,3.9l0.7,0.9l0.8,0.8c0.5,0.5,1.1,1.1,1.7,1.6c2.3,2,5.1,3.4,8,4.5c6,2,12.5,2.6,19,2.7v3.1
				c-6.7,0-13.5-0.3-20.1-2.5c-3.3-1.1-6.5-2.7-9.2-5c-0.7-0.5-1.3-1.2-2-1.8l-0.9-0.9c-0.3-0.3-0.6-0.7-0.9-1c-1.1-1.4-2-3-2.8-4.5
				c-1.5-3.1-2.6-6.4-3.5-9.6c-0.9-3.3-1.6-6.6-2.1-9.9c-1.1-6.6-1.7-13.2-2-20L126.6,138.3z"/>
		</g>
		<path class="st11" d="M166.2,81.3c0,0-20.5-0.5-33.9,12.8c-6.5,6.1-16.1,23.2-16,51.4c2.4-3.5,7.4-8.8,7.4-8.8l16.4-5l26.2-0.2
			V81.3z"/>
		<g>
			<path class="st10" d="M210.3,138.4c-0.3,6.7-0.9,13.3-2,19.9c-0.6,3.3-1.2,6.6-2.1,9.8c-0.9,3.2-2,6.5-3.6,9.6
				c-0.8,1.5-1.7,3.1-2.9,4.5c-1.2,1.4-2.4,2.6-3.8,3.7c-2.7,2.2-5.9,3.8-9.2,4.9c-6.6,2.1-13.3,2.4-20,2.4V190
				c6.4-0.1,13-0.6,18.9-2.6c1.5-0.5,2.9-1.1,4.2-1.9c1.4-0.7,2.6-1.6,3.8-2.6c1.2-1,2.3-2.1,3.2-3.2c0.9-1.2,1.7-2.5,2.4-3.8
				c1.3-2.8,2.3-5.8,3.1-8.9c0.8-3.1,1.4-6.3,1.9-9.4c0.9-6.4,1.5-12.9,1.6-19.3L210.3,138.4z"/>
		</g>
		<path class="st12" d="M166.2,81.3c0,0,20.5-0.5,33.9,12.8c6.5,6.1,16.1,23.2,16,51.4c-2.4-3.5-7.4-8.8-7.4-8.8l-16.4-5l-26.2-0.2
			V81.3z"/>
		<path class="st7" d="M166.2,224c-14.8-4.6-25.9-16.2-29.6-27.4L128,210c0,0-40.6,11.6-61,24.8c-5.1,3.3-9,8.1-11.2,13.7
			c-3.2,8-7.8,34.1-11.5,67.2h121.9L166.2,224z"/>
		<rect x="159.7" y="224" class="st13" width="6.7" height="91.7"/>
		<path class="st7" d="M166.2,134.1c0,0-17,0.1-27.7,1.6c-10.7,1.5-16.2,2.6-19.9,13c-3.7,10.3-4.6,17.3-4,21.4
			c0.7,3.7,4.3,8.1,14.2,5.5c0.1,0.2,0.3,0.7,0.3,0.7s-5.9,2.1-10.9,1.3c-5-0.7-6.6-4-6.9-7.7s0.3-16.5,4.6-28.3
			c1.1-3,5.3-11.1,15.8-12.8c10.5-1.7,13.9-2.4,34.5-2.8C166.2,128.1,166.2,134.1,166.2,134.1z"/>
		<path class="st6" d="M166.2,134.1c0,0,17,0.1,27.7,1.6c10.7,1.5,16.2,2.6,19.9,13c3.7,10.3,4.6,17.3,4,21.4
			c-0.5,3.7-4.3,8.1-14.2,5.5c-0.1,0.2-0.3,0.7-0.3,0.7s5.9,2.1,10.9,1.3c5-0.7,6.6-4,6.9-7.7c0.3-3.6-0.3-16.5-4.6-28.3
			c-1.1-3-5.3-11.1-15.8-12.8c-10.5-1.7-13.9-2.4-34.5-2.8C166.2,128.1,166.2,134.1,166.2,134.1z"/>
		<g>
			<path class="st14" d="M174.2,195.9c-5.3,0.6-10.6,0.6-15.9,0c-2.7-0.3-4.5-2.6-4.1-5c0-0.3,0.1-0.6,0.1-0.8
				c0.1-0.8,0.9-1.3,1.7-1.2c6.8,1,13.6,1,20.4,0c0.8-0.1,1.6,0.4,1.7,1.2c0,0.3,0.1,0.6,0.1,0.8
				C178.7,193.2,176.9,195.6,174.2,195.9z"/>
		</g>
		<path class="st11" d="M128,210c0,0,7,23.6,20.2,33.8c4.3-6.3,10.4-14.5,18-19.8c0,0-16.8-7.4-29.6-27.4
			C135.7,198.1,128,210,128,210z"/>
		<path class="st6" d="M166.2,224c14.8-4.6,24.9-17.5,29.6-27.4l8.6,13.4c0,0,40.6,11.6,61,24.8c5.1,3.3,9,8.1,11.2,13.7
			c3.2,8,7.8,34.1,11.5,67.2H166.2L166.2,224z"/>
		<rect x="166.2" y="224" class="st10" width="6.7" height="91.7"/>
		<path class="st12" d="M204.4,210c0,0-7,23.6-20.2,33.8c-4.3-6.3-10.4-14.5-18-19.8c0,0,15.3-7,29.6-27.4
			C196.8,198.1,204.4,210,204.4,210z"/>
		<g>
			<path class="st13" d="M140.1,261.7H98.4c-1,0-1.7,0.8-1.7,1.7v33.4c0,0.5,0.2,0.9,0.5,1.2l3.9,3.9c0.3,0.3,0.8,0.5,1.2,0.5h33.8
				c0.5,0,0.9-0.2,1.2-0.5l3.9-3.9c0.3-0.3,0.5-0.8,0.5-1.2v-33.4C141.8,262.5,141,261.7,140.1,261.7z"/>
			<g>
				<path class="st13" d="M102.3,277.3c-0.6,0-1.2-0.2-1.6-0.7l-3.9-3.9c-0.4-0.4-0.7-1-0.7-1.6v-7.7c0-1.2,1-2.2,2.2-2.2h41.7
					c1.2,0,2.2,1,2.2,2.2v7.7c0,0.6-0.2,1.2-0.7,1.6l-3.9,3.9c-0.4,0.4-1,0.7-1.6,0.7H102.3z"/>
				<path class="st7" d="M140.1,261.7c1,0,1.7,0.8,1.7,1.7v7.7c0,0.5-0.2,0.9-0.5,1.2l-3.9,3.9c-0.3,0.3-0.8,0.5-1.2,0.5h-33.8
					c-0.5,0-0.9-0.2-1.2-0.5l-3.9-3.9c-0.3-0.3-0.5-0.8-0.5-1.2v-7.7c0-1,0.8-1.7,1.7-1.7H140.1 M140.1,260.7H98.4
					c-1.5,0-2.8,1.2-2.8,2.8v7.7c0,0.7,0.3,1.4,0.8,1.9l3.9,3.9c0.5,0.5,1.2,0.8,1.9,0.8h33.8c0.7,0,1.4-0.3,1.9-0.8l3.9-3.9
					c0.5-0.5,0.8-1.2,0.8-1.9v-7.7C142.8,261.9,141.6,260.7,140.1,260.7L140.1,260.7z"/>
			</g>
		</g>
		<g>
			<path class="st10" d="M233.9,261.7h-41.7c-1,0-1.7,0.8-1.7,1.7v33.4c0,0.5,0.2,0.9,0.5,1.2l3.9,3.9c0.3,0.3,0.8,0.5,1.2,0.5h33.8
				c0.5,0,0.9-0.2,1.2-0.5l3.9-3.9c0.3-0.3,0.5-0.8,0.5-1.2v-33.4C235.6,262.5,234.8,261.7,233.9,261.7z"/>
			<g>
				<path class="st10" d="M196.1,277.3c-0.6,0-1.2-0.2-1.6-0.7l-3.9-3.9c-0.4-0.4-0.7-1-0.7-1.6v-7.7c0-1.2,1-2.2,2.2-2.2h41.7
					c1.2,0,2.2,1,2.2,2.2v7.7c0,0.6-0.2,1.2-0.7,1.6l-3.9,3.9c-0.4,0.4-1,0.7-1.6,0.7H196.1z"/>
				<path class="st6" d="M233.9,261.7c1,0,1.7,0.8,1.7,1.7v7.7c0,0.5-0.2,0.9-0.5,1.2l-3.9,3.9c-0.3,0.3-0.8,0.5-1.2,0.5h-33.8
					c-0.5,0-0.9-0.2-1.2-0.5l-3.9-3.9c-0.3-0.3-0.5-0.8-0.5-1.2v-7.7c0-1,0.8-1.7,1.7-1.7H233.9 M233.9,260.7h-41.7
					c-1.5,0-2.8,1.2-2.8,2.8v7.7c0,0.7,0.3,1.4,0.8,1.9l3.9,3.9c0.5,0.5,1.2,0.8,1.9,0.8h33.8c0.7,0,1.4-0.3,1.9-0.8l3.9-3.9
					c0.5-0.5,0.8-1.2,0.8-1.9v-7.7C236.6,261.9,235.4,260.7,233.9,260.7L233.9,260.7z"/>
			</g>
		</g>
		<rect x="44.3" y="315.7" class="st5" width="243.8" height="15.4"/>
	</g>
</g>
</svg>
