<!-- Generator: Adobe Illustrator 24.2.3, SVG Export Plug-In  -->
<svg version="1.1" xmlns="http://www.w3.org/2000/svg" xmlns:xlink="http://www.w3.org/1999/xlink" x="0px" y="0px" width="123.1px"
	 height="106.7px" viewBox="0 0 123.1 106.7" style="overflow:visible;enable-background:new 0 0 123.1 106.7;"
	 xml:space="preserve">
<style type="text/css">
	.st0{fill:#F5F4EF;}
	.st1{fill:#D9D9D9;}
	.st2{fill:#F2F2F2;}
	.st3{fill:#FFFFFF;}
	.st4{fill:#141F52;}
	.st5{fill:#2E45B8;}
	.st6{clip-path:url(#SVGID_6_);fill:#C91D42;}
	.st7{clip-path:url(#SVGID_6_);fill:#141F52;}
	.st8{clip-path:url(#SVGID_7_);fill:#C91D42;}
	.st9{clip-path:url(#SVGID_7_);fill:#141F52;}
	.st10{clip-path:url(#SVGID_8_);fill:#141F52;}
	.st11{clip-path:url(#SVGID_8_);fill:#C91D42;}
	.st12{fill:#475ED1;}
	.st13{clip-path:url(#SVGID_9_);fill:#C91D42;}
	.st14{clip-path:url(#SVGID_9_);fill:#141F52;}
	.st15{fill:#C91D42;}
	.st16{clip-path:url(#SVGID_10_);fill:#C91D42;}
	.st17{clip-path:url(#SVGID_10_);fill:#141F52;}
	.st18{clip-path:url(#SVGID_12_);fill:#C91D42;}
	.st19{clip-path:url(#SVGID_12_);fill:#141F52;}
	.st20{clip-path:url(#SVGID_14_);fill:#C91D42;}
	.st21{clip-path:url(#SVGID_14_);fill:#141F52;}
	.st22{clip-path:url(#SVGID_16_);fill:#141F52;}
	.st23{clip-path:url(#SVGID_16_);fill:#C91D42;}
	.st24{clip-path:url(#SVGID_18_);fill:#C91D42;}
	.st25{clip-path:url(#SVGID_18_);fill:#141F52;}
	.st26{clip-path:url(#SVGID_20_);fill:#C91D42;}
	.st27{clip-path:url(#SVGID_20_);fill:#141F52;}
</style>
<defs>
</defs>
<g>
	<g>
		<g>
			<polygon class="st0" points="57.1,21.7 52.5,0 58.6,21.3 			"/>
		</g>
		<g>
			<polygon class="st0" points="25,30.3 10.1,20.6 25.8,29 			"/>
		</g>
		<g>
			<polygon class="st0" points="75.1,21.7 80.2,8.2 76.6,22.2 			"/>
		</g>
		<g>
			<polygon class="st0" points="83.3,24.5 97.4,7 84.5,25.4 			"/>
		</g>
		<g>
			<polygon class="st0" points="90.6,30.8 101.4,22.8 91.6,32 			"/>
		</g>
		<g>
			<polygon class="st0" points="66.4,24.2 66.8,10.8 68,24.2 			"/>
		</g>
		<g>
			<polygon class="st0" points="97.9,46.5 115.7,44.7 98.1,48.1 			"/>
		</g>
		<g>
			<polygon class="st0" points="99.3,36.9 115.8,30 99.9,38.3 			"/>
		</g>
		<g>
			<polygon class="st0" points="90.5,71.5 105.8,84 89.6,72.7 			"/>
		</g>
		<g>
			<polygon class="st0" points="98.9,65.4 114.9,73.4 98.2,66.8 			"/>
		</g>
		<g>
			<polygon class="st0" points="107.7,57.5 123.1,59.5 107.5,59.4 			"/>
		</g>
		<g>
			<polygon class="st0" points="29.1,55.6 11.3,55.9 29.1,54 			"/>
		</g>
		<g>
			<polygon class="st0" points="47.5,77 34.1,91.5 46.3,75.9 			"/>
		</g>
		<g>
			<polygon class="st0" points="38.5,63.4 21.6,69.2 38,61.9 			"/>
		</g>
		<g>
			<polygon class="st0" points="33,46.8 16.1,41.1 33.5,45.3 			"/>
		</g>
		<g>
			<polygon class="st0" points="53.1,80.4 44.9,99.5 51.6,79.8 			"/>
		</g>
		<g>
			<polygon class="st0" points="61.6,80.7 58.3,98.3 60.1,80.5 			"/>
		</g>
		<g>
			<polygon class="st0" points="53.6,31.7 47.5,14.9 55.1,31.1 			"/>
		</g>
		<g>
			<polygon class="st0" points="38.5,28.7 26.2,14 39.7,27.7 			"/>
		</g>
		<g>
			<polygon class="st0" points="40.6,71.1 21.7,82.6 39.5,69.5 			"/>
		</g>
		<g>
			<polygon class="st0" points="70,82.4 71.9,106.7 68.1,82.6 			"/>
		</g>
		<g>
			<polygon class="st0" points="86.2,79.3 98.7,97.4 84.7,80.4 			"/>
		</g>
	</g>
	<g>
		<circle class="st1" cx="38.2" cy="35" r="9"/>
		<circle class="st1" cx="44.1" cy="32.5" r="9"/>
		<circle class="st1" cx="53.3" cy="33.2" r="9"/>
		<circle class="st1" cx="31.9" cy="53.8" r="7.7"/>
		<circle class="st1" cx="40.7" cy="68.1" r="7.7"/>
		<circle class="st1" cx="58.4" cy="75.4" r="9.5"/>
		<circle class="st1" cx="71.2" cy="74.5" r="9.5"/>
		<circle class="st1" cx="103.7" cy="57.1" r="5.1"/>
		<circle class="st1" cx="29.7" cy="38.3" r="5.1"/>
		<circle class="st1" cx="31.8" cy="45" r="5.1"/>
		<circle class="st1" cx="34.4" cy="60.4" r="5.1"/>
		<circle class="st1" cx="49" cy="73.1" r="5.1"/>
		<circle class="st1" cx="82.3" cy="77" r="5.1"/>
		<circle class="st1" cx="86" cy="70.6" r="5.1"/>
		<circle class="st1" cx="81.2" cy="26.3" r="5.1"/>
		<circle class="st1" cx="87.3" cy="28.4" r="5.1"/>
		<circle class="st1" cx="93.6" cy="32.5" r="5.1"/>
		<circle class="st1" cx="57" cy="25" r="5.1"/>
		<circle class="st1" cx="62" cy="24.8" r="5.1"/>
		<circle class="st1" cx="95.3" cy="64.5" r="9.5"/>
		<circle class="st1" cx="98.5" cy="39.1" r="9.5"/>
		<circle class="st1" cx="96.8" cy="51.6" r="9.5"/>
		<circle class="st1" cx="71.6" cy="28.6" r="9.5"/>
	</g>
	<g>
		<circle class="st2" cx="67.6" cy="69.9" r="11.6"/>
		<circle class="st2" cx="79.9" cy="63.8" r="11.6"/>
		<circle class="st2" cx="54.3" cy="67.1" r="9.9"/>
		<circle class="st2" cx="45.3" cy="55.4" r="11.5"/>
		<circle class="st2" cx="94.1" cy="66.5" r="5.2"/>
		<circle class="st2" cx="98.8" cy="65.4" r="4"/>
		<circle class="st2" cx="99.7" cy="37.4" r="5.2"/>
		<circle class="st2" cx="95.5" cy="36.4" r="5.2"/>
		<circle class="st2" cx="99" cy="42.8" r="5.2"/>
		<circle class="st2" cx="93.1" cy="43.6" r="5.2"/>
		<circle class="st2" cx="60.3" cy="77.4" r="5.2"/>
		<circle class="st2" cx="38.6" cy="35.4" r="5.2"/>
		<circle class="st2" cx="40" cy="49" r="8.5"/>
		<circle class="st2" cx="39.5" cy="38.2" r="7.1"/>
		<circle class="st2" cx="46" cy="35" r="8.6"/>
		<circle class="st2" cx="69.4" cy="34.5" r="11.6"/>
		<circle class="st2" cx="58.5" cy="39.6" r="11.6"/>
		<circle class="st2" cx="84.9" cy="35.5" r="10.1"/>
		<circle class="st2" cx="94" cy="56.9" r="10.4"/>
	</g>
	<g>
		<circle class="st3" cx="68.7" cy="66.2" r="6.6"/>
		<circle class="st3" cx="48.3" cy="37.3" r="4.2"/>
		<circle class="st3" cx="51.9" cy="37.6" r="4.1"/>
		<circle class="st3" cx="74.5" cy="63.3" r="6.6"/>
		<circle class="st3" cx="81.1" cy="61" r="6.6"/>
		<circle class="st3" cx="62.9" cy="38.5" r="6.6"/>
		<circle class="st3" cx="46.1" cy="50.2" r="6.6"/>
		<circle class="st3" cx="53.7" cy="63.8" r="4.4"/>
		<circle class="st3" cx="51" cy="57.5" r="5.4"/>
		<circle class="st3" cx="82.7" cy="40.4" r="6.4"/>
		<circle class="st3" cx="78.4" cy="37.2" r="6.4"/>
		<circle class="st3" cx="90.8" cy="59.5" r="3.6"/>
		<circle class="st3" cx="88.8" cy="61.6" r="5.1"/>
		<circle class="st3" cx="56.1" cy="37" r="3.6"/>
		<circle class="st3" cx="42.7" cy="44.1" r="3.6"/>
		<circle class="st3" cx="57.9" cy="65.5" r="3.6"/>
		<circle class="st3" cx="62" cy="64.8" r="3.6"/>
		<circle class="st3" cx="43.5" cy="40.8" r="3.6"/>
		<circle class="st3" cx="68.1" cy="35.7" r="3.6"/>
		<circle class="st3" cx="72.7" cy="33.6" r="3.6"/>
		<circle class="st3" cx="92.6" cy="56.5" r="3.6"/>
		<circle class="st3" cx="90.6" cy="52.1" r="3.6"/>
		<circle class="st3" cx="87.7" cy="47.3" r="3.6"/>
		<circle class="st3" cx="87.7" cy="43.9" r="3.6"/>
		<path class="st3" d="M44,36.3l-0.3,7.6c0,0,6.8,14.2,7.1,14.4c0.3,0.2,5.5,6,5.5,6l16.5,1.4l17.8-8.4l-0.2-4.3l-6.3-12.2L72.3,35
			l-13.1,3.9L44,36.3z"/>
	</g>
	<path class="st2" d="M77.8,64.2c-0.3,2.3-1.5,4-3.7,4.7c-2.2,0.7-4.1-0.2-5.7-1.7c-0.1,0.3,0.6,1.3,1.1,1.7c2,1.5,4.2,1.7,6.3,0.3
		C77.5,68,78.2,66.2,77.8,64.2z"/>
	<path class="st2" d="M48.3,42.4c-0.2-2.3,0.5-4.2,2.5-5.4c2-1.2,4-0.8,5.9,0.4c0-0.3-0.9-1.2-1.5-1.4c-2.3-1-4.5-0.7-6.2,1.2
		C47.7,38.6,47.4,40.5,48.3,42.4z"/>
	<path class="st2" d="M75.4,38.8c1.9-1.3,3.9-1.6,5.9-0.5c2,1.1,2.6,3.1,2.6,5.3c0.3-0.2,0.5-1.4,0.5-1.9c-0.3-2.5-1.6-4.2-4.1-4.8
		C78.4,36.4,76.6,37.1,75.4,38.8z"/>
</g>
<g>
	<ellipse transform="matrix(0.1068 -0.9943 0.9943 0.1068 14.5626 151.2076)" class="st4" cx="91.4" cy="67.5" rx="5.3" ry="10.8"/>
	<ellipse transform="matrix(0.1068 -0.9943 0.9943 0.1068 15.7322 150.1568)" class="st5" cx="91.4" cy="66.3" rx="5" ry="10"/>
	<path class="st4" d="M107.7,41c0,0,0.6,0,1-0.2c-0.1,0.3-0.2,1.6-0.2,1.9c0,0.3,0.2,3.8,0.2,3.8s-0.5,0.2-1,0
		c0-0.2,0.2-3.7,0.2-3.8C107.9,42.5,107.7,41.2,107.7,41z"/>
	<path class="st4" d="M108.4,39c0,0,0.8-0.2,1.1-0.5c0.6-0.6,1.9-2.3,1.9-2.3s0.8,0.1,1.3,0.5c-0.2,0.3-2.5,2.1-2.7,2.3
		c-0.2,0.2-0.5,1-0.5,1L108.4,39z"/>
	<g>
		<g>
			<defs>
				<path id="SVGID_5_" d="M84.4,35.7c0,0,0.1-0.4,0.8-1c-0.1-0.4-0.2-0.5-0.2-0.7c0-0.3,0.3-0.8,1-0.8c0.7,0,3.4-0.2,8.9,0.8
					c2.2,0.3,4.4,0.8,5.3,0.9c0.9,0.1,5.8,0.4,6.9,2c0.1,0.3,0.2,0.7,0,0.9c0.4,0.2,2.1,1.2,3.4,2.9c0.1,0.2,0,0.4-0.2,0.5
					s-5.2,2.7-15-0.8C90.3,38.9,84.4,35.7,84.4,35.7z"/>
			</defs>
			<use xlink:href="#SVGID_5_"  style="overflow:visible;fill:#2E45B8;"/>
			<clipPath id="SVGID_6_">
				<use xlink:href="#SVGID_5_"  style="overflow:visible;"/>
			</clipPath>
			<path class="st6" d="M107.5,38c0,0-2.1,1.2-1.1,4c3.2-0.2,4.6-0.2,4.6-0.2l-0.2-3.9L107.5,38z"/>
			<path class="st7" d="M107,36.8c0,0-0.4-0.2-0.7,0c-0.3,0.2-0.4,0.9-0.4,1.4c0,0.2,0.1,0.2,0.2,0.1s0.4-0.7,1-0.6
				c0.4,0,0.5,0,0.5,0l0-0.9L107,36.8z"/>
		</g>
	</g>
	<path class="st4" d="M74.2,41.7c0.3,0,10.2-6.1,10.2-6.1s8.8,0.5,12.8,2.9c0.9,0.6,1.1,1.7,0.2,1.7s-1.3-0.3-1.9,0.2
		c-0.5,0.5-4.8,5.2-4.8,5.2L74.2,41.7z"/>
	<path class="st4" d="M88.1,33.4c0.1,0,12-8.3,12-8.3s-0.2-1,0.8-0.9s4.5,0.5,7.2,2c0.6,0.3,0.6,1,0.1,1.1c-0.5,0.5-7.6,7.8-7.6,7.8
		L88.1,33.4z"/>
	<path class="st4" d="M96.7,50.4c0,0,0.6,0,1-0.2c-0.1,0.3-0.2,1.6-0.2,1.9c0,0.3,0.2,3.8,0.2,3.8s-0.5,0.2-1,0
		c0-0.2,0.2-3.7,0.2-3.8C96.9,51.9,96.7,50.7,96.7,50.4z"/>
	<path class="st4" d="M97.4,48.4c0,0,0.8-0.2,1.1-0.5c0.6-0.6,1.9-2.3,1.9-2.3s0.8,0.1,1.3,0.5c-0.2,0.3-2.5,2.1-2.7,2.3
		c-0.2,0.2-0.5,1-0.5,1L97.4,48.4z"/>
	<g>
		<g>
			<defs>
				<path id="SVGID_4_" d="M71.3,44l-0.8,0l0-0.4c0,0,0.9,0,1.7-0.6c-0.1-0.4-0.2-0.5-0.2-0.7c0-0.3,0.3-0.8,1.2-0.8s3.8,0,9.7,1.2
					c2.4,0.4,4.8,1,5.8,1.1s6.3,0.7,7.4,2.3c0.2,0.1,0.5,0.7,0.5,1.2c0.4,0.2,1.8,1,3.1,2.8c0.1,0.2,0,0.4-0.2,0.5
					c-0.3,0-5.9,2.5-16.4-1.5C77.7,47.6,71.3,44,71.3,44z"/>
			</defs>
			<use xlink:href="#SVGID_4_"  style="overflow:visible;fill:#2E45B8;"/>
			<clipPath id="SVGID_7_">
				<use xlink:href="#SVGID_4_"  style="overflow:visible;"/>
			</clipPath>
			<path class="st8" d="M96.6,47.4c0,0-2.4,1.2-1.4,4c3.5,0,5,0,5,0l0-4L96.6,47.4z"/>
			<path class="st9" d="M96.1,46.2c0,0-0.5-0.2-0.8,0c-0.3,0.2-0.5,0.9-0.5,1.4c0,0.2,0.1,0.2,0.2,0.1c0.1-0.1,0.7-0.6,1.6-0.5
				c0.4,0,0.1,0,0.1,0l0-0.9L96.1,46.2z"/>
			<path class="st9" d="M71,42.9c0.3,0.2,11.8,2.4,19.8,5.6c1.4,2.2-1,1.8-1,1.8L69.2,45L71,42.9z"/>
		</g>
	</g>
	<path class="st4" d="M95.4,49.9c0,0-0.2,0.9-1.1,1.5c-1,0.7-2.9,2.1-2.9,2.1c0.3,0.6,0.7,0.8,1.8,0.7l2.2-2.5c0,0,0.9-1.1,1.7-1.4
		C96.2,50.2,95.7,50,95.4,49.9z"/>
	<path class="st4" d="M97.7,48.2c0,0-0.6,0-1,0.2c0.1-0.3,0.2-1.6,0.2-1.9c0-0.3-0.2-3.8-0.2-3.8s0.5-0.2,1,0c0,0.2-0.2,3.7-0.2,3.8
		C97.5,46.6,97.6,47.9,97.7,48.2z"/>
	<path class="st4" d="M106.5,40.5c0,0-0.2,0.9-1.1,1.5c-1,0.7-2.9,2.1-2.9,2.1c0.3,0.6,0.7,0.8,1.8,0.7l2.2-2.5c0,0,0.9-1.1,1.7-1.4
		C107.2,40.8,106.7,40.6,106.5,40.5z"/>
	<path class="st4" d="M108.7,38.8c0,0-0.6,0-1,0.2c0.1-0.3,0.2-1.6,0.2-1.9s-0.2-3.8-0.2-3.8s0.5-0.2,1,0c0,0.2-0.2,3.7-0.2,3.8
		C108.5,37.2,108.6,38.5,108.7,38.8z"/>
	<path class="st4" d="M55.1,54.7c-0.5,2-7.6,7.8-13.1,12.6l17.2,3.1l13.7-8.6c0,0,1.1-0.5,1.6-0.5c0.5,0,0.8-0.1,0.8-0.3
		s0-0.9-1.8-1.5C71.8,59,64.5,55.1,55.1,54.7z"/>
	<g>
		<defs>
			<path id="SVGID_3_" d="M7.7,25.1c0,0-0.6,0-0.8,0.5s0,0.8,0.1,1c0.2,0.1,3.7,3.9,6.2,5.6s16.9,12.4,26.2,16.6
				c9.5,4.3,47.9,16.7,47.9,16.7s13.9,5.5,23.7,5.6c2.9,0.2,7.1,0.3,8-1.7s-2.1-6-6.4-9.5c-1.1-1.6-1.5-3.7-10.1-6.4
				s-26.4-8.5-26.4-8.5S27.1,30.5,26.9,30.5C26.6,30.5,12.8,26.5,7.7,25.1z"/>
		</defs>
		<use xlink:href="#SVGID_3_"  style="overflow:visible;fill:#2E45B8;"/>
		<clipPath id="SVGID_8_">
			<use xlink:href="#SVGID_3_"  style="overflow:visible;"/>
		</clipPath>
		<path class="st10" d="M23.7,40.5c0,0,25.8,11.8,72.4,24l1.1,0.2c0,0,8.5,2,14.5-0.5c5.1,1-2.3,7.4-2.3,7.4s-26.3-5.1-58.8-16.8
			C41.9,51.6,28.3,44.8,23.7,40.5z"/>
		<path class="st11" d="M110.3,71.2c0,0-1.1-7.5,4.5-9.3c3-0.1,4.5,0.7,4.5,0.7l1.9,6.2l-2.9,4.1L110.3,71.2z"/>
	</g>
	<path class="st12" d="M104.2,61.9c1,0.1,2,0.1,2.9,0l0.6,1.9c-1.1,0.2-2.4,0.2-3.8,0.1L104.2,61.9z"/>
	<path class="st12" d="M107.6,61.9l0.6,1.8c1.1-0.2,2.2-0.5,3-1.1l-0.9-1.6C109.5,61.4,108.6,61.6,107.6,61.9z"/>
	<path class="st12" d="M110.6,60.8l0.9,1.5c0.3-0.3,0.6-0.6,0.9-0.9l-0.9-1.5C111.2,60.4,111,60.6,110.6,60.8z"/>
	<path class="st12" d="M111.7,58.9c0,0.3,0,0.6,0,0.9l0.9,1.4c0-0.3,0-0.7,0-0.9L111.7,58.9z"/>
	<path class="st12" d="M104.9,59.7c0,0-0.5,1.4-0.6,1.6c0.4,0,1.7,0.1,2.3,0l0.3-0.7C106.2,60.4,105.4,60,104.9,59.7z"/>
	<path class="st4" d="M65,74.6c0,0,0.8-0.3,1.2-0.6c0.7-0.7,2.1-2.6,2.1-2.6s0.9,0.1,1.5,0.6c-0.3,0.3-2.8,2.3-3,2.6
		c-0.2,0.2-0.6,1.2-0.6,1.2L65,74.6z"/>
	<path class="st4" d="M64.3,76.8c0,0,0.7-0.1,1.1-0.3c-0.1,0.3-0.2,1.7-0.2,2.1s0.3,4.2,0.3,4.2s-0.5,0.3-1.1,0c0-0.2,0.2-4,0.2-4.2
		C64.5,78.5,64.3,77.1,64.3,76.8z"/>
	<g>
		<defs>
			<path id="SVGID_2_" d="M39.7,69.4c0,0,0.1-0.4,0.9-1.1c-0.1-0.4-0.2-0.5-0.1-0.8c0-0.3,0.3-0.9,1.1-0.9c0.8,0,3.7,0,9.5,1.4
				c2.3,0.5,4.7,1.1,5.6,1.2c0.9,0.1,6.1,0.8,7.2,2.5c0.1,0.3,0.1,0.8,0,1c0.4,0.2,2.2,1.4,3.5,3.3c0.1,0.2,0,0.5-0.2,0.5
				c-0.2,0-5.7,2.7-16-1.7C45.8,73.3,39.7,69.4,39.7,69.4z"/>
		</defs>
		<use xlink:href="#SVGID_2_"  style="overflow:visible;fill:#2E45B8;"/>
		<clipPath id="SVGID_9_">
			<use xlink:href="#SVGID_2_"  style="overflow:visible;"/>
		</clipPath>
		<path class="st13" d="M64.3,73.2c0,0-2.3,1.2-1.4,4.3c3.4,0,4.9,0,4.9,0v-4.3H64.3z"/>
		<path class="st14" d="M63.8,71.8c0,0-0.5-0.2-0.8,0c-0.3,0.2-0.5,1-0.5,1.5c0,0.2,0.1,0.2,0.2,0.1c0.1-0.1,0.4-0.7,1.1-0.6
			c0.4,0,0.5,0,0.5,0v-1L63.8,71.8z"/>
	</g>
	<path class="st15" d="M25.9,22.8l6.8-5.5c0,0,3.1,0.2,3.7,1.4C36,19.3,29.7,29,29.7,29l-3.4-2.6L25.9,22.8z"/>
	<path class="st4" d="M75.8,69.1c0,0,0.7-0.1,1.1-0.3c-0.1,0.3-0.2,1.7-0.2,2.1c0,0.4,0.3,4.2,0.3,4.2s-0.5,0.3-1.1,0
		c0-0.2,0.2-4,0.2-4.2C76,70.8,75.8,69.4,75.8,69.1z"/>
	<path class="st4" d="M76.5,66.9c0,0,0.8-0.3,1.2-0.6c0.7-0.7,2.1-2.6,2.1-2.6s0.9,0.1,1.5,0.6c-0.3,0.3-2.8,2.3-3,2.6
		c-0.2,0.2-0.6,1.2-0.6,1.2L76.5,66.9z"/>
	<g>
		<g>
			<defs>
				<path id="SVGID_1_" d="M48.6,61.6c0,0,0.1-0.5,0.9-1.2c-0.1-0.5-0.2-0.6-0.2-0.9c0-0.3,0.4-0.9,1.2-0.9c0.9,0,4,0,10.4,1.5
					c2.5,0.5,5.2,1.2,6.2,1.3s6.8,0.8,8,2.8c0.1,0.3,0.2,0.9,0,1.1c0.4,0.3,2.4,1.6,3.9,3.6c0.2,0.3,0,0.5-0.3,0.5
					c-0.3,0-6.3,2.9-17.6-1.8C55.4,65.8,48.6,61.6,48.6,61.6z"/>
			</defs>
			<use xlink:href="#SVGID_1_"  style="overflow:visible;fill:#2E45B8;"/>
			<clipPath id="SVGID_10_">
				<use xlink:href="#SVGID_1_"  style="overflow:visible;"/>
			</clipPath>
			<path class="st16" d="M75.7,65.7c0,0-2.6,1.3-1.5,4.7c3.8,0,5.4,0,5.4,0v-4.7H75.7z"/>
			<path class="st17" d="M75.2,64.3c0,0-0.5-0.2-0.9,0c-0.4,0.2-0.5,1-0.6,1.6c0,0.2,0.1,0.2,0.2,0.1c0.1-0.1,0.5-0.8,1.3-0.6
				c0.4,0,0.6,0,0.6,0v-1L75.2,64.3z"/>
		</g>
	</g>
	<path class="st4" d="M42,34.9c0,0-0.3,0.1-0.6,0.3c-1.5-0.4-20.1-4.4-26.6-7.5c0.4-2.6,2.2-13.6,2.2-13.6s0.5-4.4,3.6-4.1
		c0.7,0.1,1.6,0.3,2.5,3s3.7,10.5,4.8,12.2c1,1.5,2.4,4.7,8.2,7.3C37.5,33.1,39.3,34,42,34.9z"/>
	<path class="st4" d="M40.2,69.3c0,0,9.8,1.2,13.7,4.6c0.5,0.5,0.9,1.7-0.2,1.5c-1.1-0.2-2.1-0.7-2.1-0.7l-14,8c0,0-1.1,0.6-3.4,0
		s-7.3-2.2-7.3-2.2S26,79.1,28,79.4c0.8-0.6,11.6-9.9,11.6-9.9L40.2,69.3z"/>
	<path class="st4" d="M48.5,61.6l0.6-0.1c0,0,11.1,1.8,15.2,5.3c0.6,0.6,0.9,1.8-0.3,1.5c-0.4-0.1-0.9-0.2-1.2-0.3l-0.2,0.2l-6.1-2
		l-7.3-3.9L48.5,61.6z"/>
	<path class="st4" d="M62.9,76.2c0,0-0.2,1-1.2,1.7c-1.1,0.8-3.2,2.4-3.2,2.4c0.3,0.6,0.7,0.9,2,0.8l2.4-2.7c0,0,1-1.2,1.9-1.5
		C63.7,76.5,63.2,76.4,62.9,76.2z"/>
	<path class="st4" d="M65.4,74.3c0,0-0.7,0.1-1.1,0.3c0.1-0.3,0.2-1.7,0.2-2.1c0-0.4-0.3-4.2-0.3-4.2s0.5-0.3,1.1,0
		c0,0.2-0.2,4-0.2,4.2C65.2,72.6,65.3,74,65.4,74.3z"/>
	<path class="st4" d="M74.4,68.5c0,0-0.2,1-1.2,1.7C72.2,71,70,72.6,70,72.6c0.3,0.6,0.7,0.9,2,0.8l2.4-2.7c0,0,1-1.2,1.9-1.5
		C75.2,68.9,74.7,68.7,74.4,68.5z"/>
	<path class="st4" d="M76.9,66.7c0,0-0.7,0.1-1.1,0.3c0.1-0.3,0.2-1.7,0.2-2.1c0-0.4-0.3-4.2-0.3-4.2s0.5-0.3,1.1,0
		c0,0.2-0.2,4-0.2,4.2C76.7,65,76.8,66.4,76.9,66.7z"/>
	<path class="st15" d="M14.4,30.2L0,38.3c0,0,2.3,1.2,3.6,1.4c0.9-0.2,18.6-5.2,18.6-5.2s1,0.1,1.2,0.1s0.5,0,0.7-0.2
		s-0.3-0.6-0.8-0.9C22.8,33.3,16.1,30.4,14.4,30.2z"/>
</g>
</svg>
