<!-- Generator: Adobe Illustrator 24.2.3, SVG Export Plug-In  -->
<svg version="1.1" xmlns="http://www.w3.org/2000/svg" xmlns:xlink="http://www.w3.org/1999/xlink" x="0px" y="0px" width="373.1px"
	 height="241px" viewBox="0 0 373.1 241" style="overflow:visible;enable-background:new 0 0 373.1 241;" xml:space="preserve">
<style type="text/css">
	.st0{fill:#F5F4EF;}
	.st1{fill:#333333;}
	.st2{fill:#E1DFD0;}
	.st3{fill:#141F52;}
	.st4{fill:#595959;}
	.st5{fill:#0D0D0D;}
	.st6{fill:#1F2E7A;}
	.st7{fill:none;}
	.st8{fill:none;stroke:#0D0D0D;stroke-width:3.5672;stroke-linecap:round;stroke-miterlimit:10;}
</style>
<defs>
</defs>
<ellipse class="st0" cx="186.9" cy="180.1" rx="186.2" ry="60.9"/>
<g>
	<path class="st1" d="M329,57.3c-1,0-1.9,0.1-2.9,0.1c-1.7,0.1-3.4,0.3-5.1,0.5c-0.4,0-0.8,0.2-1.2,0.3c-3.4,0.5-6.7,0.9-10.1,1.5
		c-2.1,0.4-4.1,1.1-6.3,1.6c0.1,1.4,0.2,2.6,0.3,3.7c-0.1,0.1-0.2,0.2-0.4,0.2c-0.3-1.2-0.6-2.4-0.9-3.2c-1.2,0.2-2.2,0.3-3.3,0.5
		c-0.2,1.7,1.4,2.2,1.5,4.1c-1.1-0.3-1.5-1.4-1.9-2.4c-0.8-2.4-2.1-2.8-3.8-2.3c-0.4,0.1-0.8,0.2-1.2,0.4c-2.5,1-5,1.8-7.6,1.4
		c-1.3-0.2-2.7,0.4-4,0.7c-1.1,0.2-2.2,0.8-3.2,0.7c-2-0.3-4,0.5-6,0.9c-1.8,0.4-3.6,0.5-5.5,0.8c-0.1,0.4-0.2,0.9-0.4,1.6
		c-0.5-0.4-0.9-0.7-1.3-0.9c-1.1-0.5-2.1-0.6-3,1c-0.7,1.3-1.6,1.5-2.5,1.2c-2.2-0.8-4.1-0.2-5.5,2.9c-0.1,0.1-0.2,0.2-0.3,0.3
		c0,0-0.1,0-0.3-0.1c0.3-0.8,0.5-1.5,0.9-2.4c-0.3-0.2-0.6-0.5-1-0.6c-2.9-0.4-5.8-0.6-8.9,0.8c-1,0.4-2,0.4-3,0.5
		c-1.5,0.3-3,0.5-4.5,0.8c-1.5,0.3-3,0.5-4.5,0.8c-1.8,0.3-3.7,0.5-5.6,0.7c-1.9,0.2-3.7,0.5-5.6,0.6c-1.3,0.1-1.3,0-2.7,1.1
		c0.3,1.1,0.6,2.2,0.9,3.4c-0.1,0.1-0.2,0.2-0.4,0.3c-0.6-1.1-1.3-2.3-2-3.6c-1.4,2.3-2.8,2.4-4.6,1.8c-1.3-0.5-2.9,0-3.9,2.1
		c-0.3,0.5-0.6,0.9-1.2,1.2c0.1-0.7,0.2-1.4,0.4-2.4c-2.7-0.1-5.2-1.7-8-0.3c-3.5,1.7-7,1.5-10.5,1.8c-2,0.1-4,0.6-5.9,1.3
		c-2.7,0.9-5.4,1.3-8,0.9c-1.4-0.2-2.7-0.3-3.9,1.5c-0.2,0.3-0.9,0.2-1.3,0.3c-0.6,0.1-1.3-0.1-1.8,0.3c-2.4,1.9-4.9,3.8-7.7,1.4
		c-0.8,3.2-1.5,6-2.2,8.8c-0.2,0-0.4-0.1-0.6-0.1c0.2-1,0.3-2,0.5-3c1.3-6,0.8-5.2-3-6c-1.1-0.2-2.3,0.2-3.4,0.4
		c-4.7,0.8-9.4,1.7-14.2,2.5c-0.1,0-0.2,0-0.2,0c-3.7,1.8-7.4,1.1-11.1,1.6c-3.4,0.5-6.7,1.1-10.1,1.2c-1.3,0.1-2.6,1.1-3.9,2
		c-2,1.4-3.9,3-6.3,1.5c-0.8,3.1-1.6,6-2.4,8.9c-0.2,0-0.5,0-0.7-0.1c0.1-1,0.2-2.1,0.5-3.1c1.4-5.5,1.4-5.4-2.7-6.2
		c-2-0.4-3.9-0.1-6,0.5c-2.6,0.9-5.3,1-8,1.4c-2.1,0.3-4.1,0.5-6.2,1c-3.2,0.8-6.4,1.5-9.6,1.2c-1.6-0.2-3.4,0.5-5.1,0.7
		c-2.4,0.3-4.8,0.8-7.1,0.8c-3.3,0-6.4,0.5-9.4,3.1c-1.8,1.6-3.9,2.7-5.9,1c-2.3,2.6-1.8,6.5-3.9,9c-0.2-0.1-0.4-0.1-0.6-0.2
		c0.8-2.7,1.5-5.4,2.4-8.3c-3.2-1.5-6.4-1.8-9.9-0.6c-2.9,0.9-5.8,1.7-8.7,2.3c-1.1,0.3-2.3,0.1-3.4,0.2c-2.7,0.3-5.4,0.7-8.1,1.1
		c-3.4,0.5-6.7,1-10.1,1.6c0-1.1,0-2.1,0-3.2c9-1,17.8-1.3,26.6-4.3c1.7-0.6,3.6-0.3,5.4-0.6c1.4-0.2,2.9-0.3,4.3-0.9
		c2-0.7,2-1.2,1.4-3.4c-0.4-1.5-1.4-2.9-0.5-5.1c0.4,1,0.8,1.9,1.1,2.9c1.2,4,1.7,4.1,5.4,2.8c2.1-0.7,4.3-1,6.3-2.2
		c0.2-0.1,0.6,0.1,1.3,0.2c-0.9,0.8-1.5,1.4-2.5,2.3c2.8,0.3,5.2,0.5,7.7-0.1c2.8-0.7,5.6-1,8.4-1.4c0.8-0.1,1.6,0.1,2.4,0
		c5.6-0.7,11.1-1.5,16.6-2.2c1-0.1,1.9-0.5,2.8-0.7c2.7-0.7,5.3-1.5,8-1.5c2.4,0,4.9-1.2,7.4-1.8c0.2-2.7,0.4-4.9,0.6-7
		c0.2,0,0.3,0,0.5-0.1c0.2,0.8,0.4,1.5,0.6,2.4c0.7,0.1,1.4,0.2,2.1,0.4c0.9,0.3,2.1,0.4,2.7,1.1c2.7,3.4,6.1,2.3,9.4,1.4
		c1.4-0.4,2.9-0.4,4.3-0.5c1.9-0.2,3.9-0.3,5.8-0.5c1.6-0.2,3.3-0.7,4.9-0.5c2.3,0.3,4.4-0.3,6.6-1.3c3.4-1.6,6.7-2.3,10.2-1.8
		c2.2,0.3,4.6,0,7-1.9c-0.6-1.9-1.1-3.7-1.7-5.5c0.2-0.1,0.4-0.3,0.6-0.4c0.5,1.1,0.9,2.1,1.4,3.3c1,2.7,1.4,2.9,3.6,1.9
		c1.9-0.8,3.6-0.8,5.6-0.3c2.2,0.6,4.6,0.1,6.9-0.2c3.8-0.5,7.6-1.1,11.4-1.8c3.4-0.6,6.8-1.4,10.2-2.1c0.8-0.2,1.6-0.4,2.4-0.4
		c4.1,0.2,8.1-1.7,12.1-3c1.3-0.5,2-1.3,2.1-3.1c0-0.3,0.2-0.6,0.5-1.4c0.3,1.1,0.6,1.9,0.8,2.8c1.6-1.5,0.2-3.7,1.5-5.3
		c0.1,1.2,0.3,2.1,0.3,3.1c0.1,2.9,1.1,4.2,3.2,3.9c2.1-0.3,4.1-1,6.2-1.3c1.3-0.2,2.5,0,3.8-0.2c1.9-0.2,3.8-0.6,5.7-0.9
		c1.1-0.2,2.3-0.3,3.4-0.5c0.4,0,0.8,0.2,1.1,0c2.4-1.4,4.8-0.9,7.2-1.3c2.8-0.5,5.5-1.7,8.3-2.6c1.3-0.4,2.6-1,4.2-1.7
		c-0.7-1.4-1.2-2.3-1.7-3.3c1.3,0.2,1.9,3.3,3.6,0.8c1.1,2.4,2.7,3.4,4.5,3.5c1.1,0.1,2.3-0.3,3.4-0.5c1.8-0.3,3.6-0.7,5.3-1
		c1.4-0.2,2.7-0.4,4.1-0.6c1.6-0.3,3.2-0.5,4.8-0.8c0.6-0.1,1.3,0,1.9-0.1c3.3-0.5,6.5-1,9.7-1.5c0.8-0.1,1.5-0.5,2.5-0.8
		c-0.6-2.7-2.5-3.4-3.2-5.5c0.1-0.2,0.2-0.3,0.3-0.5c0.9,1.1,1.7,2.3,2.6,3.4c1.5,2,3.8,1.6,5.2-1c0.6-1.1,1.1-2.1,1.7-3.1
		c0.1,0.1,0.2,0.2,0.3,0.3c-0.7,1.7-1.5,3.3-2.2,4.9c0.3,0.3,0.4,0.5,0.4,0.5c3.1-0.8,6.2,0.4,9.2-1.5c0.2-0.1,0.3-0.2,0.5-0.2
		c3.2-0.4,6.3-0.6,9.4-1.1c2.3-0.4,4.6-1.1,6.8-1.6C329,55.4,329,56.4,329,57.3z M207,75.3c2,1.6,3.3,1.1,4.4-1.4
		C209.8,74.3,208.4,74.8,207,75.3z M253.2,67.8c0,0.2,0,0.5,0.1,0.7c1.4,0.1,2.8,0.6,4-1.3c0-0.2-0.1-0.5-0.1-0.7
		C255.9,66.9,254.6,67.3,253.2,67.8z M108.8,87.8c0-0.3,0.1-0.7,0.1-1c-0.7-0.2-1.4-0.6-2.1-0.6c-0.3,0-0.9,0.6-1,1
		c-0.1,0.4,0.4,1.2,0.6,1.2C107.2,88.3,108,88,108.8,87.8z"/>
	<path class="st1" d="M1.9,50.9c1.1-0.3,2.2-0.7,3.5-1c-0.1-0.7-0.1-1.3-0.1-1.8c2,0.6,3.9,1.7,5.8,1.6c2-0.1,4.1-1.2,5.9-1.9
		c0.7-2.7-0.4-5.1,1-7.7c1.2,2.2,0.8,4.4,0.9,6.6c0.1,3.5,0.2,3.6,3.1,3.8c0.9,0,1.9,0.1,2.9-0.1c4.6-0.9,9.1-1.3,13.6-0.3
		c1.2,0.3,2.7-0.4,4-0.6c2.1-0.3,4.2-0.7,6.3-1c2-0.3,4-0.6,6-0.9c2.7-0.4,5.4-0.8,8.1-1.1c1.2-0.2,2.5-0.2,3.7-0.6
		c2-0.6,2.2-1,1.9-3.4c-0.2-1.7-0.5-3.5-0.5-5.3c2,1.8,0.8,5.6,2.6,7.5c2.1-0.7,4.1-1.5,6.3-2.2c0,0.4-0.1,1.2-0.2,2.5
		c2.7,0,5.4,0.3,8.1-0.2c3.6-0.6,7.1-1.8,10.6-0.9c1.1,0.3,2.3,0,3.5-0.1c1.7-0.1,3.4-0.2,5.1-0.2c0.5,0,1.1,0.1,1.6,0
		c4-0.9,8-0.9,11.9-1c2-0.1,2.4-1.1,1.8-3.5c-0.3-1.3-0.6-2.7-0.9-4.1c0-0.1,0.2-0.3,0.5-0.7c0.4,1.1,0.7,2.1,1,3.1
		c0.8,2.7,1,2.9,2.7,2.7c2.4-0.4,2.5-0.5,3.1-3.3c0.1-0.4,0.2-0.7,0.4-1.3c1.4,1.7-0.6,3.9,0.4,5.5c0.1,0.1,0.3,0.3,0.6,0.2
		c4.1-0.3,8.2-0.7,12.3-1c2.9-0.2,5.8-0.1,8.7-0.4c4-0.5,7.9,0.8,11.8-0.7c0.8-0.3,1.7-0.1,2.5-0.1c2.1,0.1,4.2,0.1,6.5-1.6
		c-0.6-2.2-1.1-4.3-1.6-6.4c0.2-0.1,0.3-0.2,0.5-0.3c0.4,1.3,0.9,2.5,1.3,3.8c0.4,1.2,0.6,2.5,2,2.2c2-0.4,2.6-1.1,3.1-3.1
		c0.2-0.9,0.5-1.9,0.8-2.8c0.2,0,0.3,0.1,0.5,0.1c-0.3,2-0.6,4-1,6.3c1.5,0,2.7,0.1,4,0c2.9-0.1,5.7,0.5,8.6-0.6
		c1.5-0.5,3.1,0.1,4.7,0c1.8-0.1,3.5-0.4,5.3-0.6c2-0.2,4-0.2,6-0.4c1.1-0.1,2.3,0.1,3.4-0.3c2-0.8,3.9-1,5.9-0.8
		c0.5,0.1,1-0.1,2-0.2c-0.7-1.5-1.2-2.5-1.7-3.6c0.1-0.1,0.1-0.2,0.2-0.3c0.4,0.5,0.9,1,1.3,1.6c1.9,2.4,4.3,1.4,5.2-2.1
		c0.2-0.9,0.5-1.8,0.7-2.7c0.1,0,0.3,0.1,0.4,0.1c-0.2,1-0.5,2.1-0.7,3.1c-0.2,1.1-0.4,2.2-0.6,3.4c0.5,0.1,0.8,0.2,1,0.1
		c2.5-0.8,4.9-0.3,7.3,0.1c0.8,0.1,1.5,0,2.3-0.1c2.5-0.2,5-0.5,7.4-0.8c1.6-0.2,3.3-0.7,4.9-0.8c1.4-0.1,2.9,0,4.3,0.2
		c2,0.3,3.9-0.3,6.1-1.4c-0.5-1.7-1-3.1-1.5-4.8c1.2,0.6,1.3,1.8,1.7,2.7c0.9,2.1,0.9,2.1,2.6,1.4c1.8-0.8,3.6-1,5.4-0.1
		c0.4,0.2,0.8,0.4,1.2,0.4c3,0,6,0,9-0.1c1.4,0,2.9-0.1,4.3-0.2c0.6,0,1.2-0.1,1.8-0.4c2.6-1.3,5.1-1.6,7.7-1.4
		c0.4,0,0.9-0.1,1.3-0.1c0.1-0.2,0.2-0.4,0.3-0.5c-0.4-0.2-0.7-0.3-1.1-0.5c1.2-1,1.9-0.1,2.7,0.4c2,1.3,3.6,0.5,4.7-2.4
		c0.5-1.2,0.8-2.6,1.9-3.2c-0.4,1.1-0.9,2.1-1.3,3.3c-0.8,2.1-0.4,3.1,1.2,2.9c2.8-0.3,5.6-0.7,8.4-0.9c2.8-0.2,3.1-0.2,5.9-0.4
		c0.8-0.1,1.6,0.1,2.3-0.3c2.2-1.2,4.4-1.4,6.6-1c0.3,0.1,0.7-0.2,1.4-0.5c-0.9-1.3-1.7-2.2-2.5-3.3c1.1-0.1,1.6,0.9,2.2,1.7
		c1.6,2.1,3.1,2,4.7-0.5c0.6-0.9,1.2-1.8,1.8-2.7c0.1-0.1,0.2,0,0.4,0c-0.7,1.3-1.3,2.5-2,3.8c0.1,0.2,0.1,0.4,0.2,0.7
		c1-0.1,2.1-0.2,3.1-0.3c0,0.7,0,1.3,0,2c-2.2-0.3-3.4,1.4-3.9,4.7c-0.1,0.5-0.3,1.1-0.5,1.6c0,0-0.1,0-0.4,0.1
		c0.1-0.8,0.3-1.4,0.4-2c0.1-0.6,0.2-1.3,0.4-2.2c-0.7,0-1.3-0.1-2.1-0.1c0.3,1.4,0.5,2.3,0.7,3.2c-0.1,0.1-0.3,0.2-0.4,0.3
		c-0.5-1.5-1.1-3.1-1.7-4.9c-0.2,0-0.6-0.2-0.9,0c-1.5,0.7-2.9,0.3-4.4,0.4c-1.6,0.1-3.2,0.5-4.8,0.9c-0.3,0.1-0.5,0.3-0.8,0.3
		c-3.1,0.2-3.6,0.2-6.7,0.4c-0.8,0-1.6,0-2.4,0.1c-1.2,0.2-2.4,0.5-3.6,0.7c-2.6,0.3-2.3-0.2-2.7,3.8c-0.1,1.1-0.3,2.2-0.5,3.4
		c-0.1,0-0.3,0-0.4,0c0.1-1.6,0.2-3.2,0.3-4.8c-1.3-0.8-1.3-0.8-2.5,0.5c-0.1-0.1-0.3-0.1-0.3-0.2c-0.7-2.3-2-2.6-3.6-1.8
		c-0.4,0.2-0.8,0.3-1.2,0.2c-2.6-0.6-5.1,0.2-7.7,0.5c-3.1,0.4-6.3,0.8-9.4,1.1c-1.2,0.1-2.5-0.2-3.7-0.4c-2.1-0.3-4.1,0-5.9,2.1
		c-0.7,0.9-1.5,1.1-2.4,0.8c-1-0.4-1.5,0.3-1.6,1.8c-0.1,1.4-0.3,2.9-0.5,4.3c-0.2,0-0.3,0-0.5,0c0.1-1,0.1-2.1,0.2-3.1
		c0.3-2.6,0.1-3.2-1.6-3.7c-1.7-0.4-3.3-1.1-5.1-0.1c-0.5,0.2-1,0.3-1.5,0.1c-3-1.3-6.1,0.1-9.2,0.8c-0.5,0.1-1,0.4-1.5,0.4
		c-4.2,0-8.4,0-12.6-0.2c-2.1-0.1-2.1-0.3-2.9,2.5c-0.7,2.3-1.5,4.5-2.2,6.8c-0.2-0.1-0.4-0.2-0.6-0.3c0.4-1.1,0.7-2.3,1.1-3.4
		c1-2.6,0.1-4.7-2-4.5c-0.3,0-0.7,0.4-1,0.8c-0.3,0.5-0.6,1.2-1.1,2.2c0-1.2,0-1.8,0-2.7c-1.3,0.1-2.6,0.2-3.9,0.3
		c-4.3,0.2-8.6,0.5-13,0.8c-1.4,0.1-2.8,0.6-4.3,0.7c-1.8,0.2-3.7,0.1-5.5,0.1c-0.5,0-1.1-0.2-1.6-0.1c-2.8,0.7-5.6,1.4-8.4,0.7
		c-1.2-0.3-1.5,1-1.8,2.3c-1.1-0.3-2.1-0.5-3.1-0.8c-1.4-0.4-1.8,0-2.3,1.9c-0.3,1.2-0.6,2.5-0.8,3.7c-0.2,0-0.4-0.1-0.6-0.1
		c0.2-1.2,0.3-2.4,0.6-3.5c0.4-1.5,0-2.2-1.1-2.2c-1.3,0-2.7,0.2-4,0.3c-1.4,0.2-2.8,0.4-4.2,0.6c-1.4,0.2-2.8,0.4-4.3,0.4
		c-1.2,0-2.4-0.1-3.6-0.1c-1.3,0-2.6-0.1-3.9-0.1c-2.5,0.1-5.1,0.3-7.6,0.5c-0.9,0-1.8-0.2-2.6,0c-3.2,0.6-6.5,1.9-9.8,1.4
		c-0.2,0-0.5,0.3-1,0.6c0.4,1.7,0.8,3.3,1.2,4.9c-0.2,0.1-0.3,0.3-0.5,0.4c-0.3-0.6-0.7-1.2-0.8-1.8c-0.3-1.6-1.1-2.3-2.4-2.7
		c-3.1-0.7-3.1-0.9-4.8,3c-0.4,0.8-0.8,1.6-1.3,2.4c-0.2-0.1-0.3-0.2-0.5-0.3c0.6-1.8,1.3-3.7,2.1-5.9c-1.7,0.2-2.9,0.3-4.2,0.5
		c-1.7,0.2-3.3,0.4-5,0.5c-1.6,0.2-3.3,0-4.8,0.6c-1.9,0.7-3.7,0.5-5.5,0.3c-1.6-0.2-3.2-0.2-4.9-0.1c-2.5,0.1-5,0.3-7.6,0.6
		c-1.8,0.2-3.7,0.5-5.5,0.7c-1.1,0.2-2.2,0.4-3.4,0.5c-1.1,0.1-2,0.1-2.7,1.5c-0.9,1.8-2.2,0.8-3.3,0.6c-2.1-0.5-2.5-0.3-2.9,2.4
		c-0.3,1.5-0.6,3-0.9,4.6c-0.2,0-0.5,0-0.7-0.1c0.1-1.2,0.2-2.4,0.4-3.6c0.5-3.6,0.3-4.1-2.5-4.6c-1.2-0.2-2.6,0-3.9,0.2
		c-2.3,0.3-4.6,0.8-6.9,1.2c-2.7,0.5-5.3,1.1-8,1.6c-1.3,0.2-2.5,0.6-3.8,0.6c-3.1,0.1-6.3,0.2-9.4,0.2c-2.5,0-5,0.1-7.5,0
		c-2-0.1-4,0-6,1.4c0.2,2,0.3,4.1,0.5,6.4c-0.5-0.3-0.8-0.3-0.8-0.4c-0.2-5.4-4-4.6-7-5c-0.7-0.1-1.6,1.1-2.2,1.6
		c-1.2-0.4-2.4-0.9-3.7-1.2c-1.5-0.3-3.1-0.4-4.7-0.6c0-0.4,0-0.8,0-1.3c2.2-0.2,4.4,1,6.7-0.7c-0.7-0.5-1.4-0.9-2.1-0.9
		c-1.5,0-3,0.2-4.5,0.4C1.9,51.8,1.9,51.3,1.9,50.9z"/>
	<path class="st1" d="M2.6,145.8c1.9-0.3,3.8-0.2,5.7-0.6c4-1,7.9-1.9,11.7-1.2c0.9,0.2,2,0.1,2.9-0.3c3.3-1.5,6.6-2,9.9-2.4
		c1.6-0.2,3.3-0.8,4.9-1.3c2.7-1,5.4-1.8,8.2-1.9c1.9,0,3.8-1,6-1.7c-0.4-3.1-0.7-5.6-1-8.8c2.3,2.2,1.4,5.8,2.8,7.9
		c2.3-0.9,4.5-1.7,6.9-2.6c-0.1,0.6-0.2,1.2-0.3,2c3.1,0.3,6.1,0.5,9.2-0.7c3.3-1.3,6.7-2,10.1-1.6c0.9,0.1,1.8-0.2,2.7-0.3
		c2.4-0.3,4.9-0.5,7.3-0.8c0.2,0,0.5,0,0.7-0.1c3.7-1.3,7.5-1.9,11.2-1.9c0.5,0,1.1-0.3,1.6-0.5c1.1-0.5,1.6-1.5,1.1-2.9
		c-0.5-1.7-1-3.3-1.5-5c0.2-0.1,0.4-0.3,0.7-0.4c0.4,1,0.8,2.1,1.1,3.1c0.4,1.4,0.5,3.1,2.4,2.7c2.6-0.6,3.2-1.2,3.7-3.8
		c0-0.3,0.2-0.5,0.4-1c1.3,1.4-0.5,3.6,0.5,5.1c0.3,0.1,0.7,0.3,1.2,0.2c4.5-0.8,9-1.6,13.4-2.4c0.8-0.2,1.7-0.4,2.5-0.5
		c4.1-0.3,8.1-0.5,12.2-0.7c0.8-0.1,1.6-0.3,2.5-0.5c1.6-0.3,3.3-0.6,4.9-1c1.7-0.4,3.4-0.7,5-1.3c1.3-0.4,1.6-1.2,1.1-2.8
		c-0.4-1.4-1-2.8-1.5-4.2c0.2-0.2,0.4-0.3,0.5-0.5c0.5,1.2,1,2.3,1.5,3.5c0.4,1,0.6,2.7,1.8,2c1.3-0.7,3.1-0.5,3.4-3.2
		c0.1-0.8,0.3-1.7,0.6-2.8c0.8,1.1,0.3,2,0.1,2.8c-0.2,1-0.3,1.9-0.6,3.2c0.6,0.1,1.1,0.4,1.6,0.3c3.9-0.6,7.8,0,11.6-1.7
		c0.5-0.2,1.1-0.2,1.7-0.2c3.2,0.2,6.3-0.8,9.5-1.5c4.1-1,8.2-1.1,12.2-2.3c1.1-0.3,2.2-0.1,3.6-0.2c-0.2-1.2-0.3-1.8-0.4-2.5
		c0.2,0,0.3-0.1,0.4,0c2.4,1.9,4.3,0.9,5.2-2.9c0.2-0.8,0.4-1.6,0.6-2.3c0.1,0,0.3,0.1,0.4,0.1c-0.4,2-0.8,4-1.2,6.2
		c0.4,0.2,0.7,0.4,0.9,0.3c2.4-1,4.7-0.6,7-0.7c1.4-0.1,2.8-0.5,4.2-0.7c2-0.3,4-0.5,6-0.8c1.4-0.2,2.7-0.6,4.1-0.9
		c1.4-0.3,2.9-0.4,4.3-0.6c1.9-0.3,3.7-0.5,5.6-1c1.3-0.4,1.5-1.2,0.9-2.8c-0.3-0.8-0.7-1.6-1-2.4c0.1-0.2,0.3-0.3,0.4-0.5
		c0.4,0.9,0.9,1.8,1.3,2.7c0.9,2,0.9,1.9,2.5,1.3c1.3-0.5,2.8-0.5,4.1-0.6c1.9-0.1,3.8,0.1,5.6-0.1c3.1-0.3,6.1-0.7,9.2-1.1
		c0.2,0,0.5,0,0.7-0.1c3.8-1,7.7-2.1,11.6-3.1c-0.4-0.4-0.7-0.8-1.2-1.3c0.3-0.1,0.4-0.4,0.6-0.3c0.6,0.3,1.2,0.6,1.8,1
		c2,1.3,3.8,0.4,4.8-2.7c0.4-1.1,0.8-2.2,1.3-3.3c0.2,2.1-1.8,3.8-0.7,6.4c2.5-0.5,5.1-1,7.7-1.4c1.3-0.2,2.6-0.2,3.9-0.4
		c2.8-0.5,5.7-0.6,8.4-1.7c2.1-0.8,4.1-1.5,6.2-1.4c0.4,0,0.8-0.1,1.3-0.1c0-0.5,0-1,0-1.7c2.9,2.4,4.4-1.3,6.2-4
		c0.1,0.1,0.1,0.3,0.2,0.4c-0.5,1.1-1.1,2.2-1.6,3.4c0,0.2,0.1,0.4,0.1,0.6c6.7-1,13.3-0.8,19.8-2.4c0,0.3,0,0.7,0,1
		c-1.1,0.4-2.2,0.9-3.3,1.2c-0.9,0.3-1.8,0.4-2.6,0.5c-1.3,0.2-2.5,0.4-3.8,0.6c-0.6,0.1-1.2,0.1-1.8,0c-1.7-0.4-3.5,0.2-5.2,0.5
		c-2.3,0.4-3.4,2-3.8,5.2c0,0.3-0.2,0.6-0.6,0.8c0.2-1.1,0.3-2.1,0.5-3.6c-0.6,0-1.2-0.1-2-0.1c0.2,1.4,0.4,2.3,0.5,3.3
		c-0.1,0.1-0.2,0.2-0.4,0.3c-0.5-1.5-1-3.1-1.5-4.7c-0.2,0-0.4-0.1-0.6-0.1c-3.5,1.4-7.2,0.4-10.8,2.6c-0.7,0.4-1.5,0.2-2.3,0.3
		c-0.8,0.1-1.6,0.2-2.5,0.3c-1.3,0.2-2.7,0.3-4.1,0.5c-1,0.2-2,0.4-3,0.6c-1.2,0.3-2.4,0.7-3.6,0.8c-1,0.1-1.5,0.7-1.6,2.1
		c-0.2,1.6-0.3,3.3-0.5,4.9c-0.2,0-0.3,0-0.5,0.1c0-0.9,0.1-1.7,0.1-2.6c0-0.9,0.4-2.3-0.5-2.4c-0.6-0.1-1.3,0.5-2,1.3
		c-0.1-0.1-0.3-0.1-0.3-0.2c-0.7-2.3-1.9-2.6-3.5-1.7c-0.5,0.2-1,0.4-1.5,0.4c-3.6-0.2-7.1,1-10.7,2.2c-0.4,0.1-0.9,0.1-1.3,0.1
		c-1.5,0.2-3.1,0.5-4.7,0.6c-1.2,0.1-2.4,0.1-3.5,0c-2.3-0.2-4.5,0.2-6.5,2.6c-0.5,0.5-1.2,0.7-1.8,0.9c-0.5,0.2-1.1,0.1-1.8,0.2
		c-0.3,2.1-0.5,4.1-0.7,6c-0.2,0-0.3,0-0.5,0c0-1.2,0-2.4,0.2-3.5c0.2-1.7-0.2-2.7-1.4-2.7c-1.7-0.1-3.3-0.1-5,0
		c-1.2,0-2.5,0-3.7,0.2c-2,0.3-3.9,0.8-5.9,1.2c-2.1,0.4-4.2,0.7-6.3,1c-1.4,0.2-2.8,0.5-4.2,0.6c-1.5,0.2-3.1,0.4-4.6,0.3
		c-2.8-0.1-2.8-0.2-3.9,3.5c-0.4,1.5-0.9,3.1-1.4,4.6c-0.2,0.5-0.5,0.8-1.1,1.1c0.4-1.2,0.8-2.4,1.1-3.6c0.7-2.4-0.2-4.4-2.1-4
		c-0.4,0.1-0.8,0.7-1.1,1.1c-0.3,0.6-0.5,1.3-1.1,1.9c0-0.7,0-1.5,0-2.2c-0.2-0.1-0.4-0.3-0.6-0.3c-3.1,0.5-6.2,1.2-9.3,1.7
		c-2.3,0.4-4.6,0.5-6.9,0.9c-1.5,0.2-3.1,0.7-4.6,1c-0.3,0.1-0.6,0.2-0.8,0.3c-4.7,0.6-9.5,1.2-14.3,1.7c-0.8,0.1-1.5,0.1-2.1,1.2
		c-0.8,1.5-2,1.1-3,1c-2.1-0.3-2.4,0-2.9,2.8c-0.2,1.1-0.4,2.2-0.6,3.3c-0.2,0-0.4,0-0.6,0c0.2-1.2,0.2-2.5,0.5-3.7
		c0.4-1.7-0.1-2.5-1.3-2.5c-1.2,0-2.3,0.1-3.5,0.3c-2,0.4-4,0.9-6,1.3c-0.7,0.2-1.5,0.1-2.2,0.4c-1.9,0.7-3.7,1-5.6,0.5
		c-0.8-0.2-1.8-0.3-2.7,0.1c-3,1.4-5.9,1.2-8.9,1.3c-1.3,0-2.6,0.2-3.9,0.7c-2.1,0.8-4.2,1.8-6.4,1.5c-0.6-0.1-1.4,0.2-2.5,0.4
		c0.5,1.9,0.9,3.4,1.3,5.1c-0.5-0.1-0.8-0.1-0.8-0.3c-0.5-3.5-3-3.1-4.9-3.9c-1-0.5-1.6,0.7-2,1.7c-0.7,1.6-1.4,3.3-2,5
		c-0.2-0.1-0.4-0.2-0.6-0.2c0.6-1.8,1.2-3.6,2-6c-1,0-1.8-0.2-2.5,0c-3,0.5-6.1,0.8-9.1,1.8c-4.1,1.2-8.2,1.2-12.3,1.6
		c-6.3,0.7-12.6,2.4-19.1,3.7c-0.5,0.1-1.2,0.5-1.5,1c-1.1,1.8-2.3,1.7-3.7,1.4c-2.1-0.4-2.5,0-2.9,2.6c-0.2,1.6-0.5,3.2-0.8,4.8
		c-0.3,0-0.5,0-0.8,0c0.1-1.3,0.2-2.7,0.3-4c0.4-3.4,0.2-3.9-2.5-4.1c-1.5-0.1-3,0.3-4.5,0.6c-2.3,0.5-4.6,1.2-6.9,1.8
		c-2.2,0.6-4.5,1.2-6.7,1.7c-2.7,0.6-5.4,1-8.1,1.5c-1.1,0.2-2.1,0.2-3.2,0.3c-4.3,0.5-8.5,1.1-12.9,1.6c-0.5,0.1-0.9,0.1-1.4,0.2
		c-4,0.6-3.6,0.5-4.6,0.9c-0.7,0.2-0.4-1.6-0.5-2.4C-0.2,145.3,0.7,146.1,2.6,145.8z"/>
</g>
<g>
	<g>
		<g>
			<path class="st2" d="M87.3,165.5c-2.7,1.4-15.6,7.7-4.9,13.9c10.7,6.2,59.6,8.2,79.2,11.7c19.6,3.6,48.1,11.9,83.9,10.4
				c35.8-1.5,70.1-11.4,74.6-15.8c4.5-4.5-28.4-10.4-28.4-10.4"/>
		</g>
		<g>
			<path class="st3" d="M134.9,186.9c0,0,0,0.7,8.3-2.5c8.3-3.1,11.5-4.9,11.5-4.9s-0.7-4-1.9-4.1c-1.2-0.1-13.8-0.8-14.9-1
				c-1.1-0.1-6,1.2-6,1.2"/>
		</g>
		<g>
			<path class="st4" d="M311,160.6c0,0,4.2-0.7,5.5,1.8c1.2,2.5,1.7,12.6,1.7,12.6s-11.9,4.9-26.7,9.9
				c-14.8,5.1-48.8,14.5-54.6,14.5c-5.9,0-19.7-0.1-30.7-1.5c-11.1-1.4-31-6.4-31-6.4V186l-35.7-9.3c0,0-4.6,6-4.5,10.1
				c0,0-7.8-0.4-19.8-2c-12-1.6-21.3-5.2-26.4-7.2c-5.1-2-9.8-6.6-9.8-6.6l4.8-22.9c0,0,0.9-2.7,4.9-2.9"/>
		</g>
		<g>
			<path class="st3" d="M318.2,175c0,0-0.5-10.2-1.7-12.6c-1.8-3.6-6.2-3.6-6.2-3.6s-43.5,19.7-76.6,20.7
				c-21.4,0.6-76.4-9.8-112.2-21.7c-19.7-6.5-32.9-12.6-32.9-12.6c-4,0.2-4.9,2.9-4.9,2.9L78.9,171c0,0,2.7,2.6,6.2,4.7
				c0.5-1.5,1.5-3.6,2.6-3.4l0.8,5.2c0.1,0,0.2,0.1,0.2,0.1c2.6,1.1,6.3,2.5,11,3.9c0.4-1.7,1.3-4.4,3.8-4.1l0.6,5.3
				c3.3,0.8,7,1.6,11,2.1c0.9,0.1,1.7,0.2,2.5,0.3c0.4-1.4,1.5-4.4,3.4-4.5c0,0,0.1,2.8,0.1,5c8.5,1,13.8,1.3,13.8,1.3
				c2.3-6.6,5.9-9.8,5.9-9.8l34.3,8.9v5.5c0,0,5.3,1.3,11.9,2.8c0.6-1.7,1.8-4.2,3.4-4.1c0,0,0,2.7,0,4.9c4.7,1,9.7,2,13.8,2.6
				c0.3-1.3,1.1-3.1,3.6-3.3c0,0,0.2,2.1,0.4,3.8c5.1,0.6,10.6,0.9,15.6,1c0.2-1.2,0.5-2.8,0.5-2.8l3.4-0.8l1,3.8
				c3.3,0.1,6.2,0.1,8.2,0.1c1.3,0,3.9-0.5,7.4-1.2v-4.3l2.6-1.3l2.4,4.4c4.3-1,9.4-2.4,14.5-3.8l0.2-4.8c0,0,2.3-1.1,2.6-1.1
				c0.2,0,1.5,2.7,2.4,4.4c8.6-2.4,17-5,22.6-6.9C306.2,179.9,318.2,175,318.2,175z"/>
		</g>
		<g>
			<path class="st5" d="M84.2,151.6c8.6,4.9,18,8.3,27.6,10.6c2.4,0.6,4.8,1,7.3,1.5c2.4,0.5,4.9,1,7.3,1.6
				c4.9,1.1,9.7,2.2,14.6,3.3c9.7,2.3,19.4,4.6,29.1,7.1c4.8,1.2,9.7,2.5,14.5,3.8c2.4,0.7,4.8,1.4,7.2,2.1c2.4,0.7,4.7,1.4,7.1,2
				c9.5,2.3,19.4,2.9,29.3,2.3c4.9-0.3,9.8-0.9,14.7-1.7c4.9-0.8,9.7-1.8,14.6-2.9c9.7-2.1,19.4-4.6,29-7.1c4.8-1.3,9.6-2.6,14.4-4
				c4.8-1.4,9.5-2.8,14.1-4.6l0.6,1.4c-4.6,2.1-9.4,3.6-14.1,5.2c-4.8,1.6-9.5,3-14.3,4.4c-9.6,2.8-19.3,5.3-29,7.5
				c-9.7,2.3-19.7,4.1-29.7,4.7c-10.1,0.6-20.3,0-30.2-2.3c-2.5-0.6-4.9-1.3-7.3-2c-2.4-0.7-4.8-1.4-7.2-2.1
				c-4.8-1.4-9.6-2.7-14.4-3.9c-9.6-2.6-19.3-5-29-7.4c-4.8-1.2-9.7-2.3-14.5-3.4c-4.9-1.1-9.7-2-14.6-3.3
				c-4.9-1.3-9.7-2.9-14.3-4.9c-4.6-2-9.1-4.3-13.3-7.2L84.2,151.6z"/>
		</g>
	</g>
	<g>
		<g>
			<path class="st6" d="M288.9,139c-18.8,1.2-25.7,4.1-34.2-3.2c-4.8-4.1-7.9-7.3-12.6-12.7c-0.4-0.4-58.1-29.5-64.5-38.7
				c-6.6-9.4-31.4-74.4-31.4-74.4c-21.5,2.1-52.8,10.1-52.8,10.1S98,44.4,98,56.8c0,12.4,2.7,23.4,0,26.7
				c-2.7,3.2-4.3,10.7-3.5,14.3c0.8,3.5-4.1,9.8-4.6,14.1c-0.5,4.3,1.1,9.2,0,14c-0.8,3.5-6.4,17-6,20.3c0.2,1.4,0.6,2.5,1.4,3.3
				c2.8,2.7,4.1,5.6,29.1,10.8c0.8,0.2,2.9,0.8,5.8,1.7c4.6,1.7,10.6,3.6,17.5,5.5c0,0,0,0,0,0v0c27.2,7.6,68,15.9,88.7,14.5
				c31.7-2.2,78.5-17.3,83.9-22.7c0.6-0.6,1.1-1.3,1.3-2C313.6,151.9,305.6,138,288.9,139z"/>
			<g>
				<path class="st3" d="M146.2,10.1c0,0,2.8,45.3,4.3,56.4c1.4,11.1,5.4,19.4,11.6,27.1c6.3,7.7,38.7,41.8,46,48.1
					c1.6,1.3,3.1,2.2,4.5,2.7c5.5,1.7,10.2-2.4,14.5-9.8c5.4-9.4,14.6-11.8,14.9-11.4c-5-5.7-12.5-13.9-16.1-17.8
					c-7-7.6-22.6-24.8-25.8-35.1c-3.2-10.3-16.7-54.5-16.7-59.9c0.2-12.7-17.2-11.2-22.6-8.5C159.4,2.6,151.6,5.3,146.2,10.1z"/>
			</g>
			<g>
				<path class="st7" d="M88.5,137.2c0.4-0.4,0.6-0.7,0.6-0.7"/>
			</g>
			<g>
				<path class="st7" d="M310.3,156.5c0,0,0.6,0.3,1.3,0.9"/>
			</g>
			<g>
				<path class="st7" d="M212.7,144.4C212.7,144.3,212.7,144.3,212.7,144.4"/>
			</g>
			<g>
				<g>
					<path class="st4" d="M202.7,125.9c0-2.6,2-4.6,4.6-4.6c2.6,0,4.6,2,4.6,4.6c0,2.6-2.1,4.6-4.6,4.6
						C204.8,130.5,202.8,128.5,202.7,125.9z"/>
				</g>
				<g>
					<path class="st3" d="M204.6,125.9c0-1.5,1.2-2.7,2.7-2.7c1.5,0,2.7,1.2,2.7,2.7c0,1.5-1.2,2.7-2.7,2.7
						C205.9,128.6,204.6,127.4,204.6,125.9z"/>
				</g>
				<g>
					<path class="st4" d="M186.9,115.1c0-2.6,2-4.6,4.6-4.7c2.6,0,4.6,2.1,4.7,4.6c0,2.6-2.1,4.6-4.6,4.7
						C189,119.8,186.9,117.7,186.9,115.1z"/>
				</g>
				<g>
					<path class="st3" d="M188.8,115.1c0-1.5,1.2-2.7,2.7-2.7c1.5,0,2.7,1.2,2.7,2.7c0,1.5-1.2,2.7-2.7,2.7
						C190,117.9,188.8,116.6,188.8,115.1z"/>
				</g>
				<g>
					<path class="st4" d="M172.9,97.8c0-2.6,2.1-4.6,4.6-4.6c2.6,0,4.6,2,4.7,4.6c0,2.6-2,4.6-4.6,4.7
						C175,102.4,172.9,100.3,172.9,97.8z"/>
				</g>
				<g>
					<path class="st3" d="M174.8,97.7c0-1.5,1.2-2.7,2.7-2.7c1.5,0,2.7,1.2,2.7,2.7c0,1.5-1.2,2.7-2.7,2.7
						C176.1,100.5,174.8,99.3,174.8,97.7z"/>
				</g>
				<g>
					<path class="st4" d="M161.7,80.7c0-2.6,2-4.6,4.6-4.7c2.6,0,4.6,2.1,4.7,4.6c0,2.6-2,4.6-4.6,4.6
						C163.8,85.3,161.7,83.3,161.7,80.7z"/>
				</g>
				<g>
					<path class="st3" d="M163.6,80.7c0-1.5,1.2-2.7,2.7-2.7c1.5,0,2.7,1.2,2.7,2.7c0,1.5-1.2,2.7-2.7,2.7
						C164.9,83.4,163.6,82.2,163.6,80.7z"/>
				</g>
				<g>
					<path class="st4" d="M155,62.8c0-2.6,2.1-4.6,4.6-4.6c2.6,0,4.6,2.1,4.6,4.6c0,2.6-2.1,4.6-4.6,4.6C157,67.4,155,65.3,155,62.8
						z"/>
				</g>
				<g>
					<path class="st3" d="M156.8,62.7c0-1.5,1.2-2.7,2.7-2.7c1.5,0,2.7,1.2,2.7,2.7c0,1.5-1.2,2.7-2.7,2.7
						C158.1,65.5,156.9,64.3,156.8,62.7z"/>
				</g>
				<g>
					<path class="st4" d="M151.6,40.6c0-2.6,2.1-4.6,4.6-4.7c2.6,0,4.6,2.1,4.7,4.6c0,2.6-2.1,4.6-4.6,4.6
						C153.7,45.2,151.6,43.1,151.6,40.6z"/>
				</g>
				<g>
					<path class="st3" d="M153.4,40.5c0-1.6,1.3-2.8,2.8-2.8c1.6,0,2.8,1.3,2.8,2.8c0,1.6-1.3,2.8-2.8,2.8
						C154.7,43.4,153.4,42.1,153.4,40.5z"/>
				</g>
				<g>
					<g>
						<path class="st4" d="M150.1,21.7c0-2.6,2-4.6,4.6-4.6c2.6,0,4.6,2,4.6,4.6c0,2.6-2.1,4.6-4.6,4.6
							C152.2,26.3,150.1,24.3,150.1,21.7z"/>
					</g>
					<g>
						<path class="st3" d="M151.8,21.7c0-1.6,1.3-3,3-3c1.6,0,3,1.3,3,3c0,1.6-1.3,3-3,3C153.1,24.7,151.8,23.3,151.8,21.7z"/>
					</g>
				</g>
			</g>
			<g>
				<path class="st8" d="M156.3,40.5c0,0,18.9-6.3,34.8-4.6"/>
				<path class="st8" d="M154.8,21.7c0,0,14-5.3,30-3.6"/>
				<path class="st8" d="M159.8,62.7c0,0,22.2-8.6,36.4-6.3"/>
				<path class="st8" d="M166.4,80.7c0,0,15-9.7,34.6-8.3"/>
				<path class="st8" d="M177.6,97.7c0,0,10.8-11.8,31.9-11.7"/>
				<path class="st8" d="M191.5,115.1c0,0,15.2-17.6,30.4-14.2"/>
				<path class="st8" d="M207.5,125.9c0,0,7.1-13.3,25.3-13.1"/>
			</g>
		</g>
	</g>
</g>
</svg>
