<!-- Generator: Adobe Illustrator 24.2.3, SVG Export Plug-In  -->
<svg version="1.1" xmlns="http://www.w3.org/2000/svg" xmlns:xlink="http://www.w3.org/1999/xlink" x="0px" y="0px" width="97.7px"
	 height="75.2px" viewBox="0 0 97.7 75.2" style="overflow:visible;enable-background:new 0 0 97.7 75.2;" xml:space="preserve">
<style type="text/css">
	.st0{fill:#1F2E7A;}
	.st1{fill:#F6423C;}
	.st2{fill:#E3120B;}
	.st3{fill:#475ED1;}
	.st4{fill:none;stroke:#000000;stroke-width:1.2012;stroke-linecap:round;stroke-miterlimit:10;}
	.st5{fill:#C91D42;}
	.st6{fill:#F9C21F;}
</style>
<defs>
</defs>
<path class="st0" d="M6.4,43.1c0,0,0.1-0.2,0.1-0.2s-0.1-0.2,0-0.3c0.1,0,0.1-0.1,0.1-0.1c0-0.1-0.1,0,0-0.1
	c0.1-0.1,0.2-0.2,0.2-0.2s-0.1-0.1,0-0.1c0.1,0,0.1-0.1,0.1-0.1s0-0.1,0-0.2c0,0,0-0.1,0.1-0.1c0,0,0-0.1,0.1-0.1s0.1-0.1,0.1-0.1
	c0,0,0.1-0.1,0.1-0.1s0.1-0.1,0.2,0c0.1,0.1,0.1,0,0.1,0.1c0,0,0.2,0.1,0.2,0.1s-0.1,0,0.1,0c0.1-0.1,0.3-0.2,0.3-0.3
	c0.1-0.1,0.1-0.1,0.2-0.1c0.1,0,0.1-0.1,0.1-0.1c0.1,0,0.1,0,0.1,0c0,0,0.1,0,0.2,0.1c0,0,0,0,0.1,0c0,0,0.1,0,0.1,0
	c0,0,0.1-0.1,0.1-0.1s0.1,0,0.1,0c0,0,0.1,0,0.1,0c0,0,0.1,0.1,0.1,0.1s0.1,0,0.1,0.1c0,0.1,0.1,0.2,0.1,0.2s0,0,0,0s0.1,0,0.1,0
	c0,0,0,0,0.1-0.1c0.1,0,0.1-0.1,0.1-0.1c0,0,0.1,0,0.1,0c0,0,0,0.1,0.1,0.1c0.1,0,0.2,0.1,0.2,0.1c0,0,0,0,0.1,0
	c0.1,0,0.1,0,0.1-0.1c0.1,0,0.1-0.1,0.2-0.2c0.1,0,0.2-0.2,0.2-0.2s0.2-0.2,0.2-0.3c0.1,0,0.1-0.2,0.2-0.2s0.1-0.1,0.2-0.1
	c0.1,0,0.1,0,0.2,0.1c0.1,0,0.1,0.1,0.1,0.1c0.1,0,0.1,0,0.2,0c0,0,0.1,0,0.2,0s0.2,0,0.2,0s0.3,0,0.3,0c0,0,0.1,0,0.2,0
	c0.1,0,0.1,0,0.2,0s0.1,0,0.2,0c0,0,0.1-0.1,0.1-0.1s0,0,0.1-0.1c0.1-0.1,0.2-0.2,0.3-0.3c0.1-0.1,0.2-0.2,0.3-0.2
	c0.1,0,0.2-0.1,0.3-0.1c0.1,0,0.1,0,0.2,0c0.1,0,0.2,0,0.3-0.1c0.1,0,0.4-0.1,0.4-0.1c0,0,0.2-0.1,0.2-0.1c0.1,0,0.1,0,0.1-0.1
	c0.1,0,0.1-0.1,0.1-0.1c0.1,0,0.1,0,0.2,0c0,0,0.1,0,0.1-0.1c0,0,0.1,0,0.1,0c0.1,0,0,0,0.2,0c0.1,0,0.1,0,0.2-0.1
	c0-0.1,0-0.2,0-0.2c0,0,0-0.1,0-0.2c0,0-0.1-0.4,0-0.4c0-0.1,0-0.2,0-0.2c0.1-0.1,0.1-0.1,0.1-0.1c0.1,0,0.1-0.1,0.1-0.1
	s0.1,0,0.1-0.1c0-0.1,0-0.1,0-0.2c0-0.1,0.2-0.2,0.3-0.2c0.1,0,0.2-0.1,0.2-0.1c0,0,0-0.1,0-0.1c0-0.1,0-0.1,0-0.2
	c0-0.1-0.1-0.1-0.1-0.2c0,0,0-0.1,0-0.1c0-0.1,0-0.3,0-0.4c0-0.1,0-0.2,0-0.2c0,0-0.1-0.1-0.1-0.2c0-0.1,0-0.1,0-0.1
	c0,0,0-0.1,0-0.2c0-0.1,0-0.2,0-0.2c0-0.1,0-0.1,0-0.2c0,0,0-0.1,0.1-0.2c0-0.1,0,0,0.1-0.2c0-0.2,0-0.2,0-0.2s-0.1,0-0.2-0.1
	c-0.1-0.1-0.2-0.1-0.2-0.1c0,0-0.2-0.1-0.2-0.1c0,0,0-0.1,0-0.1c0,0,0.2-0.1,0.2-0.2c0.1,0,0,0,0.1,0c0.1,0,0.4,0,0.5,0
	c0,0,0-0.1,0.1-0.1c0.1,0,0.1,0,0.2,0c0.1,0,0.1,0,0.2,0c0.1,0,0.1,0,0.1,0s0.2-0.1,0.3-0.1c0.1,0,0.2-0.1,0.2-0.1s0.1-0.1,0.2-0.1
	c0,0,0.3,0,0.3,0.1c0,0,0.1,0.1,0.1,0.1c0,0.1,0.1,0.1,0.1,0.1c0,0,0.1,0,0.1,0c0.1,0,0.4,0,0.4,0c0,0,0.1,0,0.1,0s-0.1,0,0.1,0.1
	c0.1,0,0.2,0,0.2,0c0,0,0-0.2,0-0.2c0,0,0-0.1,0-0.1s0,0,0-0.1c0,0-0.1-0.1-0.1-0.2c0-0.1-0.1-0.2-0.1-0.2c0-0.1,0.1-0.1,0.1-0.2
	c0-0.1,0.1-0.2,0.1-0.3c0-0.1,0.1-0.2,0.1-0.3c0.1-0.1,0.1-0.3,0.2-0.4c0.1-0.1,0.1-0.2,0.2-0.3c0-0.1,0-0.1,0.1-0.2
	c0.1-0.1,0.1-0.2,0.1-0.3c0-0.1,0.1-0.4,0.2-0.4c0,0,0.1-0.2,0.1-0.3c0,0,0-0.2,0.1-0.2c0.1,0,0.1,0.1,0.2,0.1c0,0,0.2,0.2,0.3,0.2
	c0,0,0.3,0.1,0.4,0.2c0.1,0,0.1,0,0.2,0c0.1,0,0.1,0,0.2,0c0.1,0,0.3,0.1,0.4,0.1c0.1,0,0.1,0,0.2,0.1c0.1,0,0.1,0.1,0.2,0.1
	c0.1,0,0.1,0,0.2,0c0.1,0,0.2,0,0.2-0.1c0,0,0,0,0.1-0.1c0.1-0.1,0.5-0.2,0.5-0.2c0,0,0.1-0.1,0.1-0.2c0-0.1-0.1-0.5-0.1-0.6
	c0-0.1,0-0.4,0-0.4c0-0.1,0-0.1,0-0.2c0-0.1,0-0.1,0-0.2c0,0,0-0.1,0.1-0.2c0-0.1,0.1-0.3,0.2-0.3c0,0,0-0.1,0.1-0.1
	c0.1,0,0.2,0,0.2,0c0.1,0,0.1,0,0.2,0c0.1,0,0.2-0.1,0.3-0.1c0,0,0.1,0,0.1-0.1c0,0,0.1,0,0.1,0c0,0,0-0.1,0.1-0.1
	c0,0,0.1-0.2,0.1-0.2s0-0.1,0-0.1c0-0.1-0.1-0.1,0-0.2c0-0.1,0-0.1,0-0.1l0.1-0.1c0,0,0.2,0,0.2,0c0,0,0.1-0.1,0.2-0.1
	c0.1,0,0.1,0,0.2,0c0.1,0,0.2,0,0.2,0.1c0.1,0.1,0.2,0.1,0.2,0.1c0,0,0.1,0,0.2,0.1c0,0,0.1,0.1,0,0.2c0,0.1-0.1,0.1-0.1,0.2
	c0,0,0,0.1,0.1,0.1c0,0,0.1,0.1,0.2,0.1c0,0,0.1,0,0.1,0.1c0,0.1-0.1,0.1-0.1,0.2c0,0.1,0,0.1,0.1,0.1c0,0,0.3,0.2,0.3,0.2
	c0,0,0.1,0.1,0.2,0.1c0,0.1,0.1,0,0.1,0.1c0,0.1,0,0.1,0,0.2c0,0.1,0.1,0.1,0.1,0.2c0.1,0,0.2,0.1,0.2,0.1c0,0,0.1,0,0.1,0.1
	c0,0,0.1,0,0.1,0.1c0,0,0,0.1,0.1,0.1c0,0,0,0,0.1,0s0.2-0.1,0.2-0.1c0,0,0.1-0.1,0.1-0.1c0,0,0.1,0,0.1,0.1c0.1,0,0.3,0.2,0.3,0.2
	c0,0.1,0.2,0.1,0.2,0.1s0-0.1,0.1,0c0.1,0.1,0.1,0,0.2,0.1c0,0,0.1,0.1,0.2,0.2c0.1,0.1,0.1,0,0.2,0.2c0.1,0.2,0,0.1,0.1,0.3
	c0,0.1,0.1,0.1,0.1,0.2c0,0.1,0,0.2,0.1,0.3c0.1,0.1,0.1,0.1,0.1,0.2c0,0,0.1,0.1,0.1,0.2c0,0.1,0.2,0.3,0.2,0.3s0,0.1,0,0.2
	c0,0.1,0,0.3,0,0.3s0.1,0.1,0,0.2s-0.1,0.1-0.1,0.1c0,0.1,0,0.1,0,0.2c0,0,0.1,0.1,0.1,0.2c0,0,0,0.1,0,0.2c0,0-0.1,0.2-0.1,0.2
	c0,0-0.2,0.3-0.2,0.3s-0.1,0.1-0.1,0.1c0,0-0.1,0.1,0,0.2s0.2,0.4,0.2,0.4s0,0,0.1,0.1c0,0.1,0,0.1,0.1,0.1c0.1,0,0.2,0.1,0.3,0.1
	c0.1,0,0.3,0,0.5,0.1s0.2,0.1,0.3,0.1c0.1,0,0.2,0,0.3,0s0.2,0,0.3,0c0.1,0,0.3,0,0.4,0c0.1,0,0.2,0,0.3,0s0.6,0,0.7,0
	s0.4,0.1,0.5,0.1c0.1,0.1,0.4,0.2,0.5,0.3c0,0,0.5,0.3,0.5,0.3s0.3,0.2,0.4,0.2c0.1,0,0.1,0.1,0.2,0.1c0.1,0.1,0.1,0.1,0.2,0.1
	s0.2,0,0.2,0c0.1,0,0.2,0,0.3,0c0,0,0.2-0.1,0.2-0.1s0.1,0,0.1,0.1c0,0.1-0.1,0.1,0,0.2c0.1,0.1,0.2,0.2,0.2,0.2s0.1,0,0.1,0.1
	c0,0.1-0.1,0.1,0,0.2c0.1,0,0.1,0.2,0.1,0.2c0,0,0.1,0.2,0.2,0.3c0,0.1,0.2,0.2,0.2,0.3c0,0.1-0.1,0.1,0,0.2
	c0.1,0.1,0.1,0.2,0.2,0.2c0.1,0,0.1,0.1,0.1,0.1c0,0,0,0.1,0.1,0.2c0.1,0.1,0.1,0.1,0.2,0.1c0,0,0.1,0,0.1,0.1
	c0,0.1,0.1,0.2,0.2,0.3c0.1,0,0.1,0.1,0.2,0c0.1,0,0-0.1,0.3-0.1c0.2,0,0.5,0,0.7,0c0.1,0,0.7,0,0.9,0c0.2,0,1.5,0.1,1.6,0.1
	c0,0,0.5-0.1,0.6-0.1c0.1,0,0.4-0.2,0.5-0.2c0.1,0,0.5-0.1,0.6-0.1c0.2,0,0.7,0,1,0c0.3,0,0.8,0.1,0.9,0.1c0,0-0.1-0.1,0.1,0
	c0.2,0.1,0.4,0.3,0.5,0.3c0,0,0.2,0.1,0.3,0.1c0.1,0,0.2,0,0.3,0c0.1,0,0.2,0,0.2-0.1c0.1,0,0.2-0.1,0.3-0.1c0,0,0,0,0.1,0
	c0.1,0,0.1,0.1,0.3,0.2c0.1,0,0.2,0,0.3,0.1c0.1,0,0.4,0.2,0.7,0.2c0.2,0,0.6,0,0.7,0c0.1,0,0.1,0,0.2-0.1c0.1,0,0.2-0.1,0.2-0.1
	c0.1,0,0.2-0.1,0.2,0c0,0.1,0,0.1,0,0.2c0,0.1,0,0.1,0.1,0.2c0.1,0,0.2,0,0.3,0s0.2,0,0.3,0c0.1,0,0.2-0.1,0.2-0.2
	c0-0.1,0.1-0.2,0.2-0.3s1-0.7,1.1-0.8c0.1-0.1,0.5-0.4,0.7-0.4c0.1,0,0.4-0.2,0.5-0.3c0.1,0,0.2-0.1,0.2-0.1
	c0.1-0.1,0.1-0.1,0.1-0.1c0,0,0.1-0.1,0.1-0.1s0.1,0.1,0.1,0.1c0,0,0.1,0,0.2,0s0.1-0.1,0.2-0.1c0,0,0.1-0.1,0.3-0.1
	c0.2-0.1,0.2-0.1,0.3-0.1c0.1,0,0.3,0,0.4,0c0.1,0,0.6-0.2,0.6-0.2c0,0,0.1,0,0.3,0c0.1,0,0.2,0,0.3-0.1c0.1,0,0.3-0.2,0.3-0.2
	c0.1,0,0.1-0.1,0.2-0.2c0.1-0.1,0.2-0.1,0.3-0.1c0.1,0,0.1,0,0.2-0.1s0.2-0.2,0.2-0.2c0,0,0.3-0.6,0.3-0.7c0-0.1,0.2-0.3,0.2-0.3
	s-0.2-0.1,0-0.1c0.2-0.1,0.2,0,0.3-0.1c0.1-0.1,0.1-0.1,0.2-0.2c0.1-0.1,0.1-0.1,0.1-0.2c0.1,0,0.1-0.1,0.1-0.1c0,0,0,0,0.1-0.1
	c0.1-0.1,0.1-0.1,0.1-0.2c0-0.1,0.1-0.2,0.1-0.2s-0.1-0.2-0.1-0.2c0,0-0.2-0.2-0.3-0.3c-0.1-0.1-0.2-0.1-0.3-0.2
	c-0.1-0.2-0.1-0.2-0.1-0.3c0-0.1,0-0.2,0-0.3c0-0.1,0-0.3,0-0.3s0-0.2,0-0.2c0-0.1,0.1-0.2,0.1-0.2s0.2-0.2,0.3-0.2
	c0.1,0,0.4,0,0.5-0.1c0.1,0,0.1,0,0.2,0c0.1,0,0,0,0.1,0.1c0.1,0.1,0.2,0.1,0.3,0.1c0.1,0,0.2,0,0.4,0c0.2,0,0.3,0,0.3,0s0,0,0.2,0
	c0.2,0,0.2-0.1,0.3-0.1c0.1,0,0.6-0.8,0.6-0.8c0.1,0,0.3-0.4,0.3-0.4s0-0.2,0.1-0.2c0.1,0,0.1-0.1,0.2-0.1c0.1,0,0.1,0,0.2,0
	s0.7-0.2,0.8-0.3c0.1-0.1,0.2-0.2,0.2-0.3c0.1,0,0.2-0.2,0.2-0.3c0,0,0-0.1,0-0.2c0,0,0-0.1,0-0.2c0-0.1,0-0.1,0-0.2s-0.1-0.1,0-0.2
	c0-0.1,0-0.3,0.1-0.3c0,0,0.1-0.2,0.1-0.2s0.2-0.3,0.3-0.3c0.1,0,0.1-0.1,0.3-0.1c0.2,0,0.2,0,0.3-0.1c0.1,0,0.1-0.1,0.1-0.2
	c0-0.1,0-0.1,0-0.1c0,0,0.2-0.1,0.2-0.1c0.1,0,0.1,0,0.2,0c0.1,0,0.2-0.3,0.3-0.4c0.1-0.1,0.1-0.1,0.2-0.2c0.1,0,0.1,0,0.1-0.1
	s0.1,0.1,0.2,0c0.1-0.1,0.3-0.1,0.3-0.2c0.1-0.1,0.1-0.1,0.1-0.1c0,0,0.1,0,0.2,0c0.1,0-0.1,0.1,0.2,0c0.3-0.1,0.5-0.1,0.5-0.1
	s0.1,0,0.1-0.1c0.1,0,0.1-0.1,0.1-0.1c0-0.1,0-0.1,0-0.2s0.1-0.1,0-0.2c-0.1-0.1-0.4-0.3-0.6-0.3c-0.1-0.1-0.3-0.2-0.4-0.3
	S67,24.3,67,24.2c-0.1,0-0.1-0.1-0.2-0.1c0,0-0.1-0.1-0.2-0.1s-0.3,0-0.3,0c0,0-0.1,0-0.2-0.1c-0.1-0.1-0.1-0.1-0.2-0.1
	s-0.1-0.1-0.2-0.1c0,0-0.1,0-0.2,0c-0.1,0-0.3,0.1-0.3,0.1c0,0-0.3,0.2-0.3,0.2c0,0-0.1,0.1-0.2,0.2c-0.1,0.1-0.1,0.2-0.2,0.3
	c0,0.1-0.1,0.1-0.1,0.1c0,0,0,0.1-0.1,0c-0.1-0.1-0.4-0.2-0.4-0.2s-0.1,0-0.2,0c-0.1,0-0.5,0.1-0.5,0.1c-0.1,0.1-0.2,0.2-0.2,0.2
	s-0.2,0.2-0.3,0.2c0,0-0.1,0.1-0.1,0.1c0,0,0,0.1-0.1,0c-0.1-0.1-0.1-0.1-0.2-0.1c-0.1-0.1-0.2-0.1-0.2-0.2c0,0,0-0.1,0-0.1
	s0-0.1,0-0.1c0-0.1,0.1-0.2,0.1-0.2s0-0.1,0-0.2c0-0.1-0.1-0.1-0.1-0.2s-0.1,0,0-0.3c0.1-0.2,0.1-0.5,0.1-0.6s0-0.2,0-0.4
	c0-0.2,0-0.2,0-0.4c0.1-0.1,0.1-0.3,0.1-0.4c0-0.1,0-0.1,0-0.2s0-0.2,0-0.2s0-0.1,0-0.1c0.1,0,0.1-0.1,0.5-0.1c0.4,0.1,0.8,0,0.8,0
	c0,0,0.1,0,0.2-0.1c0.1,0,0.1,0,0.2-0.1c0.1-0.2,0.1-0.3,0.2-0.4c0.1-0.1,0-0.2,0.1-0.3c0.1-0.1,0.1-0.1,0.2-0.2s0.2-0.1,0.3-0.2
	c0.1,0,0.1,0,0.2-0.1c0.1-0.1,0.2-0.3,0.2-0.3c0,0,0-0.2-0.1-0.2s-0.1,0-0.2-0.1c0-0.1-0.2-2.4-0.1-2.5c0.1-0.1,0.1-0.3,0.2-0.4
	c0.1-0.1,0.2-0.2,0.2-0.3c0-0.1,0.1-0.2,0-0.2c0-0.1-0.1-0.1-0.1-0.3s-0.1-0.1-0.1-0.2c0-0.1-0.1-0.1-0.1-0.2c0-0.1,0-0.2-0.1-0.3
	c0,0,0-0.1-0.1-0.1s-0.2,0-0.3,0c-0.1,0-0.2,0.1-0.2,0.1s-0.1,0.1-0.2-0.1c0-0.1-0.1-0.1-0.1-0.2c0.1-0.1,0.1-0.2,0.2-0.3
	c0-0.1,0.2-0.6,0.3-0.7c0,0,0.2-0.2,0.3-0.2c0.1,0,0.3-0.1,0.4-0.3c0.1-0.1,0.1-0.1,0.2-0.2c0.1-0.1,0.1-0.2,0.2-0.2
	c0.1,0,0.2,0,0.3-0.1c0.1,0,0.1-0.1,0.2-0.1c0.1,0,0.1-0.1,0.2-0.1c0.1,0,0,0,0.2-0.1c0.2-0.1,0.3-0.3,0.4-0.3c0.1,0,0.1,0,0.2-0.1
	c0.1,0,0.5-0.1,0.5-0.1s0.2-0.1,0.3,0c0.1,0.1,0.1,0.1,0.3,0.1c0.2,0,0.2,0.1,0.3,0c0.1-0.1,0.3-0.2,0.3-0.2c0.1,0,0.3-0.2,0.4-0.2
	c0.1,0,0.5-0.1,0.6,0c0.1,0.1,0.2,0.2,0.2,0.2s0.1,0,0.2,0s0-0.1,0.1,0c0.1,0.1,0.1,0.1,0.1,0.2c0,0.1,0,0.1,0.1,0.2
	c0.1,0,0.2,0.1,0.2,0.1c0,0,0.1,0.1,0.2,0.2c0.1,0.1,0.2,0.2,0.3,0.3c0.2,0.1,0.2,0.2,0.3,0.3c0.1,0.1,0.3,0.2,0.3,0.2
	c0,0,0.2,0,0.2,0.1c0.1,0,0.3,0.3,0.3,0.3l0.2,0.2c0,0,0,0,0,0.1c0,0.1,0.1,0.1,0.2,0.2c0.1,0.1,0,0,0.1,0.1
	c0.1,0.1,0.2,0.2,0.3,0.2c0.1,0,0.1,0,0.2,0.1c0.1,0,0.2,0.2,0.2,0.2c0,0,0.1,0.1,0.1,0.2c0.1,0.1,0.2,0.1,0.2,0.2s0.1,0.2,0.1,0.2
	l0.2,0.1c0.1,0.1,0.2,0.1,0.2,0.2c0,0.1,0.2,0.2,0.2,0.2c0,0,0.1,0,0.1,0c0,0.1,0.1,0.2,0.2,0.2s0.1,0.1,0.1,0.1s0,0,0.1,0
	c0.1,0,0.3,0,0.4,0c0.1,0,0.1-0.1,0.1-0.1c0.1,0,0.1-0.1,0.2-0.1c0,0,0.1-0.1,0.1-0.2c0,0,0.3-0.1,0.3-0.1s0.1,0,0.1,0.1
	c0,0,0.3,0.1,0.3,0.1c0.1,0,0,0,0.1-0.1c0.1,0,0.1,0,0.2-0.1c0,0,0.1-0.1,0.1-0.1c0,0,0.2-0.1,0.3,0c0.1,0.1,0.3,0.1,0.3,0.1
	s0.2,0.1,0.2,0.1c0,0,0.1,0,0.2,0c0.1,0,0.1,0,0.1,0.1c0.1,0,0.1,0.1,0.2,0.1s0.1,0,0.2,0c0.1,0,0.2,0,0.2-0.1s0.3-0.1,0.3-0.1
	c0,0.1-0.1,0.1,0,0.2c0.1,0.2,0.1,0.2,0.2,0.2c0.1,0,0.3,0.1,0.3,0.1c0,0,0.1,0,0.1,0.1c0,0.1,0,0.1,0,0.2c0,0.1,0.1,0.1,0.1,0.2
	c0,0.1,0,0.2,0.1,0.2c0.1,0,0.1,0,0.2,0c0.1,0,0.3,0,0.3,0.1s0.1,0.2,0.1,0.2s0,0.1,0.1,0.1c0.1,0,0.2-0.1,0.2-0.1
	c0,0,0-0.1,0.1-0.1c0.1,0,0.2,0,0.2-0.1c0.1,0,0,0.1,0.1,0c0.1-0.1,0.1-0.1,0.2-0.2s0,0,0.2-0.1s0.3,0,0.3-0.1c0,0,0-0.1,0.1-0.2
	c0-0.1,0-0.1,0.1-0.1c0.1,0,0.1,0,0.1,0s0.1-0.2,0.1-0.3s0-0.1,0-0.3s0-0.2,0.1-0.3c0.1-0.1,0.1-0.1,0.1-0.2c0.1,0,0.2-0.1,0.2-0.1
	c0.1,0,0.2,0,0.2-0.1s0-0.3,0-0.3s0,0.2,0.1,0.1s0.1-0.2,0.1-0.3c0-0.1,0.1-0.1,0.1-0.2c0-0.1,0-0.1,0.1-0.1s0-0.1,0.1-0.1
	c0.1,0,0.1-0.1,0.2-0.1c0.1,0,0.1-0.1,0.2-0.1c0.2,0,0.2,0,0.3,0c0,0,0,0.1,0.1,0.2c0.1,0.1,0,0.3,0.2,0.3c0.2,0.1,0.1,0,0.2,0.1
	c0.1,0.1,0.2,0.1,0.2,0.2c0,0.1,0.1,0.1,0.1,0.2c0,0.1-0.1,0.2-0.1,0.2s0,0-0.1,0.1c0,0.1-0.1,0.1-0.1,0.3c0,0.1,0,0.3,0,0.3
	s0.1,0,0.1,0.1c0,0,0.1,0.1,0.1,0.3c0,0.1,0,0.1,0,0.2c0,0.1,0.1,0.1,0.1,0.2c0,0.1,0,0.1,0.1,0.2c0,0.1,0,0.2,0.1,0.3
	c0,0.1,0,0.1,0.1,0.2c0.1,0.1,0,0,0.1,0.1s0.1,0.3,0.1,0.3c0,0,0,0.1,0,0.2c0,0.1,0,0.2,0,0.3c0,0,0,0.1,0,0.2s0,0.2,0,0.3
	c0,0,0,0.1,0,0.1s0,0.1,0,0.2c0,0,0,0.1,0,0.2c0,0.1-0.1,0.1,0,0.2c0,0.1,0.1,0.2,0.1,0.2c0.1,0,0.1,0.2,0.1,0.2c0,0,0,0.2,0,0.2
	c0,0-0.1,0.2-0.1,0.2s-0.2,0.1-0.3,0.1s-0.3,0-0.5,0c-0.2,0-0.4,0.1-0.6,0.1c-0.1,0-0.2,0-0.3,0.1c0,0.1-0.1,0.1-0.1,0.3
	c0,0.2,0,0.3,0,0.4c0,0.1,0,0.2,0,0.2s-0.1,0.1-0.2,0.1C83.2,21.9,83,22,83,22.1c0,0,0,0.1,0,0.2c0,0,0.2,0.1,0.2,0.1
	c0.1,0,0.1,0,0.2,0.1c0.1,0.1,0.3,0.2,0.3,0.3c0.1,0.1,0.3,0.3,0.3,0.4c0.1,0,0.1,0.1,0.1,0.2s0.1,0.2,0.1,0.2s0,0,0.1,0.1
	c0.1,0.2,0.2,0.3,0.2,0.3s0.1,0,0.1,0.1c0,0.1,0,0.1,0.1,0.2c0,0.1,0.1,0.3,0.1,0.3c0,0.1,0,0.2,0,0.2L85,25c0,0,0.1,0,0.1,0.1
	c0,0.1,0,0.2-0.1,0.2c0,0.1-0.1,0.1-0.2,0.1c-0.1,0-0.2,0.1-0.2,0.1c0,0-0.1,0.1-0.1,0.1s0,0.1,0,0.1l0.1,0.1c0,0,0.1,0,0.1,0
	c0,0,0.1,0.1,0.1,0.1s0.1,0.1,0,0.1c-0.1,0-0.1,0-0.2,0s-0.1,0-0.2,0c0,0-0.1,0-0.1-0.1c0,0-0.1-0.1-0.1-0.1s-0.1-0.1-0.1-0.1
	c-0.1,0,0,0-0.1,0c-0.1-0.1-0.1-0.1-0.2-0.1c-0.1,0-0.1,0-0.2,0c0,0-0.1,0-0.1,0.1c0,0.1-0.1,0.1-0.1,0.2s0,0.2,0,0.3
	c0,0,0.1,0.1,0.1,0.2c0,0,0.1,0,0.1,0.1c0,0.1,0,0.2,0,0.2s0,0.1,0,0.2c0,0.1-0.1,0.2-0.2,0.2c0,0-0.2,0.1-0.2,0.1s-0.1,0.1-0.1,0.1
	c0,0,0,0.1,0,0.2c0,0.1,0,0.1,0,0.2c0,0.1,0,0.2-0.1,0.3c-0.1,0.1-0.1,0.2-0.2,0.2c0,0-0.2,0.2-0.2,0.2s-0.1,0.1-0.1,0.1
	c0,0,0,0-0.1,0s-0.1,0-0.2,0.1s-0.1,0.1-0.1,0.2c0,0.1,0,0.1,0,0.2c0,0.1,0,0.1,0.1,0.1c0,0,0.1,0,0.2,0s0.1,0,0.2,0.1
	c0.1,0,0.1,0,0.1,0.1c0,0.1,0,0.2,0,0.3c0,0.1,0,0.2-0.1,0.2c-0.1,0-0.2,0.1-0.3,0.1c-0.1,0-0.2,0.1-0.2,0.1c-0.1,0-0.2,0-0.3,0.1
	c-0.1,0,0,0-0.3,0.1c-0.2,0.1-0.3,0-0.3,0s-0.1,0-0.1-0.1c0,0-0.1-0.1-0.1-0.1c0,0-0.2-0.1-0.2-0.1l-0.2,0.1c0,0,0,0-0.1,0.1
	s0,0.1,0,0.2s0,0.2,0,0.2s0.1,0.1,0.1,0.1c0,0,0,0.1,0,0.2c-0.1,0-0.1,0.1-0.1,0.1c0,0.1-0.1,0.2-0.1,0.3c0,0.1-0.1,0.4-0.1,0.4
	s0,0.1,0,0.1c0,0-0.2,0.1-0.2,0.2c0,0.1-0.2,0.3-0.2,0.3s-0.1,0.1-0.1,0.2c0,0.1-0.1,0.1-0.1,0.2c0,0.1-0.2,0.2-0.2,0.3
	s-0.1,0.2-0.1,0.2c0,0-0.1,0-0.1,0.2c0,0.1,0,0.2,0,0.3s-0.1,0.1-0.1,0.2c0,0.1-0.1,0.2-0.1,0.3c0,0.1-0.1,0.2-0.1,0.3
	c0,0.1-0.1,0.2-0.1,0.2c0,0.1-0.1,0.1-0.2,0.2c-0.1,0-0.2,0.2-0.2,0.2c0,0-0.2,0-0.2,0c0,0-0.1,0.1-0.2,0.1
	c-0.1,0.1-0.2,0.2-0.3,0.3c-0.1,0.1-0.2,0.1-0.2,0.2c0,0.1-0.1,0.2-0.2,0.3c0,0.1-0.2,0.2-0.2,0.2c0,0-0.1,0.2-0.1,0.2
	c0,0-0.1,0.1-0.2,0.1c0,0-0.2,0.1-0.2,0.1c0,0.1,0,0.1,0,0.2s-0.1,0.1-0.1,0.2c0,0.1,0.1,0.1,0,0.2c-0.1,0.1-0.2,0.1-0.3,0.2
	c-0.1,0.1-0.3,0.2-0.4,0.3s-0.1,0.1-0.1,0.2c-0.1,0.1-0.2,0.2-0.2,0.2s-0.2,0-0.1-0.1c0.1-0.1,0.2-0.2,0.2-0.2c0,0,0-0.1,0.1-0.1
	s0-0.1,0.1-0.2c0-0.1,0-0.1,0-0.2c0,0,0-0.1,0.1-0.1c0.1,0,0.1-0.1,0.1-0.1s0-0.1,0-0.1c0,0-0.1,0-0.1,0c0,0,0,0.1-0.1,0.1
	c-0.1,0-0.1,0-0.1,0l-0.1-0.1c0,0,0.1,0-0.1,0c-0.1,0-0.2,0-0.2,0s-0.1-0.1,0-0.2c0.1-0.1,0.1-0.1,0.2-0.1s0.1,0,0-0.1
	s-0.1-0.1-0.1-0.1s-0.1,0,0-0.1c0-0.1,0.1-0.1,0.1-0.2c0,0,0,0,0.1,0s0.1-0.2,0.1-0.2c0,0,0-0.2,0-0.2s0,0,0,0l0.1-0.1
	c0,0,0-0.2,0-0.2c0,0,0,0,0.1-0.1c0.1-0.1,0.1-0.2,0.1-0.2c0,0,0-0.1,0-0.2s-0.3-0.4-0.3-0.4s-0.1-0.1-0.2-0.1s-0.2,0.2-0.2,0.2
	l-0.1-0.1L75,34.1c0,0-0.1-0.1-0.2-0.1c0,0-0.1,0.1-0.1,0.1c0,0,0,0.1-0.1,0.1s-0.1,0-0.1,0s-0.3,0-0.3,0l-0.2,0
	c0,0-0.2,0.1-0.2,0.2c-0.1,0.1-0.1,0.2-0.2,0.3c0,0.1,0,0.3,0,0.3l0,0.2c0,0,0,0.1-0.1,0.2c0,0.1-0.1,0.3-0.1,0.3
	c0,0.1-0.1,0.2-0.1,0.3s-0.3,0.3-0.4,0.4c0,0.1-0.2,0.2-0.2,0.3s-0.1,0-0.1,0.1S72.6,37,72.6,37s0,0.1-0.1,0.1s-0.1-0.1-0.1,0.1
	c0,0.2-0.1,0.3-0.1,0.3s0,0.2,0,0.3c0,0.1,0,0.3,0,0.3c0,0.1,0.1,0.2-0.2,0.2c-0.3,0-0.4,0-0.4,0s-0.1,0.1-0.1,0.1s-0.2,0.3-0.2,0.3
	s0,0-0.1,0c-0.1,0-0.1,0-0.1,0c-0.1-0.1-0.2-0.1-0.2-0.1l-0.1,0.1l-0.1,0.1c0,0-0.1,0.1-0.1,0.1c0,0.1-0.1,0.1-0.1,0.1
	s-0.1,0-0.1,0.1c0,0.1,0,0.2,0,0.2v0.1c0,0,0,0.2,0,0.3c0,0.1,0,0.1,0,0.2c0,0.1,0,0.2,0.1,0.2c0,0,0,0.1,0.1,0.1
	c0.1,0.1,0.1,0.1,0.2,0.1s0.1,0.1,0.2,0.1c0.1,0,0.2,0,0.2,0c0,0,0.1,0,0.2,0c0.1,0,0.1,0,0.2,0c0.1,0,0.2,0,0.2,0c0,0,0,0,0.2,0
	c0.2,0,0.2-0.1,0.3-0.1c0.1,0,0-0.1,0.2-0.1c0.2,0,0.1-0.1,0.2,0s0.2,0.1,0.2,0.1l0.1,0.1c0,0,0,0.1,0.1,0.1c0,0,0.1,0.1,0.1,0.1
	s0,0.1,0,0.2c0,0,0,0.1,0,0.2c0,0.1,0,0.1,0,0.2c0,0.1,0.1,0.2,0.2,0.2c0.1,0.1,0.1,0.1,0.2,0.1c0.1,0,0.1,0,0.2,0.1
	c0.1,0,0.1,0,0.2,0c0.1,0,0.1,0,0.2-0.1s0.1-0.1,0.1-0.1c0-0.1,0.1,0,0.2-0.1c0.1,0,0,0,0.1,0c0.1-0.1,0.1-0.1,0.1-0.1
	c0-0.1,0-0.1,0-0.1s-0.1,0-0.1-0.1c0,0,0-0.1,0.1-0.1c0.1,0,0.1-0.1,0.1-0.1c0,0,0.1-0.1,0.1-0.2c0.1-0.1,0.1-0.1,0.1-0.2
	c0-0.1,0-0.1,0-0.1c0,0,0-0.1,0.1-0.2c0.1-0.1,0.1-0.1,0.1-0.2s0,0,0.1-0.1c0.1-0.1,0,0,0.1-0.1c0.1-0.1,0.2-0.1,0.2-0.1
	c0,0,0.2,0.1,0.2,0.1c0,0-0.1,0,0.1,0c0.2,0,0.1,0,0.2,0s0.2,0.2,0.3,0.2c0,0,0,0.1,0.1,0c0.1-0.1,0.1-0.2,0.3-0.1
	c0.2,0,0.3,0.1,0.3,0.1c0-0.1-0.1-0.1,0.1-0.1s0.2-0.1,0.2-0.1s0,0,0.1-0.1s0.2-0.1,0.2,0c0.1,0,0.2,0,0.2,0c0-0.1,0-0.1,0.1-0.1
	c0.1,0,0.1,0,0.1,0s0-0.1,0.1,0c0.1,0.1,0.2,0.3,0.2,0.3s0.1,0,0,0.1S78.5,40,78.5,40l0.1,0.1c0,0,0.1,0,0.1,0c0,0,0,0.2,0,0.2
	c0,0-0.2,0.1-0.2,0.1l-0.2,0.1c0,0,0,0-0.1-0.1c0-0.1-0.1-0.1-0.1-0.1s-0.1,0-0.1,0.1c0,0,0.1,0,0,0s-0.1,0-0.1,0l-0.1,0l0,0.1
	c0,0-0.1,0-0.1,0.1c0,0-0.1,0.2-0.1,0.2s0,0.1,0,0.1s-0.1,0.1-0.1,0.1c-0.1,0-0.2,0.1-0.2,0.1s0,0.1-0.1,0.1c-0.1,0-0.2,0-0.2,0.1
	c0,0-0.1,0.1-0.1,0.1c0,0-0.1,0.1-0.1,0.1l-0.1,0.1l0,0.1l0,0.1l-0.2,0.1l0,0.1c0,0,0,0.1,0,0.1c0,0-0.1,0,0,0.1
	c0.1,0.1,0.2,0.2,0.2,0.2s0,0.1-0.1,0.1c-0.1,0-0.2,0-0.2,0c-0.1,0-0.2,0-0.2-0.1S76,42.5,76,42.5s-0.1,0-0.1,0c0,0,0,0.1,0,0.1
	s0,0.1-0.1,0.1c0,0-0.1,0-0.1,0c0,0,0,0.1,0,0.1c0,0,0,0.1,0.1,0.1c0.1,0,0,0,0.1,0c0.1,0,0,0.1,0,0.1c0.1,0,0.1,0.1,0.1,0.1
	c0,0.1-0.1,0.1-0.1,0.1c0,0-0.1,0-0.1,0.1c0,0.1,0,0.1,0,0.2c0,0.1,0,0.1,0,0.2c0,0-0.1,0.1-0.1,0.1c0,0,0,0.1-0.1,0.1
	c0,0-0.1,0.1-0.1,0.1c0,0-0.1,0-0.1,0.1c0,0.1-0.1,0.1-0.1,0.2c0,0.1,0,0.1,0,0.2c0,0.1,0,0.1,0,0.3s-0.1,0.2-0.1,0.3s0,0.2,0,0.2
	c0,0-0.1,0-0.1,0.1c0,0.1-0.1,0.1,0,0.2c0,0.1,0,0.1,0,0.2c0.1,0.1,0.1,0.2,0.1,0.1c0.1,0,0.1-0.1,0.1-0.1c0.1,0,0,0,0.1,0
	c0.1,0,0.1,0,0.1,0c0.1,0,0.1,0,0.2,0c0,0-0.1,0,0,0c0.1,0,0,0,0.1,0c0.1,0,0.1,0,0.2,0c0.1,0,0.1-0.1,0.1,0s0.1,0,0.1,0
	c0,0,0,0,0.1,0c0.1,0,0.1,0,0.2,0c0,0,0.1,0.1,0.1,0.1s0,0,0.1,0c0.1,0,0.2-0.1,0.2,0c0,0.1-0.1,0,0.1,0.2c0.1,0.1,0.3,0.4,0.3,0.5
	c0,0,0.4,0.5,0.5,0.6c0.1,0.1,0.5,0.5,0.6,0.6c0.1,0.1,0.3,0.3,0.3,0.3c0,0,0.1,0.1,0.1,0.2c0,0.1,0,0.1,0,0.2s0,0.2,0.1,0.3
	c0.1,0,0.1,0.1,0.1,0.1c0.1,0,0.1,0,0.2,0s0.1,0,0.2,0c0.1,0,0.1,0,0.2,0c0.1,0,0.1,0,0.2,0c0.1,0,0.1,0.2,0.2,0.2c0,0,0,0.1,0,0.1
	c0,0,0,0,0.2,0.1c0.2,0,0.1,0,0.3,0.1c0.1,0,0.3,0.1,0.3,0.1c0,0,0.2,0.1,0.3,0.1c0,0.1,0,0.1,0,0.1c0,0,0,0,0,0.1
	c0,0-0.1,0.1-0.1,0.1s0,0-0.1,0c0,0-0.1,0-0.1,0.1s0,0.1,0,0.1s0,0,0.1,0c0.1,0,0.1,0,0.1,0h0.1c0,0,0,0,0.1,0.1
	c0.1,0.1,0.1,0.2,0.1,0.2l0,0.1v0c0,0,0,0,0,0s0.1,0,0.1,0h-0.2v0.2l0.1,0.1c0,0,0,0,0.2,0.1c0.2,0.2,0.2,0.2,0.2,0.2l0,0.2
	c0,0-0.2,0.1-0.2,0.1s-0.2,0-0.2,0l-0.2,0.3L81,51.3L81,51.5l-0.1,0.1l-0.1,0.2c0,0,0,0,0,0.1c0,0.2,0,0.2,0,0.2h-0.1h-0.3
	c0,0,0,0-0.1,0.1c-0.1,0.2-0.1,0.3-0.1,0.3l0.2,0.1h0.2h0.2l0.4-0.5l0.1-0.1h0.2c0,0,0.1-0.1,0.2,0c0.1,0.1-0.1,0,0.1,0.1
	c0.2,0.1,0.3,0.1,0.3,0.1h0.2l0.1,0c-0.1-0.2-0.1-0.2-0.1-0.2l0.1-0.2h0.1l0.3-0.1c0,0,0.1,0,0.2,0.1c0.1,0.1,0.2,0.2,0.2,0.2
	s0,0.1-0.1,0.2c-0.1,0-0.3,0-0.3,0v0.1c0,0,0.2,0.1,0.1,0.2s-0.1,0.1-0.1,0.1s0,0.1,0,0.2c0,0.1,0,0.1,0,0.1h-0.2h-0.3l0,0.1l0,0.1
	h-0.1l-0.1,0.2l0.1,0.2h0.2l0.1-0.2c0,0,0.2,0,0.2,0s0.1,0,0.1,0l-0.2-0.3l0.3,0l0,0.2l0.1,0.3l0.1,0.2l0,0.2h-0.2l-0.1-0.3h-0.2
	v0.1c-0.1,0.1-0.1,0.3-0.2,0.1c0-0.2,0-0.2,0-0.2l-0.1,0.1l0,0.1c0,0-0.1,0.2,0,0.2c0.1,0,0.1,0,0.2,0c0.1,0,0.2,0,0.2,0
	s0.1,0.1,0.1,0.1c0,0,0.1,0.1,0.1,0.1c0,0,0,0-0.1,0c0,0-0.1,0-0.1,0c0,0,0,0.1,0,0.1c0,0,0,0,0.1,0c0,0,0.1,0,0.1,0
	c0,0,0,0.1-0.1,0.1c0,0-0.1,0-0.1,0c0,0,0,0,0,0.1c0,0.1,0,0.1,0,0.2c0.1,0,0.1,0.1,0.1,0.1c0,0,0,0,0.1,0c0,0,0.1,0,0.1,0
	s0,0,0,0.1c0,0,0,0,0,0c0,0,0,0,0,0c0,0,0.1,0.1,0.1,0.1c0,0,0,0.1,0,0.1c0,0,0,0.1,0,0.1s0,0,0,0c0,0-0.1,0-0.1,0c0,0-0.1,0-0.1,0
	c0,0-0.1,0-0.1,0c0,0,0,0.1,0,0.1c0,0,0,0,0,0.1s0,0.1,0,0.1c0,0-0.1,0-0.1,0c0,0,0,0,0,0.1c0,0-0.1,0.1-0.1,0.1
	c0,0-0.1-0.1-0.2-0.2c0-0.1,0-0.1,0-0.2c0-0.1,0-0.1-0.1-0.1c-0.1,0-0.1,0.1-0.1,0.2c0,0.1-0.1,0.1,0,0.2c0,0.1,0,0.2,0,0.2
	s-0.1,0.1-0.1,0.1c0,0.1-0.1,0.1-0.1,0.1s0,0.1,0,0.2c0,0.1,0,0.1,0,0.2c0,0,0,0.1,0,0.2c-0.1,0.1-0.1,0.2-0.1,0.2s0,0,0,0.1
	c0,0.1,0.1,0.1,0.1,0.1c0,0,0,0.2,0,0.2s0,0-0.1,0.1c0,0,0,0.2,0,0.2s0,0.1,0,0.1c0,0,0,0.1-0.1,0.2c-0.1,0-0.2,0.1-0.2,0.1
	c0,0-0.1,0.1-0.1,0.1l0,0.1c0,0,0.1-0.1,0.1,0s0.1,0.2,0,0.2c-0.1,0-0.2,0.1-0.2,0.1l0,0.1c0,0-0.1,0-0.1,0.1c0,0.1,0,0.1,0,0.1
	s0.1,0,0.1,0.1c0,0.1-0.1,0.1-0.1,0.1h-0.1L81.3,59c0,0-0.1,0.1-0.1,0.1c0,0,0,0.1,0,0.1c0,0-0.1,0.1-0.1,0.1s0,0,0.1,0
	c0,0,0.1,0,0.1,0.1s0,0.2-0.1,0.2c0,0-0.2,0.1-0.2,0.1s0,0.1,0,0.1c0,0,0,0.2,0,0.2s0.1,0,0.1,0.1c0,0-0.1,0-0.1,0.1
	s0.1,0.2,0.1,0.2s0,0,0,0.1s0.1,0.2,0.1,0.2s0,0.1,0,0.1c0,0-0.1,0-0.1,0.1c0,0.1,0,0.1,0,0.2c0,0-0.1-0.1,0,0
	c0.1,0.1,0.2,0.1,0.2,0.1s0.1,0,0.1-0.1c0-0.1-0.1-0.1,0-0.1c0-0.1,0.2-0.1,0.3-0.1c0,0,0.1,0,0.1,0.1c0,0.1,0,0.1-0.1,0.2
	c-0.1,0.1-0.1,0.2-0.1,0.2s0,0.1-0.1,0.1s-0.2,0-0.3,0c0,0-0.1,0-0.1,0c0,0-0.1,0-0.1,0L81,61.2c0,0-0.1,0-0.1,0c0,0,0,0.1,0,0.1
	c0,0-0.2,0-0.2,0.1s0.1,0.1,0.2,0.1s0.1,0,0.1,0s0.1,0.1,0.1,0.1s0,0.1,0,0.1c0,0,0,0.1,0,0.1c0,0-0.1,0-0.1,0.1
	c0,0.1-0.1,0-0.1,0.1c0,0.1,0,0.2-0.1,0.1c-0.1,0-0.1-0.1-0.1-0.1c0,0-0.1-0.1-0.1-0.1s-0.1-0.1-0.1,0c0,0.1,0,0.1,0,0.2
	c0,0.1,0.1,0,0.1,0.1c0,0.1,0,0.1,0,0.2c0,0.1,0,0.1,0,0.2c0,0-0.1,0-0.1,0.1c-0.1,0-0.2,0-0.2,0s-0.1,0.1-0.1,0.1s0,0.1,0,0.1
	c0,0,0.1,0.1,0.1,0.1c0,0-0.1,0.1-0.1,0.1c0,0,0.1,0.1,0,0.1c-0.1,0.1-0.2,0-0.2,0c-0.1,0-0.1-0.1-0.2-0.1s-0.1,0.1-0.1,0.1
	c0,0.1-0.2,0.2-0.2,0.2c0,0,0-0.2-0.1-0.1c-0.1,0.1-0.1,0.2-0.1,0.2c0,0.1,0.1,0.1,0.1,0.2c0,0,0,0.1,0,0.2s-0.1,0-0.1,0.2
	s-0.1,0.2-0.1,0.3c-0.1,0.1-0.2,0.1-0.2,0.2s-0.1,0.2-0.1,0.2s-0.1,0-0.2,0.1c0,0-0.1,0.1-0.1,0.2s0,0.1,0,0.1s0,0.1-0.1,0.2
	c-0.1,0.1-0.1,0-0.1,0c0,0,0-0.1,0-0.1s0-0.1-0.1-0.1c0,0-0.1,0-0.1,0.1c0,0,0,0.1-0.1,0.1c0,0-0.1,0.1-0.1,0.1c0,0-0.1,0-0.1,0.1
	s0,0.1,0.1,0.1c0,0,0.1,0,0.1,0.1s0,0.1-0.1,0.1c-0.1,0-0.1,0-0.2,0c0,0-0.1,0.1-0.1,0.1l-0.1,0.1c0,0,0.1,0.1,0,0.1
	c-0.1,0-0.2,0-0.2,0l0,0.1c0,0,0,0,0,0.1s0-0.1,0,0.1c0,0.1-0.1,0.1,0,0.2c0,0,0,0.1,0,0.1c0,0,0,0.1,0,0.1c0,0.1-0.1,0.1-0.1,0.1
	s0,0-0.1,0c-0.1,0-0.3,0-0.3,0c0,0-0.1,0-0.1,0.1c0,0-0.1,0.1-0.1,0.1c0,0-0.1,0.1-0.1,0.1c-0.1,0-0.2,0.1-0.2,0.1
	c0,0-0.1,0.1-0.1,0.1s-0.1,0-0.1,0c0,0-0.1-0.1,0-0.1c0,0,0,0-0.1,0c0,0-0.1,0-0.1,0c0,0-0.1,0.1-0.1,0.1c0,0.1,0,0.1,0.1,0.2
	c0,0,0,0.1,0,0.1c0,0-0.1,0-0.1,0c0,0-0.1-0.1-0.1-0.1s-0.2-0.1-0.2-0.1c0,0-0.1,0-0.2,0c-0.1,0-0.2,0.1-0.2,0.1S74.9,68,74.8,68
	c0,0.1,0,0.1,0,0.2c0,0-0.1,0-0.1,0.1c0,0.1,0,0.1-0.1,0.2c-0.1,0-0.2,0-0.2,0s-0.1,0-0.1,0.1c0,0,0,0.1,0,0.1c0,0,0,0.1-0.1,0.1
	c0,0,0.1,0-0.1,0c-0.2,0-0.2,0.1-0.3,0.1c0,0-0.1,0-0.1,0c0,0-0.1,0.1-0.1,0.1c0,0-0.2,0.1-0.2,0.2c0,0.1,0,0.2,0,0.2
	c0,0,0,0.1-0.1,0.1c0,0-0.1,0-0.1,0c0,0-0.1,0-0.1,0c0,0,0-0.1,0-0.1c0,0,0-0.1,0-0.1s0,0-0.1-0.1C73,69,73,69,73,69s-0.1,0-0.1-0.1
	c0,0-0.1-0.1-0.1-0.1c0,0-0.2-0.1-0.2-0.1s0-0.1-0.1,0c0,0-0.1,0.1-0.1,0.1c0,0.1,0,0.1,0.1,0.1c0,0.1,0.1,0.1,0.1,0.1
	c0,0,0.1,0.2,0,0.2c-0.1,0,0,0.2-0.1,0.2c-0.1,0-0.1,0.1-0.1,0.2s-0.1,0.1-0.1,0.1c0,0-0.1,0-0.1,0.1s0,0.1,0,0.1
	C72.1,70,72,70,71.9,70c0,0-0.2-0.1-0.2-0.1s-0.1-0.1-0.1,0c0,0.1,0,0.1,0,0.1c0,0,0,0.1,0,0.2c0,0,0,0.1,0,0.1c0,0-0.1,0.1-0.1,0.1
	c0,0-0.1,0-0.1,0l-0.1,0c0,0,0,0,0,0.1c0,0-0.1,0-0.1,0.1c0,0,0,0,0,0.1c0,0-0.1,0-0.1,0.1c0,0-0.1,0-0.1,0c0,0-0.1-0.1-0.1-0.1
	c0,0-0.1-0.1-0.1-0.1c0,0-0.2,0-0.2,0.1c0.1,0.1,0,0,0.1,0.1c0,0.1,0,0.1,0,0.2c0,0,0,0,0,0c0,0-0.1,0.1-0.1,0.1s0,0-0.1,0
	c0,0,0,0,0,0l-0.1-0.1l-0.2,0c0,0-0.1,0-0.1,0.1c0,0-0.1,0-0.1,0c0,0.1-0.1,0.1-0.1,0.1s0,0,0,0.1c0,0.1-0.1,0.1-0.1,0.1
	c0,0-0.1,0-0.1,0c0,0-0.1,0.1-0.1,0.1s-0.1,0.1-0.2,0.2c-0.1,0.1-0.2,0.1-0.2,0.1s-0.1,0.1-0.1,0.1c0,0-0.1,0.1-0.1,0.1
	c0,0-0.1,0-0.1,0.1c0,0-0.1,0-0.2,0c0,0-0.1,0-0.1,0.1c0,0-0.1,0-0.1,0.1c0,0-0.1,0-0.1,0c0,0-0.1,0-0.1,0.1c0,0-0.1,0-0.1,0
	c0,0-0.1,0-0.1,0.1c0,0,0,0-0.1,0.1c0,0-0.1,0-0.1,0c0,0-0.1,0.1-0.1,0.1s0,0.1,0,0.1c0,0,0,0.1-0.1,0.1s-0.1,0-0.1,0
	c0,0-0.1,0-0.1,0c0,0,0,0.1,0,0.2c0,0.1-0.1,0-0.2,0.1c0,0.1-0.2,0-0.1,0.1c0,0.1,0.2,0.3,0.3,0.3c0.1,0,0.1,0.1,0.2,0.1
	c0.1,0.1,0,0,0.1,0.1c0,0.1,0,0.1,0.1,0.2c0,0.1,0.1,0.1,0,0.1c0,0.1-0.1,0.1-0.1,0.2c0,0-0.1,0-0.1,0.1c0,0.1-0.3,0.2-0.4,0.2
	c-0.1,0-0.3-0.1-0.4-0.1c0,0-0.1-0.3-0.1-0.3c0,0-0.2-0.1-0.2-0.2c0,0,0-0.1,0-0.1c0,0,0-0.1-0.1-0.2c0-0.1-0.2-0.4-0.2-0.4
	c0,0,0-0.1,0.1-0.1c0,0,0-0.1,0.1-0.1c0-0.1,0-0.2,0-0.2c0,0,0,0-0.1,0c-0.1,0-0.2-0.1-0.2-0.1s-0.1-0.1-0.1-0.1c0,0-0.1-0.1-0.2,0
	c0,0,0,0.1-0.1,0.1c0,0.1-0.1,0.1-0.1,0.1c0,0-0.1,0-0.2,0c-0.1,0-0.2,0-0.3,0c0,0-0.2-0.1-0.2-0.1s0,0-0.1,0c0,0-0.1,0-0.2-0.1
	c-0.1,0-0.2-0.1-0.2,0c0,0-0.1,0-0.1,0c0,0-0.1,0-0.1,0s-0.1,0-0.1,0c0,0-0.1,0.1-0.1,0.1c0,0-0.2,0-0.2,0s-0.1,0,0,0.1
	c0,0.1,0,0.1,0,0.1c0,0,0,0-0.1,0.1c-0.1,0-0.2,0.1-0.2,0.1c0,0-0.1,0-0.2,0c0,0,0,0-0.1,0c-0.1,0-0.2,0.1-0.2,0.1
	c0,0-0.1,0.1-0.2,0.1s-0.1,0-0.1,0.1c0,0-0.1,0.1-0.1,0.1c0,0-0.1,0-0.1,0.1c0,0-0.1,0-0.1,0.1c0,0-0.1,0-0.1,0.1c0,0.1-0.4,0-0.4,0
	l-0.3,0c0,0,0,0-0.1-0.1c-0.1,0-0.2-0.1-0.2-0.1s-0.1,0-0.1-0.1C61.2,73.1,61,73,60.9,73c0,0-0.1,0-0.2-0.1c0,0-0.1-0.2-0.2-0.2
	c-0.1,0,0,0.1-0.1,0c0-0.1,0-0.2-0.1-0.3c0-0.1-0.1-0.2-0.1-0.2c0-0.1-0.1-0.2-0.1-0.2c0,0-0.1-0.2-0.1-0.2s0.1-0.2,0.1-0.2
	c0-0.1,0.1-0.1,0.1-0.1l0-0.2c0,0-0.1,0.1-0.1,0c0-0.1-0.1-0.2-0.1-0.2c-0.1,0-0.3,0-0.3,0l0,0.1c0,0-0.1,0.1-0.2,0.1s-0.2,0-0.2,0
	l-0.2-0.1c0,0,0-0.1-0.1-0.1C59.1,70.9,59,71,59,71l-0.1,0.1c0,0-0.2,0-0.2,0c0,0-0.2-0.1-0.2-0.1l-0.1,0l-0.2,0c0,0,0,0-0.1,0
	c-0.1-0.1-0.2-0.2-0.2-0.2l0-0.1l-0.1-0.1c0,0,0,0-0.1,0c-0.1,0-0.2,0.1-0.2,0.1s0,0,0,0.1c0,0-0.1,0.1-0.1,0.1s-0.1,0-0.2,0
	c0,0-0.1,0.1-0.1,0.1L56.9,71c0,0,0,0.1,0,0.2s0,0.1-0.1,0.2c0,0.1-0.1,0.1-0.2,0.2c-0.1,0-0.3,0.1-0.3,0.1s0,0-0.1,0.1
	s0,0.1-0.1,0.1c-0.1,0-0.2,0-0.2,0l-0.1-0.1c0,0-0.1,0-0.1,0c0,0-0.1,0-0.2,0.1c0,0-0.1,0.1-0.1,0.1c0,0.1-0.1,0.1-0.1,0.1
	c0,0,0,0.1,0,0.2c-0.1,0-0.1,0-0.1,0s-0.1-0.1-0.1-0.1S54.9,72,54.9,72s-0.1,0-0.1,0c0,0,0-0.1,0,0c-0.1,0.1-0.1,0.2-0.1,0.2l-0.1,0
	l-0.1,0L54.3,72l-0.2,0.1c0,0,0,0.1-0.1,0.1c0,0.1-0.1,0.2-0.1,0.2s-0.2,0.3-0.3,0.3c0,0-0.2-0.1-0.2-0.1c0,0,0-0.1,0-0.1
	c0,0-0.2-0.1-0.2-0.1l-0.1,0c0,0,0,0-0.1,0c-0.1,0-0.2,0-0.2,0l-0.1,0c0,0-0.1,0.1-0.1,0.1c0,0-0.1,0-0.1,0.1c0,0.1-0.1,0.1-0.1,0.2
	c0,0,0,0.1-0.1,0.1c0,0-0.1,0.1-0.1,0.1s-0.1,0-0.1,0s-0.1,0-0.1,0c0,0-0.1,0.1-0.1,0.1c0,0-0.1,0-0.1,0c0,0-0.2-0.1-0.2-0.1
	s-0.1,0-0.1,0c0,0.1-0.1,0.1-0.1,0.1c0,0.1-0.1,0.1-0.1,0.1c0,0.1-0.1,0.2,0,0.3c0,0.1,0,0.2,0.1,0.2c0.1,0.1,0.1,0.1,0.1,0.1
	c0,0,0,0,0.1,0.1c0.1,0.1,0.1,0.1,0.1,0.3s0,0.3,0,0.4c0,0.1,0,0.2,0,0.2c0,0,0,0,0.1,0.1c0,0.1,0.1,0.1,0.1,0.1s0.1,0.1,0,0.1
	c-0.1,0-0.2,0-0.3,0c-0.1,0-0.3,0-0.3,0s-0.1,0.1-0.1,0.1c0,0-0.1,0-0.1,0c0,0-0.1,0.1-0.1-0.1c0-0.1,0-0.1,0-0.2
	c0-0.1-0.1-0.2-0.1-0.2c0-0.1-0.1-0.1-0.1-0.1c0-0.1-0.1-0.2-0.1-0.2s-0.3-0.1-0.3-0.1c-0.1,0-0.1,0.1-0.2,0.2c0,0-0.2,0.2-0.2,0.2
	c0,0-0.1,0.1-0.2,0.1c0,0-0.3,0-0.3,0l-0.1,0c0,0,0,0-0.1,0s-0.1,0-0.2,0.1c-0.1,0-0.2,0-0.2,0c0-0.1,0-0.1-0.1-0.1
	c0,0-0.1-0.2-0.1-0.2c0,0-0.2-0.1-0.2-0.1c0,0-0.1,0-0.1-0.1c0-0.1,0-0.2-0.1-0.3c0,0-0.1-0.1-0.2-0.1c-0.1,0-0.2,0-0.3,0
	c-0.1,0-0.2,0-0.3,0c-0.1,0-0.3,0-0.4,0c0,0-0.1,0-0.1,0c0,0-0.1,0-0.1-0.1c0,0,0-0.2,0.1-0.3c0-0.1,0.1-0.1,0.1-0.1c0,0,0,0,0-0.1
	c0-0.1,0-0.2,0-0.2c0,0,0,0,0-0.1c0-0.1-0.1-0.1,0-0.2c0.1-0.1,0.1-0.2,0.2-0.3c0.1-0.1,0.1-0.1,0.1-0.2c0,0-0.1-0.1-0.1-0.1
	c0,0-0.2,0-0.3,0c-0.1,0-0.2,0-0.2,0c-0.1,0-0.2,0-0.2-0.1c0,0-0.1-0.1-0.2-0.2c0,0-0.2-0.1-0.2-0.1c0-0.1,0-0.2,0-0.2s0,0,0-0.1
	S46,71.6,46,71.6c0-0.1,0-0.1,0-0.1c0-0.1,0-0.1-0.1-0.1c0-0.1-0.1-0.1-0.1-0.1c0,0,0,0-0.1,0c0-0.1-0.1-0.1-0.1-0.1c0,0,0,0,0-0.1
	c0.1,0,0.1-0.1,0.1-0.1s0-0.1,0-0.2c0,0,0-0.1-0.1-0.1c-0.1,0,0-0.1-0.1,0c-0.1,0-0.3,0.1-0.3,0.1c0,0-0.1,0-0.1,0h-0.1
	c0,0,0,0-0.1,0c-0.1,0-0.2,0-0.2,0c0,0-0.1,0-0.1,0c0,0-0.1,0-0.2,0c-0.1,0-0.2,0.1-0.2,0.1s-0.1,0.1-0.1,0.1c0,0-0.2,0.1-0.2,0.2
	c0,0-0.1,0.1-0.2,0.1c-0.1,0-0.2,0-0.2-0.1c0,0,0.1-0.1,0.1-0.2c0-0.1,0.1-0.2,0.1-0.2s0-0.1,0-0.2c0-0.1,0-0.1,0-0.1
	s-0.1-0.1-0.1-0.1c0,0-0.1-0.1-0.1-0.1c0,0,0-0.1,0-0.1c0,0-0.1-0.1,0-0.1c0-0.1,0-0.1,0.1-0.1c0,0,0-0.1,0.1-0.1
	c0.1,0,0.1-0.1,0.2-0.1c0,0,0,0,0-0.1c0,0,0-0.2,0-0.2S43.7,69,43.8,69c0.1-0.1,0.2-0.1,0.2-0.1c0,0,0.1,0,0.2-0.1
	c0.1,0,0.1,0,0.2-0.1c0-0.1,0-0.2,0.1-0.2s0-0.1,0-0.1c0-0.1,0-0.1,0.1-0.2c0.1,0,0.1,0,0.2-0.1c0.1-0.1,0.1-0.2,0.2-0.2
	c0-0.1,0.1-0.1,0.1-0.1c0.1,0,0,0,0.1,0c0.1,0,0.2,0,0.2-0.1c0,0,0.1-0.1,0-0.1s-0.1,0-0.1-0.1c-0.1-0.1-0.1,0-0.1-0.1
	c0.1-0.1,0.1-0.1,0.1-0.1c0.1,0,0,0.1,0.1,0s0,0,0-0.2c0-0.2,0-0.9,0-1c0-0.1-0.1-0.3-0.1-0.4c0-0.1,0-0.1,0-0.2
	c0-0.1-0.1-0.4-0.1-0.5c0-0.1,0-0.2,0-0.2s-0.1,0-0.1,0c0,0-0.2-0.1-0.2-0.1c0,0-0.2,0-0.2,0c0,0-0.1,0.1-0.2,0.1
	c-0.1,0-0.2,0-0.2-0.1c0-0.1-0.1-0.2-0.1-0.3c0-0.1-0.1-0.1-0.1-0.2c0-0.1-0.1-0.1-0.1-0.2c0-0.1,0-0.1-0.1-0.2
	c-0.1,0-0.2-0.1-0.3-0.1c0,0-0.1-0.1-0.1-0.1c0,0-0.2,0-0.2,0s-0.1-0.1-0.1-0.1l0-0.1c0,0-0.1,0-0.1,0c0,0-0.2,0.1-0.2,0.1
	c0,0.1-0.1,0.2-0.1,0.2c0,0,0.1,0.2-0.1,0.2c-0.2,0-0.3,0-0.3-0.1s0-0.1-0.1-0.1c0,0-0.2,0-0.3,0c-0.1,0-0.1,0-0.2,0
	c-0.1,0-0.2,0-0.2,0l-0.1-0.1c0,0-0.1-0.1-0.1-0.1s-0.1,0-0.1,0c0,0-0.1,0.1-0.1,0.1c0,0-0.1,0-0.1,0c0,0-0.1,0-0.1,0l0-0.1l0.2-0.1
	c0,0,0.1-0.1,0.1-0.1c0,0,0.1-0.2,0.1-0.3c0-0.1,0-0.1,0-0.1c0-0.1-0.2-0.3-0.2-0.3L41,62.4c0,0-0.1,0.1-0.1,0.1
	c0,0-0.1,0.1-0.2,0.1c0,0-0.1-0.1-0.1-0.1c0-0.1,0-0.1,0.1-0.2c0.1-0.1,0.1-0.1,0.1-0.2c0-0.1-0.1-0.2-0.1-0.2s-0.1-0.1-0.1-0.1
	c0,0-0.1-0.1-0.1-0.1s0,0-0.1,0c-0.1,0-0.3,0.1-0.3,0.1S40,61.9,39.9,62s-0.1,0.1-0.1,0.1c-0.1,0-0.2,0-0.2,0.1
	c0,0.1-0.1,0.1-0.1,0.1c0,0.1,0,0.1-0.1,0.1c-0.1,0-0.3,0-0.4,0c0,0-0.1-0.1-0.2-0.1c-0.1,0-0.2,0-0.3,0s-0.2,0-0.2,0
	s-0.2-0.1-0.2-0.1c0,0-0.1-0.1-0.1-0.1c-0.1,0-0.2,0-0.3,0.1c-0.1,0-0.5,0.5-0.5,0.5s-0.1,0-0.2,0.1c0,0.1-0.1,0.1-0.1,0.1
	c0,0.1-0.1,0.1-0.1,0.2c-0.1,0-0.1,0-0.1,0.1c0,0,0,0-0.1,0.1c-0.1,0.1-0.3,0.1-0.3,0.1c0,0-0.2,0-0.3,0c0,0-0.2,0-0.2,0.1
	s-0.1,0-0.1,0.1c0,0.1-0.1,0.2-0.1,0.3c0,0.1-0.2,0.2-0.3,0.3c-0.1,0.1-0.2,0.1-0.2,0.2c0,0-0.1,0.1-0.2,0.1c0,0-0.1,0-0.1,0.1
	c0,0-0.1,0.1-0.1,0.2c0,0-0.1,0.2-0.1,0.2c0,0-0.1,0-0.1,0s0,0.1-0.1,0.1s-0.2,0-0.2,0c-0.1,0-0.1,0-0.2,0.1c-0.1,0-0.2,0.1-0.3,0.1
	c-0.1,0-0.1,0.1-0.3,0c-0.1,0-0.2,0-0.3-0.1c-0.1-0.1-0.1,0-0.2-0.1c0-0.1-0.2-0.2-0.2-0.2c0,0-0.2-0.1-0.2-0.1c0,0-0.2,0-0.3,0
	c0,0-0.1,0.1-0.2,0.1c-0.1,0-0.2,0.1-0.3,0c-0.1,0-0.2-0.1-0.2-0.1c0,0-0.1,0-0.2,0c-0.1,0-0.1,0-0.2,0c-0.1,0-0.3-0.1-0.3-0.1
	c0-0.1,0,0-0.1-0.1c-0.1-0.1-0.2-0.2-0.3-0.2c-0.1,0-0.2,0.1-0.3,0.1c-0.1,0-0.3,0-0.3,0.1c0,0-0.2,0.1-0.2,0.1c0,0-0.2,0.2-0.3,0.3
	c-0.1,0.1-0.3,0.3-0.4,0.4c-0.1,0.1-0.3,0.3-0.3,0.3c0,0-0.1,0.1-0.2,0.1s-0.1,0.1-0.2,0.1c-0.1,0-0.2,0.1-0.2,0
	c0,0-0.1-0.1-0.1-0.2c0-0.1-0.1-0.1,0-0.1s0.1-0.2,0.1-0.2c0-0.1,0-0.1-0.1-0.2c0-0.1-0.1,0-0.1-0.1c0-0.1,0-0.2-0.1-0.2
	c0,0-0.2-0.1-0.2-0.1c0,0-0.1,0-0.2,0.1c-0.1,0-0.3,0.2-0.4,0.2c-0.1,0-0.2,0.1-0.3,0.1c-0.1,0-0.1,0-0.3,0c-0.2,0-0.5,0-0.5,0
	c0,0-0.4,0-0.4,0s-0.2,0-0.3,0s-0.3-0.1-0.3-0.1c0,0-0.3-0.2-0.3-0.2c-0.1-0.1-0.2-0.1-0.2-0.2c0,0-0.1-0.1-0.1-0.1
	c0,0,0,0.1-0.1,0.2c-0.1,0.1-0.1,0.1-0.2,0.2c-0.1,0-0.2,0.1-0.2,0c0-0.1-0.1-0.2-0.2-0.2c-0.1,0-0.2-0.1-0.2-0.1
	c-0.1,0-0.2,0-0.2,0c0,0-0.2-0.1-0.2-0.1c0,0-0.1-0.1-0.2-0.2c-0.1,0-0.4-0.1-0.5-0.1c0,0-0.2,0-0.2-0.1c-0.1-0.1-0.2-0.2-0.2-0.2
	c0-0.1,0-0.2-0.1-0.2c-0.1,0-0.2,0-0.4-0.1s-0.4,0-0.4,0S21,63,21,63c0-0.1-0.1-0.1-0.2-0.2c-0.1-0.1-0.1,0-0.2-0.1
	c-0.1-0.1-0.1-0.1-0.1-0.1c0-0.1-0.1-0.3-0.1-0.3c0,0-0.1-0.1-0.1-0.1c0,0-0.1-0.1-0.2-0.1c-0.1,0-0.1,0-0.2,0s-0.1,0.1-0.1,0.1
	c0,0-0.2,0.1-0.2,0.1c0,0-0.1,0-0.2-0.1c-0.1-0.1-0.1-0.1-0.1-0.2c0-0.1-0.1-0.1-0.1-0.2c0-0.1,0-0.1-0.1-0.1
	c-0.1-0.1-0.1-0.1-0.2-0.1c0,0,0-0.1-0.1-0.1c-0.1,0,0,0-0.1-0.1c-0.1,0-0.1-0.1-0.1-0.1s0,0.1-0.2-0.1c-0.2-0.1-0.3-0.2-0.4-0.2
	c0,0-0.3-0.2-0.4-0.2c0-0.1-0.1-0.1-0.1-0.1c0-0.1-0.1-0.2-0.2-0.2c-0.1,0-0.1-0.1-0.2-0.1c-0.1,0-0.1-0.1-0.1-0.1
	c0,0,0-0.1-0.1-0.1C17,60,16.9,60,16.9,59.9c0,0-0.1-0.1-0.1-0.2s-0.1-0.1-0.3-0.1c-0.2,0-0.3,0-0.4,0.1c0,0-0.1,0-0.1,0.1
	c0,0.1,0,0.1,0,0.2c0,0,0,0.2,0,0.2c0,0-0.1,0.1-0.2,0.1s-0.1,0.1-0.2,0c-0.1-0.1-0.1-0.1-0.1-0.1c0-0.1,0-0.1-0.1-0.2
	c-0.1,0-0.2-0.1-0.3-0.2c-0.1-0.1-0.2-0.1-0.2-0.2c-0.1-0.1-0.1-0.1-0.2-0.1c0,0-0.1-0.1-0.2-0.1c0,0-0.2,0-0.3,0
	c-0.1,0-0.2-0.1-0.2-0.1c0,0,0-0.1,0-0.2c0-0.1-0.1-0.1-0.2-0.2c-0.1-0.1-0.2-0.1-0.2-0.1l-0.1-0.1c0,0-0.2-0.1-0.2-0.1
	s-0.3-0.1-0.3-0.1s0,0,0-0.1c0,0,0-0.1,0-0.1c0-0.1-0.1-0.2-0.1-0.2c0,0-0.2-0.2-0.2-0.2c0,0-0.1,0-0.1,0c0-0.1,0-0.1,0-0.1
	s-0.1-0.1-0.1-0.1c-0.1,0,0,0.1-0.2,0.1c-0.2,0-0.3,0-0.3-0.1c0-0.1,0-0.2,0-0.2c0-0.1,0.1-0.2,0-0.3c0-0.1-0.1-0.1-0.1-0.2
	c0-0.1,0.1-0.1,0.1-0.2c0-0.1,0.1-0.1,0-0.1c-0.1-0.1,0-0.1-0.1-0.1c-0.1-0.1-0.2-0.2-0.2-0.3c0-0.1-0.1-0.1,0-0.2
	c0.1-0.1,0.1-0.2,0.1-0.2s0,0,0-0.1c0-0.1-0.1-0.2,0-0.2c0.1,0,0.3-0.1,0.3,0c0,0,0.1,0.2,0.2,0.3c0.1,0.1,0.2,0.2,0.3,0.2
	c0.1,0,0.2,0,0.2-0.1c0-0.1,0.1-0.1,0.1-0.2c0-0.1,0-0.1,0.1-0.2c0-0.1,0,0,0-0.2s0-0.2,0-0.3s0-0.4,0-0.5c0-0.1,0,0-0.1-0.1
	c-0.1-0.1-0.2-0.2-0.2-0.2c0-0.1,0-0.1-0.1-0.2c0-0.1-0.1-0.1-0.1-0.2c0-0.1,0-0.2,0-0.3c0-0.1,0-0.3,0-0.3c0-0.1,0-0.1,0.1-0.1
	s0.1-0.1,0.2-0.1c0.1,0,0.1,0,0.1-0.1c0-0.1,0-0.1,0-0.2c0,0,0.1,0.1-0.1-0.1c-0.2-0.1-0.2-0.1-0.2-0.2c-0.1-0.1-0.2-0.1-0.3-0.2
	c-0.1,0-0.1,0-0.2-0.1c-0.1-0.1-0.2-0.1-0.2-0.2c0-0.1,0-0.1,0-0.1c0-0.1,0-0.3,0-0.3s0-0.1,0-0.2c0-0.1-0.1-0.1-0.1-0.1
	c-0.1-0.1-0.1-0.1-0.2-0.1c0-0.1-0.1-0.1-0.1-0.1c0-0.1,0-0.2,0-0.2c0-0.1,0-0.1,0-0.1s-0.1,0-0.3-0.1c-0.1,0-0.3,0-0.3-0.1
	c-0.1,0-0.2-0.1-0.2-0.1s-0.1,0-0.2-0.1c-0.1-0.1-0.2-0.1-0.2-0.1c0-0.1,0-0.1-0.1-0.1c-0.1,0-0.3-0.1-0.3-0.1s-0.1-0.1-0.1-0.2
	c0-0.1-0.1-0.1-0.2-0.1c-0.1,0-0.2,0-0.2-0.1c-0.1,0-0.3-0.1-0.3-0.1c0,0-0.2-0.1-0.3-0.2c0-0.1,0-0.4,0.1-0.5
	c0-0.1,0.1-0.2,0.1-0.3c0-0.1-0.1-0.2-0.1-0.3c0-0.1,0-0.1-0.1-0.2c-0.1-0.1-0.1-0.1-0.3-0.2c-0.1-0.1-0.2,0-0.3-0.2
	c0-0.1,0-0.1-0.1-0.2c0,0,0-0.1-0.1-0.1c-0.1-0.1-0.1-0.1-0.2-0.1c-0.1,0-0.2,0-0.3,0c-0.1,0-0.3-0.1-0.4-0.2
	c-0.2-0.1-0.3-0.2-0.2-0.3c0.1-0.1,0.1-0.2,0.1-0.2c0.1,0,0.1,0,0.2,0c0.1,0.1,0.1,0.1,0.2,0.1c0.1,0,0.1,0,0.2,0c0,0,0.2,0,0.2-0.1
	c0-0.1,0.1-0.1,0.1-0.1c0,0,0.1-0.1,0-0.2c-0.1-0.2-0.1-0.2-0.1-0.4c0-0.1,0.1-0.2,0.1-0.4c0-0.1-0.1-0.1-0.1-0.3c0-0.1,0-0.2,0-0.3
	c0-0.1-0.1-0.1,0-0.2c0-0.1,0.1-0.1,0-0.1c0-0.1-0.1-0.1-0.1-0.1c0,0-0.2-0.1-0.2-0.1S7.3,44.1,7.3,44C7.2,44,7,43.9,7,43.9
	c0,0-0.1,0-0.1,0.1c-0.1,0.1,0,0.1-0.1,0.1c-0.1,0-0.3-0.3-0.3-0.4c0-0.1-0.1-0.2,0-0.2c0,0,0-0.1,0-0.1C6.4,43.3,6.4,43.1,6.4,43.1
	z"/>
<g>
	<path class="st1" d="M15.8,7.4c0,0,0,0.1-0.1,0.1c0,0-0.1,0.1-0.2,0.1c-1.2,0.7-2.5,1.4-3.7,2.1c0,0-0.1,0-0.1,0.1
		c-0.1,0.1-0.2,0.1-0.3-0.1c-0.1-0.1-0.2-0.3-0.2-0.4c-0.2-0.4-0.5-0.8-0.7-1.2c-0.1-0.2-0.1-0.2,0.1-0.3c0.1-0.1,0.2-0.1,0.4-0.2
		c1.1-0.6,2.2-1.3,3.4-1.9c0.1-0.1,0.2-0.1,0.3-0.2c0,0,0.1,0,0.1,0c0,0,0.1,0.1,0.1,0.1c0.3,0.5,0.6,1.1,0.9,1.6
		C15.7,7.3,15.7,7.3,15.8,7.4z"/>
	<path class="st2" d="M6.6,34.4c0,0.1-0.1,0.1-0.1,0.2c-0.3,0.3-0.6,0.6-0.9,0.8c-0.2,0.2-0.3,0.3-0.5,0.5c-0.1,0.1-0.2,0.1-0.2,0
		c0,0-0.1-0.1-0.1-0.1c-1-1-1.9-2.1-2.9-3.1c-0.1-0.1-0.1-0.1-0.1-0.2c0,0,0-0.1,0-0.1c0,0,0,0,0.1-0.1c0.5-0.4,0.9-0.9,1.4-1.3
		c0.1-0.1,0.2-0.1,0.3,0c0.4,0.4,0.8,0.9,1.2,1.3c0.6,0.6,1.2,1.3,1.8,1.9C6.5,34.2,6.5,34.3,6.6,34.4z"/>
	<path class="st3" d="M93.3,11.4c0,0,0,0.1-0.1,0.1c-0.6,0.7-1.1,1.5-1.7,2.2c-0.1,0.1-0.2,0.1-0.3,0.1c-0.3-0.3-0.7-0.5-1-0.8
		c-0.1-0.1-0.1-0.1,0-0.2c0.1-0.2,0.3-0.4,0.4-0.6c0.4-0.5,0.8-1.1,1.2-1.6c0.2-0.2,0.2-0.2,0.4,0c0.3,0.2,0.6,0.4,0.9,0.7
		C93.2,11.3,93.3,11.4,93.3,11.4z"/>
	<path class="st3" d="M81.1,25.5c-0.1,0-0.1,0-0.1-0.1c-0.1-0.4-0.2-0.8-0.3-1.2c0-0.2,0-0.2,0.2-0.3c0.5-0.2,1.1-0.3,1.6-0.4
		c0.3-0.1,0.7-0.2,1-0.3c0.2,0,0.2,0,0.3,0.2c0.1,0.4,0.2,0.7,0.3,1.1c0,0.2,0,0.2-0.1,0.3c-0.6,0.2-1.2,0.3-1.7,0.5
		c-0.3,0.1-0.6,0.2-0.9,0.2C81.2,25.4,81.2,25.5,81.1,25.5z"/>
	<path class="st0" d="M14.3,45.9c0.1,0,0.1,0,0.2,0.1c0.1,0.4,0.2,0.9,0.3,1.3c0,0.1,0,0.1-0.1,0.1c-0.1,0-0.1,0.1-0.2,0.1
		c-0.8,0.2-1.6,0.4-2.4,0.6c0,0-0.1,0-0.1,0c-0.1,0-0.2,0-0.2-0.1c-0.1-0.4-0.2-0.7-0.3-1.1c-0.1-0.3,0-0.3,0.2-0.4
		c0.6-0.2,1.2-0.3,1.9-0.5C13.8,46.1,14,46,14.3,45.9z"/>
	<path class="st0" d="M26.1,14.2c0.1,0,0.1,0,0.2,0.1c0.1,0.4,0.2,0.9,0.3,1.3c0,0.1,0,0.1-0.1,0.1c-0.1,0-0.1,0.1-0.2,0.1
		c-0.8,0.2-1.6,0.4-2.4,0.6c0,0-0.1,0-0.1,0c-0.1,0-0.2,0-0.2-0.1c-0.1-0.4-0.2-0.7-0.3-1.1c-0.1-0.3,0-0.3,0.2-0.4
		c0.6-0.2,1.2-0.3,1.9-0.5C25.6,14.4,25.8,14.3,26.1,14.2z"/>
	<path class="st0" d="M97.7,48.4c0,0.1,0,0.2-0.1,0.2c0,0-0.1,0-0.1,0c-0.9,0.2-1.7,0.5-2.6,0.7c-0.2,0-0.2,0-0.3-0.1
		c-0.1-0.4-0.2-0.8-0.3-1.2c0-0.1,0-0.2,0.1-0.2c0.5-0.2,1.1-0.3,1.6-0.4c0.3-0.1,0.7-0.2,1-0.3c0.1,0,0.2,0,0.2,0.1
		C97.5,47.6,97.6,48,97.7,48.4z"/>
	<path class="st2" d="M83.1,39.6c0,0.1,0,0.1-0.1,0.2c-0.4,0.1-0.9,0.2-1.3,0.3c-0.1,0-0.1,0-0.2-0.1c-0.1-0.4-0.2-0.7-0.3-1.1
		c-0.1-0.5-0.3-1.1-0.4-1.6c0-0.2,0-0.2,0.1-0.2c0.4-0.1,0.8-0.2,1.2-0.3c0.1,0,0.1,0,0.2,0.1c0,0.1,0,0.1,0.1,0.2
		c0.2,0.8,0.4,1.7,0.6,2.5C83.1,39.5,83.1,39.5,83.1,39.6z"/>
	<path class="st3" d="M28.7,2.4c0,0,0,0.1-0.1,0.1c-0.2,0.3-0.4,0.5-0.6,0.8c-0.3,0.4-0.7,0.9-1,1.3c-0.2,0.2-0.2,0.2-0.4,0
		c-0.3-0.2-0.6-0.5-0.9-0.7c-0.1-0.1-0.1-0.1,0-0.2c0-0.1,0.1-0.1,0.1-0.2c0.5-0.6,1-1.3,1.5-1.9c0.1-0.1,0.1-0.1,0.2-0.2
		c0,0,0.1-0.1,0.2,0C27.9,1.8,28.3,2.1,28.7,2.4C28.6,2.4,28.6,2.4,28.7,2.4z"/>
	<path class="st0" d="M94.3,28.1c-0.6,0-1.1-0.5-1.1-1.1c0-0.6,0.5-1.1,1.1-1.1c0.6,0,1.1,0.5,1.1,1.1
		C95.4,27.7,94.9,28.1,94.3,28.1z M95,27c0-0.5-0.4-0.7-0.8-0.7c-0.4,0-0.7,0.3-0.7,0.8c0,0.4,0.3,0.7,0.7,0.7
		C94.7,27.8,95,27.4,95,27z"/>
	<path class="st3" d="M76.3,27.2c0.6,0,1.1,0.5,1.1,1.1c0,0.6-0.5,1.1-1.1,1.1c-0.6,0-1.1-0.5-1.1-1.1
		C75.2,27.7,75.7,27.3,76.3,27.2z M77.1,28.3c0-0.4-0.4-0.7-0.7-0.7c-0.4,0-0.7,0.4-0.7,0.8c0,0.4,0.4,0.7,0.7,0.7
		C76.7,29.1,77.1,28.7,77.1,28.3z"/>
	<path class="st0" d="M2.7,52.4c0,0.6-0.4,1-1,1c-0.6,0-1-0.4-1-1c0-0.6,0.4-1,1-1C2.2,51.3,2.7,51.8,2.7,52.4z M1.6,51.7
		c-0.4,0-0.7,0.3-0.6,0.7c0,0.4,0.3,0.6,0.7,0.6c0.4,0,0.7-0.3,0.6-0.7C2.3,52,2,51.7,1.6,51.7z"/>
	<path class="st0" d="M14.3,21.4c0,0.6-0.4,1-1,1c-0.6,0-1-0.4-1-1c0-0.6,0.4-1,1-1C13.8,20.4,14.3,20.9,14.3,21.4z M13.2,20.8
		c-0.4,0-0.7,0.3-0.6,0.7c0,0.4,0.3,0.6,0.7,0.6c0.4,0,0.7-0.3,0.6-0.7C13.9,21,13.6,20.8,13.2,20.8z"/>
	<path class="st2" d="M21.7,41.1c-0.6,0-1-0.5-1-1c0-0.6,0.5-1,1-1c0.6,0,1,0.5,1,1C22.8,40.6,22.3,41.1,21.7,41.1z M21.8,39.4
		c-0.4,0-0.7,0.3-0.7,0.7c0,0.3,0.3,0.6,0.6,0.7c0.4,0,0.7-0.3,0.7-0.7C22.4,39.7,22.1,39.4,21.8,39.4z"/>
	<path class="st0" d="M2.1,18.3c0,0.6-0.5,1-1,1c-0.6,0-1-0.5-1-1.1c0-0.6,0.5-1,1.1-1C1.6,17.3,2.1,17.8,2.1,18.3z M1.7,18.3
		c0-0.4-0.3-0.6-0.6-0.7c-0.4,0-0.7,0.3-0.7,0.7c0,0.4,0.3,0.7,0.7,0.7C1.4,19,1.7,18.7,1.7,18.3z"/>
	<path class="st1" d="M78.4,7.3c0-0.4,0.3-0.8,0.8-0.7c0.4,0,0.7,0.3,0.7,0.7c0,0.4-0.3,0.8-0.8,0.7C78.7,8,78.4,7.7,78.4,7.3z
		 M78.7,7.3c0,0.2,0.2,0.4,0.4,0.4c0.2,0,0.4-0.2,0.3-0.4c0-0.2-0.2-0.3-0.4-0.3C78.9,6.9,78.7,7.1,78.7,7.3z"/>
	<path class="st1" d="M21.8,4.7c0.4,0,0.7,0.3,0.7,0.8c0,0.4-0.3,0.7-0.7,0.7c-0.4,0-0.7-0.3-0.7-0.7C21,5,21.3,4.7,21.8,4.7z
		 M22.1,5.4C22.1,5.2,22,5,21.7,5c-0.2,0-0.4,0.2-0.4,0.4c0,0.2,0.2,0.3,0.4,0.4C21.9,5.8,22.1,5.6,22.1,5.4z"/>
	<path class="st2" d="M93,37c-0.4,0-0.7-0.3-0.7-0.7c0-0.4,0.3-0.8,0.8-0.7c0.4,0,0.7,0.3,0.7,0.7C93.8,36.7,93.4,37,93,37z
		 M93,35.9c-0.2,0-0.4,0.2-0.4,0.4c0,0.2,0.2,0.4,0.4,0.4c0.2,0,0.3-0.2,0.3-0.4C93.4,36.1,93.2,35.9,93,35.9z"/>
	<path class="st2" d="M13.1,34.1c0,0.4-0.3,0.7-0.7,0.8c-0.4,0-0.8-0.3-0.8-0.7c0-0.4,0.3-0.7,0.7-0.8
		C12.7,33.3,13.1,33.6,13.1,34.1z M12.7,34.1c0-0.2-0.2-0.4-0.4-0.4c-0.2,0-0.4,0.2-0.3,0.4c0,0.2,0.2,0.3,0.4,0.3
		C12.6,34.5,12.7,34.3,12.7,34.1z"/>
</g>
<g>
	<line class="st4" x1="28.5" y1="7.1" x2="45" y2="57.3"/>
	<g>
		<path class="st5" d="M72.1,22.3c-6,5.1-13.8,4.9-21.1,5.9c-2.4-7.3-4.8-14.7-7.3-22c7.3-1.1,15.1-1,21-6.2
			C67.2,7.4,69.6,14.9,72.1,22.3z"/>
		<path d="M53.9,4.9c2,6.2,4.1,12.3,6.1,18.5c-2.7,1.8-5.5,3.2-8.2,4.8c-0.3,0-0.5,0.1-0.8,0.1c-2.4-7.3-4.8-14.7-7.3-22
			C47.1,5.8,50.5,5.5,53.9,4.9z"/>
		<path class="st5" d="M58.4,22.8C50.7,24,42.5,23.6,36.2,29c-2.4-7.3-4.8-14.6-7.2-21.9C35.3,1.6,43.5,2,51.1,0.7
			C53.5,8,56,15.4,58.4,22.8z"/>
		<g>
			<path class="st6" d="M36,6.8c0.5,0.7,1,1.4,1.6,2.1c0.8-0.3,1.7-0.5,2.6-0.7c-0.5,0.7-1.1,1.3-1.6,2c0.5,0.7,1,1.4,1.6,2.2
				c-0.9-0.3-1.7-0.6-2.5-0.8c-0.5,0.7-1,1.5-1.5,2.3c0-0.9,0-1.8,0-2.7c-0.8-0.2-1.6-0.4-2.4-0.5c0.8-0.5,1.6-0.9,2.4-1.2
				C36,8.6,36,7.7,36,6.8z"/>
			<path class="st6" d="M42.4,4c0.1,0.3,0.1,0.5,0.2,0.8c0.3,0.1,0.6,0.1,0.9,0.2c-0.2,0.1-0.5,0.2-0.7,0.3c0.1,0.3,0.1,0.5,0.2,0.8
				c-0.2-0.2-0.4-0.4-0.7-0.6c-0.2,0.1-0.5,0.2-0.7,0.3c0.1-0.2,0.2-0.5,0.3-0.7c-0.2-0.2-0.4-0.4-0.7-0.6c0.3,0,0.6,0.1,0.9,0.2
				C42.1,4.4,42.2,4.2,42.4,4z"/>
			<path class="st6" d="M46.3,6.3c-0.1,0.2-0.1,0.5-0.2,0.7c0.3,0.2,0.5,0.3,0.8,0.5c-0.3,0-0.6,0-0.9,0c-0.1,0.2-0.1,0.5-0.2,0.7
				c-0.1-0.3-0.2-0.5-0.4-0.8c-0.3,0-0.6,0-0.9,0C44.8,7.3,45,7.2,45.2,7c-0.1-0.3-0.2-0.5-0.4-0.8c0.3,0.2,0.5,0.3,0.8,0.5
				C45.8,6.6,46,6.5,46.3,6.3z"/>
			<path class="st6" d="M46.4,9.8c0.2,0.2,0.3,0.5,0.5,0.7c0.3,0,0.6-0.1,0.8-0.1c-0.2,0.2-0.4,0.4-0.5,0.5c0.2,0.2,0.3,0.5,0.5,0.7
				c-0.3-0.1-0.6-0.3-0.8-0.4c-0.2,0.2-0.4,0.4-0.5,0.5c0-0.3,0-0.5,0-0.8c-0.3-0.1-0.6-0.3-0.8-0.4c0.3,0,0.6-0.1,0.8-0.1
				C46.4,10.3,46.4,10.1,46.4,9.8z"/>
			<path class="st6" d="M45.2,12.6c0.1,0.3,0.1,0.5,0.2,0.8c0.3,0.1,0.6,0.1,0.9,0.2c-0.2,0.1-0.5,0.2-0.7,0.3
				c0.1,0.3,0.1,0.5,0.2,0.8c-0.2-0.2-0.4-0.4-0.7-0.6c-0.2,0.1-0.5,0.2-0.7,0.3c0.1-0.2,0.2-0.5,0.3-0.7c-0.2-0.2-0.4-0.4-0.7-0.6
				c0.3,0,0.6,0.1,0.9,0.2C45,13.1,45.1,12.8,45.2,12.6z"/>
		</g>
		<path d="M58.5,22.8c-2.5,1.9-5,3.6-7.5,5.5c-0.5-1.5-1-2.9-1.4-4.4C52.5,23.4,55.5,23.2,58.5,22.8z"/>
	</g>
</g>
</svg>
