<!-- Generator: Adobe Illustrator 24.2.3, SVG Export Plug-In  -->
<svg version="1.1" xmlns="http://www.w3.org/2000/svg" xmlns:xlink="http://www.w3.org/1999/xlink" x="0px" y="0px" width="396.2px"
	 height="278.8px" viewBox="0 0 396.2 278.8" style="overflow:visible;enable-background:new 0 0 396.2 278.8;"
	 xml:space="preserve">
<style type="text/css">
	.st0{fill:#F5F4EF;}
	.st1{fill:none;stroke:#000000;stroke-width:2.9465;stroke-linecap:round;stroke-miterlimit:10;}
	.st2{fill:#FFFFFF;}
	.st3{fill:#C91D42;}
	.st4{fill:#1F2E7A;}
	.st5{fill:#2E45B8;}
	.st6{fill:#475ED1;}
	.st7{fill:#141F52;}
	.st8{fill:#D6DBF5;}
</style>
<defs>
</defs>
<ellipse class="st0" cx="198.1" cy="234.4" rx="194.9" ry="44.4"/>
<g>
	<g>
		<path class="st0" d="M0,107.7c7.7-11.5,27.4-12.1,39.5-9.6c3.2-18.5,28.7-26.8,30.6-3.2c6.4-3.2,14.7-3.8,17.2,3.8
			c8.3-2.6,15.8,2.9,22.2,8.6C72.9,107.4,0,107.7,0,107.7z"/>
	</g>
	<g>
		<path class="st0" d="M207.8,42.9c7.3-7.6,21-6.1,30.6-6.5l0,0c2.7-7.6,8.4-14.9,16.4-16.8c6.1-1.5,15.7-1.1,17.2,6.5
			c0,0-0.6-19.5,19-19.5c19.6,0,15.4,21.4,15.4,21.4c9.6-7.3,20.6-8,27.9,2.7c1.9,2.7,0.8,3.8,3.8,4.6c1.5,0.8,5.7-0.4,8,0
			c5,0.8,14.5,7.6,14.5,7.6H207.8z"/>
	</g>
	<g>
		<path class="st0" d="M182.5,57.6c-12.3-8.9-21.1-16.2-36.9-11.8c-2-18.2-20.2-17.7-32.5-6.4C119.6,12.3,81.6-2,62.4,12.8
			c-23.7,17.7-8.7,36.8,3,39.4c-5.9,0-10.7,2.8-10.6,5.4C99.1,57.6,182.5,57.6,182.5,57.6z"/>
	</g>
	<path class="st0" d="M368.9,99.6c-1.4-3.4-4.7-5.8-8.5-5.8c-1.3,0-2.6,0.3-3.8,0.8c0.7-1.7,1.1-3.6,1.1-5.5
		c0-7.7-6.2-13.9-13.9-13.9c-1.5,0-2.9,0.2-4.3,0.7c-4.1-5.7-10.8-9.4-18.4-9.4c-12.5,0-22.7,10.1-22.7,22.7c0,0.2,0,0.3,0,0.5
		c0,0,0,0,0,0c-5.2,0-9.4,4.2-9.4,9.4c0,0.2,0,0.4,0,0.6H368.9z"/>
</g>
<g id="Layer_2_1_">
	<g>
		<path class="st1" d="M198.8,3.2c0,36.3,0,72.5,0,108.8"/>
		<g>
			<path id="_x35_9_2_" class="st2" d="M229.1,11.7c15.3,3.3,30.5,9.1,45.7,0.9c0.1,16.3,0.2,32.6,0.3,48.9
				c-15.2,8-30.5,2.1-45.7-1.5C229.3,43.9,229.2,27.8,229.1,11.7z"/>
			<path id="_x35_8_2_" class="st3" d="M229.1,11.7c15.3,3.3,30.5,9.1,45.7,0.9c0,1.3,0,2.5,0,3.8c-15.2,8.1-30.5,2.4-45.7-0.9
				C229.1,14.2,229.1,12.9,229.1,11.7z"/>
			<path id="_x35_7_2_" class="st3" d="M229.1,19.1c15.3,3.4,30.5,9.1,45.7,1c0,1.3,0,2.5,0,3.8c-15.2,8.1-30.5,2.4-45.7-1
				C229.1,21.6,229.1,20.4,229.1,19.1z"/>
			<path id="_x35_6_2_" class="st3" d="M229.2,26.6c15.3,3.4,30.5,9.2,45.7,1.1c0,1.3,0,2.5,0,3.8c-15.2,8.1-30.5,2.3-45.7-1.1
				C229.2,29,229.2,27.8,229.2,26.6z"/>
			<path id="_x35_5_2_" class="st3" d="M229.2,34c15.3,3.4,30.5,9.2,45.7,1.2c0,1.3,0,2.5,0,3.8c-15.2,8.1-30.5,2.2-45.7-1.2
				C229.2,36.5,229.2,35.2,229.2,34z"/>
			<path id="_x35_4_2_" class="st3" d="M229.3,41.4c15.3,3.5,30.5,9.3,45.7,1.2c0,1.3,0,2.5,0,3.8c-15.2,8-30.5,2.2-45.7-1.3
				C229.3,43.9,229.3,42.7,229.3,41.4z"/>
			<path id="_x35_3_2_" class="st3" d="M229.3,48.9c15.3,3.5,30.5,9.3,45.7,1.3c0,1.3,0,2.5,0,3.8c-15.2,8-30.5,2.1-45.7-1.4
				C229.3,51.3,229.3,50.1,229.3,48.9z"/>
			<path id="_x35_2_2_" class="st3" d="M229.3,56.3c15.3,3.5,30.5,9.4,45.7,1.4c0,1.3,0,2.5,0,3.8c-15.2,8-30.5,2.1-45.7-1.5
				C229.4,58.8,229.3,57.5,229.3,56.3z"/>
			<path d="M250.2,16.3c0,13.5,0,26.9,0,40.4c-6.4,1.6-12.9,2.3-19.3,3.4c-0.5-0.1-1.1-0.3-1.6-0.4c0-16,0-32,0-48
				C236.3,13.3,243.2,15.4,250.2,16.3z"/>
			<path d="M247.6,54.6c-6.1,2.1-12.2,3.4-18.3,5.2c0-3.2,0-6.4,0-9.6C235.4,51.6,241.5,53.4,247.6,54.6z"/>
		</g>
		<g>
			<path id="_x35_9_1_" class="st2" d="M199.9,2.7c15.8-6.5,31.6,0.6,47.4,3.3c0.1,16.2,0.2,32.4,0.3,48.6
				c-15.8-2.9-31.7-10.2-47.4-3.9C200.1,34.7,200,18.7,199.9,2.7z"/>
			<path id="_x35_8_1_" class="st3" d="M199.9,2.7c15.8-6.5,31.6,0.6,47.4,3.3c0,1.2,0,2.5,0,3.7c-15.8-2.7-31.7-9.9-47.4-3.3
				C199.9,5.1,199.9,3.9,199.9,2.7z"/>
			<path id="_x35_7_1_" class="st3" d="M200,10.1c15.8-6.5,31.6,0.7,47.4,3.4c0,1.2,0,2.5,0,3.7c-15.8-2.7-31.7-9.9-47.4-3.4
				C200,12.5,200,11.3,200,10.1z"/>
			<path id="_x35_6_1_" class="st3" d="M200,17.4c15.8-6.5,31.6,0.7,47.4,3.5c0,1.2,0,2.5,0,3.7c-15.8-2.8-31.7-10-47.4-3.5
				C200,19.9,200,18.7,200,17.4z"/>
			<path id="_x35_5_1_" class="st3" d="M200,24.8c15.8-6.5,31.6,0.8,47.4,3.6c0,1.2,0,2.5,0,3.7c-15.8-2.8-31.7-10-47.4-3.6
				C200.1,27.3,200,26.1,200,24.8z"/>
			<path id="_x35_4_1_" class="st3" d="M200.1,32.2c15.8-6.4,31.6,0.8,47.4,3.7c0,1.2,0,2.5,0,3.7c-15.8-2.8-31.7-10.1-47.4-3.7
				C200.1,34.7,200.1,33.4,200.1,32.2z"/>
			<path id="_x35_3_1_" class="st3" d="M200.1,39.6c15.8-6.4,31.6,0.9,47.4,3.7c0,1.2,0,2.5,0,3.7c-15.8-2.9-31.7-10.2-47.4-3.8
				C200.1,42,200.1,40.8,200.1,39.6z"/>
			<path id="_x35_2_1_" class="st3" d="M200.2,47c15.8-6.4,31.6,1,47.4,3.8c0,1.2,0,2.5,0,3.7c-15.8-2.9-31.7-10.2-47.4-3.9
				C200.2,49.4,200.2,48.2,200.2,47z"/>
			<path id="_x35_1_1_" class="st4" d="M199.9,2.7c12.2-5.1,24.5-1.9,36.8,1c0,8.7,0.1,17.4,0.1,26.1c-12.3-3-24.6-6.3-36.8-1.3
				C200,19.9,200,11.3,199.9,2.7z"/>
			<path id="_x35_0_1_" class="st2" d="M201.7,4.1c0.3,0.1,0.6,0.2,0.9,0.3c-0.1,0.4-0.2,0.8-0.3,1.1c0.3-0.3,0.6-0.6,0.9-0.9
				c0.3,0.1,0.6,0.2,0.9,0.4c-0.1-0.3-0.2-0.6-0.3-0.9c0.3-0.3,0.6-0.6,0.9-0.9c-0.4,0.1-0.7,0.2-1.1,0.3c-0.1-0.3-0.2-0.6-0.3-0.9
				c-0.1,0.4-0.2,0.8-0.3,1.1C202.4,3.9,202,4,201.7,4.1z"/>
			<path id="_x34_9_1_" class="st2" d="M207.7,2.6c0.3,0.2,0.6,0.3,0.9,0.5c-0.1,0.4-0.2,0.7-0.3,1.1c0.3-0.3,0.6-0.5,0.9-0.7
				c0.3,0.2,0.6,0.4,0.9,0.5c-0.1-0.3-0.2-0.7-0.3-1c0.3-0.2,0.6-0.5,0.9-0.7c-0.4,0-0.7,0.1-1.1,0.1c-0.1-0.3-0.2-0.7-0.3-1
				c-0.1,0.4-0.2,0.7-0.3,1.1C208.5,2.5,208.1,2.5,207.7,2.6z"/>
			<path id="_x34_8_1_" class="st2" d="M213.8,2.1c0.3,0.2,0.6,0.4,0.9,0.6c-0.1,0.3-0.2,0.7-0.3,1c0.3-0.2,0.6-0.4,0.9-0.6
				c0.3,0.2,0.6,0.4,0.9,0.7c-0.1-0.3-0.2-0.7-0.3-1c0.3-0.2,0.6-0.4,0.9-0.6c-0.4,0-0.7,0-1.1,0c-0.1-0.3-0.2-0.7-0.3-1
				c-0.1,0.3-0.2,0.7-0.3,1C214.6,2.1,214.2,2.1,213.8,2.1z"/>
			<path id="_x34_7_1_" class="st2" d="M219.9,2.5c0.3,0.2,0.6,0.5,0.9,0.7c-0.1,0.3-0.2,0.7-0.3,1c0.3-0.2,0.6-0.3,0.9-0.5
				c0.3,0.3,0.6,0.5,0.9,0.8c-0.1-0.4-0.2-0.7-0.3-1.1c0.3-0.2,0.6-0.3,0.9-0.5c-0.4-0.1-0.7-0.1-1.1-0.2c-0.1-0.4-0.2-0.7-0.3-1.1
				c-0.1,0.3-0.2,0.7-0.3,1C220.7,2.5,220.3,2.5,219.9,2.5z"/>
			<path id="_x34_6_1_" class="st2" d="M226.1,3.4c0.3,0.3,0.6,0.5,0.9,0.8c-0.1,0.3-0.2,0.6-0.3,1c0.3-0.2,0.6-0.3,0.9-0.5
				c0.3,0.3,0.6,0.5,0.9,0.8c-0.1-0.4-0.2-0.7-0.3-1.1c0.3-0.2,0.6-0.3,0.9-0.4c-0.4-0.1-0.7-0.2-1.1-0.2c-0.1-0.4-0.2-0.7-0.3-1.1
				c-0.1,0.3-0.2,0.6-0.3,1C226.8,3.6,226.4,3.5,226.1,3.4z"/>
			<path id="_x34_5_1_" class="st2" d="M232.2,4.7c0.3,0.3,0.6,0.6,0.9,0.8c-0.1,0.3-0.2,0.6-0.3,1c0.3-0.1,0.6-0.3,0.9-0.4
				c0.3,0.3,0.6,0.6,0.9,0.8c-0.1-0.4-0.2-0.7-0.3-1.1c0.3-0.1,0.6-0.3,0.9-0.4c-0.4-0.1-0.7-0.2-1.1-0.3c-0.1-0.4-0.2-0.7-0.3-1.1
				c-0.1,0.3-0.2,0.6-0.3,1C232.9,4.9,232.5,4.8,232.2,4.7z"/>
			<path id="_x34_4_1_" class="st2" d="M204.7,5.8c0.3,0.1,0.6,0.3,0.9,0.4c-0.1,0.4-0.2,0.7-0.3,1.1c0.3-0.3,0.6-0.6,0.9-0.8
				c0.3,0.2,0.6,0.3,0.9,0.5c-0.1-0.3-0.2-0.6-0.3-1c0.3-0.3,0.6-0.5,0.9-0.8c-0.4,0.1-0.7,0.1-1.1,0.2c-0.1-0.3-0.2-0.6-0.3-1
				c-0.1,0.4-0.2,0.7-0.3,1.1C205.4,5.6,205.1,5.7,204.7,5.8z"/>
			<path id="_x34_3_1_" class="st2" d="M210.8,4.8c0.3,0.2,0.6,0.4,0.9,0.6c-0.1,0.3-0.2,0.7-0.3,1c0.3-0.2,0.6-0.5,0.9-0.7
				c0.3,0.2,0.6,0.4,0.9,0.6c-0.1-0.3-0.2-0.7-0.3-1c0.3-0.2,0.6-0.4,0.9-0.6c-0.4,0-0.7,0-1.1,0c-0.1-0.3-0.2-0.7-0.3-1
				c-0.1,0.3-0.2,0.7-0.3,1C211.5,4.8,211.2,4.8,210.8,4.8z"/>
			<path id="_x34_2_1_" class="st2" d="M216.9,4.8c0.3,0.2,0.6,0.5,0.9,0.7c-0.1,0.3-0.2,0.7-0.3,1c0.3-0.2,0.6-0.4,0.9-0.6
				c0.3,0.2,0.6,0.5,0.9,0.7c-0.1-0.4-0.2-0.7-0.3-1.1c0.3-0.2,0.6-0.4,0.9-0.5c-0.4,0-0.7-0.1-1.1-0.1c-0.1-0.4-0.2-0.7-0.3-1.1
				c-0.1,0.3-0.2,0.7-0.3,1C217.6,4.8,217.3,4.8,216.9,4.8z"/>
			<path id="_x34_1_1_" class="st2" d="M223,5.5c0.3,0.3,0.6,0.5,0.9,0.8c-0.1,0.3-0.2,0.6-0.3,1c0.3-0.2,0.6-0.3,0.9-0.5
				c0.3,0.3,0.6,0.5,0.9,0.8c-0.1-0.4-0.2-0.7-0.3-1.1c0.3-0.2,0.6-0.3,0.9-0.5c-0.4-0.1-0.7-0.1-1.1-0.2c-0.1-0.4-0.2-0.7-0.3-1.1
				c-0.1,0.3-0.2,0.6-0.3,1C223.7,5.6,223.4,5.5,223,5.5z"/>
			<path id="_x34_0_1_" class="st2" d="M229.1,6.7c0.3,0.3,0.6,0.6,0.9,0.8c-0.1,0.3-0.2,0.6-0.3,1c0.3-0.1,0.6-0.3,0.9-0.4
				c0.3,0.3,0.6,0.6,0.9,0.8c-0.1-0.4-0.2-0.7-0.3-1.1c0.3-0.1,0.6-0.3,0.9-0.4c-0.4-0.1-0.7-0.2-1.1-0.3c-0.1-0.4-0.2-0.7-0.3-1.1
				c-0.1,0.3-0.2,0.6-0.3,1C229.8,6.8,229.5,6.7,229.1,6.7z"/>
			<path id="_x33_9_1_" class="st2" d="M201.7,9.3c0.3,0.1,0.6,0.2,0.9,0.3c-0.1,0.4-0.2,0.8-0.3,1.1c0.3-0.3,0.6-0.6,0.9-0.9
				c0.3,0.1,0.6,0.2,0.9,0.4c-0.1-0.3-0.2-0.6-0.3-0.9c0.3-0.3,0.6-0.6,0.9-0.9c-0.4,0.1-0.7,0.2-1.1,0.3c-0.1-0.3-0.2-0.6-0.3-0.9
				c-0.1,0.4-0.2,0.7-0.3,1.1C202.4,9.1,202,9.2,201.7,9.3z"/>
			<path id="_x33_8_1_" class="st2" d="M207.8,7.8c0.3,0.2,0.6,0.3,0.9,0.5c-0.1,0.4-0.2,0.7-0.3,1.1c0.3-0.3,0.6-0.5,0.9-0.7
				c0.3,0.2,0.6,0.4,0.9,0.5c-0.1-0.3-0.2-0.7-0.3-1c0.3-0.2,0.6-0.5,0.9-0.7c-0.4,0-0.7,0.1-1.1,0.1c-0.1-0.3-0.2-0.7-0.3-1
				c-0.1,0.4-0.2,0.7-0.3,1.1C208.5,7.7,208.1,7.7,207.8,7.8z"/>
			<path id="_x33_7_1_" class="st2" d="M213.9,7.3c0.3,0.2,0.6,0.4,0.9,0.6c-0.1,0.3-0.2,0.7-0.3,1c0.3-0.2,0.6-0.4,0.9-0.6
				c0.3,0.2,0.6,0.4,0.9,0.7c-0.1-0.3-0.2-0.7-0.3-1c0.3-0.2,0.6-0.4,0.9-0.6c-0.4,0-0.7,0-1.1-0.1c-0.1-0.3-0.2-0.7-0.3-1
				c-0.1,0.3-0.2,0.7-0.3,1C214.6,7.3,214.2,7.3,213.9,7.3z"/>
			<path id="_x33_6_1_" class="st2" d="M220,7.7c0.3,0.2,0.6,0.5,0.9,0.7c-0.1,0.3-0.2,0.7-0.3,1c0.3-0.2,0.6-0.3,0.9-0.5
				c0.3,0.3,0.6,0.5,0.9,0.8c-0.1-0.4-0.2-0.7-0.3-1.1c0.3-0.2,0.6-0.3,0.9-0.5c-0.4-0.1-0.7-0.1-1.1-0.2c-0.1-0.4-0.2-0.7-0.3-1.1
				c-0.1,0.3-0.2,0.7-0.3,1C220.7,7.8,220.3,7.7,220,7.7z"/>
			<path id="_x33_5_1_" class="st2" d="M226.1,8.6c0.3,0.3,0.6,0.5,0.9,0.8c-0.1,0.3-0.2,0.6-0.3,1c0.3-0.2,0.6-0.3,0.9-0.5
				c0.3,0.3,0.6,0.5,0.9,0.8c-0.1-0.4-0.2-0.7-0.3-1.1c0.3-0.2,0.6-0.3,0.9-0.4c-0.4-0.1-0.7-0.2-1.1-0.2c-0.1-0.4-0.2-0.7-0.3-1.1
				c-0.1,0.3-0.2,0.6-0.3,1C226.8,8.8,226.4,8.7,226.1,8.6z"/>
			<path id="_x33_4_1_" class="st2" d="M232.2,10c0.3,0.3,0.6,0.6,0.9,0.8c-0.1,0.3-0.2,0.6-0.3,1c0.3-0.1,0.6-0.3,0.9-0.4
				c0.3,0.3,0.6,0.6,0.9,0.8c-0.1-0.4-0.2-0.7-0.3-1.1c0.3-0.1,0.6-0.3,0.9-0.4c-0.4-0.1-0.7-0.2-1.1-0.3c-0.1-0.4-0.2-0.7-0.3-1.1
				c-0.1,0.3-0.2,0.6-0.3,1C232.9,10.1,232.6,10,232.2,10z"/>
			<path id="_x33_3_1_" class="st2" d="M204.8,11c0.3,0.1,0.6,0.3,0.9,0.4c-0.1,0.4-0.2,0.7-0.3,1.1c0.3-0.3,0.6-0.6,0.9-0.8
				c0.3,0.2,0.6,0.3,0.9,0.5c-0.1-0.3-0.2-0.6-0.3-1c0.3-0.3,0.6-0.5,0.9-0.8c-0.4,0.1-0.7,0.1-1.1,0.2c-0.1-0.3-0.2-0.6-0.3-1
				c-0.1,0.4-0.2,0.7-0.3,1.1C205.5,10.8,205.2,10.9,204.8,11z"/>
			<path id="_x33_2_1_" class="st2" d="M210.9,10c0.3,0.2,0.6,0.4,0.9,0.6c-0.1,0.3-0.2,0.7-0.3,1c0.3-0.2,0.6-0.5,0.9-0.7
				c0.3,0.2,0.6,0.4,0.9,0.6c-0.1-0.3-0.2-0.7-0.3-1c0.3-0.2,0.6-0.4,0.9-0.6c-0.4,0-0.7,0-1.1,0c-0.1-0.3-0.2-0.7-0.3-1
				c-0.1,0.3-0.2,0.7-0.3,1C211.6,10,211.3,10,210.9,10z"/>
			<path id="_x33_1_1_" class="st2" d="M217,10c0.3,0.2,0.6,0.5,0.9,0.7c-0.1,0.3-0.2,0.7-0.3,1c0.3-0.2,0.6-0.4,0.9-0.6
				c0.3,0.2,0.6,0.5,0.9,0.7c-0.1-0.4-0.2-0.7-0.3-1.1c0.3-0.2,0.6-0.4,0.9-0.5c-0.4,0-0.7-0.1-1.1-0.1c-0.1-0.4-0.2-0.7-0.3-1.1
				c-0.1,0.3-0.2,0.7-0.3,1C217.7,10.1,217.4,10,217,10z"/>
			<path id="_x33_0_1_" class="st2" d="M223.1,10.7c0.3,0.3,0.6,0.5,0.9,0.8c-0.1,0.3-0.2,0.6-0.3,1c0.3-0.2,0.6-0.3,0.9-0.5
				c0.3,0.3,0.6,0.5,0.9,0.8c-0.1-0.4-0.2-0.7-0.3-1.1c0.3-0.2,0.6-0.3,0.9-0.5c-0.4-0.1-0.7-0.1-1.1-0.2c-0.1-0.4-0.2-0.7-0.3-1.1
				c-0.1,0.3-0.2,0.6-0.3,1C223.8,10.8,223.5,10.8,223.1,10.7z"/>
			<path id="_x32_9_1_" class="st2" d="M229.2,11.9c0.3,0.3,0.6,0.6,0.9,0.8c-0.1,0.3-0.2,0.6-0.3,1c0.3-0.1,0.6-0.3,0.9-0.4
				c0.3,0.3,0.6,0.6,0.9,0.8c-0.1-0.4-0.2-0.7-0.3-1.1c0.3-0.1,0.6-0.3,0.9-0.4c-0.4-0.1-0.7-0.2-1.1-0.3c-0.1-0.4-0.2-0.7-0.3-1.1
				c-0.1,0.3-0.2,0.6-0.3,1C229.9,12.1,229.6,12,229.2,11.9z"/>
			<path id="_x32_8_1_" class="st2" d="M201.8,14.4c0.3,0.1,0.6,0.2,0.9,0.3c-0.1,0.4-0.2,0.8-0.3,1.1c0.3-0.3,0.6-0.6,0.9-0.9
				c0.3,0.1,0.6,0.3,0.9,0.4c-0.1-0.3-0.2-0.6-0.3-0.9c0.3-0.3,0.6-0.6,0.9-0.9c-0.4,0.1-0.7,0.2-1.1,0.3c-0.1-0.3-0.2-0.6-0.3-0.9
				c-0.1,0.4-0.2,0.7-0.3,1.1C202.5,14.2,202.2,14.3,201.8,14.4z"/>
			<path id="_x32_7_1_" class="st2" d="M207.9,12.9c0.3,0.2,0.6,0.3,0.9,0.5c-0.1,0.4-0.2,0.7-0.3,1.1c0.3-0.3,0.6-0.5,0.9-0.7
				c0.3,0.2,0.6,0.4,0.9,0.5c-0.1-0.3-0.2-0.7-0.3-1c0.3-0.2,0.6-0.5,0.9-0.7c-0.4,0-0.7,0.1-1.1,0.1c-0.1-0.3-0.2-0.7-0.3-1
				c-0.1,0.4-0.2,0.7-0.3,1.1C208.6,12.8,208.3,12.9,207.9,12.9z"/>
			<path id="_x32_6_1_" class="st2" d="M214,12.5c0.3,0.2,0.6,0.4,0.9,0.6c-0.1,0.3-0.2,0.7-0.3,1c0.3-0.2,0.6-0.4,0.9-0.6
				c0.3,0.2,0.6,0.4,0.9,0.7c-0.1-0.3-0.2-0.7-0.3-1c0.3-0.2,0.6-0.4,0.9-0.6c-0.4,0-0.7,0-1.1-0.1c-0.1-0.3-0.2-0.7-0.3-1
				c-0.1,0.3-0.2,0.7-0.3,1C214.7,12.5,214.4,12.5,214,12.5z"/>
			<path id="_x32_5_1_" class="st2" d="M220.1,12.9c0.3,0.2,0.6,0.5,0.9,0.7c-0.1,0.3-0.2,0.7-0.3,1c0.3-0.2,0.6-0.3,0.9-0.5
				c0.3,0.3,0.6,0.5,0.9,0.8c-0.1-0.4-0.2-0.7-0.3-1.1c0.3-0.2,0.6-0.3,0.9-0.5c-0.4-0.1-0.7-0.1-1.1-0.2c-0.1-0.4-0.2-0.7-0.3-1.1
				c-0.1,0.3-0.2,0.7-0.3,1C220.8,13,220.5,12.9,220.1,12.9z"/>
			<path id="_x32_4_1_" class="st2" d="M226.2,13.8c0.3,0.3,0.6,0.5,0.9,0.8c-0.1,0.3-0.2,0.6-0.3,1c0.3-0.2,0.6-0.3,0.9-0.5
				c0.3,0.3,0.6,0.5,0.9,0.8c-0.1-0.4-0.2-0.7-0.3-1.1c0.3-0.1,0.6-0.3,0.9-0.4c-0.4-0.1-0.7-0.2-1.1-0.2c-0.1-0.4-0.2-0.7-0.3-1.1
				c-0.1,0.3-0.2,0.6-0.3,1C226.9,14,226.6,13.9,226.2,13.8z"/>
			<path id="_x32_3_1_" class="st2" d="M232.3,15.2c0.3,0.3,0.6,0.6,0.9,0.8c-0.1,0.3-0.2,0.6-0.3,0.9c0.3-0.1,0.6-0.3,0.9-0.4
				c0.3,0.3,0.6,0.6,0.9,0.8c-0.1-0.4-0.2-0.7-0.3-1.1c0.3-0.1,0.6-0.3,0.9-0.4c-0.4-0.1-0.7-0.2-1.1-0.3c-0.1-0.4-0.2-0.7-0.3-1.1
				c-0.1,0.3-0.2,0.6-0.3,0.9C233,15.4,232.7,15.3,232.3,15.2z"/>
			<path id="_x32_2_1_" class="st2" d="M201.9,19.5c0.3,0.1,0.6,0.2,0.9,0.3c-0.1,0.4-0.2,0.8-0.3,1.1c0.3-0.3,0.6-0.6,0.9-0.9
				c0.3,0.1,0.6,0.3,0.9,0.4c-0.1-0.3-0.2-0.6-0.3-0.9c0.3-0.3,0.6-0.6,0.9-0.9c-0.4,0.1-0.7,0.2-1.1,0.3c-0.1-0.3-0.2-0.6-0.3-0.9
				c-0.1,0.4-0.2,0.7-0.3,1.1C202.6,19.3,202.2,19.4,201.9,19.5z"/>
			<path id="_x32_1_1_" class="st2" d="M208,18c0.3,0.2,0.6,0.3,0.9,0.5c-0.1,0.4-0.2,0.7-0.3,1.1c0.3-0.3,0.6-0.5,0.9-0.7
				c0.3,0.2,0.6,0.4,0.9,0.5c-0.1-0.3-0.2-0.7-0.3-1c0.3-0.2,0.6-0.5,0.9-0.7c-0.4,0-0.7,0.1-1.1,0.1c-0.1-0.3-0.2-0.7-0.3-1
				c-0.1,0.4-0.2,0.7-0.3,1.1C208.7,17.9,208.3,18,208,18z"/>
			<path id="_x32_0_1_" class="st2" d="M214.1,17.6c0.3,0.2,0.6,0.4,0.9,0.6c-0.1,0.3-0.2,0.7-0.3,1c0.3-0.2,0.6-0.4,0.9-0.6
				c0.3,0.2,0.6,0.4,0.9,0.7c-0.1-0.3-0.2-0.7-0.3-1c0.3-0.2,0.6-0.4,0.9-0.6c-0.4,0-0.7,0-1.1-0.1c-0.1-0.3-0.2-0.7-0.3-1
				c-0.1,0.3-0.2,0.7-0.3,1C214.8,17.6,214.4,17.6,214.1,17.6z"/>
			<path id="_x31_9_1_" class="st2" d="M220.2,18c0.3,0.2,0.6,0.5,0.9,0.7c-0.1,0.3-0.2,0.7-0.3,1c0.3-0.2,0.6-0.3,0.9-0.5
				c0.3,0.3,0.6,0.5,0.9,0.8c-0.1-0.4-0.2-0.7-0.3-1.1c0.3-0.2,0.6-0.3,0.9-0.5c-0.4-0.1-0.7-0.1-1.1-0.2c-0.1-0.4-0.2-0.7-0.3-1.1
				c-0.1,0.3-0.2,0.7-0.3,1C220.9,18.1,220.5,18,220.2,18z"/>
			<path id="_x31_8_1_" class="st2" d="M226.3,19c0.3,0.3,0.6,0.5,0.9,0.8c-0.1,0.3-0.2,0.6-0.3,1c0.3-0.2,0.6-0.3,0.9-0.5
				c0.3,0.3,0.6,0.5,0.9,0.8c-0.1-0.4-0.2-0.7-0.3-1.1c0.3-0.1,0.6-0.3,0.9-0.4c-0.4-0.1-0.7-0.2-1.1-0.2c-0.1-0.4-0.2-0.7-0.3-1.1
				c-0.1,0.3-0.2,0.6-0.3,1C227,19.1,226.7,19.1,226.3,19z"/>
			<path id="_x31_7_1_" class="st2" d="M232.4,20.3c0.3,0.3,0.6,0.6,0.9,0.8c-0.1,0.3-0.2,0.6-0.3,0.9c0.3-0.1,0.6-0.3,0.9-0.4
				c0.3,0.3,0.6,0.6,0.9,0.8c-0.1-0.4-0.2-0.7-0.3-1.1c0.3-0.1,0.6-0.3,0.9-0.4c-0.4-0.1-0.7-0.2-1.1-0.3c-0.1-0.4-0.2-0.7-0.3-1.1
				c-0.1,0.3-0.2,0.6-0.3,0.9C233.1,20.5,232.8,20.4,232.4,20.3z"/>
			<path id="_x31_6_1_" class="st2" d="M201.8,24.7c0.3,0.1,0.6,0.2,0.9,0.3c-0.1,0.4-0.2,0.8-0.3,1.1c0.3-0.3,0.6-0.6,0.9-0.9
				c0.3,0.1,0.6,0.3,0.9,0.4c-0.1-0.3-0.2-0.6-0.3-0.9c0.3-0.3,0.6-0.6,0.9-0.9c-0.4,0.1-0.7,0.2-1.1,0.3c-0.1-0.3-0.2-0.6-0.3-0.9
				c-0.1,0.4-0.2,0.7-0.3,1.1C202.6,24.5,202.2,24.6,201.8,24.7z"/>
			<path id="_x31_5_1_" class="st2" d="M207.9,23.2c0.3,0.2,0.6,0.3,0.9,0.5c-0.1,0.4-0.2,0.7-0.3,1.1c0.3-0.3,0.6-0.5,0.9-0.7
				c0.3,0.2,0.6,0.4,0.9,0.5c-0.1-0.3-0.2-0.7-0.3-1c0.3-0.2,0.6-0.5,0.9-0.7c-0.4,0-0.7,0.1-1.1,0.1c-0.1-0.3-0.2-0.7-0.3-1
				c-0.1,0.4-0.2,0.7-0.3,1.1C208.7,23.1,208.3,23.2,207.9,23.2z"/>
			<path id="_x31_4_1_" class="st2" d="M214,22.8c0.3,0.2,0.6,0.4,0.9,0.6c-0.1,0.3-0.2,0.7-0.3,1c0.3-0.2,0.6-0.4,0.9-0.6
				c0.3,0.2,0.6,0.4,0.9,0.7c-0.1-0.3-0.2-0.7-0.3-1c0.3-0.2,0.6-0.4,0.9-0.6c-0.4,0-0.7,0-1.1-0.1c-0.1-0.3-0.2-0.7-0.3-1
				c-0.1,0.3-0.2,0.7-0.3,1C214.8,22.8,214.4,22.8,214,22.8z"/>
			<path id="_x31_3_1_" class="st2" d="M220.1,23.2c0.3,0.2,0.6,0.5,0.9,0.7c-0.1,0.3-0.2,0.7-0.3,1c0.3-0.2,0.6-0.3,0.9-0.5
				c0.3,0.3,0.6,0.5,0.9,0.8c-0.1-0.4-0.2-0.7-0.3-1.1c0.3-0.2,0.6-0.3,0.9-0.5c-0.4-0.1-0.7-0.1-1.1-0.2c-0.1-0.4-0.2-0.7-0.3-1.1
				c-0.1,0.3-0.2,0.7-0.3,1C220.9,23.3,220.5,23.2,220.1,23.2z"/>
			<path id="_x31_2_1_" class="st2" d="M226.2,24.2c0.3,0.3,0.6,0.5,0.9,0.8c-0.1,0.3-0.2,0.6-0.3,1c0.3-0.2,0.6-0.3,0.9-0.5
				c0.3,0.3,0.6,0.5,0.9,0.8c-0.1-0.4-0.2-0.7-0.3-1.1c0.3-0.1,0.6-0.3,0.9-0.4c-0.4-0.1-0.7-0.2-1.1-0.2c-0.1-0.4-0.2-0.7-0.3-1.1
				c-0.1,0.3-0.2,0.6-0.3,1C227,24.3,226.6,24.2,226.2,24.2z"/>
			<path id="_x31_1_1_" class="st2" d="M232.4,25.5c0.3,0.3,0.6,0.6,0.9,0.8c-0.1,0.3-0.2,0.6-0.3,0.9c0.3-0.1,0.6-0.3,0.9-0.4
				c0.3,0.3,0.6,0.6,0.9,0.9c-0.1-0.4-0.2-0.7-0.3-1.1c0.3-0.1,0.6-0.3,0.9-0.4c-0.4-0.1-0.7-0.2-1.1-0.3c-0.1-0.4-0.2-0.7-0.3-1.1
				c-0.1,0.3-0.2,0.6-0.3,0.9C233.1,25.7,232.7,25.6,232.4,25.5z"/>
			<path id="_x31_0_1_" class="st2" d="M204.9,16.1c0.3,0.1,0.6,0.3,0.9,0.4c-0.1,0.4-0.2,0.7-0.3,1.1c0.3-0.3,0.6-0.6,0.9-0.8
				c0.3,0.2,0.6,0.3,0.9,0.5c-0.1-0.3-0.2-0.6-0.3-1c0.3-0.3,0.6-0.5,0.9-0.8c-0.4,0.1-0.7,0.1-1.1,0.2c-0.1-0.3-0.2-0.6-0.3-1
				c-0.1,0.4-0.2,0.7-0.3,1.1C205.6,15.9,205.2,16,204.9,16.1z"/>
			<path id="_x39__1_" class="st2" d="M211,15.1c0.3,0.2,0.6,0.4,0.9,0.6c-0.1,0.3-0.2,0.7-0.3,1c0.3-0.2,0.6-0.5,0.9-0.7
				c0.3,0.2,0.6,0.4,0.9,0.6c-0.1-0.3-0.2-0.7-0.3-1c0.3-0.2,0.6-0.4,0.9-0.6c-0.4,0-0.7,0-1.1,0c-0.1-0.3-0.2-0.7-0.3-1
				c-0.1,0.3-0.2,0.7-0.3,1C211.7,15.1,211.3,15.1,211,15.1z"/>
			<path id="_x38__1_" class="st2" d="M217.1,15.1c0.3,0.2,0.6,0.5,0.9,0.7c-0.1,0.3-0.2,0.7-0.3,1c0.3-0.2,0.6-0.4,0.9-0.6
				c0.3,0.2,0.6,0.5,0.9,0.7c-0.1-0.4-0.2-0.7-0.3-1.1c0.3-0.2,0.6-0.4,0.9-0.5c-0.4,0-0.7-0.1-1.1-0.1c-0.1-0.4-0.2-0.7-0.3-1.1
				c-0.1,0.3-0.2,0.7-0.3,1C217.8,15.2,217.4,15.2,217.1,15.1z"/>
			<path id="_x37__1_" class="st2" d="M223.2,15.8c0.3,0.3,0.6,0.5,0.9,0.8c-0.1,0.3-0.2,0.6-0.3,1c0.3-0.2,0.6-0.3,0.9-0.5
				c0.3,0.3,0.6,0.5,0.9,0.8c-0.1-0.4-0.2-0.7-0.3-1.1c0.3-0.2,0.6-0.3,0.9-0.5c-0.4-0.1-0.7-0.1-1.1-0.2c-0.1-0.4-0.2-0.7-0.3-1.1
				c-0.1,0.3-0.2,0.6-0.3,1C223.9,16,223.5,15.9,223.2,15.8z"/>
			<path id="_x36__1_" class="st2" d="M229.3,17c0.3,0.3,0.6,0.6,0.9,0.8c-0.1,0.3-0.2,0.6-0.3,1c0.3-0.1,0.6-0.3,0.9-0.4
				c0.3,0.3,0.6,0.6,0.9,0.8c-0.1-0.4-0.2-0.7-0.3-1.1c0.3-0.1,0.6-0.3,0.9-0.4c-0.4-0.1-0.7-0.2-1.1-0.3c-0.1-0.4-0.2-0.7-0.3-1.1
				c-0.1,0.3-0.2,0.6-0.3,1C230,17.2,229.6,17.1,229.3,17z"/>
			<path id="_x35__1_" class="st2" d="M204.9,21.2c0.3,0.1,0.6,0.3,0.9,0.4c-0.1,0.4-0.2,0.7-0.3,1.1c0.3-0.3,0.6-0.5,0.9-0.8
				c0.3,0.2,0.6,0.3,0.9,0.5c-0.1-0.3-0.2-0.6-0.3-1c0.3-0.3,0.6-0.5,0.9-0.8c-0.4,0.1-0.7,0.1-1.1,0.2c-0.1-0.3-0.2-0.6-0.3-1
				c-0.1,0.4-0.2,0.7-0.3,1.1C205.6,21.1,205.2,21.1,204.9,21.2z"/>
			<path id="_x34__1_" class="st2" d="M211,20.3c0.3,0.2,0.6,0.4,0.9,0.6c-0.1,0.3-0.2,0.7-0.3,1c0.3-0.2,0.6-0.5,0.9-0.7
				c0.3,0.2,0.6,0.4,0.9,0.6c-0.1-0.3-0.2-0.7-0.3-1c0.3-0.2,0.6-0.4,0.9-0.6c-0.4,0-0.7,0-1.1,0c-0.1-0.3-0.2-0.7-0.3-1
				c-0.1,0.3-0.2,0.7-0.3,1C211.7,20.3,211.3,20.3,211,20.3z"/>
			<path id="_x33__1_" class="st2" d="M217.1,20.3c0.3,0.2,0.6,0.5,0.9,0.7c-0.1,0.3-0.2,0.7-0.3,1c0.3-0.2,0.6-0.4,0.9-0.6
				c0.3,0.2,0.6,0.5,0.9,0.7c-0.1-0.4-0.2-0.7-0.3-1.1c0.3-0.2,0.6-0.4,0.9-0.5c-0.4,0-0.7-0.1-1.1-0.1c-0.1-0.4-0.2-0.7-0.3-1.1
				c-0.1,0.3-0.2,0.7-0.3,1C217.8,20.4,217.4,20.3,217.1,20.3z"/>
			<path id="_x32__1_" class="st2" d="M223.2,21c0.3,0.3,0.6,0.5,0.9,0.8c-0.1,0.3-0.2,0.6-0.3,1c0.3-0.2,0.6-0.3,0.9-0.5
				c0.3,0.3,0.6,0.5,0.9,0.8c-0.1-0.4-0.2-0.7-0.3-1.1c0.3-0.2,0.6-0.3,0.9-0.5c-0.4-0.1-0.7-0.1-1.1-0.2c-0.1-0.4-0.2-0.7-0.3-1.1
				c-0.1,0.3-0.2,0.6-0.3,1C223.9,21.1,223.5,21.1,223.2,21z"/>
			<path id="_x31__1_" class="st2" d="M229.3,22.2c0.3,0.3,0.6,0.6,0.9,0.8c-0.1,0.3-0.2,0.6-0.3,1c0.3-0.1,0.6-0.3,0.9-0.4
				c0.3,0.3,0.6,0.6,0.9,0.8c-0.1-0.4-0.2-0.7-0.3-1.1c0.3-0.1,0.6-0.3,0.9-0.4c-0.4-0.1-0.7-0.2-1.1-0.3c-0.1-0.4-0.2-0.7-0.3-1.1
				c-0.1,0.3-0.2,0.6-0.3,1C230,22.4,229.6,22.3,229.3,22.2z"/>
		</g>
	</g>
	<g id="Layer_2-2_1_">
		<rect x="3.4" y="122.9" class="st5" width="389.5" height="9.1"/>
		<rect x="128.7" y="122.9" class="st6" width="138.7" height="14.3"/>
		<polygon class="st5" points="3.4,122.9 0,122.9 3.4,127.9 		"/>
		<polygon class="st5" points="392.8,122.9 396.2,122.9 392.8,127.9 		"/>
		<rect x="3.4" y="131.2" class="st7" width="389.5" height="9.1"/>
		<rect x="3.4" y="135.8" class="st6" width="389.5" height="99.1"/>
		<rect x="128.7" y="135.8" class="st8" width="138.7" height="99.1"/>
		<rect x="119.9" y="122.9" class="st7" width="17.7" height="5.8"/>
		<rect x="121.9" y="128.6" class="st5" width="13.6" height="97.5"/>
		<rect x="166.1" y="122.9" class="st7" width="17.7" height="5.8"/>
		<rect x="168.2" y="128.6" class="st5" width="13.6" height="97.5"/>
		<rect x="212.4" y="122.9" class="st7" width="17.7" height="5.8"/>
		<rect x="214.4" y="128.6" class="st5" width="13.6" height="97.5"/>
		<rect x="258.6" y="122.9" class="st7" width="17.7" height="5.8"/>
		<rect x="260.6" y="128.6" class="st5" width="13.6" height="97.5"/>
		<rect x="119.9" y="105.5" class="st7" width="156.4" height="17.3"/>
		<rect x="119.9" y="105.5" class="st6" width="156.4" height="8.7"/>
		<rect x="0.2" y="234.9" class="st5" width="395.8" height="7.1"/>
		<rect x="119.9" y="229" class="st7" width="156.4" height="4.3"/>
		<rect x="116.2" y="233.3" class="st5" width="163.8" height="4.3"/>
		<rect x="112.5" y="237.7" class="st7" width="171.2" height="4.3"/>
		<rect x="11.7" y="151.8" class="st7" width="6.5" height="10.3"/>
		<rect x="20.4" y="151.8" class="st7" width="6.5" height="10.3"/>
		<rect x="11.7" y="164.3" class="st7" width="6.5" height="10.3"/>
		<rect x="20.4" y="164.3" class="st7" width="6.5" height="10.3"/>
		<rect x="41.5" y="151.8" class="st7" width="6.5" height="10.3"/>
		<rect x="50.2" y="151.8" class="st7" width="6.5" height="10.3"/>
		<rect x="41.5" y="164.3" class="st7" width="6.5" height="10.3"/>
		<rect x="50.2" y="164.3" class="st7" width="6.5" height="10.3"/>
		<rect x="71.2" y="151.8" class="st7" width="6.5" height="10.3"/>
		<rect x="79.9" y="151.8" class="st7" width="6.5" height="10.3"/>
		<rect x="71.2" y="164.3" class="st7" width="6.5" height="10.3"/>
		<rect x="79.9" y="164.3" class="st7" width="6.5" height="10.3"/>
		<rect x="101" y="151.8" class="st7" width="6.5" height="10.3"/>
		<rect x="109.7" y="151.8" class="st7" width="6.5" height="10.3"/>
		<rect x="101" y="164.3" class="st7" width="6.5" height="10.3"/>
		<rect x="109.7" y="164.3" class="st7" width="6.5" height="10.3"/>
		<path class="st5" d="M19.6,188.1c-5.7,0-10.3,4.6-10.3,10.3l0,0h20.5C29.8,192.7,25.2,188.2,19.6,188.1z"/>
		<rect x="11.7" y="200.7" class="st7" width="6.5" height="10.3"/>
		<rect x="20.4" y="200.7" class="st7" width="6.5" height="10.3"/>
		<rect x="11.7" y="213.2" class="st7" width="6.5" height="10.3"/>
		<rect x="20.4" y="213.2" class="st7" width="6.5" height="10.3"/>
		<path class="st5" d="M49.2,188.1c-5.7,0-10.3,4.6-10.3,10.3l0,0h20.5C59.5,192.7,54.9,188.1,49.2,188.1L49.2,188.1z"/>
		<rect x="41.5" y="200.7" class="st7" width="6.5" height="10.3"/>
		<rect x="50.2" y="200.7" class="st7" width="6.5" height="10.3"/>
		<rect x="41.5" y="213.2" class="st7" width="6.5" height="10.3"/>
		<rect x="50.2" y="213.2" class="st7" width="6.5" height="10.3"/>
		<path class="st5" d="M78.9,188.1c-5.7,0-10.3,4.6-10.3,10.3v0h20.5C89.2,192.7,84.6,188.1,78.9,188.1L78.9,188.1z"/>
		<rect x="71.2" y="200.7" class="st7" width="6.5" height="10.3"/>
		<rect x="79.9" y="200.7" class="st7" width="6.5" height="10.3"/>
		<rect x="71.2" y="213.2" class="st7" width="6.5" height="10.3"/>
		<rect x="79.9" y="213.2" class="st7" width="6.5" height="10.3"/>
		<path class="st5" d="M108.6,188.1c-5.7,0-10.3,4.6-10.3,10.3v0h20.5C118.8,192.7,114.2,188.1,108.6,188.1
			C108.6,188.1,108.6,188.1,108.6,188.1z"/>
		<rect x="101" y="200.7" class="st7" width="6.5" height="10.3"/>
		<rect x="109.7" y="200.7" class="st7" width="6.5" height="10.3"/>
		<rect x="101" y="213.2" class="st7" width="6.5" height="10.3"/>
		<rect x="109.7" y="213.2" class="st7" width="6.5" height="10.3"/>
		<rect x="279.6" y="151.8" class="st7" width="6.5" height="10.3"/>
		<rect x="288.3" y="151.8" class="st7" width="6.5" height="10.3"/>
		<rect x="279.6" y="164.3" class="st7" width="6.5" height="10.3"/>
		<rect x="288.3" y="164.3" class="st7" width="6.5" height="10.3"/>
		<rect x="309.4" y="151.8" class="st7" width="6.5" height="10.3"/>
		<rect x="318.1" y="151.8" class="st7" width="6.5" height="10.3"/>
		<rect x="309.4" y="164.3" class="st7" width="6.5" height="10.3"/>
		<rect x="318.1" y="164.3" class="st7" width="6.5" height="10.3"/>
		<rect x="339.1" y="151.8" class="st7" width="6.5" height="10.3"/>
		<rect x="347.8" y="151.8" class="st7" width="6.5" height="10.3"/>
		<rect x="339.1" y="164.3" class="st7" width="6.5" height="10.3"/>
		<rect x="347.8" y="164.3" class="st7" width="6.5" height="10.3"/>
		<rect x="368.9" y="151.8" class="st7" width="6.5" height="10.3"/>
		<rect x="377.6" y="151.8" class="st7" width="6.5" height="10.3"/>
		<rect x="368.9" y="164.3" class="st7" width="6.5" height="10.3"/>
		<rect x="377.6" y="164.3" class="st7" width="6.5" height="10.3"/>
		<path class="st5" d="M287.4,188.1c-5.7,0-10.3,4.6-10.3,10.3h20.5C297.7,192.7,293.1,188.1,287.4,188.1L287.4,188.1z"/>
		<rect x="279.6" y="200.7" class="st7" width="6.5" height="10.3"/>
		<rect x="288.3" y="200.7" class="st7" width="6.5" height="10.3"/>
		<rect x="279.6" y="213.2" class="st7" width="6.5" height="10.3"/>
		<rect x="288.3" y="213.2" class="st7" width="6.5" height="10.3"/>
		<path class="st5" d="M317.1,188.1c-5.7,0-10.3,4.6-10.3,10.2c0,0,0,0,0,0h20.5C327.4,192.7,322.8,188.1,317.1,188.1z"/>
		<rect x="309.4" y="200.7" class="st7" width="6.5" height="10.3"/>
		<rect x="318.1" y="200.7" class="st7" width="6.5" height="10.3"/>
		<rect x="309.4" y="213.2" class="st7" width="6.5" height="10.3"/>
		<rect x="318.1" y="213.2" class="st7" width="6.5" height="10.3"/>
		<path class="st5" d="M346.8,188.1c-5.7,0-10.3,4.6-10.3,10.3h20.5C357.1,192.7,352.5,188.1,346.8,188.1
			C346.8,188.1,346.8,188.1,346.8,188.1z"/>
		<rect x="339.1" y="200.7" class="st7" width="6.5" height="10.3"/>
		<rect x="347.8" y="200.7" class="st7" width="6.5" height="10.3"/>
		<rect x="339.1" y="213.2" class="st7" width="6.5" height="10.3"/>
		<rect x="347.8" y="213.2" class="st7" width="6.5" height="10.3"/>
		<path class="st5" d="M376.5,188.1c-5.7,0-10.3,4.6-10.3,10.3h20.5C386.7,192.7,382.1,188.1,376.5,188.1L376.5,188.1z"/>
		<rect x="368.9" y="200.7" class="st7" width="6.5" height="10.3"/>
		<rect x="377.6" y="200.7" class="st7" width="6.5" height="10.3"/>
		<rect x="368.9" y="213.2" class="st7" width="6.5" height="10.3"/>
		<rect x="377.6" y="213.2" class="st7" width="6.5" height="10.3"/>
		<rect x="144" y="151.8" class="st5" width="6.5" height="10.3"/>
		<rect x="152.7" y="151.8" class="st5" width="6.5" height="10.3"/>
		<rect x="144" y="164.3" class="st5" width="6.5" height="10.3"/>
		<rect x="152.7" y="164.3" class="st5" width="6.5" height="10.3"/>
		<rect x="190.5" y="151.8" class="st5" width="6.5" height="10.3"/>
		<rect x="199.2" y="151.8" class="st5" width="6.5" height="10.3"/>
		<rect x="190.5" y="164.3" class="st5" width="6.5" height="10.3"/>
		<rect x="199.2" y="164.3" class="st5" width="6.5" height="10.3"/>
		<rect x="236.5" y="151.8" class="st5" width="6.5" height="10.3"/>
		<rect x="245.2" y="151.8" class="st5" width="6.5" height="10.3"/>
		<rect x="236.5" y="164.3" class="st5" width="6.5" height="10.3"/>
		<rect x="245.2" y="164.3" class="st5" width="6.5" height="10.3"/>
		<path class="st4" d="M151.6,188.1c-5.7,0-10.3,4.6-10.3,10.2c0,0,0,0,0,0H162C162,192.7,157.4,188.1,151.6,188.1
			C151.7,188.1,151.7,188.1,151.6,188.1z"/>
		<rect x="143.8" y="200.7" class="st5" width="6.5" height="10.3"/>
		<rect x="152.5" y="200.7" class="st5" width="6.5" height="10.3"/>
		<rect x="143.8" y="213.2" class="st5" width="6.5" height="10.3"/>
		<rect x="152.5" y="213.2" class="st5" width="6.5" height="10.3"/>
		<path class="st4" d="M244.1,188.1c-5.7,0-10.3,4.6-10.3,10.3h20.5C254.4,192.7,249.8,188.1,244.1,188.1L244.1,188.1z"/>
		<rect x="236.4" y="200.7" class="st5" width="6.5" height="10.3"/>
		<rect x="245" y="200.7" class="st5" width="6.5" height="10.3"/>
		<rect x="236.4" y="213.2" class="st5" width="6.5" height="10.3"/>
		<rect x="245" y="213.2" class="st5" width="6.5" height="10.3"/>
		<path class="st7" d="M197.8,188.1L197.8,188.1c4.2,0,7.6,3.4,7.6,7.6V229l0,0h-15.2l0,0v-33.2
			C190.2,191.5,193.6,188.1,197.8,188.1z"/>
		<polyline class="st7" points="198.1,105.5 280.7,105.5 280.7,100.6 198.1,67.1 115.5,100.6 115.5,105.5 198.1,105.5 		"/>
		<path class="st5" d="M133.4,99.6h129.4l-64.7-26.2L133.4,99.6z"/>
		<rect x="119.9" y="223.2" class="st7" width="17.7" height="5.8"/>
		<rect x="166.1" y="223.2" class="st7" width="17.7" height="5.8"/>
		<rect x="212.4" y="223.2" class="st7" width="17.7" height="5.8"/>
		<rect x="258.6" y="223.2" class="st7" width="17.7" height="5.8"/>
	</g>
</g>
</svg>
