<!-- Generator: Adobe Illustrator 24.2.3, SVG Export Plug-In  -->
<svg version="1.1" xmlns="http://www.w3.org/2000/svg" xmlns:xlink="http://www.w3.org/1999/xlink" x="0px" y="0px" width="358.1px"
	 height="335px" viewBox="0 0 358.1 335" style="overflow:visible;enable-background:new 0 0 358.1 335;" xml:space="preserve">
<style type="text/css">
	.st0{fill:#F5F4EF;}
	.st1{fill:#D9D9D9;}
	.st2{fill:#F2F2F2;}
	.st3{fill:#FFFFFF;}
	.st4{fill:#1F2E7A;}
	.st5{fill:none;stroke:#000000;stroke-width:4.4;stroke-linecap:round;stroke-miterlimit:10;}
	.st6{fill:#C91D42;}
	.st7{fill:#F9C21F;}
	.st8{fill:#36E2BD;}
	.st9{fill:#141F52;}
</style>
<defs>
</defs>
<g>
	<g>
		<g>
			<polygon class="st0" points="204.2,64.6 223.9,0 209,65.7 			"/>
		</g>
		<g>
			<polygon class="st0" points="308.1,89 358.1,62.4 310.8,93.2 			"/>
		</g>
		<g>
			<polygon class="st0" points="147.3,67.4 135.9,23 152,65.8 			"/>
		</g>
		<g>
			<polygon class="st0" points="122.2,77.6 81.4,19.4 126.1,74.6 			"/>
		</g>
		<g>
			<polygon class="st0" points="99.8,98.5 68.9,69.3 102.9,94.6 			"/>
		</g>
		<g>
			<polygon class="st0" points="174.7,73.6 178.3,31.3 179.6,73.6 			"/>
		</g>
		<g>
			<polygon class="st0" points="79.3,149.3 23.6,138.6 79.9,144.4 			"/>
		</g>
		<g>
			<polygon class="st0" points="73.5,118.4 23.3,92.1 75.4,113.8 			"/>
		</g>
		<g>
			<polygon class="st0" points="106.3,227.4 55,263.3 103.2,223.6 			"/>
		</g>
		<g>
			<polygon class="st0" points="78.8,208.7 26.2,229.6 76.7,204.3 			"/>
		</g>
		<g>
			<polygon class="st0" points="49.5,185.2 0,185.6 49,179.3 			"/>
		</g>
		<g>
			<polygon class="st0" points="297.9,168.3 354.3,174.1 297.8,173.2 			"/>
		</g>
		<g>
			<polygon class="st0" points="243.3,237.5 282,287 239.6,240.9 			"/>
		</g>
		<g>
			<polygon class="st0" points="269.7,193.3 321.5,216.2 268,197.9 			"/>
		</g>
		<g>
			<polygon class="st0" points="284,140.7 339,127.3 285.5,145.4 			"/>
		</g>
		<g>
			<polygon class="st0" points="226.5,249.9 247.8,312.4 221.9,251.8 			"/>
		</g>
		<g>
			<polygon class="st0" points="199.7,252 205.3,308.3 194.9,252.8 			"/>
		</g>
		<g>
			<polygon class="st0" points="215.4,95.6 239.5,44.3 220.1,97.4 			"/>
		</g>
		<g>
			<polygon class="st0" points="264.2,84.8 307.1,41.4 267.9,88 			"/>
		</g>
		<g>
			<polygon class="st0" points="264.8,217.3 321.2,258.6 261.5,222.3 			"/>
		</g>
		<g>
			<polygon class="st0" points="174.2,258.8 162.3,335 168.3,258.2 			"/>
		</g>
		<g>
			<polygon class="st0" points="121.8,251.7 77.2,305.6 117.1,248.2 			"/>
		</g>
	</g>
	<g>
		<circle class="st1" cx="269.1" cy="108" r="28.4"/>
		<circle class="st1" cx="250.3" cy="100" r="28.4"/>
		<circle class="st1" cx="221.1" cy="102.1" r="28.4"/>
		<circle class="st1" cx="289" cy="167.5" r="24.2"/>
		<circle class="st1" cx="261.1" cy="212.8" r="24.2"/>
		<circle class="st1" cx="205" cy="235.9" r="30.2"/>
		<circle class="st1" cx="164.4" cy="233" r="30.2"/>
		<circle class="st1" cx="61.5" cy="178.1" r="16.1"/>
		<circle class="st1" cx="296" cy="118.5" r="16.1"/>
		<circle class="st1" cx="289.3" cy="139.7" r="16.1"/>
		<circle class="st1" cx="281.1" cy="188.5" r="16.1"/>
		<circle class="st1" cx="234.8" cy="228.6" r="16.1"/>
		<circle class="st1" cx="129.4" cy="240.9" r="16.1"/>
		<circle class="st1" cx="117.6" cy="220.8" r="16.1"/>
		<circle class="st1" cx="132.9" cy="80.5" r="16.1"/>
		<circle class="st1" cx="113.5" cy="87" r="16.1"/>
		<circle class="st1" cx="93.7" cy="99.9" r="16.1"/>
		<circle class="st1" cx="209.5" cy="76.4" r="16.1"/>
		<circle class="st1" cx="193.5" cy="75.8" r="16.1"/>
		<circle class="st1" cx="88" cy="201.4" r="30.2"/>
		<circle class="st1" cx="77.9" cy="121.1" r="30.2"/>
		<circle class="st1" cx="83.4" cy="160.4" r="30.2"/>
		<circle class="st1" cx="163.3" cy="87.6" r="30.2"/>
	</g>
	<g>
		<circle class="st2" cx="176" cy="218.5" r="36.7"/>
		<circle class="st2" cx="136.8" cy="199.2" r="36.7"/>
		<circle class="st2" cx="218" cy="209.8" r="31.2"/>
		<circle class="st2" cx="246.5" cy="172.6" r="36.4"/>
		<circle class="st2" cx="91.8" cy="207.8" r="16.5"/>
		<circle class="st2" cx="77" cy="204.3" r="12.5"/>
		<circle class="st2" cx="74.1" cy="115.6" r="16.5"/>
		<circle class="st2" cx="87.5" cy="112.3" r="16.5"/>
		<circle class="st2" cx="76.5" cy="132.7" r="16.5"/>
		<circle class="st2" cx="95.2" cy="135.3" r="16.5"/>
		<circle class="st2" cx="198.9" cy="242.2" r="16.5"/>
		<circle class="st2" cx="267.6" cy="109.4" r="16.5"/>
		<circle class="st2" cx="263.3" cy="152.3" r="26.9"/>
		<circle class="st2" cx="264.8" cy="118.2" r="22.5"/>
		<circle class="st2" cx="244.4" cy="108" r="27.1"/>
		<circle class="st2" cx="170.3" cy="106.3" r="36.8"/>
		<circle class="st2" cx="204.7" cy="122.4" r="36.8"/>
		<circle class="st2" cx="121.2" cy="109.5" r="32"/>
		<circle class="st2" cx="92.4" cy="177.4" r="33"/>
	</g>
	<g>
		<circle class="st3" cx="172.5" cy="206.7" r="20.8"/>
		<circle class="st3" cx="237" cy="115.2" r="13.3"/>
		<circle class="st3" cx="225.7" cy="116.3" r="12.9"/>
		<circle class="st3" cx="154.2" cy="197.6" r="20.8"/>
		<circle class="st3" cx="133.2" cy="190.4" r="20.8"/>
		<circle class="st3" cx="190.8" cy="119.2" r="20.8"/>
		<circle class="st3" cx="244" cy="156.2" r="20.8"/>
		<circle class="st3" cx="219.9" cy="199.1" r="14.1"/>
		<circle class="st3" cx="228.6" cy="179.2" r="17.2"/>
		<circle class="st3" cx="127.9" cy="125.2" r="20.1"/>
		<circle class="st3" cx="141.8" cy="115.1" r="20.1"/>
		<circle class="st3" cx="102.5" cy="185.5" r="11.5"/>
		<circle class="st3" cx="108.9" cy="192.1" r="16"/>
		<circle class="st3" cx="212.2" cy="114.3" r="11.5"/>
		<circle class="st3" cx="254.6" cy="136.8" r="11.5"/>
		<circle class="st3" cx="206.6" cy="204.4" r="11.5"/>
		<circle class="st3" cx="193.5" cy="202.4" r="11.5"/>
		<circle class="st3" cx="252.1" cy="126.3" r="11.5"/>
		<circle class="st3" cx="174.4" cy="110.2" r="11.5"/>
		<circle class="st3" cx="159.6" cy="103.4" r="11.5"/>
		<circle class="st3" cx="96.5" cy="176.1" r="11.5"/>
		<circle class="st3" cx="102.9" cy="162.1" r="11.5"/>
		<circle class="st3" cx="112.1" cy="146.9" r="11.5"/>
		<circle class="st3" cx="112.4" cy="136" r="11.5"/>
		<path class="st3" d="M250.5,112.2l0.9,23.9c0,0-21.5,44.9-22.3,45.6s-17.5,18.9-17.5,18.9l-52.3,4.4l-56.3-26.6l0.5-13.7
			l19.9-38.6l37.8-18.1l41.4,12.3L250.5,112.2z"/>
	</g>
	<path class="st2" d="M143.6,200.4c1,7.3,4.7,12.6,11.7,14.8c7.1,2.3,12.9-0.5,17.9-5.5c0.2,1.1-2.1,4.2-3.5,5.3
		c-6.4,4.8-13.3,5.3-19.9,0.9C144.5,212.4,142.4,206.9,143.6,200.4z"/>
	<path class="st2" d="M237.2,131.4c0.7-7.3-1.7-13.3-8-17.1c-6.3-3.8-12.7-2.4-18.7,1.2c0.1-1.1,3-3.6,4.6-4.4
		c7.4-3.2,14.1-2.1,19.6,3.7C239,119.5,239.7,125.3,237.2,131.4z"/>
	<path class="st2" d="M151.2,119.9c-6-4.3-12.4-5.1-18.8-1.5c-6.5,3.6-8.4,9.8-8.2,16.9c-0.9-0.6-1.7-4.4-1.5-6.1
		c0.9-8,5.1-13.4,12.9-15.2C141.8,112.4,147.2,114.6,151.2,119.9z"/>
</g>
<g id="SqNkWV_1_">
	<g>
		<path class="st4" d="M138,259.8c-0.4-0.4-0.8-0.7-1.3-1c-0.2-0.1-0.5-0.1-0.8,0c-0.7,0.2-1.6,0.9-2-0.5c-0.1-0.2-0.7-0.2-1-0.2
			c-1.6,0.4-3.2,0.9-4.8,1.3c-0.2,0.1-0.7-0.1-0.8-0.3c-0.1-0.6-0.3-1.2-0.2-1.8c0.2-0.7,0.6-1.4,0.9-2c0.1-0.2-0.1-0.4-0.2-0.7
			c0-0.1-0.1-0.3-0.1-0.3c1.2-0.8-0.5-1.2-0.3-1.8c0-0.1-0.3-0.3-0.5-0.3c-0.8-0.1-2.4,1-2.5,1.9c-0.2,1.1-0.3,1.1-1.2,0.6
			c-1.1-0.6-1.5-0.5-1.9,0.8c-0.1,0.2-0.4,0.6-0.5,0.5c-0.3-0.1-0.6-0.3-0.7-0.5c-0.5-1.2-0.5-1.2-1.7-0.6c-0.5,0.2-1,0.4-1.5,0.4
			c-0.3,0-0.6-0.6-0.7-0.9c-0.1-0.6-0.2-0.9-0.8-1c-0.2,0-0.5-0.2-0.6-0.3c-0.6-1-1.6-1-2.6-1.2c-0.6-0.1-1-0.2-1.3-0.8
			c-0.5-0.9-0.8-1-1.4-0.2c-0.4,0.5-0.7,0.6-1.2,0.2c-0.7-0.5-1.3-0.4-1.8,0.4c-0.4,0.7-1.4,1-1.2,2c0,0.1-0.6,0.3-0.9,0.3
			c-0.9,0.1-1.8,0-2.7,0.1c-0.9,0.1-1.7,0-2.4,0.9c-0.3,0.4-1.3,0.3-2,0.4c-0.1,0-0.5-0.1-0.5-0.2c-0.1-1.2-1.1-1.2-1.8-1.6
			c-0.7-0.4-0.8-1.9-0.3-2.8c0.1-0.2,0.3-0.3,0.4-0.5c0.6-1,0.4-1.9-0.7-2.2c-1.1-0.3-1.8-0.7-1.8-2c0-0.3-0.3-0.7-0.5-0.9
			c-0.6-0.4-0.8-0.9-0.8-1.7c0-0.4-0.6-1-1.1-1.3c-0.8-0.5-1.8-0.7-2.1-1.8c-0.1-0.3-0.6-0.5-0.9-0.8c-0.2-0.2-0.6-0.4-0.6-0.5
			c0.2-1.1-0.7-1.2-1.3-1.7c-0.5-0.3-0.8-1.1-1.4-0.1c0,0-0.4-0.2-0.6-0.3c-1.6-1-3.2-1.4-4.9-0.1c-0.4,0.3-1.5-0.1-2.2-0.4
			c-0.1-0.1-0.1-1,0.1-1.4c0.6-1.1,1.3-2.1,2.1-3.1c0.4-0.4,0.6-0.9,0.3-1.3c-0.7-0.8-0.3-1.4,0.2-2c-0.1,0-0.2-0.1-0.3-0.1
			c-0.3,0-0.6,0-1,0c0.2-0.3,0.4-0.6,0.7-0.8c0.4-0.3,0.8-0.5,1.1-0.9c-0.7,0-1.1-1.8-2-0.4c-0.9-2,0.2-3.2,1.7-4.3
			c0.7,0.7,1.4,1.5,2.2,2.2c0.2,0.2,0.6,0.2,1,0.2c0.3,0,0.6-0.1,0.9-0.1c1.1,0.1,1.5-0.3,1-1.3c-0.6-0.9-0.7-1.8-0.2-2.8
			c0.4-0.8-0.1-1.5-0.8-1.9c-0.5-0.4-1.8-0.1-2.2,0.4c-0.3,0.3-0.6,0.6-0.8,0.9c-0.1,0.1-0.2,0.1-0.6,0c0.5-1,0.9-2.2,1.6-3.1
			c0.9-1.3,0.9-1.3,0.1-2.6c-0.6-0.9-1.4-1.9-0.7-3.3c0.4-0.9,0.4-2.1,0.5-3.1c0-0.3-0.4-0.5-0.6-0.8c-0.1-0.3-0.1-0.6-0.2-0.9
			c0.3,0,0.7,0,1,0.1c0.3,0.2,0.4,0.6,0.7,0.8c0.2,0.2,0.6,0.4,0.8,0.3c0.2,0,0.4-0.5,0.4-0.7c0-1.1,0.7-1.4,1.5-1.1
			c1.1,0.3,2.1,0.9,3.1,1.5c0.3,0.2,0.5,0.5,0.9,0.7c-0.5-1.3,0.1-1.8,1.1-2.4c0.7-0.4,1.2-1.3,1.7-2c0.6-0.8-0.2-2.2-1.3-2.1
			c-0.7,0.1-1-0.2-1.2-0.7c-0.7-2.1-2.4-1.9-4-2c-0.6,0-1.2,0-1.8-0.1c-0.7-0.1-1.2,0-1.8,0.2c-1.2,0.4-2.6,0.7-3.9-0.1
			c-0.8-0.5-1.4-0.6-2,0.3c-0.6,1-1.7,1.1-2.7,1.2c-1.1,0.2-1.4,0.6-0.8,1.4c0.6,1,0.3,1.9-0.1,2.8c-0.2,0.5-0.6,0.9-0.9,1.3
			c-0.8,1-1,2-0.8,3.3c0.1,1-0.2,2.1,0.1,3c0.3,0.9,0.2,1.7,0.2,2.5c0,0.5-0.1,1-0.2,1.5c-0.2,1.2-0.2,2.4,0.9,3.3
			c0.2,0.1,0.2,0.5,0.2,0.8c-0.2-0.1-0.5-0.1-0.7-0.2c-1.2-0.6-2.8,0-3.6,1.3c-0.3,0.5-0.9,1-1.3,1c-0.9,0-1.5,0.2-1.7,1.2
			c-0.1,0.3-0.5,0.4-0.7,0.7c-0.2-0.3-0.4-0.5-0.5-0.8c-0.2-0.6,0.2-2,0.6-2.4c0.2-0.2,0.3-0.5,0.5-0.6c0.5-0.4,0.6-1,0.3-1.4
			c-0.3-0.3-0.9-0.6-1.4-0.6c-1.4-0.1-2.8,0-4.2-0.2c-1.8-0.3-2.9-2-2.8-3.8c0.1-1,0.1-2,0-2.9c0-0.4-0.5-0.7-0.8-1
			c-0.9-0.9-0.9-1.5,0.1-2.1c1.1-0.7,1.3-1.4,0.8-2.6c-0.2-0.5,0.1-1.1,0-1.6c-0.4-1.4-1.5-2.1-2.7-2.6c0.6-0.9,1.3-1.7,1.8-2.6
			c0.3-0.5,0.4-1.1,0.3-1.6c-0.1-1.1,0.1-2.2-1-3.1c-0.2-0.2,0-0.9,0-1.4c-0.1-1.2-0.2-2.4-0.4-3.6c-0.1-0.9-0.4-1.7-0.6-2.6
			c-0.1-0.4-0.2-0.8-0.3-1.3c-0.1-0.3-0.1-0.7-0.3-1c-0.8-0.8-0.3-1.7-0.3-2.6c0-0.5,0.6-0.6,1-0.2c0.6,0.7,1,0.8,1.7,0.1
			c0.4-0.4,1.3-0.4,1.9-0.3c1,0.1,1-0.4,1-1.1c0-0.3,0-0.6,0-1c0.3,0.1,0.6,0.3,0.9,0.4c1,0.2,2,0.4,3.1,0.6c0.1,0,0.3-0.2,0.3-0.3
			c0-0.2,0-0.6-0.2-0.7c-0.4-0.3-0.9-0.4-1.3-0.7c-1.8-1-3.6-1.8-5.5-2.5c-0.8-0.3-1.6-1-2.6-1.2c-0.2,0-0.4-0.2-0.6-0.2
			c-1.1-0.1-1.9-0.5-2.4-1.5c-0.1-0.2-0.3-0.3-0.7-0.6c0.3,1,0.5,1.7,0.6,2.5c0.1,0.4,0.1,0.9,0,1.3c-0.3,1.3-0.1,1.8,1.2,2.4
			c0.6,0.3,1,0.7,1.6,1.1c-1.3,0.9-2.1,0.8-2.7-0.3c-0.4-0.8-0.9-0.9-1.7-1c-1-0.1-1.9-0.6-3-0.3c-0.2,0-0.5-0.4-0.7-0.7
			c-0.1-0.2-0.1-0.7,0-0.8c0.7-0.4,1.4-0.9,1.3-1.8c-0.1-0.8-0.4-1.5-0.6-2.3c1,0.1,2.1,0.2,3.5,0.3c-0.7-0.9-0.8-1.9-1.9-1.9
			c0,0-0.1,0-0.1-0.1c-0.3-0.6-0.6-1.1-0.9-1.7c0.5-0.2,1-0.3,1.6-0.5c0,0.1,0.1,0.2,0.1,0.2c0-0.1,0.1-0.1,0.1-0.2
			c-0.1-0.3-1.3-1.6-1.5-1.8c-0.8-0.7-1.7-0.6-2.6-0.4c-0.8,0.2-1.6,0.4-2.4-0.2c-0.3-0.2-1-0.8-1.4,0c0,0.1-0.3,0.2-0.3,0.2
			c-0.4-0.8-1.3-0.8-2-1.2c-0.6-0.4-0.3-1.8,0.2-2.4c0.8-0.8,1.4-1.5,2.6-1.9c0.4-0.1,0.7-0.8,0.9-1.3c0.3-0.9,0.4-1.9,0.6-2.8
			c0.1-0.4,0.5-0.7,0.7-1.1c0.2-0.4,0.5-0.8,0.5-1.2c0.1-1.4,0-1.3-1.4-1.4c-0.3,0-0.7-0.2-1-0.3c-0.7-0.4-1.4-0.9-2-1.4
			c-0.2-0.1-0.5-0.3-0.5-0.4c0.3-1.3-0.9-2-1.1-3.1c-0.1-0.5-0.7-0.9-1-1.4c-0.2-0.4-0.5-0.9-0.4-1.3c0.2-0.6-0.1-1.5,1-1.5
			c0.6,0,1.3-0.1,1.9-0.2c0.3-0.1,0.6-0.4,1-0.6c0.4-0.2,0.9-0.6,1.4-0.6c1.3,0,2.6,0.2,3.8,0.3c0.3,0,0.6,0,0.8-0.1
			c0.6-0.6,1.4-1.3,1.7-2.1c0.3-1.1,1.1-1.6,1.9-2.1c0.4-0.3,0.7-0.7,0.9-1.2c0.3-0.8,0.9-1.2,1.4-0.7c0.9,0.8,1.4,0.4,2-0.3
			c0.8-1,1.7-1.9,2.6-2.9c0.7-0.8,0.6-1.9-0.3-2.9c-1.3-1.4-2.4-2.9-2.9-4.8c0.1,0,0.1-0.1,0.2-0.1c1.2-0.6,2.1-0.3,2.5,1
			c0.1,0.2,0.4,0.3,0.6,0.4c0.1-0.2,0.2-0.4,0.3-0.6c0.1-0.2,0.3-0.5,0.3-0.5c1.3,0.7,1.6-0.8,2.5-1.2c1.3-0.5,2.2-1.8,3.7-1.7
			c0.3,0,0.6-0.3,1-0.4c0.9-0.3,1.6,0.2,2.4,0.6c0.1,0,0.1,0.3,0.1,0.3c-0.9,0.6-0.2,1.6-0.6,2.2c-0.5,0.6-0.5,1.2,0.1,1.5
			c0.5,0.3,1.3,0.6,1.8,0.4c1-0.4,1.9-1.1,2.8-1.7c0.5-0.3,0.9-0.6,0.2-1.2c-0.2-0.1-0.2-0.7-0.1-0.8c0.5-0.7,1.1-1.3,1.8-1.9
			c0.1-0.1,0.4,0,0.6,0.1c2,1.1,3.9,2.3,4.6,4.7c0.2,0.7,0.8,1.2,1.5,1.1c1.6-0.1,2.5,0.9,3.3,2c0.1,0.2,0.3,0.3,0.5,0.5
			c0.1-0.2,0.4-0.4,0.4-0.6c0-0.4-0.1-0.9-0.3-1.3c-0.8-1.2-0.8-1.5,0.2-2.4c-0.3-0.2-0.6-0.4-1.2-0.8c0.5-0.1,0.7-0.1,1-0.1
			c2.7,0,5.3-0.1,8-0.1c0.3,0,0.5,0,0.8,0c1.5-0.2,1.9-0.5,2.1-2c0-0.4,0.1-0.7,0.1-1.1c0-0.9,0-1.7,1.3-1.7c0.6,0,1-0.6,1.3-1.4
			c0.5-1.4,1.1-3,2.6-3.3c2.1-0.4,2.2-2.2,2.9-3.5c0.5-1.1,1.3-1.8,2.5-1.8c1.5,0,2-0.4,1.9-1.9c0-1.2,0.1-2.1,1.4-2.5
			c0.9-0.3,1.7-1.1,2.9-0.6c0.8,0.3,1.7,0.4,2.4,1c0.2,0.1,0.5,0.1,0.8,0.1c0.7,0,0.9,0.4,0.9,0.9c-0.4,0-0.8,0-1.2,0.1
			c0.1,0.7,0,1.6,0.5,2c1,0.8,1.3,1.8,1.7,2.9c0.1,0.3,0.5,0.6,0.5,0.9c0.2,0.9,0.5,1.7,0.5,2.6c0,1.4,0,2.7,0.7,4
			c1,1.9-0.9,4.8-3.1,5.2c-1.3,0.2-2.5,0-3.6-0.7c-0.7-0.4-1.4-0.9-1.3-1.9c0-0.2-0.2-0.5-0.3-0.7c-0.6-1.3-1.3-2.6-1.9-3.9
			c-0.2-0.4-0.5-0.9-0.6-1.3c-0.1-0.4,0.1-0.8,0.1-1.2c0-0.3-0.1-0.5-0.2-0.8c-0.2,0.1-0.4,0.3-0.5,0.4c-0.2,0.5-0.3,1-0.3,1.5
			c-0.1,0.4-0.1,0.9-0.1,1.3c0,0.2-0.1,0.5,0,0.7c0.4,1.3,0,2.3-1.2,2.9c-0.6,0.3-1,1-1.3,1.5c-0.3,0.5-0.6,1-0.7,1.5
			c-0.1,0.4-0.1,0.9,0,1.4c0.1,0.6,0.4,1.2,0,1.8c-0.1,0.2,0,0.6,0.2,0.9c0.1,0.3,0.4,0.5,0.6,0.7c0.4,0.4,0.8,1,1.5,0.4
			c0.6-0.5,0.9-1.1,0.5-1.9c-0.4-0.8-0.5-1.6,0.1-2.3c0.2-0.2,0.5-0.3,0.8-0.3c0.1,0,0.3,0.4,0.3,0.6c0.1,1.5,0.4,2.8,1.5,3.9
			c0.3,0.4,0.8,0.6,1.3,0.8c0.1,0.1,0.5-0.2,0.6-0.4c0.2-0.7,0.4-1.5,0.6-2.2c0.1-0.2,0.3-0.5,0.4-0.5c1,0.4,2.1-0.8,3.1,0
			c0.2,0.1,0.6,0.1,0.9,0c0.7-0.2,1.3-0.3,1.8,0.3c0.5,0.6,0.8,1.2,0.2,1.9c-0.1,0.1,0,0.3,0,0.4c0.8-0.5,1.7-0.8,2.4-1.4
			c0.5-0.4,0.8-1.2,0.9-1.8c0.1-0.7,0.4-1,0.9-1.5c0.9-1,2.5-1.9,1.5-3.9c2,1,3.1,2.9,2.7,4.5c-0.1,0.5-0.3,1.1-1.1,0.5
			c-0.4-0.3-1.1-0.3-1.6-0.2c-0.8,0.1-1.1,0.6-1,1.4c0.1,0.6,0.1,1.3,0.5,1.7c0.5,0.5,1.2,0.9,1.9,1c0.4,0.1,0.9-0.4,1.3-0.7
			c0.3-0.2,0.6-0.7,0.9-0.7c1.8,0,3.6,0,5.3,0.1c0.7,0,1.3,0.4,1.9,0.6c0.6-0.3,1.2-0.7,1.9-1c0.1-0.1,0.5,0.2,0.6,0.3
			c0.1,0.2,0,0.5-0.2,0.7c-0.3,0.5-0.7,0.9-1.1,1.3c0.6,0.9,1.3,0.9,2.4,0.6c0.6-0.2,1.6-0.2,2,0.2c0.8,0.9,1.6,0.8,2.6,0.6
			c0.2,0,0.4-0.2,0.6-0.2c0.3,0,0.6,0.1,0.9,0.1c-0.1,0.3-0.1,0.6-0.2,0.8c-0.8,0.7-0.5,1.2,0.1,1.6c0.5-0.3,0.9-0.6,1.3-0.8
			c0.9-0.3,1.5-1.2,1.5-2.3c0-1.1,0.7-1.5,1.7-1c1.7,0.9,2.9,2.3,4,3.9c0.2,0.3,0.5,0.6,0.8,0.9c0.8,1,1.8,2,2,3.4
			c0.1,0.4,0.5,0.7,0.8,1c0.3-0.3,0.6-0.6,0.8-0.9c0.3-0.4,0.5-0.8,0.8-1.4c-0.7-0.5-0.9-1.3-0.9-2.2c0-0.3-0.4-0.7-0.6-1.1
			c-0.4-0.6-0.7-1.1,0.1-1.5c0.3-0.1,0.5-0.5,0.6-0.8c0.2-0.6,0.4-1.2,0.5-1.8c0-0.2,0.1-0.4,0.1-0.5c-0.2-1.6-0.3-1.6,1.1-2.2
			c1.2-0.5,2.1-1.4,2.6-2.6c0.3-0.7,0.5-1.3,0.9-2c0.3-0.6,0.6-1,1.4-0.4c0.5,0.4,1.3,0.6,2,0.7c0.8,0.1,1,0.8,0.9,1.2
			c-0.2,1-0.6,2-1.1,2.9c-0.6,0.9-1.3,1.5-0.5,2.7c0.3,0.6,0.1,1.8-0.3,2.4c-0.9,1.5-1,3.1-1.6,4.7c-0.4,1.2-0.6,2.2,0.4,3.2
			c0.1,0.1,0.1,0.8-0.1,0.9c-0.7,0.5-0.8,1.1-1,1.8c0,0.2-0.2,0.4-0.3,0.5c-0.7,0.7-1.5,1.4-2.3,2c-0.4,0.3-0.8,0.5-1.3,0.6
			c-0.9,0.1-1.9,0.3-2.6-0.6c-0.1-0.1-0.5-0.1-0.5,0c-0.1,0.2-0.2,0.5-0.1,0.8c0.4,1.1,1.4,1.5,2.3,1.9c0.2,0.1,0.6,0.1,0.7,0.2
			c0.8,0.8,1.3,0.8,1.7-0.4c0.2-0.4,1.1-0.5,1.6-0.7c0.7-0.3,1.5-0.4,1.6-1.5c0-0.4,0.6-0.8,0.9-1.1c0.8-0.7,1.1-1.6,0.7-2.6
			c-0.3-0.8-0.1-1.4,0.6-1.7c0.7-0.3,1.4-0.5,2.1-0.5c0.7,0,1.3,2.2,1,3c-0.6,1.2-0.1,2.9,1.1,3.1c0.2,0,0.4-0.1,0.7-0.2
			c-0.1-0.2-0.2-0.4-0.4-0.5c-1.2-0.8-1.2-0.9-0.3-2.2c0.7-1.1,0.1-3.2-1.2-3.9c-0.4-0.2-0.8-0.5-1.3-0.7c-0.2-0.1-0.6-0.1-0.7,0
			c-0.6,0.7-1.1,0-1.7-0.1c-0.1,0-0.3-0.4-0.3-0.5c0.5-1.6,0.5-3.4,1.8-4.8c0.2-0.2,0.3-0.7,0.3-1c-0.2-0.9-0.5-1.8-0.7-2.7
			c0-0.2-0.1-0.4,0-0.5c0.6-0.5,1.1-1.2,1.8-1.5c1-0.5,1.5-1.1,1.4-2.2c0-0.3,0.1-0.7,0.4-1c-0.3,1.3,0.3,2.7-0.7,3.9
			c-1,1.3,0.1,3,1.7,3.1c0.6,0.1,1.1,0.6,1.7,0.9c0.1-0.8-0.4-1.2-0.9-1.7c-0.5-0.5-1-1-1.4-1.6c-0.1-0.2-0.1-0.7,0.1-0.8
			c0.2-0.1,0.6-0.1,0.9,0c0.1,0,0.3,0.2,0.4,0.4c0.5,0.4,0.8,0.2,0.9-0.4c0.1-0.4,0.2-1.2,0.3-1.2c0.6,0,1.4,0,1.9,0.3
			c0.6,0.3,1.5,0.5,1.3,1.7c-0.1,0.3,0.8,0.9,1.4,1.1c0.8,0.3,1.2-0.2,0.8-1c-0.2-0.5-0.6-1-0.9-1.3c-0.9-0.8-1.1-1.5-0.8-2.6
			c0.1-0.4,0.1-0.8,0-1.2c-0.3-1.1,0.1-1.7,1.3-1.8c1.1,0,2.2,0.2,3.3,0.1c1-0.1,1.9-0.3,2.9-0.5c0.5-0.1,0.6-0.5,0.3-0.9
			c-0.3-0.3-0.6-0.5-1.1-0.8c1-0.2,1.1-0.8,1.2-1.7c0-0.5,0-1.7,1.3-1.9c0.5,0,0.8-0.9,1.3-1.2c1.2-0.6,2.5-1.1,3.8-1.6
			c0.2-0.1,0.5-0.3,0.5-0.3c-0.5-1.3,0.6-0.8,1.1-1.1c0.5-0.2,0.9-0.4,1.5-0.7c0,0.3,0,0.6-0.1,1.1c0.8-0.5,1.8,0,2.4-0.9
			c0.2-0.2,0.8-0.2,1.4-0.3c-0.3-0.4-0.5-0.7-0.8-1.1c0.3-0.1,0.5-0.1,0.7-0.2c1.4-0.2,1.3-0.2,1.1-1.6c-0.2-1.4,0.4-2.7,1.5-3.7
			c0.6-0.6,1.1-0.7,1.8-0.3c0.8,0.3,0.8,0.6,0.3,1.2c-0.3,0.3-0.5,0.6-0.7,0.9c0,0.1,0.1,0.2,0.1,0.3c0.5-0.1,1.1-0.1,1.6-0.2
			c0.8-0.1,1.1,0.2,0.9,1c-0.2,0.7,0.2,0.8,0.6,0.9c0.6,0.2,0.7-0.1,0.8-0.6c0-0.3,0.2-0.7,0.4-0.7c1-0.2,2.2-1.1,3.1-0.4
			c1,0.7,2,1.4,2.8,2.3c0.2,0.2-0.3,0.9-0.2,1.3c0.2,0.5,0.9,0.8,1,1.2c0,0.6-0.3,1.3-0.5,1.9c-0.1,0.3-0.3,0.6-0.5,0.8
			c-1.4,1.5-2,3.5-2.8,5.4c-0.1,0.1-0.2,0.3-0.4,0.4c-1.4,0.9-2,2.2-2.1,4c0.3-0.2,0.6-0.3,0.6-0.4c0-1.1,0.7-1.3,1.5-1.5
			c0.3-0.1,0.5-0.3,0.7-0.5c0.4-0.4,0.9-0.8,1.3-1.1c0.5-0.4,1.1-0.8,0.2-1.5c-0.2-0.1-0.3-0.5-0.2-0.7c0.1-0.2,0.4-0.2,0.7-0.3
			c0.2,0,0.5,0,0.7,0.1c0.9,0.5,1.6,0.2,2.1-0.9c0.4,0.9,0.7,1.5,1,2.2c0.1,0,0.2,0,0.4,0c-0.3-1.2,0.6-1.7,1.4-2.1
			c1.1-0.5,2.2-0.7,3.3-1c0.1,0,0.3,0.2,0.5,0.4c0.3,0.3,0.5,0.7,0.8,1c0.1,0.1,0.5,0.1,0.6,0c0.7-0.6,1.6,0.1,2.3-0.4
			c0.5-0.4,1.2-0.6,1.7-0.9c0.2-0.1,0.4-0.5,0.4-0.7c-0.1-0.6-0.4-1.2-0.5-1.8c-0.1-0.4,0-0.9,0-1.4c0.5,0,1-0.1,1.4,0
			c1,0.4,1.6,0.3,2.3-0.5c0.2-0.2,0.6-0.3,1-0.3c0.3,0,0.7,0.1,1,0.1c0.2,0.1,0.7,0.3,0.6,0.4c-0.3,0.9,0.8,1.1,0.9,1.8
			c0,0.1,0.3,0.2,0.5,0.3c0.2,0.1,0.7,0.1,0.7,0.2c0,0.3,0,0.7-0.2,1c-0.6,0.9-0.6,0.8,0.4,1c0.1,0,0.3,0.1,0.3,0.1
			c0,0.9,1,0.6,1.3,1c0.8,1,1.8,1.1,3.1,1.1c0.8,0,0.9-0.3,0.7-0.8c-0.3-1-0.7-2-1-3c-0.1-0.2-0.1-0.5-0.1-0.7c0.3,0,0.7-0.1,0.9,0
			c0.6,0.6,1.2,0.3,1.9,0.4c0.7,0,1-0.2,0.9-1c-0.1-0.9,0.4-1.4,1.3-1.6c0.4-0.1,0.8-0.1,1.2-0.1c0.3,0,0.7,0,1,0
			c-0.2-0.3-0.4-0.7-0.7-1.2c0.2-0.1,0.6-0.4,1-0.6c0.3-0.2,0.6-0.4,0.9-0.5c-0.2-0.3-0.4-0.6-0.6-0.9c-0.4-0.5-0.9-1-1.3-1.6
			c-0.1,0.1-0.3,0.4-0.5,0.6c-0.1,0-0.2-0.1-0.3-0.1c0.1-0.4,0.1-0.9,0.3-1.2c0.5-0.6,0.8-1,0-1.5c-0.6-0.4-0.1-0.8,0.3-0.8
			c1.1-0.1,1.7-0.7,2.3-1.5c0.6-0.7,1.8-0.9,3-1.4c-0.3,0.9-1.5,1.1-0.9,2.1c0.5-0.2,1.1-0.4,1.6-0.7c0.2,0.5,0.3,1,0.5,1.8
			c0.2-0.5,0.5-0.9,0.5-1.3c0.1-0.4-0.1-0.8-0.1-1.2c-0.2-1.7,0.8-2.9,2.4-3.1c0.5,0,0.9,0.1,0.6,0.8c-0.1,0.2-0.1,0.5-0.2,0.8
			c0.4,0,0.8,0.1,1.2,0.1c0.5-0.1,1-0.2,1.6-0.4c0.2-0.8,0.6-1.1,1.4-0.9c1.3,0.3,3.1-0.7,3.1-2.1c0.1-1.6,1-2.5,2-3.5
			c0.4-0.4,0.8-1,1.3-1.1c1.2-0.3,2.6-0.7,3.5,0.8c0.5,0.9,1.2,0.7,1.9,0.3c0.4-0.2,0.8-0.4,1.2-0.6c0.1,0,0.2-0.1,0.2-0.1
			c0.3-0.9,0.6-1.8,0.8-2.7c0.1-0.7,0.3-1.1,0.9-1.6c0.9-0.7,1.5-1.9,2-3c0.2-0.4-0.3-1.1-0.4-1.7c-0.1-0.4,0-0.8,0.1-1.2
			c0-0.1,0.4-0.2,0.6-0.3c0.1,0.3,0.4,0.6,0.3,0.7c-0.4,1,0.3,1.2,0.9,1.1c1-0.2,2.1-0.5,3-1c0.6-0.2,0.5-1.2-0.1-1.5
			c-0.7-0.3-1.5-0.5-2.3-0.8c-0.6-0.2-1.1-0.4-1.7-0.6c-0.1-0.1-0.1-0.6,0-0.8c0.3-0.6,0.6-1.3,1.1-1.6c1.5-0.8,1.2-2.6,2.1-3.6
			c0.4-0.5,0.6-1.1,1-1.5c0.7-0.7,1.4-1.4,2.1-2.1c0.5-0.4,1-0.7,1.5-1.1c0.7-0.5,1.5-1,2.2-1.5c1.4-1.1,2.6-2.5,4.4-3.1
			c0.4-0.1,0.6-0.6,0.9-0.8c0.7-0.3,1.3-1.1,2.3-0.4c0.6,0.4,1.5,0.5,2.2,0.3c0.6-0.1,1.1-0.8,1.6-1.4c-0.8,0-1.6-0.1-2.4-0.1
			c-0.5,0-0.6-0.4-0.4-0.7c0.3-0.4,0.4-0.8,0.5-1.2c0.2-1.1,0.9-2,2.1-2.4c0.4-0.1,0.6-0.4,1-0.7c0.4-0.3,0.8-0.5,1.2-0.8
			c0.3,0.5,0.8,1,1,1.6c0.1,0.4-0.3,0.9,0.5,0.8c0,0.4,0,0.9-0.2,1.3c0,0.1-0.4,0.2-0.6,0.3c0.1,0.1,0.1,0.1,0.2,0.2
			c0.7,0,1.3,0,2,0c0.3,0,0.6,0.1,0.8,0.3c0.5,0.4,0.6,1.4,1.5,0.7c0,0.2,0.1,0.6,0,0.7c-0.5,0.2-0.5,0.3-0.1,0.7
			c0.5,0.5,0.1,1-0.4,1.1c-1,0.2-1.4,0.9-1.8,1.6c-0.4,0.7-0.8,0.9-1.6,0.7c-1.3-0.3-1.9,0.4-1.6,1.7c0.2,1.2,0.1,1.4-1.3,1.6
			c-0.7,0.1-1.5,0.1-2.3,0.1c-0.3,1.3,0.4,2,1.8,2c1.2,0.1,2.1,0.9,2.6,1.9c0.3,0.5,0.4,1.1,0.5,1.7c0.1,0.9-0.3,1.5-1.3,1.7
			c-0.8,0.2-0.8,0.2-0.4,1c0,0.1,0,0.2,0,0.2c0.1,0.2,0.2,0.5,0.2,0.7c0.2-0.2,0.4-0.3,0.6-0.5c0.3-0.3,0.7-0.6,1-0.8
			c0.3-0.2,0.7-0.3,1-0.6c0.7-0.6,1.5-0.5,2.5-0.2c0.5,0.2,1.3-0.1,1.9-0.3c1.2-0.5,2.3-0.3,2.9,0.7c0.3,0.5,0.4,0.9-0.2,1.2
			c-0.2,0.1-0.4,0.2-0.5,0.4c-0.5,0.5-0.9,1-1.5,1.6c0.9,1.2,1.4,2.7,1.5,4.5c0.2,1.9,0.6,3.9,1.4,5.6c0.5,1,0.8,1.9,1,2.9
			c0.1,0.7,0.6,1.3,1,2c0.1,0.2,0.2,0.5,0.3,0.7c-0.2,0.1-0.5,0.3-0.7,0.2c-1.3-0.4-1.6,0.4-2.3,1.2c-0.9,1.1-0.6,2.4-0.8,3.6
			c-0.1,0.3,0.2,0.7,0.4,1.1c0.1,0.3,0.3,0.6,0.4,0.9c-0.2,0.1-0.2,0.1-0.2,0.1c-0.5-0.2-1.1-0.4-1.6-0.6c0.2,0.7,0.3,1.5,0.6,2.2
			c0.2,0.3,0.3,0.4,0,0.7c-1.6,1.5-1.6,2.3-0.1,3.8c0.9,0.9,1.7,1.7,1.7,3.1c0,0.7,2.1,2.1,2.7,2c0.2,0,0.4-0.3,0.5-0.5
			c0.2-0.5,0.3-1,0.4-1.5c0.1,0,0.2,0,0.4,0c0.3,0.5,0.7,1,1,1.5c0.6,1.2,1.6,1.7,2.9,1.3c0.6-0.2,1.1,0,1.3,0.5
			c0.1,0.3-0.3,0.7-0.4,1.1c-0.1,0.3-0.4,0.7-0.3,1c0.4,1.4,1.7,2.7,3.5,2.8c0.4,0,0.9,0.2,1.3,0.5c0.4,0.4,0.4,0.8-0.1,1.2
			c-1.6,1.2-1.3,3.8,0.4,4.8c0.6,0.4,1.3,0.7,2,1c-1.6,1.3-1.5,2.9,0.1,4.2c1.1,0.9,2.1,1.9,2.2,3.5c0,1,0.4,1.9,0.6,2.9
			c-1.2,0.2-2-0.1-2.9-0.7c-1.1-0.8-2.5-1.3-3.7-2c-1.2-0.7-2.4-1.5-3.7-2.2c-0.4-0.2-0.9-0.4-1.3-0.6c-1.3-0.5-2.8-0.8-3.8-1.7
			c-1.4-1.2-2.8-2.6-3.6-4.5c-0.5-1.2-0.6-2.8-2.2-3.3c1.1-2.7,0.6-5.2-0.6-7.6c-0.3-0.6-0.6-1.2-0.8-1.8c-0.6-1.7-1.3-3.3-1.9-5
			c-0.2-0.5-0.1-1,0-1.5c0.3-1.8-0.3-2.8-1.9-3.7c-0.9-0.5-1.6-1.3-2.3-2c-0.1-0.2,0-0.7,0.2-1c0.1-0.3,0.3-0.5,0.6-0.8
			c-1.6,0.5-2.2,1.1-2.2,2.4c0,0.2,0,0.4,0.1,0.5c0.8,0.7,1.6,1.5,2.4,2.2c-1,0.9,0.1,2,0.1,3.1c0,0.9,0.3,1.9,0.4,2.8
			c-0.7,0.2-1.1-1.3-1.6,0c-0.2-0.1-0.5-0.2-0.7-0.4c-0.5-0.6-1-1.3-1.6-1.9c-0.1,0.9,0,1.8-1.2,1.8c-0.1,0-0.3,0.1-0.3,0.2
			c0,1.4-1.3,2.5-1,4c0.1,0.3,0.2,0.6,0.3,0.8c0.1,0.3,0.3,0.7,0.4,1c0.1,0.2,0,0.6,0.1,0.8c0.7,0.8,0.5,1.9,0.7,2.8
			c0.3,1.1,0.7,2.1,1.2,3.1c0.1,0.2,0.7,0.3,1.1,0.2c0.2,0,0.4-0.4,0.6-0.5c0.2-0.1,0.4,0,0.6-0.1c0,0.2,0,0.5-0.1,0.6
			c-0.7,0.5-0.5,1.8-1.7,1.7c0,0-0.1,0.5-0.1,0.7c0.2,0.7,0.3,1.3-0.5,1.7c-0.2,0.1-0.2,0.6-0.4,0.9c-0.2,0.3-0.4,0.6-0.6,0.9
			c-0.1,0-0.6-0.2-0.6-0.4c0-0.4,0.1-0.7,0.2-1.1c0-0.1,0.2-0.2,0.6-0.4c-1.7-0.2-2.6,0.8-3.6,1.4c-0.3,0.2-0.5,0.5-0.8,0.6
			c-1.1,0.6-1.3,1.1-0.9,2.3c0.1,0.2,0,0.5,0,0.8c-1-0.3-0.8,0.6-1.1,1.1c-0.2,0.4-0.8,0.7-1.2,1c-0.6,0.3-0.9,0.5-0.6,1.2
			c0.1,0.1-0.4,0.7-0.5,0.6c-0.9-0.1-1.4,0.5-1.9,1.1c-0.9,1.2-1.8,2.3-2.6,3.6c-0.6,0.9-0.6,1.8-0.1,2.8c0.1,0.3,0.1,0.8,0,1.1
			c-0.6,1-0.6,1.9,0,2.9c0.2,0.3,0.1,0.8,0.2,1.2c0.2,2.2-0.9,4.3,0,6.5c0.2,0.6,0.1,1.4,0,2.1c-0.3,1.8-0.8,3.5-1.1,5.3
			c-0.1,0.4,0.1,0.9,0.2,1.4c0.4-0.1,0.8-0.1,1.2-0.2c0.5-0.2,1-0.5,1.5-0.8c0.6-0.5,1.1-0.4,1.5,0.3c0.2,0.4,0.3,0.9,0.6,1.2
			c0.2,0.2,0.6,0.2,0.9,0.2c0-0.3,0.1-0.6,0-0.9c0-0.2-0.3-0.3-0.4-0.5c0-0.1,0-0.3,0.1-0.4c0.1-0.1,0.3-0.1,0.3,0
			c0.4,0.3,1.2,0.3,1,1.2c0,0.2,0.1,0.4,0.2,0.6c0.3-0.1,0.5-0.2,0.8-0.4c0.4-0.3,0.7-0.6,1.1-1c0.1-0.2,0.2-0.4,0.2-0.6
			c-0.1-0.2-0.3-0.4-0.4-0.7c-0.8-1.3-0.6-1.9,0.9-2.3c0.8-0.2,1.8-0.3,2.5,0c0.7,0.3,1.4,0.3,2.1,0.1c0.3-0.1,0.6,0,0.9,0.1
			c-0.1,0.3-0.2,0.6-0.4,0.9c-0.1,0.1-0.1,0.2-0.2,0.5c0.9,0,1.7,0.3,2.2,1.1c0.1,0.1,0.3,0.2,0.5,0.2c1-0.1,1.3,0.7,1.3,1.4
			c0.1,2.4,1.2,4.2,2.9,5.9c1,0.9,1.5,2.3,2.3,3.4c0.2,0.4,0.4,0.8,0.7,1.1c1.1,1.1,1,2.4,0.8,3.7c-0.1,0.5,0,1.1,0.1,1.6
			c0.5,2.7,1.1,5.3,1.5,8c0.2,1.3-0.2,2.6-0.2,3.9c-0.1,2.6-0.1,5.3-0.1,7.9c0,1-0.2,1.9-0.8,2.8c-0.2,0.2-0.4,0.5-0.4,0.8
			c-0.4,1.8-2,2.1-3.4,2.6c-0.2,0.1-0.8-0.4-1.2-0.7c-0.1,0.1-0.2,0.3-0.3,0.6c-0.1,0.1-0.2,0.4-0.2,0.4c-1.4-0.6-0.8,0.6-0.9,1.1
			c-0.3,0.9-0.4,1.9-0.6,2.8c0,0.1-0.4,0.3-0.5,0.2c-0.2-0.1-0.4-0.4-0.4-0.6c0.1-0.4,0.2-0.9,0.5-1.3c0.5-0.9,0.3-1.8-0.3-2.5
			c-0.6-0.9-1.3-1.8-2-2.7c-0.2-0.3-0.6-0.6-0.9-0.8c-0.8-0.4-0.6-0.8-0.2-1.4c0.3-0.4,0.5-0.9,0.7-1.4c0.3-0.7,0.8-1,1.5-1
			c1.2,0,1.6-0.9,1.2-2c-0.3-0.9-0.2-1.9-0.5-2.8c-0.5-1.6-1.2-3.2-1.8-4.8c-0.1-0.2,0-0.5,0.1-0.7c0.4-0.7,0.3-1.3-0.3-1.8
			c-0.2-0.2-0.4-0.4-0.6-0.6c-0.8-0.9-1.8-0.8-2.4,0.2c-0.4,0.8-0.9,1.5-1.3,2.3c-0.1,0.2-0.3,0.5-0.3,0.7c0.4,1.1-0.4,1.4-1.1,1.8
			c-0.5,0.4-1,0.8-1.5,1.2c-0.6,0.5-1.8-0.2-2.3-1c-0.4-0.7-0.9-1.2-1.5-1.7c-0.2-0.2-0.7,0-1.1,0c-0.2,0-0.5,0.2-0.7,0.1
			c-1.1-0.5-2.2-0.2-3.3-0.1c-0.4,0-0.8,0.3-1.2,0.5c-1.3,0.7-2.1,0.4-3.1-0.8c-0.8-0.9-1.6-2.1-3-2.4c-0.2-0.1-0.4-0.3-0.6-0.5
			c-0.8-0.8-1.7-1.5-2.5-2.3c-0.5-0.5-1-0.9-1.5-1.4c-1-1-2.2-0.8-3.4-0.7c-1.2,0.1-2.3,0.5-3.5,0.5c-1.2,0-2,0.7-2.8,1.3
			c-0.4,0.3-0.7,0.7-1.2,0.9c-1.5,0.6-1.9,1.9-2.3,3.3c-0.2,0.5-0.1,0.9,0.6,0.9c1.2,0,2.1,1,1.9,2.3c-0.3,1.6-0.7,3.1-0.9,4.7
			c-0.1,0.5,0.3,1.1,0.5,1.6c0.4,0.8,0.8,1.4-0.4,1.9c-0.2,0.1-0.3,0.4-0.4,0.6c-0.9,1.7-2,2.4-3.9,2c-1.1-0.2-2-0.2-2.9,0.5
			c-0.5,0.4-1,0.5-1.6,0.1c-0.9-0.6-1.7-0.3-2.4,0.4c-0.7,0.7-1.3,1.4-1.7,2.3c-0.4,0.8-1.3,1.3-2,1.9c-0.3,0.3-0.9,0.3-1.2,0.6
			c-2.1,2.4-4.9,1.9-7.6,2.1c-0.5,0-1.1-0.4-1.4-0.8c-0.5-0.6-1-0.9-1.8-0.9c-0.9,0-1.8-0.5-2.7-0.4c-1.5,0.1-2.9-0.2-4.3,0.9
			c-1.8,1.3-5.3,1.5-6.3-1.2c-0.6-1.6-1.9-2-3.7-1.7c-0.6,0.1-1.1,0.2-1.6-0.3c-0.3-0.2-0.7-0.3-1.1-0.3c-0.3-0.1-0.6,0-0.9-0.1
			c-1.3-0.4-1.7-0.3-2.4,0.8c-0.3,0.5-0.6,0.9-0.8,1.4c-0.2,0.5-0.3,1.1-0.2,1.5c0.2,0.8,0.7,1.5,1,2.3c0.1,0.3,0.2,0.8,0.1,0.9
			c-0.8,0.7-1.6,1.6-2.5,1.8c-1.4,0.3-2.8,0.1-4.2-0.1c-1.1-0.1-2.2-0.6-2.9-1.5c-0.6-0.8-1.4-1.1-2.4-0.7c-0.3,0.1-0.7,0-0.9-0.2
			c-0.7-0.6-1.2-0.8-2.1-0.1c-1.1,0.8-2.5,1.2-3.8,1.9c-1.2,0.7-2.4,1.7-3.6,2.5c-0.3,0.2-0.8,0.3-1.2,0.4c-0.3,0.1-0.6,0-0.8,0.2
			c-1,0.6-2,1.1-3.2,1c-0.7-0.1-0.9,0.6-1,1.2c-0.1,1-0.6,1.5-1.7,1.5c-0.9,0-1.6,0.7-1.6,1.8c0,0.6,0,1.2,0,1.8
			c0,0.8-0.3,1.4-1.1,1.5c-0.3,0.1-0.6,0.3-1,0.4c-0.2,0.1-0.3,0.2-0.5,0.3c-0.5-1.3-1.6-0.2-2.3-0.6c-0.8-0.4-1.6-0.7-2.2-0.9
			c-0.5,1-1.1,1.8-1.5,2.7c-0.5,1-0.9,2.1-1.2,3.1c-0.1,0.2,0.2,0.4,0.3,0.7c0.1,0.3,0.2,0.5,0.2,0.8c-0.3,0-0.5,0.1-0.8,0.1
			c-0.6,0-1.2,0-1.6-0.6c-0.1-0.2-0.8-0.2-1.1-0.1c-1,0.1-2.1,0.3-3.1,0.6c-0.4,0.1-0.7,0.4-1.2,0.8c0.7,0.2,1.1,0.4,1.8,0.6
			c-1.2,1.5-0.3,2.9,0,4.4c0.1,0.5,0.3,1.1,0.1,1.6c-0.2,0.5-0.7,1.1-1.2,1.3c-0.9,0.4-1,0.9-0.8,1.7c0.1,0.3,0,0.7,0,1.1
			c0,0.7-0.3,0.9-1,1c-1.3,0.2-2.7,0.5-3.9,0.9c-0.6,0.2-1,0.9-1.5,1.4c-0.3,0.3-0.4,0.5-1,0.3c-0.9-0.3-1.9-0.4-2.9-0.5
			c-0.3,0-0.6,0.4-0.8,0.7c-0.5,0.7-0.9,1.4-2.1,1.4c-1.4-0.1-1.6-0.1-1.6-1.3c-0.6,0-1.5-0.3-1.9,0.1c-1,0.9-2.4,0.9-3.5,1.4
			c-0.5,0.3-0.4,0.8-0.4,1.4c0,0.3-1,0.7-0.9,1c0.1,0.7,0.2,1.3-0.1,2c-0.3,0.6,0.5,1.1,1.1,0.9c1-0.3,1.8,0.3,1.8,1.3
			c0,0.8,0,1.5,0,2.3c0,0.4-0.3,0.7,0.1,1c0.5,0.5-0.1,0.7-0.4,1.1C138.2,259.8,138.1,259.8,138,259.8z"/>
		<path class="st4" d="M146.7,111.6c-0.6-0.4-0.9-0.5-1.2-0.8c0.2-0.1,0.3-0.2,0.4-0.2c1.4-0.7,2.8-1.3,4.2-2
			c0.1-0.1,0.2-0.3,0.2-0.5c0-0.9,0.6-1.2,1.3-1.2c0.7-0.1,1.1-0.5,1.7-0.8c0.6-0.4,1.4-0.4,2.2-0.5c0.3,0,0.8,0.2,0.9,0
			c0.9-1,1.7-0.4,2.6,0c1.2,0.4,2.3,0.4,3.3-0.5c0.4-0.4,1-0.5,1.6-0.7c0.6-0.2,1.1-0.1,1.4,0.5c0.3,0.6,0.3,1.1-0.2,1.6
			c-1.2,1.2-2.6,1.3-4.1,1.6c-1.5,0.3-3.2-0.5-4.4,0.8c-0.2,0.2-0.6,0-0.9,0.1c-0.4,0.1-1.1,0.3-1.1,0.6c-0.1,0.9-0.7,0.8-1.3,0.8
			c-0.7,0-1.4,0.1-1.7,0.9c-0.1,0.1-0.2,0.3-0.4,0.4c-1.5,0.4-2.5,1.7-3.7,2.5c-1.5,1-3.2,2.2-3.8,4.1c-0.3,0.8-0.5,1.7-0.4,2.4
			c0.2,0.9-0.4,2,0.4,2.8c-0.2,0.2-0.6,0.6-0.6,0.5c-1-0.6-2-1.3-2.9-2.1c-0.5-0.4-0.7-0.8,0.1-1.4c0.7-0.4,0.2-2.1-0.8-2.7
			c-0.8-0.6-0.9-1.3-0.2-2c0.2-0.2,0.5-0.3,0.7-0.3c1.3,0.1,2.4-0.2,2.5-1.8c0-0.1,0.3-0.3,0.4-0.3c0.7,0.3,0.8-0.2,1-0.7
			c0-0.1,0.3-0.3,0.4-0.2C145.2,113.1,145.6,111.9,146.7,111.6z"/>
		<path class="st4" d="M317.7,176.9c-0.9,0.1-1.5,0.2-2.1,0.3c-1.1,0.2-1.3,0.9-0.8,1.8c0.2,0.3,0.5,0.6,0.7,1c0.1,0.2,0,0.4,0,0.6
			c-0.2,0-0.5,0-0.6-0.1c-0.7-0.9-1.9-1.3-2.1-2.7c-0.1-0.3-0.5-0.6-0.8-0.9c-0.4-0.6-1-1.1-1.3-1.7c-0.5-1-1.3-1.6-2.2-2.1
			c-0.4-0.2-0.7-0.5-0.9-0.9c-0.9-1.1-1.7-2.3-2.6-3.4c-0.8-1-1.5-2-2.4-2.8c-0.8-0.7-1.9-1.3-3-1.7c-0.7-0.2-1.1-0.6-1.4-1.1
			c-0.6-1.2-1.3-2.4-2.5-3.2c-0.2-0.1,0-1,0.1-1.1c1.3-0.2,0.8-0.9,0.3-1.4c-0.4-0.4-0.9-0.7-1.3-1.1c-0.2-0.2-0.3-0.5-0.5-0.7
			c0.3,0,0.6-0.1,0.9-0.1c0.1,0,0.3,0.1,0.3,0.2c1,1.2,2.3,2.1,3.7,2.8c0.2,0.1,0.4,0.5,0.5,0.7c0.7,1.5,1.7,2.5,3.3,3.1
			c1,0.4,1.9,1.2,2.8,1.8c1.3,0.8,2.6,1.7,3.9,2.5c0.7,0.4,0.7,0.7,0,1.1c-1.3,0.8-1.5,1.6-0.7,2.9c0.3,0.5,0.5,1,0.6,1.6
			c0.2,0.9,1.3,2.1,2.1,2.4c0.7,0.2,1.4,0.3,1.9,0.7c0.7,0.5,1.1,0.8,2,0.4C316.4,175.9,317.1,176.5,317.7,176.9z"/>
		<path class="st4" d="M236.1,93.3c-0.1,0.3-0.3,0.6-0.2,0.9c0.1,0.5,1.7,1.2,2.2,1.2c0.2,0,0.5,0,0.7,0c-0.1,0.2-0.1,0.6-0.3,0.7
			c-0.8,0.7-1.7,1.3-2.6,1.9c-0.1,0.1-0.1,0.4,0,0.5c0.5,0.8-0.1,1.1-0.6,0.9c-1-0.3-2.4,0.2-2.7-1.5c0-0.2-0.4-0.3-0.6-0.5
			c-0.6-0.6-0.7-1.9-0.2-2.5c0.2-0.2,0.7-0.2,1.1-0.2c0.2,0,0.4,0.1,0.6,0.1c0.5,0.1,0.9,0.1,1.4,0.2c-0.2-0.4-0.4-0.8-0.6-1.2
			c-0.1-0.2-0.2-0.5-0.1-0.6c0.2-0.2,0.6-0.5,0.8-0.4c0.8,0.5,1.2-0.1,1.8-0.4c0.7-0.4,1.2-0.2,1.7,0.7c0.3,0.4,1.2,0.7,0.3,1.3
			c-0.7,0.5-1.7,0.2-2.1-0.6c-0.1-0.2-0.1-0.3-0.2-0.5C236.4,93.4,236.2,93.4,236.1,93.3z"/>
		<path class="st4" d="M191.9,93.7c0,0.5,0,0.9,0.1,1.5c0.3-0.3,0.4-0.5,0.6-0.6c0.5-0.5,0.9-0.2,1.1,0.3c0.1,0.4,0.2,0.9,0.1,1.3
			c-0.2,0.7-0.3,1.3,0.2,2.1c0.3,0.5-0.6,1.3-1.3,1.1c-0.9-0.3-1.9-0.6-2.6-1.1c-0.5-0.4-1.2-1.2-1.1-1.7c0.2-1,0.3-2.4,1.8-2.7
			C191.2,93.9,191.5,93.8,191.9,93.7z"/>
		<path class="st4" d="M196.6,98c0.4-0.3,0.8-0.8,1.1,0c0.1,0.2,0.2,0.4,0.3,0.4c0.8,0.2,1.2,0.8,1,1.5c-0.2,0.6-0.8,1.1-1.4,1.5
			c-0.9,0.5-1.9,0.8-3,1.3c0-0.1-0.1-0.3-0.1-0.5c0.2-1.4,0.5-2.8,0.7-4.3c0-0.1,0-0.2,0-0.3c0.2-0.3,0.5-0.7,0.7-1
			c0.1,0.3,0.3,0.7,0.4,1C196.5,97.7,196.6,97.8,196.6,98z"/>
		<path class="st4" d="M191.2,91c0,0.6,0.1,1.2,0.1,1.8c0,0.2-0.2,0.4-0.4,0.5c-0.3,0.2-0.7,0.4-1.1,0.5c-0.5,0-1,1.1-1.6,0.2
			c-0.4-0.6-1.1-1.3-0.3-2.1c0.1-0.1,0.1-0.2,0.1-0.2c-0.7-1.5,0.9-1.7,1.4-2.4c0.1-0.1,0.4-0.2,0.4-0.1c0.6,0.6,1.1,1.2,1.6,1.9
			C191.4,90.9,191.3,91,191.2,91z"/>
		<path class="st4" d="M275.8,65c-0.1,0.8-0.2,1.6-0.4,2.4c-0.1,0.2-0.4,0.5-0.6,0.6c-0.2,0.1-0.6-0.1-0.7-0.3
			c-0.4-0.9-1.2-1.8-0.6-2.8c0.3-0.6,0.9-1,1.4-1.5c0.1-0.1,0.7,0.3,0.8,0.6C275.9,64.2,275.8,64.6,275.8,65z"/>
		<path class="st4" d="M239.8,91.6c0.8-0.3,1.1-1.5,2.3-1.2c0.2,0.1,0.5-0.6,0.9-0.8c0.3-0.2,0.7-0.2,1.1-0.3c0,0.3,0.1,0.7,0.1,1
			c0,0.8-0.5,1.3-1.3,1.5c-0.6,0.2-1.2,0.5-1.8,0.6c-0.4,0-0.9-0.3-1.4-0.4C239.8,91.9,239.8,91.7,239.8,91.6z"/>
		<path class="st4" d="M240.7,102.1c-0.6-1.5-0.6-1.7,0.3-2.3c0.5-0.4,2.1-0.1,2.4,0.4c0.3,0.4,0.2,0.8-0.3,1
			C242.3,101.4,241.5,101.7,240.7,102.1z"/>
		<path class="st4" d="M131.9,123.8c-0.4,1-1.2,1-1.8,1c-0.5,0-1.2-0.3-1.2-1c0-0.6,1.2-1.5,1.6-1.3
			C131.2,122.8,131.5,123.4,131.9,123.8z"/>
		<path class="st4" d="M157.6,84c-0.4,0.1-0.9,0.2-1.2,0.4c-0.5,0.3-0.8,0.3-1.1-0.2c-0.1-0.2-0.2-0.4-0.3-0.6c0.2,0,0.4,0.1,0.6,0
			c0.7-0.4,1.9,0.5,2.3-0.8c0-0.1,0.4-0.2,0.6-0.3c0.1,0.3,0.3,0.7,0.4,1c0,0.2-0.1,0.5-0.3,0.5c-0.3,0.1-0.6,0.1-0.9,0.1
			C157.7,84.1,157.7,84.1,157.6,84z"/>
		<path class="st4" d="M145.3,128.9c-0.2-0.1-0.4-0.1-0.4-0.2c-0.3-0.6-0.6-1.3-0.8-1.9c0-0.2,0.3-0.5,0.6-0.7
			c0.1-0.1,0.5,0.2,0.6,0.3c0.2,0.6,0.4,1.3,0.5,1.9C145.8,128.5,145.5,128.8,145.3,128.9z"/>
		<path class="st4" d="M326.3,141.1c0.2,0.3,0.3,0.7,0.6,1c0.7,0.7,0,1.4,0,2.1c0,0-0.5,0-0.5,0c-0.1-1.1-0.2-2.1-0.4-3.2
			C326,141,326.1,141,326.3,141.1z"/>
		<path class="st4" d="M165.8,86.8c-0.2,0.7-0.5,1.4-1.3,1.1c-0.3-0.1-0.6-0.7-0.5-1C164.4,85.8,165.1,87.1,165.8,86.8z"/>
		<path class="st4" d="M309.4,110.9c-0.3-0.5-0.6-0.8-0.8-1.2c-0.1-0.3-0.3-0.6-0.3-0.8c0.1-0.4,0.3-1,0.4-1.1
			c0.7,0,0.6,0.6,0.6,1.1C309.4,109.5,309.4,110.1,309.4,110.9z"/>
		<path class="st4" d="M68.1,120.3c0.5,0.6,1,1,1.5,1.5c-0.1,0.1-0.2,0.2-0.2,0.4c-0.7-0.3-1.4-0.5-2.3-0.8
			C67.4,121.1,67.7,120.7,68.1,120.3z"/>
		<path class="st4" d="M210.1,115.2c0.4-0.7,0.9-1.1,1.7-0.7c0.1,0.1,0.1,0.6,0,0.8C211.3,116.1,210.8,115.8,210.1,115.2z"/>
		<path class="st4" d="M160.6,88c0.3-0.4,0.4-0.7,0.6-0.8c0.4-0.1,0.9-0.1,1.4-0.1c0.1,0,0.3,0.4,0.3,0.4c-0.3,0.3-0.5,0.6-0.8,0.7
			C161.7,88.2,161.3,88.1,160.6,88z"/>
		<path class="st4" d="M285.4,161.4c-0.5,0.2-0.7,0.5-1,0.5c-0.3,0-0.8,0-0.6-0.5c0.1-0.3,0.4-0.6,0.7-0.7
			C284.6,160.6,285,161,285.4,161.4z"/>
	</g>
</g>
<g>
	<line class="st5" x1="173.7" y1="17" x2="110.2" y2="142"/>
	<g>
		<line class="st5" x1="108.9" y1="165.4" x2="125.8" y2="213.9"/>
		<polygon points="107.1,167 105.3,162.8 107.2,163.5 107.2,159.9 108.7,162.3 109.3,161.1 111.3,165.7 		"/>
		<polygon points="112.1,143.1 109.7,147 109.2,145.1 106.3,147.2 107.3,144.6 106,144.7 108.5,140.4 		"/>
	</g>
	<g>
		<path class="st6" d="M246.8,169.4c-28.7-2.5-48.3-23.1-69.9-39.7c12.8-25.2,25.6-50.4,38.4-75.7c21.7,16.3,41.6,36.5,70.5,38.5
			C272.8,118.2,259.8,143.8,246.8,169.4z"/>
		<path d="M245.2,76.9c-10.8,21.2-21.5,42.5-32.3,63.7c-11.5-2.4-22.5-6-33.7-9.1c-0.8-0.6-1.5-1.2-2.3-1.8
			c12.8-25.2,25.6-50.4,38.4-75.7C225.3,61.6,234.9,69.9,245.2,76.9z"/>
		<path class="st6" d="M210.4,135c-22.9-16.9-43.1-39.3-73.3-41.6c12.8-25.1,25.5-50.2,38.3-75.3c30.3,2.2,50.6,24.3,73.7,40.9
			C236.1,84.3,223.2,109.7,210.4,135z"/>
		<g>
			<g id="kKWr0m_1_">
				<path class="st7" d="M198.6,75.4c-4,0.2-7.6-0.7-11.1-2.6c-3.5-1.9-6.1-4.6-8-8c-0.2,0.2-0.4,0.4-0.5,0.6
					c-0.4,0.4-0.9,0.5-1.5,0.6c-1.8,0.3-3.4,1.2-4.5,2.5c-0.2,0.2-0.4,0.5-0.6,0.8c-1.4,2-3.3,3.2-5.7,3.5c-0.5,0.1-1.1-0.1-1.6-0.1
					c-0.1,0-0.3,0-0.4,0c-0.8,0-1.4-0.6-1.2-1.4c0-0.2,0.1-0.4,0.1-0.7c0-0.9,0.4-1.7,1-2.4c1.3-1.6,3-2.6,5.2-2.9
					c2.3-0.3,4.1-1.3,5.6-2.9c0.5-0.6,1.2-0.9,2-0.9c0.2,0,0.4,0,0.6-0.1c0.6-0.3,1.3-0.2,1.9,0.1c0.2,0.1,0.4,0.1,0.5,0
					c0.4-0.2,0.8-0.3,1.3-0.5c3.4,5.1,7.8,7.6,14.2,7.8c2-0.2,3.9-0.6,5.6-1.2c0.4-0.2,0.8-0.4,1.2-0.6c2.6-1.4,4.4-3.4,5.4-6
					c1.8-4.8,2-9.8-0.2-15.1c-1.3-3.3-3.4-6.3-6.3-9.1c-0.2-0.2-0.3-0.3-0.5-0.5c0,0,0,0,0.1-0.1c0.7,0.4,1.3,0.8,2,1.3
					c5.3,3.8,8.9,8.5,10.7,13.7c1.5,4.5,1.5,8.8,0.1,12.8c-1.4,4.1-4.1,7.3-8,9.5c-0.4,0.2-0.8,0.4-1.4,0.7
					C202.3,74.7,200.5,75.2,198.6,75.4z"/>
			</g>
			<path class="st7" d="M195.7,68.5c-2.8-6.1-6.1-12.1-9.9-18.1c-2.5,1-5,2.2-7.4,3.3c-1.7-2.3-3.4-4.6-5.3-6.8
				c0.1-0.1,0.2-0.1,0.3-0.2c5-2.6,10.3-4.9,15.8-7c0.3-0.1,0.5-0.1,0.8,0c3.4,1.4,6.7,2.9,10,4.5c0.4,0.2,0.7,0.4,1.2,0.6
				c-3.8,1.1-7.3,2.3-10.9,3.7c5.2,5.9,16.8,30.1,16.8,32.5c0.4,0.9,0.6,1.9,0.2,2.9c-0.1,0.2-0.3,0.5-0.4,0.7
				c-0.2,0.2-0.4,0.4-0.6,0.5c-1.8,1.3-4.3,0.5-5-1.7C200.9,80.9,195.9,68.5,195.7,68.5z"/>
		</g>
		<path d="M210.5,135.1c-11.4-1.4-22.3-3.7-33.6-5.4c2.6-5,5.1-10.1,7.7-15.1C193.3,121.3,201.7,128.6,210.5,135.1z"/>
	</g>
</g>
<g>
	<path class="st8" d="M101.1,147l-8.9-5.6c-0.5-0.3-0.7-1-0.3-1.5c0.3-0.5,1-0.7,1.5-0.3c0,0,0.1,0,0.1,0.1l8.4,6.3
		c0.3,0.2,0.3,0.6,0.1,0.9C101.7,147.1,101.4,147.1,101.1,147z"/>
</g>
<g>
	<path class="st8" d="M99,153.7l-12,0.5c-0.6,0-1.1-0.4-1.1-1.1c0-0.6,0.4-1.1,1.1-1.1c0,0,0.1,0,0.1,0l12,0.5
		c0.3,0,0.6,0.3,0.6,0.6C99.5,153.5,99.3,153.7,99,153.7z"/>
</g>
<g>
	<path class="st8" d="M102,160l-9.1,5.9c-0.5,0.3-1.2,0.2-1.5-0.3c-0.3-0.5-0.2-1.2,0.3-1.5c0,0,0.1,0,0.1-0.1l9.6-5
		c0.3-0.1,0.6,0,0.8,0.2C102.3,159.5,102.2,159.8,102,160z"/>
</g>
<g>
	<path class="st8" d="M116,150.4l5.1-3.8c0.3-0.2,0.7-0.2,0.9,0.1c0.2,0.3,0.2,0.7-0.1,0.9c0,0,0,0,0,0l-5.4,3.4
		c-0.2,0.1-0.4,0.1-0.5-0.1C115.8,150.7,115.8,150.5,116,150.4z"/>
</g>
<g>
	<path class="st8" d="M116.2,155.7l5.9,3c0.3,0.2,0.5,0.6,0.3,0.9s-0.6,0.5-0.9,0.3c0,0,0,0-0.1,0l-5.5-3.6
		c-0.2-0.1-0.2-0.3-0.1-0.5C115.9,155.7,116.1,155.6,116.2,155.7z"/>
</g>
<rect x="120.5" y="216" class="st9" width="14" height="7.1"/>
<ellipse cx="128.1" cy="216" rx="8.9" ry="2"/>
</svg>
