<!-- Generator: Adobe Illustrator 24.2.3, SVG Export Plug-In  -->
<svg version="1.1" xmlns="http://www.w3.org/2000/svg" xmlns:xlink="http://www.w3.org/1999/xlink" x="0px" y="0px" width="418.1px"
	 height="241.9px" viewBox="0 0 418.1 241.9" style="overflow:visible;enable-background:new 0 0 418.1 241.9;"
	 xml:space="preserve">
<style type="text/css">
	.st0{fill:#F5F4EF;}
	.st1{fill:#141F52;}
	.st2{fill:#2E45B8;}
	.st3{fill:#475ED1;}
	.st4{opacity:0.1;fill:#D6DBF5;}
	.st5{clip-path:url(#SVGID_7_);}
	.st6{clip-path:url(#SVGID_8_);fill:#666666;}
	.st7{clip-path:url(#SVGID_9_);fill:#666666;}
	.st8{clip-path:url(#SVGID_10_);fill:#666666;}
	.st9{clip-path:url(#SVGID_11_);fill:#666666;}
	.st10{clip-path:url(#SVGID_12_);fill:#666666;}
	.st11{fill:#0D0D0D;}
	.st12{fill:#E2365B;}
	.st13{fill:#C91D42;}
	.st14{clip-path:url(#SVGID_14_);}
	.st15{clip-path:url(#SVGID_16_);fill:#666666;}
	.st16{clip-path:url(#SVGID_18_);fill:#666666;}
	.st17{clip-path:url(#SVGID_20_);fill:#666666;}
	.st18{clip-path:url(#SVGID_22_);fill:#666666;}
	.st19{clip-path:url(#SVGID_24_);fill:#666666;}
</style>
<defs>
</defs>
<g>
	<g>
		<g>
			<path class="st0" d="M54.8,98.7c7.7-11.5,27.4-12.1,39.5-9.6c3.2-18.5,28.7-26.8,30.6-3.2c6.4-3.2,14.7-3.8,17.2,3.8
				c8.3-2.6,15.8,2.9,22.2,8.6C127.7,98.4,54.8,98.7,54.8,98.7z"/>
		</g>
		<g>
			<path class="st0" d="M211.4,36.3c7.3-7.6,21-6.1,30.6-6.5l0,0c2.7-7.6,8.4-14.9,16.4-16.8c6.1-1.5,15.7-1.1,17.2,6.5
				c0,0-0.6-19.5,19-19.5c19.6,0,15.4,21.4,15.4,21.4c9.6-7.3,20.6-8,27.9,2.7c1.9,2.7,0.8,3.8,3.8,4.6c1.5,0.8,5.7-0.4,8,0
				c5,0.8,14.5,7.6,14.5,7.6H211.4z"/>
		</g>
		<g>
			<path class="st0" d="M202.9,51c-12.3-8.9-21.1-16.2-36.9-11.8c-2-18.2-20.2-17.7-32.5-6.4c6.4-27.1-31.5-41.4-50.8-26.6
				C59.1,23.9,74,43,85.7,45.6c-5.9,0-10.7,2.8-10.6,5.4C119.4,51,202.9,51,202.9,51z"/>
		</g>
		<path class="st0" d="M337.8,93c-1.4-3.4-4.7-5.8-8.5-5.8c-1.3,0-2.6,0.3-3.8,0.8c0.7-1.7,1.1-3.6,1.1-5.5
			c0-7.7-6.2-13.9-13.9-13.9c-1.5,0-2.9,0.2-4.3,0.7c-4.1-5.7-10.8-9.4-18.4-9.4c-12.5,0-22.7,10.1-22.7,22.7c0,0.2,0,0.3,0,0.5
			c0,0,0,0,0,0c-5.2,0-9.4,4.2-9.4,9.4c0,0.2,0,0.4,0,0.6H337.8z"/>
	</g>
	<g>
		<path class="st1" d="M371.5,125.1c0,0-186.2-37.8-332.1,15.8c-24.5,10.5-40.8,25.8-39.3,38.4c1.5,12.6,21.4,39.7,106.2,54.1
			c79.6,13.6,168.9,9.6,196.3-3.2c26.5-12.4,34.2-23.5,41-33.6s15.7-19.3,35.4-22.4c19.7-3.2,38.4-12.6,39.1-24.2
			C418.7,138.4,388.6,128,371.5,125.1z"/>
		<rect x="0" y="171.8" class="st1" width="4" height="5.6"/>
		<rect x="414.1" y="144.3" class="st1" width="4" height="5.6"/>
		<path class="st2" d="M371.5,119.9c0,0-186.2-37.8-332.1,15.8C14.9,146.1-1.4,161.4,0.1,174c1.5,12.6,21.4,39.7,106.2,54.1
			c79.6,13.6,168.9,9.6,196.3-3.2c26.5-12.4,34.2-23.5,41-33.6s15.7-19.3,35.4-22.4c19.7-3.2,38.4-12.6,39.1-24.2
			C418.7,133.2,388.6,122.7,371.5,119.9z"/>
		<path class="st3" d="M317.5,128c0,0-152.1-28.1-265.5,11.7c-19,7.8-31.7,19.1-30.5,28.5c1.2,9.4,16.6,29.5,82.5,40.2
			c61.8,10.1,131.1,7.2,152.5-2.3c20.6-9.2,26.5-17.4,31.8-25c5.3-7.5,12.2-14.3,27.5-16.7c15.3-2.3,74.2-9.4,74.7-18
			C391.1,137.9,330.8,130.1,317.5,128z"/>
		<path class="st4" d="M303.9,133.4c0,0-94.9-18-165.6,7.5c-11.9,5-94.1,4.4-93.4,10.4c0.7,6,22.3-5.1,89.2,23.6
			c48,20.6,118.4,14.5,131.7,8.5c12.9-5.9,16.6-11.2,19.9-16c3.3-4.8,7.6-9.2,17.1-10.7c9.5-1.5,70.9-3.8,72.6-11.5
			C376.6,139.8,312.2,134.7,303.9,133.4z"/>
	</g>
	<g>
		<defs>
			<path id="SVGID_1_" d="M370.4,144.8c0-7.5-82.1-95.2-183.5-95.2S3.5,137.3,3.5,144.8c0,7.5,82.1,6.4,183.5,6.4
				S370.4,152.4,370.4,144.8z"/>
		</defs>
		<clipPath id="SVGID_7_">
			<use xlink:href="#SVGID_1_"  style="overflow:visible;"/>
		</clipPath>
		<g class="st5">
			<g>
				<defs>
					<path id="SVGID_6_" d="M138.5,100.3c0,0,22.8-12,31.5-20.1c8.7-8.1,12.9-21.8,19.5-18.4c4.2,2.1,14.8,8.9,24.5,15.4
						c8.3,5.5,11.9,14.6,39.7,28.5c8.4,4.2,16.4,10.9,20.7,17.9l0.9,1.6c3.9,13.6-76.1,0.1-125.8-1.1L138.5,100.3z"/>
				</defs>
				<use xlink:href="#SVGID_6_"  style="overflow:visible;fill:#999999;"/>
				<clipPath id="SVGID_8_">
					<use xlink:href="#SVGID_6_"  style="overflow:visible;"/>
				</clipPath>
				<path class="st6" d="M191.1,62.6c0,0-1.6,2.1-0.3,5.1s4.1,5.3,6,6.2c2,1,5.2,3.2,6.3,5.3c1.2,2.1,3.3,6.7,7.5,9
					c4.2,2.4,7.5,5,9.2,7.5c1.6,2.5,4,5.3,8.1,7.4s17.8,16.3,30.8,29c14.3,0,38,0,38,0l-32.4-69.5H191.1z"/>
				<polygon class="st6" points="265.9,131.2 205.7,131.2 199.6,118.1 259.8,118.1 				"/>
			</g>
			<g>
				<defs>
					<path id="SVGID_5_" d="M48.9,144.9c8.4-9.2,23.7-23,24-23.3c6.6-5.5,11-9.2,16-13.1c10.5-8,14.9-11,23.9-16.4
						c13.5-8,29.5-19.3,34.5-17.2c3.8,1.6,12.5,6.7,20.3,11.5c7.8,4.8,40.4,21.7,76.3,24l0,10.9c-74.8,2.9-159.3,21.7-168.5,12.6
						L48.9,144.9z"/>
				</defs>
				<use xlink:href="#SVGID_5_"  style="overflow:visible;fill:#999999;"/>
				<clipPath id="SVGID_9_">
					<use xlink:href="#SVGID_5_"  style="overflow:visible;"/>
				</clipPath>
				<path class="st7" d="M148.6,75.5c0,0-3,1.5-3.2,3.8s1.9,3.9,3.7,4.7s4.3,2.4,4.5,3.9s0.2,5,3.8,6.7c3.6,1.8,6.1,3.7,6.7,5.6
					c0.6,1.9,1.8,3.9,5.5,5.5c3.7,1.6,11.9,9.8,20.2,19.2c16.7,0,54,0,54,0V75.5H148.6z"/>
			</g>
			<g>
				<defs>
					<path id="SVGID_4_" d="M194,157c0-7.4,7.1-12.3,13.1-16.6c11.3-8.3,23.8-16.3,34.2-21.5c15.7-7.8,32.8-16.9,38.3-14.4
						c4.1,1.9,13.8,7.9,22.4,13.5c8.6,5.7,51.4,28.9,91.5,28.4l0,16l-199.1-2.7L194,157z"/>
				</defs>
				<use xlink:href="#SVGID_4_"  style="overflow:visible;fill:#999999;"/>
				<clipPath id="SVGID_10_">
					<use xlink:href="#SVGID_4_"  style="overflow:visible;"/>
				</clipPath>
				<path class="st8" d="M279.7,103.7c0,0-4.1,1.5-5.3,3.6c-1.3,2.2,0.2,3.9,1.8,4.6c1.7,0.7,12.5,3.7,12.1,5.3
					c-0.4,1.6-2,5.3,1.5,7.3c3.5,2,5.7,4.2,5.6,6.4c-0.1,2.2,0.5,4.7,4.4,6.6c4,1.9,11.3,12.6,18.8,26c23.2,0,74.9,0,74.9,0v-58.6
					L279.7,103.7z"/>
			</g>
			<g>
				<defs>
					<path id="SVGID_3_" d="M126.6,139.8c0,0,28.4-9.2,40.9-15.4c12.5-6.2,23.1-16.7,28.1-14.1c3.2,1.6,10.7,6.8,17.3,11.8
						c5.7,4.2,18,17.5,40.6,22.8c7.4,1.7,13.8,6.3,14.6,12.7l0.1,2.8c0,0-92.5-1.5-141.6-2.4L126.6,139.8z"/>
				</defs>
				<use xlink:href="#SVGID_3_"  style="overflow:visible;fill:#999999;"/>
				<clipPath id="SVGID_11_">
					<use xlink:href="#SVGID_3_"  style="overflow:visible;"/>
				</clipPath>
				<path class="st9" d="M196.8,110.9c0,0-2.6,1.6-2.7,3.9s1.6,4,3.1,4.8s3.7,2.4,3.9,4c0.2,1.6,0.2,5.1,3.3,6.9
					c3.1,1.8,5.2,3.8,5.7,5.7s1.5,4,4.7,5.6c3.2,1.6,10.2,9.6,17.3,19.3c14.3,0,38,0,38,0v-50.3H196.8z"/>
				<rect x="179.4" y="153.4" class="st9" width="60.2" height="10.1"/>
			</g>
			<g>
				<defs>
					<path id="SVGID_2_" d="M44.5,154.4c0-7.4,7.1-12.3,13.1-16.6c11.3-8.3,23.8-16.3,34.2-21.5c15.7-7.8,32.8-16.9,38.3-14.4
						c4.1,1.9,13.8,7.9,22.4,13.5c8.6,5.7,52,25.6,91.5,28.4l0,16L44.9,157L44.5,154.4z"/>
				</defs>
				<use xlink:href="#SVGID_2_"  style="overflow:visible;fill:#999999;"/>
				<clipPath id="SVGID_12_">
					<use xlink:href="#SVGID_2_"  style="overflow:visible;"/>
				</clipPath>
				<path class="st10" d="M130.1,101.1c0,0-4.1,1.5-5.3,3.6c-1.3,2.2,0.2,3.9,1.8,4.6c1.7,0.7,12.5,3.7,12.1,5.3
					c-0.4,1.6-2,5.3,1.5,7.3c3.5,2,5.7,4.2,5.6,6.4c-0.1,2.2,0.5,4.7,4.4,6.6c4,1.9,11.3,12.6,18.8,26c23.2,0,74.9,0,74.9,0v-58.6
					L130.1,101.1z"/>
			</g>
		</g>
	</g>
	<g>
		<path class="st2" d="M40.2,175.9c1.7,0.6,3.4,1,5.2,1.3c1.8,0.3,3.5,0.4,5.3,0.4c1.8,0,3.5,0,5.3-0.2c1.8-0.2,3.5-0.5,5.3-0.9
			c-1.6,0.9-3.4,1.4-5.1,1.7c-1.8,0.3-3.6,0.5-5.4,0.4c-1.8,0-3.6-0.2-5.4-0.7C43.4,177.5,41.7,176.9,40.2,175.9z"/>
		<path class="st2" d="M60.8,175.9c1.7,0.6,3.4,1,5.2,1.3c1.8,0.3,3.5,0.4,5.3,0.4c1.8,0,3.5,0,5.3-0.2c1.8-0.2,3.5-0.5,5.3-0.9
			c-1.6,0.9-3.4,1.4-5.1,1.7c-1.8,0.3-3.6,0.5-5.4,0.4c-1.8,0-3.6-0.2-5.4-0.7C64.1,177.5,62.3,176.9,60.8,175.9z"/>
		<path class="st2" d="M102.1,175.9c1.7,0.6,3.4,1,5.2,1.3c1.8,0.3,3.5,0.4,5.3,0.4c1.8,0,3.5,0,5.3-0.2c1.8-0.2,3.5-0.5,5.3-0.9
			c-1.6,0.9-3.4,1.4-5.1,1.7c-1.8,0.3-3.6,0.5-5.4,0.4c-1.8,0-3.6-0.2-5.4-0.7C105.3,177.5,103.6,176.9,102.1,175.9z"/>
		<path class="st2" d="M122.7,175.9c1.7,0.6,3.4,1,5.2,1.3c1.8,0.3,3.5,0.4,5.3,0.4c1.8,0,3.5,0,5.3-0.2c1.8-0.2,3.5-0.5,5.3-0.9
			c-1.6,0.9-3.4,1.4-5.1,1.7c-1.8,0.3-3.6,0.5-5.4,0.4c-1.8,0-3.6-0.2-5.4-0.7C126,177.5,124.2,176.9,122.7,175.9z"/>
		<path class="st2" d="M143.3,175.9c1.7,0.6,3.4,1,5.2,1.3c1.8,0.3,3.5,0.4,5.3,0.4c1.8,0,3.5,0,5.3-0.2c1.8-0.2,3.5-0.5,5.3-0.9
			c-1.6,0.9-3.4,1.4-5.1,1.7c-1.8,0.3-3.6,0.5-5.4,0.4c-1.8,0-3.6-0.2-5.4-0.7C146.6,177.5,144.8,176.9,143.3,175.9z"/>
		<path class="st2" d="M164,175.9c1.7,0.6,3.4,1,5.2,1.3c1.8,0.3,3.5,0.4,5.3,0.4c1.8,0,3.5,0,5.3-0.2c1.8-0.2,3.5-0.5,5.3-0.9
			c-1.6,0.9-3.4,1.4-5.1,1.7c-1.8,0.3-3.6,0.5-5.4,0.4c-1.8,0-3.6-0.2-5.4-0.7C167.2,177.5,165.5,176.9,164,175.9z"/>
		<path class="st2" d="M184.6,175.9c1.7,0.6,3.4,1,5.2,1.3c1.8,0.3,3.5,0.4,5.3,0.4c1.8,0,3.5,0,5.3-0.2c1.8-0.2,3.5-0.5,5.3-0.9
			c-1.6,0.9-3.4,1.4-5.1,1.7c-1.8,0.3-3.6,0.5-5.4,0.4c-1.8,0-3.6-0.2-5.4-0.7C187.8,177.5,186.1,176.9,184.6,175.9z"/>
		<path class="st2" d="M205.2,175.9c1.7,0.6,3.4,1,5.2,1.3c1.8,0.3,3.5,0.4,5.3,0.4c1.8,0,3.5,0,5.3-0.2c1.8-0.2,3.5-0.5,5.3-0.9
			c-1.6,0.9-3.4,1.4-5.1,1.7c-1.8,0.3-3.6,0.5-5.4,0.4c-1.8,0-3.6-0.2-5.4-0.7C208.5,177.5,206.7,176.9,205.2,175.9z"/>
		<path class="st2" d="M225.8,175.9c1.7,0.6,3.4,1,5.2,1.3c1.8,0.3,3.5,0.4,5.3,0.4c1.8,0,3.5,0,5.3-0.2c1.8-0.2,3.5-0.5,5.3-0.9
			c-1.6,0.9-3.4,1.4-5.1,1.7c-1.8,0.3-3.6,0.5-5.4,0.4c-1.8,0-3.6-0.2-5.4-0.7C229.1,177.5,227.4,176.9,225.8,175.9z"/>
		<path class="st2" d="M246.5,175.9c1.7,0.6,3.4,1,5.2,1.3c1.8,0.3,3.5,0.4,5.3,0.4c1.8,0,3.5,0,5.3-0.2c1.8-0.2,3.5-0.5,5.3-0.9
			c-1.6,0.9-3.4,1.4-5.1,1.7c-1.8,0.3-3.6,0.5-5.4,0.4c-1.8,0-3.6-0.2-5.4-0.7C249.7,177.5,248,176.9,246.5,175.9z"/>
		<path class="st2" d="M267.1,175.9c1.7,0.6,3.4,1,5.2,1.3c1.8,0.3,3.5,0.4,5.3,0.4c1.8,0,3.5,0,5.3-0.2c1.8-0.2,3.5-0.5,5.3-0.9
			c-1.6,0.9-3.4,1.4-5.1,1.7c-1.8,0.3-3.6,0.5-5.4,0.4c-1.8,0-3.6-0.2-5.4-0.7C270.4,177.5,268.6,176.9,267.1,175.9z"/>
	</g>
	<g>
		<path class="st2" d="M73.5,165.8c1.7,0.6,3.4,1,5.2,1.3c1.8,0.3,3.5,0.4,5.3,0.4c1.8,0,3.5,0,5.3-0.2c1.8-0.2,3.5-0.5,5.3-0.9
			c-1.6,0.9-3.4,1.4-5.1,1.7c-1.8,0.3-3.6,0.5-5.4,0.4c-1.8,0-3.6-0.2-5.4-0.7C76.8,167.4,75,166.8,73.5,165.8z"/>
		<path class="st2" d="M94.2,165.8c1.7,0.6,3.4,1,5.2,1.3c1.8,0.3,3.5,0.4,5.3,0.4c1.8,0,3.5,0,5.3-0.2c1.8-0.2,3.5-0.5,5.3-0.9
			c-1.6,0.9-3.4,1.4-5.1,1.7c-1.8,0.3-3.6,0.5-5.4,0.4c-1.8,0-3.6-0.2-5.4-0.7C97.4,167.4,95.7,166.8,94.2,165.8z"/>
		<path class="st2" d="M135.4,165.8c1.7,0.6,3.4,1,5.2,1.3c1.8,0.3,3.5,0.4,5.3,0.4c1.8,0,3.5,0,5.3-0.2c1.8-0.2,3.5-0.5,5.3-0.9
			c-1.6,0.9-3.4,1.4-5.1,1.7c-1.8,0.3-3.6,0.5-5.4,0.4c-1.8,0-3.6-0.2-5.4-0.7C138.7,167.4,136.9,166.8,135.4,165.8z"/>
		<path class="st2" d="M156.1,165.8c1.7,0.6,3.4,1,5.2,1.3c1.8,0.3,3.5,0.4,5.3,0.4c1.8,0,3.5,0,5.3-0.2c1.8-0.2,3.5-0.5,5.3-0.9
			c-1.6,0.9-3.4,1.4-5.1,1.7c-1.8,0.3-3.6,0.5-5.4,0.4c-1.8,0-3.6-0.2-5.4-0.7C159.3,167.4,157.6,166.8,156.1,165.8z"/>
		<path class="st2" d="M176.7,165.8c1.7,0.6,3.4,1,5.2,1.3c1.8,0.3,3.5,0.4,5.3,0.4c1.8,0,3.5,0,5.3-0.2c1.8-0.2,3.5-0.5,5.3-0.9
			c-1.6,0.9-3.4,1.4-5.1,1.7c-1.8,0.3-3.6,0.5-5.4,0.4c-1.8,0-3.6-0.2-5.4-0.7C180,167.4,178.2,166.8,176.7,165.8z"/>
		<path class="st2" d="M197.3,165.8c1.7,0.6,3.4,1,5.2,1.3c1.8,0.3,3.5,0.4,5.3,0.4c1.8,0,3.5,0,5.3-0.2c1.8-0.2,3.5-0.5,5.3-0.9
			c-1.6,0.9-3.4,1.4-5.1,1.7c-1.8,0.3-3.6,0.5-5.4,0.4c-1.8,0-3.6-0.2-5.4-0.7C200.6,167.4,198.8,166.8,197.3,165.8z"/>
		<path class="st2" d="M218,165.8c1.7,0.6,3.4,1,5.2,1.3c1.8,0.3,3.5,0.4,5.3,0.4c1.8,0,3.5,0,5.3-0.2c1.8-0.2,3.5-0.5,5.3-0.9
			c-1.6,0.9-3.4,1.4-5.1,1.7c-1.8,0.3-3.6,0.5-5.4,0.4c-1.8,0-3.6-0.2-5.4-0.7C221.2,167.4,219.5,166.8,218,165.8z"/>
		<path class="st2" d="M238.6,165.8c1.7,0.6,3.4,1,5.2,1.3c1.8,0.3,3.5,0.4,5.3,0.4c1.8,0,3.5,0,5.3-0.2c1.8-0.2,3.5-0.5,5.3-0.9
			c-1.6,0.9-3.4,1.4-5.1,1.7c-1.8,0.3-3.6,0.5-5.4,0.4c-1.8,0-3.6-0.2-5.4-0.7C241.9,167.4,240.1,166.8,238.6,165.8z"/>
		<path class="st2" d="M259.2,165.8c1.7,0.6,3.4,1,5.2,1.3c1.8,0.3,3.5,0.4,5.3,0.4c1.8,0,3.5,0,5.3-0.2c1.8-0.2,3.5-0.5,5.3-0.9
			c-1.6,0.9-3.4,1.4-5.1,1.7c-1.8,0.3-3.6,0.5-5.4,0.4c-1.8,0-3.6-0.2-5.4-0.7C262.5,167.4,260.7,166.8,259.2,165.8z"/>
		<path class="st2" d="M279.9,165.8c1.7,0.6,3.4,1,5.2,1.3c1.8,0.3,3.5,0.4,5.3,0.4c1.8,0,3.5,0,5.3-0.2c1.8-0.2,3.5-0.5,5.3-0.9
			c-1.6,0.9-3.4,1.4-5.1,1.7c-1.8,0.3-3.6,0.5-5.4,0.4c-1.8,0-3.6-0.2-5.4-0.7C283.1,167.4,281.4,166.8,279.9,165.8z"/>
		<path class="st2" d="M341.7,165.8c1.7,0.6,3.4,1,5.2,1.3c1.8,0.3,3.5,0.4,5.3,0.4c1.8,0,3.5,0,5.3-0.2c1.8-0.2,3.5-0.5,5.3-0.9
			c-1.6,0.9-3.4,1.4-5.1,1.7c-1.8,0.3-3.6,0.5-5.4,0.4c-1.8,0-3.6-0.2-5.4-0.7C345,167.4,343.3,166.8,341.7,165.8z"/>
	</g>
	<g>
		<path class="st2" d="M70.4,185.9c1.7,0.6,3.4,1,5.2,1.3c1.8,0.3,3.5,0.4,5.3,0.4c1.8,0,3.5,0,5.3-0.2c1.8-0.2,3.5-0.5,5.3-0.9
			c-1.6,0.9-3.4,1.4-5.1,1.7c-1.8,0.3-3.6,0.5-5.4,0.4c-1.8,0-3.6-0.2-5.4-0.7C73.6,187.6,71.9,186.9,70.4,185.9z"/>
		<path class="st2" d="M97,185.9c1.7,0.6,3.4,1,5.2,1.3c1.8,0.3,3.5,0.4,5.3,0.4c1.8,0,3.5,0,5.3-0.2c1.8-0.2,3.5-0.5,5.3-0.9
			c-1.6,0.9-3.4,1.4-5.1,1.7c-1.8,0.3-3.6,0.5-5.4,0.4c-1.8,0-3.6-0.2-5.4-0.7C100.2,187.6,98.5,186.9,97,185.9z"/>
		<path class="st2" d="M117.6,185.9c1.7,0.6,3.4,1,5.2,1.3c1.8,0.3,3.5,0.4,5.3,0.4c1.8,0,3.5,0,5.3-0.2c1.8-0.2,3.5-0.5,5.3-0.9
			c-1.6,0.9-3.4,1.4-5.1,1.7c-1.8,0.3-3.6,0.5-5.4,0.4c-1.8,0-3.6-0.2-5.4-0.7C120.9,187.6,119.1,186.9,117.6,185.9z"/>
		<path class="st2" d="M138.2,185.9c1.7,0.6,3.4,1,5.2,1.3c1.8,0.3,3.5,0.4,5.3,0.4c1.8,0,3.5,0,5.3-0.2c1.8-0.2,3.5-0.5,5.3-0.9
			c-1.6,0.9-3.4,1.4-5.1,1.7c-1.8,0.3-3.6,0.5-5.4,0.4c-1.8,0-3.6-0.2-5.4-0.7C141.5,187.6,139.8,186.9,138.2,185.9z"/>
		<path class="st2" d="M158.9,185.9c1.7,0.6,3.4,1,5.2,1.3c1.8,0.3,3.5,0.4,5.3,0.4c1.8,0,3.5,0,5.3-0.2c1.8-0.2,3.5-0.5,5.3-0.9
			c-1.6,0.9-3.4,1.4-5.1,1.7c-1.8,0.3-3.6,0.5-5.4,0.4c-1.8,0-3.6-0.2-5.4-0.7C162.1,187.6,160.4,186.9,158.9,185.9z"/>
		<path class="st2" d="M179.5,185.9c1.7,0.6,3.4,1,5.2,1.3c1.8,0.3,3.5,0.4,5.3,0.4c1.8,0,3.5,0,5.3-0.2c1.8-0.2,3.5-0.5,5.3-0.9
			c-1.6,0.9-3.4,1.4-5.1,1.7c-1.8,0.3-3.6,0.5-5.4,0.4c-1.8,0-3.6-0.2-5.4-0.7C182.8,187.6,181,186.9,179.5,185.9z"/>
		<path class="st2" d="M200.1,185.9c1.7,0.6,3.4,1,5.2,1.3c1.8,0.3,3.5,0.4,5.3,0.4c1.8,0,3.5,0,5.3-0.2c1.8-0.2,3.5-0.5,5.3-0.9
			c-1.6,0.9-3.4,1.4-5.1,1.7c-1.8,0.3-3.6,0.5-5.4,0.4c-1.8,0-3.6-0.2-5.4-0.7C203.4,187.6,201.7,186.9,200.1,185.9z"/>
		<path class="st2" d="M220.8,185.9c1.7,0.6,3.4,1,5.2,1.3c1.8,0.3,3.5,0.4,5.3,0.4c1.8,0,3.5,0,5.3-0.2c1.8-0.2,3.5-0.5,5.3-0.9
			c-1.6,0.9-3.4,1.4-5.1,1.7c-1.8,0.3-3.6,0.5-5.4,0.4c-1.8,0-3.6-0.2-5.4-0.7C224,187.6,222.3,186.9,220.8,185.9z"/>
		<path class="st2" d="M241.4,185.9c1.7,0.6,3.4,1,5.2,1.3c1.8,0.3,3.5,0.4,5.3,0.4c1.8,0,3.5,0,5.3-0.2c1.8-0.2,3.5-0.5,5.3-0.9
			c-1.6,0.9-3.4,1.4-5.1,1.7c-1.8,0.3-3.6,0.5-5.4,0.4c-1.8,0-3.6-0.2-5.4-0.7C244.7,187.6,242.9,186.9,241.4,185.9z"/>
		<path class="st2" d="M262,185.9c1.7,0.6,3.4,1,5.2,1.3c1.8,0.3,3.5,0.4,5.3,0.4c1.8,0,3.5,0,5.3-0.2c1.8-0.2,3.5-0.5,5.3-0.9
			c-1.6,0.9-3.4,1.4-5.1,1.7c-1.8,0.3-3.6,0.5-5.4,0.4c-1.8,0-3.6-0.2-5.4-0.7C265.3,187.6,263.6,186.9,262,185.9z"/>
		<path class="st2" d="M303.3,185.9c1.7,0.6,3.4,1,5.2,1.3c1.8,0.3,3.5,0.4,5.3,0.4c1.8,0,3.5,0,5.3-0.2c1.8-0.2,3.5-0.5,5.3-0.9
			c-1.6,0.9-3.4,1.4-5.1,1.7c-1.8,0.3-3.6,0.5-5.4,0.4c-1.8,0-3.6-0.2-5.4-0.7C306.6,187.6,304.8,186.9,303.3,185.9z"/>
	</g>
	<g>
		<path class="st2" d="M102.1,196c1.7,0.6,3.4,1,5.2,1.3c1.8,0.3,3.5,0.4,5.3,0.4c1.8,0,3.5,0,5.3-0.2c1.8-0.2,3.5-0.5,5.3-0.9
			c-1.6,0.9-3.4,1.4-5.1,1.7c-1.8,0.3-3.6,0.5-5.4,0.4c-1.8,0-3.6-0.2-5.4-0.7C105.3,197.6,103.6,197,102.1,196z"/>
		<path class="st2" d="M122.7,196c1.7,0.6,3.4,1,5.2,1.3c1.8,0.3,3.5,0.4,5.3,0.4c1.8,0,3.5,0,5.3-0.2c1.8-0.2,3.5-0.5,5.3-0.9
			c-1.6,0.9-3.4,1.4-5.1,1.7c-1.8,0.3-3.6,0.5-5.4,0.4c-1.8,0-3.6-0.2-5.4-0.7C126,197.6,124.2,197,122.7,196z"/>
		<path class="st2" d="M143.3,196c1.7,0.6,3.4,1,5.2,1.3c1.8,0.3,3.5,0.4,5.3,0.4c1.8,0,3.5,0,5.3-0.2c1.8-0.2,3.5-0.5,5.3-0.9
			c-1.6,0.9-3.4,1.4-5.1,1.7c-1.8,0.3-3.6,0.5-5.4,0.4c-1.8,0-3.6-0.2-5.4-0.7C146.6,197.6,144.8,197,143.3,196z"/>
		<path class="st2" d="M164,196c1.7,0.6,3.4,1,5.2,1.3c1.8,0.3,3.5,0.4,5.3,0.4c1.8,0,3.5,0,5.3-0.2c1.8-0.2,3.5-0.5,5.3-0.9
			c-1.6,0.9-3.4,1.4-5.1,1.7c-1.8,0.3-3.6,0.5-5.4,0.4c-1.8,0-3.6-0.2-5.4-0.7C167.2,197.6,165.5,197,164,196z"/>
		<path class="st2" d="M184.6,196c1.7,0.6,3.4,1,5.2,1.3c1.8,0.3,3.5,0.4,5.3,0.4c1.8,0,3.5,0,5.3-0.2c1.8-0.2,3.5-0.5,5.3-0.9
			c-1.6,0.9-3.4,1.4-5.1,1.7c-1.8,0.3-3.6,0.5-5.4,0.4c-1.8,0-3.6-0.2-5.4-0.7C187.8,197.6,186.1,197,184.6,196z"/>
		<path class="st2" d="M205.2,196c1.7,0.6,3.4,1,5.2,1.3c1.8,0.3,3.5,0.4,5.3,0.4c1.8,0,3.5,0,5.3-0.2c1.8-0.2,3.5-0.5,5.3-0.9
			c-1.6,0.9-3.4,1.4-5.1,1.7c-1.8,0.3-3.6,0.5-5.4,0.4c-1.8,0-3.6-0.2-5.4-0.7C208.5,197.6,206.7,197,205.2,196z"/>
		<path class="st2" d="M225.8,196c1.7,0.6,3.4,1,5.2,1.3c1.8,0.3,3.5,0.4,5.3,0.4c1.8,0,3.5,0,5.3-0.2c1.8-0.2,3.5-0.5,5.3-0.9
			c-1.6,0.9-3.4,1.4-5.1,1.7c-1.8,0.3-3.6,0.5-5.4,0.4c-1.8,0-3.6-0.2-5.4-0.7C229.1,197.6,227.4,197,225.8,196z"/>
		<path class="st2" d="M246.5,196c1.7,0.6,3.4,1,5.2,1.3c1.8,0.3,3.5,0.4,5.3,0.4c1.8,0,3.5,0,5.3-0.2c1.8-0.2,3.5-0.5,5.3-0.9
			c-1.6,0.9-3.4,1.4-5.1,1.7c-1.8,0.3-3.6,0.5-5.4,0.4c-1.8,0-3.6-0.2-5.4-0.7C249.7,197.6,248,197,246.5,196z"/>
		<path class="st2" d="M287.7,196c1.7,0.6,3.4,1,5.2,1.3c1.8,0.3,3.5,0.4,5.3,0.4c1.8,0,3.5,0,5.3-0.2c1.8-0.2,3.5-0.5,5.3-0.9
			c-1.6,0.9-3.4,1.4-5.1,1.7c-1.8,0.3-3.6,0.5-5.4,0.4c-1.8,0-3.6-0.2-5.4-0.7C291,197.6,289.3,197,287.7,196z"/>
	</g>
	<g>
		<path class="st2" d="M138.2,206.1c1.7,0.6,3.4,1,5.2,1.3c1.8,0.3,3.5,0.4,5.3,0.4c1.8,0,3.5,0,5.3-0.2c1.8-0.2,3.5-0.5,5.3-0.9
			c-1.6,0.9-3.4,1.4-5.1,1.7c-1.8,0.3-3.6,0.5-5.4,0.4c-1.8,0-3.6-0.2-5.4-0.7C141.5,207.7,139.8,207.1,138.2,206.1z"/>
		<path class="st2" d="M158.9,206.1c1.7,0.6,3.4,1,5.2,1.3c1.8,0.3,3.5,0.4,5.3,0.4c1.8,0,3.5,0,5.3-0.2c1.8-0.2,3.5-0.5,5.3-0.9
			c-1.6,0.9-3.4,1.4-5.1,1.7c-1.8,0.3-3.6,0.5-5.4,0.4c-1.8,0-3.6-0.2-5.4-0.7C162.1,207.7,160.4,207.1,158.9,206.1z"/>
		<path class="st2" d="M179.5,206.1c1.7,0.6,3.4,1,5.2,1.3c1.8,0.3,3.5,0.4,5.3,0.4c1.8,0,3.5,0,5.3-0.2c1.8-0.2,3.5-0.5,5.3-0.9
			c-1.6,0.9-3.4,1.4-5.1,1.7c-1.8,0.3-3.6,0.5-5.4,0.4c-1.8,0-3.6-0.2-5.4-0.7C182.8,207.7,181,207.1,179.5,206.1z"/>
		<path class="st2" d="M200.1,206.1c1.7,0.6,3.4,1,5.2,1.3c1.8,0.3,3.5,0.4,5.3,0.4c1.8,0,3.5,0,5.3-0.2c1.8-0.2,3.5-0.5,5.3-0.9
			c-1.6,0.9-3.4,1.4-5.1,1.7c-1.8,0.3-3.6,0.5-5.4,0.4c-1.8,0-3.6-0.2-5.4-0.7C203.4,207.7,201.7,207.1,200.1,206.1z"/>
	</g>
	<path class="st3" d="M37.2,167.2c0,0,9.5,8.7,2.4,21c13.2,0,16.4,0,16.4,0v-21H37.2z"/>
	<g>
		<polygon class="st1" points="156.8,109.1 156.5,109.1 156.1,109.1 155.7,109.1 155.4,122.7 156.1,122.7 156.5,122.7 157.2,122.7 
					"/>
		<rect x="153.1" y="110.7" class="st11" width="6.3" height="0.7"/>
		<rect x="152" y="112.7" class="st11" width="8.6" height="0.7"/>
		<rect x="153.1" y="114.7" class="st11" width="6.3" height="0.7"/>
		<rect x="258.4" y="130" class="st1" width="1.3" height="16.2"/>
		<rect x="248.1" y="136.7" class="st1" width="1.3" height="16.2"/>
		<rect x="237.7" y="134.6" class="st1" width="1.3" height="16.2"/>
		<g>
			
				<rect x="61.7" y="144.9" transform="matrix(-1 -4.456048e-11 4.456048e-11 -1 134.895 290.5194)" class="st12" width="11.4" height="0.7"/>
			
				<rect x="75.1" y="142" transform="matrix(-1 -4.315893e-11 4.315893e-11 -1 154.4301 285.1617)" class="st11" width="4.2" height="1.1"/>
			
				<rect x="75.9" y="146" transform="matrix(-1 -4.448276e-11 4.448276e-11 -1 154.4301 296.1244)" class="st11" width="2.7" height="4.2"/>
			
				<rect x="73.9" y="143.1" transform="matrix(-1 -4.551527e-11 4.551527e-11 -1 154.4301 290.5194)" class="st13" width="6.6" height="4.3"/>
			<circle class="st13" cx="73.2" cy="145.3" r="1.1"/>
			
				<rect x="73.2" y="144.1" transform="matrix(-1 -4.451651e-11 4.451651e-11 -1 147.9184 290.5194)" class="st13" width="1.6" height="2.3"/>
			
				<rect x="60.5" y="144.6" transform="matrix(-1 -4.366031e-11 4.366031e-11 -1 122.841 290.5194)" class="st13" width="1.8" height="1.4"/>
		</g>
		<path class="st12" d="M40.5,159.4h232.4c0,0,0.7-6.2,6.9-8.2c0,0,6.8-1.9,7.9-6.4H91.3c0,0,0,5.1-8.3,5l-44,0.4L40.5,159.4z"/>
		<path class="st11" d="M54.3,162.8h220.2c-0.2-0.9-0.7-2.1-1.5-3.4H44.6l0.7,3.4H54.3z"/>
		<rect x="113.9" y="144.9" class="st1" width="28.7" height="2.5"/>
		<rect x="55.2" y="152.6" class="st1" width="30" height="4"/>
		<rect x="55.2" y="152.6" class="st11" width="30" height="1.2"/>
		<rect x="254.1" y="144.9" class="st13" width="1.6" height="14.6"/>
		<rect x="201.6" y="144.9" class="st13" width="1.6" height="14.6"/>
		<rect x="149.1" y="144.9" class="st13" width="1.6" height="14.6"/>
		<rect x="96.7" y="144.9" class="st13" width="1.6" height="14.6"/>
		<rect x="104.4" y="156.3" class="st1" width="138.8" height="3.1"/>
		<polygon class="st11" points="128.3,144.9 130.9,141.7 177.3,141.7 179,144.9 		"/>
		<polygon class="st12" points="167.3,123.5 154.9,123.5 142.6,123.5 138.7,141.7 154.9,141.7 171.2,141.7 		"/>
		<rect x="151.1" y="128.6" class="st1" width="3.6" height="3.6"/>
		<rect x="157" y="128.6" class="st1" width="3.6" height="3.6"/>
		<rect x="162.4" y="128.6" class="st1" width="3.6" height="3.6"/>
		<rect x="151.1" y="133.9" class="st1" width="3.6" height="3.6"/>
		<rect x="157" y="133.9" class="st1" width="3.6" height="3.6"/>
		<rect x="162.4" y="133.9" class="st1" width="3.6" height="3.6"/>
		<rect x="140.8" y="121.8" class="st11" width="28.1" height="1.7"/>
		<rect x="183.7" y="138.2" class="st13" width="13.7" height="6.7"/>
		<rect x="182.2" y="136.3" class="st11" width="16.7" height="1.9"/>
		<rect x="184.3" y="139.5" class="st1" width="0.9" height="1.6"/>
		<rect x="185.7" y="139.5" class="st1" width="0.9" height="1.6"/>
		<rect x="187.2" y="139.5" class="st1" width="0.9" height="1.6"/>
		<rect x="188.6" y="139.5" class="st1" width="0.9" height="1.6"/>
		<rect x="190.1" y="139.5" class="st1" width="0.9" height="1.6"/>
		<rect x="191.5" y="139.5" class="st1" width="0.9" height="1.6"/>
		<rect x="192.9" y="139.5" class="st1" width="0.9" height="1.6"/>
		<rect x="194.4" y="139.5" class="st1" width="0.9" height="1.6"/>
		<rect x="195.8" y="139.5" class="st1" width="0.9" height="1.6"/>
		<g>
			<path class="st11" d="M120,144.9v-4.4l1.7-1.8h5.6c0.6,0,1,0.5,1,1v5.1H120z"/>
		</g>
		<rect x="107.3" y="140.5" class="st12" width="12.7" height="1"/>
		<rect x="106.4" y="140.2" class="st13" width="1.8" height="1.6"/>
		<g>
			<rect x="186.2" y="128.1" class="st13" width="8.6" height="8.2"/>
			<polygon class="st1" points="191.1,114.6 190.7,114.6 190.3,114.6 189.9,114.6 189.6,128.1 190.3,128.1 190.7,128.1 191.4,128.1 
							"/>
			<rect x="189.2" y="113.8" class="st11" width="2.6" height="0.8"/>
			<rect x="186.8" y="129.1" class="st1" width="0.9" height="1.6"/>
			<rect x="188.4" y="129.1" class="st1" width="0.9" height="1.6"/>
			<rect x="190.1" y="129.1" class="st1" width="0.9" height="1.6"/>
			<rect x="191.7" y="129.1" class="st1" width="0.9" height="1.6"/>
			<rect x="193.3" y="129.1" class="st1" width="0.9" height="1.6"/>
			<rect x="187.4" y="116.2" class="st11" width="6.3" height="0.7"/>
			<rect x="186.2" y="118.1" class="st11" width="8.6" height="0.7"/>
			<rect x="187.4" y="120.1" class="st11" width="6.3" height="0.7"/>
		</g>
		<g>
			<rect x="213.9" y="139.9" class="st12" width="11.4" height="0.7"/>
			<rect x="207.8" y="137.1" class="st11" width="4.2" height="1.1"/>
			<rect x="208.5" y="141" class="st11" width="2.7" height="4.2"/>
			<rect x="206.5" y="138.2" class="st13" width="6.6" height="4.3"/>
			<circle class="st13" cx="213.9" cy="140.3" r="1.1"/>
			<rect x="212.3" y="139.2" class="st13" width="1.6" height="2.3"/>
			<rect x="224.7" y="139.6" class="st13" width="1.8" height="1.4"/>
		</g>
	</g>
</g>
</svg>
