<?xml version="1.0" encoding="UTF-8"?><svg id="a" xmlns="http://www.w3.org/2000/svg" viewBox="0 0 112 56"><defs><style>.b{fill:#fff;}.c{fill:#e3120b;}</style></defs><rect class="c" width="112" height="56"/><g><path class="b" d="M17.68,24.2V15.24h5.67v1.84h-3.62v1.62h3.34v1.79h-3.34v1.85h3.86v1.85h-5.91Z"/><path class="b" d="M29.48,24.35c-2.53,0-4.52-1.73-4.52-4.61s2.03-4.67,4.57-4.67c1.29,0,2.16,.2,2.82,.66v1.9c-.66-.56-1.56-.77-2.42-.77-1.64,0-2.82,.99-2.82,2.84s1.32,2.86,2.91,2.86c.88,0,1.64-.28,2.35-.71v1.82c-.74,.44-1.66,.69-2.88,.69Z"/><path class="b" d="M38.05,24.35c-2.58,0-4.34-1.83-4.34-4.63s1.84-4.65,4.48-4.65,4.34,1.88,4.34,4.54c0,2.93-1.84,4.73-4.48,4.73Zm.13-7.48c-1.33,0-2.32,.91-2.32,2.83s.95,2.86,2.28,2.86,2.26-.94,2.26-2.82c0-1.94-.91-2.87-2.22-2.87Z"/><path class="b" d="M44.54,24.2V15.24h1.92c2.87,4.05,3.24,4.56,3.81,5.43-.04-1-.05-2.36-.05-5.43h1.97v8.96h-1.76c-2.94-4.34-3.44-5.06-3.92-5.83,.03,.72,.03,1.26,.03,5.83h-1.98Z"/><path class="b" d="M58.4,24.35c-2.58,0-4.34-1.83-4.34-4.63s1.84-4.65,4.48-4.65,4.34,1.88,4.34,4.54c0,2.93-1.84,4.73-4.48,4.73Zm.13-7.48c-1.33,0-2.32,.91-2.32,2.83s.95,2.86,2.28,2.86,2.26-.94,2.26-2.82c0-1.94-.91-2.87-2.22-2.87Z"/><path class="b" d="M64.89,24.2V15.24h2.22c1.55,2.46,1.84,2.94,2.18,3.54,.36-.62,.63-1.09,2.2-3.54h2.2v8.96h-2.03c0-4.19,.01-5.09,.05-6.09-.36,.57-.7,1.1-2.42,3.72-1.69-2.6-2.03-3.17-2.39-3.72,.03,1,.03,1.97,.03,6.09h-2.03Z"/><path class="b" d="M76.03,24.2V15.24h2.07v8.96h-2.07Z"/><path class="b" d="M80.03,21.42c.88,.75,2.23,1.14,3.17,1.14,.88,0,1.24-.29,1.24-.84,0-.41-.27-.63-.99-.91l-1.17-.44c-1.59-.58-2.23-1.36-2.23-2.69,0-1.52,1.1-2.6,3.38-2.6,.94,0,2.01,.27,2.61,.67v1.99c-.74-.55-1.89-.88-2.75-.88-.8,0-1.16,.3-1.16,.77s.27,.63,.86,.86l1.17,.44c1.93,.74,2.37,1.54,2.37,2.72,0,1.46-1,2.69-3.44,2.69-1.24,0-2.42-.41-3.07-.89v-2.04Z"/><path class="b" d="M89.75,24.2v-7.1h-2.46v-1.87h7.03v1.87h-2.5v7.09h-2.07Z"/><path class="b" d="M17.99,39.43v-8.96h5.67v1.84h-3.62v1.62h3.34v1.79h-3.34v1.85h3.86v1.85h-5.91Z"/><path class="b" d="M25.94,30.47h2.31c1.16,0,2.37,.1,3.07,.38,1.6,.65,2.46,1.9,2.46,4s-.86,3.5-2.69,4.18c-.72,.27-1.79,.41-3.05,.41h-2.11v-8.96h0Zm2.65,7.13c.65,0,1.4-.04,1.87-.29,.8-.42,1.19-1.19,1.19-2.41,0-1.05-.37-1.85-1.18-2.31-.42-.24-1.13-.29-1.76-.29h-.7v5.31h.58Z"/><path class="b" d="M37.64,30.47v5.12c0,.55,.03,.93,.17,1.31,.23,.61,.85,.9,1.62,.9,.84,0,1.41-.29,1.64-.96,.11-.33,.15-.77,.15-1.29v-5.06h2.06v5.13c0,.95-.17,1.73-.43,2.26-.51,1.08-1.71,1.73-3.46,1.73-1.6,0-2.8-.55-3.36-1.64-.28-.55-.43-1.32-.43-2.27v-5.2h2.06Z"/><path class="b" d="M49.58,39.58c-2.53,0-4.52-1.73-4.52-4.61s2.03-4.67,4.57-4.67c1.29,0,2.16,.2,2.82,.66v1.9c-.66-.56-1.56-.77-2.42-.77-1.64,0-2.82,.99-2.82,2.84s1.32,2.86,2.91,2.86c.88,0,1.64-.28,2.35-.71v1.82c-.74,.45-1.66,.69-2.88,.69Z"/><path class="b" d="M53.56,39.43l3.39-8.96h1.98l3.41,8.96h-2.14l-.77-2.01h-2.91l-.75,2.01h-2.21Zm5.34-3.69c-.67-1.84-.8-2.22-.94-2.7-.15,.5-.29,.86-.94,2.7h1.88Z"/><path class="b" d="M64.8,39.43v-7.1h-2.46v-1.87h7.03v1.87h-2.5v7.09h-2.07Z"/><path class="b" d="M70.96,39.43v-8.96h2.07v8.96h-2.07Z"/><path class="b" d="M79.26,39.58c-2.58,0-4.34-1.83-4.34-4.63s1.84-4.65,4.48-4.65,4.34,1.88,4.34,4.54c0,2.93-1.84,4.73-4.48,4.73Zm.13-7.48c-1.33,0-2.32,.91-2.32,2.83s.95,2.86,2.28,2.86,2.26-.94,2.26-2.82c0-1.94-.91-2.87-2.22-2.87Z"/><path class="b" d="M85.75,39.43v-8.96h1.92c2.87,4.05,3.24,4.56,3.81,5.43-.04-1-.05-2.36-.05-5.43h1.97v8.96h-1.76c-2.94-4.34-3.44-5.06-3.92-5.83,.03,.72,.03,1.26,.03,5.83h-1.98Z"/></g></svg>