<!-- Generator: Adobe Illustrator 24.2.3, SVG Export Plug-In  -->
<svg version="1.1" xmlns="http://www.w3.org/2000/svg" xmlns:xlink="http://www.w3.org/1999/xlink" x="0px" y="0px" width="113.8px"
	 height="95.6px" viewBox="0 0 113.8 95.6" style="overflow:visible;enable-background:new 0 0 113.8 95.6;" xml:space="preserve">
<style type="text/css">
	.st0{fill:#1F2E7A;}
	.st1{fill:none;stroke:#000000;stroke-width:1.7173;stroke-linecap:round;stroke-miterlimit:10;}
	.st2{fill:#C91D42;}
	.st3{fill:#F9C21F;}
	.st4{fill:#36E2BD;}
	.st5{fill:#141F52;}
</style>
<defs>
</defs>
<g id="SqNkWV_1_">
	<g>
		<path class="st0" d="M40,95.6c-0.2-0.1-0.3-0.3-0.5-0.4c-0.1,0-0.2,0-0.3,0c-0.3,0.1-0.6,0.3-0.8-0.2c0-0.1-0.3-0.1-0.4-0.1
			c-0.6,0.2-1.2,0.3-1.9,0.5c-0.1,0-0.3,0-0.3-0.1c-0.1-0.2-0.1-0.5-0.1-0.7c0.1-0.3,0.3-0.5,0.4-0.8c0-0.1,0-0.2-0.1-0.3
			c0,0-0.1-0.1-0.1-0.1c0.5-0.3-0.2-0.5-0.1-0.7c0,0-0.1-0.1-0.2-0.1c-0.3,0-0.9,0.4-1,0.7c-0.1,0.4-0.1,0.4-0.5,0.2
			c-0.4-0.2-0.6-0.2-0.7,0.3c0,0.1-0.1,0.2-0.2,0.2c-0.1,0-0.2-0.1-0.3-0.2c-0.2-0.5-0.2-0.5-0.7-0.2c-0.2,0.1-0.4,0.2-0.6,0.1
			c-0.1,0-0.3-0.2-0.3-0.4c0-0.2-0.1-0.4-0.3-0.4c-0.1,0-0.2-0.1-0.2-0.1c-0.2-0.4-0.6-0.4-1-0.5c-0.2,0-0.4-0.1-0.5-0.3
			c-0.2-0.4-0.3-0.4-0.6-0.1c-0.2,0.2-0.3,0.2-0.5,0.1c-0.3-0.2-0.5-0.2-0.7,0.2c-0.1,0.3-0.5,0.4-0.5,0.8c0,0-0.2,0.1-0.4,0.1
			c-0.3,0-0.7,0-1.1,0c-0.3,0-0.7,0-0.9,0.4c-0.1,0.2-0.5,0.1-0.8,0.2c-0.1,0-0.2,0-0.2-0.1c0-0.5-0.4-0.5-0.7-0.6
			c-0.3-0.2-0.3-0.7-0.1-1.1c0-0.1,0.1-0.1,0.2-0.2c0.2-0.4,0.2-0.7-0.3-0.9c-0.4-0.1-0.7-0.3-0.7-0.8c0-0.1-0.1-0.3-0.2-0.3
			c-0.2-0.2-0.3-0.3-0.3-0.7c0-0.2-0.3-0.4-0.4-0.5c-0.3-0.2-0.7-0.3-0.8-0.7c0-0.1-0.2-0.2-0.3-0.3c-0.1-0.1-0.2-0.1-0.2-0.2
			c0.1-0.4-0.3-0.5-0.5-0.6c-0.2-0.1-0.3-0.4-0.5-0.1c0,0-0.2-0.1-0.2-0.1c-0.6-0.4-1.2-0.5-1.9-0.1c-0.2,0.1-0.6-0.1-0.9-0.2
			c-0.1,0,0-0.4,0-0.5c0.2-0.4,0.5-0.8,0.8-1.2c0.1-0.2,0.2-0.4,0.1-0.5c-0.3-0.3-0.1-0.5,0.1-0.8c-0.1,0-0.1,0-0.1,0
			c-0.1,0-0.3,0-0.4,0c0.1-0.1,0.2-0.2,0.3-0.3c0.1-0.1,0.3-0.2,0.4-0.4c-0.3,0-0.4-0.7-0.8-0.2c-0.3-0.8,0.1-1.3,0.7-1.7
			c0.3,0.3,0.5,0.6,0.8,0.8c0.1,0.1,0.3,0.1,0.4,0.1c0.1,0,0.2-0.1,0.3,0c0.4,0,0.6-0.1,0.4-0.5c-0.2-0.4-0.3-0.7-0.1-1.1
			c0.2-0.3,0-0.6-0.3-0.8c-0.2-0.2-0.7,0-0.9,0.2c-0.1,0.1-0.2,0.2-0.3,0.3c0,0-0.1,0-0.2,0c0.2-0.4,0.4-0.8,0.6-1.2
			c0.4-0.5,0.4-0.5,0-1c-0.2-0.4-0.6-0.7-0.3-1.3c0.2-0.4,0.2-0.8,0.2-1.2c0-0.1-0.2-0.2-0.2-0.3c-0.1-0.1,0-0.2-0.1-0.4
			c0.1,0,0.3,0,0.4,0c0.1,0.1,0.2,0.2,0.3,0.3c0.1,0.1,0.2,0.1,0.3,0.1c0.1,0,0.1-0.2,0.1-0.3c0-0.4,0.3-0.5,0.6-0.4
			c0.4,0.1,0.8,0.4,1.2,0.6c0.1,0.1,0.2,0.2,0.4,0.3c-0.2-0.5,0-0.7,0.4-1c0.3-0.2,0.5-0.5,0.7-0.8c0.2-0.3-0.1-0.8-0.5-0.8
			c-0.3,0-0.4-0.1-0.5-0.3c-0.3-0.8-0.9-0.7-1.6-0.8c-0.2,0-0.5,0-0.7,0c-0.3,0-0.5,0-0.7,0.1c-0.5,0.2-1,0.3-1.5,0
			c-0.3-0.2-0.6-0.2-0.8,0.1c-0.2,0.4-0.7,0.4-1,0.5c-0.4,0.1-0.5,0.2-0.3,0.6c0.3,0.4,0.1,0.7,0,1.1c-0.1,0.2-0.2,0.4-0.4,0.5
			c-0.3,0.4-0.4,0.8-0.3,1.3c0.1,0.4-0.1,0.8,0.1,1.2c0.1,0.3,0.1,0.6,0.1,1c0,0.2,0,0.4-0.1,0.6c-0.1,0.5-0.1,0.9,0.4,1.3
			c0.1,0.1,0.1,0.2,0.1,0.3c-0.1,0-0.2,0-0.3-0.1c-0.5-0.2-1.1,0-1.4,0.5c-0.1,0.2-0.3,0.4-0.5,0.4c-0.4,0-0.6,0.1-0.7,0.5
			c0,0.1-0.2,0.2-0.3,0.3c-0.1-0.1-0.2-0.2-0.2-0.3c-0.1-0.2,0.1-0.8,0.2-0.9c0.1-0.1,0.1-0.2,0.2-0.2c0.2-0.2,0.2-0.4,0.1-0.6
			c-0.1-0.1-0.3-0.2-0.5-0.2c-0.5,0-1.1,0-1.6-0.1c-0.7-0.1-1.1-0.8-1.1-1.5c0-0.4,0-0.8,0-1.1c0-0.1-0.2-0.3-0.3-0.4
			c-0.3-0.4-0.4-0.6,0-0.8c0.4-0.3,0.5-0.6,0.3-1c-0.1-0.2,0-0.4,0-0.6c-0.2-0.5-0.6-0.8-1-1c0.2-0.3,0.5-0.7,0.7-1
			c0.1-0.2,0.2-0.4,0.1-0.6c-0.1-0.4,0-0.9-0.4-1.2c-0.1-0.1,0-0.4,0-0.5c0-0.5-0.1-0.9-0.2-1.4c-0.1-0.3-0.2-0.7-0.2-1
			c0-0.2-0.1-0.3-0.1-0.5c0-0.1,0-0.3-0.1-0.4c-0.3-0.3-0.1-0.7-0.1-1c0-0.2,0.2-0.2,0.4-0.1c0.2,0.3,0.4,0.3,0.7,0
			c0.2-0.1,0.5-0.1,0.7-0.1c0.4,0,0.4-0.2,0.4-0.4c0-0.1,0-0.2,0-0.4c0.1,0,0.2,0.1,0.4,0.1c0.4,0.1,0.8,0.2,1.2,0.2
			c0,0,0.1-0.1,0.1-0.1c0-0.1,0-0.2-0.1-0.3c-0.2-0.1-0.3-0.2-0.5-0.3c-0.7-0.4-1.4-0.7-2.2-1c-0.3-0.1-0.6-0.4-1-0.4
			c-0.1,0-0.1-0.1-0.2-0.1c-0.4,0-0.7-0.2-0.9-0.6c0-0.1-0.1-0.1-0.3-0.2c0.1,0.4,0.2,0.7,0.3,1c0,0.2,0,0.4,0,0.5
			c-0.1,0.5,0,0.7,0.5,0.9c0.2,0.1,0.4,0.3,0.6,0.4c-0.5,0.3-0.8,0.3-1-0.1c-0.2-0.3-0.4-0.4-0.7-0.4c-0.4,0-0.7-0.2-1.2-0.1
			c-0.1,0-0.2-0.2-0.3-0.3c0-0.1-0.1-0.3,0-0.3c0.3-0.2,0.6-0.4,0.5-0.7c0-0.3-0.1-0.6-0.2-0.9c0.4,0,0.8,0.1,1.4,0.1
			c-0.3-0.4-0.3-0.7-0.7-0.8c0,0,0,0,0,0C4.3,60.5,4.2,60.3,4,60c0.2-0.1,0.4-0.1,0.6-0.2c0,0,0,0.1,0,0.1c0,0,0-0.1,0-0.1
			c0-0.1-0.5-0.6-0.6-0.7c-0.3-0.3-0.7-0.2-1-0.1c-0.3,0.1-0.6,0.2-0.9-0.1c-0.1-0.1-0.4-0.3-0.6,0c0,0-0.1,0.1-0.1,0.1
			c-0.2-0.3-0.5-0.3-0.8-0.5c-0.2-0.1-0.1-0.7,0.1-0.9c0.3-0.3,0.6-0.6,1-0.7c0.2,0,0.3-0.3,0.3-0.5c0.1-0.4,0.1-0.7,0.2-1.1
			c0-0.2,0.2-0.3,0.3-0.4c0.1-0.2,0.2-0.3,0.2-0.5c0-0.5,0-0.5-0.5-0.6c-0.1,0-0.3-0.1-0.4-0.1c-0.3-0.2-0.5-0.4-0.8-0.6
			C1.1,53.1,1,53,1,53c0.1-0.5-0.3-0.8-0.4-1.2c0-0.2-0.3-0.3-0.4-0.5C0.1,51.1,0,50.9,0,50.8c0.1-0.2,0-0.6,0.4-0.6
			c0.2,0,0.5,0,0.7-0.1c0.1,0,0.2-0.2,0.4-0.2c0.2-0.1,0.4-0.2,0.5-0.2c0.5,0,1,0.1,1.5,0.1c0.1,0,0.2,0,0.3,0
			c0.2-0.3,0.6-0.5,0.6-0.8c0.1-0.4,0.4-0.6,0.7-0.8c0.2-0.1,0.3-0.3,0.4-0.5c0.1-0.3,0.3-0.5,0.6-0.3c0.3,0.3,0.6,0.1,0.8-0.1
			c0.3-0.4,0.7-0.8,1-1.1c0.3-0.3,0.2-0.7-0.1-1.1c-0.5-0.6-0.9-1.1-1.1-1.9c0,0,0,0,0.1-0.1c0.5-0.2,0.8-0.1,1,0.4
			c0,0.1,0.1,0.1,0.2,0.2c0-0.1,0.1-0.2,0.1-0.2c0-0.1,0.1-0.2,0.1-0.2c0.5,0.3,0.6-0.3,1-0.5C9.7,42.5,10,42,10.7,42
			c0.1,0,0.2-0.1,0.4-0.2c0.4-0.1,0.6,0.1,0.9,0.2c0,0,0,0.1,0,0.1c-0.3,0.2-0.1,0.6-0.2,0.9c-0.2,0.2-0.2,0.5,0,0.6
			c0.2,0.1,0.5,0.2,0.7,0.1c0.4-0.2,0.7-0.4,1.1-0.7c0.2-0.1,0.4-0.2,0.1-0.5c-0.1,0-0.1-0.3,0-0.3c0.2-0.3,0.4-0.5,0.7-0.7
			c0,0,0.2,0,0.2,0.1c0.8,0.4,1.5,0.9,1.8,1.8c0.1,0.3,0.3,0.5,0.6,0.4c0.6,0,1,0.3,1.3,0.8c0.1,0.1,0.1,0.1,0.2,0.2
			c0.1-0.1,0.2-0.2,0.2-0.2c0-0.2,0-0.4-0.1-0.5c-0.3-0.5-0.3-0.6,0.1-0.9c-0.1-0.1-0.2-0.2-0.5-0.3c0.2,0,0.3-0.1,0.4-0.1
			c1,0,2.1,0,3.1-0.1c0.1,0,0.2,0,0.3,0c0.6-0.1,0.7-0.2,0.8-0.8c0-0.1,0-0.3,0-0.4c0-0.3,0-0.7,0.5-0.7c0.2,0,0.4-0.2,0.5-0.5
			c0.2-0.5,0.4-1.2,1-1.3c0.8-0.2,0.9-0.9,1.1-1.4c0.2-0.4,0.5-0.7,1-0.7c0.6,0,0.8-0.2,0.7-0.7c0-0.5,0.1-0.8,0.6-1
			c0.4-0.1,0.7-0.4,1.1-0.2c0.3,0.1,0.7,0.2,0.9,0.4c0.1,0.1,0.2,0,0.3,0c0.3,0,0.4,0.2,0.3,0.4c-0.2,0-0.3,0-0.5,0
			c0.1,0.3,0,0.6,0.2,0.8c0.4,0.3,0.5,0.7,0.6,1.1c0,0.1,0.2,0.2,0.2,0.3c0.1,0.3,0.2,0.7,0.2,1c0,0.5,0,1,0.3,1.5
			c0.4,0.7-0.3,1.9-1.2,2c-0.5,0.1-1,0-1.4-0.3c-0.3-0.2-0.5-0.3-0.5-0.7c0-0.1-0.1-0.2-0.1-0.3c-0.2-0.5-0.5-1-0.7-1.5
			c-0.1-0.2-0.2-0.3-0.2-0.5c0-0.1,0-0.3,0-0.5c0-0.1,0-0.2-0.1-0.3c-0.1,0.1-0.2,0.1-0.2,0.2c-0.1,0.2-0.1,0.4-0.1,0.6
			c0,0.2,0,0.3-0.1,0.5c0,0.1,0,0.2,0,0.3c0.2,0.5,0,0.9-0.5,1.2c-0.2,0.1-0.4,0.4-0.5,0.6c-0.1,0.2-0.2,0.4-0.3,0.6
			c0,0.2,0,0.4,0,0.5c0.1,0.2,0.2,0.5,0,0.7c0,0.1,0,0.2,0.1,0.4c0.1,0.1,0.2,0.2,0.3,0.3c0.2,0.2,0.3,0.4,0.6,0.1
			c0.2-0.2,0.4-0.4,0.2-0.7c-0.2-0.3-0.2-0.6,0.1-0.9c0.1-0.1,0.2-0.1,0.3-0.1c0,0,0.1,0.2,0.1,0.2c0,0.6,0.2,1.1,0.6,1.5
			c0.1,0.1,0.3,0.2,0.5,0.3c0,0,0.2-0.1,0.2-0.1c0.1-0.3,0.2-0.6,0.2-0.9c0-0.1,0.1-0.2,0.1-0.2c0.4,0.1,0.8-0.3,1.2,0
			c0.1,0.1,0.2,0,0.4,0c0.3-0.1,0.5-0.1,0.7,0.1c0.2,0.2,0.3,0.5,0.1,0.7c0,0,0,0.1,0,0.2c0.3-0.2,0.7-0.3,0.9-0.5
			c0.2-0.2,0.3-0.5,0.4-0.7c0.1-0.3,0.2-0.4,0.3-0.6c0.4-0.4,1-0.7,0.6-1.5c0.8,0.4,1.2,1.1,1,1.7c-0.1,0.2-0.1,0.4-0.4,0.2
			c-0.2-0.1-0.4-0.1-0.6-0.1c-0.3,0-0.4,0.2-0.4,0.6c0.1,0.2,0,0.5,0.2,0.6c0.2,0.2,0.5,0.3,0.7,0.4c0.1,0,0.3-0.2,0.5-0.3
			c0.1-0.1,0.2-0.3,0.3-0.3c0.7,0,1.4,0,2.1,0c0.3,0,0.5,0.2,0.8,0.2c0.2-0.1,0.5-0.3,0.7-0.4c0.1,0,0.2,0.1,0.2,0.1
			c0,0.1,0,0.2-0.1,0.3c-0.1,0.2-0.3,0.3-0.4,0.5c0.2,0.4,0.5,0.4,0.9,0.2c0.2-0.1,0.6-0.1,0.8,0.1c0.3,0.4,0.6,0.3,1,0.2
			c0.1,0,0.2-0.1,0.3-0.1c0.1,0,0.2,0,0.3,0c0,0.1,0,0.2-0.1,0.3c-0.3,0.3-0.2,0.5,0,0.6c0.2-0.1,0.3-0.2,0.5-0.3
			c0.3-0.1,0.6-0.5,0.6-0.9c0-0.4,0.3-0.6,0.7-0.4c0.7,0.4,1.1,0.9,1.6,1.5c0.1,0.1,0.2,0.2,0.3,0.4c0.3,0.4,0.7,0.8,0.8,1.3
			c0,0.1,0.2,0.3,0.3,0.4c0.1-0.1,0.2-0.2,0.3-0.4c0.1-0.2,0.2-0.3,0.3-0.5c-0.3-0.2-0.4-0.5-0.3-0.9c0-0.1-0.1-0.3-0.2-0.4
			c-0.2-0.2-0.3-0.4,0.1-0.6c0.1-0.1,0.2-0.2,0.2-0.3c0.1-0.2,0.1-0.5,0.2-0.7c0-0.1,0-0.1,0-0.2c-0.1-0.6-0.1-0.6,0.4-0.9
			c0.5-0.2,0.8-0.5,1-1c0.1-0.3,0.2-0.5,0.3-0.8c0.1-0.2,0.2-0.4,0.6-0.1c0.2,0.2,0.5,0.2,0.8,0.3c0.3,0,0.4,0.3,0.4,0.5
			c-0.1,0.4-0.2,0.8-0.4,1.1c-0.2,0.3-0.5,0.6-0.2,1c0.1,0.2,0,0.7-0.1,1c-0.4,0.6-0.4,1.2-0.6,1.8c-0.2,0.5-0.2,0.9,0.1,1.3
			c0.1,0.1,0,0.3,0,0.4c-0.3,0.2-0.3,0.4-0.4,0.7c0,0.1-0.1,0.2-0.1,0.2c-0.3,0.3-0.6,0.5-0.9,0.8c-0.1,0.1-0.3,0.2-0.5,0.2
			c-0.4,0.1-0.7,0.1-1-0.2c0,0-0.2,0-0.2,0c0,0.1-0.1,0.2,0,0.3c0.1,0.4,0.5,0.6,0.9,0.8c0.1,0,0.2,0,0.3,0.1
			c0.3,0.3,0.5,0.3,0.7-0.1c0.1-0.2,0.4-0.2,0.6-0.3c0.3-0.1,0.6-0.2,0.6-0.6c0-0.2,0.2-0.3,0.4-0.4c0.3-0.3,0.4-0.6,0.3-1
			c-0.1-0.3,0-0.6,0.2-0.7c0.3-0.1,0.6-0.2,0.8-0.2c0.3,0,0.5,0.9,0.4,1.2c-0.2,0.5,0,1.1,0.4,1.2c0.1,0,0.2-0.1,0.3-0.1
			c0-0.1-0.1-0.1-0.1-0.2c-0.5-0.3-0.5-0.3-0.1-0.8c0.3-0.4,0-1.2-0.5-1.5C51.1,48.1,51,48,50.8,48c-0.1,0-0.2,0-0.3,0
			c-0.2,0.3-0.4,0-0.7,0c-0.1,0-0.1-0.1-0.1-0.2c0.2-0.6,0.2-1.3,0.7-1.9c0.1-0.1,0.1-0.3,0.1-0.4c-0.1-0.4-0.2-0.7-0.3-1
			c0-0.1,0-0.2,0-0.2c0.2-0.2,0.4-0.5,0.7-0.6c0.4-0.2,0.6-0.4,0.6-0.9c0-0.1,0.1-0.3,0.2-0.4c-0.1,0.5,0.1,1-0.3,1.5
			c-0.4,0.5,0.1,1.2,0.7,1.2c0.2,0,0.4,0.2,0.7,0.4c0-0.3-0.2-0.5-0.3-0.7c-0.2-0.2-0.4-0.4-0.5-0.6c0-0.1,0-0.3,0-0.3
			c0.1,0,0.2,0,0.4,0c0.1,0,0.1,0.1,0.2,0.1c0.2,0.2,0.3,0.1,0.4-0.1c0-0.2,0.1-0.5,0.1-0.5c0.2,0,0.5,0,0.7,0.1
			c0.2,0.1,0.6,0.2,0.5,0.7c0,0.1,0.3,0.4,0.5,0.4c0.3,0.1,0.5-0.1,0.3-0.4c-0.1-0.2-0.2-0.4-0.4-0.5c-0.3-0.3-0.4-0.6-0.3-1
			c0-0.2,0-0.3,0-0.5c-0.1-0.4,0-0.7,0.5-0.7c0.4,0,0.9,0.1,1.3,0.1c0.4,0,0.8-0.1,1.1-0.2c0.2,0,0.2-0.2,0.1-0.4
			c-0.1-0.1-0.2-0.2-0.4-0.3c0.4-0.1,0.4-0.3,0.5-0.6c0-0.2,0-0.7,0.5-0.7c0.2,0,0.3-0.4,0.5-0.5c0.5-0.2,1-0.4,1.5-0.6
			c0.1,0,0.2-0.1,0.2-0.1c-0.2-0.5,0.3-0.3,0.4-0.4c0.2-0.1,0.4-0.2,0.6-0.3c0,0.1,0,0.2,0,0.4c0.3-0.2,0.7,0,0.9-0.4
			c0.1-0.1,0.3-0.1,0.5-0.1c-0.1-0.1-0.2-0.3-0.3-0.4c0.1,0,0.2,0,0.3-0.1c0.6-0.1,0.5-0.1,0.4-0.6c-0.1-0.6,0.1-1,0.6-1.4
			c0.2-0.2,0.4-0.3,0.7-0.1c0.3,0.1,0.3,0.2,0.1,0.5c-0.1,0.1-0.2,0.2-0.3,0.4c0,0,0,0.1,0,0.1c0.2,0,0.4,0,0.6-0.1
			c0.3,0,0.4,0.1,0.3,0.4c-0.1,0.3,0.1,0.3,0.2,0.4c0.2,0.1,0.3,0,0.3-0.2c0-0.1,0.1-0.3,0.1-0.3c0.4-0.1,0.9-0.4,1.2-0.2
			c0.4,0.3,0.8,0.6,1.1,0.9c0.1,0.1-0.1,0.4-0.1,0.5c0.1,0.2,0.4,0.3,0.4,0.5c0,0.2-0.1,0.5-0.2,0.7c0,0.1-0.1,0.2-0.2,0.3
			c-0.6,0.6-0.8,1.4-1.1,2.1c0,0.1-0.1,0.1-0.1,0.1c-0.5,0.3-0.8,0.9-0.8,1.6c0.1-0.1,0.2-0.1,0.2-0.1c0-0.4,0.3-0.5,0.6-0.6
			c0.1,0,0.2-0.1,0.3-0.2c0.2-0.1,0.3-0.3,0.5-0.4c0.2-0.2,0.4-0.3,0.1-0.6c-0.1,0-0.1-0.2-0.1-0.3c0-0.1,0.2-0.1,0.3-0.1
			c0.1,0,0.2,0,0.3,0c0.4,0.2,0.6,0.1,0.8-0.3c0.1,0.3,0.3,0.6,0.4,0.9c0,0,0.1,0,0.1,0c-0.1-0.5,0.2-0.7,0.5-0.8
			c0.4-0.2,0.9-0.3,1.3-0.4c0,0,0.1,0.1,0.2,0.2c0.1,0.1,0.2,0.3,0.3,0.4c0,0,0.2,0.1,0.3,0c0.3-0.2,0.6,0,0.9-0.2
			c0.2-0.1,0.5-0.2,0.7-0.4c0.1-0.1,0.2-0.2,0.2-0.3c0-0.2-0.2-0.5-0.2-0.7c0-0.2,0-0.4,0-0.5c0.2,0,0.4,0,0.6,0
			c0.4,0.1,0.6,0.1,0.9-0.2c0.1-0.1,0.3-0.1,0.4-0.1c0.1,0,0.3,0,0.4,0.1c0.1,0,0.3,0.1,0.3,0.1c-0.1,0.4,0.3,0.4,0.4,0.7
			c0,0,0.1,0.1,0.2,0.1c0.1,0,0.3,0,0.3,0.1c0,0.1,0,0.3-0.1,0.4c-0.2,0.3-0.3,0.3,0.2,0.4c0,0,0.1,0,0.1,0c0,0.4,0.4,0.2,0.5,0.4
			c0.3,0.4,0.7,0.4,1.2,0.4c0.3,0,0.3-0.1,0.3-0.3c-0.1-0.4-0.3-0.8-0.4-1.2c0-0.1,0-0.2-0.1-0.3c0.1,0,0.3-0.1,0.3,0
			c0.2,0.2,0.5,0.1,0.7,0.1c0.3,0,0.4-0.1,0.4-0.4c0-0.3,0.1-0.6,0.5-0.6c0.2,0,0.3,0,0.5,0c0.1,0,0.3,0,0.4,0
			c-0.1-0.1-0.2-0.3-0.3-0.5c0.1-0.1,0.2-0.1,0.4-0.2c0.1-0.1,0.2-0.1,0.3-0.2c-0.1-0.1-0.1-0.2-0.2-0.3c-0.2-0.2-0.3-0.4-0.5-0.6
			c0,0.1-0.1,0.1-0.2,0.2c0,0-0.1,0-0.1,0c0-0.2,0-0.4,0.1-0.5c0.2-0.2,0.3-0.4,0-0.6c-0.2-0.2-0.1-0.3,0.1-0.3
			c0.4,0,0.6-0.3,0.9-0.6c0.2-0.3,0.7-0.3,1.2-0.6c-0.1,0.4-0.6,0.4-0.4,0.8c0.2-0.1,0.4-0.2,0.6-0.3c0.1,0.2,0.1,0.4,0.2,0.7
			c0.1-0.2,0.2-0.3,0.2-0.5c0-0.2,0-0.3,0-0.5c-0.1-0.7,0.3-1.1,1-1.2c0.2,0,0.4,0,0.2,0.3c0,0.1,0,0.2-0.1,0.3c0.2,0,0.3,0.1,0.5,0
			c0.2,0,0.4-0.1,0.6-0.1c0.1-0.3,0.2-0.4,0.6-0.3c0.5,0.1,1.2-0.3,1.2-0.8c0-0.6,0.4-1,0.8-1.4c0.2-0.2,0.3-0.4,0.5-0.4
			c0.5-0.1,1-0.3,1.3,0.3c0.2,0.3,0.5,0.3,0.8,0.1c0.1-0.1,0.3-0.2,0.5-0.2c0,0,0.1,0,0.1,0c0.1-0.3,0.2-0.7,0.3-1
			c0-0.3,0.1-0.4,0.4-0.6c0.3-0.3,0.6-0.7,0.8-1.2c0.1-0.2-0.1-0.4-0.2-0.7c0-0.1,0-0.3,0-0.5c0-0.1,0.2-0.1,0.2-0.1
			c0,0.1,0.1,0.2,0.1,0.3c-0.2,0.4,0.1,0.5,0.3,0.4c0.4-0.1,0.8-0.2,1.2-0.4c0.2-0.1,0.2-0.5,0-0.6c-0.3-0.1-0.6-0.2-0.9-0.3
			c-0.2-0.1-0.4-0.1-0.6-0.3c0,0,0-0.2,0-0.3c0.1-0.2,0.2-0.5,0.4-0.6c0.6-0.3,0.4-1,0.8-1.4c0.2-0.2,0.2-0.4,0.4-0.6
			c0.3-0.3,0.5-0.6,0.8-0.8c0.2-0.2,0.4-0.3,0.6-0.4c0.3-0.2,0.6-0.4,0.9-0.6c0.6-0.4,1-1,1.7-1.2c0.1,0,0.2-0.2,0.4-0.3
			c0.3-0.1,0.5-0.4,0.9-0.2c0.2,0.2,0.6,0.2,0.9,0.1c0.2,0,0.4-0.3,0.6-0.6c-0.3,0-0.6,0-1,0c-0.2,0-0.2-0.2-0.1-0.3
			c0.1-0.2,0.2-0.3,0.2-0.5c0.1-0.4,0.3-0.8,0.8-0.9c0.1,0,0.3-0.2,0.4-0.3c0.2-0.1,0.3-0.2,0.5-0.3c0.1,0.2,0.3,0.4,0.4,0.6
			c0,0.1-0.1,0.3,0.2,0.3c0,0.2,0,0.4-0.1,0.5c0,0.1-0.1,0.1-0.2,0.1c0,0,0,0.1,0.1,0.1c0.3,0,0.5,0,0.8,0c0.1,0,0.2,0.1,0.3,0.1
			c0.2,0.2,0.2,0.5,0.6,0.3c0,0.1,0,0.2,0,0.3c-0.2,0.1-0.2,0.1,0,0.3c0.2,0.2,0,0.4-0.2,0.4c-0.4,0.1-0.6,0.3-0.7,0.6
			c-0.1,0.3-0.3,0.4-0.6,0.3c-0.5-0.1-0.7,0.1-0.6,0.7c0.1,0.5,0,0.5-0.5,0.6c-0.3,0-0.6,0-0.9,0c-0.1,0.5,0.1,0.8,0.7,0.8
			c0.5,0,0.8,0.3,1,0.7c0.1,0.2,0.2,0.4,0.2,0.7c0,0.3-0.1,0.6-0.5,0.7c-0.3,0.1-0.3,0.1-0.2,0.4c0,0,0,0.1,0,0.1
			c0,0.1,0.1,0.2,0.1,0.3c0.1-0.1,0.2-0.1,0.2-0.2c0.1-0.1,0.3-0.2,0.4-0.3c0.1-0.1,0.3-0.1,0.4-0.2c0.3-0.2,0.6-0.2,1-0.1
			c0.2,0.1,0.5,0,0.8-0.1c0.5-0.2,0.9-0.1,1.1,0.3c0.1,0.2,0.2,0.4-0.1,0.5c-0.1,0-0.2,0.1-0.2,0.1c-0.2,0.2-0.4,0.4-0.6,0.6
			c0.3,0.5,0.5,1.1,0.6,1.8c0.1,0.7,0.2,1.5,0.6,2.2c0.2,0.4,0.3,0.7,0.4,1.1c0.1,0.3,0.2,0.5,0.4,0.8c0,0.1,0.1,0.2,0.1,0.3
			c-0.1,0-0.2,0.1-0.3,0.1c-0.5-0.2-0.6,0.2-0.9,0.5c-0.3,0.4-0.2,0.9-0.3,1.4c0,0.1,0.1,0.3,0.1,0.4c0,0.1,0.1,0.2,0.2,0.3
			c-0.1,0-0.1,0-0.1,0c-0.2-0.1-0.4-0.2-0.6-0.3c0.1,0.3,0.1,0.6,0.2,0.9c0.1,0.1,0.1,0.2,0,0.3c-0.6,0.6-0.6,0.9,0,1.5
			c0.3,0.3,0.7,0.7,0.6,1.2c0,0.3,0.8,0.8,1.1,0.8c0.1,0,0.2-0.1,0.2-0.2c0.1-0.2,0.1-0.4,0.2-0.6c0,0,0.1,0,0.1,0
			c0.1,0.2,0.3,0.4,0.4,0.6c0.2,0.5,0.6,0.7,1.1,0.5c0.2-0.1,0.4,0,0.5,0.2c0,0.1-0.1,0.3-0.2,0.4c-0.1,0.1-0.2,0.3-0.1,0.4
			c0.1,0.6,0.6,1.1,1.4,1.1c0.2,0,0.4,0.1,0.5,0.2c0.2,0.1,0.2,0.3,0,0.5c-0.6,0.5-0.5,1.5,0.1,1.9c0.2,0.2,0.5,0.3,0.8,0.4
			c-0.6,0.5-0.6,1.1,0,1.6c0.4,0.4,0.8,0.7,0.9,1.4c0,0.4,0.1,0.7,0.2,1.1c-0.5,0.1-0.8,0-1.1-0.3c-0.4-0.3-1-0.5-1.5-0.8
			c-0.5-0.3-0.9-0.6-1.4-0.8c-0.2-0.1-0.3-0.2-0.5-0.2c-0.5-0.2-1.1-0.3-1.5-0.6c-0.6-0.5-1.1-1-1.4-1.7c-0.2-0.5-0.2-1.1-0.9-1.3
			c0.4-1.1,0.2-2-0.2-3c-0.1-0.2-0.2-0.5-0.3-0.7c-0.3-0.6-0.5-1.3-0.7-2c-0.1-0.2,0-0.4,0-0.6c0.1-0.7-0.1-1.1-0.8-1.5
			c-0.3-0.2-0.6-0.5-0.9-0.8c-0.1-0.1,0-0.3,0.1-0.4c0-0.1,0.1-0.2,0.2-0.3c-0.6,0.2-0.8,0.4-0.9,0.9c0,0.1,0,0.2,0,0.2
			c0.3,0.3,0.6,0.6,0.9,0.8c-0.4,0.3,0,0.8,0,1.2c0,0.4,0.1,0.7,0.2,1.1c-0.3,0.1-0.4-0.5-0.6,0c-0.1-0.1-0.2-0.1-0.3-0.2
			c-0.2-0.2-0.4-0.5-0.6-0.7c0,0.3,0,0.7-0.5,0.7c0,0-0.1,0.1-0.1,0.1c0,0.5-0.5,1-0.4,1.6c0,0.1,0.1,0.2,0.1,0.3
			c0.1,0.1,0.1,0.3,0.2,0.4c0,0.1,0,0.2,0,0.3c0.3,0.3,0.2,0.7,0.3,1.1c0.1,0.4,0.3,0.8,0.5,1.2c0,0.1,0.3,0.1,0.4,0.1
			c0.1,0,0.2-0.1,0.2-0.2c0.1,0,0.2,0,0.2,0c0,0.1,0,0.2,0,0.2c-0.3,0.2-0.2,0.7-0.6,0.7c0,0,0,0.2,0,0.3c0.1,0.3,0.1,0.5-0.2,0.7
			c-0.1,0-0.1,0.3-0.1,0.4c-0.1,0.1-0.2,0.3-0.3,0.3c0,0-0.2-0.1-0.2-0.1c0-0.1,0-0.3,0.1-0.4c0,0,0.1-0.1,0.2-0.2
			c-0.7-0.1-1,0.3-1.4,0.6c-0.1,0.1-0.2,0.2-0.3,0.2c-0.4,0.2-0.5,0.4-0.3,0.9c0,0.1,0,0.2,0,0.3c-0.4-0.1-0.3,0.2-0.4,0.4
			c-0.1,0.2-0.3,0.3-0.5,0.4c-0.2,0.1-0.4,0.2-0.2,0.5c0,0-0.1,0.3-0.2,0.3c-0.4,0-0.6,0.2-0.7,0.4c-0.4,0.4-0.7,0.9-1,1.4
			c-0.2,0.3-0.2,0.7-0.1,1.1c0.1,0.1,0.1,0.3,0,0.4c-0.2,0.4-0.2,0.8,0,1.1c0.1,0.1,0,0.3,0.1,0.5c0.1,0.8-0.3,1.7,0,2.5
			c0.1,0.2,0,0.6,0,0.8c-0.1,0.7-0.3,1.4-0.4,2.1c0,0.2,0,0.4,0.1,0.5c0.2,0,0.3,0,0.5-0.1c0.2-0.1,0.4-0.2,0.6-0.3
			c0.3-0.2,0.4-0.2,0.6,0.1c0.1,0.2,0.1,0.3,0.2,0.5c0.1,0.1,0.2,0.1,0.3,0.1c0-0.1,0-0.3,0-0.4c0-0.1-0.1-0.1-0.2-0.2
			c0,0,0-0.1,0-0.1c0,0,0.1,0,0.1,0c0.2,0.1,0.5,0.1,0.4,0.5c0,0.1,0.1,0.1,0.1,0.2c0.1-0.1,0.2-0.1,0.3-0.2
			c0.1-0.1,0.3-0.3,0.4-0.4c0.1-0.1,0.1-0.2,0.1-0.2c0-0.1-0.1-0.2-0.2-0.3c-0.3-0.5-0.2-0.7,0.3-0.9c0.3-0.1,0.7-0.1,1,0
			c0.3,0.1,0.5,0.1,0.8,0.1c0.1,0,0.2,0,0.4,0c0,0.1-0.1,0.2-0.1,0.4c0,0,0,0.1-0.1,0.2c0.4,0,0.7,0.1,0.8,0.4c0,0,0.1,0.1,0.2,0.1
			c0.4,0,0.5,0.3,0.5,0.5c0.1,0.9,0.5,1.6,1.1,2.3c0.4,0.4,0.6,0.9,0.9,1.3c0.1,0.1,0.2,0.3,0.3,0.4c0.4,0.4,0.4,0.9,0.3,1.5
			c0,0.2,0,0.4,0,0.6c0.2,1,0.4,2.1,0.6,3.1c0.1,0.5-0.1,1-0.1,1.5c0,1,0,2.1,0,3.1c0,0.4-0.1,0.8-0.3,1.1c-0.1,0.1-0.1,0.2-0.2,0.3
			c-0.2,0.7-0.8,0.8-1.3,1c-0.1,0-0.3-0.2-0.5-0.3c0,0-0.1,0.1-0.1,0.2c0,0.1-0.1,0.1-0.1,0.1c-0.6-0.2-0.3,0.2-0.4,0.4
			c-0.1,0.4-0.1,0.7-0.2,1.1c0,0-0.2,0.1-0.2,0.1c-0.1,0-0.2-0.2-0.2-0.2c0-0.2,0.1-0.3,0.2-0.5c0.2-0.4,0.1-0.7-0.1-1
			c-0.2-0.4-0.5-0.7-0.8-1c-0.1-0.1-0.2-0.2-0.4-0.3c-0.3-0.2-0.3-0.3-0.1-0.5c0.1-0.2,0.2-0.3,0.3-0.5c0.1-0.3,0.3-0.4,0.6-0.4
			c0.5,0,0.6-0.3,0.5-0.8c-0.1-0.3-0.1-0.7-0.2-1.1c-0.2-0.6-0.5-1.2-0.7-1.9c0-0.1,0-0.2,0-0.3c0.2-0.3,0.1-0.5-0.1-0.7
			c-0.1-0.1-0.2-0.1-0.2-0.2c-0.3-0.4-0.7-0.3-0.9,0.1c-0.2,0.3-0.4,0.6-0.5,0.9c0,0.1-0.1,0.2-0.1,0.3c0.2,0.4-0.2,0.5-0.4,0.7
			c-0.2,0.1-0.4,0.3-0.6,0.5c-0.2,0.2-0.7-0.1-0.9-0.4c-0.1-0.3-0.4-0.5-0.6-0.7c-0.1-0.1-0.3,0-0.4,0c-0.1,0-0.2,0.1-0.3,0
			c-0.4-0.2-0.9-0.1-1.3,0c-0.2,0-0.3,0.1-0.5,0.2c-0.5,0.3-0.8,0.1-1.2-0.3c-0.3-0.4-0.6-0.8-1.2-0.9c-0.1,0-0.2-0.1-0.2-0.2
			c-0.3-0.3-0.7-0.6-1-0.9c-0.2-0.2-0.4-0.4-0.6-0.5c-0.4-0.4-0.9-0.3-1.3-0.3c-0.5,0-0.9,0.2-1.4,0.2c-0.5,0-0.8,0.3-1.1,0.5
			c-0.1,0.1-0.3,0.3-0.5,0.4c-0.6,0.2-0.7,0.8-0.9,1.3c-0.1,0.2,0,0.4,0.2,0.4c0.5,0,0.8,0.4,0.7,0.9c-0.1,0.6-0.3,1.2-0.3,1.8
			c0,0.2,0.1,0.4,0.2,0.6c0.2,0.3,0.3,0.6-0.1,0.7c-0.1,0-0.1,0.2-0.2,0.3c-0.4,0.7-0.8,0.9-1.5,0.8c-0.4-0.1-0.8-0.1-1.1,0.2
			c-0.2,0.2-0.4,0.2-0.6,0c-0.4-0.2-0.7-0.1-1,0.1c-0.3,0.3-0.5,0.5-0.7,0.9c-0.1,0.3-0.5,0.5-0.8,0.7c-0.1,0.1-0.4,0.1-0.5,0.2
			c-0.8,0.9-1.9,0.8-3,0.8c-0.2,0-0.4-0.1-0.6-0.3c-0.2-0.2-0.4-0.3-0.7-0.3c-0.4,0-0.7-0.2-1.1-0.2c-0.6,0-1.1-0.1-1.7,0.3
			c-0.7,0.5-2.1,0.6-2.5-0.5C70.2,75,69.7,74.8,69,75c-0.2,0-0.4,0.1-0.6-0.1c-0.1-0.1-0.3-0.1-0.4-0.1c-0.1,0-0.2,0-0.4,0
			c-0.5-0.2-0.7-0.1-0.9,0.3c-0.1,0.2-0.3,0.3-0.3,0.5c-0.1,0.2-0.1,0.4-0.1,0.6c0.1,0.3,0.3,0.6,0.4,0.9c0,0.1,0.1,0.3,0,0.3
			c-0.3,0.3-0.6,0.6-1,0.7c-0.5,0.1-1.1,0-1.7,0c-0.4-0.1-0.8-0.2-1.1-0.6c-0.2-0.3-0.5-0.4-0.9-0.3c-0.1,0-0.3,0-0.4-0.1
			c-0.3-0.2-0.5-0.3-0.8-0.1c-0.4,0.3-1,0.5-1.5,0.8c-0.5,0.3-0.9,0.7-1.4,1c-0.1,0.1-0.3,0.1-0.5,0.2c-0.1,0-0.2,0-0.3,0.1
			c-0.4,0.2-0.8,0.4-1.3,0.4c-0.3,0-0.4,0.2-0.4,0.5c0,0.4-0.2,0.6-0.6,0.6c-0.4,0-0.6,0.3-0.6,0.7c0,0.2,0,0.5,0,0.7
			c0,0.3-0.1,0.5-0.4,0.6c-0.1,0-0.3,0.1-0.4,0.2c-0.1,0-0.1,0.1-0.2,0.1c-0.2-0.5-0.6-0.1-0.9-0.2c-0.3-0.1-0.6-0.3-0.9-0.4
			c-0.2,0.4-0.4,0.7-0.6,1c-0.2,0.4-0.3,0.8-0.5,1.2c0,0.1,0.1,0.2,0.1,0.3c0,0.1,0.1,0.2,0.1,0.3c-0.1,0-0.2,0-0.3,0
			c-0.2,0-0.5,0-0.6-0.2c-0.1-0.1-0.3-0.1-0.4-0.1c-0.4,0.1-0.8,0.1-1.2,0.2c-0.1,0-0.3,0.2-0.5,0.3c0.3,0.1,0.4,0.1,0.7,0.2
			c-0.5,0.6-0.1,1.1,0,1.7c0,0.2,0.1,0.4,0,0.6c-0.1,0.2-0.3,0.4-0.5,0.5c-0.3,0.1-0.4,0.4-0.3,0.7c0,0.1,0,0.3,0,0.4
			c0,0.3-0.1,0.3-0.4,0.4c-0.5,0.1-1,0.2-1.5,0.4c-0.2,0.1-0.4,0.4-0.6,0.6c-0.1,0.1-0.2,0.2-0.4,0.1c-0.4-0.1-0.7-0.2-1.1-0.2
			c-0.1,0-0.2,0.1-0.3,0.3c-0.2,0.3-0.3,0.6-0.8,0.5c-0.5,0-0.6,0-0.6-0.5c-0.2,0-0.6-0.1-0.7,0c-0.4,0.3-0.9,0.3-1.4,0.6
			c-0.2,0.1-0.2,0.3-0.1,0.5c0,0.1-0.4,0.3-0.4,0.4c0,0.3,0.1,0.5-0.1,0.8c-0.1,0.2,0.2,0.4,0.4,0.3c0.4-0.1,0.7,0.1,0.7,0.5
			c0,0.3,0,0.6,0,0.9c0,0.1-0.1,0.3,0.1,0.4c0.2,0.2,0,0.3-0.1,0.4C40.1,95.6,40.1,95.6,40,95.6z"/>
		<path class="st0" d="M43.4,37.8c-0.2-0.1-0.3-0.2-0.5-0.3c0.1,0,0.1-0.1,0.1-0.1c0.6-0.3,1.1-0.5,1.7-0.8c0,0,0.1-0.1,0.1-0.2
			c0-0.4,0.2-0.5,0.5-0.5c0.3,0,0.4-0.2,0.7-0.3c0.2-0.1,0.6-0.1,0.8-0.2c0.1,0,0.3,0.1,0.4,0c0.3-0.4,0.7-0.1,1,0
			c0.5,0.2,0.9,0.2,1.3-0.2c0.2-0.1,0.4-0.2,0.6-0.3c0.2-0.1,0.4,0,0.5,0.2c0.1,0.2,0.1,0.4-0.1,0.6c-0.5,0.5-1,0.5-1.6,0.6
			c-0.6,0.1-1.2-0.2-1.7,0.3c-0.1,0.1-0.2,0-0.4,0.1c-0.2,0.1-0.4,0.1-0.4,0.2c0,0.3-0.3,0.3-0.5,0.3c-0.3,0-0.6,0-0.7,0.4
			c0,0.1-0.1,0.1-0.1,0.1c-0.6,0.1-1,0.7-1.4,1c-0.6,0.4-1.2,0.8-1.5,1.6c-0.1,0.3-0.2,0.7-0.2,0.9c0.1,0.4-0.2,0.8,0.1,1.1
			c-0.1,0.1-0.2,0.2-0.2,0.2c-0.4-0.3-0.8-0.5-1.1-0.8c-0.2-0.2-0.3-0.3,0-0.5c0.3-0.2,0.1-0.8-0.3-1.1c-0.3-0.2-0.4-0.5-0.1-0.8
			c0.1-0.1,0.2-0.1,0.3-0.1c0.5,0,0.9-0.1,1-0.7c0,0,0.1-0.1,0.2-0.1c0.3,0.1,0.3-0.1,0.4-0.3c0,0,0.1-0.1,0.2-0.1
			C42.8,38.4,43,37.9,43.4,37.8z"/>
		<path class="st0" d="M110.2,63.3c-0.4,0-0.6,0.1-0.8,0.1c-0.4,0.1-0.5,0.4-0.3,0.7c0.1,0.1,0.2,0.2,0.3,0.4c0,0.1,0,0.2,0,0.2
			c-0.1,0-0.2,0-0.2,0c-0.3-0.4-0.8-0.5-0.8-1c0-0.1-0.2-0.2-0.3-0.4c-0.2-0.2-0.4-0.4-0.5-0.7c-0.2-0.4-0.5-0.6-0.9-0.8
			c-0.1-0.1-0.3-0.2-0.4-0.3c-0.3-0.4-0.7-0.9-1-1.3c-0.3-0.4-0.6-0.8-1-1.1c-0.3-0.3-0.7-0.5-1.2-0.7c-0.3-0.1-0.4-0.2-0.5-0.4
			c-0.2-0.5-0.5-0.9-1-1.2c-0.1,0,0-0.4,0-0.4c0.5-0.1,0.3-0.3,0.1-0.5c-0.1-0.2-0.3-0.3-0.5-0.4c-0.1-0.1-0.1-0.2-0.2-0.3
			c0.1,0,0.2,0,0.3,0c0,0,0.1,0,0.1,0.1c0.4,0.5,0.9,0.8,1.5,1.1c0.1,0,0.2,0.2,0.2,0.3c0.3,0.6,0.7,1,1.3,1.2
			c0.4,0.1,0.7,0.5,1.1,0.7c0.5,0.3,1,0.7,1.5,1c0.3,0.2,0.3,0.3,0,0.4c-0.5,0.3-0.6,0.6-0.3,1.1c0.1,0.2,0.2,0.4,0.3,0.6
			c0.1,0.4,0.5,0.8,0.8,0.9c0.3,0.1,0.6,0.1,0.8,0.3c0.3,0.2,0.4,0.3,0.8,0.2C109.7,62.9,109.9,63.1,110.2,63.3z"/>
		<path class="st0" d="M78.3,30.7c0,0.1-0.1,0.2-0.1,0.3c0,0.2,0.7,0.5,0.9,0.5c0.1,0,0.2,0,0.3,0c0,0.1,0,0.2-0.1,0.3
			c-0.3,0.3-0.7,0.5-1,0.7c0,0,0,0.1,0,0.2c0.2,0.3,0,0.4-0.3,0.4c-0.4-0.1-1,0.1-1.1-0.6c0-0.1-0.2-0.1-0.2-0.2
			c-0.2-0.2-0.3-0.8-0.1-1c0.1-0.1,0.3-0.1,0.4-0.1c0.1,0,0.2,0,0.2,0.1c0.2,0,0.4,0,0.5,0.1c-0.1-0.2-0.2-0.3-0.2-0.5
			c0-0.1-0.1-0.2,0-0.2c0.1-0.1,0.3-0.2,0.3-0.2c0.3,0.2,0.5,0,0.7-0.1c0.3-0.2,0.5-0.1,0.7,0.3c0.1,0.2,0.5,0.3,0.1,0.5
			c-0.3,0.2-0.7,0.1-0.8-0.2c0-0.1,0-0.1-0.1-0.2C78.4,30.7,78.4,30.7,78.3,30.7z"/>
		<path class="st0" d="M61.1,30.8c0,0.2,0,0.4,0,0.6c0.1-0.1,0.2-0.2,0.2-0.2c0.2-0.2,0.4-0.1,0.4,0.1c0.1,0.2,0.1,0.4,0,0.5
			c-0.1,0.3-0.1,0.5,0.1,0.8c0.1,0.2-0.2,0.5-0.5,0.4c-0.3-0.1-0.7-0.2-1-0.4c-0.2-0.1-0.5-0.5-0.4-0.7c0.1-0.4,0.1-0.9,0.7-1
			C60.8,30.9,60.9,30.8,61.1,30.8z"/>
		<path class="st0" d="M62.9,32.5c0.2-0.1,0.3-0.3,0.4,0c0,0.1,0.1,0.1,0.1,0.2c0.3,0.1,0.5,0.3,0.4,0.6c-0.1,0.2-0.3,0.4-0.6,0.6
			c-0.4,0.2-0.8,0.3-1.2,0.5c0,0,0-0.1,0-0.2c0.1-0.6,0.2-1.1,0.3-1.7c0,0,0-0.1,0-0.1c0.1-0.1,0.2-0.3,0.3-0.4
			c0.1,0.1,0.1,0.3,0.2,0.4C62.9,32.4,62.9,32.4,62.9,32.5z"/>
		<path class="st0" d="M60.8,29.8c0,0.2,0,0.5,0,0.7c0,0.1-0.1,0.1-0.1,0.2c-0.1,0.1-0.3,0.2-0.4,0.2c-0.2,0-0.4,0.4-0.6,0.1
			c-0.1-0.2-0.4-0.5-0.1-0.8c0,0,0.1-0.1,0-0.1c-0.3-0.6,0.3-0.7,0.6-0.9c0,0,0.2-0.1,0.2,0c0.2,0.2,0.4,0.5,0.6,0.7
			C60.9,29.7,60.8,29.7,60.8,29.8z"/>
		<path class="st0" d="M93.8,19.6c0,0.3-0.1,0.6-0.1,0.9c0,0.1-0.2,0.2-0.3,0.2c-0.1,0-0.2,0-0.3-0.1c-0.2-0.3-0.5-0.7-0.2-1.1
			c0.1-0.2,0.3-0.4,0.5-0.6c0,0,0.3,0.1,0.3,0.2C93.8,19.3,93.8,19.5,93.8,19.6z"/>
		<path class="st0" d="M79.8,30c0.3-0.1,0.4-0.6,0.9-0.5c0.1,0,0.2-0.2,0.3-0.3c0.1-0.1,0.3-0.1,0.4-0.1c0,0.1,0,0.3,0,0.4
			c0,0.3-0.2,0.5-0.5,0.6c-0.2,0.1-0.5,0.2-0.7,0.2c-0.2,0-0.4-0.1-0.5-0.2C79.8,30.1,79.8,30,79.8,30z"/>
		<path class="st0" d="M80.1,34.1c-0.2-0.6-0.2-0.7,0.1-0.9c0.2-0.1,0.8-0.1,0.9,0.1c0.1,0.2,0.1,0.3-0.1,0.4
			C80.7,33.8,80.4,33.9,80.1,34.1z"/>
		<path class="st0" d="M37.7,42.6c-0.2,0.4-0.5,0.4-0.7,0.4c-0.2,0-0.5-0.1-0.5-0.4c0-0.2,0.5-0.6,0.6-0.5
			C37.4,42.2,37.5,42.4,37.7,42.6z"/>
		<path class="st0" d="M47.7,27c-0.2,0-0.3,0.1-0.5,0.1c-0.2,0.1-0.3,0.1-0.4-0.1c0-0.1-0.1-0.2-0.1-0.2c0.1,0,0.2,0,0.2,0
			c0.3-0.2,0.7,0.2,0.9-0.3c0-0.1,0.1-0.1,0.2-0.1c0.1,0.1,0.1,0.3,0.2,0.4c0,0.1-0.1,0.2-0.1,0.2C48,27.1,47.8,27.1,47.7,27
			C47.7,27.1,47.7,27.1,47.7,27z"/>
		<path class="st0" d="M42.9,44.6c-0.1,0-0.1,0-0.2-0.1c-0.1-0.2-0.2-0.5-0.3-0.8c0-0.1,0.1-0.2,0.2-0.3c0,0,0.2,0.1,0.2,0.1
			c0.1,0.2,0.1,0.5,0.2,0.7C43.1,44.4,42.9,44.5,42.9,44.6z"/>
		<path class="st0" d="M113.5,49.3c0.1,0.1,0.1,0.3,0.2,0.4c0.3,0.3,0,0.6,0,0.8c0,0-0.2,0-0.2,0c-0.1-0.4-0.1-0.8-0.1-1.3
			C113.4,49.3,113.5,49.3,113.5,49.3z"/>
		<path class="st0" d="M50.9,28.1c-0.1,0.3-0.2,0.5-0.5,0.4c-0.1,0-0.2-0.3-0.2-0.4C50.3,27.7,50.6,28.2,50.9,28.1z"/>
		<path class="st0" d="M106.9,37.5c-0.1-0.2-0.2-0.3-0.3-0.5c-0.1-0.1-0.1-0.2-0.1-0.3c0-0.1,0.1-0.4,0.2-0.4c0.3,0,0.2,0.2,0.2,0.4
			C106.9,37,106.9,37.2,106.9,37.5z"/>
		<path class="st0" d="M12.8,41.2c0.2,0.2,0.4,0.4,0.6,0.6c0,0-0.1,0.1-0.1,0.1c-0.3-0.1-0.6-0.2-0.9-0.3
			C12.5,41.5,12.6,41.4,12.8,41.2z"/>
		<path class="st0" d="M68.2,39.2c0.2-0.3,0.4-0.4,0.6-0.3c0,0,0.1,0.2,0,0.3C68.6,39.6,68.4,39.4,68.2,39.2z"/>
		<path class="st0" d="M48.9,28.6c0.1-0.1,0.2-0.3,0.3-0.3c0.2-0.1,0.4-0.1,0.5-0.1c0,0,0.1,0.1,0.1,0.1c-0.1,0.1-0.2,0.2-0.3,0.3
			C49.3,28.7,49.1,28.6,48.9,28.6z"/>
		<path class="st0" d="M97.6,57.2c-0.2,0.1-0.3,0.2-0.4,0.2c-0.1,0-0.3,0-0.3-0.2c0-0.1,0.2-0.2,0.3-0.3
			C97.3,56.9,97.4,57.1,97.6,57.2z"/>
	</g>
</g>
<g>
	<line class="st1" x1="54" y1="0.9" x2="29.2" y2="49.7"/>
	<g>
		<line class="st1" x1="28.7" y1="58.8" x2="35.3" y2="77.7"/>
		<polygon points="28,59.4 27.3,57.8 28,58 28,56.7 28.6,57.6 28.8,57.1 29.6,58.9 		"/>
		<polygon points="29.9,50.1 29,51.6 28.8,50.9 27.7,51.7 28.1,50.7 27.5,50.7 28.5,49 		"/>
	</g>
	<g>
		<path class="st2" d="M82.5,60.4c-11.2-1-18.9-9-27.3-15.5c5-9.8,10-19.7,15-29.5c8.5,6.4,16.2,14.2,27.5,15
			C92.6,40.4,87.6,50.4,82.5,60.4z"/>
		<path d="M81.9,24.3c-4.2,8.3-8.4,16.6-12.6,24.9c-4.5-1-8.8-2.4-13.1-3.5c-0.3-0.2-0.6-0.5-0.9-0.7c5-9.8,10-19.7,15-29.5
			C74.1,18.3,77.8,21.5,81.9,24.3z"/>
		<path class="st2" d="M68.3,46.9c-8.9-6.6-16.8-15.3-28.6-16.2c5-9.8,10-19.6,14.9-29.4c11.8,0.9,19.7,9.5,28.7,16
			C78.3,27.2,73.3,37,68.3,46.9z"/>
		<g>
			<g id="kKWr0m_1_">
				<path class="st3" d="M63.7,23.7c-1.6,0.1-3-0.3-4.3-1c-1.4-0.8-2.4-1.8-3.1-3.1c-0.1,0.1-0.1,0.2-0.2,0.2
					c-0.2,0.1-0.4,0.2-0.6,0.2c-0.7,0.1-1.3,0.5-1.8,1c-0.1,0.1-0.1,0.2-0.2,0.3c-0.5,0.8-1.3,1.2-2.2,1.4c-0.2,0-0.4,0-0.6,0
					c-0.1,0-0.1,0-0.2,0c-0.3,0-0.6-0.3-0.5-0.6c0-0.1,0-0.2,0-0.3c0-0.4,0.2-0.7,0.4-0.9c0.5-0.6,1.2-1,2-1.1
					c0.9-0.1,1.6-0.5,2.2-1.1c0.2-0.2,0.4-0.3,0.8-0.3c0.1,0,0.2,0,0.2,0c0.2-0.1,0.5-0.1,0.7,0c0.1,0,0.1,0,0.2,0
					c0.2-0.1,0.3-0.1,0.5-0.2c1.3,2,3,2.9,5.5,3c0.8-0.1,1.5-0.2,2.2-0.5c0.2-0.1,0.3-0.1,0.5-0.2c1-0.6,1.7-1.3,2.1-2.3
					c0.7-1.9,0.8-3.8-0.1-5.9c-0.5-1.3-1.3-2.5-2.5-3.6c-0.1-0.1-0.1-0.1-0.2-0.2c0,0,0,0,0,0c0.3,0.2,0.5,0.3,0.8,0.5
					c2.1,1.5,3.5,3.3,4.2,5.4c0.6,1.7,0.6,3.4,0,5C69,20.8,68,22,66.4,22.9c-0.2,0.1-0.3,0.2-0.5,0.3C65.1,23.4,64.4,23.6,63.7,23.7
					z"/>
			</g>
			<path class="st3" d="M62.5,21c-1.1-2.4-2.4-4.7-3.9-7c-1,0.4-2,0.8-2.9,1.3c-0.7-0.9-1.3-1.8-2.1-2.7c0,0,0.1-0.1,0.1-0.1
				c2-1,4-1.9,6.2-2.7c0.1,0,0.2,0,0.3,0c1.3,0.6,2.6,1.1,3.9,1.8c0.1,0.1,0.3,0.1,0.5,0.2c-1.5,0.4-2.9,0.9-4.2,1.4
				c2,2.3,6.6,11.8,6.6,12.7c0.1,0.4,0.2,0.7,0.1,1.1c-0.1,0.1-0.1,0.2-0.2,0.3c-0.1,0.1-0.2,0.1-0.2,0.2C66,28,65,27.7,64.8,26.8
				C64.6,25.8,62.6,21,62.5,21z"/>
		</g>
		<path d="M68.3,47c-4.4-0.6-8.7-1.5-13.1-2.1c1-2,2-3.9,3-5.9C61.6,41.6,64.9,44.4,68.3,47z"/>
	</g>
</g>
<g>
	<path class="st4" d="M25.6,51.6l-3.5-2.2c-0.2-0.1-0.3-0.4-0.1-0.6s0.4-0.3,0.6-0.1c0,0,0,0,0,0l3.3,2.5c0.1,0.1,0.1,0.2,0,0.4
		C25.9,51.6,25.7,51.7,25.6,51.6z"/>
</g>
<g>
	<path class="st4" d="M24.8,54.2l-4.7,0.2c-0.2,0-0.4-0.2-0.4-0.4c0-0.2,0.2-0.4,0.4-0.4c0,0,0,0,0,0l4.7,0.2c0.1,0,0.2,0.1,0.2,0.3
		C25,54.1,24.9,54.2,24.8,54.2z"/>
</g>
<g>
	<path class="st4" d="M26,56.7L22.4,59c-0.2,0.1-0.5,0.1-0.6-0.1c-0.1-0.2-0.1-0.5,0.1-0.6c0,0,0,0,0,0l3.8-1.9
		c0.1-0.1,0.2,0,0.3,0.1C26.1,56.5,26.1,56.6,26,56.7z"/>
</g>
<g>
	<path class="st4" d="M31.4,52.9l2-1.5c0.1-0.1,0.3-0.1,0.4,0.1s0.1,0.3-0.1,0.4c0,0,0,0,0,0l-2.1,1.3c-0.1,0-0.2,0-0.2,0
		C31.4,53.1,31.4,53,31.4,52.9z"/>
</g>
<g>
	<path class="st4" d="M31.5,55l2.3,1.2c0.1,0.1,0.2,0.2,0.1,0.4c-0.1,0.1-0.2,0.2-0.4,0.1c0,0,0,0,0,0l-2.2-1.4
		c-0.1,0-0.1-0.1,0-0.2C31.4,55,31.5,55,31.5,55z"/>
</g>
<rect x="33.2" y="78.5" class="st5" width="5.5" height="2.8"/>
<ellipse cx="36.2" cy="78.5" rx="3.5" ry="0.8"/>
</svg>
