<!-- Generator: Adobe Illustrator 24.2.3, SVG Export Plug-In  -->
<svg version="1.1" xmlns="http://www.w3.org/2000/svg" xmlns:xlink="http://www.w3.org/1999/xlink" x="0px" y="0px" width="433.7px"
	 height="333.9px" viewBox="0 0 433.7 333.9" style="overflow:visible;enable-background:new 0 0 433.7 333.9;"
	 xml:space="preserve">
<style type="text/css">
	.st0{clip-path:url(#SVGID_4_);}
	.st1{fill:#475ED1;}
	.st2{opacity:0.5;fill:#2E45B8;}
	.st3{fill:#2E45B8;}
	.st4{fill:#C1C1C1;}
	.st5{fill:#ADADAD;}
	.st6{fill:#EBE9E0;}
	.st7{fill:#F5F4EF;}
	.st8{fill:none;stroke:#141F52;stroke-width:1.1529;stroke-linecap:round;stroke-linejoin:round;stroke-miterlimit:10;}
	.st9{fill:#C91D42;}
	.st10{fill:none;stroke:#141F52;stroke-width:0.2882;stroke-linecap:round;stroke-linejoin:round;stroke-miterlimit:10;}
	.st11{fill:#E2365B;}
	.st12{fill:none;stroke:#C91D42;stroke-width:1.1165;stroke-miterlimit:10;}
	.st13{fill:#141F52;}
	.st14{clip-path:url(#SVGID_5_);}
	.st15{fill:#FA9851;}
	.st16{fill:none;stroke:#F97A1F;stroke-width:0.9891;stroke-miterlimit:10;}
	.st17{fill:#36E2BD;}
	.st18{fill:none;stroke:#1DC9A4;stroke-width:0.9891;stroke-miterlimit:10;}
	.st19{fill:none;stroke:#C91D42;stroke-width:0.9891;stroke-miterlimit:10;}
	.st20{fill:none;stroke:#1F2E7A;stroke-width:0.9891;stroke-miterlimit:10;}
	.st21{fill:#B3B3B3;}
	.st22{fill:#D9D9D9;}
	.st23{fill:#1A1A1A;}
	.st24{fill:#1F2E7A;}
	.st25{fill:#152663;}
	.st26{fill:#595959;}
	.st27{fill:#1DC9A4;}
	.st28{clip-path:url(#SVGID_6_);}
	.st29{fill:none;stroke:#F97A1F;stroke-width:1.0062;stroke-miterlimit:10;}
	.st30{fill:none;stroke:#C91D42;stroke-width:1.0062;stroke-miterlimit:10;}
	.st31{fill:none;stroke:#1DC9A4;stroke-width:1.0062;stroke-miterlimit:10;}
	.st32{fill:none;stroke:#1F2E7A;stroke-width:1.0062;stroke-miterlimit:10;}
	.st33{fill:#9E2349;}
	.st34{fill:#3F4EBC;}
	.st35{fill:#D0E1E1;}
	.st36{clip-path:url(#SVGID_8_);}
	.st37{clip-path:url(#SVGID_10_);}
	.st38{clip-path:url(#SVGID_12_);}
</style>
<defs>
</defs>
<g>
	<g>
		<defs>
			<circle id="SVGID_3_" cx="219" cy="155.5" r="155.5"/>
		</defs>
		<clipPath id="SVGID_4_">
			<use xlink:href="#SVGID_3_"  style="overflow:visible;"/>
		</clipPath>
		<g class="st0">
			<rect x="0" y="173" class="st1" width="433.7" height="138.1"/>
			<path class="st2" d="M391.4,153.4c0,0-79.1-5.8-150.5,2.2s-88.4,14.2-115.2,16.6s-60.3-1.9-72.9-8.6
				c0.4,11.5,10.7,33.5,10.7,33.5s31.8-12.1,89.4-13.9s149.5,25.3,209.8,29.5C413.1,183.8,391.4,153.4,391.4,153.4z"/>
			<path class="st2" d="M97.3,274.3c0,0,73.2-5,139.2,3.6c66,8.6,81.5,15,106.3,17.7c24.8,2.7,55.8-1.4,67.6-7.9
				c-0.6,11.5-10.4,33.4-10.4,33.4s-29.2-12.4-82.5-14.7s-138.7,23.9-194.6,27.6C76.7,304.5,97.3,274.3,97.3,274.3z"/>
			<g>
				<g>
					<path class="st3" d="M72.2,267.6c1.6,0.6,3.2,0.9,4.9,1.2c1.6,0.2,3.3,0.4,5,0.4c1.7,0,3.3,0,5-0.2c1.7-0.2,3.3-0.4,4.9-0.9
						c-1.5,0.8-3.2,1.3-4.8,1.6c-1.7,0.3-3.4,0.4-5.1,0.4c-1.7,0-3.4-0.2-5.1-0.6C75.2,269.1,73.6,268.5,72.2,267.6z"/>
				</g>
				<g>
					<path class="st3" d="M91.6,267.6c1.6,0.6,3.2,0.9,4.9,1.2c1.6,0.2,3.3,0.4,5,0.4c1.7,0,3.3,0,5-0.2c1.7-0.2,3.3-0.4,4.9-0.9
						c-1.5,0.8-3.2,1.3-4.8,1.6c-1.7,0.3-3.4,0.4-5.1,0.4c-1.7,0-3.4-0.2-5.1-0.6C94.6,269.1,93,268.5,91.6,267.6z"/>
				</g>
				<g>
					<path class="st3" d="M111,267.6c1.6,0.6,3.2,0.9,4.9,1.2c1.6,0.2,3.3,0.4,5,0.4c1.7,0,3.3,0,5-0.2c1.7-0.2,3.3-0.4,4.9-0.9
						c-1.5,0.8-3.2,1.3-4.8,1.6c-1.7,0.3-3.4,0.4-5.1,0.4c-1.7,0-3.4-0.2-5.1-0.6C114,269.1,112.4,268.5,111,267.6z"/>
				</g>
				<g>
					<path class="st3" d="M130.4,267.6c1.6,0.6,3.2,0.9,4.9,1.2c1.6,0.2,3.3,0.4,5,0.4c1.7,0,3.3,0,5-0.2c1.7-0.2,3.3-0.4,4.9-0.9
						c-1.5,0.8-3.2,1.3-4.8,1.6c-1.7,0.3-3.4,0.4-5.1,0.4c-1.7,0-3.4-0.2-5.1-0.6C133.4,269.1,131.8,268.5,130.4,267.6z"/>
				</g>
				<g>
					<path class="st3" d="M149.8,267.6c1.6,0.6,3.2,0.9,4.9,1.2c1.6,0.2,3.3,0.4,5,0.4c1.7,0,3.3,0,5-0.2c1.7-0.2,3.3-0.4,4.9-0.9
						c-1.5,0.8-3.2,1.3-4.8,1.6c-1.7,0.3-3.4,0.4-5.1,0.4c-1.7,0-3.4-0.2-5.1-0.6C152.8,269.1,151.2,268.5,149.8,267.6z"/>
				</g>
				<g>
					<path class="st3" d="M169.2,267.6c1.6,0.6,3.2,0.9,4.9,1.2c1.6,0.2,3.3,0.4,5,0.4c1.7,0,3.3,0,5-0.2c1.7-0.2,3.3-0.4,4.9-0.9
						c-1.5,0.8-3.2,1.3-4.8,1.6c-1.7,0.3-3.4,0.4-5.1,0.4c-1.7,0-3.4-0.2-5.1-0.6C172.2,269.1,170.6,268.5,169.2,267.6z"/>
				</g>
				<g>
					<path class="st3" d="M188.6,267.6c1.6,0.6,3.2,0.9,4.9,1.2c1.6,0.2,3.3,0.4,5,0.4c1.7,0,3.3,0,5-0.2c1.7-0.2,3.3-0.4,4.9-0.9
						c-1.5,0.8-3.2,1.3-4.8,1.6c-1.7,0.3-3.4,0.4-5.1,0.4c-1.7,0-3.4-0.2-5.1-0.6C191.6,269.1,190,268.5,188.6,267.6z"/>
				</g>
				<g>
					<path class="st3" d="M208,267.6c1.6,0.6,3.2,0.9,4.9,1.2c1.6,0.2,3.3,0.4,5,0.4c1.7,0,3.3,0,5-0.2c1.7-0.2,3.3-0.4,4.9-0.9
						c-1.5,0.8-3.2,1.3-4.8,1.6c-1.7,0.3-3.4,0.4-5.1,0.4c-1.7,0-3.4-0.2-5.1-0.6C211,269.1,209.4,268.5,208,267.6z"/>
				</g>
				<g>
					<path class="st3" d="M227.4,267.6c1.6,0.6,3.2,0.9,4.9,1.2c1.6,0.2,3.3,0.4,5,0.4c1.7,0,3.3,0,5-0.2c1.7-0.2,3.3-0.4,4.9-0.9
						c-1.5,0.8-3.2,1.3-4.8,1.6c-1.7,0.3-3.4,0.4-5.1,0.4c-1.7,0-3.4-0.2-5.1-0.6C230.4,269.1,228.8,268.5,227.4,267.6z"/>
				</g>
				<g>
					<path class="st3" d="M246.8,267.6c1.6,0.6,3.2,0.9,4.9,1.2c1.6,0.2,3.3,0.4,5,0.4c1.7,0,3.3,0,5-0.2c1.7-0.2,3.3-0.4,4.9-0.9
						c-1.5,0.8-3.2,1.3-4.8,1.6c-1.7,0.3-3.4,0.4-5.1,0.4c-1.7,0-3.4-0.2-5.1-0.6C249.8,269.1,248.2,268.5,246.8,267.6z"/>
				</g>
				<g>
					<path class="st3" d="M266.1,267.6c1.6,0.6,3.2,0.9,4.9,1.2c1.6,0.2,3.3,0.4,5,0.4c1.7,0,3.3,0,5-0.2c1.7-0.2,3.3-0.4,4.9-0.9
						c-1.5,0.8-3.2,1.3-4.8,1.6c-1.7,0.3-3.4,0.4-5.1,0.4c-1.7,0-3.4-0.2-5.1-0.6C269.2,269.1,267.6,268.5,266.1,267.6z"/>
				</g>
				<g>
					<path class="st3" d="M285.5,267.6c1.6,0.6,3.2,0.9,4.9,1.2c1.6,0.2,3.3,0.4,5,0.4c1.7,0,3.3,0,5-0.2c1.7-0.2,3.3-0.4,4.9-0.9
						c-1.5,0.8-3.2,1.3-4.8,1.6c-1.7,0.3-3.4,0.4-5.1,0.4c-1.7,0-3.4-0.2-5.1-0.6C288.6,269.1,287,268.5,285.5,267.6z"/>
				</g>
				<g>
					<path class="st3" d="M304.9,267.6c1.6,0.6,3.2,0.9,4.9,1.2c1.6,0.2,3.3,0.4,5,0.4c1.7,0,3.3,0,5-0.2c1.7-0.2,3.3-0.4,4.9-0.9
						c-1.5,0.8-3.2,1.3-4.8,1.6c-1.7,0.3-3.4,0.4-5.1,0.4c-1.7,0-3.4-0.2-5.1-0.6C308,269.1,306.4,268.5,304.9,267.6z"/>
				</g>
				<g>
					<path class="st3" d="M324.3,267.6c1.6,0.6,3.2,0.9,4.9,1.2c1.6,0.2,3.3,0.4,5,0.4c1.7,0,3.3,0,5-0.2c1.7-0.2,3.3-0.4,4.9-0.9
						c-1.5,0.8-3.2,1.3-4.8,1.6c-1.7,0.3-3.4,0.4-5.1,0.4c-1.7,0-3.4-0.2-5.1-0.6C327.4,269.1,325.8,268.5,324.3,267.6z"/>
				</g>
			</g>
			<g>
				<g>
					<path class="st3" d="M86.8,257c1.6,0.6,3.2,0.9,4.9,1.2c1.6,0.2,3.3,0.4,5,0.4c1.7,0,3.3,0,5-0.2c1.7-0.2,3.3-0.4,4.9-0.9
						c-1.5,0.8-3.2,1.3-4.8,1.6c-1.7,0.3-3.4,0.4-5.1,0.4c-1.7,0-3.4-0.2-5.1-0.6C89.9,258.5,88.2,257.9,86.8,257z"/>
				</g>
				<g>
					<path class="st3" d="M106.2,257c1.6,0.6,3.2,0.9,4.9,1.2c1.6,0.2,3.3,0.4,5,0.4c1.7,0,3.3,0,5-0.2c1.7-0.2,3.3-0.4,4.9-0.9
						c-1.5,0.8-3.2,1.3-4.8,1.6c-1.7,0.3-3.4,0.4-5.1,0.4c-1.7,0-3.4-0.2-5.1-0.6C109.3,258.5,107.6,257.9,106.2,257z"/>
				</g>
				<g>
					<path class="st3" d="M125.6,257c1.6,0.6,3.2,0.9,4.9,1.2c1.6,0.2,3.3,0.4,5,0.4c1.7,0,3.3,0,5-0.2c1.7-0.2,3.3-0.4,4.9-0.9
						c-1.5,0.8-3.2,1.3-4.8,1.6c-1.7,0.3-3.4,0.4-5.1,0.4c-1.7,0-3.4-0.2-5.1-0.6C128.7,258.5,127,257.9,125.6,257z"/>
				</g>
				<g>
					<path class="st3" d="M145,257c1.6,0.6,3.2,0.9,4.9,1.2c1.6,0.2,3.3,0.4,5,0.4c1.7,0,3.3,0,5-0.2c1.7-0.2,3.3-0.4,4.9-0.9
						c-1.5,0.8-3.2,1.3-4.8,1.6c-1.7,0.3-3.4,0.4-5.1,0.4c-1.7,0-3.4-0.2-5.1-0.6C148.1,258.5,146.4,257.9,145,257z"/>
				</g>
				<g>
					<path class="st3" d="M164.4,257c1.6,0.6,3.2,0.9,4.9,1.2c1.6,0.2,3.3,0.4,5,0.4c1.7,0,3.3,0,5-0.2c1.7-0.2,3.3-0.4,4.9-0.9
						c-1.5,0.8-3.2,1.3-4.8,1.6c-1.7,0.3-3.4,0.4-5.1,0.4c-1.7,0-3.4-0.2-5.1-0.6C167.5,258.5,165.8,257.9,164.4,257z"/>
				</g>
				<g>
					<path class="st3" d="M183.8,257c1.6,0.6,3.2,0.9,4.9,1.2c1.6,0.2,3.3,0.4,5,0.4c1.7,0,3.3,0,5-0.2c1.7-0.2,3.3-0.4,4.9-0.9
						c-1.5,0.8-3.2,1.3-4.8,1.6c-1.7,0.3-3.4,0.4-5.1,0.4c-1.7,0-3.4-0.2-5.1-0.6C186.9,258.5,185.2,257.9,183.8,257z"/>
				</g>
				<g>
					<path class="st3" d="M203.2,257c1.6,0.6,3.2,0.9,4.9,1.2c1.6,0.2,3.3,0.4,5,0.4c1.7,0,3.3,0,5-0.2c1.7-0.2,3.3-0.4,4.9-0.9
						c-1.5,0.8-3.2,1.3-4.8,1.6c-1.7,0.3-3.4,0.4-5.1,0.4c-1.7,0-3.4-0.2-5.1-0.6C206.3,258.5,204.6,257.9,203.2,257z"/>
				</g>
				<g>
					<path class="st3" d="M222.6,257c1.6,0.6,3.2,0.9,4.9,1.2c1.6,0.2,3.3,0.4,5,0.4c1.7,0,3.3,0,5-0.2c1.7-0.2,3.3-0.4,4.9-0.9
						c-1.5,0.8-3.2,1.3-4.8,1.6c-1.7,0.3-3.4,0.4-5.1,0.4c-1.7,0-3.4-0.2-5.1-0.6C225.6,258.5,224,257.9,222.6,257z"/>
				</g>
				<g>
					<path class="st3" d="M242,257c1.6,0.6,3.2,0.9,4.9,1.2c1.6,0.2,3.3,0.4,5,0.4c1.7,0,3.3,0,5-0.2c1.7-0.2,3.3-0.4,4.9-0.9
						c-1.5,0.8-3.2,1.3-4.8,1.6c-1.7,0.3-3.4,0.4-5.1,0.4c-1.7,0-3.4-0.2-5.1-0.6C245,258.5,243.4,257.9,242,257z"/>
				</g>
				<g>
					<path class="st3" d="M261.4,257c1.6,0.6,3.2,0.9,4.9,1.2c1.6,0.2,3.3,0.4,5,0.4c1.7,0,3.3,0,5-0.2c1.7-0.2,3.3-0.4,4.9-0.9
						c-1.5,0.8-3.2,1.3-4.8,1.6c-1.7,0.3-3.4,0.4-5.1,0.4c-1.7,0-3.4-0.2-5.1-0.6C264.4,258.5,262.8,257.9,261.4,257z"/>
				</g>
				<g>
					<path class="st3" d="M280.8,257c1.6,0.6,3.2,0.9,4.9,1.2c1.6,0.2,3.3,0.4,5,0.4c1.7,0,3.3,0,5-0.2c1.7-0.2,3.3-0.4,4.9-0.9
						c-1.5,0.8-3.2,1.3-4.8,1.6c-1.7,0.3-3.4,0.4-5.1,0.4c-1.7,0-3.4-0.2-5.1-0.6C283.8,258.5,282.2,257.9,280.8,257z"/>
				</g>
				<g>
					<path class="st3" d="M300.2,257c1.6,0.6,3.2,0.9,4.9,1.2c1.6,0.2,3.3,0.4,5,0.4c1.7,0,3.3,0,5-0.2c1.7-0.2,3.3-0.4,4.9-0.9
						c-1.5,0.8-3.2,1.3-4.8,1.6c-1.7,0.3-3.4,0.4-5.1,0.4c-1.7,0-3.4-0.2-5.1-0.6C303.2,258.5,301.6,257.9,300.2,257z"/>
				</g>
				<g>
					<path class="st3" d="M319.6,257c1.6,0.6,3.2,0.9,4.9,1.2c1.6,0.2,3.3,0.4,5,0.4c1.7,0,3.3,0,5-0.2c1.7-0.2,3.3-0.4,4.9-0.9
						c-1.5,0.8-3.2,1.3-4.8,1.6c-1.7,0.3-3.4,0.4-5.1,0.4c-1.7,0-3.4-0.2-5.1-0.6C322.6,258.5,321,257.9,319.6,257z"/>
				</g>
				<g>
					<path class="st3" d="M339,257c1.6,0.6,3.2,0.9,4.9,1.2c1.6,0.2,3.3,0.4,5,0.4c1.7,0,3.3,0,5-0.2c1.7-0.2,3.3-0.4,4.9-0.9
						c-1.5,0.8-3.2,1.3-4.8,1.6c-1.7,0.3-3.4,0.4-5.1,0.4c-1.7,0-3.4-0.2-5.1-0.6C342,258.5,340.4,257.9,339,257z"/>
				</g>
			</g>
			<g>
				<g>
					<path class="st3" d="M86.8,278.2c1.6,0.6,3.2,0.9,4.9,1.2c1.6,0.2,3.3,0.4,5,0.4c1.7,0,3.3,0,5-0.2c1.7-0.2,3.3-0.4,4.9-0.9
						c-1.5,0.8-3.2,1.3-4.8,1.6c-1.7,0.3-3.4,0.4-5.1,0.4c-1.7,0-3.4-0.2-5.1-0.6C89.9,279.7,88.2,279.1,86.8,278.2z"/>
				</g>
				<g>
					<path class="st3" d="M106.2,278.2c1.6,0.6,3.2,0.9,4.9,1.2c1.6,0.2,3.3,0.4,5,0.4c1.7,0,3.3,0,5-0.2c1.7-0.2,3.3-0.4,4.9-0.9
						c-1.5,0.8-3.2,1.3-4.8,1.6c-1.7,0.3-3.4,0.4-5.1,0.4c-1.7,0-3.4-0.2-5.1-0.6C109.3,279.7,107.6,279.1,106.2,278.2z"/>
				</g>
				<g>
					<path class="st3" d="M125.6,278.2c1.6,0.6,3.2,0.9,4.9,1.2c1.6,0.2,3.3,0.4,5,0.4c1.7,0,3.3,0,5-0.2c1.7-0.2,3.3-0.4,4.9-0.9
						c-1.5,0.8-3.2,1.3-4.8,1.6c-1.7,0.3-3.4,0.4-5.1,0.4c-1.7,0-3.4-0.2-5.1-0.6C128.7,279.7,127,279.1,125.6,278.2z"/>
				</g>
				<g>
					<path class="st3" d="M145,278.2c1.6,0.6,3.2,0.9,4.9,1.2c1.6,0.2,3.3,0.4,5,0.4c1.7,0,3.3,0,5-0.2c1.7-0.2,3.3-0.4,4.9-0.9
						c-1.5,0.8-3.2,1.3-4.8,1.6c-1.7,0.3-3.4,0.4-5.1,0.4c-1.7,0-3.4-0.2-5.1-0.6C148.1,279.7,146.4,279.1,145,278.2z"/>
				</g>
				<g>
					<path class="st3" d="M164.4,278.2c1.6,0.6,3.2,0.9,4.9,1.2c1.6,0.2,3.3,0.4,5,0.4c1.7,0,3.3,0,5-0.2c1.7-0.2,3.3-0.4,4.9-0.9
						c-1.5,0.8-3.2,1.3-4.8,1.6c-1.7,0.3-3.4,0.4-5.1,0.4c-1.7,0-3.4-0.2-5.1-0.6C167.5,279.7,165.8,279.1,164.4,278.2z"/>
				</g>
				<g>
					<path class="st3" d="M183.8,278.2c1.6,0.6,3.2,0.9,4.9,1.2c1.6,0.2,3.3,0.4,5,0.4c1.7,0,3.3,0,5-0.2c1.7-0.2,3.3-0.4,4.9-0.9
						c-1.5,0.8-3.2,1.3-4.8,1.6c-1.7,0.3-3.4,0.4-5.1,0.4c-1.7,0-3.4-0.2-5.1-0.6C186.9,279.7,185.2,279.1,183.8,278.2z"/>
				</g>
				<g>
					<path class="st3" d="M203.2,278.2c1.6,0.6,3.2,0.9,4.9,1.2c1.6,0.2,3.3,0.4,5,0.4c1.7,0,3.3,0,5-0.2c1.7-0.2,3.3-0.4,4.9-0.9
						c-1.5,0.8-3.2,1.3-4.8,1.6c-1.7,0.3-3.4,0.4-5.1,0.4c-1.7,0-3.4-0.2-5.1-0.6C206.3,279.7,204.6,279.1,203.2,278.2z"/>
				</g>
				<g>
					<path class="st3" d="M222.6,278.2c1.6,0.6,3.2,0.9,4.9,1.2c1.6,0.2,3.3,0.4,5,0.4c1.7,0,3.3,0,5-0.2c1.7-0.2,3.3-0.4,4.9-0.9
						c-1.5,0.8-3.2,1.3-4.8,1.6c-1.7,0.3-3.4,0.4-5.1,0.4c-1.7,0-3.4-0.2-5.1-0.6C225.6,279.7,224,279.1,222.6,278.2z"/>
				</g>
				<g>
					<path class="st3" d="M242,278.2c1.6,0.6,3.2,0.9,4.9,1.2c1.6,0.2,3.3,0.4,5,0.4c1.7,0,3.3,0,5-0.2c1.7-0.2,3.3-0.4,4.9-0.9
						c-1.5,0.8-3.2,1.3-4.8,1.6c-1.7,0.3-3.4,0.4-5.1,0.4c-1.7,0-3.4-0.2-5.1-0.6C245,279.7,243.4,279.1,242,278.2z"/>
				</g>
				<g>
					<path class="st3" d="M261.4,278.2c1.6,0.6,3.2,0.9,4.9,1.2c1.6,0.2,3.3,0.4,5,0.4c1.7,0,3.3,0,5-0.2c1.7-0.2,3.3-0.4,4.9-0.9
						c-1.5,0.8-3.2,1.3-4.8,1.6c-1.7,0.3-3.4,0.4-5.1,0.4c-1.7,0-3.4-0.2-5.1-0.6C264.4,279.7,262.8,279.1,261.4,278.2z"/>
				</g>
				<g>
					<path class="st3" d="M280.8,278.2c1.6,0.6,3.2,0.9,4.9,1.2c1.6,0.2,3.3,0.4,5,0.4c1.7,0,3.3,0,5-0.2c1.7-0.2,3.3-0.4,4.9-0.9
						c-1.5,0.8-3.2,1.3-4.8,1.6c-1.7,0.3-3.4,0.4-5.1,0.4c-1.7,0-3.4-0.2-5.1-0.6C283.8,279.7,282.2,279.1,280.8,278.2z"/>
				</g>
				<g>
					<path class="st3" d="M300.2,278.2c1.6,0.6,3.2,0.9,4.9,1.2c1.6,0.2,3.3,0.4,5,0.4c1.7,0,3.3,0,5-0.2c1.7-0.2,3.3-0.4,4.9-0.9
						c-1.5,0.8-3.2,1.3-4.8,1.6c-1.7,0.3-3.4,0.4-5.1,0.4c-1.7,0-3.4-0.2-5.1-0.6C303.2,279.7,301.6,279.1,300.2,278.2z"/>
				</g>
				<g>
					<path class="st3" d="M319.6,278.2c1.6,0.6,3.2,0.9,4.9,1.2c1.6,0.2,3.3,0.4,5,0.4c1.7,0,3.3,0,5-0.2c1.7-0.2,3.3-0.4,4.9-0.9
						c-1.5,0.8-3.2,1.3-4.8,1.6c-1.7,0.3-3.4,0.4-5.1,0.4c-1.7,0-3.4-0.2-5.1-0.6C322.6,279.7,321,279.1,319.6,278.2z"/>
				</g>
				<g>
					<path class="st3" d="M339,278.2c1.6,0.6,3.2,0.9,4.9,1.2c1.6,0.2,3.3,0.4,5,0.4c1.7,0,3.3,0,5-0.2c1.7-0.2,3.3-0.4,4.9-0.9
						c-1.5,0.8-3.2,1.3-4.8,1.6c-1.7,0.3-3.4,0.4-5.1,0.4c-1.7,0-3.4-0.2-5.1-0.6C342,279.7,340.4,279.1,339,278.2z"/>
				</g>
			</g>
			<g>
				<g>
					<path class="st3" d="M72.2,288.8c1.6,0.6,3.2,0.9,4.9,1.2c1.6,0.2,3.3,0.4,5,0.4c1.7,0,3.3,0,5-0.2c1.7-0.2,3.3-0.4,4.9-0.9
						c-1.5,0.8-3.2,1.3-4.8,1.6c-1.7,0.3-3.4,0.4-5.1,0.4c-1.7,0-3.4-0.2-5.1-0.6C75.2,290.4,73.6,289.8,72.2,288.8z"/>
				</g>
				<g>
					<path class="st3" d="M91.6,288.8c1.6,0.6,3.2,0.9,4.9,1.2c1.6,0.2,3.3,0.4,5,0.4c1.7,0,3.3,0,5-0.2c1.7-0.2,3.3-0.4,4.9-0.9
						c-1.5,0.8-3.2,1.3-4.8,1.6c-1.7,0.3-3.4,0.4-5.1,0.4c-1.7,0-3.4-0.2-5.1-0.6C94.6,290.4,93,289.8,91.6,288.8z"/>
				</g>
				<g>
					<path class="st3" d="M111,288.8c1.6,0.6,3.2,0.9,4.9,1.2c1.6,0.2,3.3,0.4,5,0.4c1.7,0,3.3,0,5-0.2c1.7-0.2,3.3-0.4,4.9-0.9
						c-1.5,0.8-3.2,1.3-4.8,1.6c-1.7,0.3-3.4,0.4-5.1,0.4c-1.7,0-3.4-0.2-5.1-0.6C114,290.4,112.4,289.8,111,288.8z"/>
				</g>
				<g>
					<path class="st3" d="M130.4,288.8c1.6,0.6,3.2,0.9,4.9,1.2c1.6,0.2,3.3,0.4,5,0.4c1.7,0,3.3,0,5-0.2c1.7-0.2,3.3-0.4,4.9-0.9
						c-1.5,0.8-3.2,1.3-4.8,1.6c-1.7,0.3-3.4,0.4-5.1,0.4c-1.7,0-3.4-0.2-5.1-0.6C133.4,290.4,131.8,289.8,130.4,288.8z"/>
				</g>
				<g>
					<path class="st3" d="M149.8,288.8c1.6,0.6,3.2,0.9,4.9,1.2c1.6,0.2,3.3,0.4,5,0.4c1.7,0,3.3,0,5-0.2c1.7-0.2,3.3-0.4,4.9-0.9
						c-1.5,0.8-3.2,1.3-4.8,1.6c-1.7,0.3-3.4,0.4-5.1,0.4c-1.7,0-3.4-0.2-5.1-0.6C152.8,290.4,151.2,289.8,149.8,288.8z"/>
				</g>
				<g>
					<path class="st3" d="M169.2,288.8c1.6,0.6,3.2,0.9,4.9,1.2c1.6,0.2,3.3,0.4,5,0.4c1.7,0,3.3,0,5-0.2c1.7-0.2,3.3-0.4,4.9-0.9
						c-1.5,0.8-3.2,1.3-4.8,1.6c-1.7,0.3-3.4,0.4-5.1,0.4c-1.7,0-3.4-0.2-5.1-0.6C172.2,290.4,170.6,289.8,169.2,288.8z"/>
				</g>
				<g>
					<path class="st3" d="M188.6,288.8c1.6,0.6,3.2,0.9,4.9,1.2c1.6,0.2,3.3,0.4,5,0.4c1.7,0,3.3,0,5-0.2c1.7-0.2,3.3-0.4,4.9-0.9
						c-1.5,0.8-3.2,1.3-4.8,1.6c-1.7,0.3-3.4,0.4-5.1,0.4c-1.7,0-3.4-0.2-5.1-0.6C191.6,290.4,190,289.8,188.6,288.8z"/>
				</g>
				<g>
					<path class="st3" d="M208,288.8c1.6,0.6,3.2,0.9,4.9,1.2c1.6,0.2,3.3,0.4,5,0.4c1.7,0,3.3,0,5-0.2c1.7-0.2,3.3-0.4,4.9-0.9
						c-1.5,0.8-3.2,1.3-4.8,1.6c-1.7,0.3-3.4,0.4-5.1,0.4c-1.7,0-3.4-0.2-5.1-0.6C211,290.4,209.4,289.8,208,288.8z"/>
				</g>
				<g>
					<path class="st3" d="M227.4,288.8c1.6,0.6,3.2,0.9,4.9,1.2c1.6,0.2,3.3,0.4,5,0.4c1.7,0,3.3,0,5-0.2c1.7-0.2,3.3-0.4,4.9-0.9
						c-1.5,0.8-3.2,1.3-4.8,1.6c-1.7,0.3-3.4,0.4-5.1,0.4c-1.7,0-3.4-0.2-5.1-0.6C230.4,290.4,228.8,289.8,227.4,288.8z"/>
				</g>
				<g>
					<path class="st3" d="M246.8,288.8c1.6,0.6,3.2,0.9,4.9,1.2c1.6,0.2,3.3,0.4,5,0.4c1.7,0,3.3,0,5-0.2c1.7-0.2,3.3-0.4,4.9-0.9
						c-1.5,0.8-3.2,1.3-4.8,1.6c-1.7,0.3-3.4,0.4-5.1,0.4c-1.7,0-3.4-0.2-5.1-0.6C249.8,290.4,248.2,289.8,246.8,288.8z"/>
				</g>
				<g>
					<path class="st3" d="M266.1,288.8c1.6,0.6,3.2,0.9,4.9,1.2c1.6,0.2,3.3,0.4,5,0.4c1.7,0,3.3,0,5-0.2c1.7-0.2,3.3-0.4,4.9-0.9
						c-1.5,0.8-3.2,1.3-4.8,1.6c-1.7,0.3-3.4,0.4-5.1,0.4c-1.7,0-3.4-0.2-5.1-0.6C269.2,290.4,267.6,289.8,266.1,288.8z"/>
				</g>
				<g>
					<path class="st3" d="M285.5,288.8c1.6,0.6,3.2,0.9,4.9,1.2c1.6,0.2,3.3,0.4,5,0.4c1.7,0,3.3,0,5-0.2c1.7-0.2,3.3-0.4,4.9-0.9
						c-1.5,0.8-3.2,1.3-4.8,1.6c-1.7,0.3-3.4,0.4-5.1,0.4c-1.7,0-3.4-0.2-5.1-0.6C288.6,290.4,287,289.8,285.5,288.8z"/>
				</g>
				<g>
					<path class="st3" d="M304.9,288.8c1.6,0.6,3.2,0.9,4.9,1.2c1.6,0.2,3.3,0.4,5,0.4c1.7,0,3.3,0,5-0.2c1.7-0.2,3.3-0.4,4.9-0.9
						c-1.5,0.8-3.2,1.3-4.8,1.6c-1.7,0.3-3.4,0.4-5.1,0.4c-1.7,0-3.4-0.2-5.1-0.6C308,290.4,306.4,289.8,304.9,288.8z"/>
				</g>
				<g>
					<path class="st3" d="M324.3,288.8c1.6,0.6,3.2,0.9,4.9,1.2c1.6,0.2,3.3,0.4,5,0.4c1.7,0,3.3,0,5-0.2c1.7-0.2,3.3-0.4,4.9-0.9
						c-1.5,0.8-3.2,1.3-4.8,1.6c-1.7,0.3-3.4,0.4-5.1,0.4c-1.7,0-3.4-0.2-5.1-0.6C327.4,290.4,325.8,289.8,324.3,288.8z"/>
				</g>
			</g>
			<g>
				<g>
					<path class="st3" d="M86.8,299.5c1.6,0.6,3.2,0.9,4.9,1.2c1.6,0.2,3.3,0.4,5,0.4c1.7,0,3.3,0,5-0.2c1.7-0.2,3.3-0.4,4.9-0.9
						c-1.5,0.8-3.2,1.3-4.8,1.6c-1.7,0.3-3.4,0.4-5.1,0.4c-1.7,0-3.4-0.2-5.1-0.6C89.9,301,88.2,300.4,86.8,299.5z"/>
				</g>
				<g>
					<path class="st3" d="M106.2,299.5c1.6,0.6,3.2,0.9,4.9,1.2c1.6,0.2,3.3,0.4,5,0.4c1.7,0,3.3,0,5-0.2c1.7-0.2,3.3-0.4,4.9-0.9
						c-1.5,0.8-3.2,1.3-4.8,1.6c-1.7,0.3-3.4,0.4-5.1,0.4c-1.7,0-3.4-0.2-5.1-0.6C109.3,301,107.6,300.4,106.2,299.5z"/>
				</g>
				<g>
					<path class="st3" d="M125.6,299.5c1.6,0.6,3.2,0.9,4.9,1.2c1.6,0.2,3.3,0.4,5,0.4c1.7,0,3.3,0,5-0.2c1.7-0.2,3.3-0.4,4.9-0.9
						c-1.5,0.8-3.2,1.3-4.8,1.6c-1.7,0.3-3.4,0.4-5.1,0.4c-1.7,0-3.4-0.2-5.1-0.6C128.7,301,127,300.4,125.6,299.5z"/>
				</g>
				<g>
					<path class="st3" d="M145,299.5c1.6,0.6,3.2,0.9,4.9,1.2c1.6,0.2,3.3,0.4,5,0.4c1.7,0,3.3,0,5-0.2c1.7-0.2,3.3-0.4,4.9-0.9
						c-1.5,0.8-3.2,1.3-4.8,1.6c-1.7,0.3-3.4,0.4-5.1,0.4c-1.7,0-3.4-0.2-5.1-0.6C148.1,301,146.4,300.4,145,299.5z"/>
				</g>
				<g>
					<path class="st3" d="M164.4,299.5c1.6,0.6,3.2,0.9,4.9,1.2c1.6,0.2,3.3,0.4,5,0.4c1.7,0,3.3,0,5-0.2c1.7-0.2,3.3-0.4,4.9-0.9
						c-1.5,0.8-3.2,1.3-4.8,1.6c-1.7,0.3-3.4,0.4-5.1,0.4c-1.7,0-3.4-0.2-5.1-0.6C167.5,301,165.8,300.4,164.4,299.5z"/>
				</g>
				<g>
					<path class="st3" d="M183.8,299.5c1.6,0.6,3.2,0.9,4.9,1.2c1.6,0.2,3.3,0.4,5,0.4c1.7,0,3.3,0,5-0.2c1.7-0.2,3.3-0.4,4.9-0.9
						c-1.5,0.8-3.2,1.3-4.8,1.6c-1.7,0.3-3.4,0.4-5.1,0.4c-1.7,0-3.4-0.2-5.1-0.6C186.9,301,185.2,300.4,183.8,299.5z"/>
				</g>
				<g>
					<path class="st3" d="M203.2,299.5c1.6,0.6,3.2,0.9,4.9,1.2c1.6,0.2,3.3,0.4,5,0.4c1.7,0,3.3,0,5-0.2c1.7-0.2,3.3-0.4,4.9-0.9
						c-1.5,0.8-3.2,1.3-4.8,1.6c-1.7,0.3-3.4,0.4-5.1,0.4c-1.7,0-3.4-0.2-5.1-0.6C206.3,301,204.6,300.4,203.2,299.5z"/>
				</g>
				<g>
					<path class="st3" d="M222.6,299.5c1.6,0.6,3.2,0.9,4.9,1.2c1.6,0.2,3.3,0.4,5,0.4c1.7,0,3.3,0,5-0.2c1.7-0.2,3.3-0.4,4.9-0.9
						c-1.5,0.8-3.2,1.3-4.8,1.6c-1.7,0.3-3.4,0.4-5.1,0.4c-1.7,0-3.4-0.2-5.1-0.6C225.6,301,224,300.4,222.6,299.5z"/>
				</g>
				<g>
					<path class="st3" d="M242,299.5c1.6,0.6,3.2,0.9,4.9,1.2c1.6,0.2,3.3,0.4,5,0.4c1.7,0,3.3,0,5-0.2c1.7-0.2,3.3-0.4,4.9-0.9
						c-1.5,0.8-3.2,1.3-4.8,1.6c-1.7,0.3-3.4,0.4-5.1,0.4c-1.7,0-3.4-0.2-5.1-0.6C245,301,243.4,300.4,242,299.5z"/>
				</g>
				<g>
					<path class="st3" d="M261.4,299.5c1.6,0.6,3.2,0.9,4.9,1.2c1.6,0.2,3.3,0.4,5,0.4c1.7,0,3.3,0,5-0.2c1.7-0.2,3.3-0.4,4.9-0.9
						c-1.5,0.8-3.2,1.3-4.8,1.6c-1.7,0.3-3.4,0.4-5.1,0.4c-1.7,0-3.4-0.2-5.1-0.6C264.4,301,262.8,300.4,261.4,299.5z"/>
				</g>
				<g>
					<path class="st3" d="M280.8,299.5c1.6,0.6,3.2,0.9,4.9,1.2c1.6,0.2,3.3,0.4,5,0.4c1.7,0,3.3,0,5-0.2c1.7-0.2,3.3-0.4,4.9-0.9
						c-1.5,0.8-3.2,1.3-4.8,1.6c-1.7,0.3-3.4,0.4-5.1,0.4c-1.7,0-3.4-0.2-5.1-0.6C283.8,301,282.2,300.4,280.8,299.5z"/>
				</g>
				<g>
					<path class="st3" d="M300.2,299.5c1.6,0.6,3.2,0.9,4.9,1.2c1.6,0.2,3.3,0.4,5,0.4c1.7,0,3.3,0,5-0.2c1.7-0.2,3.3-0.4,4.9-0.9
						c-1.5,0.8-3.2,1.3-4.8,1.6c-1.7,0.3-3.4,0.4-5.1,0.4c-1.7,0-3.4-0.2-5.1-0.6C303.2,301,301.6,300.4,300.2,299.5z"/>
				</g>
				<g>
					<path class="st3" d="M319.6,299.5c1.6,0.6,3.2,0.9,4.9,1.2c1.6,0.2,3.3,0.4,5,0.4c1.7,0,3.3,0,5-0.2c1.7-0.2,3.3-0.4,4.9-0.9
						c-1.5,0.8-3.2,1.3-4.8,1.6c-1.7,0.3-3.4,0.4-5.1,0.4c-1.7,0-3.4-0.2-5.1-0.6C322.6,301,321,300.4,319.6,299.5z"/>
				</g>
				<g>
					<path class="st3" d="M339,299.5c1.6,0.6,3.2,0.9,4.9,1.2c1.6,0.2,3.3,0.4,5,0.4c1.7,0,3.3,0,5-0.2c1.7-0.2,3.3-0.4,4.9-0.9
						c-1.5,0.8-3.2,1.3-4.8,1.6c-1.7,0.3-3.4,0.4-5.1,0.4c-1.7,0-3.4-0.2-5.1-0.6C342,301,340.4,300.4,339,299.5z"/>
				</g>
			</g>
			<g>
				<g>
					<path class="st3" d="M72.2,193.2c1.6,0.6,3.2,0.9,4.9,1.2c1.6,0.2,3.3,0.4,5,0.4c1.7,0,3.3,0,5-0.2c1.7-0.2,3.3-0.4,4.9-0.9
						c-1.5,0.8-3.2,1.3-4.8,1.6c-1.7,0.3-3.4,0.4-5.1,0.4c-1.7,0-3.4-0.2-5.1-0.6C75.2,194.7,73.6,194.1,72.2,193.2z"/>
				</g>
				<g>
					<path class="st3" d="M91.6,193.2c1.6,0.6,3.2,0.9,4.9,1.2c1.6,0.2,3.3,0.4,5,0.4c1.7,0,3.3,0,5-0.2c1.7-0.2,3.3-0.4,4.9-0.9
						c-1.5,0.8-3.2,1.3-4.8,1.6c-1.7,0.3-3.4,0.4-5.1,0.4c-1.7,0-3.4-0.2-5.1-0.6C94.6,194.7,93,194.1,91.6,193.2z"/>
				</g>
				<g>
					<path class="st3" d="M111,193.2c1.6,0.6,3.2,0.9,4.9,1.2c1.6,0.2,3.3,0.4,5,0.4c1.7,0,3.3,0,5-0.2c1.7-0.2,3.3-0.4,4.9-0.9
						c-1.5,0.8-3.2,1.3-4.8,1.6c-1.7,0.3-3.4,0.4-5.1,0.4c-1.7,0-3.4-0.2-5.1-0.6C114,194.7,112.4,194.1,111,193.2z"/>
				</g>
				<g>
					<path class="st3" d="M130.4,193.2c1.6,0.6,3.2,0.9,4.9,1.2c1.6,0.2,3.3,0.4,5,0.4c1.7,0,3.3,0,5-0.2c1.7-0.2,3.3-0.4,4.9-0.9
						c-1.5,0.8-3.2,1.3-4.8,1.6c-1.7,0.3-3.4,0.4-5.1,0.4c-1.7,0-3.4-0.2-5.1-0.6C133.4,194.7,131.8,194.1,130.4,193.2z"/>
				</g>
				<g>
					<path class="st3" d="M149.8,193.2c1.6,0.6,3.2,0.9,4.9,1.2c1.6,0.2,3.3,0.4,5,0.4c1.7,0,3.3,0,5-0.2c1.7-0.2,3.3-0.4,4.9-0.9
						c-1.5,0.8-3.2,1.3-4.8,1.6c-1.7,0.3-3.4,0.4-5.1,0.4c-1.7,0-3.4-0.2-5.1-0.6C152.8,194.7,151.2,194.1,149.8,193.2z"/>
				</g>
				<g>
					<path class="st3" d="M169.2,193.2c1.6,0.6,3.2,0.9,4.9,1.2c1.6,0.2,3.3,0.4,5,0.4c1.7,0,3.3,0,5-0.2c1.7-0.2,3.3-0.4,4.9-0.9
						c-1.5,0.8-3.2,1.3-4.8,1.6c-1.7,0.3-3.4,0.4-5.1,0.4c-1.7,0-3.4-0.2-5.1-0.6C172.2,194.7,170.6,194.1,169.2,193.2z"/>
				</g>
				<g>
					<path class="st3" d="M188.6,193.2c1.6,0.6,3.2,0.9,4.9,1.2c1.6,0.2,3.3,0.4,5,0.4c1.7,0,3.3,0,5-0.2c1.7-0.2,3.3-0.4,4.9-0.9
						c-1.5,0.8-3.2,1.3-4.8,1.6c-1.7,0.3-3.4,0.4-5.1,0.4c-1.7,0-3.4-0.2-5.1-0.6C191.6,194.7,190,194.1,188.6,193.2z"/>
				</g>
				<g>
					<path class="st3" d="M208,193.2c1.6,0.6,3.2,0.9,4.9,1.2c1.6,0.2,3.3,0.4,5,0.4c1.7,0,3.3,0,5-0.2c1.7-0.2,3.3-0.4,4.9-0.9
						c-1.5,0.8-3.2,1.3-4.8,1.6c-1.7,0.3-3.4,0.4-5.1,0.4c-1.7,0-3.4-0.2-5.1-0.6C211,194.7,209.4,194.1,208,193.2z"/>
				</g>
				<g>
					<path class="st3" d="M227.4,193.2c1.6,0.6,3.2,0.9,4.9,1.2c1.6,0.2,3.3,0.4,5,0.4c1.7,0,3.3,0,5-0.2c1.7-0.2,3.3-0.4,4.9-0.9
						c-1.5,0.8-3.2,1.3-4.8,1.6c-1.7,0.3-3.4,0.4-5.1,0.4c-1.7,0-3.4-0.2-5.1-0.6C230.4,194.7,228.8,194.1,227.4,193.2z"/>
				</g>
				<g>
					<path class="st3" d="M246.8,193.2c1.6,0.6,3.2,0.9,4.9,1.2c1.6,0.2,3.3,0.4,5,0.4c1.7,0,3.3,0,5-0.2c1.7-0.2,3.3-0.4,4.9-0.9
						c-1.5,0.8-3.2,1.3-4.8,1.6c-1.7,0.3-3.4,0.4-5.1,0.4c-1.7,0-3.4-0.2-5.1-0.6C249.8,194.7,248.2,194.1,246.8,193.2z"/>
				</g>
				<g>
					<path class="st3" d="M266.1,193.2c1.6,0.6,3.2,0.9,4.9,1.2c1.6,0.2,3.3,0.4,5,0.4c1.7,0,3.3,0,5-0.2c1.7-0.2,3.3-0.4,4.9-0.9
						c-1.5,0.8-3.2,1.3-4.8,1.6c-1.7,0.3-3.4,0.4-5.1,0.4c-1.7,0-3.4-0.2-5.1-0.6C269.2,194.7,267.6,194.1,266.1,193.2z"/>
				</g>
				<g>
					<path class="st3" d="M285.5,193.2c1.6,0.6,3.2,0.9,4.9,1.2c1.6,0.2,3.3,0.4,5,0.4c1.7,0,3.3,0,5-0.2c1.7-0.2,3.3-0.4,4.9-0.9
						c-1.5,0.8-3.2,1.3-4.8,1.6c-1.7,0.3-3.4,0.4-5.1,0.4c-1.7,0-3.4-0.2-5.1-0.6C288.6,194.7,287,194.1,285.5,193.2z"/>
				</g>
				<g>
					<path class="st3" d="M304.9,193.2c1.6,0.6,3.2,0.9,4.9,1.2c1.6,0.2,3.3,0.4,5,0.4c1.7,0,3.3,0,5-0.2c1.7-0.2,3.3-0.4,4.9-0.9
						c-1.5,0.8-3.2,1.3-4.8,1.6c-1.7,0.3-3.4,0.4-5.1,0.4c-1.7,0-3.4-0.2-5.1-0.6C308,194.7,306.4,194.1,304.9,193.2z"/>
				</g>
				<g>
					<path class="st3" d="M324.3,193.2c1.6,0.6,3.2,0.9,4.9,1.2c1.6,0.2,3.3,0.4,5,0.4c1.7,0,3.3,0,5-0.2c1.7-0.2,3.3-0.4,4.9-0.9
						c-1.5,0.8-3.2,1.3-4.8,1.6c-1.7,0.3-3.4,0.4-5.1,0.4c-1.7,0-3.4-0.2-5.1-0.6C327.4,194.7,325.8,194.1,324.3,193.2z"/>
				</g>
			</g>
			<g>
				<g>
					<path class="st3" d="M86.8,182.5c1.6,0.6,3.2,0.9,4.9,1.2c1.6,0.2,3.3,0.4,5,0.4c1.7,0,3.3,0,5-0.2c1.7-0.2,3.3-0.4,4.9-0.9
						c-1.5,0.8-3.2,1.3-4.8,1.6c-1.7,0.3-3.4,0.4-5.1,0.4c-1.7,0-3.4-0.2-5.1-0.6C89.9,184.1,88.2,183.5,86.8,182.5z"/>
				</g>
				<g>
					<path class="st3" d="M106.2,182.5c1.6,0.6,3.2,0.9,4.9,1.2c1.6,0.2,3.3,0.4,5,0.4c1.7,0,3.3,0,5-0.2c1.7-0.2,3.3-0.4,4.9-0.9
						c-1.5,0.8-3.2,1.3-4.8,1.6c-1.7,0.3-3.4,0.4-5.1,0.4c-1.7,0-3.4-0.2-5.1-0.6C109.3,184.1,107.6,183.5,106.2,182.5z"/>
				</g>
				<g>
					<path class="st3" d="M125.6,182.5c1.6,0.6,3.2,0.9,4.9,1.2c1.6,0.2,3.3,0.4,5,0.4c1.7,0,3.3,0,5-0.2c1.7-0.2,3.3-0.4,4.9-0.9
						c-1.5,0.8-3.2,1.3-4.8,1.6c-1.7,0.3-3.4,0.4-5.1,0.4c-1.7,0-3.4-0.2-5.1-0.6C128.7,184.1,127,183.5,125.6,182.5z"/>
				</g>
				<g>
					<path class="st3" d="M145,182.5c1.6,0.6,3.2,0.9,4.9,1.2c1.6,0.2,3.3,0.4,5,0.4c1.7,0,3.3,0,5-0.2c1.7-0.2,3.3-0.4,4.9-0.9
						c-1.5,0.8-3.2,1.3-4.8,1.6c-1.7,0.3-3.4,0.4-5.1,0.4c-1.7,0-3.4-0.2-5.1-0.6C148.1,184.1,146.4,183.5,145,182.5z"/>
				</g>
				<g>
					<path class="st3" d="M164.4,182.5c1.6,0.6,3.2,0.9,4.9,1.2c1.6,0.2,3.3,0.4,5,0.4c1.7,0,3.3,0,5-0.2c1.7-0.2,3.3-0.4,4.9-0.9
						c-1.5,0.8-3.2,1.3-4.8,1.6c-1.7,0.3-3.4,0.4-5.1,0.4c-1.7,0-3.4-0.2-5.1-0.6C167.5,184.1,165.8,183.5,164.4,182.5z"/>
				</g>
				<g>
					<path class="st3" d="M183.8,182.5c1.6,0.6,3.2,0.9,4.9,1.2c1.6,0.2,3.3,0.4,5,0.4c1.7,0,3.3,0,5-0.2c1.7-0.2,3.3-0.4,4.9-0.9
						c-1.5,0.8-3.2,1.3-4.8,1.6c-1.7,0.3-3.4,0.4-5.1,0.4c-1.7,0-3.4-0.2-5.1-0.6C186.9,184.1,185.2,183.5,183.8,182.5z"/>
				</g>
				<g>
					<path class="st3" d="M203.2,182.5c1.6,0.6,3.2,0.9,4.9,1.2c1.6,0.2,3.3,0.4,5,0.4c1.7,0,3.3,0,5-0.2c1.7-0.2,3.3-0.4,4.9-0.9
						c-1.5,0.8-3.2,1.3-4.8,1.6c-1.7,0.3-3.4,0.4-5.1,0.4c-1.7,0-3.4-0.2-5.1-0.6C206.3,184.1,204.6,183.5,203.2,182.5z"/>
				</g>
				<g>
					<path class="st3" d="M222.6,182.5c1.6,0.6,3.2,0.9,4.9,1.2c1.6,0.2,3.3,0.4,5,0.4c1.7,0,3.3,0,5-0.2c1.7-0.2,3.3-0.4,4.9-0.9
						c-1.5,0.8-3.2,1.3-4.8,1.6c-1.7,0.3-3.4,0.4-5.1,0.4c-1.7,0-3.4-0.2-5.1-0.6C225.6,184.1,224,183.5,222.6,182.5z"/>
				</g>
				<g>
					<path class="st3" d="M242,182.5c1.6,0.6,3.2,0.9,4.9,1.2c1.6,0.2,3.3,0.4,5,0.4c1.7,0,3.3,0,5-0.2c1.7-0.2,3.3-0.4,4.9-0.9
						c-1.5,0.8-3.2,1.3-4.8,1.6c-1.7,0.3-3.4,0.4-5.1,0.4c-1.7,0-3.4-0.2-5.1-0.6C245,184.1,243.4,183.5,242,182.5z"/>
				</g>
				<g>
					<path class="st3" d="M261.4,182.5c1.6,0.6,3.2,0.9,4.9,1.2c1.6,0.2,3.3,0.4,5,0.4c1.7,0,3.3,0,5-0.2c1.7-0.2,3.3-0.4,4.9-0.9
						c-1.5,0.8-3.2,1.3-4.8,1.6c-1.7,0.3-3.4,0.4-5.1,0.4c-1.7,0-3.4-0.2-5.1-0.6C264.4,184.1,262.8,183.5,261.4,182.5z"/>
				</g>
				<g>
					<path class="st3" d="M280.8,182.5c1.6,0.6,3.2,0.9,4.9,1.2c1.6,0.2,3.3,0.4,5,0.4c1.7,0,3.3,0,5-0.2c1.7-0.2,3.3-0.4,4.9-0.9
						c-1.5,0.8-3.2,1.3-4.8,1.6c-1.7,0.3-3.4,0.4-5.1,0.4c-1.7,0-3.4-0.2-5.1-0.6C283.8,184.1,282.2,183.5,280.8,182.5z"/>
				</g>
				<g>
					<path class="st3" d="M300.2,182.5c1.6,0.6,3.2,0.9,4.9,1.2c1.6,0.2,3.3,0.4,5,0.4c1.7,0,3.3,0,5-0.2c1.7-0.2,3.3-0.4,4.9-0.9
						c-1.5,0.8-3.2,1.3-4.8,1.6c-1.7,0.3-3.4,0.4-5.1,0.4c-1.7,0-3.4-0.2-5.1-0.6C303.2,184.1,301.6,183.5,300.2,182.5z"/>
				</g>
				<g>
					<path class="st3" d="M319.6,182.5c1.6,0.6,3.2,0.9,4.9,1.2c1.6,0.2,3.3,0.4,5,0.4c1.7,0,3.3,0,5-0.2c1.7-0.2,3.3-0.4,4.9-0.9
						c-1.5,0.8-3.2,1.3-4.8,1.6c-1.7,0.3-3.4,0.4-5.1,0.4c-1.7,0-3.4-0.2-5.1-0.6C322.6,184.1,321,183.5,319.6,182.5z"/>
				</g>
				<g>
					<path class="st3" d="M339,182.5c1.6,0.6,3.2,0.9,4.9,1.2c1.6,0.2,3.3,0.4,5,0.4c1.7,0,3.3,0,5-0.2c1.7-0.2,3.3-0.4,4.9-0.9
						c-1.5,0.8-3.2,1.3-4.8,1.6c-1.7,0.3-3.4,0.4-5.1,0.4c-1.7,0-3.4-0.2-5.1-0.6C342,184.1,340.4,183.5,339,182.5z"/>
				</g>
			</g>
			<g>
				<g>
					<path class="st3" d="M86.8,203.8c1.6,0.6,3.2,0.9,4.9,1.2c1.6,0.2,3.3,0.4,5,0.4c1.7,0,3.3,0,5-0.2c1.7-0.2,3.3-0.4,4.9-0.9
						c-1.5,0.8-3.2,1.3-4.8,1.6c-1.7,0.3-3.4,0.4-5.1,0.4c-1.7,0-3.4-0.2-5.1-0.6C89.9,205.3,88.2,204.7,86.8,203.8z"/>
				</g>
				<g>
					<path class="st3" d="M106.2,203.8c1.6,0.6,3.2,0.9,4.9,1.2c1.6,0.2,3.3,0.4,5,0.4c1.7,0,3.3,0,5-0.2c1.7-0.2,3.3-0.4,4.9-0.9
						c-1.5,0.8-3.2,1.3-4.8,1.6c-1.7,0.3-3.4,0.4-5.1,0.4c-1.7,0-3.4-0.2-5.1-0.6C109.3,205.3,107.6,204.7,106.2,203.8z"/>
				</g>
				<g>
					<path class="st3" d="M125.6,203.8c1.6,0.6,3.2,0.9,4.9,1.2c1.6,0.2,3.3,0.4,5,0.4c1.7,0,3.3,0,5-0.2c1.7-0.2,3.3-0.4,4.9-0.9
						c-1.5,0.8-3.2,1.3-4.8,1.6c-1.7,0.3-3.4,0.4-5.1,0.4c-1.7,0-3.4-0.2-5.1-0.6C128.7,205.3,127,204.7,125.6,203.8z"/>
				</g>
				<g>
					<path class="st3" d="M145,203.8c1.6,0.6,3.2,0.9,4.9,1.2c1.6,0.2,3.3,0.4,5,0.4c1.7,0,3.3,0,5-0.2c1.7-0.2,3.3-0.4,4.9-0.9
						c-1.5,0.8-3.2,1.3-4.8,1.6c-1.7,0.3-3.4,0.4-5.1,0.4c-1.7,0-3.4-0.2-5.1-0.6C148.1,205.3,146.4,204.7,145,203.8z"/>
				</g>
				<g>
					<path class="st3" d="M164.4,203.8c1.6,0.6,3.2,0.9,4.9,1.2c1.6,0.2,3.3,0.4,5,0.4c1.7,0,3.3,0,5-0.2c1.7-0.2,3.3-0.4,4.9-0.9
						c-1.5,0.8-3.2,1.3-4.8,1.6c-1.7,0.3-3.4,0.4-5.1,0.4c-1.7,0-3.4-0.2-5.1-0.6C167.5,205.3,165.8,204.7,164.4,203.8z"/>
				</g>
				<g>
					<path class="st3" d="M183.8,203.8c1.6,0.6,3.2,0.9,4.9,1.2c1.6,0.2,3.3,0.4,5,0.4c1.7,0,3.3,0,5-0.2c1.7-0.2,3.3-0.4,4.9-0.9
						c-1.5,0.8-3.2,1.3-4.8,1.6c-1.7,0.3-3.4,0.4-5.1,0.4c-1.7,0-3.4-0.2-5.1-0.6C186.9,205.3,185.2,204.7,183.8,203.8z"/>
				</g>
				<g>
					<path class="st3" d="M203.2,203.8c1.6,0.6,3.2,0.9,4.9,1.2c1.6,0.2,3.3,0.4,5,0.4c1.7,0,3.3,0,5-0.2c1.7-0.2,3.3-0.4,4.9-0.9
						c-1.5,0.8-3.2,1.3-4.8,1.6c-1.7,0.3-3.4,0.4-5.1,0.4c-1.7,0-3.4-0.2-5.1-0.6C206.3,205.3,204.6,204.7,203.2,203.8z"/>
				</g>
				<g>
					<path class="st3" d="M222.6,203.8c1.6,0.6,3.2,0.9,4.9,1.2c1.6,0.2,3.3,0.4,5,0.4c1.7,0,3.3,0,5-0.2c1.7-0.2,3.3-0.4,4.9-0.9
						c-1.5,0.8-3.2,1.3-4.8,1.6c-1.7,0.3-3.4,0.4-5.1,0.4c-1.7,0-3.4-0.2-5.1-0.6C225.6,205.3,224,204.7,222.6,203.8z"/>
				</g>
				<g>
					<path class="st3" d="M242,203.8c1.6,0.6,3.2,0.9,4.9,1.2c1.6,0.2,3.3,0.4,5,0.4c1.7,0,3.3,0,5-0.2c1.7-0.2,3.3-0.4,4.9-0.9
						c-1.5,0.8-3.2,1.3-4.8,1.6c-1.7,0.3-3.4,0.4-5.1,0.4c-1.7,0-3.4-0.2-5.1-0.6C245,205.3,243.4,204.7,242,203.8z"/>
				</g>
				<g>
					<path class="st3" d="M261.4,203.8c1.6,0.6,3.2,0.9,4.9,1.2c1.6,0.2,3.3,0.4,5,0.4c1.7,0,3.3,0,5-0.2c1.7-0.2,3.3-0.4,4.9-0.9
						c-1.5,0.8-3.2,1.3-4.8,1.6c-1.7,0.3-3.4,0.4-5.1,0.4c-1.7,0-3.4-0.2-5.1-0.6C264.4,205.3,262.8,204.7,261.4,203.8z"/>
				</g>
				<g>
					<path class="st3" d="M280.8,203.8c1.6,0.6,3.2,0.9,4.9,1.2c1.6,0.2,3.3,0.4,5,0.4c1.7,0,3.3,0,5-0.2c1.7-0.2,3.3-0.4,4.9-0.9
						c-1.5,0.8-3.2,1.3-4.8,1.6c-1.7,0.3-3.4,0.4-5.1,0.4c-1.7,0-3.4-0.2-5.1-0.6C283.8,205.3,282.2,204.7,280.8,203.8z"/>
				</g>
				<g>
					<path class="st3" d="M300.2,203.8c1.6,0.6,3.2,0.9,4.9,1.2c1.6,0.2,3.3,0.4,5,0.4c1.7,0,3.3,0,5-0.2c1.7-0.2,3.3-0.4,4.9-0.9
						c-1.5,0.8-3.2,1.3-4.8,1.6c-1.7,0.3-3.4,0.4-5.1,0.4c-1.7,0-3.4-0.2-5.1-0.6C303.2,205.3,301.6,204.7,300.2,203.8z"/>
				</g>
				<g>
					<path class="st3" d="M319.6,203.8c1.6,0.6,3.2,0.9,4.9,1.2c1.6,0.2,3.3,0.4,5,0.4c1.7,0,3.3,0,5-0.2c1.7-0.2,3.3-0.4,4.9-0.9
						c-1.5,0.8-3.2,1.3-4.8,1.6c-1.7,0.3-3.4,0.4-5.1,0.4c-1.7,0-3.4-0.2-5.1-0.6C322.6,205.3,321,204.7,319.6,203.8z"/>
				</g>
				<g>
					<path class="st3" d="M339,203.8c1.6,0.6,3.2,0.9,4.9,1.2c1.6,0.2,3.3,0.4,5,0.4c1.7,0,3.3,0,5-0.2c1.7-0.2,3.3-0.4,4.9-0.9
						c-1.5,0.8-3.2,1.3-4.8,1.6c-1.7,0.3-3.4,0.4-5.1,0.4c-1.7,0-3.4-0.2-5.1-0.6C342,205.3,340.4,204.7,339,203.8z"/>
				</g>
			</g>
			<g>
				<g>
					<path class="st3" d="M72.2,214.4c1.6,0.6,3.2,0.9,4.9,1.2c1.6,0.2,3.3,0.4,5,0.4c1.7,0,3.3,0,5-0.2c1.7-0.2,3.3-0.4,4.9-0.9
						c-1.5,0.8-3.2,1.3-4.8,1.6c-1.7,0.3-3.4,0.4-5.1,0.4c-1.7,0-3.4-0.2-5.1-0.6C75.2,216,73.6,215.4,72.2,214.4z"/>
				</g>
				<g>
					<path class="st3" d="M91.6,214.4c1.6,0.6,3.2,0.9,4.9,1.2c1.6,0.2,3.3,0.4,5,0.4c1.7,0,3.3,0,5-0.2c1.7-0.2,3.3-0.4,4.9-0.9
						c-1.5,0.8-3.2,1.3-4.8,1.6c-1.7,0.3-3.4,0.4-5.1,0.4c-1.7,0-3.4-0.2-5.1-0.6C94.6,216,93,215.4,91.6,214.4z"/>
				</g>
				<g>
					<path class="st3" d="M111,214.4c1.6,0.6,3.2,0.9,4.9,1.2c1.6,0.2,3.3,0.4,5,0.4c1.7,0,3.3,0,5-0.2c1.7-0.2,3.3-0.4,4.9-0.9
						c-1.5,0.8-3.2,1.3-4.8,1.6c-1.7,0.3-3.4,0.4-5.1,0.4c-1.7,0-3.4-0.2-5.1-0.6C114,216,112.4,215.4,111,214.4z"/>
				</g>
				<g>
					<path class="st3" d="M130.4,214.4c1.6,0.6,3.2,0.9,4.9,1.2c1.6,0.2,3.3,0.4,5,0.4c1.7,0,3.3,0,5-0.2c1.7-0.2,3.3-0.4,4.9-0.9
						c-1.5,0.8-3.2,1.3-4.8,1.6c-1.7,0.3-3.4,0.4-5.1,0.4c-1.7,0-3.4-0.2-5.1-0.6C133.4,216,131.8,215.4,130.4,214.4z"/>
				</g>
				<g>
					<path class="st3" d="M149.8,214.4c1.6,0.6,3.2,0.9,4.9,1.2c1.6,0.2,3.3,0.4,5,0.4c1.7,0,3.3,0,5-0.2c1.7-0.2,3.3-0.4,4.9-0.9
						c-1.5,0.8-3.2,1.3-4.8,1.6c-1.7,0.3-3.4,0.4-5.1,0.4c-1.7,0-3.4-0.2-5.1-0.6C152.8,216,151.2,215.4,149.8,214.4z"/>
				</g>
				<g>
					<path class="st3" d="M169.2,214.4c1.6,0.6,3.2,0.9,4.9,1.2c1.6,0.2,3.3,0.4,5,0.4c1.7,0,3.3,0,5-0.2c1.7-0.2,3.3-0.4,4.9-0.9
						c-1.5,0.8-3.2,1.3-4.8,1.6c-1.7,0.3-3.4,0.4-5.1,0.4c-1.7,0-3.4-0.2-5.1-0.6C172.2,216,170.6,215.4,169.2,214.4z"/>
				</g>
				<g>
					<path class="st3" d="M188.6,214.4c1.6,0.6,3.2,0.9,4.9,1.2c1.6,0.2,3.3,0.4,5,0.4c1.7,0,3.3,0,5-0.2c1.7-0.2,3.3-0.4,4.9-0.9
						c-1.5,0.8-3.2,1.3-4.8,1.6c-1.7,0.3-3.4,0.4-5.1,0.4c-1.7,0-3.4-0.2-5.1-0.6C191.6,216,190,215.4,188.6,214.4z"/>
				</g>
				<g>
					<path class="st3" d="M208,214.4c1.6,0.6,3.2,0.9,4.9,1.2c1.6,0.2,3.3,0.4,5,0.4c1.7,0,3.3,0,5-0.2c1.7-0.2,3.3-0.4,4.9-0.9
						c-1.5,0.8-3.2,1.3-4.8,1.6c-1.7,0.3-3.4,0.4-5.1,0.4c-1.7,0-3.4-0.2-5.1-0.6C211,216,209.4,215.4,208,214.4z"/>
				</g>
				<g>
					<path class="st3" d="M227.4,214.4c1.6,0.6,3.2,0.9,4.9,1.2c1.6,0.2,3.3,0.4,5,0.4c1.7,0,3.3,0,5-0.2c1.7-0.2,3.3-0.4,4.9-0.9
						c-1.5,0.8-3.2,1.3-4.8,1.6c-1.7,0.3-3.4,0.4-5.1,0.4c-1.7,0-3.4-0.2-5.1-0.6C230.4,216,228.8,215.4,227.4,214.4z"/>
				</g>
				<g>
					<path class="st3" d="M246.8,214.4c1.6,0.6,3.2,0.9,4.9,1.2c1.6,0.2,3.3,0.4,5,0.4c1.7,0,3.3,0,5-0.2c1.7-0.2,3.3-0.4,4.9-0.9
						c-1.5,0.8-3.2,1.3-4.8,1.6c-1.7,0.3-3.4,0.4-5.1,0.4c-1.7,0-3.4-0.2-5.1-0.6C249.8,216,248.2,215.4,246.8,214.4z"/>
				</g>
				<g>
					<path class="st3" d="M266.1,214.4c1.6,0.6,3.2,0.9,4.9,1.2c1.6,0.2,3.3,0.4,5,0.4c1.7,0,3.3,0,5-0.2c1.7-0.2,3.3-0.4,4.9-0.9
						c-1.5,0.8-3.2,1.3-4.8,1.6c-1.7,0.3-3.4,0.4-5.1,0.4c-1.7,0-3.4-0.2-5.1-0.6C269.2,216,267.6,215.4,266.1,214.4z"/>
				</g>
				<g>
					<path class="st3" d="M285.5,214.4c1.6,0.6,3.2,0.9,4.9,1.2c1.6,0.2,3.3,0.4,5,0.4c1.7,0,3.3,0,5-0.2c1.7-0.2,3.3-0.4,4.9-0.9
						c-1.5,0.8-3.2,1.3-4.8,1.6c-1.7,0.3-3.4,0.4-5.1,0.4c-1.7,0-3.4-0.2-5.1-0.6C288.6,216,287,215.4,285.5,214.4z"/>
				</g>
				<g>
					<path class="st3" d="M304.9,214.4c1.6,0.6,3.2,0.9,4.9,1.2c1.6,0.2,3.3,0.4,5,0.4c1.7,0,3.3,0,5-0.2c1.7-0.2,3.3-0.4,4.9-0.9
						c-1.5,0.8-3.2,1.3-4.8,1.6c-1.7,0.3-3.4,0.4-5.1,0.4c-1.7,0-3.4-0.2-5.1-0.6C308,216,306.4,215.4,304.9,214.4z"/>
				</g>
				<g>
					<path class="st3" d="M324.3,214.4c1.6,0.6,3.2,0.9,4.9,1.2c1.6,0.2,3.3,0.4,5,0.4c1.7,0,3.3,0,5-0.2c1.7-0.2,3.3-0.4,4.9-0.9
						c-1.5,0.8-3.2,1.3-4.8,1.6c-1.7,0.3-3.4,0.4-5.1,0.4c-1.7,0-3.4-0.2-5.1-0.6C327.4,216,325.8,215.4,324.3,214.4z"/>
				</g>
			</g>
			<g>
				<g>
					<path class="st3" d="M86.8,225.1c1.6,0.6,3.2,0.9,4.9,1.2c1.6,0.2,3.3,0.4,5,0.4c1.7,0,3.3,0,5-0.2c1.7-0.2,3.3-0.4,4.9-0.9
						c-1.5,0.8-3.2,1.3-4.8,1.6c-1.7,0.3-3.4,0.4-5.1,0.4c-1.7,0-3.4-0.2-5.1-0.6C89.9,226.6,88.2,226,86.8,225.1z"/>
				</g>
				<g>
					<path class="st3" d="M106.2,225.1c1.6,0.6,3.2,0.9,4.9,1.2c1.6,0.2,3.3,0.4,5,0.4c1.7,0,3.3,0,5-0.2c1.7-0.2,3.3-0.4,4.9-0.9
						c-1.5,0.8-3.2,1.3-4.8,1.6c-1.7,0.3-3.4,0.4-5.1,0.4c-1.7,0-3.4-0.2-5.1-0.6C109.3,226.6,107.6,226,106.2,225.1z"/>
				</g>
				<g>
					<path class="st3" d="M125.6,225.1c1.6,0.6,3.2,0.9,4.9,1.2c1.6,0.2,3.3,0.4,5,0.4c1.7,0,3.3,0,5-0.2c1.7-0.2,3.3-0.4,4.9-0.9
						c-1.5,0.8-3.2,1.3-4.8,1.6c-1.7,0.3-3.4,0.4-5.1,0.4c-1.7,0-3.4-0.2-5.1-0.6C128.7,226.6,127,226,125.6,225.1z"/>
				</g>
				<g>
					<path class="st3" d="M145,225.1c1.6,0.6,3.2,0.9,4.9,1.2c1.6,0.2,3.3,0.4,5,0.4c1.7,0,3.3,0,5-0.2c1.7-0.2,3.3-0.4,4.9-0.9
						c-1.5,0.8-3.2,1.3-4.8,1.6c-1.7,0.3-3.4,0.4-5.1,0.4c-1.7,0-3.4-0.2-5.1-0.6C148.1,226.6,146.4,226,145,225.1z"/>
				</g>
				<g>
					<path class="st3" d="M164.4,225.1c1.6,0.6,3.2,0.9,4.9,1.2c1.6,0.2,3.3,0.4,5,0.4c1.7,0,3.3,0,5-0.2c1.7-0.2,3.3-0.4,4.9-0.9
						c-1.5,0.8-3.2,1.3-4.8,1.6c-1.7,0.3-3.4,0.4-5.1,0.4c-1.7,0-3.4-0.2-5.1-0.6C167.5,226.6,165.8,226,164.4,225.1z"/>
				</g>
				<g>
					<path class="st3" d="M183.8,225.1c1.6,0.6,3.2,0.9,4.9,1.2c1.6,0.2,3.3,0.4,5,0.4c1.7,0,3.3,0,5-0.2c1.7-0.2,3.3-0.4,4.9-0.9
						c-1.5,0.8-3.2,1.3-4.8,1.6c-1.7,0.3-3.4,0.4-5.1,0.4c-1.7,0-3.4-0.2-5.1-0.6C186.9,226.6,185.2,226,183.8,225.1z"/>
				</g>
				<g>
					<path class="st3" d="M203.2,225.1c1.6,0.6,3.2,0.9,4.9,1.2c1.6,0.2,3.3,0.4,5,0.4c1.7,0,3.3,0,5-0.2c1.7-0.2,3.3-0.4,4.9-0.9
						c-1.5,0.8-3.2,1.3-4.8,1.6c-1.7,0.3-3.4,0.4-5.1,0.4c-1.7,0-3.4-0.2-5.1-0.6C206.3,226.6,204.6,226,203.2,225.1z"/>
				</g>
				<g>
					<path class="st3" d="M222.6,225.1c1.6,0.6,3.2,0.9,4.9,1.2c1.6,0.2,3.3,0.4,5,0.4c1.7,0,3.3,0,5-0.2c1.7-0.2,3.3-0.4,4.9-0.9
						c-1.5,0.8-3.2,1.3-4.8,1.6c-1.7,0.3-3.4,0.4-5.1,0.4c-1.7,0-3.4-0.2-5.1-0.6C225.6,226.6,224,226,222.6,225.1z"/>
				</g>
				<g>
					<path class="st3" d="M242,225.1c1.6,0.6,3.2,0.9,4.9,1.2c1.6,0.2,3.3,0.4,5,0.4c1.7,0,3.3,0,5-0.2c1.7-0.2,3.3-0.4,4.9-0.9
						c-1.5,0.8-3.2,1.3-4.8,1.6c-1.7,0.3-3.4,0.4-5.1,0.4c-1.7,0-3.4-0.2-5.1-0.6C245,226.6,243.4,226,242,225.1z"/>
				</g>
				<g>
					<path class="st3" d="M261.4,225.1c1.6,0.6,3.2,0.9,4.9,1.2c1.6,0.2,3.3,0.4,5,0.4c1.7,0,3.3,0,5-0.2c1.7-0.2,3.3-0.4,4.9-0.9
						c-1.5,0.8-3.2,1.3-4.8,1.6c-1.7,0.3-3.4,0.4-5.1,0.4c-1.7,0-3.4-0.2-5.1-0.6C264.4,226.6,262.8,226,261.4,225.1z"/>
				</g>
				<g>
					<path class="st3" d="M280.8,225.1c1.6,0.6,3.2,0.9,4.9,1.2c1.6,0.2,3.3,0.4,5,0.4c1.7,0,3.3,0,5-0.2c1.7-0.2,3.3-0.4,4.9-0.9
						c-1.5,0.8-3.2,1.3-4.8,1.6c-1.7,0.3-3.4,0.4-5.1,0.4c-1.7,0-3.4-0.2-5.1-0.6C283.8,226.6,282.2,226,280.8,225.1z"/>
				</g>
				<g>
					<path class="st3" d="M300.2,225.1c1.6,0.6,3.2,0.9,4.9,1.2c1.6,0.2,3.3,0.4,5,0.4c1.7,0,3.3,0,5-0.2c1.7-0.2,3.3-0.4,4.9-0.9
						c-1.5,0.8-3.2,1.3-4.8,1.6c-1.7,0.3-3.4,0.4-5.1,0.4c-1.7,0-3.4-0.2-5.1-0.6C303.2,226.6,301.6,226,300.2,225.1z"/>
				</g>
				<g>
					<path class="st3" d="M319.6,225.1c1.6,0.6,3.2,0.9,4.9,1.2c1.6,0.2,3.3,0.4,5,0.4c1.7,0,3.3,0,5-0.2c1.7-0.2,3.3-0.4,4.9-0.9
						c-1.5,0.8-3.2,1.3-4.8,1.6c-1.7,0.3-3.4,0.4-5.1,0.4c-1.7,0-3.4-0.2-5.1-0.6C322.6,226.6,321,226,319.6,225.1z"/>
				</g>
				<g>
					<path class="st3" d="M339,225.1c1.6,0.6,3.2,0.9,4.9,1.2c1.6,0.2,3.3,0.4,5,0.4c1.7,0,3.3,0,5-0.2c1.7-0.2,3.3-0.4,4.9-0.9
						c-1.5,0.8-3.2,1.3-4.8,1.6c-1.7,0.3-3.4,0.4-5.1,0.4c-1.7,0-3.4-0.2-5.1-0.6C342,226.6,340.4,226,339,225.1z"/>
				</g>
			</g>
			<g>
				<g>
					<path class="st3" d="M72.2,235.7c1.6,0.6,3.2,0.9,4.9,1.2c1.6,0.2,3.3,0.4,5,0.4c1.7,0,3.3,0,5-0.2c1.7-0.2,3.3-0.4,4.9-0.9
						c-1.5,0.8-3.2,1.3-4.8,1.6c-1.7,0.3-3.4,0.4-5.1,0.4c-1.7,0-3.4-0.2-5.1-0.6C75.2,237.2,73.6,236.6,72.2,235.7z"/>
				</g>
				<g>
					<path class="st3" d="M91.6,235.7c1.6,0.6,3.2,0.9,4.9,1.2c1.6,0.2,3.3,0.4,5,0.4c1.7,0,3.3,0,5-0.2c1.7-0.2,3.3-0.4,4.9-0.9
						c-1.5,0.8-3.2,1.3-4.8,1.6c-1.7,0.3-3.4,0.4-5.1,0.4c-1.7,0-3.4-0.2-5.1-0.6C94.6,237.2,93,236.6,91.6,235.7z"/>
				</g>
				<g>
					<path class="st3" d="M111,235.7c1.6,0.6,3.2,0.9,4.9,1.2c1.6,0.2,3.3,0.4,5,0.4c1.7,0,3.3,0,5-0.2c1.7-0.2,3.3-0.4,4.9-0.9
						c-1.5,0.8-3.2,1.3-4.8,1.6c-1.7,0.3-3.4,0.4-5.1,0.4c-1.7,0-3.4-0.2-5.1-0.6C114,237.2,112.4,236.6,111,235.7z"/>
				</g>
				<g>
					<path class="st3" d="M130.4,235.7c1.6,0.6,3.2,0.9,4.9,1.2c1.6,0.2,3.3,0.4,5,0.4c1.7,0,3.3,0,5-0.2c1.7-0.2,3.3-0.4,4.9-0.9
						c-1.5,0.8-3.2,1.3-4.8,1.6c-1.7,0.3-3.4,0.4-5.1,0.4c-1.7,0-3.4-0.2-5.1-0.6C133.4,237.2,131.8,236.6,130.4,235.7z"/>
				</g>
				<g>
					<path class="st3" d="M149.8,235.7c1.6,0.6,3.2,0.9,4.9,1.2c1.6,0.2,3.3,0.4,5,0.4c1.7,0,3.3,0,5-0.2c1.7-0.2,3.3-0.4,4.9-0.9
						c-1.5,0.8-3.2,1.3-4.8,1.6c-1.7,0.3-3.4,0.4-5.1,0.4c-1.7,0-3.4-0.2-5.1-0.6C152.8,237.2,151.2,236.6,149.8,235.7z"/>
				</g>
				<g>
					<path class="st3" d="M169.2,235.7c1.6,0.6,3.2,0.9,4.9,1.2c1.6,0.2,3.3,0.4,5,0.4c1.7,0,3.3,0,5-0.2c1.7-0.2,3.3-0.4,4.9-0.9
						c-1.5,0.8-3.2,1.3-4.8,1.6c-1.7,0.3-3.4,0.4-5.1,0.4c-1.7,0-3.4-0.2-5.1-0.6C172.2,237.2,170.6,236.6,169.2,235.7z"/>
				</g>
				<g>
					<path class="st3" d="M188.6,235.7c1.6,0.6,3.2,0.9,4.9,1.2c1.6,0.2,3.3,0.4,5,0.4c1.7,0,3.3,0,5-0.2c1.7-0.2,3.3-0.4,4.9-0.9
						c-1.5,0.8-3.2,1.3-4.8,1.6c-1.7,0.3-3.4,0.4-5.1,0.4c-1.7,0-3.4-0.2-5.1-0.6C191.6,237.2,190,236.6,188.6,235.7z"/>
				</g>
				<g>
					<path class="st3" d="M208,235.7c1.6,0.6,3.2,0.9,4.9,1.2c1.6,0.2,3.3,0.4,5,0.4c1.7,0,3.3,0,5-0.2c1.7-0.2,3.3-0.4,4.9-0.9
						c-1.5,0.8-3.2,1.3-4.8,1.6c-1.7,0.3-3.4,0.4-5.1,0.4c-1.7,0-3.4-0.2-5.1-0.6C211,237.2,209.4,236.6,208,235.7z"/>
				</g>
				<g>
					<path class="st3" d="M227.4,235.7c1.6,0.6,3.2,0.9,4.9,1.2c1.6,0.2,3.3,0.4,5,0.4c1.7,0,3.3,0,5-0.2c1.7-0.2,3.3-0.4,4.9-0.9
						c-1.5,0.8-3.2,1.3-4.8,1.6c-1.7,0.3-3.4,0.4-5.1,0.4c-1.7,0-3.4-0.2-5.1-0.6C230.4,237.2,228.8,236.6,227.4,235.7z"/>
				</g>
				<g>
					<path class="st3" d="M246.8,235.7c1.6,0.6,3.2,0.9,4.9,1.2c1.6,0.2,3.3,0.4,5,0.4c1.7,0,3.3,0,5-0.2c1.7-0.2,3.3-0.4,4.9-0.9
						c-1.5,0.8-3.2,1.3-4.8,1.6c-1.7,0.3-3.4,0.4-5.1,0.4c-1.7,0-3.4-0.2-5.1-0.6C249.8,237.2,248.2,236.6,246.8,235.7z"/>
				</g>
				<g>
					<path class="st3" d="M266.1,235.7c1.6,0.6,3.2,0.9,4.9,1.2c1.6,0.2,3.3,0.4,5,0.4c1.7,0,3.3,0,5-0.2c1.7-0.2,3.3-0.4,4.9-0.9
						c-1.5,0.8-3.2,1.3-4.8,1.6c-1.7,0.3-3.4,0.4-5.1,0.4c-1.7,0-3.4-0.2-5.1-0.6C269.2,237.2,267.6,236.6,266.1,235.7z"/>
				</g>
				<g>
					<path class="st3" d="M285.5,235.7c1.6,0.6,3.2,0.9,4.9,1.2c1.6,0.2,3.3,0.4,5,0.4c1.7,0,3.3,0,5-0.2c1.7-0.2,3.3-0.4,4.9-0.9
						c-1.5,0.8-3.2,1.3-4.8,1.6c-1.7,0.3-3.4,0.4-5.1,0.4c-1.7,0-3.4-0.2-5.1-0.6C288.6,237.2,287,236.6,285.5,235.7z"/>
				</g>
				<g>
					<path class="st3" d="M304.9,235.7c1.6,0.6,3.2,0.9,4.9,1.2c1.6,0.2,3.3,0.4,5,0.4c1.7,0,3.3,0,5-0.2c1.7-0.2,3.3-0.4,4.9-0.9
						c-1.5,0.8-3.2,1.3-4.8,1.6c-1.7,0.3-3.4,0.4-5.1,0.4c-1.7,0-3.4-0.2-5.1-0.6C308,237.2,306.4,236.6,304.9,235.7z"/>
				</g>
				<g>
					<path class="st3" d="M324.3,235.7c1.6,0.6,3.2,0.9,4.9,1.2c1.6,0.2,3.3,0.4,5,0.4c1.7,0,3.3,0,5-0.2c1.7-0.2,3.3-0.4,4.9-0.9
						c-1.5,0.8-3.2,1.3-4.8,1.6c-1.7,0.3-3.4,0.4-5.1,0.4c-1.7,0-3.4-0.2-5.1-0.6C327.4,237.2,325.8,236.6,324.3,235.7z"/>
				</g>
			</g>
			<g>
				<g>
					<path class="st3" d="M86.8,246.3c1.6,0.6,3.2,0.9,4.9,1.2c1.6,0.2,3.3,0.4,5,0.4c1.7,0,3.3,0,5-0.2c1.7-0.2,3.3-0.4,4.9-0.9
						c-1.5,0.8-3.2,1.3-4.8,1.6c-1.7,0.3-3.4,0.4-5.1,0.4c-1.7,0-3.4-0.2-5.1-0.6C89.9,247.9,88.2,247.3,86.8,246.3z"/>
				</g>
				<g>
					<path class="st3" d="M106.2,246.3c1.6,0.6,3.2,0.9,4.9,1.2c1.6,0.2,3.3,0.4,5,0.4c1.7,0,3.3,0,5-0.2c1.7-0.2,3.3-0.4,4.9-0.9
						c-1.5,0.8-3.2,1.3-4.8,1.6c-1.7,0.3-3.4,0.4-5.1,0.4c-1.7,0-3.4-0.2-5.1-0.6C109.3,247.9,107.6,247.3,106.2,246.3z"/>
				</g>
				<g>
					<path class="st3" d="M125.6,246.3c1.6,0.6,3.2,0.9,4.9,1.2c1.6,0.2,3.3,0.4,5,0.4c1.7,0,3.3,0,5-0.2c1.7-0.2,3.3-0.4,4.9-0.9
						c-1.5,0.8-3.2,1.3-4.8,1.6c-1.7,0.3-3.4,0.4-5.1,0.4c-1.7,0-3.4-0.2-5.1-0.6C128.7,247.9,127,247.3,125.6,246.3z"/>
				</g>
				<g>
					<path class="st3" d="M145,246.3c1.6,0.6,3.2,0.9,4.9,1.2c1.6,0.2,3.3,0.4,5,0.4c1.7,0,3.3,0,5-0.2c1.7-0.2,3.3-0.4,4.9-0.9
						c-1.5,0.8-3.2,1.3-4.8,1.6c-1.7,0.3-3.4,0.4-5.1,0.4c-1.7,0-3.4-0.2-5.1-0.6C148.1,247.9,146.4,247.3,145,246.3z"/>
				</g>
				<g>
					<path class="st3" d="M164.4,246.3c1.6,0.6,3.2,0.9,4.9,1.2c1.6,0.2,3.3,0.4,5,0.4c1.7,0,3.3,0,5-0.2c1.7-0.2,3.3-0.4,4.9-0.9
						c-1.5,0.8-3.2,1.3-4.8,1.6c-1.7,0.3-3.4,0.4-5.1,0.4c-1.7,0-3.4-0.2-5.1-0.6C167.5,247.9,165.8,247.3,164.4,246.3z"/>
				</g>
				<g>
					<path class="st3" d="M183.8,246.3c1.6,0.6,3.2,0.9,4.9,1.2c1.6,0.2,3.3,0.4,5,0.4c1.7,0,3.3,0,5-0.2c1.7-0.2,3.3-0.4,4.9-0.9
						c-1.5,0.8-3.2,1.3-4.8,1.6c-1.7,0.3-3.4,0.4-5.1,0.4c-1.7,0-3.4-0.2-5.1-0.6C186.9,247.9,185.2,247.3,183.8,246.3z"/>
				</g>
				<g>
					<path class="st3" d="M203.2,246.3c1.6,0.6,3.2,0.9,4.9,1.2c1.6,0.2,3.3,0.4,5,0.4c1.7,0,3.3,0,5-0.2c1.7-0.2,3.3-0.4,4.9-0.9
						c-1.5,0.8-3.2,1.3-4.8,1.6c-1.7,0.3-3.4,0.4-5.1,0.4c-1.7,0-3.4-0.2-5.1-0.6C206.3,247.9,204.6,247.3,203.2,246.3z"/>
				</g>
				<g>
					<path class="st3" d="M222.6,246.3c1.6,0.6,3.2,0.9,4.9,1.2c1.6,0.2,3.3,0.4,5,0.4c1.7,0,3.3,0,5-0.2c1.7-0.2,3.3-0.4,4.9-0.9
						c-1.5,0.8-3.2,1.3-4.8,1.6c-1.7,0.3-3.4,0.4-5.1,0.4c-1.7,0-3.4-0.2-5.1-0.6C225.6,247.9,224,247.3,222.6,246.3z"/>
				</g>
				<g>
					<path class="st3" d="M242,246.3c1.6,0.6,3.2,0.9,4.9,1.2c1.6,0.2,3.3,0.4,5,0.4c1.7,0,3.3,0,5-0.2c1.7-0.2,3.3-0.4,4.9-0.9
						c-1.5,0.8-3.2,1.3-4.8,1.6c-1.7,0.3-3.4,0.4-5.1,0.4c-1.7,0-3.4-0.2-5.1-0.6C245,247.9,243.4,247.3,242,246.3z"/>
				</g>
				<g>
					<path class="st3" d="M261.4,246.3c1.6,0.6,3.2,0.9,4.9,1.2c1.6,0.2,3.3,0.4,5,0.4c1.7,0,3.3,0,5-0.2c1.7-0.2,3.3-0.4,4.9-0.9
						c-1.5,0.8-3.2,1.3-4.8,1.6c-1.7,0.3-3.4,0.4-5.1,0.4c-1.7,0-3.4-0.2-5.1-0.6C264.4,247.9,262.8,247.3,261.4,246.3z"/>
				</g>
				<g>
					<path class="st3" d="M280.8,246.3c1.6,0.6,3.2,0.9,4.9,1.2c1.6,0.2,3.3,0.4,5,0.4c1.7,0,3.3,0,5-0.2c1.7-0.2,3.3-0.4,4.9-0.9
						c-1.5,0.8-3.2,1.3-4.8,1.6c-1.7,0.3-3.4,0.4-5.1,0.4c-1.7,0-3.4-0.2-5.1-0.6C283.8,247.9,282.2,247.3,280.8,246.3z"/>
				</g>
				<g>
					<path class="st3" d="M300.2,246.3c1.6,0.6,3.2,0.9,4.9,1.2c1.6,0.2,3.3,0.4,5,0.4c1.7,0,3.3,0,5-0.2c1.7-0.2,3.3-0.4,4.9-0.9
						c-1.5,0.8-3.2,1.3-4.8,1.6c-1.7,0.3-3.4,0.4-5.1,0.4c-1.7,0-3.4-0.2-5.1-0.6C303.2,247.9,301.6,247.3,300.2,246.3z"/>
				</g>
				<g>
					<path class="st3" d="M319.6,246.3c1.6,0.6,3.2,0.9,4.9,1.2c1.6,0.2,3.3,0.4,5,0.4c1.7,0,3.3,0,5-0.2c1.7-0.2,3.3-0.4,4.9-0.9
						c-1.5,0.8-3.2,1.3-4.8,1.6c-1.7,0.3-3.4,0.4-5.1,0.4c-1.7,0-3.4-0.2-5.1-0.6C322.6,247.9,321,247.3,319.6,246.3z"/>
				</g>
				<g>
					<path class="st3" d="M339,246.3c1.6,0.6,3.2,0.9,4.9,1.2c1.6,0.2,3.3,0.4,5,0.4c1.7,0,3.3,0,5-0.2c1.7-0.2,3.3-0.4,4.9-0.9
						c-1.5,0.8-3.2,1.3-4.8,1.6c-1.7,0.3-3.4,0.4-5.1,0.4c-1.7,0-3.4-0.2-5.1-0.6C342,247.9,340.4,247.3,339,246.3z"/>
				</g>
			</g>
			<g>
				<rect x="0" y="138.7" class="st4" width="433.7" height="34.3"/>
				<rect y="143.5" class="st5" width="433.7" height="5.3"/>
			</g>
		</g>
	</g>
	<polygon class="st6" points="344.9,101.3 344.9,83.7 327.3,83.7 327.3,88.8 322.7,88.8 322.7,76.4 264.1,76.4 264.1,36.9 
		249.7,36.9 249.7,77.1 214.3,77.1 214.3,59.1 201.8,59.1 201.8,85 192.9,85 192.9,55.9 192.9,39 161.5,50.6 161.5,58.5 149.8,58.5 
		149.8,84.2 121.3,84.2 121.3,94.5 110,94.5 110,85.8 77.9,85.8 77.9,133.1 344.9,133.1 	"/>
	<polygon class="st7" points="369.3,116 311.4,116.7 311.4,70.6 283,70.6 283,98.2 238.7,98.2 238.7,108.7 195,108.7 180.5,108.7 
		180.5,73.2 127.7,73.2 127.7,114.5 67.4,114.5 64.3,139.5 373.7,138.8 	"/>
	<g>
		<g>
			<g>
				<path class="st8" d="M237.7,60.9c0,1.3,1,2.3,2.3,2.3s2.3-1,2.3-2.3c0-1.3-1-2.3-2.3-2.3v-5.2"/>
				<path class="st9" d="M241.1,57.5h-2c-0.2,0-0.4-0.2-0.4-0.4v-2c0-0.2,0.2-0.4,0.4-0.4h2c0.2,0,0.4,0.2,0.4,0.4v2
					C241.4,57.3,241.3,57.5,241.1,57.5z"/>
				<polyline class="st10" points="223.7,74.8 240.1,62.7 256.5,74.8 				"/>
			</g>
			<g>
				<rect x="221.9" y="74.3" class="st11" width="36.5" height="15.2"/>
				<rect x="221.9" y="82.1" class="st11" width="36.5" height="7.4"/>
				<g>
					<line class="st12" x1="223.8" y1="75.3" x2="223.8" y2="88.4"/>
					<line class="st12" x1="226.3" y1="75.3" x2="226.3" y2="88.4"/>
					<line class="st12" x1="228.8" y1="75.3" x2="228.8" y2="88.4"/>
					<line class="st12" x1="231.3" y1="75.3" x2="231.3" y2="88.4"/>
					<line class="st12" x1="233.8" y1="75.3" x2="233.8" y2="88.4"/>
					<line class="st12" x1="236.3" y1="75.3" x2="236.3" y2="88.4"/>
					<line class="st12" x1="238.8" y1="75.3" x2="238.8" y2="88.4"/>
					<line class="st12" x1="241.4" y1="75.3" x2="241.4" y2="88.4"/>
					<line class="st12" x1="243.9" y1="75.3" x2="243.9" y2="88.4"/>
					<line class="st12" x1="246.4" y1="75.3" x2="246.4" y2="88.4"/>
					<line class="st12" x1="248.9" y1="75.3" x2="248.9" y2="88.4"/>
					<line class="st12" x1="251.4" y1="75.3" x2="251.4" y2="88.4"/>
					<line class="st12" x1="253.9" y1="75.3" x2="253.9" y2="88.4"/>
					<line class="st12" x1="256.4" y1="75.3" x2="256.4" y2="88.4"/>
				</g>
			</g>
		</g>
		<g>
			<line class="st10" x1="236.2" y1="48.8" x2="236.2" y2="9.6"/>
			<line class="st10" x1="244.2" y1="48.8" x2="244.2" y2="9.6"/>
			<g>
				<g>
					<polygon class="st13" points="245.8,52 240.1,54.1 234.6,52 234.6,48.8 245.8,48.8 					"/>
				</g>
			</g>
		</g>
	</g>
	<g>
		<defs>
			<rect id="SVGID_2_" x="59.3" y="180.3" width="324.1" height="79.4"/>
		</defs>
		<clipPath id="SVGID_5_">
			<use xlink:href="#SVGID_2_"  style="overflow:visible;"/>
		</clipPath>
		<g class="st14">
			<g>
				
					<rect x="231.7" y="219.6" transform="matrix(-1 -4.514357e-11 4.514357e-11 -1 495.7488 452.6523)" class="st15" width="32.3" height="13.5"/>
				
					<rect x="231.7" y="226.5" transform="matrix(-1 -4.514357e-11 4.514357e-11 -1 495.7488 459.567)" class="st15" width="32.3" height="6.6"/>
				<g>
					<line class="st16" x1="262.3" y1="220.5" x2="262.3" y2="232.1"/>
					<line class="st16" x1="260.1" y1="220.5" x2="260.1" y2="232.1"/>
					<line class="st16" x1="257.9" y1="220.5" x2="257.9" y2="232.1"/>
					<line class="st16" x1="255.7" y1="220.5" x2="255.7" y2="232.1"/>
					<line class="st16" x1="253.4" y1="220.5" x2="253.4" y2="232.1"/>
					<line class="st16" x1="251.2" y1="220.5" x2="251.2" y2="232.1"/>
					<line class="st16" x1="249" y1="220.5" x2="249" y2="232.1"/>
					<line class="st16" x1="246.8" y1="220.5" x2="246.8" y2="232.1"/>
					<line class="st16" x1="244.5" y1="220.5" x2="244.5" y2="232.1"/>
					<line class="st16" x1="242.3" y1="220.5" x2="242.3" y2="232.1"/>
					<line class="st16" x1="240.1" y1="220.5" x2="240.1" y2="232.1"/>
					<line class="st16" x1="237.9" y1="220.5" x2="237.9" y2="232.1"/>
					<line class="st16" x1="235.6" y1="220.5" x2="235.6" y2="232.1"/>
					<line class="st16" x1="233.4" y1="220.5" x2="233.4" y2="232.1"/>
				</g>
			</g>
			<g>
				<rect x="231.7" y="219.6" class="st17" width="32.3" height="13.5"/>
				<rect x="231.7" y="226.5" class="st17" width="32.3" height="6.6"/>
				<g>
					<line class="st18" x1="233.4" y1="220.5" x2="233.4" y2="232.1"/>
					<line class="st18" x1="235.6" y1="220.5" x2="235.6" y2="232.1"/>
					<line class="st18" x1="237.9" y1="220.5" x2="237.9" y2="232.1"/>
					<line class="st18" x1="240.1" y1="220.5" x2="240.1" y2="232.1"/>
					<line class="st18" x1="242.3" y1="220.5" x2="242.3" y2="232.1"/>
					<line class="st18" x1="244.5" y1="220.5" x2="244.5" y2="232.1"/>
					<line class="st18" x1="246.8" y1="220.5" x2="246.8" y2="232.1"/>
					<line class="st18" x1="249" y1="220.5" x2="249" y2="232.1"/>
					<line class="st18" x1="251.2" y1="220.5" x2="251.2" y2="232.1"/>
					<line class="st18" x1="253.4" y1="220.5" x2="253.4" y2="232.1"/>
					<line class="st18" x1="255.7" y1="220.5" x2="255.7" y2="232.1"/>
					<line class="st18" x1="257.9" y1="220.5" x2="257.9" y2="232.1"/>
					<line class="st18" x1="260.1" y1="220.5" x2="260.1" y2="232.1"/>
					<line class="st18" x1="262.3" y1="220.5" x2="262.3" y2="232.1"/>
				</g>
			</g>
			<g>
				
					<rect x="199.4" y="219.6" transform="matrix(-1 -4.486201e-11 4.486201e-11 -1 431.0569 452.6523)" class="st11" width="32.3" height="13.5"/>
				
					<rect x="199.4" y="226.5" transform="matrix(-1 -4.486201e-11 4.486201e-11 -1 431.0569 459.567)" class="st11" width="32.3" height="6.6"/>
				<g>
					<line class="st19" x1="230" y1="220.5" x2="230" y2="232.1"/>
					<line class="st19" x1="227.8" y1="220.5" x2="227.8" y2="232.1"/>
					<line class="st19" x1="225.5" y1="220.5" x2="225.5" y2="232.1"/>
					<line class="st19" x1="223.3" y1="220.5" x2="223.3" y2="232.1"/>
					<line class="st19" x1="221.1" y1="220.5" x2="221.1" y2="232.1"/>
					<line class="st19" x1="218.9" y1="220.5" x2="218.9" y2="232.1"/>
					<line class="st19" x1="216.6" y1="220.5" x2="216.6" y2="232.1"/>
					<line class="st19" x1="214.4" y1="220.5" x2="214.4" y2="232.1"/>
					<line class="st19" x1="212.2" y1="220.5" x2="212.2" y2="232.1"/>
					<line class="st19" x1="210" y1="220.5" x2="210" y2="232.1"/>
					<line class="st19" x1="207.7" y1="220.5" x2="207.7" y2="232.1"/>
					<line class="st19" x1="205.5" y1="220.5" x2="205.5" y2="232.1"/>
					<line class="st19" x1="203.3" y1="220.5" x2="203.3" y2="232.1"/>
					<line class="st19" x1="201.1" y1="220.5" x2="201.1" y2="232.1"/>
				</g>
			</g>
			<g>
				
					<rect x="167.1" y="206.1" transform="matrix(-1 -4.486201e-11 4.486201e-11 -1 366.5211 425.6478)" class="st11" width="32.3" height="13.5"/>
				
					<rect x="167.1" y="213" transform="matrix(-1 -4.486201e-11 4.486201e-11 -1 366.5211 432.5625)" class="st11" width="32.3" height="6.6"/>
				<g>
					<line class="st19" x1="197.7" y1="207" x2="197.7" y2="218.6"/>
					<line class="st19" x1="195.5" y1="207" x2="195.5" y2="218.6"/>
					<line class="st19" x1="193.3" y1="207" x2="193.3" y2="218.6"/>
					<line class="st19" x1="191" y1="207" x2="191" y2="218.6"/>
					<line class="st19" x1="188.8" y1="207" x2="188.8" y2="218.6"/>
					<line class="st19" x1="186.6" y1="207" x2="186.6" y2="218.6"/>
					<line class="st19" x1="184.4" y1="207" x2="184.4" y2="218.6"/>
					<line class="st19" x1="182.1" y1="207" x2="182.1" y2="218.6"/>
					<line class="st19" x1="179.9" y1="207" x2="179.9" y2="218.6"/>
					<line class="st19" x1="177.7" y1="207" x2="177.7" y2="218.6"/>
					<line class="st19" x1="175.5" y1="207" x2="175.5" y2="218.6"/>
					<line class="st19" x1="173.3" y1="207" x2="173.3" y2="218.6"/>
					<line class="st19" x1="171" y1="207" x2="171" y2="218.6"/>
					<line class="st19" x1="168.8" y1="207" x2="168.8" y2="218.6"/>
				</g>
			</g>
			<g>
				
					<rect x="167.1" y="219.6" transform="matrix(-1 -4.514357e-11 4.514357e-11 -1 366.5211 452.6523)" class="st3" width="32.3" height="13.5"/>
				
					<rect x="167.1" y="226.5" transform="matrix(-1 -4.514357e-11 4.514357e-11 -1 366.5211 459.567)" class="st3" width="32.3" height="6.6"/>
				<g>
					<line class="st20" x1="197.7" y1="220.5" x2="197.7" y2="232.1"/>
					<line class="st20" x1="195.5" y1="220.5" x2="195.5" y2="232.1"/>
					<line class="st20" x1="193.3" y1="220.5" x2="193.3" y2="232.1"/>
					<line class="st20" x1="191" y1="220.5" x2="191" y2="232.1"/>
					<line class="st20" x1="188.8" y1="220.5" x2="188.8" y2="232.1"/>
					<line class="st20" x1="186.6" y1="220.5" x2="186.6" y2="232.1"/>
					<line class="st20" x1="184.4" y1="220.5" x2="184.4" y2="232.1"/>
					<line class="st20" x1="182.1" y1="220.5" x2="182.1" y2="232.1"/>
					<line class="st20" x1="179.9" y1="220.5" x2="179.9" y2="232.1"/>
					<line class="st20" x1="177.7" y1="220.5" x2="177.7" y2="232.1"/>
					<line class="st20" x1="175.5" y1="220.5" x2="175.5" y2="232.1"/>
					<line class="st20" x1="173.3" y1="220.5" x2="173.3" y2="232.1"/>
					<line class="st20" x1="171" y1="220.5" x2="171" y2="232.1"/>
					<line class="st20" x1="168.8" y1="220.5" x2="168.8" y2="232.1"/>
				</g>
			</g>
			<g>
				<rect x="231.7" y="206.1" class="st3" width="32.3" height="13.5"/>
				<rect x="231.7" y="213" class="st3" width="32.3" height="6.6"/>
				<g>
					<line class="st20" x1="233.4" y1="207" x2="233.4" y2="218.6"/>
					<line class="st20" x1="235.6" y1="207" x2="235.6" y2="218.6"/>
					<line class="st20" x1="237.9" y1="207" x2="237.9" y2="218.6"/>
					<line class="st20" x1="240.1" y1="207" x2="240.1" y2="218.6"/>
					<line class="st20" x1="242.3" y1="207" x2="242.3" y2="218.6"/>
					<line class="st20" x1="244.5" y1="207" x2="244.5" y2="218.6"/>
					<line class="st20" x1="246.8" y1="207" x2="246.8" y2="218.6"/>
					<line class="st20" x1="249" y1="207" x2="249" y2="218.6"/>
					<line class="st20" x1="251.2" y1="207" x2="251.2" y2="218.6"/>
					<line class="st20" x1="253.4" y1="207" x2="253.4" y2="218.6"/>
					<line class="st20" x1="255.7" y1="207" x2="255.7" y2="218.6"/>
					<line class="st20" x1="257.9" y1="207" x2="257.9" y2="218.6"/>
					<line class="st20" x1="260.1" y1="207" x2="260.1" y2="218.6"/>
					<line class="st20" x1="262.3" y1="207" x2="262.3" y2="218.6"/>
				</g>
			</g>
			<g>
				
					<rect x="264" y="219.6" transform="matrix(-1 -4.486201e-11 4.486201e-11 -1 560.3797 452.6523)" class="st3" width="32.3" height="13.5"/>
				
					<rect x="264" y="226.5" transform="matrix(-1 -4.486201e-11 4.486201e-11 -1 560.3797 459.567)" class="st3" width="32.3" height="6.6"/>
				<g>
					<line class="st20" x1="294.6" y1="220.5" x2="294.6" y2="232.1"/>
					<line class="st20" x1="292.4" y1="220.5" x2="292.4" y2="232.1"/>
					<line class="st20" x1="290.2" y1="220.5" x2="290.2" y2="232.1"/>
					<line class="st20" x1="288" y1="220.5" x2="288" y2="232.1"/>
					<line class="st20" x1="285.7" y1="220.5" x2="285.7" y2="232.1"/>
					<line class="st20" x1="283.5" y1="220.5" x2="283.5" y2="232.1"/>
					<line class="st20" x1="281.3" y1="220.5" x2="281.3" y2="232.1"/>
					<line class="st20" x1="279.1" y1="220.5" x2="279.1" y2="232.1"/>
					<line class="st20" x1="276.9" y1="220.5" x2="276.9" y2="232.1"/>
					<line class="st20" x1="274.6" y1="220.5" x2="274.6" y2="232.1"/>
					<line class="st20" x1="272.4" y1="220.5" x2="272.4" y2="232.1"/>
					<line class="st20" x1="270.2" y1="220.5" x2="270.2" y2="232.1"/>
					<line class="st20" x1="268" y1="220.5" x2="268" y2="232.1"/>
					<line class="st20" x1="265.7" y1="220.5" x2="265.7" y2="232.1"/>
				</g>
			</g>
			<g>
				
					<rect x="296.3" y="219.6" transform="matrix(-1 -4.486201e-11 4.486201e-11 -1 625.0106 452.6523)" class="st15" width="32.3" height="13.5"/>
				
					<rect x="296.3" y="226.5" transform="matrix(-1 -4.486201e-11 4.486201e-11 -1 625.0106 459.567)" class="st15" width="32.3" height="6.6"/>
				<g>
					<line class="st16" x1="327" y1="220.5" x2="327" y2="232.1"/>
					<line class="st16" x1="324.7" y1="220.5" x2="324.7" y2="232.1"/>
					<line class="st16" x1="322.5" y1="220.5" x2="322.5" y2="232.1"/>
					<line class="st16" x1="320.3" y1="220.5" x2="320.3" y2="232.1"/>
					<line class="st16" x1="318.1" y1="220.5" x2="318.1" y2="232.1"/>
					<line class="st16" x1="315.8" y1="220.5" x2="315.8" y2="232.1"/>
					<line class="st16" x1="313.6" y1="220.5" x2="313.6" y2="232.1"/>
					<line class="st16" x1="311.4" y1="220.5" x2="311.4" y2="232.1"/>
					<line class="st16" x1="309.2" y1="220.5" x2="309.2" y2="232.1"/>
					<line class="st16" x1="306.9" y1="220.5" x2="306.9" y2="232.1"/>
					<line class="st16" x1="304.7" y1="220.5" x2="304.7" y2="232.1"/>
					<line class="st16" x1="302.5" y1="220.5" x2="302.5" y2="232.1"/>
					<line class="st16" x1="300.3" y1="220.5" x2="300.3" y2="232.1"/>
					<line class="st16" x1="298.1" y1="220.5" x2="298.1" y2="232.1"/>
				</g>
			</g>
			<g>
				<rect x="296.3" y="206.1" class="st3" width="32.3" height="13.5"/>
				<rect x="296.3" y="213" class="st3" width="32.3" height="6.6"/>
				<g>
					<line class="st20" x1="298.1" y1="207" x2="298.1" y2="218.6"/>
					<line class="st20" x1="300.3" y1="207" x2="300.3" y2="218.6"/>
					<line class="st20" x1="302.5" y1="207" x2="302.5" y2="218.6"/>
					<line class="st20" x1="304.7" y1="207" x2="304.7" y2="218.6"/>
					<line class="st20" x1="306.9" y1="207" x2="306.9" y2="218.6"/>
					<line class="st20" x1="309.2" y1="207" x2="309.2" y2="218.6"/>
					<line class="st20" x1="311.4" y1="207" x2="311.4" y2="218.6"/>
					<line class="st20" x1="313.6" y1="207" x2="313.6" y2="218.6"/>
					<line class="st20" x1="315.8" y1="207" x2="315.8" y2="218.6"/>
					<line class="st20" x1="318.1" y1="207" x2="318.1" y2="218.6"/>
					<line class="st20" x1="320.3" y1="207" x2="320.3" y2="218.6"/>
					<line class="st20" x1="322.5" y1="207" x2="322.5" y2="218.6"/>
					<line class="st20" x1="324.7" y1="207" x2="324.7" y2="218.6"/>
					<line class="st20" x1="327" y1="207" x2="327" y2="218.6"/>
				</g>
			</g>
			<g>
				<rect x="264" y="192.6" class="st3" width="32.3" height="13.5"/>
				<rect x="264" y="199.5" class="st3" width="32.3" height="6.6"/>
				<g>
					<line class="st20" x1="265.7" y1="193.5" x2="265.7" y2="205.1"/>
					<line class="st20" x1="268" y1="193.5" x2="268" y2="205.1"/>
					<line class="st20" x1="270.2" y1="193.5" x2="270.2" y2="205.1"/>
					<line class="st20" x1="272.4" y1="193.5" x2="272.4" y2="205.1"/>
					<line class="st20" x1="274.6" y1="193.5" x2="274.6" y2="205.1"/>
					<line class="st20" x1="276.9" y1="193.5" x2="276.9" y2="205.1"/>
					<line class="st20" x1="279.1" y1="193.5" x2="279.1" y2="205.1"/>
					<line class="st20" x1="281.3" y1="193.5" x2="281.3" y2="205.1"/>
					<line class="st20" x1="283.5" y1="193.5" x2="283.5" y2="205.1"/>
					<line class="st20" x1="285.7" y1="193.5" x2="285.7" y2="205.1"/>
					<line class="st20" x1="288" y1="193.5" x2="288" y2="205.1"/>
					<line class="st20" x1="290.2" y1="193.5" x2="290.2" y2="205.1"/>
					<line class="st20" x1="292.4" y1="193.5" x2="292.4" y2="205.1"/>
					<line class="st20" x1="294.6" y1="193.5" x2="294.6" y2="205.1"/>
				</g>
			</g>
			<g>
				
					<rect x="167.1" y="192.6" transform="matrix(-1 -4.486201e-11 4.486201e-11 -1 366.5211 398.6433)" class="st3" width="32.3" height="13.5"/>
				
					<rect x="167.1" y="199.5" transform="matrix(-1 -4.486201e-11 4.486201e-11 -1 366.5211 405.558)" class="st3" width="32.3" height="6.6"/>
				<g>
					<line class="st20" x1="197.7" y1="193.5" x2="197.7" y2="205.1"/>
					<line class="st20" x1="195.5" y1="193.5" x2="195.5" y2="205.1"/>
					<line class="st20" x1="193.3" y1="193.5" x2="193.3" y2="205.1"/>
					<line class="st20" x1="191" y1="193.5" x2="191" y2="205.1"/>
					<line class="st20" x1="188.8" y1="193.5" x2="188.8" y2="205.1"/>
					<line class="st20" x1="186.6" y1="193.5" x2="186.6" y2="205.1"/>
					<line class="st20" x1="184.4" y1="193.5" x2="184.4" y2="205.1"/>
					<line class="st20" x1="182.1" y1="193.5" x2="182.1" y2="205.1"/>
					<line class="st20" x1="179.9" y1="193.5" x2="179.9" y2="205.1"/>
					<line class="st20" x1="177.7" y1="193.5" x2="177.7" y2="205.1"/>
					<line class="st20" x1="175.5" y1="193.5" x2="175.5" y2="205.1"/>
					<line class="st20" x1="173.3" y1="193.5" x2="173.3" y2="205.1"/>
					<line class="st20" x1="171" y1="193.5" x2="171" y2="205.1"/>
					<line class="st20" x1="168.8" y1="193.5" x2="168.8" y2="205.1"/>
				</g>
			</g>
			<g>
				<rect x="264" y="206.1" class="st11" width="32.3" height="13.5"/>
				<rect x="264" y="213" class="st11" width="32.3" height="6.6"/>
				<g>
					<line class="st19" x1="265.7" y1="207" x2="265.7" y2="218.6"/>
					<line class="st19" x1="268" y1="207" x2="268" y2="218.6"/>
					<line class="st19" x1="270.2" y1="207" x2="270.2" y2="218.6"/>
					<line class="st19" x1="272.4" y1="207" x2="272.4" y2="218.6"/>
					<line class="st19" x1="274.6" y1="207" x2="274.6" y2="218.6"/>
					<line class="st19" x1="276.9" y1="207" x2="276.9" y2="218.6"/>
					<line class="st19" x1="279.1" y1="207" x2="279.1" y2="218.6"/>
					<line class="st19" x1="281.3" y1="207" x2="281.3" y2="218.6"/>
					<line class="st19" x1="283.5" y1="207" x2="283.5" y2="218.6"/>
					<line class="st19" x1="285.7" y1="207" x2="285.7" y2="218.6"/>
					<line class="st19" x1="288" y1="207" x2="288" y2="218.6"/>
					<line class="st19" x1="290.2" y1="207" x2="290.2" y2="218.6"/>
					<line class="st19" x1="292.4" y1="207" x2="292.4" y2="218.6"/>
					<line class="st19" x1="294.6" y1="207" x2="294.6" y2="218.6"/>
				</g>
			</g>
			<g>
				<rect x="296.3" y="219.6" class="st11" width="32.3" height="13.5"/>
				<rect x="296.3" y="226.5" class="st11" width="32.3" height="6.6"/>
				<g>
					<line class="st19" x1="298.1" y1="220.5" x2="298.1" y2="232.1"/>
					<line class="st19" x1="300.3" y1="220.5" x2="300.3" y2="232.1"/>
					<line class="st19" x1="302.5" y1="220.5" x2="302.5" y2="232.1"/>
					<line class="st19" x1="304.7" y1="220.5" x2="304.7" y2="232.1"/>
					<line class="st19" x1="306.9" y1="220.5" x2="306.9" y2="232.1"/>
					<line class="st19" x1="309.2" y1="220.5" x2="309.2" y2="232.1"/>
					<line class="st19" x1="311.4" y1="220.5" x2="311.4" y2="232.1"/>
					<line class="st19" x1="313.6" y1="220.5" x2="313.6" y2="232.1"/>
					<line class="st19" x1="315.8" y1="220.5" x2="315.8" y2="232.1"/>
					<line class="st19" x1="318.1" y1="220.5" x2="318.1" y2="232.1"/>
					<line class="st19" x1="320.3" y1="220.5" x2="320.3" y2="232.1"/>
					<line class="st19" x1="322.5" y1="220.5" x2="322.5" y2="232.1"/>
					<line class="st19" x1="324.7" y1="220.5" x2="324.7" y2="232.1"/>
					<line class="st19" x1="327" y1="220.5" x2="327" y2="232.1"/>
				</g>
			</g>
			<g>
				<g>
					<polygon class="st21" points="151.8,202 154.2,197 128.7,197 117.8,197 117.8,218.4 151.8,218.4 					"/>
				</g>
				<g>
					<polygon class="st22" points="151.8,230.5 151.8,202 138.5,202 138.5,216.2 113.1,216.2 113.1,230.5 					"/>
				</g>
				<g>
					<path class="st23" d="M299.9,226.8l-6.3,6.3H162.6l-5-5c-1.2-1.2-2.9-1.9-4.7-1.9H73.3c-0.2,0-0.3,0.2-0.3,0.4l4.7,9.5
						c0.2,0.4,0.6,0.8,1.1,0.8l16.8,3.1c0.9,0.2,1.5,0.9,1.5,1.8v0.1c0,0.6-0.3,1.1-0.7,1.4l-2.8,2.1c-0.8,0.6-1.2,1.5-1.2,2.5v3.3
						c0,0.7,0.3,1.3,0.7,1.8l3.8,3.8c2.4,2.4,5.6,3.7,9,3.7h246.4c3.2,0,6.2-1.3,8.4-3.5l12.8-12.8c1.5-1.5,2.7-3.4,3.4-5.4
						l4.7-13.7c0.1-0.2-0.1-0.3-0.2-0.3h-77.2C302.7,224.9,301.1,225.6,299.9,226.8z"/>
				</g>
				<g>
					<path class="st24" d="M97,240.9c0.1,0.3,0.2,0.6,0.2,0.9v0.1c0,0.6-0.3,1.1-0.7,1.4l-2.8,2.1c-0.8,0.6-1.2,1.5-1.2,2.5v3.3
						c0,0.7,0.3,1.3,0.7,1.8l3.8,3.8c2.4,2.4,5.6,3.7,9,3.7h246.4c3.2,0,6.2-1.3,8.4-3.5l12.8-12.8c1-1,1.8-2.2,2.5-3.4H97z"/>
				</g>
				<g>
					<path class="st25" d="M93.2,253.1l3.8,3.8c2.4,2.4,5.6,3.7,9,3.7h246.4c3.2,0,6.2-1.3,8.4-3.5l12.8-12.8c1-1,1.8-2.2,2.5-3.4
						c0,0-16.7,13.6-29.5,13.6h-244c-2.4,0-4.8-1-6.5-2.7l-3.8-3.8v3.3C92.5,251.9,92.7,252.6,93.2,253.1z"/>
				</g>
				<g>
					<path class="st26" d="M367.7,233.1c0,0.9-0.8,1.7-1.7,1.7c-0.9,0-1.7-0.8-1.7-1.7c0-0.9,0.8-1.7,1.7-1.7
						C367,231.4,367.7,232.2,367.7,233.1z"/>
				</g>
				<g>
					<polygon class="st24" points="131,202 151.8,202 153.4,198.7 131,198.7 					"/>
				</g>
				<g>
					<polygon class="st25" points="152.9,199.6 131,199.6 131,198.7 153.4,198.7 					"/>
				</g>
				<g>
					<path class="st27" d="M154.2,197v-3.8H145c-1.1,0-2.1,0.4-2.8,1.2l0,0c-0.5,0.5-1.3,0.8-2,0.8h-22.3v1.8H154.2z"/>
				</g>
				<g>
					<rect x="146.4" y="204.6" class="st1" width="3" height="3.7"/>
				</g>
				<g>
					<rect x="146.4" y="204.6" class="st3" width="3" height="0.7"/>
				</g>
				<g>
					<g>
						<g>
							<rect x="141.4" y="204.6" class="st1" width="3" height="3.7"/>
						</g>
						<g>
							<rect x="141.4" y="204.6" class="st3" width="3" height="0.7"/>
						</g>
					</g>
				</g>
				<g>
					<g>
						<g>
							<rect x="141.4" y="211.8" class="st1" width="3" height="3.7"/>
						</g>
						<g>
							<rect x="141.4" y="211.8" class="st3" width="3" height="0.7"/>
						</g>
					</g>
				</g>
				<g>
					<g>
						<g>
							<rect x="146.4" y="211.8" class="st1" width="3" height="3.7"/>
						</g>
						<g>
							<rect x="146.4" y="211.8" class="st3" width="3" height="0.7"/>
						</g>
					</g>
				</g>
				<g>
					<rect x="83.3" y="218.4" class="st22" width="29.8" height="7.7"/>
				</g>
				<g>
					<rect x="112" y="218.4" class="st21" width="1.1" height="7.7"/>
				</g>
			</g>
			<g>
				
					<rect x="167.1" y="219.6" transform="matrix(-1 -4.514357e-11 4.514357e-11 -1 366.5211 452.6523)" class="st17" width="32.3" height="13.5"/>
				
					<rect x="167.1" y="226.5" transform="matrix(-1 -4.514357e-11 4.514357e-11 -1 366.5211 459.567)" class="st17" width="32.3" height="6.6"/>
				<g>
					<line class="st18" x1="197.7" y1="220.5" x2="197.7" y2="232.1"/>
					<line class="st18" x1="195.5" y1="220.5" x2="195.5" y2="232.1"/>
					<line class="st18" x1="193.3" y1="220.5" x2="193.3" y2="232.1"/>
					<line class="st18" x1="191" y1="220.5" x2="191" y2="232.1"/>
					<line class="st18" x1="188.8" y1="220.5" x2="188.8" y2="232.1"/>
					<line class="st18" x1="186.6" y1="220.5" x2="186.6" y2="232.1"/>
					<line class="st18" x1="184.4" y1="220.5" x2="184.4" y2="232.1"/>
					<line class="st18" x1="182.1" y1="220.5" x2="182.1" y2="232.1"/>
					<line class="st18" x1="179.9" y1="220.5" x2="179.9" y2="232.1"/>
					<line class="st18" x1="177.7" y1="220.5" x2="177.7" y2="232.1"/>
					<line class="st18" x1="175.5" y1="220.5" x2="175.5" y2="232.1"/>
					<line class="st18" x1="173.3" y1="220.5" x2="173.3" y2="232.1"/>
					<line class="st18" x1="171" y1="220.5" x2="171" y2="232.1"/>
					<line class="st18" x1="168.8" y1="220.5" x2="168.8" y2="232.1"/>
				</g>
			</g>
		</g>
	</g>
	<g>
		<defs>
			<rect id="SVGID_1_" x="31.7" y="88.3" width="316.5" height="89.5"/>
		</defs>
		<clipPath id="SVGID_6_">
			<use xlink:href="#SVGID_1_"  style="overflow:visible;"/>
		</clipPath>
		<g class="st28">
			<g>
				<rect x="155.5" y="137.6" class="st15" width="32.9" height="13.7"/>
				<rect x="155.5" y="144.7" class="st15" width="32.9" height="6.7"/>
				<g>
					<line class="st29" x1="157.3" y1="138.6" x2="157.3" y2="150.4"/>
					<line class="st29" x1="159.5" y1="138.6" x2="159.5" y2="150.4"/>
					<line class="st29" x1="161.8" y1="138.6" x2="161.8" y2="150.4"/>
					<line class="st29" x1="164.1" y1="138.6" x2="164.1" y2="150.4"/>
					<line class="st29" x1="166.3" y1="138.6" x2="166.3" y2="150.4"/>
					<line class="st29" x1="168.6" y1="138.6" x2="168.6" y2="150.4"/>
					<line class="st29" x1="170.8" y1="138.6" x2="170.8" y2="150.4"/>
					<line class="st29" x1="173.1" y1="138.6" x2="173.1" y2="150.4"/>
					<line class="st29" x1="175.4" y1="138.6" x2="175.4" y2="150.4"/>
					<line class="st29" x1="177.6" y1="138.6" x2="177.6" y2="150.4"/>
					<line class="st29" x1="179.9" y1="138.6" x2="179.9" y2="150.4"/>
					<line class="st29" x1="182.2" y1="138.6" x2="182.2" y2="150.4"/>
					<line class="st29" x1="184.4" y1="138.6" x2="184.4" y2="150.4"/>
					<line class="st29" x1="186.7" y1="138.6" x2="186.7" y2="150.4"/>
				</g>
			</g>
			<g>
				<rect x="155.5" y="137.6" class="st11" width="32.9" height="13.7"/>
				<rect x="155.5" y="144.7" class="st11" width="32.9" height="6.7"/>
				<g>
					<line class="st30" x1="157.3" y1="138.6" x2="157.3" y2="150.4"/>
					<line class="st30" x1="159.5" y1="138.6" x2="159.5" y2="150.4"/>
					<line class="st30" x1="161.8" y1="138.6" x2="161.8" y2="150.4"/>
					<line class="st30" x1="164.1" y1="138.6" x2="164.1" y2="150.4"/>
					<line class="st30" x1="166.3" y1="138.6" x2="166.3" y2="150.4"/>
					<line class="st30" x1="168.6" y1="138.6" x2="168.6" y2="150.4"/>
					<line class="st30" x1="170.8" y1="138.6" x2="170.8" y2="150.4"/>
					<line class="st30" x1="173.1" y1="138.6" x2="173.1" y2="150.4"/>
					<line class="st30" x1="175.4" y1="138.6" x2="175.4" y2="150.4"/>
					<line class="st30" x1="177.6" y1="138.6" x2="177.6" y2="150.4"/>
					<line class="st30" x1="179.9" y1="138.6" x2="179.9" y2="150.4"/>
					<line class="st30" x1="182.2" y1="138.6" x2="182.2" y2="150.4"/>
					<line class="st30" x1="184.4" y1="138.6" x2="184.4" y2="150.4"/>
					<line class="st30" x1="186.7" y1="138.6" x2="186.7" y2="150.4"/>
				</g>
			</g>
			<g>
				<rect x="155.5" y="110.2" class="st11" width="32.9" height="13.7"/>
				<rect x="155.5" y="117.2" class="st11" width="32.9" height="6.7"/>
				<g>
					<line class="st30" x1="157.3" y1="111.1" x2="157.3" y2="122.9"/>
					<line class="st30" x1="159.5" y1="111.1" x2="159.5" y2="122.9"/>
					<line class="st30" x1="161.8" y1="111.1" x2="161.8" y2="122.9"/>
					<line class="st30" x1="164.1" y1="111.1" x2="164.1" y2="122.9"/>
					<line class="st30" x1="166.3" y1="111.1" x2="166.3" y2="122.9"/>
					<line class="st30" x1="168.6" y1="111.1" x2="168.6" y2="122.9"/>
					<line class="st30" x1="170.8" y1="111.1" x2="170.8" y2="122.9"/>
					<line class="st30" x1="173.1" y1="111.1" x2="173.1" y2="122.9"/>
					<line class="st30" x1="175.4" y1="111.1" x2="175.4" y2="122.9"/>
					<line class="st30" x1="177.6" y1="111.1" x2="177.6" y2="122.9"/>
					<line class="st30" x1="179.9" y1="111.1" x2="179.9" y2="122.9"/>
					<line class="st30" x1="182.2" y1="111.1" x2="182.2" y2="122.9"/>
					<line class="st30" x1="184.4" y1="111.1" x2="184.4" y2="122.9"/>
					<line class="st30" x1="186.7" y1="111.1" x2="186.7" y2="122.9"/>
				</g>
			</g>
			<g>
				<rect x="122.7" y="137.6" class="st17" width="32.9" height="13.7"/>
				<rect x="122.7" y="144.7" class="st17" width="32.9" height="6.7"/>
				<g>
					<line class="st31" x1="124.4" y1="138.6" x2="124.4" y2="150.4"/>
					<line class="st31" x1="126.7" y1="138.6" x2="126.7" y2="150.4"/>
					<line class="st31" x1="128.9" y1="138.6" x2="128.9" y2="150.4"/>
					<line class="st31" x1="131.2" y1="138.6" x2="131.2" y2="150.4"/>
					<line class="st31" x1="133.4" y1="138.6" x2="133.4" y2="150.4"/>
					<line class="st31" x1="135.7" y1="138.6" x2="135.7" y2="150.4"/>
					<line class="st31" x1="138" y1="138.6" x2="138" y2="150.4"/>
					<line class="st31" x1="140.2" y1="138.6" x2="140.2" y2="150.4"/>
					<line class="st31" x1="142.5" y1="138.6" x2="142.5" y2="150.4"/>
					<line class="st31" x1="144.8" y1="138.6" x2="144.8" y2="150.4"/>
					<line class="st31" x1="147" y1="138.6" x2="147" y2="150.4"/>
					<line class="st31" x1="149.3" y1="138.6" x2="149.3" y2="150.4"/>
					<line class="st31" x1="151.5" y1="138.6" x2="151.5" y2="150.4"/>
					<line class="st31" x1="153.8" y1="138.6" x2="153.8" y2="150.4"/>
				</g>
			</g>
			<g>
				<rect x="188.4" y="137.6" class="st11" width="32.9" height="13.7"/>
				<rect x="188.4" y="144.7" class="st11" width="32.9" height="6.7"/>
				<g>
					<line class="st30" x1="190.2" y1="138.6" x2="190.2" y2="150.4"/>
					<line class="st30" x1="192.4" y1="138.6" x2="192.4" y2="150.4"/>
					<line class="st30" x1="194.7" y1="138.6" x2="194.7" y2="150.4"/>
					<line class="st30" x1="197" y1="138.6" x2="197" y2="150.4"/>
					<line class="st30" x1="199.2" y1="138.6" x2="199.2" y2="150.4"/>
					<line class="st30" x1="201.5" y1="138.6" x2="201.5" y2="150.4"/>
					<line class="st30" x1="203.8" y1="138.6" x2="203.8" y2="150.4"/>
					<line class="st30" x1="206" y1="138.6" x2="206" y2="150.4"/>
					<line class="st30" x1="208.3" y1="138.6" x2="208.3" y2="150.4"/>
					<line class="st30" x1="210.5" y1="138.6" x2="210.5" y2="150.4"/>
					<line class="st30" x1="212.8" y1="138.6" x2="212.8" y2="150.4"/>
					<line class="st30" x1="215.1" y1="138.6" x2="215.1" y2="150.4"/>
					<line class="st30" x1="217.3" y1="138.6" x2="217.3" y2="150.4"/>
					<line class="st30" x1="219.6" y1="138.6" x2="219.6" y2="150.4"/>
				</g>
			</g>
			<g>
				
					<rect x="221.3" y="137.6" transform="matrix(-1 -1.224647e-16 1.224647e-16 -1 475.4163 288.9815)" class="st11" width="32.9" height="13.7"/>
				
					<rect x="221.3" y="137.6" transform="matrix(-1 -1.224647e-16 1.224647e-16 -1 475.4163 281.947)" class="st11" width="32.9" height="6.7"/>
				<g>
					<line class="st30" x1="252.4" y1="150.4" x2="252.4" y2="138.6"/>
					<line class="st30" x1="250.1" y1="150.4" x2="250.1" y2="138.6"/>
					<line class="st30" x1="247.9" y1="150.4" x2="247.9" y2="138.6"/>
					<line class="st30" x1="245.6" y1="150.4" x2="245.6" y2="138.6"/>
					<line class="st30" x1="243.4" y1="150.4" x2="243.4" y2="138.6"/>
					<line class="st30" x1="241.1" y1="150.4" x2="241.1" y2="138.6"/>
					<line class="st30" x1="238.8" y1="150.4" x2="238.8" y2="138.6"/>
					<line class="st30" x1="236.6" y1="150.4" x2="236.6" y2="138.6"/>
					<line class="st30" x1="234.3" y1="150.4" x2="234.3" y2="138.6"/>
					<line class="st30" x1="232.1" y1="150.4" x2="232.1" y2="138.6"/>
					<line class="st30" x1="229.8" y1="150.4" x2="229.8" y2="138.6"/>
					<line class="st30" x1="227.5" y1="150.4" x2="227.5" y2="138.6"/>
					<line class="st30" x1="225.3" y1="150.4" x2="225.3" y2="138.6"/>
					<line class="st30" x1="223" y1="150.4" x2="223" y2="138.6"/>
				</g>
			</g>
			<g>
				<rect x="221.3" y="137.6" class="st3" width="32.9" height="13.7"/>
				<rect x="221.3" y="144.7" class="st3" width="32.9" height="6.7"/>
				<g>
					<line class="st32" x1="223" y1="138.6" x2="223" y2="150.4"/>
					<line class="st32" x1="225.3" y1="138.6" x2="225.3" y2="150.4"/>
					<line class="st32" x1="227.5" y1="138.6" x2="227.5" y2="150.4"/>
					<line class="st32" x1="229.8" y1="138.6" x2="229.8" y2="150.4"/>
					<line class="st32" x1="232.1" y1="138.6" x2="232.1" y2="150.4"/>
					<line class="st32" x1="234.3" y1="138.6" x2="234.3" y2="150.4"/>
					<line class="st32" x1="236.6" y1="138.6" x2="236.6" y2="150.4"/>
					<line class="st32" x1="238.8" y1="138.6" x2="238.8" y2="150.4"/>
					<line class="st32" x1="241.1" y1="138.6" x2="241.1" y2="150.4"/>
					<line class="st32" x1="243.4" y1="138.6" x2="243.4" y2="150.4"/>
					<line class="st32" x1="245.6" y1="138.6" x2="245.6" y2="150.4"/>
					<line class="st32" x1="247.9" y1="138.6" x2="247.9" y2="150.4"/>
					<line class="st32" x1="250.1" y1="138.6" x2="250.1" y2="150.4"/>
					<line class="st32" x1="252.4" y1="138.6" x2="252.4" y2="150.4"/>
				</g>
			</g>
			<g>
				
					<rect x="155.5" y="123.9" transform="matrix(-1 -4.503832e-11 4.503832e-11 -1 343.9488 261.509)" class="st3" width="32.9" height="13.7"/>
				
					<rect x="155.5" y="130.9" transform="matrix(-1 -4.503832e-11 4.503832e-11 -1 343.9488 268.5435)" class="st3" width="32.9" height="6.7"/>
				<g>
					<line class="st32" x1="186.7" y1="124.8" x2="186.7" y2="136.7"/>
					<line class="st32" x1="184.4" y1="124.8" x2="184.4" y2="136.7"/>
					<line class="st32" x1="182.2" y1="124.8" x2="182.2" y2="136.7"/>
					<line class="st32" x1="179.9" y1="124.8" x2="179.9" y2="136.7"/>
					<line class="st32" x1="177.6" y1="124.8" x2="177.6" y2="136.7"/>
					<line class="st32" x1="175.4" y1="124.8" x2="175.4" y2="136.7"/>
					<line class="st32" x1="173.1" y1="124.8" x2="173.1" y2="136.7"/>
					<line class="st32" x1="170.8" y1="124.8" x2="170.8" y2="136.7"/>
					<line class="st32" x1="168.6" y1="124.8" x2="168.6" y2="136.7"/>
					<line class="st32" x1="166.3" y1="124.8" x2="166.3" y2="136.7"/>
					<line class="st32" x1="164.1" y1="124.8" x2="164.1" y2="136.7"/>
					<line class="st32" x1="161.8" y1="124.8" x2="161.8" y2="136.7"/>
					<line class="st32" x1="159.5" y1="124.8" x2="159.5" y2="136.7"/>
					<line class="st32" x1="157.3" y1="124.8" x2="157.3" y2="136.7"/>
				</g>
			</g>
			<g>
				<rect x="89.8" y="137.6" class="st15" width="32.9" height="13.7"/>
				<rect x="89.8" y="144.7" class="st15" width="32.9" height="6.7"/>
				<g>
					<line class="st29" x1="91.5" y1="138.6" x2="91.5" y2="150.4"/>
					<line class="st29" x1="93.8" y1="138.6" x2="93.8" y2="150.4"/>
					<line class="st29" x1="96" y1="138.6" x2="96" y2="150.4"/>
					<line class="st29" x1="98.3" y1="138.6" x2="98.3" y2="150.4"/>
					<line class="st29" x1="100.6" y1="138.6" x2="100.6" y2="150.4"/>
					<line class="st29" x1="102.8" y1="138.6" x2="102.8" y2="150.4"/>
					<line class="st29" x1="105.1" y1="138.6" x2="105.1" y2="150.4"/>
					<line class="st29" x1="107.4" y1="138.6" x2="107.4" y2="150.4"/>
					<line class="st29" x1="109.6" y1="138.6" x2="109.6" y2="150.4"/>
					<line class="st29" x1="111.9" y1="138.6" x2="111.9" y2="150.4"/>
					<line class="st29" x1="114.1" y1="138.6" x2="114.1" y2="150.4"/>
					<line class="st29" x1="116.4" y1="138.6" x2="116.4" y2="150.4"/>
					<line class="st29" x1="118.7" y1="138.6" x2="118.7" y2="150.4"/>
					<line class="st29" x1="120.9" y1="138.6" x2="120.9" y2="150.4"/>
				</g>
			</g>
			<g>
				<rect x="89.8" y="137.6" class="st11" width="32.9" height="13.7"/>
				<rect x="89.8" y="144.7" class="st11" width="32.9" height="6.7"/>
				<g>
					<line class="st30" x1="91.5" y1="138.6" x2="91.5" y2="150.4"/>
					<line class="st30" x1="93.8" y1="138.6" x2="93.8" y2="150.4"/>
					<line class="st30" x1="96" y1="138.6" x2="96" y2="150.4"/>
					<line class="st30" x1="98.3" y1="138.6" x2="98.3" y2="150.4"/>
					<line class="st30" x1="100.6" y1="138.6" x2="100.6" y2="150.4"/>
					<line class="st30" x1="102.8" y1="138.6" x2="102.8" y2="150.4"/>
					<line class="st30" x1="105.1" y1="138.6" x2="105.1" y2="150.4"/>
					<line class="st30" x1="107.4" y1="138.6" x2="107.4" y2="150.4"/>
					<line class="st30" x1="109.6" y1="138.6" x2="109.6" y2="150.4"/>
					<line class="st30" x1="111.9" y1="138.6" x2="111.9" y2="150.4"/>
					<line class="st30" x1="114.1" y1="138.6" x2="114.1" y2="150.4"/>
					<line class="st30" x1="116.4" y1="138.6" x2="116.4" y2="150.4"/>
					<line class="st30" x1="118.7" y1="138.6" x2="118.7" y2="150.4"/>
					<line class="st30" x1="120.9" y1="138.6" x2="120.9" y2="150.4"/>
				</g>
			</g>
			<g>
				
					<rect x="89.8" y="123.9" transform="matrix(-1 -4.503832e-11 4.503832e-11 -1 212.4467 261.509)" class="st3" width="32.9" height="13.7"/>
				
					<rect x="89.8" y="130.9" transform="matrix(-1 -4.503832e-11 4.503832e-11 -1 212.4467 268.5435)" class="st3" width="32.9" height="6.7"/>
				<g>
					<line class="st32" x1="120.9" y1="124.8" x2="120.9" y2="136.7"/>
					<line class="st32" x1="118.7" y1="124.8" x2="118.7" y2="136.7"/>
					<line class="st32" x1="116.4" y1="124.8" x2="116.4" y2="136.7"/>
					<line class="st32" x1="114.1" y1="124.8" x2="114.1" y2="136.7"/>
					<line class="st32" x1="111.9" y1="124.8" x2="111.9" y2="136.7"/>
					<line class="st32" x1="109.6" y1="124.8" x2="109.6" y2="136.7"/>
					<line class="st32" x1="107.4" y1="124.8" x2="107.4" y2="136.7"/>
					<line class="st32" x1="105.1" y1="124.8" x2="105.1" y2="136.7"/>
					<line class="st32" x1="102.8" y1="124.8" x2="102.8" y2="136.7"/>
					<line class="st32" x1="100.6" y1="124.8" x2="100.6" y2="136.7"/>
					<line class="st32" x1="98.3" y1="124.8" x2="98.3" y2="136.7"/>
					<line class="st32" x1="96" y1="124.8" x2="96" y2="136.7"/>
					<line class="st32" x1="93.8" y1="124.8" x2="93.8" y2="136.7"/>
					<line class="st32" x1="91.5" y1="124.8" x2="91.5" y2="136.7"/>
				</g>
			</g>
			<g>
				
					<rect x="89.8" y="110.2" transform="matrix(-1 -4.470658e-11 4.470658e-11 -1 212.4467 234.0365)" class="st3" width="32.9" height="13.7"/>
				
					<rect x="89.8" y="117.2" transform="matrix(-1 -4.470658e-11 4.470658e-11 -1 212.4467 241.071)" class="st3" width="32.9" height="6.7"/>
				<g>
					<line class="st32" x1="120.9" y1="111.1" x2="120.9" y2="122.9"/>
					<line class="st32" x1="118.7" y1="111.1" x2="118.7" y2="122.9"/>
					<line class="st32" x1="116.4" y1="111.1" x2="116.4" y2="122.9"/>
					<line class="st32" x1="114.1" y1="111.1" x2="114.1" y2="122.9"/>
					<line class="st32" x1="111.9" y1="111.1" x2="111.9" y2="122.9"/>
					<line class="st32" x1="109.6" y1="111.1" x2="109.6" y2="122.9"/>
					<line class="st32" x1="107.4" y1="111.1" x2="107.4" y2="122.9"/>
					<line class="st32" x1="105.1" y1="111.1" x2="105.1" y2="122.9"/>
					<line class="st32" x1="102.8" y1="111.1" x2="102.8" y2="122.9"/>
					<line class="st32" x1="100.6" y1="111.1" x2="100.6" y2="122.9"/>
					<line class="st32" x1="98.3" y1="111.1" x2="98.3" y2="122.9"/>
					<line class="st32" x1="96" y1="111.1" x2="96" y2="122.9"/>
					<line class="st32" x1="93.8" y1="111.1" x2="93.8" y2="122.9"/>
					<line class="st32" x1="91.5" y1="111.1" x2="91.5" y2="122.9"/>
				</g>
			</g>
			<g>
				
					<rect x="122.7" y="110.1" transform="matrix(-1 -4.437440e-11 4.437440e-11 -1 278.1953 234.0342)" class="st3" width="32.9" height="13.7"/>
				
					<rect x="122.7" y="117.2" transform="matrix(-1 -4.437440e-11 4.437440e-11 -1 278.1953 241.0687)" class="st3" width="32.9" height="6.7"/>
				<g>
					<line class="st32" x1="153.8" y1="111.1" x2="153.8" y2="122.9"/>
					<line class="st32" x1="151.5" y1="111.1" x2="151.5" y2="122.9"/>
					<line class="st32" x1="149.3" y1="111.1" x2="149.3" y2="122.9"/>
					<line class="st32" x1="147" y1="111.1" x2="147" y2="122.9"/>
					<line class="st32" x1="144.8" y1="111.1" x2="144.8" y2="122.9"/>
					<line class="st32" x1="142.5" y1="111.1" x2="142.5" y2="122.9"/>
					<line class="st32" x1="140.2" y1="111.1" x2="140.2" y2="122.9"/>
					<line class="st32" x1="138" y1="111.1" x2="138" y2="122.9"/>
					<line class="st32" x1="135.7" y1="111.1" x2="135.7" y2="122.9"/>
					<line class="st32" x1="133.4" y1="111.1" x2="133.4" y2="122.9"/>
					<line class="st32" x1="131.2" y1="111.1" x2="131.2" y2="122.9"/>
					<line class="st32" x1="128.9" y1="111.1" x2="128.9" y2="122.9"/>
					<line class="st32" x1="126.7" y1="111.1" x2="126.7" y2="122.9"/>
					<line class="st32" x1="124.4" y1="111.1" x2="124.4" y2="122.9"/>
				</g>
			</g>
			<g>
				
					<rect x="122.7" y="96.4" transform="matrix(-1 -4.470658e-11 4.470658e-11 -1 278.1953 206.5899)" class="st3" width="32.9" height="13.7"/>
				
					<rect x="122.7" y="103.5" transform="matrix(-1 -4.470658e-11 4.470658e-11 -1 278.1953 213.6244)" class="st3" width="32.9" height="6.7"/>
				<g>
					<line class="st32" x1="153.8" y1="97.4" x2="153.8" y2="109.2"/>
					<line class="st32" x1="151.5" y1="97.4" x2="151.5" y2="109.2"/>
					<line class="st32" x1="149.3" y1="97.4" x2="149.3" y2="109.2"/>
					<line class="st32" x1="147" y1="97.4" x2="147" y2="109.2"/>
					<line class="st32" x1="144.8" y1="97.4" x2="144.8" y2="109.2"/>
					<line class="st32" x1="142.5" y1="97.4" x2="142.5" y2="109.2"/>
					<line class="st32" x1="140.2" y1="97.4" x2="140.2" y2="109.2"/>
					<line class="st32" x1="138" y1="97.4" x2="138" y2="109.2"/>
					<line class="st32" x1="135.7" y1="97.4" x2="135.7" y2="109.2"/>
					<line class="st32" x1="133.4" y1="97.4" x2="133.4" y2="109.2"/>
					<line class="st32" x1="131.2" y1="97.4" x2="131.2" y2="109.2"/>
					<line class="st32" x1="128.9" y1="97.4" x2="128.9" y2="109.2"/>
					<line class="st32" x1="126.7" y1="97.4" x2="126.7" y2="109.2"/>
					<line class="st32" x1="124.4" y1="97.4" x2="124.4" y2="109.2"/>
				</g>
			</g>
			<g>
				<rect x="221.3" y="110.2" class="st3" width="32.9" height="13.7"/>
				<rect x="221.3" y="117.2" class="st3" width="32.9" height="6.7"/>
				<g>
					<line class="st32" x1="223" y1="111.1" x2="223" y2="122.9"/>
					<line class="st32" x1="225.3" y1="111.1" x2="225.3" y2="122.9"/>
					<line class="st32" x1="227.5" y1="111.1" x2="227.5" y2="122.9"/>
					<line class="st32" x1="229.8" y1="111.1" x2="229.8" y2="122.9"/>
					<line class="st32" x1="232.1" y1="111.1" x2="232.1" y2="122.9"/>
					<line class="st32" x1="234.3" y1="111.1" x2="234.3" y2="122.9"/>
					<line class="st32" x1="236.6" y1="111.1" x2="236.6" y2="122.9"/>
					<line class="st32" x1="238.8" y1="111.1" x2="238.8" y2="122.9"/>
					<line class="st32" x1="241.1" y1="111.1" x2="241.1" y2="122.9"/>
					<line class="st32" x1="243.4" y1="111.1" x2="243.4" y2="122.9"/>
					<line class="st32" x1="245.6" y1="111.1" x2="245.6" y2="122.9"/>
					<line class="st32" x1="247.9" y1="111.1" x2="247.9" y2="122.9"/>
					<line class="st32" x1="250.1" y1="111.1" x2="250.1" y2="122.9"/>
					<line class="st32" x1="252.4" y1="111.1" x2="252.4" y2="122.9"/>
				</g>
			</g>
			<g>
				
					<rect x="122.7" y="123.9" transform="matrix(-1 -4.470658e-11 4.470658e-11 -1 278.1978 261.509)" class="st11" width="32.9" height="13.7"/>
				
					<rect x="122.7" y="130.9" transform="matrix(-1 -4.470658e-11 4.470658e-11 -1 278.1978 268.5435)" class="st11" width="32.9" height="6.7"/>
				<g>
					<line class="st30" x1="153.8" y1="124.8" x2="153.8" y2="136.7"/>
					<line class="st30" x1="151.5" y1="124.8" x2="151.5" y2="136.7"/>
					<line class="st30" x1="149.3" y1="124.8" x2="149.3" y2="136.7"/>
					<line class="st30" x1="147" y1="124.8" x2="147" y2="136.7"/>
					<line class="st30" x1="144.8" y1="124.8" x2="144.8" y2="136.7"/>
					<line class="st30" x1="142.5" y1="124.8" x2="142.5" y2="136.7"/>
					<line class="st30" x1="140.2" y1="124.8" x2="140.2" y2="136.7"/>
					<line class="st30" x1="138" y1="124.8" x2="138" y2="136.7"/>
					<line class="st30" x1="135.7" y1="124.8" x2="135.7" y2="136.7"/>
					<line class="st30" x1="133.4" y1="124.8" x2="133.4" y2="136.7"/>
					<line class="st30" x1="131.2" y1="124.8" x2="131.2" y2="136.7"/>
					<line class="st30" x1="128.9" y1="124.8" x2="128.9" y2="136.7"/>
					<line class="st30" x1="126.7" y1="124.8" x2="126.7" y2="136.7"/>
					<line class="st30" x1="124.4" y1="124.8" x2="124.4" y2="136.7"/>
				</g>
			</g>
			<g>
				<g>
					<polygon class="st21" points="269.7,119.7 267.3,114.6 293.3,114.6 304.3,114.6 304.3,136.4 269.7,136.4 					"/>
				</g>
				<g>
					<polygon class="st22" points="269.7,148.8 269.7,119.7 283.2,119.7 283.2,134.2 309.1,134.2 309.1,148.8 					"/>
				</g>
				<g>
					<path class="st23" d="M119.1,144.9l6.4,6.4h133.3l5-5c1.3-1.3,3-2,4.8-2h81c0.2,0,0.4,0.2,0.3,0.4l-4.8,9.6
						c-0.2,0.4-0.6,0.8-1.1,0.9l-17.1,3.2c-0.9,0.2-1.5,0.9-1.5,1.8v0.1c0,0.6,0.3,1.1,0.7,1.5l2.9,2.2c0.8,0.6,1.3,1.5,1.3,2.6v3.4
						c0,0.7-0.3,1.3-0.8,1.8l-3.9,3.9c-2.4,2.4-5.7,3.8-9.2,3.8H65.5c-3.2,0-6.3-1.3-8.6-3.6l-13.1-13.1c-1.5-1.5-2.7-3.4-3.4-5.5
						l-4.8-13.9c-0.1-0.2,0.1-0.3,0.2-0.3h78.5C116.2,143,117.8,143.7,119.1,144.9z"/>
				</g>
				<g>
					<path class="st9" d="M325.4,159.3c-0.1,0.3-0.2,0.6-0.2,0.9v0.1c0,0.6,0.3,1.1,0.7,1.5l2.9,2.2c0.8,0.6,1.3,1.5,1.3,2.6v3.4
						c0,0.7-0.3,1.3-0.8,1.8l-3.9,3.9c-2.4,2.4-5.7,3.8-9.2,3.8H65.5c-3.2,0-6.3-1.3-8.6-3.6l-13.1-13.1c-1-1-1.9-2.2-2.5-3.5H325.4
						z"/>
				</g>
				<g>
					<path class="st33" d="M329.3,171.7l-3.9,3.9c-2.4,2.4-5.7,3.8-9.2,3.8H65.5c-3.2,0-6.3-1.3-8.6-3.6l-13.1-13.1
						c-1-1-1.9-2.2-2.5-3.5c0,0,16.9,13.8,30.1,13.8h248.2c2.5,0,4.9-1,6.6-2.8l3.8-3.9v3.4C330.1,170.6,329.8,171.2,329.3,171.7z"
						/>
				</g>
				<g>
					<path class="st26" d="M50,151.4c0,0.9,0.8,1.7,1.7,1.7s1.7-0.8,1.7-1.7c0-0.9-0.8-1.7-1.7-1.7S50,150.4,50,151.4z"/>
				</g>
				<g>
					<polygon class="st24" points="290.8,119.7 269.7,119.7 268.1,116.3 290.8,116.3 					"/>
				</g>
				<g>
					<polygon class="st25" points="268.5,117.3 290.8,117.3 290.8,116.3 268.1,116.3 					"/>
				</g>
				<g>
					<path class="st9" d="M267.3,114.6v-3.8h9.4c1.1,0,2.1,0.4,2.9,1.2l0,0c0.6,0.6,1.3,0.9,2.1,0.9h22.7v1.8H267.3z"/>
				</g>
				<g>
					<rect x="272.2" y="122.4" class="st1" width="3.1" height="3.7"/>
				</g>
				<g>
					<rect x="272.2" y="122.4" class="st3" width="3.1" height="0.7"/>
				</g>
				<g>
					<g>
						<g>
							<rect x="277.2" y="122.4" class="st1" width="3.1" height="3.7"/>
						</g>
						<g>
							<rect x="277.2" y="122.4" class="st3" width="3.1" height="0.7"/>
						</g>
					</g>
				</g>
				<g>
					<g>
						<g>
							<rect x="277.2" y="129.7" class="st1" width="3.1" height="3.7"/>
						</g>
						<g>
							<rect x="277.2" y="129.7" class="st3" width="3.1" height="0.7"/>
						</g>
					</g>
				</g>
				<g>
					<g>
						<g>
							<rect x="272.2" y="129.7" class="st1" width="3.1" height="3.7"/>
						</g>
						<g>
							<rect x="272.2" y="129.7" class="st3" width="3.1" height="0.7"/>
						</g>
					</g>
				</g>
				<g>
					<rect x="309.1" y="136.4" class="st22" width="28" height="7.9"/>
				</g>
				<g>
					<rect x="309.1" y="136.4" class="st21" width="1.1" height="7.9"/>
				</g>
			</g>
			<g>
				
					<rect x="221.3" y="123.9" transform="matrix(-1 -1.224647e-16 1.224647e-16 -1 475.4163 261.509)" class="st17" width="32.9" height="13.7"/>
				
					<rect x="221.3" y="123.9" transform="matrix(-1 -1.224647e-16 1.224647e-16 -1 475.4163 254.4745)" class="st17" width="32.9" height="6.7"/>
				<g>
					<line class="st31" x1="252.4" y1="136.7" x2="252.4" y2="124.8"/>
					<line class="st31" x1="250.1" y1="136.7" x2="250.1" y2="124.8"/>
					<line class="st31" x1="247.9" y1="136.7" x2="247.9" y2="124.8"/>
					<line class="st31" x1="245.6" y1="136.7" x2="245.6" y2="124.8"/>
					<line class="st31" x1="243.4" y1="136.7" x2="243.4" y2="124.8"/>
					<line class="st31" x1="241.1" y1="136.7" x2="241.1" y2="124.8"/>
					<line class="st31" x1="238.8" y1="136.7" x2="238.8" y2="124.8"/>
					<line class="st31" x1="236.6" y1="136.7" x2="236.6" y2="124.8"/>
					<line class="st31" x1="234.3" y1="136.7" x2="234.3" y2="124.8"/>
					<line class="st31" x1="232.1" y1="136.7" x2="232.1" y2="124.8"/>
					<line class="st31" x1="229.8" y1="136.7" x2="229.8" y2="124.8"/>
					<line class="st31" x1="227.5" y1="136.7" x2="227.5" y2="124.8"/>
					<line class="st31" x1="225.3" y1="136.7" x2="225.3" y2="124.8"/>
					<line class="st31" x1="223" y1="136.7" x2="223" y2="124.8"/>
				</g>
			</g>
		</g>
	</g>
	<g>
		<path class="st34" d="M314.7,178.3c-2.4-1.3-6.2-2.1-10.4-2.1c-3.7,0-7,0.6-9.4,1.6"/>
		<path class="st34" d="M295.1,178.3c-2.4-1.3-6.2-2.1-10.4-2.1c-3.7,0-7,0.6-9.4,1.6"/>
		<path class="st34" d="M275.4,178.3c-2.4-1.3-6.2-2.1-10.4-2.1c-3.7,0-7,0.6-9.4,1.6"/>
		<path class="st34" d="M255.8,178.3c-2.4-1.3-6.2-2.1-10.4-2.1c-3.7,0-7,0.6-9.4,1.6"/>
		<path class="st34" d="M236.1,178.3c-2.4-1.3-6.2-2.1-10.4-2.1c-3.7,0-7,0.6-9.4,1.6"/>
		<path class="st34" d="M216.5,178.3c-2.4-1.3-6.2-2.1-10.4-2.1c-3.7,0-7,0.6-9.4,1.6"/>
		<path class="st34" d="M196.8,178.3c-2.4-1.3-6.2-2.1-10.4-2.1c-3.7,0-7,0.6-9.4,1.6"/>
		<path class="st34" d="M177.2,178.3c-2.4-1.3-6.2-2.1-10.4-2.1c-3.7,0-7,0.6-9.4,1.6"/>
		<path class="st34" d="M157.5,178.3c-2.4-1.3-6.2-2.1-10.4-2.1c-3.7,0-7,0.6-9.4,1.6"/>
		<path class="st34" d="M137.8,178.3c-2.4-1.3-6.2-2.1-10.4-2.1c-3.7,0-7,0.6-9.4,1.6"/>
		<path class="st34" d="M118.2,178.3c-2.4-1.3-6.2-2.1-10.4-2.1c-3.7,0-7,0.6-9.4,1.6"/>
		<path class="st34" d="M98.5,178.3c-2.4-1.3-6.2-2.1-10.4-2.1c-3.7,0-7,0.6-9.4,1.6"/>
		<path class="st34" d="M78.9,178.3c-2.4-1.3-6.2-2.1-10.4-2.1c-3.7,0-7,0.6-9.4,1.6"/>
	</g>
	<path class="st35" d="M357.3,259.8c0,0-3-1.1-5.8-2.5c-3.7-1.9-7.6-2.6-11.6-1.1c-3.4,1.2-2.2,3.6-2.2,3.6H357.3z"/>
	<path class="st35" d="M288,259.8c-0.9-0.2-1.3-0.3-2.5-1c-2.7-1.9-7.4-2.3-11.3-0.8c-1.5,0.6-2,1.3-2.2,1.9L288,259.8z"/>
	<path class="st35" d="M218.9,260c-0.2-0.1-0.6-0.4-0.8-0.5c-3-2-6.1-2.1-10.1-0.5c-0.7,0.3-1.2,0.6-1.6,0.9
		C206.1,260.2,218.9,260,218.9,260z"/>
	<g>
		<path class="st1" d="M334.7,259.8c-2.5-1.2-6.2-1.9-10.5-1.8c-3.7,0.1-6.9,0.8-9.3,1.8"/>
		<path class="st1" d="M314.3,259.9c-2.5-1.2-6.2-1.9-10.5-1.8c-3.7,0.1-6.9,0.8-9.3,1.8"/>
		<path class="st1" d="M293.9,260c-2.4-1.2-6.2-1.9-10.5-1.8c-3.7,0.1-6.9,0.7-9.3,1.8"/>
		<path class="st1" d="M273.5,260c-2.4-1.2-6.2-1.9-10.4-1.9c-3.7,0.1-6.9,0.7-9.3,1.8"/>
		<path class="st1" d="M253.1,260.1c-2.4-1.2-6.2-1.9-10.4-1.9c-3.7,0.1-7,0.7-9.3,1.7"/>
		<path class="st1" d="M232.7,260.2c-2.4-1.2-6.2-2-10.4-1.9c-3.7,0.1-7,0.7-9.3,1.7"/>
		<path class="st1" d="M212.3,260.3c-2.4-1.2-6.2-2-10.4-1.9c-3.7,0.1-7,0.7-9.3,1.7"/>
		<path class="st1" d="M191.9,260.4c-2.4-1.2-6.2-2-10.4-1.9c-3.7,0-7,0.7-9.3,1.7"/>
		<path class="st1" d="M171.5,260.4c-2.4-1.2-6.2-2-10.4-1.9c-3.7,0-7,0.7-9.3,1.7"/>
	</g>
</g>
</svg>
